<?xml version="1.0" encoding="utf-8"?>
<!-- Generator: Adobe Illustrator 25.0.0, SVG Export Plug-In . SVG Version: 6.00 Build 0)  -->
<svg version="1.1" id="Layer_1" xmlns="http://www.w3.org/2000/svg" xmlns:xlink="http://www.w3.org/1999/xlink" x="0px" y="0px"
	 viewBox="0 0 128.2 96.2" style="enable-background:new 0 0 128.2 96.2;" xml:space="preserve">
<style type="text/css">
	.st0{fill:#5699B6;}
	.st1{fill:#4087A0;}
	.st2{fill:#E2BD81;}
	.st3{fill:#3E3E3E;}
	.st4{fill:#E47B7C;}
	.st5{fill:#D46362;}
	.st6{fill:#9B9B9B;}
	.st7{fill:#BBBBBB;}
	.st8{fill:#FFFFFF;}
	.st9{fill:#E6913A;}
	.st10{fill:#D17C2D;}
	.st11{fill:#EFB480;}
	.st12{fill:#FDCD9D;}
	.st13{fill:#282828;}
</style>
<g>
	<g>
		<path class="st0" d="M23.2,17.8c-1.6,0.9-1.6,6.5-1.3,9.4c0.3,2.9,0.3,7.3,1.3,9.3c1,2.1-0.8,7.1,0,8.6c0.8,1.5-0.1,4.9,1.9,6.5
			c1.7,1.3,8.3,1.1,11.4,0.7c2-0.3,5.5-0.2,6.7-1.8c2.6-3.2,1.3-12.7,1.2-16.4c-0.2-3.7,0.8-11.2-2.3-14.2c-3.1-3-8.7-2.1-10.4-2.2
			C30,17.6,26,16.2,23.2,17.8z"/>
		<path class="st1" d="M22.6,34.1c-0.4,0.2-1,0.7,0.1,0.7c1.1,0,12.5-1.6,15.5-1.6c3,0,5.6-0.5,6.2-0.5c0.8,0,0.9-0.8-0.1-0.7
			c-1.1,0.1-6.1,0.2-9.4,0.5C32.2,32.7,22.6,34.1,22.6,34.1z"/>
		<path class="st1" d="M21.8,24.5c-0.4,0-0.8,0.8,0,1c0.8,0.2,17,3.5,18.4,3.8c1.4,0.3,4.2,0.6,4.7,0.6c0.5,0,1.1-0.5-0.6-0.9
			c-1.7-0.3-8.8-1.7-10.2-2C32.6,26.8,21.8,24.5,21.8,24.5z"/>
		<path class="st1" d="M44.5,36.2c-1.2,0.4-16.9,7.7-17.8,8.2s-2.7,1.6-3.2,1.9c-0.5,0.3-0.7,0.9,0.1,0.7c0.7-0.2,4.3-2.4,6.1-3.2
			c1.8-0.8,7.5-3.7,9.2-4.3c1.8-0.7,4.9-2.4,5.6-2.7C45.2,36.6,45.3,36,44.5,36.2z"/>
		<path class="st1" d="M41.7,41.3c-0.3,0.5-2,3.4-2.9,4.7c-0.9,1.3-4.4,4.2-4.4,4.2s3.8-0.3,6.1-1.7S41.7,41.3,41.7,41.3z"/>
		<path class="st1" d="M28.4,46.9c0,0,2.4,1,4,0.9c1.5-0.1,4.1-2,4.1-2s-2.1,0.2-3.9,0.4C30.8,46.3,28.4,46.9,28.4,46.9z"/>
	</g>
	<g>
		<rect x="47.7" y="28.6" class="st2" width="17.8" height="24.1"/>
		<rect x="49.4" y="36.2" class="st3" width="15.5" height="10.1"/>
	</g>
	<g>
		<g>
			<path class="st4" d="M28.8,66.8c0.7,0.1,5.7,0.4,6.5,0c0.8-0.4,4.9-1.2,6.6-0.6c1.7,0.6,6,1.2,7.9,0.6c1.9-0.6,3-2,4.4-3.1
				c0.5-0.4,1.1-0.5,1.5-0.6c0-0.5-0.1-1-0.2-1.5c-0.8-3.4-4.2-2.6-6.8-2.8c-1.7-0.1-5.5,0.8-7.1,0.6c-1.6-0.2-5.3-0.5-7.1-0.6
				c-1.9-0.2-5.9-1-7.2,0.7c-0.8,1.1-1,3.4-0.8,5.4C27.4,65.8,28.4,66.8,28.8,66.8z"/>
			<path class="st5" d="M38.7,68.1c1.9,0.5,14.3,0,14.3,0s2.8-1.4,2.7-4.9c-0.4,0-0.9,0.2-1.5,0.6c-1.5,1-2.5,2.5-4.4,3.1
				c-1.9,0.6-6.2,0-7.9-0.6c-1.7-0.6-5.8,0.2-6.6,0.6c-0.8,0.4-5.8,0.1-6.5,0c-0.4-0.1-1.4-1-2.2-1.9c0.1,1.1,0.4,2.1,0.8,2.7
				C28.4,69.1,36.9,67.5,38.7,68.1z"/>
			<path class="st5" d="M28.6,63.7c0,0,2,1.2,2.8,1.2c0.8,0,3.9,0,3.9,0s-1.7-1.1-3.1-1.2C30.9,63.6,28.6,63.7,28.6,63.7z"/>
			<path class="st5" d="M42.4,64.9c0,0,3.5,1.3,5.5,1.1C49.8,66,51,65,51,65s-2.7,0.6-3.9,0.4C46,65.3,42.4,64.9,42.4,64.9z"/>
			<path class="st5" d="M43.1,62.8c0,0,3.5-1.1,5.6-1s4.1,0.4,4.1,0.4s-1.8,1-3.2,0.9C48.2,63.2,43.1,62.8,43.1,62.8z"/>
		</g>
		<g>
			<rect x="32.7" y="52.7" class="st6" width="2.8" height="15.6"/>
			<g>
				<path class="st7" d="M66.9,53.1H23l-2.9-32.9l0.6,0.1l51.2,5.1L66.9,53.1z M23.9,52.2h42.3l4.6-25.9l-49.6-4.9L23.9,52.2z"/>
			</g>
			<g>
				
					<rect x="26.9" y="21.3" transform="matrix(0.9968 -8.055229e-02 8.055229e-02 0.9968 -2.891 2.325)" class="st7" width="1" height="31.4"/>
			</g>
			<g>
				
					<rect x="32.2" y="21.8" transform="matrix(0.9968 -8.053633e-02 8.053633e-02 0.9968 -2.8963 2.7531)" class="st7" width="1" height="30.9"/>
			</g>
			<g>
				
					<rect x="37" y="22.2" transform="matrix(0.9968 -8.054253e-02 8.054253e-02 0.9968 -2.8941 3.1425)" class="st7" width="1" height="30.5"/>
			</g>
			<g>
				<path class="st7" d="M63.8,52.7l-1-0.1c0,0,0.8-6.8,1.6-13.6c0.4-3.4,0.8-6.8,1.1-9.4c0.6-4.7,0.6-4.7,1.1-4.7l0,0.5l0.5,0.1
					C66.9,26.2,64.6,45.4,63.8,52.7z"/>
			</g>
			<g>
				<polygon class="st7" points="59.8,52.7 58.8,52.6 61.4,25.3 62.3,25.4 				"/>
			</g>
			<g>
				
					<rect x="41.8" y="38.1" transform="matrix(5.071873e-02 -0.9987 0.9987 5.071873e-02 14.5997 92.4679)" class="st7" width="28.3" height="1"/>
			</g>
			<g>
				
					<rect x="41.9" y="22.8" transform="matrix(0.9989 -4.777228e-02 4.777228e-02 0.9989 -1.7546 2.0667)" class="st7" width="1" height="29.9"/>
			</g>
			<g>
				<rect x="46.6" y="23.2" class="st7" width="1" height="29.4"/>
			</g>
			<g>
				<rect x="51.4" y="23.8" class="st7" width="1" height="28.9"/>
			</g>
			<g>
				<path class="st6" d="M21.9,71.3c-0.5,0-1-0.4-1-1v-10c0-4.1,0-8.7,5.3-8.7h19.6c0.5,0,1,0.4,1,1c0,0.5-0.4,1-1,1H26.3
					c-2.7,0-3.4,1.3-3.4,6.7v10C22.9,70.9,22.5,71.3,21.9,71.3z"/>
			</g>
			<g>
				<path class="st6" d="M62.2,69.3H22.6c-0.5,0-1-0.4-1-1c0-0.5,0.4-1,1-1h39.6c0.5,0,1,0.4,1,1C63.2,68.8,62.7,69.3,62.2,69.3z"/>
			</g>
			<g>
				<path class="st6" d="M68.2,44.3H22.6c-0.5,0-1-0.4-1-1s0.4-1,1-1h45.6c0.5,0,1,0.4,1,1S68.7,44.3,68.2,44.3z"/>
			</g>
			<g>
				<path class="st6" d="M70,34.2C69.9,34.2,69.9,34.2,70,34.2l-48.6-3.3c-0.5,0-0.9-0.5-0.9-1c0-0.5,0.5-0.9,1-0.9L70,32.3
					c0.5,0,0.9,0.5,0.9,1C70.9,33.8,70.5,34.2,70,34.2z"/>
			</g>
			<circle class="st3" cx="20.4" cy="75.3" r="5.6"/>
			<circle class="st8" cx="20.4" cy="75.3" r="2.9"/>
			<path class="st3" d="M21.8,75.3c0,0.8-0.6,1.4-1.4,1.4c-0.8,0-1.4-0.6-1.4-1.4c0-0.8,0.6-1.4,1.4-1.4
				C21.2,73.8,21.8,74.5,21.8,75.3z"/>
			<path class="st7" d="M20.9,69.2c0,0-1.6,3.8-2.4,5.5c-0.8,1.7,1.3,4,3.9,0.6c2.5-3.3,4.1-6.1,4.1-6.1H20.9z"/>
			<circle class="st3" cx="56.3" cy="75.3" r="5.6"/>
			<circle class="st8" cx="56.3" cy="75.3" r="2.9"/>
			<path class="st3" d="M57.8,75.3c0,0.8-0.6,1.4-1.4,1.4c-0.8,0-1.4-0.6-1.4-1.4c0-0.8,0.6-1.4,1.4-1.4
				C57.1,73.8,57.8,74.5,57.8,75.3z"/>
			<path class="st7" d="M56.9,69.2c0,0-1.6,3.8-2.4,5.5c-0.8,1.7,1.3,4,3.9,0.6c2.5-3.3,4.1-6.1,4.1-6.1H56.9z"/>
			<g>
				<path class="st7" d="M20.6,21.3c-0.2,0-0.4-0.2-0.5-0.4c0-0.3-1.2-6.3-8.2-7.5c-0.3,0-0.4-0.3-0.4-0.6c0-0.3,0.3-0.4,0.6-0.4
					c7.7,1.3,9,8.3,9,8.3C21.1,21,20.9,21.2,20.6,21.3C20.7,21.3,20.6,21.3,20.6,21.3z"/>
			</g>
			<path class="st4" d="M15,12.9c0,1.4-1.1,2.6-2.6,2.6s-2.6-1.1-2.6-2.6c0-1.4,1.1-2.6,2.6-2.6S15,11.5,15,12.9z"/>
			<circle class="st5" cx="12.5" cy="12.9" r="1.7"/>
		</g>
		<path class="st9" d="M32.7,17.7c0,2.2,4,4.4,4.9,7.7c0.9,3.3,4.3,16,5,17c0.7,1,1.1,2.1,1.1,2.1s4.5-2,4.8-2.1
			c0.4-0.2-3.1-15.3-3.1-15.3s7.9,6.8,8.9,7.8c2.1,2.2,4.1,5.2,4.1,5.2s4.9-4.8,8.8-9.2c0.8-0.9,3.1-5.4,3.1-5.4s-4.5-2.9-9.6-4.6
			c-5.1-1.6-13.1-4.9-16.1-4.6C41.5,16.5,36.2,16.9,32.7,17.7z"/>
		<path class="st10" d="M54.9,20.8c0,0,1.7,2.8,2.5,5.5c0.8,2.8,0.7,6.3,1.9,6.3c1.2,0,0.8-5.9,0.8-5.9s2.8,3.7,4,3.7
			c1.9,0,1.6-2.9-1.7-5C59.7,23.9,54.9,20.8,54.9,20.8z"/>
	</g>
	<g>
		<g>
			<path class="st11" d="M91.4,41.9c1.8-2,4.3-7.1,4.3-7.1l7.2,2.4c0,0-2.3,3.2-5.3,8.9C95.3,46.4,93.4,43.1,91.4,41.9z"/>
			<path class="st12" d="M104.3,32.5c-1.9,4.7-7.5,6.8-9.6,6c-2-0.8-4.5-6.3-2.6-11c1.9-4.7,6.2-7.3,9.6-6
				C105,22.9,106.2,27.8,104.3,32.5z"/>
		</g>
		<path class="st1" d="M28,69.5c0,0-4.3-0.4-6-0.9c-1.8-0.5-5.2-2.1-6.1-1.6c-1,0.5,0.4,1.4,1.1,1.9c0.7,0.5,0.5,2.6,1.3,3.2
			c0.8,0.6,2.7,0.8,3.2,1.2c1.8,1.2,1.8,2.8,3.5,3c0.8,0.1,5.8-1.5,5.8-1.5L28,69.5z"/>
		<path class="st13" d="M85,75.4c0,0,0.8,2.3-9.7,1.5c-2.8-0.2-14.8-2.9-17.6-3.5c-6.6,1.1-12.5,1.7-18,2.4
			c-2.1,0.3-12.2,0.7-12.2,0.7s-2.1-4.9-0.3-8.9c2.7-0.7,9.8-2.3,13.7-3.1c3.9-0.8,17.4-2.7,18.2-2.4C60,62.3,85,75.4,85,75.4z"/>
		<path class="st0" d="M36.3,72.4c0,0-4.5,1.3-6.8,1c-2.3-0.3-5.2-1.2-6.4-0.9c-1.2,0.3-0.4,1.4,0.5,1.7c0.9,0.3,1.4,1.3,2.2,2.2
			c0.8,0.9,3.3,1.2,4.4,2.1c1.2,0.9,3.3,3.1,4.8,2.3c1.6-0.7,5-3.7,5-3.7L36.3,72.4z"/>
		<path class="st3" d="M76.7,59.2c0,0-10.8-3.9-13.6-4.9c-4.2-1.5-7.1,1.1-16.7,7.7c-3.7,2.6-13.5,9.8-13.5,9.8s-0.3,2.8,1.3,4.6
			c1.9,2.1,4.8,3.3,4.8,3.3s15.9-10.1,17.7-11.5c1.8-1.4,1.8-1.4,1.8-1.4s13,9.8,21.2,10.3C87.8,77.5,76.7,59.2,76.7,59.2z"/>
		<path class="st3" d="M96.5,30.8c0,0-1.1,3.3-2.1,4.1c-0.9,0.8-2.2,0.3-2.2,0.3s-1.9,2.2-2.7,3.8c-1,2-0.4,5.4-0.4,5.4
			s7.3-3.3,8.5-4.4c1.1-1.1,0.2-7.5,0-8.2C97.4,31.1,96.5,30.8,96.5,30.8z"/>
		<path class="st3" d="M93.8,25.4c0,0-0.3,3.8,1,5.2c1.3,1.3,4.6,3.3,4.7,5c0.1,1.7,0.5,2.6,0.5,2.6s1-0.7,1-1
			c0-0.3-0.4-1.9-1.5-3.4c-0.7-0.9-0.5-2.4-0.5-2.4s0.8,1.4,1.3,2c0.6,0.7,0.7,1.2,1.3,2.2c1.3,2.3,5.9,1.6,6.3,1.3
			c0.4-0.3-3.9-4.2-3.7-5.6C104.4,29.8,93.8,25.4,93.8,25.4z"/>
		<g>
			<path class="st9" d="M70.8,70.9c2.8-0.8,3.8,3.9,5.5,5.3c1.7,1.4,2-2.6,4.1-3.3c2.1-0.7,4.5,4.9,12.6,4.1
				c8.2-0.8,10.6-5,13.7-12.3c3.1-7.3-0.3-19-1.5-24.2c-0.6-2.9-2.8-4.8-4.5-5.8c-4.3,1.6-8.6,4.6-10.9,6c-5.5,3.3-8.1,7.3-8.6,7.9
				c-2.2,2.8-0.2,5.2-0.2,5.2s-2.6-1-4.9-1.5c-1.9-0.4-3,2.1-4.3,1.8c-1.3-0.3-2.6-1.2-3.8-0.3c-0.9,0.7-3.8,9.9-3.7,16.6
				C66.5,71.3,68.9,71.4,70.8,70.9z"/>
			<path class="st10" d="M87.9,80.5c9,0,19.5-5.5,22.1-12.2c2.6-6.6,1.7-25.7,1.1-29.6c-0.3-1.7-1.9-5.5-6.2-5.1
				c-1.4,0.1-2.8,0.5-4.3,1.1c1.8,1,3.9,2.8,4.5,5.8c1.1,5.2,4.6,16.9,1.5,24.2C103.6,72,101.1,76.3,93,77
				c-8.2,0.8-10.6-4.8-12.6-4.1c-2.1,0.7-2.4,4.7-4.1,3.3c-1.7-1.4-2.7-6.1-5.5-5.3c-1.9,0.5-4.2,0.4-6.5-0.4c0,2,0.3,3.7,1,5
				C68.7,82.1,83.7,80.5,87.9,80.5z"/>
		</g>
		<path class="st1" d="M94.4,23.6c0,0,2.9-3,5.9-4.4c2.4-1.1,6-0.4,7.3-0.3c2.9,0.4,1.5,3.2,1,4.1c-1,1.7-4.3,6.8-4.3,6.8
			S97.7,30.7,94.4,23.6z"/>
		<path class="st0" d="M94.9,22.2c-0.3-0.2-0.9,0.1-1,0.7c-0.1,0.5-0.2,1-0.6,1.2c-0.9,0.6-1,1.4-1,1.4s2.7,3.8,7.5,5.5
			c4.7,1.8,4.5,1.5,5.8,0.6c0.4-0.3,0-0.9,0.3-1.4c0.3-0.6,0.9-1.4,0.7-1.8c-0.3-0.6-3.1,0.2-5.9-1.2C98,26,94.9,22.2,94.9,22.2z"/>
		<path class="st10" d="M82.5,56.9c0,0,0.5,5.3,5.5,10c5.1,4.6,7.6,5.7,7.8,4.1c0.2-1.6-4.5-5.4-4.5-5.4s5.3,1.8,8.1,1.3
			c2.8-0.5,4.9-2.1,3.4-2.6C101.4,63.7,88.3,64,82.5,56.9z"/>
		<path class="st10" d="M75,56.2c0.1-0.4-1.1,6.7,0,10.6c1.4,4.7,3.6-0.1,2.6-2.1C76.7,62.8,75,56.2,75,56.2z"/>
	</g>
</g>
</svg>
