<?xml version="1.0" encoding="utf-8"?>
<!-- Generator: Adobe Illustrator 25.0.0, SVG Export Plug-In . SVG Version: 6.00 Build 0)  -->
<svg version="1.1" id="Layer_1" xmlns="http://www.w3.org/2000/svg" xmlns:xlink="http://www.w3.org/1999/xlink" x="0px" y="0px"
	 viewBox="0 0 122.1 87.4" style="enable-background:new 0 0 122.1 87.4;" xml:space="preserve">
<style type="text/css">
	.st0{fill:#E47B7C;}
	.st1{fill:#D46362;}
	.st2{fill:#CCCCCC;}
	.st3{fill:#EFB480;}
	.st4{fill:#FDCD9D;}
	.st5{fill:#EAEAEA;}
	.st6{fill:#282828;}
	.st7{fill:#3E3E3E;}
	.st8{fill:#AA9D4D;}
	.st9{fill:#9A8A3C;}
	.st10{fill:#85742D;}
	.st11{fill:#BBBBBB;}
</style>
<g>
	<g>
		<g>
			<g>
				<polygon class="st0" points="81,44.1 76.7,42.7 72.4,41.4 72.2,43.1 80.2,45.6 				"/>
				<polygon class="st0" points="70.8,52.7 73.3,53.5 75.8,54.3 76.3,53.3 71,51.6 				"/>
				<polygon class="st0" points="71.1,50.8 76.6,52.6 77.4,51 71.3,49.1 				"/>
				<polygon class="st0" points="72,43.9 71.8,45.7 79,48 79.8,46.4 				"/>
				<polygon class="st0" points="71.4,48.2 77.8,50.3 78.6,48.7 71.7,46.5 				"/>
				<polygon class="st1" points="80.2,45.6 72.2,43.1 72,43.9 79.8,46.4 				"/>
				<polygon class="st1" points="71.7,46.5 78.6,48.7 79,48 71.8,45.7 				"/>
				<polygon class="st1" points="71.3,49.1 77.4,51 77.8,50.3 71.4,48.2 				"/>
				<polygon class="st1" points="71,51.6 76.3,53.3 76.6,52.6 71.1,50.8 				"/>
			</g>
			<rect x="71.6" y="42" transform="matrix(0.9533 0.302 -0.302 0.9533 16.4978 -21.1578)" class="st2" width="10.2" height="1.6"/>
		</g>
		<path class="st3" d="M47.1,28.4c0,0-2.4,5.5-2.4,6.8c-0.1,1.4,0.9,3.8,0.9,3.8l-9.5-4l5.9-11L47.1,28.4z"/>
		<path class="st4" d="M53.3,23.2C53,28,49.4,32,47,31.2c-2.4-0.7-7.4-3.9-7.2-8.8c0.3-4.9,3.5-8.7,7.2-8.5
			C50.7,14.2,53.5,18.3,53.3,23.2z"/>
		<path class="st5" d="M45.1,35.5l-7.5-3.3c0,0-2.4,1.7-4.2,5.6c-4.3,9.7-3,26.2-3,26.2l14.9,0.8c0,0,3.3-16.3,1.9-21.8
			C45.7,37.5,45.1,35.5,45.1,35.5z"/>
		<path class="st4" d="M67.8,71c0,0,8.3-2.4,7.1,2.5c-0.8,3.5-3.4,5.3-8.7,5.7C61,79.5,67.8,71,67.8,71z"/>
		<path class="st6" d="M46.5,62.2c0.5,0,13.9-3.7,19.3-0.7c5.5,3,3,10.5-1.5,12.9C59.9,76.8,46.5,62.2,46.5,62.2z"/>
		<path class="st7" d="M42.8,63.8c0,0,16.1,0.8,22.3,1.3c6.2,0.5,7.1,5.6,6.4,8.3c-0.7,2.7-2.3,6.7-11.2,6.9s-20.5-0.5-20.5-0.5
			L42.8,63.8z"/>
		<path class="st8" d="M37.6,32.2c-6,0.1-8.9,5.9-11.9,11.2c-2.5,4.4-3.2,13.3-5.1,20.1c-2.2,7.8-2.8,11.6,2.1,15.2
			c4.7,3.5,22.1,2.3,24.8,2.1c6.6-0.3,5.8-11.8,5.2-14.8c-0.6-3-1.3-3.9-2.1-5.1C49.7,59.6,54.9,31.9,37.6,32.2z"/>
		<path class="st9" d="M38.8,47.2c0,0-4.6-1.9-7.7-1.6c-3.1,0.3-4.6,2.5-1,3.3c3.6,0.7,5.5,1.9,5.5,1.9s-4.2,3.4-7.6,7
			s-1.2,5.2,2.1,2.3c3.3-2.9,7.3-5.4,7.3-5.4s-4.3,7.9-7.3,12.3c-2.9,4.4,2.3,3.8,5.5-0.7c3.2-4.5,5.9-7.4,5.9-7.4s-0.2,10.6,3.2,12
			s8.5-1.7,8.5-1.7s-2.2-10.2-2.7-13.9C50.2,51.5,38.8,47.2,38.8,47.2z"/>
		<path class="st10" d="M48.7,41.4c0.1,0.2,0.3,3.8,0.7,5.5c0.3,1.8-0.1,10.8,0.5,12.9c0.6,2.1,2.3,4.1,2.3,4.1s-1.2-4.1-1-8.2
			c0.2-4.1-1.6-13.1-1.6-13.1L48.7,41.4z"/>
		<path class="st4" d="M65.1,50.4c0,0,4.5-1.4,6.3-2.2c1.8-0.8,2.7,0,2,0.5c-1,0.7-1.6,1.4-1.6,1.4s3.6-0.1,5.7,0.1
			c1.9,0.2,0.3,3-2.2,4.8c-1.5,1.1-8.3,0.1-8.3,0.1L65.1,50.4z"/>
		<path class="st6" d="M45.6,24.6c0,0,1.7,1.4,3.6,2.7c0.5,0.4,2.4,1.2,2.4,1.2s1.1,2.6,0.9,6.7c-0.2,4-1.3,5.9-2.9,7.4
			c-3.5-5.3-7.3-7.3-6.7-10.4C43.5,29.1,45.6,24.6,45.6,24.6z"/>
		<path class="st7" d="M47.9,17.6c0,0,0,2.1-0.4,6.4c-0.4,4.3-0.8,10.4,0.1,12.1c-1.9-0.5-2.7-4-2.7-4s-0.9,3.6-0.6,5.4
			c-1.2-0.8-3.4-2-4.5-2.8c-2.4-1.8-4.3-1.8-5.2-1.4c-1.2,0.5-3.5,2-3.5,2s2.5-5.3,4.9-16c1.8-8.1,6.8-8.4,11.8-7.2
			c2,0.5,9.3,2.8,4.8,6.7c-0.7-1.3-1.5-1.8-2.5-2C49.4,17.6,47.9,17.6,47.9,17.6z"/>
		<path class="st6" d="M50,25.9c-1.6,1.4-0.8,2.1-0.8,2.1s2.4-0.4,3.6-0.6c1.1-0.2,0.2-2,0.2-2S51,25,50,25.9z"/>
		<path class="st10" d="M45.2,63.9c0,0-2.1,4.4-5.3,6.7c-3.2,2.3-4.1,2.6-4.1,2.6l1.5,1.2c0,0,2.5-0.3,6.4-4.3
			c2.4-2.5,3.3-4.5,3.3-4.5L45.2,63.9z"/>
		<path class="st10" d="M47.5,80.9c0,0,3.4-1.5,4.2-6.9c1.1-7.1-0.3-11.4-0.3-11.4l0-2.2c0,0,1.7,3,1.9,7.3
			c0.2,4.4-0.4,8.4-1.4,10.3c-1.1,2.2-2.9,2.9-2.9,2.9H47.5z"/>
		<g>
			<path class="st2" d="M49,57.9c2.6,0.5,12.6-2.5,17.7-4.1L66,50.4c0,0-2-0.2-5.7,0.4c-3.7,0.6-8.6,1.5-8.6,1.5s-2.3-4.2-4.3-7.4
				c-3.1-5-5.9-9-8.3-8.5c-1.4,0.3-2.3,0.8-3,1.4c0.1,2.4,0.6,6.2,2.9,9.6C42.5,53,45.5,57.3,49,57.9z"/>
			<path class="st11" d="M48,60.7c3.5,0.6,6.1-0.4,9.8-1.6c4-1.3,9.2-4,9.2-4l-0.3-1.5c-5.1,1.6-15.1,4.6-17.7,4.1
				c-3.5-0.7-6.5-5-10.1-10.5c-2.2-3.4-2.8-7.2-2.9-9.6c-0.3,0.3-0.5,0.6-0.7,0.9l-0.7,3c0.1,4,3.1,8.9,4.2,10
				C40.6,53.5,45.6,60.3,48,60.7z"/>
		</g>
	</g>
	<g>
		<path class="st2" d="M90.8,74.7c0,0,2.1-0.6,3.9-2.7c1.8-2.1,1.9-2.3,1.9-2.3s1.6,1.3,2,2.2c0.4,0.9,0.6,1.7,0.6,1.7l-4.5,2.8
			L90.8,74.7z"/>
		<path class="st2" d="M86.9,69c0,0-0.9,0.5-1.7,1c-0.7,0.6-1.4,1.3-1.4,1.3s2.5,3,3.4,3.7c0.9,0.7,2,1.4,2,1.4l1.8-2.7
			C91,73.6,88.2,71.6,86.9,69z"/>
		<g>
			<path class="st8" d="M98.7,77.5c1-1.8,1.1-4.1,1.1-4.1l-7.1,0.2c0.1,0.2,0.1,0.4,0.1,0.7c-0.1,2-2.9,2.2-3.7,2
				c-0.8-0.2-0.5-1.8,0.6-2.7c0,0,0,0,0.1,0l-7.8-0.2c0,0,0.1,2.4,1.1,4.1c0.9,1.6,4.2,1.7,7.8,1.7c0,0,0,0,0,0
				c-0.1-1,0.3-2.1,1.3-2.3c1.4-0.2,3.3-1.7,4.6-1.2c1,0.4,0.5,1.5,0.9,2.7C98.2,78.2,98.5,77.9,98.7,77.5z M87,76.4
				c-0.4,0.8-1.6,1.6-2.4,0.7c-0.9-1.1-0.9-3.3-0.9-3.3s2.8-0.2,3.5,0C88,74,87.4,75.6,87,76.4z"/>
			<path class="st9" d="M87.3,73.8c-0.7-0.2-3.5,0-3.5,0s0,2.2,0.9,3.3c0.8,1,2,0.1,2.4-0.7C87.4,75.6,88,74,87.3,73.8z"/>
			<path class="st9" d="M96.9,75.7c-1.3-0.5-3.2,1-4.6,1.2c-1,0.2-1.4,1.3-1.3,2.3c3,0,5.4-0.1,6.8-0.8
				C97.4,77.2,97.9,76.1,96.9,75.7z"/>
			<path class="st9" d="M89.2,76.3c0.8,0.2,3.6-0.1,3.7-2c0-0.3,0-0.5-0.1-0.7l-1.9,0l-1.1,0c0,0,0,0-0.1,0
				C88.7,74.5,88.4,76.1,89.2,76.3z"/>
			<path class="st10" d="M105.6,73H81.3v0.3c0,0.7,0.5,1.2,1.2,1.2h21.5C104.9,74.6,105.6,73.9,105.6,73L105.6,73z"/>
		</g>
	</g>
</g>
</svg>
