<?xml version="1.0" encoding="utf-8"?>
<!-- Generator: Adobe Illustrator 25.0.0, SVG Export Plug-In . SVG Version: 6.00 Build 0)  -->
<svg version="1.1" id="Layer_1" xmlns="http://www.w3.org/2000/svg" xmlns:xlink="http://www.w3.org/1999/xlink" x="0px" y="0px"
	 viewBox="0 0 79.5 111.1" style="enable-background:new 0 0 79.5 111.1;" xml:space="preserve">
<style type="text/css">
	.st0{fill:#BBBBBB;}
	.st1{fill:#9B9B9B;}
	.st2{fill:#4087A0;}
	.st3{fill:#FDCD9D;}
	.st4{fill:#723819;}
	.st5{fill:#AB2F2E;}
	.st6{fill:#5699B6;}
	.st7{fill:#EFB480;}
	.st8{fill:#834920;}
	.st9{fill:#FFFFFF;}
	.st10{fill:#E6913A;}
	.st11{fill:#D17C2D;}
	.st12{fill:#BC925C;}
	.st13{fill:#A87D49;}
	.st14{fill:#E2BD81;}
</style>
<g>
	<g>
		<g>
			<rect x="12.9" y="75.3" class="st0" width="44.7" height="2.9"/>
			<rect x="12.9" y="85.5" class="st0" width="44.7" height="2.9"/>
			<rect x="15.5" y="78.1" class="st1" width="38.9" height="7.4"/>
		</g>
		<path class="st2" d="M29,22.4c0,0-1.6,5.8,0.2,9.9c1.8,4,6.2,4,7.8,4.4c1.7,0.4,3.8-5.4,4.2-7.6s2.2-3.6-1-5.8
			C37.1,21,29,22.4,29,22.4z"/>
		<g>
			<path class="st3" d="M31.9,34.6L28.2,36c0,0,0,3.8,5.6,4.6c5.5,0.8,8.1-4.6,8.1-4.6l-4.4-1.4H31.9z"/>
			<g>
				<path class="st4" d="M45.9,73.8c2.4-2.3,1.1-6.7,0.7-7.8c0-0.1,0-0.1-0.1-0.2c-2,0.7-4.9,1.4-6.7,1.3c-3-0.2-7.4-0.6-10.8-0.6
					c-1.5,0-3.1-0.5-4.4-1c-0.2,1.7-1.6,5.8-0.5,7.9C26.5,78.1,43.3,76.3,45.9,73.8z"/>
				<path class="st5" d="M40.7,69.4c1.8,0.1,4.6-0.7,6.7-1.3c-1.2-4.1-1.6-4.7-1.6-4.7L26,64.1c0,0-0.3,1.4-0.6,3.7
					c1.3,0.5,2.9,1,4.4,1C33.2,68.8,37.7,69.2,40.7,69.4z"/>
			</g>
			<path class="st6" d="M53.9,49.4c-1.3-4.4-4.8-10.2-7.4-11.8c-2-1.3-5-1.9-6.5-2.2c-0.7,2.1-3.4,2.2-5.3,4.2c-1.3,0-2.3-2.2-3.3-3
				c-0.8-0.6-1.1-0.4-1.7-1.3c-0.6,0.2-2.4,0.9-3.3,1.2c-3.9,1.1-6.7,7.2-8.1,10c-4,7.8-2.7,10.8,0.1,10.9c2.8,0.1,4.3-4.2,5.4-5.8
				c0.8-1.2,2.1-2.3,2.1-2.3s-0.2,2.8-0.5,4.5c-0.6,4.7-2.8,7.6-2.4,11c0.2,1.5,1.1,1.5,0.6,2.5c-0.4,0.8-0.3,1.3,0,1.6
				c0.9,1.1,4.1,1.5,5.8,1.8c2.3,0.4,6.7-0.5,10.6-0.1c3.9,0.4,7.7-1.4,7.5-2.8c-0.3-2.4,0.8-2.4-1.1-8.8c-1.3-4.4-1.2-9.5-1.2-9.5
				s1.4,1,2.3,2.5c1.4,2.1,3.2,5.6,5.4,3.6C54.8,54.1,54.6,51.6,53.9,49.4z"/>
			<path class="st7" d="M31.9,30.8c0,0,0.4,2.2,0,3.8c-0.2,0.7,2.1,1.4,2.9,1.4c0.8,0,3-0.4,2.9-1.4c-0.1-1.2,0-3.8,0-3.8H31.9z"/>
			<g>
				<g>
					<path class="st3" d="M29.5,23.9c0,0-0.7-0.4-1.2,0.6c-0.5,0.9,0.4,2.4,1.2,2.5C30.3,27,29.5,23.9,29.5,23.9z"/>
					<path class="st3" d="M40.4,24.2c0,0,0.8-0.3,1.1,0.7c0.3,1-0.7,2.3-1.5,2.3C39.2,27.1,40.4,24.2,40.4,24.2z"/>
					<ellipse class="st3" cx="34.8" cy="25" rx="5.5" ry="7.3"/>
				</g>
			</g>
		</g>
		<path class="st2" d="M43.3,50.2c0,0-5,4.5-6.9,5.9c-1.9,1.4-4.5,2.2-4.5,2.2s3.1,0.4,6.3-1.3C41.3,55.4,43.3,50.2,43.3,50.2z"/>
		<path class="st2" d="M26.2,59.7c0,0,2.7,4,4.8,5.2s9.2,0.9,9.2,0.9s-6.6-1.1-8.7-3C29.3,60.8,26.2,59.7,26.2,59.7z"/>
		<g>
			<path class="st6" d="M32.6,92.2c0.1-1-0.7-5.9-0.7-5.9l-6.4-0.7c0,0-1.9,4.2-2.6,6.3c1.2-0.3,3.2-0.8,4.8-0.7
				C29.8,91.1,30.3,93.2,32.6,92.2z"/>
			<path class="st2" d="M28.2,94.5c2.8,0.2,4.3-1.3,4.4-2.3c-2.2,1-2.8-1-4.9-1.1c-1.6,0-3.6,0.4-4.8,0.7c-0.1,0.3-0.2,0.6-0.2,0.8
				C22.5,94.2,25.4,94.3,28.2,94.5z"/>
		</g>
		<g>
			<path class="st6" d="M38.4,92.8c-0.1-1,0.7-5.9,0.7-5.9l6.4-0.7c0,0,1.9,4.2,2.6,6.3c-1.2-0.3-3.2-0.8-4.8-0.7
				C41.1,91.7,40.6,93.8,38.4,92.8z"/>
			<path class="st2" d="M42.7,95.1c-2.8,0.2-4.3-1.3-4.4-2.3c2.2,1,2.8-1,4.9-1.1c1.6,0,3.6,0.4,4.8,0.7c0.1,0.3,0.2,0.6,0.2,0.8
				C48.4,94.8,45.6,94.9,42.7,95.1z"/>
		</g>
		<path class="st8" d="M25.5,64.4c-0.5,2.8-0.7,9.7-1.4,12.4c-0.9,3.4-0.2,4.3,0.4,6.2c0.6,2-1.5,3.2,0.3,4.4c1.8,1.2,6.5,2.2,8.5,0
			c0.9-1-0.4-2.3,0.5-3.8c1.1-2-0.4-3.2,0-5.7c0.4-2.9,1.5-8.9,1.1-12.2c-0.3-2.9-0.6-4.4-3.4-5.7C29.4,59.1,26.2,60.1,25.5,64.4z"
			/>
		<path class="st8" d="M45.9,64.4c0.5,2.8,0.7,9.7,1.4,12.4c0.9,3.4,0.2,4.3-0.4,6.2c-0.6,2,1.5,3.2-0.3,4.4c-1.8,1.2-6.5,2.2-8.5,0
			c-0.9-1,0.4-2.3-0.5-3.8c-1.1-2,0.4-3.2,0-5.7c-0.4-2.9-1.5-8.9-1.1-12.2c0.3-2.9,0.6-4.4,3.4-5.7C42,59.1,45.2,60.1,45.9,64.4z"
			/>
		<path class="st4" d="M33.6,20.3c0,0,1.1,2.5,2.6,3.8c1.6,1.4,4.4,2,4.4,2s1-3.3,0.6-3.7S33.6,20.3,33.6,20.3z"/>
		<path class="st4" d="M34.7,20.2c0,0,0.5,3-4.5,5.7c-1.8,1-2.1-0.1-2.1-0.1s2.9-1.2,4.4-3.2c1-1.4,1-2.4,1-2.4H34.7z"/>
		<path class="st2" d="M27.4,36.2c0,0,2.9,4.3,7.3,4.2c4.4-0.1,6.6-4.8,6.6-4.8L40,35.4c0,0-3.7,4.1-5.6,3.7
			c-1.4-0.3-4.2-2.6-5.7-3.4C28.2,36,27.4,36.2,27.4,36.2z"/>
		<path class="st6" d="M40.6,16.7c-1.2-0.9-3.9-2-6.1-2c-2.5,0-4.7,1.5-5.3,2.1c-3,3.4-3.5,9.2-2.7,14.8c0.6,4.4,3.7,6.5,5.8,7.2
			c1.2,0.4,2.1,0.3,2.1,0.3s-0.5-0.6-1.3-1.7c-1.7-2.6-4.3-7.4-4-9.4c0.4-2.9,1.1-8.9,5.8-8.6c6.1,0.5,5.3,5.1,4.7,8.9
			c-0.5,3-5.1,10.9-5.1,10.9s0.7,0.1,1.9-0.5c2.1-1,5.3-3.5,5.9-7C43.5,26,44.3,19.5,40.6,16.7z"/>
		<path class="st9" d="M30.2,23.3c0,0-1.3-2.5,2.5-4.2c1.9-0.9,5.8-0.3,7.2,1.7c0.9,1.2,0.4,3.1,0.4,3.1s-3.6-2.5-5-2.5
			C32.7,21.3,30.2,23.3,30.2,23.3z"/>
		<path class="st2" d="M20,50.2c-0.6,0-3.1,0.9-3.9,2c-0.8,1-0.7,3.8,0,4.9c0.7,1.1,2.9,1.7,5.3,1c2.4-0.7,3.4-3.2,3.1-4.4
			S23.7,50.2,20,50.2z"/>
		<path class="st3" d="M21.3,46.3c-0.7,1-1.7,3.9-2,5.1c-0.3,1.2-0.5,2.9,0,3.6c0.5,0.7,2.4,1.1,2.9,1c0.5-0.1,2.4-2,3.2-2.7
			c0.9-0.7,2.4-0.9,1.8-1.5s-2,0.2-2.8,0.2s0.1-2.7,0.7-4.2S23.3,43.7,21.3,46.3z"/>
		<path class="st2" d="M50.5,50.2c0.6,0,3.1,0.9,3.9,2c0.8,1,0.7,3.8,0,4.9c-0.7,1.1-2.9,1.7-5.3,1c-2.4-0.7-3.4-3.2-3.1-4.4
			S46.8,50.2,50.5,50.2z"/>
		<path class="st3" d="M49.1,46.3c0.7,1,1.7,3.9,2,5.1c0.3,1.2,0.5,2.9,0,3.6c-0.5,0.7-2.4,1.1-2.9,1c-0.5-0.1-2.4-2-3.2-2.7
			c-0.9-0.7-2.4-0.9-1.8-1.5s2,0.2,2.8,0.2c0.8,0-0.1-2.7-0.7-4.2C44.8,46.3,47.2,43.7,49.1,46.3z"/>
		<path class="st4" d="M25.4,81.8c0,0,0.1,1.6,1.4,2.4s2.4,0.4,2.4,0.4L25.4,81.8z"/>
		<path class="st4" d="M46,79.6c0,0-1.5,2.1-3,2.6c-1.5,0.5-2.9,1.1-2.9,1.1s1,0.5,3.1,0C45.4,82.8,46,79.6,46,79.6z"/>
		<path class="st4" d="M39.2,76.7c0,0,1.7,2.7,3,2.9c1.3,0.2,1.4-1.1,0.4-1.3S39.2,76.7,39.2,76.7z"/>
		<path class="st4" d="M31.8,80.7c0,0-2.1,0.7-2.8,0.8c-0.7,0.2-2,1.3,0,1.1S31.8,80.7,31.8,80.7z"/>
	</g>
	<g>
		<g>
			<path class="st10" d="M47.9,55.6c0,0,0.6,5.8-4,11.3s-9.7,16.9-2.8,22.3c7,5.4,15.4,1,16.9-6.8c1.2-6-0.5-12-2.3-16.1
				c-1,2.6-2.5,3.5-2.5,3.5s0.8-5.1,0-7.2C51.1,56.8,47.9,55.6,47.9,55.6z"/>
			<path class="st10" d="M34.9,74.8c0,0-3,5-0.8,7.8c2.2,2.8,4,2.8,4,2.8S34.5,77.8,34.9,74.8z"/>
			<path class="st10" d="M61.5,80.3c0,0,1.5,6.5-1.4,8.5c-3,1.9-6.9,0.3-6.9,0.3S60.9,83.2,61.5,80.3z"/>
			<path class="st11" d="M49.2,64.6c0,0-0.5,3.6-5.6,9.6c-5.3,6.2,0,14,0,14s5.2,2.2,8.3-1.4c4.5-5.1,1.9-14.3,1.9-14.3
				s-1,2.1-3.2,4.4c-1.5,1.5-1.7,4.8-1.7,4.8s-3.2-3.4,0.3-7.6C51.8,71.2,49.2,64.6,49.2,64.6z"/>
			<path class="st10" d="M44.8,57.5c0,0-0.8,1.3-3,3.8c-2.6,3-1.3,6-1.3,6s0.9-1.5,3-4.6C46,59.2,44.8,57.5,44.8,57.5z"/>
			<path class="st10" d="M58.8,67.4c0,0,1,2.4,1.3,3.9c0.2,1.5,0.4,4.1,0.4,4.1s1.4-1.7,0.9-4.5C60.9,68.3,58.8,67.4,58.8,67.4z"/>
			<path class="st10" d="M37.9,65.5c0,0-1,2.2-2.1,4.8c-0.7,1.8,1.2,5.2,1.2,5.2s0-3.7,1-5.9C38.8,67.7,37.9,65.5,37.9,65.5z"/>
			<path class="st10" d="M47.5,73.2c0,0-2.7,1-3.4,4c-0.6,3,2.5,5.2,2.5,5.2S44.7,78.9,47.5,73.2z"/>
			<path class="st10" d="M52.4,77.9c0,0-2.1,2.2-2.1,5.1C51.5,82.3,53.1,80.4,52.4,77.9z"/>
		</g>
		<g>
			
				<rect x="28" y="78.7" transform="matrix(-0.5789 -0.8154 0.8154 -0.5789 -22.4025 162.6569)" class="st12" width="5.6" height="16.7"/>
			<rect x="36.3" y="83" class="st13" width="6.6" height="11.8"/>
			
				<rect x="57.8" y="82.6" transform="matrix(0.7613 -0.6484 0.6484 0.7613 -42.7594 60.7209)" class="st12" width="6.6" height="11.8"/>
			
				<rect x="60.9" y="81.4" transform="matrix(0.7613 -0.6484 0.6484 0.7613 -41.6792 61.3299)" class="st14" width="3" height="11.8"/>
			
				<rect x="46.6" y="83.6" transform="matrix(6.123234e-17 -1 1 6.123234e-17 -42.5482 141.438)" class="st12" width="5.6" height="16.7"/>
			<rect x="41.1" y="93.2" class="st13" width="16.7" height="1.6"/>
			<rect x="31.7" y="91.9" class="st14" width="6.2" height="2.9"/>
		</g>
	</g>
</g>
</svg>
