<?xml version="1.0" encoding="utf-8"?>
<!-- Generator: Adobe Illustrator 25.0.0, SVG Export Plug-In . SVG Version: 6.00 Build 0)  -->
<svg version="1.1" id="Layer_1" xmlns="http://www.w3.org/2000/svg" xmlns:xlink="http://www.w3.org/1999/xlink" x="0px" y="0px"
	 viewBox="0 0 148.1 57.1" style="enable-background:new 0 0 148.1 57.1;" xml:space="preserve">
<style type="text/css">
	.st0{fill:#E2BD81;}
	.st1{fill:#3E3E3E;}
	.st2{fill:#BC925C;}
	.st3{fill:#282828;}
	.st4{fill:#EFB480;}
	.st5{fill:#4087A0;}
	.st6{fill:#5699B6;}
	.st7{fill:#FDCD9D;}
	.st8{fill:#E47B7C;}
	.st9{fill:#D46362;}
	.st10{fill:#85B6D1;}
</style>
<g>
	<g>
		<rect x="84.2" y="8.1" class="st0" width="35.8" height="31.2"/>
		<rect x="99.3" y="8.1" class="st1" width="5.7" height="7"/>
		<path class="st2" d="M93.9,8.1c0,0,2.5,8.9,4.1,15.3c1.7,6.4,2.6,10.1,2.6,10.1l1.5-0.4c0,0-2.8-9.1-3.7-12.8
			c-0.9-3.7-3-10.7-3.5-12.3C94.6,6.5,93.5,6.9,93.9,8.1z"/>
		<path class="st2" d="M116.8,8.1c0,0-2.5,8.9-4.1,15.3c-1.7,6.4-2.6,10.1-2.6,10.1l-1.5-0.4c0,0,2.8-9.1,3.7-12.8
			c0.9-3.7,3-10.7,3.5-12.3C116.1,6.5,117.1,6.9,116.8,8.1z"/>
		<path class="st2" d="M84.2,13.8c0.7,0.2,26.9,6.6,30.1,7.4c3.5,1,6.8,1.6,6.3,2.5c-0.1,0.2-1.6,0-3.3-0.6
			c-1.4-0.5-21.3-5.4-23.5-6c-3.1-0.9-8.9-2.1-9.6-2.3C83.3,14.6,83.4,13.5,84.2,13.8z"/>
	</g>
	<g>
		<g>
			<path class="st1" d="M23.5,39.3c-1.7,0.7-3.7,0.9-6-2c-0.9-1.2-1.8-2.1-2.5-2.8c-0.6,0.1-1.1,0.3-1.5,0.7c-1.6,1.6-1.1,6.4,0,8.6
				c1.1,2.2,6.4,3.1,15,2.5c1.7-0.1,3.2-0.2,4.7-0.3c-0.7-1-1.4-2.1-1.7-3.1C30.2,39.7,26.4,38.2,23.5,39.3z"/>
			<path class="st3" d="M43.1,45.7c0,0,2.3-9.2-2.3-12.1c-4.6-2.9-12-0.6-20,1c-2.2,0.4-4.3-0.3-5.9,0c0.7,0.7,1.6,1.6,2.5,2.8
				c2.3,2.9,4.3,2.7,6,2c2.9-1.2,6.8,0.4,7.9,3.6c0.4,1,1,2.1,1.7,3.1C39.1,45.7,43.1,45.7,43.1,45.7z"/>
		</g>
		<path class="st4" d="M34.4,34.3c-0.6-0.4-8.1-3.1-9.3-1.1c-2,3.6,4.2,2.4,6.2,3.8C33.3,38.4,34.4,34.3,34.4,34.3z"/>
		<path class="st4" d="M32.3,32.6c0,0,5.5,0.7,5.8,2.1c0.3,1,1.5,3.1,2.2,4.5c0.8,1.5,5.6-8,5.6-8s-6.9-7.1-6.6-6.3
			c0.3,0.8-3.1,1.5-5.5,1.4C32.4,26.3,32.3,32.6,32.3,32.6z"/>
		<path class="st3" d="M122.5,46c0.4-0.3,5.8-0.1,8.9,0.5s6.6,0.7,7-2.4c0.4-3.1-1.1-4.3-1.8-4.6c-0.7-0.3-11.5-1-12.7-1.4
			C122.8,37.8,122.5,46,122.5,46z"/>
		<path class="st1" d="M125.3,39.3c0,0,3.5,2.3,6.5,3.6c3,1.2,5.7,0.4,5.7-3.1c0-3.6-0.3-3.5-3.4-4.7c-3.1-1.2-7.8-2.2-7.8-2.2
			L125.3,39.3z"/>
		<path class="st5" d="M74.6,43.8c0,0,19.1,4.4,23.5,4.2c4.3-0.1,26.2-1.5,26.2-1.5s0.4-6.2-0.4-8.3C123.2,36,77,31.2,77,31.2
			L74.6,43.8z"/>
		<g>
			<path class="st6" d="M113.5,34.3c-1.5,0.8,2,3.4,0,5.1c-2,1.7-6.2-4.6-8.9-6.9c-2.7-2.2-6.2-1.3-6.7,0c-0.5,1.3-1.6,5.5-2.8,1.8
				c-1.2-3.7-6.2-7.3-9.2-9.7c-3-2.4-9.9-1.5-9.9-1.5c-0.8,0.5-1.3,0.9-1.3,0.9l2.7,12.1c0,0,12,6.3,16.4,6.8c2.4,0.3,7-0.8,9.7-0.6
				c6.3,0.5,8.6,0.3,10.5,0c4-0.7,13.3-0.7,13.3-0.7L128,35c-3.2-0.9-7.8-2.1-8.9-2.5C117.4,31.9,115,33.5,113.5,34.3z"/>
			<path class="st5" d="M118.9,30c-1.3-0.4-2.7,0.1-4.6,1.2c-1.9,1.1-3.9-0.7-8-1.5c-4-0.8-10.7,0.3-10.7,0.3s-5.4-6.6-10.7-8.4
				c-3.7-1.3-7.2,0.4-9,1.5c0,0,6.9-0.9,9.9,1.5c3,2.4,8,6.1,9.2,9.7c1.2,3.7,2.3-0.5,2.8-1.8c0.5-1.3,4-2.2,6.7,0
				c2.7,2.2,6.9,8.5,8.9,6.9c2-1.7-1.5-4.3,0-5.1c1.5-0.8,3.9-2.4,5.7-1.8c1.1,0.4,5.7,1.6,8.9,2.5l0.3-2.4
				C128.3,32.6,120.2,30.4,118.9,30z"/>
		</g>
		<path class="st7" d="M28.9,24c4.4,0,8.1,2.7,8.1,6c0,3.3-3.6,5.7-8,5.7s-8.1-2.4-8.1-5.7C20.9,26.6,24.5,24,28.9,24z"/>
		<path class="st8" d="M38.2,26.4c0,0,3.3,3.9,0.3,7.9c-2,2.7-1.5,3.7-1.5,3.7s12.6,4.1,15,5.7c1.6,1.1,8.5,0.8,13.3,1
			c2.6,0.1,5.1,0.4,6,0.5c2.4,0.1,5.7-0.5,5.7-0.5s4-2,2.4-9.6c-1.6-7.5-1.3-8.8-1.3-8.8H38.2z"/>
		<path class="st9" d="M49.7,33.5c0,0,4.8,5.8,7.7,6.1c2.8,0.3,4.5-0.3,5.8,1.5c1.3,1.8,2.6,1.1,2.4,0c-0.1-1.1,0.7-2.8,2.2-0.8
			c1.4,2,3.4,2.9,3.5,0.7s0.7-3.3,1.1-3.7C72.7,36.8,49.7,33.5,49.7,33.5z"/>
		<path class="st9" d="M74,35.9c0,0,0.6,2.3-0.5,5.2c-0.7,1.9,0.3,3,1.6,1.2c1.3-1.7,1-4.8,0.3-5.6C74.7,35.9,74,35.9,74,35.9z"/>
		<path class="st10" d="M37.3,25.5c0,0,2.2,4.4,4.4,5.7c2.2,1.3,9.7,5.9,14.8,6.8c5.1,0.9,19.8,1.6,19.8,1.6s0.1-7.9,1.2-11.9
			c1.1-4,1.9-6.3,1.9-6.3s-2.2-1.1-4-0.4c-1.2,0.5-1.8-0.4-3.5,0c-3,0.8-5.5,3-7.7,2.9c-4.6-0.3-9.3-0.3-11.4-1.4
			C50.9,21.5,42.4,17,42.4,17s-3.1,2-3.3,4.6C38.8,24,37.3,25.5,37.3,25.5z"/>
		<g>
			<path class="st8" d="M30.9,24c0,0-1.1-0.1-2-0.8c-0.9-0.8-2-0.6-2.6-0.4c-0.6,0.2-1.4,0.8-3.3,0.8c-0.9,0-3,1.2-3.5,2.2
				c-1.1,2.2-3.7,3.6-4.3,5.5c-0.2,0.5-0.2,1-0.1,1.5c1.1,0,2.6,0,3.5-0.4c2.2-1,4.3-4.8,4.3-4.8s-0.3,2.3-0.4,3.4
				c-0.1,1.5,0.3,3.1,0.6,4.1c0.3,0,0.6,0,0.9,0c0.5,0,2.3,0.8,2.3,0.8s-1-2.7-0.4-6.1C26.6,25.9,30.9,24,30.9,24z"/>
			<path class="st9" d="M22.5,30.8c0.1-1.1,0.4-3.4,0.4-3.4s-2.1,3.8-4.3,4.8c-0.9,0.4-2.4,0.5-3.5,0.4c0.2,1.3,1.4,2.2,2.9,2.3
				c1,0.1,3.2-0.1,5.2-0.2C22.8,33.9,22.4,32.3,22.5,30.8z"/>
		</g>
		<path class="st7" d="M45.3,35.1c0,0-4.6-0.5-6.8-0.7c-2.2-0.2-2.7,0.4-2.7,0.4s2.4,3.4,4,3.5c1.5,0,5.6,0,5.6,0l1.6-1.8L45.3,35.1
			z"/>
		<g>
			<path class="st6" d="M49.7,36.3c1.1-0.1,2.5-1.3,2.8-2c0.3-0.7,3.2-2.3,4.6-3.1c1.4-0.7,4-3.4,4.3-4.6c0.3-1.2,0.6-2.6-0.5-4.3
				c-0.5-0.8-1.6-2.3-2.6-3.5c-2.9-1.7-7-3.6-10.1-3.8c-4.9-0.4-6.8,3.1-6.8,3.1c2.2,3.5,11.4,7.1,12.6,8c-1.3,1.3-2.5,2.1-4.7,3.6
				c-0.8,0.5-2.7,1.5-3.3,2.9c-0.7,1.5-2.1,1.8-2.1,1.8s0.2,1.2,1.2,2.3C46.8,36.2,48.8,36.4,49.7,36.3z"/>
			<path class="st5" d="M48.4,38.2c0.8,0.1,1.7-0.9,3.1-1c2.7-0.3,3.4-2.3,5.4-3.8c1.8-1.4,4.9-3.3,5.5-4.2c1.9-2.7,1.5-6-0.7-8
				c-0.5-0.5-1.8-1.4-3.4-2.3c1,1.2,2.1,2.6,2.6,3.5c1.1,1.7,0.7,3,0.5,4.3c-0.3,1.2-2.9,3.9-4.3,4.6c-1.4,0.7-4.3,2.4-4.6,3.1
				c-0.3,0.7-1.7,1.9-2.8,2c-0.8,0.1-2.8-0.2-4.6,0.3C45.8,37.3,46.8,38,48.4,38.2z"/>
		</g>
		<path class="st9" d="M27.3,24c-1.3,1.1-2.9,2.4-3.5,5.8c-0.7,3.3-0.2,5.6,0.8,6.4c1.1,0.8,2.8-0.6,2.8-0.6s-2-3.2-1.1-6.1
			c0.9-2.9,5-5.2,5-5.2S30,21.8,27.3,24z"/>
		<path class="st7" d="M29.8,25.5c-1,0-1.7-2.2,1-1.9c2.7,0.3,2.6,1.6,2.6,1.6L29.8,25.5z"/>
		<g>
			<path class="st10" d="M32.2,37.1c1.1,0.2,0.6,1.2,2.2,2.5c1.6,1.3,5.9,5.1,9.8,5.2c3.9,0.1,6.9-0.2,9.4-1.1
				c0.4-0.2,0.8-0.3,1.2-0.4c0.2-1.2-0.3-2.5-2.2-3.7c-3.5-2.1-7.7-2.3-12.9-3.7c-1.7-0.5-2.9-1.3-3.5-1.8c-1.1-1-2.1-0.4-2.5-0.2
				c-1,0.4-2,1.2-2.9,2c0,0,0,0,0,0C31.2,36.4,31.6,37,32.2,37.1z"/>
			<path class="st6" d="M31.3,38.2c0.5,1,2.4,2.8,3.5,3.7c1.1,0.9,2.5,2.4,5,3.8c1,0.5,3.9,1.6,6.2,1.6c1.9,0,5.8-0.1,7.4-1.5
				c0.7-0.6,1.3-1.4,1.5-2.4c-0.4,0.1-0.8,0.2-1.2,0.4c-2.5,0.9-5.5,1.2-9.4,1.1c-3.9-0.1-8.2-3.8-9.8-5.2c-1.6-1.3-1.1-2.3-2.2-2.5
				c-0.5-0.1-1-0.6-1.3-1.2C29.4,37.3,30.9,37.3,31.3,38.2z"/>
		</g>
		<path class="st6" d="M39.4,21.5c0,0-2.2,0.8-2.4,1.5c-0.2,0.7-0.6,1.4-1,1.5c-0.4,0.1,0,1.7,0,1.7s1-0.2,2.2,1.2
			c1.3,1.3,3.1,4.6,6.5,6.1c3.5,1.6,4.9,1.5,4.9,1.5s-6.6-4.9-7.4-7.6C41.4,24.6,39.4,21.5,39.4,21.5z"/>
		<path class="st5" d="M78.4,20.9c0,0-1.4,3.6-2,5.9c-0.6,2.3-1.2,10.5-1.2,12.8c1.1,0.2,0.6,0.1,1.5,0c0-1.3,0.5-9.8,1.6-13.2
			c1-3.4,1.9-5.2,1.9-5.2L78.4,20.9z"/>
		<path class="st6" d="M69.3,23.6c0,0-0.6,1.9-1.6,3.8c-1,2-2.7,4.2-2.7,4.2s5.3,2,7.6-1.8c2.3-3.8,2-6.2,2-6.2s-1.6,0.3-2.4,0
			C70.8,23.1,69.3,23.6,69.3,23.6z"/>
	</g>
</g>
</svg>
