<svg xmlns="http://www.w3.org/2000/svg" viewBox="0 0 116.27 140"><defs><style>.cls-1{isolation:isolate;}.cls-2{fill:#cfe1e8;}.cls-3{fill:#02424f;}.cls-4{fill:#cad8d9;}.cls-5{fill:#046677;}.cls-6{fill:#51c0e3;}.cls-7{mix-blend-mode:multiply;}.cls-8{fill:#77aebf;}.cls-9{opacity:0.3;}.cls-10{fill:#fff;}</style></defs><g class="cls-1"><g id="Layer_1" data-name="Layer 1"><polygon class="cls-2" points="51.1 41.49 40.17 53.2 36.32 69.5 36.32 80.32 38.08 80.32 38.08 101.05 53.09 101.05 53.09 60.27 50.31 51.92 51.1 41.49"/><path class="cls-3" d="M64.5,101.17h-15a.12.12,0,0,1-.12-.12V80.44H47.72a.12.12,0,0,1-.12-.12V69.5l3.85-16.32a.09.09,0,0,1,0-.06L62.42,41.4a.12.12,0,0,1,.14,0,.12.12,0,0,1,.07.12l-.79,10.41,2.77,8.32s0,0,0,0v40.78A.12.12,0,0,1,64.5,101.17Zm-14.89-.24H64.37V60.29L61.6,52a.07.07,0,0,1,0-.05l.77-10.08L51.68,53.26,47.84,69.53V80.2h1.63a.12.12,0,0,1,.13.12Z" transform="translate(-11.4 0)"/><polygon class="cls-4" points="5.27 111.15 5.27 94.27 36.32 69.5 36.32 80.32 38.08 80.32 38.08 115.72 5.27 111.15"/><path class="cls-3" d="M49.48,115.84h0l-32.8-4.57a.12.12,0,0,1-.11-.12V94.27a.14.14,0,0,1,.05-.1L47.65,69.4a.12.12,0,0,1,.13,0,.12.12,0,0,1,.07.11V80.2h1.63a.12.12,0,0,1,.13.12v35.4a.14.14,0,0,1,0,.09A.11.11,0,0,1,49.48,115.84ZM16.8,111.05l32.56,4.52V80.44H47.72a.12.12,0,0,1-.12-.12V69.76L16.8,94.33Z" transform="translate(-11.4 0)"/><polygon class="cls-5" points="5.27 94.27 0.12 99.68 0.12 107.5 5.27 111.15 5.27 94.27"/><path class="cls-3" d="M16.67,111.28a.11.11,0,0,1-.07,0l-5.15-3.65a.12.12,0,0,1,0-.1V99.68a.09.09,0,0,1,0-.08l5.15-5.41a.11.11,0,0,1,.13,0,.11.11,0,0,1,.08.11v16.88a.12.12,0,0,1-.07.11Zm-5-3.84,4.9,3.47V94.58l-4.9,5.15Z" transform="translate(-11.4 0)"/><polygon class="cls-6" points="5.27 97.81 36.32 74.52 36.32 69.5 5.27 94.27 5.27 97.81"/><path class="cls-3" d="M16.67,97.93h-.05a.12.12,0,0,1-.07-.11V94.27a.14.14,0,0,1,.05-.1L47.65,69.4a.12.12,0,0,1,.13,0,.12.12,0,0,1,.07.11v5a.14.14,0,0,1-.05.1l-31,23.29A.11.11,0,0,1,16.67,97.93Zm.13-3.6v3.24L47.6,74.46v-4.7Z" transform="translate(-11.4 0)"/><polygon class="cls-6" points="38.08 105.87 20.37 123.58 22.94 130.32 39.88 134.57 43.62 121.71 39.88 121.71 38.08 105.87"/><path class="cls-3" d="M51.29,134.7h0l-16.95-4.25a.14.14,0,0,1-.09-.08l-2.56-6.73a.12.12,0,0,1,0-.14l17.7-17.7a.11.11,0,0,1,.13,0,.1.1,0,0,1,.08.1l1.8,15.73H55a.12.12,0,0,1,.1,0,.11.11,0,0,1,0,.11L51.4,134.61A.12.12,0,0,1,51.29,134.7Zm-16.86-4.49,16.77,4.22,3.66-12.59H51.29a.13.13,0,0,1-.13-.11l-1.77-15.59L31.92,123.61Z" transform="translate(-11.4 0)"/><path class="cls-4" d="M69.54,139.88s5-3.13,5-38.59v-41l2.78-8.35L75.27,24.46S74.23,9.34,69.54.12h0c-4.7,9.22-5.74,24.34-5.74,24.34L61.72,51.92l2.78,8.35v41c0,35.46,5,38.59,5,38.59Z" transform="translate(-11.4 0)"/><path class="cls-3" d="M69.54,140h-.07c-.21-.13-5.1-3.57-5.1-38.69v-41L61.6,52a.07.07,0,0,1,0-.05l2.09-27.46c0-.15,1.1-15.25,5.75-24.38A.13.13,0,0,1,69.57,0a.18.18,0,0,1,.08.07C74.3,9.2,75.39,24.3,75.4,24.45l2.08,27.46V52L74.7,60.29v41c0,35.12-4.89,38.56-5.1,38.69Zm-7.7-88.09,2.77,8.32s0,0,0,0v41c0,32.63,4.33,37.87,4.92,38.43.59-.56,4.92-5.8,4.92-38.43V60.23l2.77-8.32L75.15,24.47c0-.15-1.08-15-5.61-24.07C65,9.5,63.93,24.32,63.92,24.47Z" transform="translate(-11.4 0)"/><polygon class="cls-2" points="65.17 41.49 76.1 53.2 79.95 69.5 79.95 80.32 78.19 80.32 78.19 101.05 63.18 101.05 63.18 60.27 65.96 51.92 65.17 41.49"/><path class="cls-3" d="M89.59,101.17h-15a.12.12,0,0,1-.12-.12V60.23l2.77-8.32L76.44,41.5a.13.13,0,0,1,.08-.12.12.12,0,0,1,.14,0L87.6,53.12l0,.06,3.84,16.29V80.32a.12.12,0,0,1-.12.12H89.72v20.61A.12.12,0,0,1,89.59,101.17Zm-14.89-.24H89.47V80.32a.12.12,0,0,1,.12-.12h1.64V69.5L87.39,53.27,76.72,41.83l.76,10.08V52L74.7,60.29Z" transform="translate(-11.4 0)"/><polygon class="cls-4" points="111 111.15 111 94.27 79.95 69.5 79.95 80.32 78.19 80.32 78.19 115.72 111 111.15"/><path class="cls-3" d="M89.59,115.84a.11.11,0,0,1-.08,0,.12.12,0,0,1,0-.09V80.32a.12.12,0,0,1,.12-.12h1.64V69.5a.13.13,0,0,1,.2-.1l31.05,24.77a.13.13,0,0,1,0,.1v16.88a.11.11,0,0,1-.1.12l-32.81,4.57Zm.13-35.4v35.13l32.56-4.52V94.33L91.47,69.76V80.32a.12.12,0,0,1-.12.12Zm32.68,30.71Z" transform="translate(-11.4 0)"/><polygon class="cls-5" points="111 94.27 116.15 99.68 116.15 107.5 111 111.15 111 94.27"/><path class="cls-3" d="M122.4,111.28l-.06,0a.11.11,0,0,1-.06-.11V94.27a.11.11,0,0,1,.07-.11.12.12,0,0,1,.14,0l5.15,5.41a.11.11,0,0,1,0,.08v7.82a.12.12,0,0,1,0,.1l-5.15,3.65A.11.11,0,0,1,122.4,111.28Zm.12-16.7v16.33l4.91-3.47V99.73Z" transform="translate(-11.4 0)"/><polygon class="cls-6" points="111 97.81 79.95 74.52 79.95 69.5 111 94.27 111 97.81"/><path class="cls-3" d="M122.4,97.93a.08.08,0,0,1-.07,0l-31-23.29a.14.14,0,0,1,0-.1v-5a.13.13,0,0,1,.2-.1l31.05,24.77a.13.13,0,0,1,0,.1v3.54a.11.11,0,0,1-.07.11ZM91.47,74.46l30.81,23.11V94.33L91.47,69.76Z" transform="translate(-11.4 0)"/><polygon class="cls-6" points="78.19 105.87 95.9 123.58 93.33 130.32 76.39 134.57 72.65 121.71 76.39 121.71 78.19 105.87"/><path class="cls-3" d="M87.79,134.7a.13.13,0,0,1-.12-.09l-3.74-12.86a.12.12,0,0,1,.12-.16h3.63l1.79-15.73a.12.12,0,0,1,.08-.1.11.11,0,0,1,.13,0l17.71,17.7a.17.17,0,0,1,0,.14l-2.57,6.73a.11.11,0,0,1-.08.08l-17,4.25Zm-3.58-12.86,3.66,12.59,16.77-4.22,2.52-6.6L89.69,106.14l-1.78,15.59a.13.13,0,0,1-.12.11Z" transform="translate(-11.4 0)"/><polygon class="cls-5" points="59.57 39.97 61.44 34.02 61.44 23.24 58.92 18.42 58.13 18.42 58.13 18.42 57.35 18.42 54.83 23.24 54.83 34.02 56.7 39.97 58.13 40.93 58.13 40.93 59.57 39.97"/><path class="cls-3" d="M69.54,41.05l-.07,0-1.44-1A.07.07,0,0,1,68,40l-1.87-5.95a.08.08,0,0,1,0,0V23.24a.14.14,0,0,1,0-.06l2.52-4.82a.11.11,0,0,1,.1-.06h1.57a.11.11,0,0,1,.11.06L73,23.18a.13.13,0,0,1,0,.06V34.06L71.09,40a.1.1,0,0,1,0,.06l-1.43,1Zm-1.33-1.16,1.33.89,1.33-.89L72.72,34V23.27l-2.48-4.73H68.83l-2.47,4.73V34ZM71,40Z" transform="translate(-11.4 0)"/><polygon class="cls-2" points="43.62 121.71 42.75 101.05 53.09 101.05 53.83 121.71 43.62 121.71"/><path class="cls-3" d="M65.23,121.84H55a.13.13,0,0,1-.12-.12L54,101.05a.12.12,0,0,1,0-.09.11.11,0,0,1,.08,0H64.5a.12.12,0,0,1,.12.11l.74,20.67a.12.12,0,0,1,0,.09A.13.13,0,0,1,65.23,121.84Zm-10.09-.25h10l-.73-20.42H54.28Z" transform="translate(-11.4 0)"/><polygon class="cls-4" points="42.75 101.05 38.08 101.05 38.08 105.87 39.88 121.71 43.62 121.71 42.75 101.05"/><path class="cls-3" d="M55,121.84H51.29a.13.13,0,0,1-.13-.11l-1.8-15.84v-4.84a.12.12,0,0,1,.12-.12h4.67a.13.13,0,0,1,.13.11l.87,20.67a.12.12,0,0,1,0,.09A.13.13,0,0,1,55,121.84Zm-3.62-.25h3.5L54,101.17H49.61v4.7Z" transform="translate(-11.4 0)"/><polygon class="cls-2" points="72.65 121.71 73.52 101.05 63.18 101.05 62.44 121.71 72.65 121.71"/><path class="cls-3" d="M84.05,121.84H73.84a.15.15,0,0,1-.09,0,.16.16,0,0,1,0-.09L74.46,101a.11.11,0,0,1,.12-.11H84.92a.14.14,0,0,1,.09,0,.16.16,0,0,1,0,.09l-.87,20.67A.12.12,0,0,1,84.05,121.84ZM74,121.59h10l.86-20.42H74.7Z" transform="translate(-11.4 0)"/><polygon class="cls-4" points="73.52 101.05 78.19 101.05 78.19 105.87 76.39 121.71 72.65 121.71 73.52 101.05"/><path class="cls-3" d="M87.79,121.84H84.05a.18.18,0,0,1-.09,0,.16.16,0,0,1,0-.09L84.8,101a.11.11,0,0,1,.12-.11h4.67a.12.12,0,0,1,.13.12v4.82l-1.81,15.86A.13.13,0,0,1,87.79,121.84Zm-3.61-.25h3.5l1.79-15.73v-4.69H85Z" transform="translate(-11.4 0)"/><polygon class="cls-3" points="36.41 69.58 36.23 69.42 41.63 63.53 50.21 51.85 50.41 51.99 41.82 63.69 36.41 69.58"/><polygon class="cls-3" points="47.06 101.05 46.82 101.05 46.82 68.89 41.64 63.7 41.81 63.53 47.06 68.78 47.06 101.05"/><polygon class="cls-3" points="25.75 109.3 5.27 109.3 5.27 109.06 25.65 109.06 37.99 96.72 38.17 96.89 25.75 109.3"/><polygon class="cls-3" points="79.86 69.58 74.46 63.7 65.86 51.99 66.06 51.85 74.65 63.54 80.04 69.42 79.86 69.58"/><polygon class="cls-3" points="69.45 101.05 69.21 101.05 69.21 68.78 69.24 68.75 74.46 63.53 74.63 63.7 69.45 68.89 69.45 101.05"/><polygon class="cls-3" points="111 109.3 90.52 109.3 90.48 109.27 78.1 96.89 78.28 96.72 90.62 109.06 111 109.06 111 109.3"/><polygon class="cls-6" points="56.7 39.97 58.13 55.02 59.57 39.97 58.13 40.93 56.7 39.97"/><path class="cls-3" d="M69.54,55.14a.11.11,0,0,1-.12-.11L68,40a.13.13,0,0,1,.06-.11.11.11,0,0,1,.13,0l1.37.91,1.36-.91a.11.11,0,0,1,.13,0,.1.1,0,0,1,.06.11L69.66,55A.13.13,0,0,1,69.54,55.14ZM68.25,40.22l1.29,13.5,1.28-13.5L69.61,41a.12.12,0,0,1-.14,0Z" transform="translate(-11.4 0)"/><path class="cls-2" d="M67.14,79.86V94.27a3.15,3.15,0,0,0,4.79,0V79.86Z" transform="translate(-11.4 0)"/><path class="cls-3" d="M69.54,95.49a3.26,3.26,0,0,1-2.49-1.14.11.11,0,0,1,0-.08V79.86a.12.12,0,0,1,.12-.12h4.79a.12.12,0,0,1,.13.12V94.27a.11.11,0,0,1,0,.08A3.27,3.27,0,0,1,69.54,95.49Zm-2.28-1.27a3,3,0,0,0,4.55,0V80H67.26Z" transform="translate(-11.4 0)"/><rect class="cls-3" x="96.41" y="99.63" width="21.56" height="0.25" transform="translate(-43.41 145.17) rotate(-61.01)"/><rect class="cls-3" x="31.76" y="88.97" width="0.25" height="21.56" transform="translate(-55.73 27.93) rotate(-28.98)"/><g class="cls-7"><path class="cls-8" d="M73.84,121.66v0H84.05l3.74,12.87,16.95-4.26,2.56-6.74-9.07-9.07,24.17-3.36,5.15-3.65V99.68l-5.15-5.41L91.35,69.5,87.51,53.2,76.57,41.49l-1.3-17S74.23,9.34,69.54.12V139.88S72.44,138.06,73.84,121.66Z" transform="translate(-11.4 0)"/></g><g class="cls-9"><polygon class="cls-10" points="38.08 80.32 5.27 104.69 5.27 94.27 36.32 69.5 36.32 80.32 38.08 80.32"/></g><g class="cls-9"><polygon class="cls-10" points="51.1 41.49 50.31 51.92 41.72 63.62 36.32 69.5 40.17 53.2 51.1 41.49"/></g><g class="cls-9"><polygon class="cls-10" points="39.88 121.71 22.94 130.32 20.37 123.58 38.08 105.87 39.88 121.71"/></g><g class="cls-7"><polygon class="cls-8" points="76.39 121.71 93.33 130.32 76.39 134.57 72.65 121.71 76.39 121.71"/></g><g class="cls-7"><polygon class="cls-8" points="78.19 80.32 111 104.69 111 111.15 86.83 114.51 78.19 105.87 78.19 80.32"/></g><g class="cls-7"><polygon class="cls-8" points="65.17 41.49 65.96 51.92 74.55 63.62 79.95 69.5 76.1 53.2 65.17 41.49"/></g></g></g></svg>