<svg id="Layer_1" data-name="Layer 1" xmlns="http://www.w3.org/2000/svg" xmlns:xlink="http://www.w3.org/1999/xlink" viewBox="0 0 144 144"><defs><style>.cls-1{fill:#f6ece6;}.cls-2{fill:url(#linear-gradient);}.cls-3{fill:url(#linear-gradient-2);}.cls-4{fill:url(#linear-gradient-3);}.cls-5{fill:#e5e9ee;}.cls-6{fill:url(#linear-gradient-4);}.cls-7{fill:url(#linear-gradient-5);}.cls-8{fill:url(#linear-gradient-6);}.cls-9{fill:url(#linear-gradient-7);}.cls-10{fill:#3bb0ba;}.cls-11{fill:url(#linear-gradient-8);}.cls-12{fill:url(#linear-gradient-9);}.cls-13{fill:url(#linear-gradient-10);}.cls-14{fill:url(#linear-gradient-11);}.cls-15{fill:url(#linear-gradient-12);}.cls-16{fill:url(#linear-gradient-13);}.cls-17{fill:url(#linear-gradient-14);}.cls-18{fill:url(#linear-gradient-15);}.cls-19{fill:url(#linear-gradient-16);}.cls-20{fill:url(#linear-gradient-17);}.cls-21{fill:url(#linear-gradient-18);}.cls-22{fill:url(#linear-gradient-19);}.cls-23{fill:url(#linear-gradient-20);}.cls-24{fill:url(#linear-gradient-21);}.cls-25{fill:url(#linear-gradient-22);}.cls-26{fill:url(#linear-gradient-23);}.cls-27{fill:url(#linear-gradient-24);}.cls-28{fill:#f1c99a;}.cls-29{fill:url(#linear-gradient-25);}.cls-30{fill:url(#linear-gradient-26);}.cls-31{fill:#f7d9ab;}.cls-32{fill:url(#linear-gradient-27);}.cls-33{fill:url(#radial-gradient);}.cls-34{fill:url(#linear-gradient-28);}.cls-35{fill:url(#radial-gradient-2);}.cls-36{fill:url(#linear-gradient-29);}.cls-37{fill:url(#linear-gradient-30);}.cls-38{fill:url(#linear-gradient-31);}.cls-39{fill:url(#linear-gradient-32);}.cls-40{fill:url(#linear-gradient-33);}.cls-41{fill:#dba879;}.cls-42{fill:url(#linear-gradient-34);}.cls-43{fill:url(#linear-gradient-35);}.cls-44{fill:url(#linear-gradient-36);}.cls-45{fill:url(#linear-gradient-37);}.cls-46{fill:url(#linear-gradient-38);}.cls-47{fill:#ddd;}.cls-48{fill:url(#linear-gradient-39);}.cls-49{fill:url(#linear-gradient-40);}.cls-50{fill:url(#radial-gradient-3);}.cls-51{fill:url(#linear-gradient-41);}.cls-52{fill:#3a150e;}.cls-53{fill:url(#linear-gradient-42);}.cls-54{fill:url(#linear-gradient-43);}.cls-55{fill:url(#linear-gradient-44);}.cls-56{fill:url(#radial-gradient-4);}.cls-57{fill:url(#linear-gradient-45);}.cls-58{fill:#fff;}.cls-59{fill:url(#linear-gradient-46);}.cls-60{fill:url(#linear-gradient-47);}.cls-61{fill:url(#linear-gradient-48);}.cls-62{fill:url(#linear-gradient-49);}.cls-63{fill:url(#linear-gradient-50);}.cls-64{fill:url(#linear-gradient-51);}.cls-65{fill:url(#linear-gradient-52);}.cls-66{fill:url(#linear-gradient-53);}.cls-67{fill:#971b27;}.cls-68{fill:url(#linear-gradient-54);}.cls-69{fill:url(#linear-gradient-55);}.cls-70{fill:#f26d79;}.cls-71{fill:url(#linear-gradient-56);}.cls-72{fill:#f598a2;}.cls-73{fill:url(#linear-gradient-57);}.cls-74{fill:url(#linear-gradient-58);}.cls-75{fill:url(#linear-gradient-59);}.cls-76{fill:url(#linear-gradient-60);}.cls-77{fill:url(#linear-gradient-61);}.cls-78{fill:url(#linear-gradient-62);}.cls-79{fill:url(#linear-gradient-63);}.cls-80{fill:url(#linear-gradient-64);}.cls-81{fill:url(#linear-gradient-65);}.cls-82{fill:url(#linear-gradient-66);}.cls-83{fill:url(#linear-gradient-67);}.cls-84{fill:url(#linear-gradient-68);}.cls-85{fill:url(#linear-gradient-69);}.cls-86{fill:url(#linear-gradient-70);}.cls-87{fill:url(#linear-gradient-71);}.cls-88{fill:url(#linear-gradient-72);}.cls-89{fill:url(#linear-gradient-73);}.cls-90{fill:url(#linear-gradient-74);}.cls-91{fill:url(#linear-gradient-75);}</style><linearGradient id="linear-gradient" x1="107.82" y1="33.6" x2="74.6" y2="88.44" gradientUnits="userSpaceOnUse"><stop offset="0" stop-color="#963820"/><stop offset="0.19" stop-color="#90361f"/><stop offset="0.44" stop-color="#812f1b"/><stop offset="0.71" stop-color="#672415"/><stop offset="1" stop-color="#43150c"/></linearGradient><linearGradient id="linear-gradient-2" x1="98.05" y1="62.92" x2="87.11" y2="111.27" xlink:href="#linear-gradient"/><linearGradient id="linear-gradient-3" x1="64.47" y1="23.67" x2="66.04" y2="87.53" xlink:href="#linear-gradient"/><linearGradient id="linear-gradient-4" x1="75.13" y1="122.36" x2="72.25" y2="66.62" gradientUnits="userSpaceOnUse"><stop offset="0" stop-color="#f5f8fd"/><stop offset="0.82" stop-color="#f0f3f7"/><stop offset="1" stop-color="#eef1f5"/></linearGradient><linearGradient id="linear-gradient-5" x1="90.88" y1="72.57" x2="79.07" y2="106.4" gradientUnits="userSpaceOnUse"><stop offset="0" stop-color="#f1c99a"/><stop offset="0.53" stop-color="#f2cc9d"/><stop offset="0.87" stop-color="#f5d4a5"/><stop offset="1" stop-color="#f7d9ab"/></linearGradient><linearGradient id="linear-gradient-6" x1="75.98" y1="119.62" x2="74.57" y2="107.69" xlink:href="#linear-gradient-5"/><linearGradient id="linear-gradient-7" x1="79.7" y1="59.25" x2="67.28" y2="145.06" xlink:href="#linear-gradient-5"/><linearGradient id="linear-gradient-8" x1="76.68" y1="173.38" x2="73.94" y2="125.27" gradientUnits="userSpaceOnUse"><stop offset="0" stop-color="#51bdc9"/><stop offset="0.32" stop-color="#49b8c3"/><stop offset="1" stop-color="#3bb0ba"/></linearGradient><linearGradient id="linear-gradient-9" x1="87.48" y1="109.63" x2="92.18" y2="104.66" gradientUnits="userSpaceOnUse"><stop offset="0" stop-color="#e5e9ee"/><stop offset="0.76" stop-color="#e8ebf0"/><stop offset="1" stop-color="#ebeef2"/></linearGradient><linearGradient id="linear-gradient-10" x1="39.99" y1="138.47" x2="40.29" y2="133.93" gradientUnits="userSpaceOnUse"><stop offset="0" stop-color="#33a0a9"/><stop offset="0.49" stop-color="#35a4ad"/><stop offset="0.96" stop-color="#3aafb9"/><stop offset="1" stop-color="#3bb0ba"/></linearGradient><linearGradient id="linear-gradient-11" x1="106.15" y1="135.41" x2="106.15" y2="135.38" xlink:href="#linear-gradient-10"/><linearGradient id="linear-gradient-12" x1="67.5" y1="141.9" x2="59.59" y2="103.57" xlink:href="#linear-gradient-4"/><linearGradient id="linear-gradient-13" x1="28.59" y1="102.87" x2="28.9" y2="130.49" xlink:href="#linear-gradient-8"/><linearGradient id="linear-gradient-14" x1="40.45" y1="145.47" x2="40.17" y2="120.16" xlink:href="#linear-gradient-10"/><linearGradient id="linear-gradient-15" x1="106.85" y1="140.43" x2="106.58" y2="125.68" xlink:href="#linear-gradient-10"/><linearGradient id="linear-gradient-16" x1="92.41" y1="102.52" x2="120.42" y2="114.83" xlink:href="#linear-gradient-8"/><linearGradient id="linear-gradient-17" x1="121.7" y1="107.48" x2="121.6" y2="126.96" xlink:href="#linear-gradient-8"/><linearGradient id="linear-gradient-18" x1="53.82" y1="103.24" x2="57.71" y2="116.91" xlink:href="#linear-gradient-9"/><linearGradient id="linear-gradient-19" x1="74.13" y1="108.43" x2="74.02" y2="132.55" xlink:href="#linear-gradient-10"/><linearGradient id="linear-gradient-20" x1="91.35" y1="106.46" x2="109.02" y2="125.5" xlink:href="#linear-gradient-10"/><linearGradient id="linear-gradient-21" x1="55.58" y1="107.34" x2="42.19" y2="123.55" gradientUnits="userSpaceOnUse"><stop offset="0" stop-color="#e04938"/><stop offset="0.5" stop-color="#e44b3a"/><stop offset="0.99" stop-color="#f05242"/><stop offset="1" stop-color="#f05242"/></linearGradient><linearGradient id="linear-gradient-22" x1="56.78" y1="123.32" x2="53.9" y2="67.54" xlink:href="#linear-gradient-4"/><linearGradient id="linear-gradient-23" x1="92.02" y1="117.28" x2="89.63" y2="70.94" xlink:href="#linear-gradient-4"/><linearGradient id="linear-gradient-24" x1="71.26" y1="85.96" x2="74.06" y2="97.82" gradientUnits="userSpaceOnUse"><stop offset="0" stop-color="#dba879"/><stop offset="0.49" stop-color="#e4b687"/><stop offset="1" stop-color="#f1c99a"/></linearGradient><linearGradient id="linear-gradient-25" x1="100.17" y1="63.06" x2="97.25" y2="76.03" gradientUnits="userSpaceOnUse"><stop offset="0" stop-color="#dba879"/><stop offset="0.22" stop-color="#e2b384"/><stop offset="0.66" stop-color="#edc394"/><stop offset="1" stop-color="#f1c99a"/></linearGradient><linearGradient id="linear-gradient-26" x1="45.38" y1="62.77" x2="48.31" y2="77.97" xlink:href="#linear-gradient-25"/><linearGradient id="linear-gradient-27" x1="86.87" y1="69.84" x2="86.87" y2="54.66" gradientUnits="userSpaceOnUse"><stop offset="0" stop-color="#f7d9ab"/><stop offset="0.53" stop-color="#f6d6a8"/><stop offset="0.87" stop-color="#f3cea0"/><stop offset="1" stop-color="#f1c99a"/></linearGradient><radialGradient id="radial-gradient" cx="125.63" cy="198.6" r="21.92" gradientTransform="translate(38.22 -9.1) scale(0.41 0.41)" gradientUnits="userSpaceOnUse"><stop offset="0" stop-color="#f9b58e"/><stop offset="0.56" stop-color="#f8c89d"/><stop offset="1" stop-color="#f7d9ab"/></radialGradient><linearGradient id="linear-gradient-28" x1="59.46" y1="70.62" x2="59.56" y2="53.29" xlink:href="#linear-gradient-27"/><radialGradient id="radial-gradient-2" cx="42.35" cy="199.37" r="20.49" xlink:href="#radial-gradient"/><linearGradient id="linear-gradient-29" x1="90.34" y1="67.87" x2="95.18" y2="67.87" gradientUnits="userSpaceOnUse"><stop offset="0" stop-color="#ffdeb3"/><stop offset="1" stop-color="#f7d9ab"/></linearGradient><linearGradient id="linear-gradient-30" x1="50.21" y1="68.37" x2="55.06" y2="68.37" xlink:href="#linear-gradient-29"/><linearGradient id="linear-gradient-31" x1="75.72" y1="3.57" x2="72.06" y2="73.19" gradientUnits="userSpaceOnUse"><stop offset="0" stop-color="#f7d9ab"/><stop offset="0.46" stop-color="#f3cfa1"/><stop offset="1" stop-color="#f1c99a"/></linearGradient><linearGradient id="linear-gradient-32" x1="67.4" y1="88.99" x2="76.19" y2="88.99" gradientUnits="userSpaceOnUse"><stop offset="0" stop-color="#ffdeb3"/><stop offset="0.68" stop-color="#fcdcb0"/><stop offset="1" stop-color="#f7d9ab"/></linearGradient><linearGradient id="linear-gradient-33" x1="82.45" y1="76.47" x2="97.97" y2="76.47" xlink:href="#linear-gradient-32"/><linearGradient id="linear-gradient-34" x1="94.2" y1="53.09" x2="78.46" y2="54.14" gradientUnits="userSpaceOnUse"><stop offset="0.23" stop-color="#4f180e"/><stop offset="1" stop-color="#90321e"/></linearGradient><linearGradient id="linear-gradient-35" x1="50.6" y1="54.21" x2="66" y2="53.75" xlink:href="#linear-gradient-34"/><linearGradient id="linear-gradient-36" x1="91.28" y1="59.61" x2="78.07" y2="64.74" xlink:href="#linear-gradient-24"/><linearGradient id="linear-gradient-37" x1="52.28" y1="61.84" x2="65.63" y2="61.84" xlink:href="#linear-gradient-24"/><linearGradient id="linear-gradient-38" x1="89.4" y1="63.44" x2="80.41" y2="61.56" gradientUnits="userSpaceOnUse"><stop offset="0.01" stop-color="#ece8e9"/><stop offset="0.02" stop-color="#ede9ea"/><stop offset="0.29" stop-color="#faf9fa"/><stop offset="0.5" stop-color="#fff"/><stop offset="0.7" stop-color="#fbfafa"/><stop offset="0.93" stop-color="#f1edec"/><stop offset="1" stop-color="#ece7e6"/></linearGradient><linearGradient id="linear-gradient-39" x1="90.08" y1="65.67" x2="78.84" y2="61.26" gradientUnits="userSpaceOnUse"><stop offset="0" stop-color="#ddddda"/><stop offset="1" stop-color="#a4a59d"/></linearGradient><linearGradient id="linear-gradient-40" x1="90.15" y1="71.08" x2="85.48" y2="63.27" xlink:href="#linear-gradient-39"/><radialGradient id="radial-gradient-3" cx="117.89" cy="177.6" r="12.69" gradientTransform="translate(38.22 -9.1) scale(0.41 0.41)" gradientUnits="userSpaceOnUse"><stop offset="0" stop-color="#2b3b3b"/><stop offset="1" stop-color="#1d2827"/></radialGradient><linearGradient id="linear-gradient-41" x1="83.76" y1="62.12" x2="98.61" y2="62.12" gradientUnits="userSpaceOnUse"><stop offset="0.55" stop-color="#4f180e"/><stop offset="1" stop-color="#90321e"/></linearGradient><linearGradient id="linear-gradient-42" x1="66.27" y1="66.58" x2="56.13" y2="60.64" xlink:href="#linear-gradient-38"/><linearGradient id="linear-gradient-43" x1="64.39" y1="66.75" x2="54.3" y2="58.16" xlink:href="#linear-gradient-39"/><linearGradient id="linear-gradient-44" x1="65.69" y1="69.32" x2="60.53" y2="62.07" xlink:href="#linear-gradient-39"/><radialGradient id="radial-gradient-4" cx="57.73" cy="178.05" r="12.69" xlink:href="#radial-gradient-3"/><linearGradient id="linear-gradient-45" x1="59.29" y1="62.32" x2="74.2" y2="62.32" xlink:href="#linear-gradient-41"/><linearGradient id="linear-gradient-46" x1="84.78" y1="56.63" x2="72.27" y2="67.65" xlink:href="#linear-gradient-24"/><linearGradient id="linear-gradient-47" x1="61.8" y1="57.44" x2="69.28" y2="62.72" xlink:href="#linear-gradient-24"/><linearGradient id="linear-gradient-48" x1="72.96" y1="77.35" x2="72.93" y2="73.71" xlink:href="#linear-gradient-27"/><linearGradient id="linear-gradient-49" x1="74.06" y1="73.88" x2="71.06" y2="66.14" xlink:href="#linear-gradient-29"/><linearGradient id="linear-gradient-50" x1="77.5" y1="73.31" x2="74.6" y2="74.75" xlink:href="#linear-gradient-24"/><linearGradient id="linear-gradient-51" x1="68.5" y1="73.26" x2="71.62" y2="74.54" xlink:href="#linear-gradient-24"/><linearGradient id="linear-gradient-52" x1="65.27" y1="81.02" x2="62.26" y2="78.53" xlink:href="#linear-gradient-27"/><linearGradient id="linear-gradient-53" x1="84.33" y1="79.01" x2="82.19" y2="77.93" xlink:href="#linear-gradient-27"/><linearGradient id="linear-gradient-54" x1="66.22" y1="81.32" x2="79.59" y2="81.32" gradientUnits="userSpaceOnUse"><stop offset="0" stop-color="#e8d9d7"/><stop offset="0.14" stop-color="#f0e6e4"/><stop offset="0.39" stop-color="#fbf8f8"/><stop offset="0.57" stop-color="#fff"/><stop offset="1" stop-color="#e8d3d1"/></linearGradient><linearGradient id="linear-gradient-55" x1="61.89" y1="79.77" x2="82.94" y2="79.77" gradientUnits="userSpaceOnUse"><stop offset="0" stop-color="#e8d9d7"/><stop offset="0.04" stop-color="#ebdfdd"/><stop offset="0.21" stop-color="#f6f1f0"/><stop offset="0.38" stop-color="#fdfbfb"/><stop offset="0.57" stop-color="#fff"/><stop offset="0.69" stop-color="#fbf8f8"/><stop offset="0.87" stop-color="#f1e5e3"/><stop offset="1" stop-color="#e8d3d1"/></linearGradient><linearGradient id="linear-gradient-56" x1="65.75" y1="82.14" x2="81.14" y2="82.14" gradientUnits="userSpaceOnUse"><stop offset="0" stop-color="#f26e7f"/><stop offset="0.02" stop-color="#f26f80"/><stop offset="0.24" stop-color="#f37986"/><stop offset="0.53" stop-color="#f37c88"/><stop offset="0.77" stop-color="#f37885"/><stop offset="1" stop-color="#f26d7d"/></linearGradient><linearGradient id="linear-gradient-57" x1="64.87" y1="79.4" x2="81.17" y2="79.45" gradientUnits="userSpaceOnUse"><stop offset="0" stop-color="#e8d9d7"/><stop offset="0.05" stop-color="#eadddb"/><stop offset="0.31" stop-color="#f6efef"/><stop offset="0.48" stop-color="#faf6f6"/><stop offset="1" stop-color="#e8d3d1"/></linearGradient><linearGradient id="linear-gradient-58" x1="67.15" y1="78.74" x2="78.82" y2="78.74" xlink:href="#linear-gradient-56"/><linearGradient id="linear-gradient-59" x1="66.28" y1="-2.11" x2="126.9" y2="105.73" xlink:href="#linear-gradient"/><linearGradient id="linear-gradient-60" x1="61.55" y1="-21" x2="60.13" y2="114.84" xlink:href="#linear-gradient"/><linearGradient id="linear-gradient-61" x1="48.8" y1="83.36" x2="17.5" y2="147.98" gradientUnits="userSpaceOnUse"><stop offset="0" stop-color="#43150c"/><stop offset="0.29" stop-color="#672415"/><stop offset="0.56" stop-color="#812f1b"/><stop offset="0.81" stop-color="#90361f"/><stop offset="1" stop-color="#963820"/></linearGradient><linearGradient id="linear-gradient-62" x1="57.73" y1="61.36" x2="80.27" y2="24.47" xlink:href="#linear-gradient-34"/><linearGradient id="linear-gradient-63" x1="53.66" y1="131.49" x2="27.36" y2="47.88" xlink:href="#linear-gradient"/><linearGradient id="linear-gradient-64" x1="-89.21" y1="127.14" x2="117.32" y2="82.9" xlink:href="#linear-gradient"/><linearGradient id="linear-gradient-65" x1="61.3" y1="0.16" x2="45.85" y2="236.21" xlink:href="#linear-gradient"/><linearGradient id="linear-gradient-66" x1="44.7" y1="27.93" x2="32.63" y2="212.36" xlink:href="#linear-gradient"/><linearGradient id="linear-gradient-67" x1="51.27" y1="37.63" x2="44.24" y2="111.28" xlink:href="#linear-gradient"/><linearGradient id="linear-gradient-68" x1="61.44" y1="166.09" x2="54.4" y2="113.76" xlink:href="#linear-gradient"/><linearGradient id="linear-gradient-69" x1="62.81" y1="113.25" x2="14" y2="112.78" xlink:href="#linear-gradient"/><linearGradient id="linear-gradient-70" x1="57.28" y1="104.39" x2="13.4" y2="96.92" xlink:href="#linear-gradient"/><linearGradient id="linear-gradient-71" x1="93.77" y1="63.76" x2="88.1" y2="27.79" xlink:href="#linear-gradient-34"/><linearGradient id="linear-gradient-72" x1="93.47" y1="66.22" x2="82.71" y2="134.06" xlink:href="#linear-gradient"/><linearGradient id="linear-gradient-73" x1="57.52" y1="41.2" x2="50.51" y2="114.5" xlink:href="#linear-gradient"/><linearGradient id="linear-gradient-74" x1="51.22" y1="27.52" x2="48.47" y2="69.49" xlink:href="#linear-gradient"/><linearGradient id="linear-gradient-75" x1="75.87" y1="16.95" x2="70.29" y2="58.06" xlink:href="#linear-gradient"/></defs><circle class="cls-1" cx="72" cy="72" r="72"/><path class="cls-2" d="M77.51,103.81c.68,1.8,8.92,4.27,8.91,2.68s7.77-8,11-12.21c5.34-6.82-.14-11.67,2.51-27,2.6-15-13.23-40.74-13.23-40.74S58.76,53.66,77.51,103.81Z"/><path class="cls-3" d="M93.35,67.42a44.81,44.81,0,0,1-2.41,24.42,21.17,21.17,0,0,1-10.53,11.42l7.67,1.43s.47,2.19,9.22-9.71,4.06-33.86,4.06-33.86Z"/><path class="cls-4" d="M91.19,72.28c-4-16.73-12.44-29.93-13.8-46.37l-.78,0c-46.73-6.25-39.83,75.24-29.16,84,2.68.58,22.57,10.75,28.65,12.19C68.94,98.42,96.77,95.25,91.19,72.28Z"/><path class="cls-5" d="M56,96.67c-.88.27-2,3.4-1.85,3.91l1.75,8.11,38-.92s-.31-9-2.47-11S72.74,91.64,56,96.67Z"/><path class="cls-6" d="M73.84,94c-13.75.14-18.2,2.6-18.2,2.6l.52,3.29c.2-3,3.57-5.18,18-5.62,18.09-.55,16.45,6.17,16.45,6.17L92,97.33C90.13,94.6,81.18,93.9,73.84,94Z"/><path class="cls-7" d="M83.93,98.42A33.57,33.57,0,0,1,84.1,86.2L65.67,80c.85,6.8-2.15,16.56-4.19,20.66-1.3,2.6-7.77,6.61-15.4,8.86,1.39,1.39,17.66,26,28.27,34.33.89.89,32.8-24.35,34.64-31.86C107.1,111.91,84.59,102.37,83.93,98.42Z"/><path class="cls-8" d="M74.34,110.48c-.59-.27-3.21-3.59-3.11-2.81s3,6.56,4.14,5.29,2.54-5.17,2.54-5.17C77,108.23,74.93,110.75,74.34,110.48Z"/><path class="cls-9" d="M91.11,103.31a41,41,0,0,1-6.17-4.19c-.68-.56-1.18-3.33-1.18-6.1,0-1.2.09-2.92.2-4.48-.37.37-22.6-5.07-22.6-5.07s1.27,13-1.2,18c-.28.56-2.83,2.36-6,4.17C51.66,107.05,68,129,69.31,135.22A41.26,41.26,0,0,0,72.24,144q1.92,0,3.81-.12c3.3-9.43,11-31.31,11.87-32.92C88.51,109.88,94.37,105.16,91.11,103.31Zm-5.35,1.54c-3.19,4.42-4.57,7.29-4.78,9.14s-3.24,15-6.12,21.44c0,0-5.44-14.75-6.06-18.76-.54-3.52-4.38-8.8-6.78-12.13.69-1.59,1.26-2.18,1.79-3.44,0,0,11.14.23,17.82-4.43C80.61,101.59,86,104.53,85.76,104.85Z"/><path class="cls-10" d="M107.27,134.78c2-5.77,14.59-19.35,14.59-19.35-.33-.45-11-5.91-17.19-8-4.62-1.54-12.47-4.69-12.47-4.69a45.3,45.3,0,0,1-5.45,4.59c-4.75,14.63-22.43,7.9-22.43,7.9-3.16-1.43-7.11-11.34-7.11-11.34-18.73,4.57-29,12.12-29,12.12,2,1.15,8.6,8.89,10.89,12,1,1.33,1.68,4.76,2.23,9.07a72.08,72.08,0,0,0,65.9-2.39Z"/><path class="cls-11" d="M86,118.77l-22.4.42-25.08,1.64s3.54,9.76,7.42,18.29a72.18,72.18,0,0,0,58.29-2.7c2.32-5.68,3.24-8.87,4.59-17.44Z"/><path class="cls-12" d="M82.89,111s-.15.91-.36,2.15a14.14,14.14,0,0,1,7.3-2.31c1.85-1.65,4.93-4.29,6.41-5l-6.44-4.11Z"/><path class="cls-13" d="M40.1,134.63c-.45-1.17-.61-.43-.57,1.64l1.24.62C40.51,135.9,40.28,135.12,40.1,134.63Z"/><path class="cls-14" d="M106.15,135.4Z"/><path class="cls-15" d="M63.35,107.88l-3.49-3.08-4.32,3.7a52.91,52.91,0,0,0,4.32,3.9s.49,2,1.29,5.09a10.87,10.87,0,0,1,3.66.62c1,.35,2,.68,3,1-.46-1.8-.76-3.08-.81-3.45C66.85,114.05,63.35,107.88,63.35,107.88Z"/><path class="cls-10" d="M28,117.13c-.69,3.66-1.17,7.25-1.51,10.66a72.19,72.19,0,0,0,15.06,9.46c-.29-3.48-.53-6.45-.6-7.79C40.74,125.35,28.82,112.81,28,117.13Z"/><path class="cls-16" d="M27.44,117.52a38.63,38.63,0,0,0-1.65,9.69A70.8,70.8,0,0,0,32,131.87C31.11,121.24,29.48,112,27.44,117.52Z"/><path class="cls-17" d="M39,136c.89.46,1.78.89,2.68,1.31-.4-4.87-.82-9-1.16-10.63C40.14,124.84,39.54,130,39,136Z"/><path class="cls-10" d="M123.77,122a40.7,40.7,0,0,0-1.42-5.93c-4.64-.87-9.25,7.61-12.54,10.69-1.78,1.67-3,5.5-3.78,8.67A72,72,0,0,0,123.77,122Z"/><path class="cls-18" d="M106.32,131.52s-.27,1.81-.59,4.1c.69-.37,1.37-.74,2-1.12C107.5,128.1,107,124.44,106.32,131.52Z"/><path class="cls-19" d="M121.91,115.46C105.8,104.94,92.47,103.7,92.47,103.7,96.24,106,121.91,115.46,121.91,115.46Z"/><path class="cls-20" d="M123.9,121.9a34.6,34.6,0,0,0-1.36-5.32c-1.29-3.71-2.38,1.67-3.2,9.67Q121.71,124.18,123.9,121.9Z"/><path class="cls-21" d="M59.86,105.77c-1.23-.59-5.21-3.44-5.21-3.44l-6.78,6.3,1.43,11.5,10-9.52s4.34-.15,6.41,1.8C65.75,112.41,63.56,107.57,59.86,105.77Z"/><path class="cls-22" d="M73.69,114.65c-5,.33-10.35-.73-15-7.08l-4.36,2.76s2.66,9.75,18.76,9.58c6-.07,15.93-3.39,20.85-11.52l-5.21-2.16S83,114,73.69,114.65Z"/><path class="cls-23" d="M86.43,109.05c1.72-.62,9.23,9.41,11.11,8,1.29-1,2.64-9,2.64-9l-10.82-4.75A9.68,9.68,0,0,1,86.43,109.05Z"/><path class="cls-24" d="M54.69,102.44l-6.78,6.31L49,120.81l10.38-10.19a37.26,37.26,0,0,0-2-6.78A17.67,17.67,0,0,0,54.69,102.44Z"/><path class="cls-25" d="M60.81,104.55a13.09,13.09,0,0,1-5.17-8s-3.46,2-8.25,9.66c-1,1.59-.28,14.46-.28,14.46a84,84,0,0,1,9.11-10.41s3.23-3.16,4.05-3.15,5.48,5.29,5.48,5.29C63.61,108,62.23,105.59,60.81,104.55Z"/><path class="cls-26" d="M91.24,96.57a12.67,12.67,0,0,1-4,7.81A22.42,22.42,0,0,0,82.89,111s2.75-3.64,4.85-3.28,8.39,8.45,10.15,7.75c.93-.37,3.17-8.31,2.12-9.85A40.74,40.74,0,0,0,91.24,96.57Z"/><path class="cls-27" d="M61.41,97c13.06,4.25,22.37-5,22.37-5L84,87.21,60.81,85.3C61.52,87.94,61.41,97,61.41,97Z"/><path class="cls-28" d="M99.34,61.64c-.76,0-1.62,2-1.62,2-1.11,6.71-1.53,11.82-1.53,11.82C100.5,74,103.73,61.58,99.34,61.64Z"/><path class="cls-29" d="M98.76,68.14a5,5,0,0,1-.57,3.93,9.47,9.47,0,0,0,1.74-3.56c.45-3.17-.83-3.39-.27-4.18.46-.64,1.12,1.21,1.12,1.21C101.41,61.34,97.53,62.28,98.76,68.14Z"/><path class="cls-28" d="M46.43,61.75c-4.38-.16-1.42,12.38,2.86,13.86,0,0-.32-5.13-1.28-11.85C48,63.76,47.2,61.78,46.43,61.75Z"/><path class="cls-30" d="M47.12,68.35c.86-6.24-3.37-6.61-2.36-2.38,0,0,.56-2,1.1-1.41s-.69,1.14,0,4.35A8.83,8.83,0,0,0,48,72.31,4.85,4.85,0,0,1,47.12,68.35Z"/><path class="cls-31" d="M76.39,30.6C61.47,28.23,51,41.39,48.3,57.27c-1.5,8.91-.83,16.84,4,23.35,2,2.64,4.35,3.9,7.15,6,1.78,1.31,4.57,4.14,6.47,5.5a10.5,10.5,0,0,0,5.91,2.32c7,.2,11.57-5.06,13.57-7,7-6.66,13.5-9.16,11.94-27.55C96.1,45.46,86.15,30.84,76.39,30.6Z"/><path class="cls-32" d="M84.78,52.82c-8.29,1.54-7.91,7.8-8.48,15.11,13.45,5.39,21.14-1.14,21.14-1.14s-.1-8.09-2-10.85C94.76,54.88,92.52,51.38,84.78,52.82Z"/><path class="cls-33" d="M87.87,62.71c-3.9.83-7.73,5.22-6.85,9.39a12.47,12.47,0,0,0,7.37,9.17c4.86,1.88,8.34-4.36,9.12-12.06C97.94,65,91.76,61.89,87.87,62.71Z"/><path class="cls-34" d="M59.43,53.36a11.94,11.94,0,0,0-7.94,2.09c-4.1,3.12-1.63,11.22-1.63,11.22s6.49,7.46,20,2C68.87,62.91,70.4,54.05,59.43,53.36Z"/><path class="cls-35" d="M57.63,64.32c-3.58-.87-9.19,1.83-9.09,5.53.24,8.73,3.8,11.27,8.51,11.93,3.65.51,6.2-5.89,7.08-9.47S61.21,65.2,57.63,64.32Z"/><path class="cls-36" d="M92.48,66.56c-1.33.35-2.25,1.21-2.06,1.93s1.41,1,2.73.69S95.4,68,95.21,67.25,93.8,66.22,92.48,66.56Z"/><path class="cls-37" d="M52.69,67.05c-1.33-.24-2.52.15-2.65.87s.84,1.52,2.17,1.76,2.52-.14,2.65-.87S54,67.3,52.69,67.05Z"/><path class="cls-38" d="M78.72,30.91s-15.8-4.13-25.87,12.27c-5.15,8.38-6.92,22.75-4,30.84a20.2,20.2,0,0,1,2.57-11.09s6.56-9.7,11-14.07c14.86-14.6,19.78-15.66,24.07-10,5.51,7.29,7.62,17,11,28a47.79,47.79,0,0,0-2.47-17.48C92.11,41.11,86.48,32.37,78.72,30.91Z"/><path class="cls-39" d="M73.12,87.82c-1.85-.08-3.41.38-3.48,1s1.37,1.24,3.22,1.32,3.4-.37,3.48-1S75,87.9,73.12,87.82Z"/><path class="cls-40" d="M94.31,62.72c5.42,7.6-.11,16.07-4.4,20-4.75,4.32-6.7,6.78-7.46,7.5.69-.6,7-6.2,8.82-7.49s8.11-7.65,6.42-15.66C97.69,67.06,96.64,63.76,94.31,62.72Z"/><path class="cls-28" d="M56.5,83.87c-9.51-6.75-6.78-19-6.78-19-4.84,12.41,3.7,17.91,5.42,19,3.56,2.32,9.49,7.13,9.49,7.13A50.09,50.09,0,0,0,56.5,83.87Z"/><path class="cls-41" d="M65.58,91.85s5.86,7.59,15.37-.46C81,91.39,73.31,97.45,65.58,91.85Z"/><path class="cls-31" d="M93.6,54.31c-4.39-2.71-7.87-1.71-7.87-1.71,10.09.7,8.2,10.21,8.2,10.21S96.15,55.89,93.6,54.31Z"/><path class="cls-42" d="M81.45,53.2c-1.77.85-3,3.19-1.49,2.67s7.21-2.71,8.45-2.75A13.69,13.69,0,0,1,94,54.51s-3.47-2.65-5.6-2.85S82.4,52.75,81.45,53.2Z"/><path class="cls-43" d="M63.88,53.32c-1-.39-5.19-1.63-7.29-1.3s-5.4,3.24-5.4,3.24a12.92,12.92,0,0,1,5.44-1.78c1.24,0,7,1.85,8.59,2.27S65.7,54.06,63.88,53.32Z"/><path class="cls-44" d="M86.05,56.9c-6.17.12-7.82,4.51-7.93,7.81.57.12,1.56.87,2.67,1.19a16.25,16.25,0,0,0,5.4.46c2,0,6-.67,6-4.48C92.08,58.49,87.59,56.87,86.05,56.9Z"/><path class="cls-45" d="M59.7,57.09c-2.44,0-6.47,1.63-6.67,5.67-.16,3.25,4.1,3.82,6.09,3.82a16.6,16.6,0,0,0,5.4-.56c1.11-.35,2.14-1.14,2.64-1.26C67,60.47,65.2,57.17,59.7,57.09Z"/><path class="cls-46" d="M85.11,59.09c-6.15.37-6.63,5.23-6.63,5.23A10.29,10.29,0,0,0,85.33,66c5.59-.43,6.83-3.38,6.83-3.38S91.71,58.69,85.11,59.09Z"/><path class="cls-47" d="M88.65,62.11a14.88,14.88,0,0,1,2.28,1.35l.57-1.18a12.61,12.61,0,0,0-4.72-2.72A3.62,3.62,0,0,1,88.65,62.11Z"/><path class="cls-47" d="M78.48,64.32a9.22,9.22,0,0,1,2.28-2,3.58,3.58,0,0,1,1-2.07A5.18,5.18,0,0,0,78.48,64.32Z"/><path class="cls-48" d="M80.76,62.3a3.08,3.08,0,0,0,0,.61,3.56,3.56,0,0,0,2.11,3,16.67,16.67,0,0,0,3.73,0h.06a3.61,3.61,0,0,0,2.06-3.41,2.33,2.33,0,0,0,0-.37C86.43,60.62,82.17,60.92,80.76,62.3Z"/><path class="cls-49" d="M86.78,59.56a4.91,4.91,0,0,0-1.94-.12,15.21,15.21,0,0,0-3.06.79,3.58,3.58,0,0,0-1,2.07,6.47,6.47,0,0,1,1.95-.84,8.61,8.61,0,0,1,5.94.65A3.62,3.62,0,0,0,86.78,59.56Z"/><path class="cls-50" d="M84.75,60a2.48,2.48,0,0,0-2.43,2.53A2.51,2.51,0,0,0,85,64.81,2.4,2.4,0,1,0,84.75,60Z"/><path class="cls-51" d="M93.14,59.19s-.41.6-1.77.4c.37-.21.47-.86.47-.86a4.33,4.33,0,0,1-2.55.12C82.64,57,78.93,60.22,78.48,64.32A6.87,6.87,0,0,1,84.75,60c2.35,0,4.19.84,6.45,2.42-.69,2.07-1.9,2.67-4.93,3.49a10.54,10.54,0,0,0,4.57-1.28,11.25,11.25,0,0,1,2.47-1.18,1.26,1.26,0,0,0-1.22-.63c0-.14.06-.24.07-.28C94,61.93,93.12,59.29,93.14,59.19Z"/><path class="cls-52" d="M84.69,59.72a6.31,6.31,0,0,0-6.21,4.6s2-4.21,6.18-4.12a11.18,11.18,0,0,1,6.54,2.24A9.77,9.77,0,0,0,84.69,59.72Z"/><path class="cls-53" d="M60.07,59.28c-6.61-.4-7,3.62-7,3.62s1.29,2.94,6.88,3.28a10.3,10.3,0,0,0,6.83-1.77S66.19,59.64,60.07,59.28Z"/><path class="cls-47" d="M54.32,63.74a14.67,14.67,0,0,1,2.25-1.39,3.65,3.65,0,0,1,1.84-2.58,12.76,12.76,0,0,0-4.69,2.79Z"/><path class="cls-47" d="M63.41,60.37a3.58,3.58,0,0,1,1.06,2.05,9.74,9.74,0,0,1,2.31,2A5.17,5.17,0,0,0,63.41,60.37Z"/><path class="cls-54" d="M56.57,62.35c0,.12,0,.25,0,.38a3.64,3.64,0,0,0,2.11,3.37h.07a16.51,16.51,0,0,0,3.72,0A3.52,3.52,0,0,0,64.5,63a3.18,3.18,0,0,0,0-.62C63,61.06,58.77,60.83,56.57,62.35Z"/><path class="cls-55" d="M60.34,59.63a4.69,4.69,0,0,0-1.93.14,3.65,3.65,0,0,0-1.84,2.58,8.67,8.67,0,0,1,5.94-.74,6.7,6.7,0,0,1,2,.81,3.58,3.58,0,0,0-1.06-2.05A14.68,14.68,0,0,0,60.34,59.63Z"/><path class="cls-56" d="M60.44,60.21A2.4,2.4,0,1,0,62.9,62.7,2.48,2.48,0,0,0,60.44,60.21Z"/><path class="cls-57" d="M55.89,59.1A4.39,4.39,0,0,1,53.33,59s.11.65.48.85c-1.35.22-1.75-.36-1.77-.37s-.84,2.75,1,3.36c0,0,0,.13.07.27a1.25,1.25,0,0,0-1.21.65,11,11,0,0,1,2.49,1.14A10.43,10.43,0,0,0,59,66.14c-3-.77-4.26-1.36-5-3.42a10.39,10.39,0,0,1,6.5-2.33c4.22,0,6.24,4,6.24,4C66.37,60.5,62.51,57.11,55.89,59.1Z"/><path class="cls-52" d="M60.16,60A8.39,8.39,0,0,0,54,62.72s3.19-2.39,6.15-2.32,4.63,1.21,6.59,4A6.66,6.66,0,0,0,60.16,60Z"/><path class="cls-58" d="M85.14,61.73a.65.65,0,0,0-.88.32.67.67,0,0,0,.29.91.64.64,0,0,0,.88-.32A.69.69,0,0,0,85.14,61.73Z"/><path class="cls-58" d="M87.52,62.29a.9.9,0,0,0-1.21.41.89.89,0,0,0,.42,1.19.91.91,0,0,0,1.21-.4A.9.9,0,0,0,87.52,62.29Z"/><path class="cls-58" d="M60.68,61.91a.66.66,0,0,0-.9.32.71.71,0,0,0,.3.93.67.67,0,0,0,.9-.33A.7.7,0,0,0,60.68,61.91Z"/><path class="cls-58" d="M63.1,62.46a.93.93,0,0,0-1.24.41.91.91,0,0,0,.43,1.22.93.93,0,0,0,1.24-.41A.91.91,0,0,0,63.1,62.46Z"/><path class="cls-59" d="M81.77,57.94A6.49,6.49,0,0,0,79,60.87a7.71,7.71,0,0,1,2.83-2.63,10.93,10.93,0,0,1,4.36-1.34A9.6,9.6,0,0,0,81.77,57.94Z"/><path class="cls-60" d="M64.27,58.28A8,8,0,0,0,60,57.1a14.8,14.8,0,0,1,3.31,1,9,9,0,0,1,3.17,3.16A5.33,5.33,0,0,0,64.27,58.28Z"/><path class="cls-61" d="M73,76.27c.82-.08,4.29-2.23,4.29-2.23l-8.72-.23S72.18,76.36,73,76.27Z"/><path class="cls-62" d="M73,70.28c-2.32,0-3,.57-2.83,1.2C70.58,73,71.55,73.3,73,73.33s2.72-.27,3-1.88C76.08,71,75.36,70.28,73,70.28Z"/><path class="cls-63" d="M74.49,74.36s4.25.18,2.91-1.26C77,72.62,74.49,74.36,74.49,74.36Z"/><path class="cls-64" d="M68.6,73.05c-1.45,1.18,3,1.23,3,1.23S69.12,72.64,68.6,73.05Z"/><path class="cls-28" d="M73,73.76c-4.3-.18-4.74-2.3-5.36-1-.26.55.2.72.95,1,0,0-.23-.63.73-.54.7.07,1.22,1.57,3.71,1.56,2.66,0,3.06-1.33,3.74-1.35a.48.48,0,0,1,.54.56s1.28-.61.82-1.21C77.27,71.75,77,73.92,73,73.76Z"/><path class="cls-65" d="M60.82,77.32c-.25.47.09,1,.7,1.15a11.11,11.11,0,0,1,3.08,1.6C63.6,78.67,61,76.91,60.82,77.32Z"/><path class="cls-66" d="M81.2,79.87A11.54,11.54,0,0,1,84.1,78c.59-.25.88-.76.59-1.2S82.05,78.39,81.2,79.87Z"/><path class="cls-28" d="M67,83.15c1.18,2.42,7.51,5.74,12.07-.22C79.07,82.93,72.52,86,67,83.15Z"/><path class="cls-67" d="M61.47,77.78v0l.1.14a12.13,12.13,0,0,1,2.71,1.3c.75.53,1.53,4.16,8.89,4a10.68,10.68,0,0,0,8.77-4.29,6.37,6.37,0,0,1,2-1.5.76.76,0,0,0,.06-.16A35.49,35.49,0,0,1,72.25,78.9,47.67,47.67,0,0,1,61.47,77.78Z"/><path class="cls-68" d="M78.89,79.45a37.52,37.52,0,0,1-11.78.61c-1.19-.51-1,1-1,1,2.62,2.62,4.7,2.09,6.78,2.12a11.22,11.22,0,0,0,6.91-2.49C79.92,80.18,79.47,79.32,78.89,79.45Z"/><path class="cls-69" d="M68.8,79.06A18.44,18.44,0,0,1,65,78.47a4,4,0,0,1,.51.81c.26.58,1.53,2.52,7.46,2.36,4.46-.11,6.78-1.73,7.09-2.7.18-.58.59-.85.62-1a15.17,15.17,0,0,1-4.5,1A38.46,38.46,0,0,1,68.8,79.06Z"/><path class="cls-70" d="M73.57,82.94c-9.06.12-6-3.62-12-5a11.28,11.28,0,0,1,3,2.53c1.77,2,3.32,5.16,8.4,5,4.57-.1,7-3.47,8.48-5.32A15,15,0,0,1,84,77.43C79.08,78.84,80.76,82.62,73.57,82.94Z"/><path class="cls-71" d="M77.41,82a17.31,17.31,0,0,1-4.61.91,12.32,12.32,0,0,1-4.6-.7,13.62,13.62,0,0,1-2.93-2.38c.33.44,2.36,5.21,7.46,5,5.89-.2,6.9-4.18,7.93-5.37A9,9,0,0,1,77.41,82Z"/><path class="cls-72" d="M75.28,83.07c-.59.21-2.64.39-2.56.59a3.31,3.31,0,0,0,2.85.15c1.2-.35,1.75-1,1.67-1.25S75.87,82.86,75.28,83.07Z"/><path class="cls-67" d="M61.67,78.29a9.28,9.28,0,0,1,2.06.38,20.77,20.77,0,0,0-2.59-1.15C61,77.57,61.14,78.06,61.67,78.29Z"/><path class="cls-67" d="M82,78.29a7.12,7.12,0,0,1,2-.5c.52-.26.6-.73.5-.8A12.59,12.59,0,0,0,82,78.29Z"/><path class="cls-73" d="M65.55,79.31s2.58,1.34,7.84,1.25A16.4,16.4,0,0,0,80.05,79l.29-.71-15.19.31Z"/><path class="cls-70" d="M76.21,77.94a19.79,19.79,0,0,0-3.21.21A32.88,32.88,0,0,0,69.25,78,23.88,23.88,0,0,1,62,77.82s1.08.64,6.39,1.59a21.1,21.1,0,0,0,4.62.51,27.86,27.86,0,0,0,5-.72,25.1,25.1,0,0,0,5.56-1.84A31.62,31.62,0,0,1,76.21,77.94Z"/><path class="cls-74" d="M75.21,78.12a22.4,22.4,0,0,1-2.54.23c-.52,0-2-.23-2.4-.23a14.66,14.66,0,0,0-3.12.46c-.13.55,5.9.86,6.45.8s5.19-.68,5.22-.9S75.64,78,75.21,78.12Z"/><path class="cls-75" d="M88.2,27.25l-4.31,7.38c24.44,9.17,16.41,47.45,16.41,47.45a61.63,61.63,0,0,0,2.57-40.63C97.76,23.68,88.2,27.25,88.2,27.25Z"/><path class="cls-76" d="M66.92,20.1c-10.37,1-30.18,10.2-32.76,29.6-1.87,14.08-1.09,15.22-.52,27.5A142,142,0,0,0,41,54.85c2.35-10.8,14.88-18.18,20.71-21.72s17.81-5.91,22.18,1.5l4.85-7.38S83.12,18.51,66.92,20.1Z"/><path class="cls-77" d="M44.24,91.84l-9.59-5.79s-7.33,9.51-1.53,17.89c3.92,5.66-9,11.58-9.55,3.9,0,0-2.17,4.28-.15,7.52,5,8,19.74,8,22.64,1.26S40.8,94.87,44.24,91.84Z"/><path class="cls-78" d="M78.11,29.31C61.72,29.58,50.93,59,50.93,59S67.41,33.65,77,33.07c5.63-.33,6.87,1.56,6.87,1.56S82.18,29.25,78.11,29.31Z"/><path class="cls-79" d="M52.21,90.41c-7.59-5.83-11.61-10-11.61-11.68S40.09,62.78,37,67,25.78,81.93,26.78,90.52c1.38,11.78,14.93,10.44,17.88,18.2,3,7.94-10.87,8.33-10.87,8.33s16,10.69,23.37-4.39C61.51,103.78,59.8,96.25,52.21,90.41Z"/><path class="cls-80" d="M42.66,94.61a11.71,11.71,0,0,1-2-11.35L36.4,80.44s-9.91,9.44,1,16.54c13.68,9,14.41,14.62,7,21.35,0,0,6.95-4.25,8.29-9.07C54,104.24,45.29,97.76,42.66,94.61Z"/><path class="cls-81" d="M64.2,29.48c-6.36,3-20.77,17.86-24.71,23.7S25,75.32,38,85.36c12.08,9.33,20.82,13.3,14.25,22.9s-9.6,14.09-9.28,19.89c.27,4.84,9.58,14.86,21.24,5.27,0,0-7.82,3-10.73-1.94-1.6-2.75.12-6.69,3.69-9.55C70.71,111.07,69.78,98.8,60,90.16,51.55,82.7,44,82,47.65,68.05c1.69-6.41,4.65-11.61,9.9-21.62C64.06,34,75.7,24.06,83.89,34.63,83.89,34.63,81.49,21.21,64.2,29.48Z"/><path class="cls-82" d="M58.73,33.69S32.55,53.63,28,69.29C25.23,79,31.27,82,36.77,84.45c0,0-9.59-7.3-4.14-17.53S58.73,33.69,58.73,33.69Z"/><path class="cls-83" d="M61.14,38.94S44.65,58.42,42,61.69,30.47,82,52,87.87c0,0-12.53-9.33-8.32-19.88C46.61,60.7,61.14,38.94,61.14,38.94Z"/><path class="cls-84" d="M54.49,131.81c-4.16-3.84,5.27-12.12,5.27-12.12s-6.9,3.19-9.54,8,2.18,7.1,5,7.49c5.67.81,9-1.72,9-1.72S58.64,135.63,54.49,131.81Z"/><path class="cls-85" d="M42.55,88.75c3.74,3.15,17.14,13.28,6,23-8.18,7.17-13,11.67-11.54,16.9,2,7.41,12.51,8.74,12.51,8.74C43.7,135.57,35.73,126,56.42,112,68.38,103.86,42.55,88.75,42.55,88.75Z"/><path class="cls-86" d="M45.12,90.92c8.23,8,7.54,11.75,6.44,15.5-1.92,6.53-11,4.91-11,4.91,6.4,6,16.21.59,17.17-6.62C58.62,98.19,45.12,90.92,45.12,90.92Z"/><path class="cls-87" d="M83.89,34.63c2.66,1,4.13,2.93,7.12,8.3a57.12,57.12,0,0,1,6.52,19.45c2.55-10.54-6.81-24.87-8.85-26.94A4.4,4.4,0,0,0,83.89,34.63Z"/><path class="cls-88" d="M83.89,34.63s6.33-.28,10.76,12.94c4.93,14.7,8.78,19.31,8.53,29.11-.23,9-7.28,14.7-7.28,14.7,19.52-14.24,7.93-32.22,3.45-45.73C93.34,27.55,83.89,34.63,83.89,34.63Z"/><path class="cls-89" d="M51.73,82.48C44,75.65,49.62,62.25,49.62,62.25c-5.56,6.8-8.74,11.78-7.21,14.9,2.28,4.62,9.6,8.84,11.47,10s10.66,8.71,10.66,8.71C62.94,92.94,62,91.5,51.73,82.48Z"/><path class="cls-90" d="M35.41,51.37s13.22-17.88,30.07-24A39,39,0,0,0,35.41,51.37Z"/><path class="cls-91" d="M95.2,28.27a12,12,0,0,0-7.31-2.4C82.37,19.22,72,17.62,61,20.64c-13.58,3.71-21.06,15-21.06,15s12.95-10,24.26-12.14c15.41-2.93,23.59,5.05,23.59,5.05,10.81.27,17,22.05,17,22.05C103.5,38.05,98.75,30.92,95.2,28.27Z"/></svg>