<svg id="Layer_1" data-name="Layer 1" xmlns="http://www.w3.org/2000/svg" xmlns:xlink="http://www.w3.org/1999/xlink" viewBox="0 0 144 144"><defs><style>.cls-1{fill:#f6ece6;}.cls-2{fill:url(#linear-gradient);}.cls-3{fill:url(#linear-gradient-2);}.cls-4{fill:url(#linear-gradient-3);}.cls-5{fill:url(#linear-gradient-4);}.cls-6{fill:#f7d9ab;}.cls-7{fill:url(#linear-gradient-5);}.cls-8{fill:url(#linear-gradient-6);}.cls-9{fill:url(#linear-gradient-7);}.cls-10{fill:url(#linear-gradient-8);}.cls-11{fill:url(#linear-gradient-9);}.cls-12{fill:url(#linear-gradient-10);}.cls-13{fill:url(#linear-gradient-11);}.cls-14{fill:#fece22;}.cls-15{fill:url(#linear-gradient-12);}.cls-16{fill:url(#linear-gradient-13);}.cls-17{fill:url(#linear-gradient-14);}.cls-18{fill:url(#linear-gradient-15);}.cls-19{fill:url(#linear-gradient-16);}.cls-20{fill:url(#linear-gradient-17);}.cls-21{fill:url(#linear-gradient-18);}.cls-22{fill:url(#linear-gradient-19);}.cls-23{fill:url(#linear-gradient-20);}.cls-24{fill:#f1c99a;}.cls-25{fill:url(#linear-gradient-21);}.cls-26{fill:url(#linear-gradient-22);}.cls-27{fill:url(#linear-gradient-23);}.cls-28{fill:url(#radial-gradient);}.cls-29{fill:url(#linear-gradient-24);}.cls-30{fill:url(#radial-gradient-2);}.cls-31{fill:url(#linear-gradient-25);}.cls-32{fill:url(#linear-gradient-26);}.cls-33{fill:url(#linear-gradient-27);}.cls-34{fill:url(#linear-gradient-28);}.cls-35{fill:url(#linear-gradient-29);}.cls-36{fill:url(#linear-gradient-30);}.cls-37{fill:#971b27;}.cls-38{fill:url(#linear-gradient-31);}.cls-39{fill:url(#linear-gradient-32);}.cls-40{fill:#f26d79;}.cls-41{fill:url(#linear-gradient-33);}.cls-42{fill:#f598a2;}.cls-43{fill:url(#linear-gradient-34);}.cls-44{fill:url(#linear-gradient-35);}.cls-45{fill:url(#linear-gradient-36);}.cls-46{fill:url(#linear-gradient-37);}.cls-47{fill:#ddd;}.cls-48{fill:url(#linear-gradient-38);}.cls-49{fill:url(#linear-gradient-39);}.cls-50{fill:url(#radial-gradient-3);}.cls-51{fill:url(#linear-gradient-40);}.cls-52{fill:url(#linear-gradient-41);}.cls-53{fill:url(#linear-gradient-42);}.cls-54{fill:#fff;}.cls-55{fill:url(#linear-gradient-43);}.cls-56{fill:url(#linear-gradient-44);}.cls-57{fill:url(#linear-gradient-45);}.cls-58{fill:url(#linear-gradient-46);}.cls-59{fill:url(#linear-gradient-47);}.cls-60{fill:url(#radial-gradient-4);}.cls-61{fill:url(#linear-gradient-48);}.cls-62{fill:url(#linear-gradient-49);}.cls-63{fill:url(#linear-gradient-50);}.cls-64{fill:url(#linear-gradient-51);}.cls-65{fill:url(#linear-gradient-52);}.cls-66{fill:url(#linear-gradient-53);}.cls-67{fill:url(#linear-gradient-54);}.cls-68{fill:url(#linear-gradient-55);}.cls-69{fill:url(#linear-gradient-56);}.cls-70{fill:url(#linear-gradient-57);}.cls-71{fill:url(#linear-gradient-58);}.cls-72{fill:url(#linear-gradient-59);}.cls-73{fill:url(#linear-gradient-60);}.cls-74{fill:url(#linear-gradient-61);}.cls-75{fill:url(#linear-gradient-62);}.cls-76{fill:url(#linear-gradient-63);}.cls-77{fill:url(#linear-gradient-64);}.cls-78{fill:url(#linear-gradient-65);}.cls-79{fill:url(#linear-gradient-66);}.cls-80{fill:url(#linear-gradient-67);}.cls-81{fill:url(#linear-gradient-68);}.cls-82{fill:url(#linear-gradient-69);}.cls-83{fill:url(#linear-gradient-70);}.cls-84{fill:url(#linear-gradient-71);}.cls-85{fill:url(#linear-gradient-72);}.cls-86{fill:url(#linear-gradient-73);}.cls-87{fill:url(#linear-gradient-74);}.cls-88{fill:url(#linear-gradient-75);}.cls-89{fill:url(#linear-gradient-76);}</style><linearGradient id="linear-gradient" x1="74.31" y1="122.69" x2="58.49" y2="-21.01" gradientUnits="userSpaceOnUse"><stop offset="0" stop-color="#3f1e16"/><stop offset="0.45" stop-color="#411f17"/><stop offset="0.7" stop-color="#492319"/><stop offset="0.89" stop-color="#572a1e"/><stop offset="1" stop-color="#622f21"/></linearGradient><linearGradient id="linear-gradient-2" x1="46.8" y1="143.7" x2="45.38" y2="32.74" gradientUnits="userSpaceOnUse"><stop offset="0" stop-color="#3f1e16"/><stop offset="0.31" stop-color="#50261b"/><stop offset="0.67" stop-color="#5d2d20"/><stop offset="1" stop-color="#622f21"/></linearGradient><linearGradient id="linear-gradient-3" x1="94.41" y1="60.24" x2="96.64" y2="147" gradientUnits="userSpaceOnUse"><stop offset="0" stop-color="#3f1e16"/><stop offset="0.72" stop-color="#572a1e"/><stop offset="1" stop-color="#622f21"/></linearGradient><linearGradient id="linear-gradient-4" x1="48.74" y1="70.13" x2="48.23" y2="156.63" xlink:href="#linear-gradient-3"/><linearGradient id="linear-gradient-5" x1="30.57" y1="125.9" x2="35.14" y2="140.96" gradientUnits="userSpaceOnUse"><stop offset="0" stop-color="#f1c99a"/><stop offset="0.53" stop-color="#f2cc9d"/><stop offset="0.87" stop-color="#f5d4a5"/><stop offset="1" stop-color="#f7d9ab"/></linearGradient><linearGradient id="linear-gradient-6" x1="86.73" y1="103.83" x2="68.65" y2="106.5" xlink:href="#linear-gradient-5"/><linearGradient id="linear-gradient-7" x1="52.41" y1="87.71" x2="83.91" y2="97.29" xlink:href="#linear-gradient-5"/><linearGradient id="linear-gradient-8" x1="34.66" y1="87.45" x2="77.49" y2="113.47" xlink:href="#linear-gradient-5"/><linearGradient id="linear-gradient-9" x1="114" y1="93.92" x2="71.51" y2="105.85" xlink:href="#linear-gradient-5"/><linearGradient id="linear-gradient-10" x1="113.31" y1="127.77" x2="115.31" y2="134.37" xlink:href="#linear-gradient-5"/><linearGradient id="linear-gradient-11" x1="56.91" y1="110.32" x2="112.62" y2="95.14" xlink:href="#linear-gradient-5"/><linearGradient id="linear-gradient-12" x1="113.84" y1="139.78" x2="110.38" y2="95.38" gradientUnits="userSpaceOnUse"><stop offset="0" stop-color="#ffd539"/><stop offset="0.84" stop-color="#fecf26"/><stop offset="1" stop-color="#fece22"/></linearGradient><linearGradient id="linear-gradient-13" x1="35.32" y1="139.25" x2="32.04" y2="97.18" xlink:href="#linear-gradient-12"/><linearGradient id="linear-gradient-14" x1="113.81" y1="134.73" x2="119.19" y2="114.74" gradientUnits="userSpaceOnUse"><stop offset="0" stop-color="#ecb229"/><stop offset="0.38" stop-color="#f0b828"/><stop offset="0.87" stop-color="#fac823"/><stop offset="1" stop-color="#fece22"/></linearGradient><linearGradient id="linear-gradient-15" x1="34.87" y1="141.47" x2="25.76" y2="117.37" gradientUnits="userSpaceOnUse"><stop offset="0" stop-color="#fece22"/><stop offset="0.13" stop-color="#fac823"/><stop offset="0.62" stop-color="#f0b828"/><stop offset="1" stop-color="#ecb229"/></linearGradient><linearGradient id="linear-gradient-16" x1="88.86" y1="89.98" x2="56.68" y2="112.89" xlink:href="#linear-gradient-15"/><linearGradient id="linear-gradient-17" x1="73.32" y1="149.6" x2="72.93" y2="119.36" gradientUnits="userSpaceOnUse"><stop offset="0" stop-color="#fece22"/><stop offset="0.16" stop-color="#fecf26"/><stop offset="1" stop-color="#ffd539"/></linearGradient><linearGradient id="linear-gradient-18" x1="70.59" y1="82.28" x2="73.26" y2="93.57" gradientUnits="userSpaceOnUse"><stop offset="0" stop-color="#dba879"/><stop offset="0.49" stop-color="#e4b687"/><stop offset="1" stop-color="#f1c99a"/></linearGradient><linearGradient id="linear-gradient-19" x1="108.15" y1="133.2" x2="113.54" y2="113.22" xlink:href="#linear-gradient-14"/><linearGradient id="linear-gradient-20" x1="39.86" y1="139.59" x2="30.75" y2="115.49" xlink:href="#linear-gradient-14"/><linearGradient id="linear-gradient-21" x1="46.65" y1="61.13" x2="45.54" y2="72.22" xlink:href="#linear-gradient-18"/><linearGradient id="linear-gradient-22" x1="96.87" y1="61.39" x2="100.17" y2="69.41" xlink:href="#linear-gradient-18"/><linearGradient id="linear-gradient-23" x1="59.78" y1="50.71" x2="59.73" y2="69.22" gradientUnits="userSpaceOnUse"><stop offset="0" stop-color="#f1c99a"/><stop offset="0.13" stop-color="#f3cea0"/><stop offset="0.47" stop-color="#f6d6a8"/><stop offset="1" stop-color="#f7d9ab"/></linearGradient><radialGradient id="radial-gradient" cx="22.45" cy="106.9" r="21.54" gradientTransform="translate(46.57 25.02) scale(0.41 0.41)" gradientUnits="userSpaceOnUse"><stop offset="0" stop-color="#f9b58e"/><stop offset="0.56" stop-color="#f8c89d"/><stop offset="1" stop-color="#f7d9ab"/></radialGradient><linearGradient id="linear-gradient-24" x1="81.91" y1="69.53" x2="88.43" y2="52.44" gradientUnits="userSpaceOnUse"><stop offset="0" stop-color="#f7d9ab"/><stop offset="0.53" stop-color="#f6d6a8"/><stop offset="0.87" stop-color="#f3cea0"/><stop offset="1" stop-color="#f1c99a"/></linearGradient><radialGradient id="radial-gradient-2" cx="104.28" cy="107.41" r="20.08" xlink:href="#radial-gradient"/><linearGradient id="linear-gradient-25" x1="72.24" y1="74.31" x2="72.21" y2="70.6" xlink:href="#linear-gradient-24"/><linearGradient id="linear-gradient-26" x1="73.34" y1="70.69" x2="70.25" y2="62.7" gradientUnits="userSpaceOnUse"><stop offset="0" stop-color="#ffdeb3"/><stop offset="1" stop-color="#f7d9ab"/></linearGradient><linearGradient id="linear-gradient-27" x1="76.97" y1="70.07" x2="73.94" y2="71.57" xlink:href="#linear-gradient-18"/><linearGradient id="linear-gradient-28" x1="67.59" y1="70.12" x2="70.84" y2="71.44" xlink:href="#linear-gradient-18"/><linearGradient id="linear-gradient-29" x1="64.9" y1="77.66" x2="61.92" y2="75.19" xlink:href="#linear-gradient-24"/><linearGradient id="linear-gradient-30" x1="83.75" y1="75.83" x2="81.61" y2="74.75" xlink:href="#linear-gradient-24"/><linearGradient id="linear-gradient-31" x1="65.82" y1="78.04" x2="79.04" y2="78.04" gradientUnits="userSpaceOnUse"><stop offset="0" stop-color="#e8d9d7"/><stop offset="0.14" stop-color="#f0e6e4"/><stop offset="0.39" stop-color="#fbf8f8"/><stop offset="0.57" stop-color="#fff"/><stop offset="1" stop-color="#e8d3d1"/></linearGradient><linearGradient id="linear-gradient-32" x1="61.56" y1="76.53" x2="82.37" y2="76.53" gradientUnits="userSpaceOnUse"><stop offset="0" stop-color="#e8d9d7"/><stop offset="0.04" stop-color="#ebdfdd"/><stop offset="0.21" stop-color="#f6f1f0"/><stop offset="0.38" stop-color="#fdfbfb"/><stop offset="0.57" stop-color="#fff"/><stop offset="0.69" stop-color="#fbf8f8"/><stop offset="0.87" stop-color="#f1e5e3"/><stop offset="1" stop-color="#e8d3d1"/></linearGradient><linearGradient id="linear-gradient-33" x1="65.36" y1="78.87" x2="80.57" y2="78.87" gradientUnits="userSpaceOnUse"><stop offset="0" stop-color="#f26e7f"/><stop offset="0.02" stop-color="#f26f80"/><stop offset="0.24" stop-color="#f37986"/><stop offset="0.53" stop-color="#f37c88"/><stop offset="0.77" stop-color="#f37885"/><stop offset="1" stop-color="#f26d7d"/></linearGradient><linearGradient id="linear-gradient-34" x1="64.5" y1="76.16" x2="80.61" y2="76.2" gradientUnits="userSpaceOnUse"><stop offset="0" stop-color="#e8d9d7"/><stop offset="0.05" stop-color="#eadddb"/><stop offset="0.31" stop-color="#f6efef"/><stop offset="0.48" stop-color="#faf6f6"/><stop offset="1" stop-color="#e8d3d1"/></linearGradient><linearGradient id="linear-gradient-35" x1="66.76" y1="75.64" x2="78.29" y2="75.64" xlink:href="#linear-gradient-33"/><linearGradient id="linear-gradient-36" x1="91.53" y1="59.02" x2="79.48" y2="59.11" xlink:href="#linear-gradient-18"/><linearGradient id="linear-gradient-37" x1="78.11" y1="60.08" x2="90.73" y2="60.08" gradientUnits="userSpaceOnUse"><stop offset="0" stop-color="#fff"/><stop offset="0.46" stop-color="#fdfcfc"/><stop offset="0.76" stop-color="#f6f4f4"/><stop offset="1" stop-color="#ece7e6"/></linearGradient><linearGradient id="linear-gradient-38" x1="87.04" y1="62.97" x2="82.11" y2="58.21" gradientUnits="userSpaceOnUse"><stop offset="0" stop-color="#b89c8c"/><stop offset="1" stop-color="#725342"/></linearGradient><linearGradient id="linear-gradient-39" x1="82.81" y1="58.21" x2="93.75" y2="61.54" gradientUnits="userSpaceOnUse"><stop offset="0" stop-color="#725342"/><stop offset="1" stop-color="#b89c8c"/></linearGradient><radialGradient id="radial-gradient-3" cx="90.01" cy="86.25" r="7.03" gradientTransform="translate(46.57 25.02) scale(0.41 0.41)" gradientUnits="userSpaceOnUse"><stop offset="0" stop-color="#2b3b3b"/><stop offset="1" stop-color="#1d2827"/></radialGradient><linearGradient id="linear-gradient-40" x1="78.11" y1="58.35" x2="92.89" y2="58.35" gradientUnits="userSpaceOnUse"><stop offset="0" stop-color="#391b13"/><stop offset="0.34" stop-color="#3d1d15"/><stop offset="0.69" stop-color="#4a2319"/><stop offset="1" stop-color="#5b2b20"/></linearGradient><linearGradient id="linear-gradient-41" x1="85.24" y1="55.15" x2="73.75" y2="61.03" xlink:href="#linear-gradient-18"/><linearGradient id="linear-gradient-42" x1="75.43" y1="59.14" x2="87.88" y2="59.14" gradientUnits="userSpaceOnUse"><stop offset="0" stop-color="#5b2b20"/><stop offset="0.31" stop-color="#4a2319"/><stop offset="0.66" stop-color="#3d1d15"/><stop offset="1" stop-color="#391b13"/></linearGradient><linearGradient id="linear-gradient-43" x1="84.67" y1="61.64" x2="92.67" y2="61.64" xlink:href="#linear-gradient-42"/><linearGradient id="linear-gradient-44" x1="65.9" y1="59.03" x2="53.87" y2="59.11" gradientUnits="userSpaceOnUse"><stop offset="0" stop-color="#f1c99a"/><stop offset="0.51" stop-color="#e4b687"/><stop offset="1" stop-color="#dba879"/></linearGradient><linearGradient id="linear-gradient-45" x1="53.47" y1="60.08" x2="66.09" y2="60.08" xlink:href="#linear-gradient-37"/><linearGradient id="linear-gradient-46" x1="57.89" y1="57.22" x2="62.4" y2="63.51" xlink:href="#linear-gradient-39"/><linearGradient id="linear-gradient-47" x1="59.36" y1="58.39" x2="65.63" y2="65.7" xlink:href="#linear-gradient-39"/><radialGradient id="radial-gradient-4" cx="31.67" cy="86.24" r="7.03" xlink:href="#radial-gradient-3"/><linearGradient id="linear-gradient-48" x1="51.03" y1="58.33" x2="66.09" y2="58.33" xlink:href="#linear-gradient-42"/><linearGradient id="linear-gradient-49" x1="61.83" y1="56.21" x2="53.59" y2="60.43" xlink:href="#linear-gradient-18"/><linearGradient id="linear-gradient-50" x1="50.96" y1="59.12" x2="63.41" y2="59.12" xlink:href="#linear-gradient-42"/><linearGradient id="linear-gradient-51" x1="51.57" y1="61.65" x2="59.57" y2="61.65" xlink:href="#linear-gradient-40"/><linearGradient id="linear-gradient-52" x1="50.08" y1="65.42" x2="54.85" y2="65.42" xlink:href="#linear-gradient-26"/><linearGradient id="linear-gradient-53" x1="90.18" y1="65.11" x2="94.93" y2="65.11" xlink:href="#linear-gradient-26"/><linearGradient id="linear-gradient-54" x1="68.5" y1="86.42" x2="75.45" y2="86.42" gradientUnits="userSpaceOnUse"><stop offset="0" stop-color="#ffdeb3"/><stop offset="0.68" stop-color="#fcdcb0"/><stop offset="1" stop-color="#f7d9ab"/></linearGradient><linearGradient id="linear-gradient-55" x1="47.18" y1="56.62" x2="48.88" y2="56.62" xlink:href="#linear-gradient"/><linearGradient id="linear-gradient-56" x1="95.64" y1="62.83" x2="99.9" y2="42.99" xlink:href="#linear-gradient"/><linearGradient id="linear-gradient-57" x1="49.96" y1="51.46" x2="65.74" y2="51.46" gradientUnits="userSpaceOnUse"><stop offset="0" stop-color="#683126"/><stop offset="0.34" stop-color="#53281e"/><stop offset="0.68" stop-color="#46221a"/><stop offset="1" stop-color="#422018"/></linearGradient><linearGradient id="linear-gradient-58" x1="79.15" y1="51.35" x2="94.7" y2="51.35" gradientUnits="userSpaceOnUse"><stop offset="0" stop-color="#422018"/><stop offset="0.32" stop-color="#46221a"/><stop offset="0.66" stop-color="#53281e"/><stop offset="1" stop-color="#683126"/></linearGradient><linearGradient id="linear-gradient-59" x1="81.43" y1="73.72" x2="97.39" y2="73.72" xlink:href="#linear-gradient-54"/><linearGradient id="linear-gradient-60" x1="102.63" y1="126.31" x2="72.92" y2="19.03" xlink:href="#linear-gradient-2"/><linearGradient id="linear-gradient-61" x1="68.5" y1="40.63" x2="83.56" y2="31.12" gradientUnits="userSpaceOnUse"><stop offset="0" stop-color="#622f21"/><stop offset="0.37" stop-color="#673224"/><stop offset="0.78" stop-color="#743b2d"/><stop offset="1" stop-color="#7e4234"/></linearGradient><linearGradient id="linear-gradient-62" x1="58.51" y1="38.82" x2="63.36" y2="35.76" xlink:href="#linear-gradient-61"/><linearGradient id="linear-gradient-63" x1="50.36" y1="58.03" x2="41.58" y2="38.99" xlink:href="#linear-gradient-61"/><linearGradient id="linear-gradient-64" x1="38.44" y1="64.06" x2="38.27" y2="63.69" xlink:href="#linear-gradient-61"/><linearGradient id="linear-gradient-65" x1="117.26" y1="66.74" x2="38.42" y2="1.43" xlink:href="#linear-gradient-61"/><linearGradient id="linear-gradient-66" x1="60.76" y1="33.3" x2="54.89" y2="43.17" gradientUnits="userSpaceOnUse"><stop offset="0" stop-color="#622f21"/><stop offset="0.3" stop-color="#52271c"/><stop offset="0.67" stop-color="#442017"/><stop offset="1" stop-color="#3f1e16"/></linearGradient><linearGradient id="linear-gradient-67" x1="46.8" y1="134.17" x2="45.35" y2="20.99" xlink:href="#linear-gradient-2"/><linearGradient id="linear-gradient-68" x1="72.6" y1="100.95" x2="72.7" y2="79.96" xlink:href="#linear-gradient-18"/><linearGradient id="linear-gradient-69" x1="70.94" y1="42.94" x2="71.81" y2="13.6" xlink:href="#linear-gradient-61"/><linearGradient id="linear-gradient-70" x1="47.3" y1="9.59" x2="51.24" y2="124.92" xlink:href="#linear-gradient-3"/><linearGradient id="linear-gradient-71" x1="90.65" y1="3.73" x2="94.73" y2="123.34" xlink:href="#linear-gradient-3"/><linearGradient id="linear-gradient-72" x1="98.79" y1="139.79" x2="115.84" y2="-79.21" xlink:href="#linear-gradient-2"/><linearGradient id="linear-gradient-73" x1="38.87" y1="137.84" x2="54.2" y2="-59.16" xlink:href="#linear-gradient-2"/><linearGradient id="linear-gradient-74" x1="96.13" y1="182.05" x2="100.38" y2="69.57" xlink:href="#linear-gradient-2"/><linearGradient id="linear-gradient-75" x1="41.22" y1="179.98" x2="45.47" y2="67.5" xlink:href="#linear-gradient-2"/><linearGradient id="linear-gradient-76" x1="71.79" y1="67.44" x2="72.07" y2="55.47" gradientUnits="userSpaceOnUse"><stop offset="0" stop-color="#a62324"/><stop offset="0.25" stop-color="#a12122"/><stop offset="0.53" stop-color="#931c1d"/><stop offset="0.83" stop-color="#7c1314"/><stop offset="1" stop-color="#6c0d0e"/></linearGradient></defs><circle class="cls-1" cx="72" cy="72" r="72" transform="translate(-29.82 72) rotate(-45)"/><path class="cls-2" d="M68.4,20.57c1.25,3.11-26.67,34.78-27.29,43.48-1.7,13.6-2.36,37.91,8.81,46,.64.2,28.94,1.76,43.21,1C116.94,65.11,67.54,15.84,68.4,20.57Z" transform="translate(0 0)"/><path class="cls-3" d="M40.15,39.74c-2.66,6.76-13,54.2,2.05,68.78C40.48,96,39.41,77.65,41.11,64.05c.62-8.7,8.7-13.67,14.3-19.89,1.86-2.49.62-5-.62-8.08-.86-4.74,1.26-9.18,2.23-13.73C48.47,22.43,44,29.89,40.15,39.74Z" transform="translate(0 0)"/><path class="cls-4" d="M91,42.84C86,48,86,55.36,87,66.14c3.05,32.17-4.44,39.59-4.44,39.59,17.28-2.32,27.74-14.34,25-30.09C104.37,57.83,91,42.84,91,42.84Z" transform="translate(0 0)"/><path class="cls-5" d="M53.66,33.49S46,52.75,40.39,62.07c-14.87,24.84,3.92,53.35,21.77,50A250.4,250.4,0,0,1,57.4,66.47C57.38,54.63,58.82,50.76,53.66,33.49Z" transform="translate(0 0)"/><path class="cls-6" d="M27.18,107.35s-4.11,4.91-5.2,16.43a72,72,0,0,0,13.61,10.34C34.77,124.72,32.84,112.2,27.18,107.35Z" transform="translate(0 0)"/><path class="cls-7" d="M27,128.23a71.86,71.86,0,0,0,9.53,6.46l-.23-3.75Z" transform="translate(0 0)"/><path class="cls-6" d="M123.32,122.49c-1.55-11.73-6-16.56-6-16.56-5.7,5.34-6.93,18.15-7.26,27.18A72.52,72.52,0,0,0,123.32,122.49Z" transform="translate(0 0)"/><path class="cls-6" d="M83.47,96.46c-2.16-1.62-2.16-19.95-2.16-19.95L63,79.74s3.29,15-2.12,17c-3.86,1.41-28.74,5.05-32.55,8.93-6.07,6.18-3.63,19.6-3.63,19.6s77.43,7.14,94,1.55c1-.9,2.08-1.82,3.08-2.78-1.07-10.22,0-13.42-4.31-18.31C115.72,103.77,86.2,98.51,83.47,96.46Z" transform="translate(0 0)"/><path class="cls-8" d="M70,106.85c1.16-.87,5.56-1.37,5.56-1.37C71.24,104.61,70,106.85,70,106.85Z" transform="translate(0 0)"/><path class="cls-9" d="M82.76,83.08s-21.27,1.17-21.6.79c0,1.5.2,10.13.05,11.27-.17,1.3-.27,1.46-14.86,4.59,0,0,5.27,1.71,15,1.8,1.68,0,3-2.74,3.24-5.24a24.67,24.67,0,0,0,14.59-3.68c.52,3.77,1.08,8.4,2.29,9.18s12.06-.39,12.06-.39L95,99.63c-3.29-.47-9.1-2.36-10.56-3.74S82.76,83.08,82.76,83.08Z" transform="translate(0 0)"/><path class="cls-10" d="M66.8,101.56c-1.5-.37-18.17-.93-20.12-1.31,0,0,7.41,1.62,11.7,2.12s7.65-.25,11,2.36C69.39,104.73,68.31,101.93,66.8,101.56Z" transform="translate(0 0)"/><path class="cls-11" d="M77.39,101.71a5.94,5.94,0,0,0-2.9,2.77c3.59-2.22,21.32-3,21.32-3C93.26,101.27,79.24,101.09,77.39,101.71Z" transform="translate(0 0)"/><path class="cls-12" d="M109.24,129.9l-.07,3.77a71,71,0,0,0,9.72-7Z" transform="translate(0 0)"/><path class="cls-13" d="M72.25,111.12c-16.86,1-18-13.13-18-13.13L47,99.51s2.9,20.91,23.29,19.91,25-19.71,25-19.71L90,98.58S89.29,110.13,72.25,111.12Z" transform="translate(0 0)"/><path class="cls-14" d="M110.84,132.64c.08-1.24.13-2,.13-2l4.72-1.44a72,72,0,0,0,8.34-7.46c-.91-4.33-2.54-10.73-4.88-14.88-2.14-3.78-25.26-7.37-25.26-7.37s-3.55,14.55-22.7,14.55S49.58,99,49.58,99s-21.39,3.8-23.77,8.66c-2,4.16-3.63,10.75-4.58,15.42a72.48,72.48,0,0,0,9,7.59l4.13.87s.14.73.33,2.08a72.09,72.09,0,0,0,76.16-1Z" transform="translate(0 0)"/><path class="cls-15" d="M124,121.76c-1.11-5.49-3.13-14-5.18-15.5-4.45-3.29-19.71-6.07-19.71-6.07,6.13,2.11,16.13,5.7,18.07,10,.6,1.34,3,9.63,4.28,14.09C122.37,123.46,123.21,122.62,124,121.76Z" transform="translate(0 0)"/><path class="cls-16" d="M45.08,99.89s-14.19,2.67-18.49,6.64c-2.25,2.07-4.33,11.29-5.36,16.52q1.51,1.52,3.14,2.94c.93-3.72,3.39-13.4,4.13-14.86C30.65,106.92,39,102,45.08,99.89Z" transform="translate(0 0)"/><path class="cls-17" d="M111.59,128.27l-.62,2.4,4.7-1.43q2.39-1.82,4.61-3.83Z" transform="translate(0 0)"/><path class="cls-18" d="M33.74,129.48l-7.51-1.9c1.41,1.17,2.88,2.28,4.39,3.34l3.9.91Z" transform="translate(0 0)"/><path class="cls-19" d="M72.66,112.93c-19,1.43-20.53-14.49-20.53-14.49L49.58,99s1.68,17.55,23.08,16.08c19.4-1.33,21.23-15.53,21.23-15.53L92.06,99S90.35,111.6,72.66,112.93Z" transform="translate(0 0)"/><path class="cls-20" d="M84.82,118.06c-17.23,1.73-20.08,2.14-33.35,4.09-23.09,3.38-5.3,17.07,4.46,18,18.2,1.81,36.54.14,46.68-10C111.23,121.57,102.06,116.34,84.82,118.06Z" transform="translate(0 0)"/><path class="cls-21" d="M60.69,81.65c.68,2.5.58,11.06.58,11.06C73.94,96.74,83,88,83,88l-.18-4Z" transform="translate(0 0)"/><path class="cls-22" d="M112,130s-1.66-9.88-2-12.45c-.44-3.88-1.16,3.08-.88,8.61a68.4,68.4,0,0,1,0,7.54c.63-.38,1.25-.77,1.87-1.16,0-1.19,0-1.87,0-1.87Z" transform="translate(0 0)"/><path class="cls-23" d="M34.12,116.55l-1.3,13.36,1.19.38s0,1,.19,3q1.23.75,2.49,1.47c-.17-2.08-.28-4-.55-6.47C35.79,124.92,35.4,115.91,34.12,116.55Z" transform="translate(0 0)"/><path class="cls-24" d="M46.21,59.43c-4.3,0-.89,12.2,3.37,13.47,0,0-.52-5-1.74-11.57C47.84,61.33,47,59.43,46.21,59.43Z" transform="translate(0 0)"/><path class="cls-25" d="M46.91,65.8c1.09-5.78-2.73-6.62-2-2.51,0,0,.61-1.83,1.08-1.21s-.69,1-.19,4.11a9.13,9.13,0,0,0,1.78,3.45A4.94,4.94,0,0,1,46.91,65.8Z" transform="translate(0 0)"/><path class="cls-24" d="M98.62,59.35c-.75,0-1.58,1.94-1.58,1.94-1,6.59-1.42,11.61-1.42,11.61C99.84,71.51,102.93,59.25,98.62,59.35Z" transform="translate(0 0)"/><path class="cls-26" d="M97.85,65.76a4.76,4.76,0,0,1-1,3.88A8.67,8.67,0,0,0,99,66.33c.76-3.13-.56-3.57.1-4.27s1.06,1.41,1.06,1.41C101.25,59.32,97.1,59.63,97.85,65.76Z" transform="translate(0 0)"/><path class="cls-6" d="M68.2,26.41c-9.58.43-18.93,17.09-20.05,31.27-1.6,20.38,6,19.68,11.91,25.66,1.8,1.81,6.13,8.41,13,8.08,4.75-.23,9.58-5.48,12.73-8.18,9.82-8.4,12.74-16.86,10.42-29.1C93.29,38.61,82.79,23.8,68.2,26.41Z" transform="translate(0 0)"/><path class="cls-27" d="M58.92,50a10.92,10.92,0,0,0-7.75,2.87c-4.34,3.64-2,9.27-2,9.27A18.59,18.59,0,0,0,70.94,66C69.8,59.54,69.73,50.8,58.92,50Z" transform="translate(0 0)"/><path class="cls-28" d="M57.49,60.26c-3.84-.74-9.84,2.41-9.33,6.56.91,7.54,4.45,13.6,9.19,11.66a12.26,12.26,0,0,0,7.05-9.14C65.18,65.22,61.34,61,57.49,60.26Z" transform="translate(0 0)"/><path class="cls-29" d="M93.68,52.5a10.4,10.4,0,0,0-7.82-2.06c-10.78,1.15-10.48,9.33-11.4,15.83,13.32,5.59,20.9-4.55,20.9-4.55S98.21,56.28,93.68,52.5Z" transform="translate(0 0)"/><path class="cls-30" d="M87.2,61.24c-3.49.93-7.15,4.46-6.22,8s3.57,9.74,7.14,9.16c4.61-.74,8-3.31,8.11-11.88C96.26,62.85,90.69,60.31,87.2,61.24Z" transform="translate(0 0)"/><path class="cls-31" d="M72.31,73.2c.86-.1,4.45-2.37,4.45-2.37l-9.1-.13S71.46,73.3,72.31,73.2Z" transform="translate(0 0)"/><path class="cls-32" d="M72.27,67c-2.41,0-3.1.64-2.93,1.28.41,1.57,1.43,1.88,2.93,1.9s2.83-.32,3.1-2C75.45,67.64,74.69,66.93,72.27,67Z" transform="translate(0 0)"/><path class="cls-33" d="M73.84,71.19s4.43.13,3-1.35C76.38,69.34,73.84,71.19,73.84,71.19Z" transform="translate(0 0)"/><path class="cls-34" d="M67.69,69.91c-1.5,1.24,3.17,1.24,3.17,1.24S68.22,69.47,67.69,69.91Z" transform="translate(0 0)"/><path class="cls-24" d="M72.26,70.58c-4.49-.12-5-2.32-5.6-.92-.26.57.22.75,1,1,0,0-.25-.65.76-.57.73.05,1.29,1.61,3.88,1.57,2.78,0,3.17-1.43,3.88-1.45a.51.51,0,0,1,.58.58s1.32-.67.83-1.28C76.7,68.43,76.4,70.7,72.26,70.58Z" transform="translate(0 0)"/><path class="cls-35" d="M60.51,74c-.25.46.09.93.69,1.13a11.29,11.29,0,0,1,3,1.61C63.25,75.34,60.73,73.58,60.51,74Z" transform="translate(0 0)"/><path class="cls-36" d="M80.63,76.66a10.79,10.79,0,0,1,2.88-1.85c.58-.25.88-.75.59-1.19S81.48,75.2,80.63,76.66Z" transform="translate(0 0)"/><path class="cls-24" d="M66.58,79.79c1.14,2.41,7.37,5.74,11.92-.13C78.5,79.66,72,82.61,66.58,79.79Z" transform="translate(0 0)"/><path class="cls-37" d="M61.15,74.45h0l.1.15a11.51,11.51,0,0,1,2.66,1.3c.74.53,1.49,4.12,8.76,4a10.53,10.53,0,0,0,8.7-4.18,6.17,6.17,0,0,1,2-1.46,1.66,1.66,0,0,1,.06-.16A35,35,0,0,1,71.8,75.63,47.53,47.53,0,0,1,61.15,74.45Z" transform="translate(0 0)"/><path class="cls-38" d="M78.35,76.23a37.29,37.29,0,0,1-11.64.51c-1.17-.51-1,1-1,1,2.57,2.61,4.62,2.1,6.68,2.14a11,11,0,0,0,6.85-2.41C79.36,77,78.92,76.1,78.35,76.23Z" transform="translate(0 0)"/><path class="cls-39" d="M68.38,75.77a19,19,0,0,1-3.73-.62,3.76,3.76,0,0,1,.5.81c.25.57,1.5,2.49,7.35,2.39,4.41-.08,6.72-1.67,7-2.62.18-.57.59-.83.62-1a14.89,14.89,0,0,1-4.45,1A38.26,38.26,0,0,1,68.38,75.77Z" transform="translate(0 0)"/><path class="cls-40" d="M73.06,79.64c-8.94,0-5.85-3.63-11.81-5a10.94,10.94,0,0,1,3,2.52c1.74,2,3.25,5.12,8.26,5.05,4.52-.07,7-3.38,8.43-5.2a14.86,14.86,0,0,1,2.5-2.71C78.54,75.63,80.17,79.37,73.06,79.64Z" transform="translate(0 0)"/><path class="cls-41" d="M76.87,78.7a17.27,17.27,0,0,1-4.56.87,12.09,12.09,0,0,1-4.55-.73,13.64,13.64,0,0,1-2.87-2.37c.33.43,2.29,5.16,7.33,5,5.82-.16,6.85-4.08,7.88-5.25A8.83,8.83,0,0,1,76.87,78.7Z" transform="translate(0 0)"/><path class="cls-42" d="M74.75,79.78c-.58.2-2.61.36-2.53.56a3.29,3.29,0,0,0,2.82.17c1.18-.34,1.74-1,1.66-1.22S75.34,79.57,74.75,79.78Z" transform="translate(0 0)"/><path class="cls-37" d="M61.35,75a9,9,0,0,1,2,.39,20.29,20.29,0,0,0-2.56-1.16C60.72,74.23,60.82,74.72,61.35,75Z" transform="translate(0 0)"/><path class="cls-37" d="M81.43,75.1a6.82,6.82,0,0,1,2-.47c.51-.26.59-.72.49-.79A12.61,12.61,0,0,0,81.43,75.1Z" transform="translate(0 0)"/><path class="cls-43" d="M65.16,76s2.55,1.35,7.75,1.3A16.22,16.22,0,0,0,79.5,75.8l.3-.7-15,.19Z" transform="translate(0 0)"/><path class="cls-40" d="M61.63,74.48s1.06.65,6.31,1.63a20.5,20.5,0,0,0,4.55.53,26.91,26.91,0,0,0,5-.67A24.74,24.74,0,0,0,83,74.2a93.65,93.65,0,0,1-10.4.76C71.14,75,64.48,75.06,61.63,74.48Z" transform="translate(0 0)"/><path class="cls-44" d="M74.72,75.23c-.44,0-4.45,0-4.88,0a16.57,16.57,0,0,0-3.08.08c-.14.54,5.82.89,6.36.84s5.14-.64,5.17-.86S75.34,75.22,74.72,75.23Z" transform="translate(0 0)"/><path class="cls-45" d="M90.31,56c-1.63-1.17-6.12-2.94-9.52-.24a9.53,9.53,0,0,0-3,5.31,11.57,11.57,0,0,0,6,2.66,10.1,10.1,0,0,0,5.77-1.25c2.66-1.59,2.48-3.68,2.48-3.68A3.52,3.52,0,0,0,90.31,56Z" transform="translate(0 0)"/><path class="cls-46" d="M85.26,57.1A7.3,7.3,0,0,0,78.11,61a10.84,10.84,0,0,0,9.15,1.76,8.59,8.59,0,0,0,3.47-2.26A7,7,0,0,0,85.26,57.1Z" transform="translate(0 0)"/><path class="cls-47" d="M83.91,57c-1.73-.08-4.84,2.25-5.8,4,0,0,3.17-2.48,6.5-2.22A8.56,8.56,0,0,1,90.28,61l.45-.51S89.33,57.26,83.91,57Z" transform="translate(0 0)"/><path class="cls-48" d="M84,56.56a3.8,3.8,0,0,0-3.77,3.83,2.77,2.77,0,0,0,1.19,2.29,9.15,9.15,0,0,0,5.1.33A3,3,0,0,0,88,60.15,3.8,3.8,0,0,0,84,56.56Z" transform="translate(0 0)"/><path class="cls-49" d="M86.37,57H81.94a4.14,4.14,0,0,0-1.65,2.72,7.77,7.77,0,0,1,7.66-.2A3.83,3.83,0,0,0,86.37,57Z" transform="translate(0 0)"/><path class="cls-50" d="M84.25,57.67a2.47,2.47,0,0,0-2.79,2,2.37,2.37,0,0,0,2.28,2.5,2.5,2.5,0,0,0,2.8-2A2.37,2.37,0,0,0,84.25,57.67Z" transform="translate(0 0)"/><path class="cls-51" d="M85.07,55.68c-4.11,0-6.71,2.51-7,5.34,0,0,1.51-3.46,6.65-3.41,4,0,5.82,3,6.26,3,1.77-.26,1.88-2.5,1.87-2.72C91,58.68,88.44,55.71,85.07,55.68Z" transform="translate(0 0)"/><path class="cls-52" d="M81.34,55.23a7.23,7.23,0,0,0-2.76,3.41A10.43,10.43,0,0,1,82.1,55.3c2.66-1.53,6.79-.08,6.79-.08A7.89,7.89,0,0,0,81.34,55.23Z" transform="translate(0 0)"/><path class="cls-53" d="M84.58,57.27c-2.64-.06-5.1.65-6.47,3.75a7,7,0,0,1,6.28-3.3,9.36,9.36,0,0,1,6.17,2.62A7,7,0,0,0,84.58,57.27Z" transform="translate(0 0)"/><path class="cls-54" d="M84,59.18a.58.58,0,0,0-.79.31.61.61,0,0,0,.29.82.59.59,0,0,0,.79-.31A.62.62,0,0,0,84,59.18Z" transform="translate(0 0)"/><path class="cls-54" d="M86.15,59.63a.83.83,0,0,0-1.1.4.81.81,0,0,0,.41,1.08.84.84,0,0,0,1.1-.39A.82.82,0,0,0,86.15,59.63Z" transform="translate(0 0)"/><path class="cls-55" d="M91,60.57c.24-.24-.69-.4-.57-.53a8.1,8.1,0,0,1-5.78,3.2,7.82,7.82,0,0,0,4.89-1.46h0c1.77.25,3.11-1.57,3.11-1.57C91.49,61.07,91,60.57,91,60.57Z" transform="translate(0 0)"/><path class="cls-56" d="M63.38,55.75c-3.42-2.69-7.89-.89-9.52.29a3.51,3.51,0,0,0-1.73,2.81s-.17,2.09,2.5,3.67a10.13,10.13,0,0,0,5.78,1.21,11.59,11.59,0,0,0,6-2.7A9.55,9.55,0,0,0,63.38,55.75Z" transform="translate(0 0)"/><path class="cls-57" d="M58.92,57.1a7,7,0,0,0-5.45,3.45A8.58,8.58,0,0,0,57,62.79,10.84,10.84,0,0,0,66.09,61,7.32,7.32,0,0,0,58.92,57.1Z" transform="translate(0 0)"/><path class="cls-47" d="M60.26,57c-5.41.28-6.79,3.55-6.79,3.55l.45.52a8.55,8.55,0,0,1,5.65-2.27c3.34-.28,6.52,2.18,6.52,2.18C65.12,59.22,62,56.91,60.26,57Z" transform="translate(0 0)"/><path class="cls-58" d="M60.15,56.56a3.79,3.79,0,0,0-4,3.61A3,3,0,0,0,57.68,63a9,9,0,0,0,5-.34A2.71,2.71,0,0,0,64,60.36,3.8,3.8,0,0,0,60.15,56.56Z" transform="translate(0 0)"/><path class="cls-59" d="M61.73,57.22,57.81,57a4.17,4.17,0,0,0-1.57,2.53,7.78,7.78,0,0,1,7.67.15A2.84,2.84,0,0,0,61.73,57.22Z" transform="translate(0 0)"/><path class="cls-60" d="M59.94,57.67a2.35,2.35,0,0,0-2.28,2.5,2.48,2.48,0,0,0,2.8,2,2.38,2.38,0,0,0,2.28-2.51A2.48,2.48,0,0,0,59.94,57.67Z" transform="translate(0 0)"/><path class="cls-61" d="M59.1,55.68c-3.37,0-6,3.22-8.07,2,0,.23.38,2.65,2.15,2.9.44.06,2.2-2.94,6.2-3,5.14-.08,6.71,3.38,6.71,3.38C65.82,58.16,63.21,55.61,59.1,55.68Z" transform="translate(0 0)"/><path class="cls-62" d="M62.83,55.21a7.88,7.88,0,0,0-7.55,0s4.12-1.47,6.79,0a10.56,10.56,0,0,1,3.54,3.32A7.27,7.27,0,0,0,62.83,55.21Z" transform="translate(0 0)"/><path class="cls-63" d="M59.6,57.27a7,7,0,0,0-6,3.1,9.34,9.34,0,0,1,6.15-2.65A7,7,0,0,1,66.09,61C64.7,57.89,62.24,57.2,59.6,57.27Z" transform="translate(0 0)"/><path class="cls-54" d="M60.47,59.17a.61.61,0,0,0-.83.28.64.64,0,0,0,.26.85.62.62,0,0,0,.83-.28A.64.64,0,0,0,60.47,59.17Z" transform="translate(0 0)"/><path class="cls-54" d="M62.67,59.71a.85.85,0,0,0-1.14.36.84.84,0,0,0,.37,1.12A.85.85,0,0,0,63,60.83.83.83,0,0,0,62.67,59.71Z" transform="translate(0 0)"/><path class="cls-64" d="M53.75,60.07c.12.13-.81.3-.57.54l0,0c-.11.08-.6.37-1.64-.38,0,0,1.34,1.79,3.09,1.56a7.87,7.87,0,0,0,4.91,1.42A8.15,8.15,0,0,1,53.75,60.07Z" transform="translate(0 0)"/><path class="cls-65" d="M53.05,64.12c-1.31-.31-2.5,0-2.67.73s.75,1.55,2,1.85,2.51,0,2.68-.72S54.36,64.44,53.05,64.12Z" transform="translate(0 0)"/><path class="cls-66" d="M92.1,63.82c-1.3.27-2.24,1.06-2.09,1.77s1.32,1.07,2.62.81,2.24-1.06,2.09-1.78S93.41,63.56,92.1,63.82Z" transform="translate(0 0)"/><path class="cls-67" d="M72.33,85c-1.46-.08-2.68.5-2.72,1.3s1.11,1.5,2.56,1.58,2.68-.51,2.72-1.3S73.78,85.06,72.33,85Z" transform="translate(0 0)"/><path class="cls-24" d="M64.39,30.47C55.56,30.7,49,46.32,48,57.06a54.27,54.27,0,0,0,.45,13.08C50,51.92,54.56,43.35,54.56,43.35c2.89,5.23,13.64,7.45,21.14,8.38s18.36,2.15,18.36,2.15c.65,1,3,11.23,3,11.23-1.24-8.24.2-13.46-4.14-26S64.39,30.47,64.39,30.47Z" transform="translate(0 0)"/><path class="cls-68" d="M47.47,60.61,48,64.67c.62-2.74.89-16.1.89-16.1C46.25,52.66,47.47,60.61,47.47,60.61Z" transform="translate(0 0)"/><path class="cls-69" d="M97,64.67,97.19,59,96,52.81S96.19,61.42,97,64.67Z" transform="translate(0 0)"/><path class="cls-70" d="M63.25,50.29a13.66,13.66,0,0,0-7.84-.46C53.2,50.37,50,53.45,50,53.45a14.45,14.45,0,0,1,5.62-2.07c5.71-.44,7.62.77,9.31,1.08S65.57,51.29,63.25,50.29Z" transform="translate(0 0)"/><path class="cls-6" d="M94,52.83a12.46,12.46,0,0,0-7.93-2.17c10,.78,7.69,9.47,7.69,9.47S96.57,54.43,94,52.83Z" transform="translate(0 0)"/><path class="cls-71" d="M81.79,50.18c-2,.54-3.62,2.58-1.94,2.28a30.66,30.66,0,0,1,9.21-1,12.46,12.46,0,0,1,5.64,1.7s-3.29-2.7-5.48-3.23A15.58,15.58,0,0,0,81.79,50.18Z" transform="translate(0 0)"/><path class="cls-24" d="M56.35,79.92C47.3,73,49.84,62.07,49.84,62.07c-4.52,11,3.46,17.25,5.18,18.32a72,72,0,0,1,8.63,6.88C61.58,85,61.83,84.1,56.35,79.92Z" transform="translate(0 0)"/><path class="cls-72" d="M93.89,60.3c4.46,6.18-.46,14.84-4.71,18.65a79.66,79.66,0,0,0-7.75,8.18c.68-.59,6.86-6,8.89-7.6C93.13,77.38,102.37,66.82,93.89,60.3Z" transform="translate(0 0)"/><path class="cls-73" d="M95.25,29.55c-12.12-12.45-30-14.45-40.39-5.77-.61.51-9.57,23.22,21,25.61,0,0-10.67-3.54-11.12-10.86,0,0,5,12.77,29.07,13.23a15.36,15.36,0,0,1-3.5-6.67s8.48,9.44,5.56,30.56c-2.61,18.87-2.55,54-9.69,56.51,5.15.21,22.9-8.07,21.81-60.58C107.38,44,98.8,33.19,95.25,29.55Z" transform="translate(0 0)"/><path class="cls-74" d="M59.31,25.49S70.14,48.87,88.16,49.16C88.16,49.16,93.09,29.05,59.31,25.49Z" transform="translate(0 0)"/><path class="cls-75" d="M58.17,28.5S54,40.44,65.65,44.86C65.65,44.86,57.6,34.8,58.17,28.5Z" transform="translate(0 0)"/><path class="cls-76" d="M43,42c-7.49,16.22-4.52,18.92-4.59,21.61.37-2.5,2.32-12.85,6.62-20.09,4.61-8.3,6.61-14.08,6.75-14C51.68,29.34,46.92,33.38,43,42Z" transform="translate(0 0)"/><path class="cls-77" d="M38.31,64.12a2.74,2.74,0,0,0,.06-.56A3.8,3.8,0,0,0,38.31,64.12Z" transform="translate(0 0)"/><path class="cls-78" d="M84.59,30.49c.11-.12,5.69,5.08,11.94,12.23,6.55,7.06,5.48,21.92,5.39,22,.17-.07,2.22-17.27-4.17-24C91.49,33.57,84.61,30.34,84.59,30.49Z" transform="translate(0 0)"/><path class="cls-79" d="M55.87,39.05a19.39,19.39,0,0,1-2.5-10.19,14.84,14.84,0,0,0,1.49,10.58A18,18,0,0,0,63,46.35,26.42,26.42,0,0,1,55.87,39.05Z" transform="translate(0 0)"/><path class="cls-80" d="M49.69,81.46c-2.19-19.67-1-22.63,3.46-46.94C41.79,57.47,36.88,59.92,34.2,77.61c-1,6.77,2.25,33.56,6.32,40.19,4.57,13,15.84,14.66,18.38,14.66C47.55,128.57,50.94,92.75,49.69,81.46Z" transform="translate(0 0)"/><path class="cls-81" d="M64.5,88s6.91,8.41,16.33-.41C80.83,87.63,72.14,94.14,64.5,88Z" transform="translate(0 0)"/><path class="cls-82" d="M79.43,18.5c-11.71-2-17.41.83-20.77,2.7h0c-1.21.67-1.9,1.15-1.9,1.15-12.19-.3-16.63,17.39-16.63,17.39C46.94,26.56,54.83,24,54.83,24,66.11,18.64,77.42,21.61,80,22.35c7.36,2.19,16.53,9.84,21.94,17.39C101.92,39.74,94.78,21.17,79.43,18.5Z" transform="translate(0 0)"/><path class="cls-83" d="M48.72,66.48c.11-8,4.35-31.55,4.35-31.55s-7.64,18.93-8.28,32c-1.54,32.08,8.85,46,8.85,46C51.69,104.86,48.61,74.49,48.72,66.48Z" transform="translate(0 0)"/><path class="cls-84" d="M90.27,45.09s6,9,6,17.74-.79,33.6-7.82,49.69c0,0,11.61-8.57,10.22-49.42C98.31,53.73,90.27,45.09,90.27,45.09Z" transform="translate(0 0)"/><path class="cls-85" d="M95.11,128.94c9.63-6.8,11.79-35.15,11.79-35.15l-8.27,27.44Z" transform="translate(0 0)"/><path class="cls-86" d="M35.15,95.61s2.7,27.05,11.41,33.33L43.51,120Z" transform="translate(0 0)"/><path class="cls-87" d="M92.89,125.61s14.26-12.37,12.23-55.77C105.12,69.84,103.94,102.71,92.89,125.61Z" transform="translate(0 0)"/><path class="cls-88" d="M51,127.09s-13-17.4-13.18-58.2C37.85,68.89,32.78,111,51,127.09Z" transform="translate(0 0)"/><path class="cls-89" d="M96.44,54.47c-.81,0-13.65-.17-15.64.05a22.93,22.93,0,0,0-6.52,1.82c-.4.08-1.45,0-2.25.09s-1.84,0-2.25-.06a24,24,0,0,0-6.65-1.75c-2-.2-14.9.11-15.7.12s-.64,2.8-.72,3,1.07.64,1.49,1.19,1.73,7.28,3.37,8.23,11,2.62,14,.36,3.28-8.07,4.54-8.79a4,4,0,0,1,4,0c1.3.72,2,6.54,5.15,8.76S91.61,68,93.19,67s2.34-7.74,2.73-8.3,1.5-1,1.41-1.21S97.24,54.47,96.44,54.47ZM64.57,67.09c-3.17,1.46-11.65.34-12.66-1s-2.4-7.26-.74-8.47,9.21-1.54,11.14-1.39,4.73.72,5.29,1.59C68.35,59,67.75,65.63,64.57,67.09ZM92.78,65.9c-.93,1.37-9.32,2.54-12.57,1.12s-4.32-8-3.63-9.26c.51-.88,3.24-1.48,5.16-1.65s9.47-.45,11.19.74S93.7,64.54,92.78,65.9Z" transform="translate(0 0)"/></svg>