<svg xmlns="http://www.w3.org/2000/svg" viewBox="0 0 210.43 294.42"><defs><style>.cls-1{fill:#fff;stroke-width:5px;}.cls-1,.cls-2{stroke:#231f20;stroke-miterlimit:10;}.cls-2{fill:none;stroke-width:6px;}.cls-3{fill:#010101;}</style></defs><g id="Layer_2" data-name="Layer 2"><polyline class="cls-1" points="160.21 132.01 160.21 88.52 142.3 88.52 142.3 114.9"/><polyline class="cls-2" points="22.14 154.96 102.25 74.84 139.6 112.19 182.36 154.96 182.36 280.01 22.14 280.01 22.14 154.96 102.25 74.84"/><path d="M141.27,74.38c-1.82-2.07-2.77-5.28-1.48-7.87.63-1.29,1.92-2.18,2.92-3.16a11.67,11.67,0,0,0,3.17-4.81c1.13-3.77-1-6.73-2.83-9.81-2.11-3.52-2-7.42-1.93-11.39.07-3.37.27-8.25,4.1-9.56a3.54,3.54,0,0,0,2.18-2.7c.15-.81-.19-2.19-1.33-1.8-4.17,1.42-6.73,5.28-7.82,9.39A30.82,30.82,0,0,0,137.5,40a40.56,40.56,0,0,0,.32,6.88,16.13,16.13,0,0,0,2.33,5.92c.93,1.53,2.27,3.18,2.47,5,.14,1.4-1.13,2.25-2.05,3.11a15.69,15.69,0,0,0-3.75,4.81c-1.86,4-1.62,9,1.35,12.38,1.5,1.7,4.37-2.33,3.1-3.77Z"/><path d="M160.63,71.23c3.65-3.23,5.44-8.85,3.3-13.42-.45-1-1.52-2.1-1.44-3.22,0,0,.18-.45.07-.22a4.24,4.24,0,0,1,.91-1c1.68-1.51,3.69-2.59,5.34-4.12,7.45-6.87,9.78-18.08,6.29-27.49A32.91,32.91,0,0,0,165.1,8c-1.48-1.23-4.12,3-2.5,4.33C169.4,18,174.4,27,172.85,36a17.22,17.22,0,0,1-5.56,10.25C164.08,49,159.58,51,159,55.73a6.32,6.32,0,0,0,.78,3.87,10.54,10.54,0,0,1,1.44,3.34,5.2,5.2,0,0,1-1.52,4.81c-.81.72-1.62,2.12-1.24,3.23s1.51.89,2.22.25Z"/><circle class="cls-3" cx="143.68" cy="189.24" r="8.79"/><circle class="cls-3" cx="74.07" cy="189.24" r="8.79"/><path class="cls-3" d="M161.91,209.14a10.53,10.53,0,0,0-10.51-9.95H136a16.62,16.62,0,0,1-7.54-1.81l-16.55-8.45a6.63,6.63,0,0,0-6.07,0l-16.55,8.45a16.55,16.55,0,0,1-7.53,1.81H66.36a10.52,10.52,0,0,0-10.51,9.95L55,224.19a2.9,2.9,0,0,0,2.3,3.05,2.8,2.8,0,0,0,3.26-2.47l1.31-12.7a.66.66,0,0,1,1.31,0l3,44.67A2.73,2.73,0,0,0,69,259.31h10.2a2.71,2.71,0,0,0,2.71-2.54l3.18-46.42a4.15,4.15,0,0,1,2-3.3L108,194.81a1.82,1.82,0,0,1,1.86,0l20.84,12.24a4.13,4.13,0,0,1,2,3.3l3.17,46.42a2.73,2.73,0,0,0,2.72,2.54h10.2a2.71,2.71,0,0,0,2.71-2.54l3.05-44.67a.66.66,0,0,1,1.31,0l1.29,12.6a2.88,2.88,0,0,0,2.22,2.55,2.8,2.8,0,0,0,3.36-2.89Z"/></g></svg>