<svg xmlns="http://www.w3.org/2000/svg" viewBox="0 0 233.22 302.07"><defs><style>.cls-1{fill:#fff;stroke-width:5px;}.cls-1,.cls-2{stroke:#231f20;stroke-miterlimit:10;}.cls-2{fill:none;stroke-width:6px;}.cls-3{fill:#010101;}</style></defs><g id="Layer_2" data-name="Layer 2"><polyline class="cls-1" points="169.54 129.46 169.54 85.97 151.64 85.97 151.64 112.35"/><polyline class="cls-2" points="31.47 152.4 111.58 72.29 148.93 109.64 191.69 152.4 191.69 277.45 31.47 277.45 31.47 152.4 111.58 72.29"/><path d="M150.6,71.82c-1.82-2.06-2.77-5.27-1.48-7.87.64-1.28,1.93-2.17,2.92-3.16a11.48,11.48,0,0,0,3.17-4.8c1.14-3.77-1-6.73-2.83-9.82-2.11-3.51-2-7.41-1.93-11.38.08-3.37.27-8.25,4.11-9.57a3.51,3.51,0,0,0,2.17-2.69c.15-.81-.18-2.19-1.33-1.8-4.16,1.42-6.73,5.28-7.81,9.39a30.82,30.82,0,0,0-.75,7.36,38.6,38.6,0,0,0,.32,6.88,15.93,15.93,0,0,0,2.32,5.92c.93,1.52,2.28,3.17,2.47,5,.15,1.4-1.12,2.26-2,3.12a15.57,15.57,0,0,0-3.76,4.81c-1.86,4-1.62,9,1.35,12.38,1.5,1.7,4.38-2.33,3.1-3.78Z"/><path d="M170,68.68c3.65-3.23,5.43-8.85,3.29-13.42-.45-1-1.52-2.1-1.44-3.22,0,0,.18-.45.07-.22a4.29,4.29,0,0,1,.92-1c1.68-1.51,3.68-2.59,5.34-4.12,7.44-6.87,9.77-18.08,6.28-27.49a32.74,32.74,0,0,0-10-13.73c-1.48-1.24-4.13,3-2.5,4.33,6.79,5.65,11.79,14.6,10.24,23.65a17.11,17.11,0,0,1-5.56,10.25c-3.21,2.73-7.71,4.78-8.33,9.47a6.2,6.2,0,0,0,.77,3.86,10.85,10.85,0,0,1,1.45,3.35A5.25,5.25,0,0,1,169,65.2c-.81.72-1.62,2.11-1.25,3.23s1.51.89,2.23.25Z"/><path class="cls-3" d="M81.31,191.41a8.8,8.8,0,0,0,8.79,8.79V182.62A8.8,8.8,0,0,0,81.31,191.41Z"/><path class="cls-3" d="M82.38,201.36a10.52,10.52,0,0,0-10.5,10l-.82,15.05a2.9,2.9,0,0,0,2.3,3,2.8,2.8,0,0,0,3.26-2.47l1.31-12.7a.66.66,0,0,1,1.31,0l3,44.67A2.72,2.72,0,0,0,85,261.48H90.1V201.36Z"/><path class="cls-3" d="M98.89,191.41a8.79,8.79,0,0,1-8.79,8.79V182.62A8.79,8.79,0,0,1,98.89,191.41Z"/><path class="cls-3" d="M97.82,201.36a10.51,10.51,0,0,1,10.5,10l.82,15.05a2.89,2.89,0,0,1-2.3,3,2.81,2.81,0,0,1-3.26-2.47l-1.3-12.7a.66.66,0,0,0-1.32,0l-3,44.67a2.72,2.72,0,0,1-2.71,2.54H90.1V201.36Z"/></g></svg>