<svg id="Layer_1" data-name="Layer 1" xmlns="http://www.w3.org/2000/svg" xmlns:xlink="http://www.w3.org/1999/xlink" viewBox="0 0 144 144"><defs><style>.cls-1{fill:none;}.cls-2{fill:#f6ece6;}.cls-3{fill:url(#linear-gradient);}.cls-4{fill:#ef4834;}.cls-5{fill:#f6d4ab;}.cls-6{fill:url(#linear-gradient-2);}.cls-7{fill:url(#linear-gradient-3);}.cls-8{fill:url(#_ÂÁ_Ï_ÌÌ_È_ËÂÌÚ_442);}.cls-9{fill:url(#_ÂÁ_Ï_ÌÌ_È_ËÂÌÚ_442-2);}.cls-10{fill:url(#_ÂÁ_Ï_ÌÌ_È_ËÂÌÚ_1204);}.cls-11{fill:url(#linear-gradient-4);}.cls-12{fill:url(#linear-gradient-5);}.cls-13{fill:url(#_ÂÁ_Ï_ÌÌ_È_ËÂÌÚ_105);}.cls-14{fill:url(#_ÂÁ_Ï_ÌÌ_È_ËÂÌÚ_1045);}.cls-15{fill:url(#linear-gradient-6);}.cls-16{fill:#f0c499;}.cls-17{fill:url(#linear-gradient-7);}.cls-18{fill:url(#_ÂÁ_Ï_ÌÌ_È_ËÂÌÚ_384);}.cls-19{fill:url(#_ÂÁ_Ï_ÌÌ_È_ËÂÌÚ_49);}.cls-20{fill:url(#linear-gradient-8);}.cls-21{clip-path:url(#clip-path);}.cls-22{fill:#f6d3aa;}.cls-23{fill:#f5d3a9;}.cls-24{fill:#f5d2a9;}.cls-25{fill:#f6d1a8;}.cls-26{fill:#f5d0a7;}.cls-27{fill:#f5cfa6;}.cls-28{fill:#f4cea5;}.cls-29{fill:#f4cda3;}.cls-30{fill:#f4cca2;}.cls-31{fill:#f4cba1;}.cls-32{fill:#f4cba0;}.cls-33{fill:#f3c99f;}.cls-34{fill:#f3c99e;}.cls-35{fill:#f2c89d;}.cls-36{fill:#f2c79c;}.cls-37{fill:#f0c59a;}.cls-38{fill:url(#linear-gradient-9);}.cls-39{fill:url(#_ÂÁ_Ï_ÌÌ_È_ËÂÌÚ_155);}.cls-40{fill:url(#linear-gradient-10);}.cls-41{fill:url(#linear-gradient-11);}.cls-42{fill:url(#_ÂÁ_Ï_ÌÌ_È_ËÂÌÚ_1042);}.cls-43{fill:url(#_ÂÁ_Ï_ÌÌ_È_ËÂÌÚ_1041);}.cls-44{fill:url(#linear-gradient-12);}.cls-45{fill:url(#_ÂÁ_Ï_ÌÌ_È_ËÂÌÚ_340);}.cls-46{fill:url(#_ÂÁ_Ï_ÌÌ_È_ËÂÌÚ_126);}.cls-47{fill:url(#linear-gradient-13);}.cls-48{fill:url(#_ÂÁ_Ï_ÌÌ_È_ËÂÌÚ_1044);}.cls-49{fill:url(#linear-gradient-14);}.cls-50{fill:url(#_ÂÁ_Ï_ÌÌ_È_ËÂÌÚ_126-2);}.cls-51{fill:url(#linear-gradient-15);}.cls-52{fill:url(#_ÂÁ_Ï_ÌÌ_È_ËÂÌÚ_1204-2);}.cls-53{fill:url(#linear-gradient-16);}.cls-54{fill:url(#_ÂÁ_Ï_ÌÌ_È_ËÂÌÚ_121);}.cls-55{fill:url(#_ÂÁ_Ï_ÌÌ_È_ËÂÌÚ_121-2);}.cls-56{fill:url(#_ÂÁ_Ï_ÌÌ_È_ËÂÌÚ_153);}.cls-57{fill:url(#_ÂÁ_Ï_ÌÌ_È_ËÂÌÚ_153-2);}.cls-58{fill:url(#_ÂÁ_Ï_ÌÌ_È_ËÂÌÚ_58);}.cls-59{fill:url(#_ÂÁ_Ï_ÌÌ_È_ËÂÌÚ_60);}.cls-60{fill:url(#_ÂÁ_Ï_ÌÌ_È_ËÂÌÚ_153-3);}.cls-61{fill:url(#_ÂÁ_Ï_ÌÌ_È_ËÂÌÚ_61);}.cls-62{fill:url(#_ÂÁ_Ï_ÌÌ_È_ËÂÌÚ_153-4);}.cls-63{fill:url(#_ÂÁ_Ï_ÌÌ_È_ËÂÌÚ_153-5);}.cls-64{fill:url(#_ÂÁ_Ï_ÌÌ_È_ËÂÌÚ_462);}.cls-65{fill:url(#_ÂÁ_Ï_ÌÌ_È_ËÂÌÚ_1204-3);}.cls-66{fill:url(#linear-gradient-17);}.cls-67{fill:#ddd;}.cls-68{fill:url(#linear-gradient-18);}.cls-69{fill:url(#linear-gradient-19);}.cls-70{fill:url(#linear-gradient-20);}.cls-71{fill:url(#radial-gradient);}.cls-72{fill:#fff;}.cls-73{fill:url(#_ÂÁ_Ï_ÌÌ_È_ËÂÌÚ_331);}.cls-74{fill:url(#_ÂÁ_Ï_ÌÌ_È_ËÂÌÚ_1204-4);}.cls-75{fill:#391b13;}.cls-76{fill:url(#_ÂÁ_Ï_ÌÌ_È_ËÂÌÚ_1045-2);}.cls-77{fill:url(#linear-gradient-21);}.cls-78{fill:url(#linear-gradient-22);}.cls-79{fill:#971b27;}.cls-80{fill:url(#linear-gradient-23);}.cls-81{fill:url(#linear-gradient-24);}.cls-82{fill:#f26d79;}.cls-83{fill:url(#linear-gradient-25);}.cls-84{fill:#f598a2;}.cls-85{fill:url(#linear-gradient-26);}.cls-86{fill:url(#linear-gradient-27);}.cls-87{fill:url(#_ÂÁ_Ï_ÌÌ_È_ËÂÌÚ_1045-3);}.cls-88{fill:url(#linear-gradient-28);}.cls-89{fill:url(#linear-gradient-29);}.cls-90{fill:url(#_ÂÁ_Ï_ÌÌ_È_ËÂÌÚ_1043);}.cls-91{fill:url(#linear-gradient-30);}.cls-92{fill:url(#radial-gradient-2);}.cls-93{fill:url(#_ÂÁ_Ï_ÌÌ_È_ËÂÌÚ_1046);}.cls-94{fill:url(#_ÂÁ_Ï_ÌÌ_È_ËÂÌÚ_1204-5);}.cls-95{fill:url(#_ÂÁ_Ï_ÌÌ_È_ËÂÌÚ_1204-6);}.cls-96{fill:url(#_ÂÁ_Ï_ÌÌ_È_ËÂÌÚ_1204-7);}.cls-97{fill:url(#_ÂÁ_Ï_ÌÌ_È_ËÂÌÚ_58-2);}.cls-98{fill:url(#_ÂÁ_Ï_ÌÌ_È_ËÂÌÚ_58-3);}.cls-99{fill:url(#_ÂÁ_Ï_ÌÌ_È_ËÂÌÚ_58-4);}.cls-100{fill:url(#_ÂÁ_Ï_ÌÌ_È_ËÂÌÚ_60-2);}.cls-101{fill:url(#_ÂÁ_Ï_ÌÌ_È_ËÂÌÚ_153-6);}.cls-102{fill:url(#_ÂÁ_Ï_ÌÌ_È_ËÂÌÚ_60-3);}.cls-103{fill:url(#_ÂÁ_Ï_ÌÌ_È_ËÂÌÚ_108);}.cls-104{fill:url(#_ÂÁ_Ï_ÌÌ_È_ËÂÌÚ_60-4);}.cls-105{fill:url(#_ÂÁ_Ï_ÌÌ_È_ËÂÌÚ_60-5);}.cls-106{fill:url(#_ÂÁ_Ï_ÌÌ_È_ËÂÌÚ_60-6);}.cls-107{fill:url(#_ÂÁ_Ï_ÌÌ_È_ËÂÌÚ_58-5);}</style><linearGradient id="linear-gradient" x1="72.8" y1="25.52" x2="74.24" y2="83.97" gradientUnits="userSpaceOnUse"><stop offset="0" stop-color="#6c342a"/><stop offset="0.3" stop-color="#673228"/><stop offset="0.63" stop-color="#5a2c22"/><stop offset="0.97" stop-color="#442119"/><stop offset="1" stop-color="#422018"/></linearGradient><linearGradient id="linear-gradient-2" x1="59.85" y1="94.04" x2="98.33" y2="104.95" gradientUnits="userSpaceOnUse"><stop offset="0" stop-color="#f0c499"/><stop offset="0.52" stop-color="#f1c69c"/><stop offset="0.85" stop-color="#f4cea4"/><stop offset="1" stop-color="#f6d4ab"/></linearGradient><linearGradient id="linear-gradient-3" x1="71.07" y1="143.92" x2="75" y2="107.11" gradientUnits="userSpaceOnUse"><stop offset="0" stop-color="#f6d4ab"/><stop offset="0.52" stop-color="#f5d2a8"/><stop offset="0.85" stop-color="#f2caa0"/><stop offset="1" stop-color="#f0c499"/></linearGradient><linearGradient id="_ÂÁ_Ï_ÌÌ_È_ËÂÌÚ_442" x1="108.43" y1="111.69" x2="83.83" y2="112.48" gradientUnits="userSpaceOnUse"><stop offset="0" stop-color="#f6d4ab"/><stop offset="0.15" stop-color="#f4cea4"/><stop offset="0.48" stop-color="#f1c69c"/><stop offset="1" stop-color="#f0c499"/></linearGradient><linearGradient id="_ÂÁ_Ï_ÌÌ_È_ËÂÌÚ_442-2" x1="53.79" y1="142.05" x2="57.72" y2="105.27" xlink:href="#_ÂÁ_Ï_ÌÌ_È_ËÂÌÚ_442"/><linearGradient id="_ÂÁ_Ï_ÌÌ_È_ËÂÌÚ_1204" x1="9.41" y1="64.52" x2="89.8" y2="94.62" gradientUnits="userSpaceOnUse"><stop offset="0" stop-color="#dca47a"/><stop offset="0.5" stop-color="#e5b287"/><stop offset="1" stop-color="#f0c499"/></linearGradient><linearGradient id="linear-gradient-4" x1="65.36" y1="164.2" x2="82.94" y2="100.01" gradientUnits="userSpaceOnUse"><stop offset="0" stop-color="#ef4834"/><stop offset="0.37" stop-color="#f05441"/><stop offset="1" stop-color="#f26454"/></linearGradient><linearGradient id="linear-gradient-5" x1="62.42" y1="108.19" x2="107.69" y2="137.59" xlink:href="#linear-gradient-2"/><linearGradient id="_ÂÁ_Ï_ÌÌ_È_ËÂÌÚ_105" x1="73.4" y1="104.14" x2="71.76" y2="210.94" gradientUnits="userSpaceOnUse"><stop offset="0" stop-color="#ef4834"/><stop offset="0.54" stop-color="#ee3a29"/><stop offset="1" stop-color="#ed3424"/></linearGradient><linearGradient id="_ÂÁ_Ï_ÌÌ_È_ËÂÌÚ_1045" x1="43.37" y1="68.63" x2="50.96" y2="68.63" gradientUnits="userSpaceOnUse"><stop offset="0" stop-color="#f0c499"/><stop offset="0.5" stop-color="#e5b287"/><stop offset="1" stop-color="#dca47a"/></linearGradient><linearGradient id="linear-gradient-6" x1="48.19" y1="134.19" x2="48.81" y2="155.93" xlink:href="#_ÂÁ_Ï_ÌÌ_È_ËÂÌÚ_1204"/><linearGradient id="linear-gradient-7" x1="100.15" y1="133.17" x2="100.76" y2="154.58" xlink:href="#_ÂÁ_Ï_ÌÌ_È_ËÂÌÚ_1204"/><linearGradient id="_ÂÁ_Ï_ÌÌ_È_ËÂÌÚ_384" x1="72.27" y1="35.51" x2="72.18" y2="96.17" gradientUnits="userSpaceOnUse"><stop offset="0" stop-color="#fed8b4"/><stop offset="0.35" stop-color="#f9d5ae"/><stop offset="1" stop-color="#f6d4ab"/></linearGradient><linearGradient id="_ÂÁ_Ï_ÌÌ_È_ËÂÌÚ_49" x1="85.5" y1="71.54" x2="82.7" y2="56.04" xlink:href="#linear-gradient-3"/><linearGradient id="linear-gradient-8" x1="61.25" y1="74.26" x2="58.26" y2="55.75" xlink:href="#linear-gradient-3"/><clipPath id="clip-path"><path class="cls-1" d="M72.25,63c-1.8,0-6.77,5-6.77,5-.41.59-.36,5.83,0,6.18s6.69,1.64,6.92,1.67a42.66,42.66,0,0,0,6.47-2.49c.95-.63.12-6-.27-6.19S74.05,63,72.25,63Z"/></clipPath><linearGradient id="linear-gradient-9" x1="72.22" y1="80.38" x2="72.18" y2="75.26" gradientUnits="userSpaceOnUse"><stop offset="0" stop-color="#f5d3aa"/><stop offset="0.52" stop-color="#f4d1a7"/><stop offset="0.85" stop-color="#f2c99f"/><stop offset="1" stop-color="#f0c498"/></linearGradient><linearGradient id="_ÂÁ_Ï_ÌÌ_È_ËÂÌÚ_155" x1="72.27" y1="74.45" x2="72.27" y2="66.56" gradientUnits="userSpaceOnUse"><stop offset="0" stop-color="#f6d4ab"/><stop offset="0.49" stop-color="#f5d1a8"/><stop offset="0.88" stop-color="#f2c89e"/><stop offset="1" stop-color="#f0c499"/></linearGradient><linearGradient id="linear-gradient-10" x1="77.29" y1="74.59" x2="74.04" y2="76.2" gradientUnits="userSpaceOnUse"><stop offset="0" stop-color="#dba37a"/><stop offset="0.49" stop-color="#e4b187"/><stop offset="1" stop-color="#f0c498"/></linearGradient><linearGradient id="linear-gradient-11" x1="67.21" y1="74.76" x2="70.69" y2="76.18" xlink:href="#linear-gradient-10"/><radialGradient id="_ÂÁ_Ï_ÌÌ_È_ËÂÌÚ_1042" cx="38.24" cy="-1189.18" r="20.92" gradientTransform="translate(35.83 845.4) scale(0.55 0.65)" gradientUnits="userSpaceOnUse"><stop offset="0" stop-color="#f8b38e"/><stop offset="0.54" stop-color="#f8c49d"/><stop offset="0.75" stop-color="#f6d4ab"/></radialGradient><radialGradient id="_ÂÁ_Ï_ÌÌ_È_ËÂÌÚ_1041" cx="92.16" cy="-1110.96" r="21.18" gradientTransform="translate(35.83 786.49) scale(0.55 0.64)" gradientUnits="userSpaceOnUse"><stop offset="0" stop-color="#f8b38e"/><stop offset="0.48" stop-color="#f7c69e"/><stop offset="0.79" stop-color="#f6d4ab"/></radialGradient><linearGradient id="linear-gradient-12" x1="71.78" y1="85.31" x2="72.72" y2="93.74" gradientUnits="userSpaceOnUse"><stop offset="0" stop-color="#fed8b4"/><stop offset="0.65" stop-color="#fbd7b1"/><stop offset="1" stop-color="#f6d4ab"/></linearGradient><linearGradient id="_ÂÁ_Ï_ÌÌ_È_ËÂÌÚ_340" x1="72.48" y1="29.28" x2="72.35" y2="73.13" gradientUnits="userSpaceOnUse"><stop offset="0" stop-color="#f6d4ab"/><stop offset="0.15" stop-color="#f4cea4"/><stop offset="0.47" stop-color="#f1c69c"/><stop offset="1" stop-color="#f0c499"/></linearGradient><linearGradient id="_ÂÁ_Ï_ÌÌ_È_ËÂÌÚ_126" x1="84.49" y1="71.15" x2="93.88" y2="67.45" gradientUnits="userSpaceOnUse"><stop offset="0" stop-color="#fed8b4"/><stop offset="0.52" stop-color="#fbcfaa"/><stop offset="1" stop-color="#f8c49d"/></linearGradient><linearGradient id="linear-gradient-13" x1="84.99" y1="58.81" x2="94.12" y2="58.81" xlink:href="#linear-gradient-12"/><linearGradient id="_ÂÁ_Ï_ÌÌ_È_ËÂÌÚ_1044" x1="78.29" y1="54.96" x2="92.84" y2="54.96" gradientUnits="userSpaceOnUse"><stop offset="0" stop-color="#422018"/><stop offset="0.32" stop-color="#46221a"/><stop offset="0.66" stop-color="#53281e"/><stop offset="1" stop-color="#683126"/></linearGradient><linearGradient id="linear-gradient-14" x1="51.2" y1="54.96" x2="65.72" y2="54.96" gradientUnits="userSpaceOnUse"><stop offset="0" stop-color="#683126"/><stop offset="0.34" stop-color="#53281e"/><stop offset="0.68" stop-color="#46221a"/><stop offset="1" stop-color="#422018"/></linearGradient><linearGradient id="_ÂÁ_Ï_ÌÌ_È_ËÂÌÚ_126-2" x1="57.52" y1="71.14" x2="49.21" y2="66" xlink:href="#_ÂÁ_Ï_ÌÌ_È_ËÂÌÚ_126"/><linearGradient id="linear-gradient-15" x1="71.39" y1="127.46" x2="71.08" y2="138.13" xlink:href="#_ÂÁ_Ï_ÌÌ_È_ËÂÌÚ_1204"/><linearGradient id="_ÂÁ_Ï_ÌÌ_È_ËÂÌÚ_1204-2" x1="57.22" y1="90.83" x2="44.29" y2="59.74" xlink:href="#_ÂÁ_Ï_ÌÌ_È_ËÂÌÚ_1204"/><linearGradient id="linear-gradient-16" x1="84.3" y1="80.34" x2="96.17" y2="80.34" xlink:href="#linear-gradient-12"/><linearGradient id="_ÂÁ_Ï_ÌÌ_È_ËÂÌÚ_121" x1="47.64" y1="181.96" x2="42.87" y2="-7.63" gradientUnits="userSpaceOnUse"><stop offset="0" stop-color="#6c342a"/><stop offset="0.67" stop-color="#4f261c"/><stop offset="1" stop-color="#693229"/></linearGradient><linearGradient id="_ÂÁ_Ï_ÌÌ_È_ËÂÌÚ_121-2" x1="95.57" y1="237.82" x2="89.14" y2="-17.82" xlink:href="#_ÂÁ_Ï_ÌÌ_È_ËÂÌÚ_121"/><linearGradient id="_ÂÁ_Ï_ÌÌ_È_ËÂÌÚ_153" x1="117.62" y1="120.53" x2="77.76" y2="27.12" gradientUnits="userSpaceOnUse"><stop offset="0" stop-color="#422018"/><stop offset="0.44" stop-color="#52281f"/><stop offset="1" stop-color="#6c342a"/></linearGradient><linearGradient id="_ÂÁ_Ï_ÌÌ_È_ËÂÌÚ_153-2" x1="71.88" y1="124.09" x2="69.95" y2="18.97" xlink:href="#_ÂÁ_Ï_ÌÌ_È_ËÂÌÚ_153"/><linearGradient id="_ÂÁ_Ï_ÌÌ_È_ËÂÌÚ_58" x1="56.53" y1="159.82" x2="45.63" y2="-13.42" gradientUnits="userSpaceOnUse"><stop offset="0" stop-color="#6c342a"/><stop offset="0.56" stop-color="#52281f"/><stop offset="1" stop-color="#422018"/></linearGradient><linearGradient id="_ÂÁ_Ï_ÌÌ_È_ËÂÌÚ_60" x1="21.5" y1="140.71" x2="23.91" y2="74.87" xlink:href="#linear-gradient"/><linearGradient id="_ÂÁ_Ï_ÌÌ_È_ËÂÌÚ_153-3" x1="97.09" y1="75.79" x2="98.11" y2="152.52" xlink:href="#_ÂÁ_Ï_ÌÌ_È_ËÂÌÚ_153"/><linearGradient id="_ÂÁ_Ï_ÌÌ_È_ËÂÌÚ_61" x1="109.12" y1="20.66" x2="110.98" y2="160.14" gradientUnits="userSpaceOnUse"><stop offset="0" stop-color="#422018"/><stop offset="0.05" stop-color="#442119"/><stop offset="1" stop-color="#6c342a"/></linearGradient><linearGradient id="_ÂÁ_Ï_ÌÌ_È_ËÂÌÚ_153-4" x1="107.31" y1="-0.86" x2="108.94" y2="121.69" xlink:href="#_ÂÁ_Ï_ÌÌ_È_ËÂÌÚ_153"/><linearGradient id="_ÂÁ_Ï_ÌÌ_È_ËÂÌÚ_153-5" x1="49.44" y1="18.4" x2="31.75" y2="132.65" xlink:href="#_ÂÁ_Ï_ÌÌ_È_ËÂÌÚ_153"/><linearGradient id="_ÂÁ_Ï_ÌÌ_È_ËÂÌÚ_462" x1="68.46" y1="29.86" x2="68.45" y2="33.42" gradientUnits="userSpaceOnUse"><stop offset="0" stop-color="#f6d4ab"/><stop offset="0.97" stop-color="#f0c59a"/><stop offset="1" stop-color="#f0c499"/></linearGradient><linearGradient id="_ÂÁ_Ï_ÌÌ_È_ËÂÌÚ_1204-3" x1="90.43" y1="60.8" x2="77.39" y2="65.86" xlink:href="#_ÂÁ_Ï_ÌÌ_È_ËÂÌÚ_1204"/><linearGradient id="linear-gradient-17" x1="77.68" y1="63.83" x2="81.69" y2="63.83" gradientUnits="userSpaceOnUse"><stop offset="0" stop-color="#fff"/><stop offset="0.46" stop-color="#fdfcfc"/><stop offset="0.76" stop-color="#f6f4f4"/><stop offset="1" stop-color="#ece7e6"/></linearGradient><linearGradient id="linear-gradient-18" x1="86.55" y1="63.71" x2="89.74" y2="63.71" xlink:href="#linear-gradient-17"/><linearGradient id="linear-gradient-19" x1="88.64" y1="67.25" x2="79.3" y2="61.41" gradientUnits="userSpaceOnUse"><stop offset="0" stop-color="#b89c8c"/><stop offset="1" stop-color="#725342"/></linearGradient><linearGradient id="linear-gradient-20" x1="96.41" y1="63.94" x2="84.25" y2="62.5" xlink:href="#linear-gradient-19"/><radialGradient id="radial-gradient" cx="85.98" cy="107.37" r="4.97" gradientTransform="translate(35.83 5.47) scale(0.55 0.54)" gradientUnits="userSpaceOnUse"><stop offset="0" stop-color="#2b3b3b"/><stop offset="1" stop-color="#1d2827"/></radialGradient><linearGradient id="_ÂÁ_Ï_ÌÌ_È_ËÂÌÚ_331" x1="77.69" y1="63.25" x2="92.41" y2="63.25" gradientUnits="userSpaceOnUse"><stop offset="0" stop-color="#5b2b20"/><stop offset="0.31" stop-color="#4a2319"/><stop offset="0.66" stop-color="#3d1d15"/><stop offset="1" stop-color="#391b13"/></linearGradient><linearGradient id="_ÂÁ_Ï_ÌÌ_È_ËÂÌÚ_1204-4" x1="84.08" y1="59.39" x2="74.36" y2="71.75" xlink:href="#_ÂÁ_Ï_ÌÌ_È_ËÂÌÚ_1204"/><linearGradient id="_ÂÁ_Ï_ÌÌ_È_ËÂÌÚ_1045-2" x1="57.61" y1="76.7" x2="62.84" y2="81.27" xlink:href="#_ÂÁ_Ï_ÌÌ_È_ËÂÌÚ_1045"/><linearGradient id="linear-gradient-21" x1="84.88" y1="77.6" x2="81.91" y2="81.26" xlink:href="#_ÂÁ_Ï_ÌÌ_È_ËÂÌÚ_1204"/><linearGradient id="linear-gradient-22" x1="66.17" y1="86.25" x2="78.55" y2="86.25" xlink:href="#_ÂÁ_Ï_ÌÌ_È_ËÂÌÚ_1204"/><linearGradient id="linear-gradient-23" x1="65.4" y1="82.91" x2="79.11" y2="82.91" gradientUnits="userSpaceOnUse"><stop offset="0" stop-color="#e8d9d7"/><stop offset="0.14" stop-color="#f0e6e4"/><stop offset="0.39" stop-color="#fbf8f8"/><stop offset="0.57" stop-color="#fff"/><stop offset="1" stop-color="#e8d3d1"/></linearGradient><linearGradient id="linear-gradient-24" x1="60.96" y1="81.37" x2="82.56" y2="81.37" gradientUnits="userSpaceOnUse"><stop offset="0" stop-color="#e8d9d7"/><stop offset="0.04" stop-color="#ebdfdd"/><stop offset="0.21" stop-color="#f6f1f0"/><stop offset="0.38" stop-color="#fdfbfb"/><stop offset="0.57" stop-color="#fff"/><stop offset="0.69" stop-color="#fbf8f8"/><stop offset="0.87" stop-color="#f1e5e3"/><stop offset="1" stop-color="#e8d3d1"/></linearGradient><linearGradient id="linear-gradient-25" x1="64.9" y1="83.77" x2="80.69" y2="83.77" gradientUnits="userSpaceOnUse"><stop offset="0" stop-color="#f26e7f"/><stop offset="0.02" stop-color="#f26f80"/><stop offset="0.24" stop-color="#f37986"/><stop offset="0.53" stop-color="#f37c88"/><stop offset="0.77" stop-color="#f37885"/><stop offset="1" stop-color="#f26d7d"/></linearGradient><linearGradient id="linear-gradient-26" x1="64.05" y1="81.03" x2="80.77" y2="81.03" gradientUnits="userSpaceOnUse"><stop offset="0" stop-color="#e8d9d7"/><stop offset="0.05" stop-color="#eadddb"/><stop offset="0.31" stop-color="#f6efef"/><stop offset="0.48" stop-color="#faf6f6"/><stop offset="1" stop-color="#e8d3d1"/></linearGradient><linearGradient id="linear-gradient-27" x1="66.39" y1="80.27" x2="78.35" y2="80.27" xlink:href="#linear-gradient-25"/><linearGradient id="_ÂÁ_Ï_ÌÌ_È_ËÂÌÚ_1045-3" x1="65.53" y1="60.94" x2="53.93" y2="65.44" xlink:href="#_ÂÁ_Ï_ÌÌ_È_ËÂÌÚ_1045"/><linearGradient id="linear-gradient-28" x1="62.5" y1="63.83" x2="66.5" y2="63.83" xlink:href="#linear-gradient-17"/><linearGradient id="linear-gradient-29" x1="55.37" y1="63.71" x2="58.56" y2="63.71" xlink:href="#linear-gradient-17"/><linearGradient id="_ÂÁ_Ï_ÌÌ_È_ËÂÌÚ_1043" x1="64.98" y1="67.57" x2="55.33" y2="61.54" xlink:href="#linear-gradient-19"/><linearGradient id="linear-gradient-30" x1="73.19" y1="63.77" x2="60.85" y2="62.31" xlink:href="#linear-gradient-19"/><radialGradient id="radial-gradient-2" cx="43.51" cy="107.37" r="4.97" xlink:href="#radial-gradient"/><linearGradient id="_ÂÁ_Ï_ÌÌ_È_ËÂÌÚ_1046" x1="51.79" y1="63.25" x2="66.51" y2="63.25" gradientUnits="userSpaceOnUse"><stop offset="0" stop-color="#391b13"/><stop offset="0.34" stop-color="#3d1d15"/><stop offset="0.69" stop-color="#4a2319"/><stop offset="1" stop-color="#5b2b20"/></linearGradient><linearGradient id="_ÂÁ_Ï_ÌÌ_È_ËÂÌÚ_1204-5" x1="61.37" y1="59.61" x2="55.54" y2="67.03" xlink:href="#_ÂÁ_Ï_ÌÌ_È_ËÂÌÚ_1204"/><linearGradient id="_ÂÁ_Ï_ÌÌ_È_ËÂÌÚ_1204-6" x1="54.09" y1="66.32" x2="66.59" y2="66.32" xlink:href="#_ÂÁ_Ï_ÌÌ_È_ËÂÌÚ_1204"/><linearGradient id="_ÂÁ_Ï_ÌÌ_È_ËÂÌÚ_1204-7" x1="91.01" y1="62.53" x2="78.7" y2="68.78" xlink:href="#_ÂÁ_Ï_ÌÌ_È_ËÂÌÚ_1204"/><linearGradient id="_ÂÁ_Ï_ÌÌ_È_ËÂÌÚ_58-2" x1="51.75" y1="112.08" x2="81.72" y2="170.42" xlink:href="#_ÂÁ_Ï_ÌÌ_È_ËÂÌÚ_58"/><linearGradient id="_ÂÁ_Ï_ÌÌ_È_ËÂÌÚ_58-3" x1="55.49" y1="8.7" x2="49.74" y2="101.74" xlink:href="#_ÂÁ_Ï_ÌÌ_È_ËÂÌÚ_58"/><linearGradient id="_ÂÁ_Ï_ÌÌ_È_ËÂÌÚ_58-4" x1="87.73" y1="10.32" x2="81.94" y2="103.91" xlink:href="#_ÂÁ_Ï_ÌÌ_È_ËÂÌÚ_58"/><linearGradient id="_ÂÁ_Ï_ÌÌ_È_ËÂÌÚ_60-2" x1="50.67" y1="124.05" x2="11.97" y2="26.2" xlink:href="#linear-gradient"/><linearGradient id="_ÂÁ_Ï_ÌÌ_È_ËÂÌÚ_153-6" x1="57.09" y1="-53.59" x2="37.87" y2="155.93" xlink:href="#_ÂÁ_Ï_ÌÌ_È_ËÂÌÚ_153"/><linearGradient id="_ÂÁ_Ï_ÌÌ_È_ËÂÌÚ_60-3" x1="50.61" y1="2.78" x2="40.51" y2="115.77" xlink:href="#linear-gradient"/><linearGradient id="_ÂÁ_Ï_ÌÌ_È_ËÂÌÚ_108" x1="9.4" y1="146.81" x2="54.14" y2="20.67" gradientUnits="userSpaceOnUse"><stop offset="0" stop-color="#6c342a"/><stop offset="1" stop-color="#422018"/></linearGradient><linearGradient id="_ÂÁ_Ï_ÌÌ_È_ËÂÌÚ_60-4" x1="54.9" y1="23.26" x2="56.46" y2="75.49" xlink:href="#linear-gradient"/><linearGradient id="_ÂÁ_Ï_ÌÌ_È_ËÂÌÚ_60-5" x1="82.49" y1="22.43" x2="84.06" y2="74.7" xlink:href="#linear-gradient"/><linearGradient id="_ÂÁ_Ï_ÌÌ_È_ËÂÌÚ_60-6" x1="109.49" y1="108.35" x2="110.58" y2="56.35" xlink:href="#linear-gradient"/><linearGradient id="_ÂÁ_Ï_ÌÌ_È_ËÂÌÚ_58-5" x1="87.55" y1="103.52" x2="81.55" y2="42.02" xlink:href="#_ÂÁ_Ï_ÌÌ_È_ËÂÌÚ_58"/></defs><circle class="cls-2" cx="72" cy="72" r="72" transform="translate(-22.07 33.03) rotate(-22.5)"/><path class="cls-3" d="M64.15,27.58S40,58.9,40.36,67.58s4.86,46.73,4.86,46.73l56.06.81s4.91-32.69,6.17-35.71-7.25-36.2-10-41.54S75.64,27.64,64.15,27.58Z"/><path class="cls-4" d="M19.35,121.11a72.15,72.15,0,0,0,27.36,18.32,94.15,94.15,0,0,0-17.71-27C25.2,113.92,20.91,117.47,19.35,121.11Z"/><path class="cls-5" d="M110.37,110.69c-3.38-.92-19.12-4.44-23.51-5.91-1.27-.42-2.52-23.26-2.52-23.26l-26.29-1c3,4.92,2.65,22.12-.52,23.37a134.74,134.74,0,0,1-17.66,5.67,65.89,65.89,0,0,0-10.27,2.81c7.48,7.8,13,17.14,17.27,27.1a72.16,72.16,0,0,0,56.88-2.86,93.36,93.36,0,0,1,11.84-24.37A47.18,47.18,0,0,0,110.37,110.69Z"/><path class="cls-4" d="M124.91,120.83c-.16-.36-.32-.71-.49-1.06-2.48-5.27-4.61-6.07-8.44-7.51a97.59,97.59,0,0,0-12.07,24.3A72.45,72.45,0,0,0,124.91,120.83Z"/><path class="cls-6" d="M89.3,102.65c-.84-1.29-3.49-2.63-2.85-21.29-.36.44-28.92,1.11-28.92,1.11s2.93,18.58.51,21c-1.57,1.56-16.35,5.65-16.35,5.65,8.37-.52,14.31-.28,17-.56,14.06-4.77,22.25-10.24,22.25-10.24,1.4,6.65,3.9,8.15,5.55,8.82l21.48,3C95.78,106.84,90.65,104.69,89.3,102.65Z"/><path class="cls-7" d="M71,114.64s4.88.85,6.16,2.34C77.15,117,75.74,113.15,71,114.64Z"/><path class="cls-8" d="M77.11,115c4.23-3.26,8.47-2.33,13.87-3s14.58-2.57,14.58-2.57c-2.46.47-23.29,1.11-25.19,1.57S77.11,115,77.11,115Z"/><path class="cls-9" d="M67,110.23c-2.34-.78-20.18-1.87-23.39-1.56,0,0,22.51,2.23,27,5A7.38,7.38,0,0,0,67,110.23Z"/><path class="cls-10" d="M59,96c16.74,12.57,27.55-2.88,27.55-2.88V79.21L56.79,76.28C57.27,78.8,59,96,59,96Z"/><path class="cls-4" d="M107.33,109.89c-1.64,4.61-15.91,23.92-37.41,23.06C51,132.19,41,115.56,38.62,109.66c-8.52,1.67-11.4,3.62-11.4,3.62,2.31,4.06,3.64,12.07,4.52,18.42A72,72,0,0,0,114,130.47c2.2-13.33,4.94-17,4.94-17S117,111.94,107.33,109.89Z"/><path class="cls-11" d="M94.33,124.8c-3.18,1.78-17.63,8.14-21.78,8.4s-13.93-2.71-19.08-4.94-11.94,1.68-13.66,4a18.23,18.23,0,0,0-1.88,3.16A72.07,72.07,0,0,0,109,133.78C106.6,128.07,97.33,123.11,94.33,124.8Z"/><path class="cls-12" d="M71.15,129.06c-22.47.45-29.26-20-29.26-20l-2.34.57s3.63,23.93,31.07,24.14,36-24.09,36-24.09l-1.64-.43S93.62,128.61,71.15,129.06Z"/><path class="cls-13" d="M106.38,109.64c-1.95,3.62-13.6,22.63-36.34,22.45s-29.73-22.83-29.73-22.83l-2,.46s5.35,24.08,31.59,24.62c26.7.56,38.42-24.24,38.42-24.24l-.83-.21Z"/><path class="cls-14" d="M46.49,60.82c-4.52.25-3.35,5-1.36,9.43,1.29,2.9,2.51,6.19,5.83,6.19,0,0-.85-5.84-1.87-13.51C49.09,62.93,47.37,60.77,46.49,60.82Z"/><path class="cls-15" d="M47.36,68.82c1.19-7.89-4.22-8.42-3-3,0,0,.74-2.54,1.43-1.78.84.93-.9,1.44,0,5.51a11.13,11.13,0,0,0,2.69,4.35A6.13,6.13,0,0,1,47.36,68.82Z"/><path class="cls-16" d="M98.16,60.82c-.88,0-2.6,2.11-2.6,2.11-1,7.67-1.88,13.51-1.88,13.51,3.32,0,4.54-3.29,5.84-6.19C101.5,65.82,102.67,61.07,98.16,60.82Z"/><path class="cls-17" d="M97.29,68.82a6.13,6.13,0,0,1-1.12,5,11.13,11.13,0,0,0,2.69-4.35c.89-4.07-.85-4.58,0-5.51.68-.76,1.43,1.78,1.43,1.78C101.51,60.4,96.1,60.93,97.29,68.82Z"/><path class="cls-18" d="M73.73,26.6s-.91-.06-1.36-.05S71,26.6,71,26.6c-10.06.63-18.55,4.47-21.44,11-3.16,7.11-1.94,17.07-1.35,23.64.71,7.91,1.25,18.2,2.74,21.28,2.28,4.69,7.85,7.79,9.6,9.53A16.81,16.81,0,0,0,72.39,96.6c7-.27,10.19-2.86,11.84-4.13s6.43-3.89,9.45-9.35c2.57-4.61,2.45-14.66,2.65-21.87.18-6.59,2-16.53-1.16-23.64C92.28,31.07,83.78,27.23,73.73,26.6Z"/><path class="cls-19" d="M92.66,55.5a10.09,10.09,0,0,0-7.4-2C74.71,54.51,74.87,64.89,73.89,70.8c12.94,5.07,20.47-4.16,20.47-4.16S96.57,58.52,92.66,55.5Z"/><path class="cls-20" d="M58.53,53.9a9.66,9.66,0,0,0-7.15,1.94c-3.89,3.14-1,12-1,12s7.6,8.91,20.5,3.43C69.81,65.41,69.08,54.59,58.53,53.9Z"/><g class="cls-21"><rect class="cls-5" x="65.07" y="62.92" width="14.75" height="12.93"/><path class="cls-5" d="M72.12,66c3.51.06,6.29,4,6.21,8.81a11.45,11.45,0,0,1-.56,3.38V76.4H66.06V78a11.7,11.7,0,0,1-.44-3.4C65.7,69.79,68.61,65.94,72.12,66Z"/><path class="cls-22" d="M72.11,66.48c3.32.06,5.94,3.78,5.86,8.33A10.93,10.93,0,0,1,77.45,78V76.4H66.39v1.42A10.79,10.79,0,0,1,66,74.61C66.05,70.06,68.8,66.43,72.11,66.48Z"/><path class="cls-23" d="M72.11,67c3.11.06,5.58,3.56,5.51,7.84a10.42,10.42,0,0,1-.49,3V76.4H67.89v3.71a9.28,9.28,0,0,1-1.56-5.5C66.4,70.34,69,66.91,72.11,67Z"/><path class="cls-24" d="M72.1,67.45c2.92,0,5.24,3.34,5.17,7.34a8.82,8.82,0,0,1-1.64,5.11V76.4H68.14v3.38a8.85,8.85,0,0,1-1.46-5.16C66.75,70.61,69.17,67.4,72.1,67.45Z"/><path class="cls-25" d="M72.09,67.93c2.73,0,4.89,3.12,4.82,6.86a8.18,8.18,0,0,1-1.52,4.76V76.4h-7v3A8.14,8.14,0,0,1,67,74.62C67.1,70.88,69.36,67.89,72.09,67.93Z"/><path class="cls-26" d="M72.08,68.42c2.53,0,4.54,2.89,4.48,6.36a7.62,7.62,0,0,1-1.42,4.43V76.4H68.65v2.7a7.58,7.58,0,0,1-1.26-4.47C67.44,71.16,69.55,68.37,72.08,68.42Z"/><path class="cls-27" d="M72.07,68.9c2.34,0,4.19,2.67,4.14,5.88a7.06,7.06,0,0,1-1.31,4.08V76.4h-6v2.36a7,7,0,0,1-1.17-4.12C67.79,71.43,69.73,68.86,72.07,68.9Z"/><path class="cls-28" d="M72.06,69.38c2.15,0,3.85,2.45,3.8,5.39S74,80.06,71.88,80,68,77.58,68.09,74.64,69.92,69.35,72.06,69.38Z"/><path class="cls-29" d="M72.06,69.87c1.94,0,3.49,2.22,3.44,4.9s-1.66,4.81-3.61,4.78-3.49-2.23-3.45-4.9S70.11,69.84,72.06,69.87Z"/><path class="cls-30" d="M72.05,70.35c1.75,0,3.14,2,3.1,4.41s-1.5,4.33-3.25,4.3-3.14-2-3.1-4.41S70.29,70.32,72.05,70.35Z"/><path class="cls-31" d="M72,70.84c1.56,0,2.79,1.78,2.76,3.91s-1.33,3.85-2.89,3.83-2.8-1.78-2.76-3.92S70.48,70.81,72,70.84Z"/><path class="cls-32" d="M72,71.32c1.37,0,2.45,1.56,2.41,3.43s-1.16,3.37-2.52,3.34-2.45-1.55-2.42-3.42S70.67,71.3,72,71.32Z"/><path class="cls-33" d="M72,71.8c1.17,0,2.1,1.34,2.07,2.94s-1,2.89-2.17,2.87-2.09-1.34-2.06-2.94S70.85,71.78,72,71.8Z"/><path class="cls-34" d="M72,72.29c1,0,1.75,1.11,1.73,2.45s-.83,2.4-1.81,2.39S70.19,76,70.21,74.68,71,72.27,72,72.29Z"/><path class="cls-35" d="M72,72.77c.78,0,1.39.89,1.38,2s-.67,1.93-1.45,1.91-1.4-.89-1.38-2S71.23,72.76,72,72.77Z"/><path class="cls-36" d="M72,73.26c.58,0,1,.66,1,1.46s-.5,1.45-1.08,1.44-1-.67-1-1.47S71.41,73.25,72,73.26Z"/><path class="cls-37" d="M72,73.74c.39,0,.7.44.69,1s-.33,1-.72,1-.7-.44-.69-1S71.6,73.73,72,73.74Z"/><path class="cls-16" d="M72,74.22a.45.45,0,0,1,.35.49c0,.27-.17.48-.36.48s-.35-.22-.35-.49S71.79,74.22,72,74.22Z"/></g><path class="cls-38" d="M72.72,78.86c.92-.12,4.35-3.47,4.35-3.47H67.29S71.8,79,72.72,78.86Z"/><path class="cls-39" d="M72.18,71.14c-2.6.07-3.33.72-3.14,1.41.46,1.66,1.56,2,3.18,2s3-.38,3.31-2.17C75.6,71.82,74.78,71.07,72.18,71.14Z"/><path class="cls-40" d="M73.94,75.82s4.76.08,3.22-1.48C76.65,73.82,73.94,75.82,73.94,75.82Z"/><path class="cls-41" d="M67.3,74.55c-1.59,1.34,3.43,1.27,3.43,1.27S67.86,74.08,67.3,74.55Z"/><path class="cls-16" d="M72.23,75.2c-4.83-.07-5.38-2.4-6-.9-.27.61.25.79,1.1,1.09,0,0-.28-.69.8-.62.79,0,1.41,1.7,4.2,1.62,3-.08,3.39-1.56,4.16-1.6a.53.53,0,0,1,.62.6s1.41-.72.88-1.36C77,72.85,76.68,75.26,72.23,75.2Z"/><path class="cls-42" d="M61.21,64.12c-2.61-.88-12.43-3.29-12.27.5.43,9.81.73,15.32,2,17.91s6.75,7.14,8.47,7.46c2.66.51,6.24-12,6.3-15.74C65.82,69,63.83,65,61.21,64.12Z"/><path class="cls-43" d="M83,63.92c-2.74.87-4.77,5.08-4.68,10.33.07,3.76,5.18,16.07,8,15.56,1.8-.32,6.58-4.62,8.16-8.34,1.15-2.68,1.57-8.33,1.39-17C95.74,60.63,85.71,63,83,63.92Z"/><path class="cls-44" d="M72.37,88.61c-3.14.15-5.66,1.27-5.65,2.49s2.57,2.12,5.7,2,5.66-1.26,5.65-2.49S75.49,88.47,72.37,88.61Z"/><path class="cls-45" d="M70.58,25.68c-32.33.26-20.31,50.6-20.31,50.6S53.7,37.27,70,35.41c0,0,18.25-3.78,26.15,32.85C96.17,68.26,102.68,25.41,70.58,25.68Z"/><path class="cls-46" d="M89,67.67c-1.46.44-2.45,1.48-2.22,2.32s1.61,1.16,3.07.73,2.45-1.48,2.21-2.32S90.48,67.23,89,67.67Z"/><path class="cls-47" d="M92.83,55.85c-4.67-2.93-7.84-.94-7.84-.94,9.59-.66,8.46,8.46,8.46,8.46S95.32,57.41,92.83,55.85Z"/><path class="cls-48" d="M79.89,54.38a1.74,1.74,0,0,0-.94,2,1.42,1.42,0,0,1,.11-1.54c-1.13.93-1,2.49.29,2a66.57,66.57,0,0,1,8.39-2.12,12.51,12.51,0,0,1,5.1,1.07s-2.9-2.66-4.92-2.87C86.07,52.78,81.33,53.86,79.89,54.38Z"/><path class="cls-49" d="M65,54.84a1.42,1.42,0,0,1,.11,1.54,1.74,1.74,0,0,0-.94-2c-1.44-.52-6.17-1.6-8-1.41-2,.21-4.91,2.87-4.91,2.87a12.45,12.45,0,0,1,5.09-1.07,65.46,65.46,0,0,1,8.37,2.12C66,57.33,66.09,55.77,65,54.84Z"/><path class="cls-50" d="M54.81,67.65c-1.44-.49-2.83-.21-3.1.62s.68,1.9,2.12,2.4,2.83.22,3.1-.61S56.25,68.15,54.81,67.65Z"/><path class="cls-51" d="M60.56,92.06a15.3,15.3,0,0,0,23.67.41A20.19,20.19,0,0,1,72.39,96.6,17.87,17.87,0,0,1,60.56,92.06Z"/><path class="cls-52" d="M48.74,66.89s.43,7.85.72,9.55.61,4.72,1.8,6.62a36.31,36.31,0,0,0,9.3,9S54,85.25,52.64,81.65A99.33,99.33,0,0,1,48.74,66.89Z"/><path class="cls-53" d="M84.3,92.41a25.76,25.76,0,0,0,9.36-9,26.18,26.18,0,0,0,1.91-6.17c.34-1.7.6-9,.6-9A101.54,101.54,0,0,1,92.29,82C90.92,85.63,84.3,92.41,84.3,92.41Z"/><path class="cls-54" d="M49.47,116.85c4.94-2.23,11.73-10.57,8.51-18.13s-2.69-5.36-7.63-14.94-2.6-25,2.89-39.08,14.36-11,14.36-11L71.73,24c-21.25-9.13-33,17.61-35.17,30.09-1.48,8.45-3.57,19.79-6,27.56-2,6.45-13,16.4-12.95,21.89.09,7.32,3.55,11.88,2,17.87A72.73,72.73,0,0,0,29,129.76a29,29,0,0,1,1.92-2.83C35.84,120.48,44.53,119.08,49.47,116.85Z"/><path class="cls-55" d="M91.12,28.13c-11.54-5.55-16.44-5.78-20.78-4.26l-1.76,9.78a51.49,51.49,0,0,1,11.63.27c7.83,1.34,10.3,9.45,12.63,16.35,1.45,4.34,3.33,18,3.33,18s-.51-7.6,2.79-7.34c4,.33,1.11,8.33.56,9.33S90.3,89.53,90.84,95.71c1,11,5.19,10.68,8.59,12a86.29,86.29,0,0,0,14.82,3.92s-8-39.29-8.82-45.84S102.66,33.67,91.12,28.13Z"/><path class="cls-56" d="M92.49,40.08c-2.71-4.43-6.34-9.19-15-9.17-3.89,0-8.87,2.74-8.87,2.74,7.89-.82,13.63,1.09,17.57,4.36,2.44,2,6.42,12.55,9.7,18a18.2,18.2,0,0,0,9.29,7.26C96.35,56.12,94.44,43.27,92.49,40.08Z"/><path class="cls-57" d="M85.68,23.78c-8.82-3.18-12.48-.6-12.48-.6-3.4-2-9.78-2.58-15.86-.51C47.83,25.9,40,33.2,36.53,54.23c0,0,3.94-17.75,12.8-25s16.39-6.16,21.25-3.55a21.64,21.64,0,0,1,16.71.77c14.56,7.23,17.49,33.77,17.49,33.77s-.91-11-2.24-16.17C100.64,36.7,95.5,27.32,85.68,23.78Z"/><path class="cls-58" d="M59.43,109C70.52,90.71,48.48,89.38,48.74,73c.15-10.1,5-35.6,18.86-39.34,0,0-4.77-3.09-11,1.71S38.94,70.72,42.68,82.88c1.29,4.2,5.85,9.43,9.19,14.47C57,105.07,45.76,111,40.35,117c-8,8.86-4.66,15.47-.26,19.55q2.92,1.44,6,2.63C36.33,123,55.15,116,59.43,109Z"/><path class="cls-59" d="M22.49,102.52C23,96.25,28,87.32,29,85c0,0-10.28,12.88-11.06,15.94-1.35,5.29.21,8.42.71,10.41s1.51,5.38,1.28,7.41a16.08,16.08,0,0,1-.5,2.42c1.37,1.46,2.79,2.87,4.28,4.21a8.63,8.63,0,0,0,2.53-5.64C26.7,111.66,22.17,106.65,22.49,102.52Z"/><path class="cls-60" d="M96.19,82.46c-9.7,18.76,5.66,23.72,5.66,23.72C92.41,100.07,96.19,82.46,96.19,82.46Z"/><path class="cls-61" d="M109.75,110.71a45,45,0,0,0,4.5.9l-8.41-43.15Z"/><path class="cls-62" d="M103.7,89.25c-4.39-7.31-1.1-15.37-1.1-15.37-2.47,3-6,10.08-3.29,17.39s10.16,9.58,15.11,13.36,3.57,7.06,3.57,7.06C122.66,102.61,108.1,96.56,103.7,89.25Z"/><path class="cls-63" d="M34.69,106.6c1.13-5.67,9.49-11.38,12.42-17.22S43.23,74.82,42.27,72c-2.86,6.64-13.54,21.65-15.06,31.89-1.39,9.41,3.5,10.57,2,21.06a11,11,0,0,1-1.43,3.84c1.79,1.4,3.66,2.72,5.59,3.95,1.68-2.27,3.33-4.6,3.9-7.63C39.27,114.57,33,115.12,34.69,106.6Z"/><polygon class="cls-64" points="68.58 33.65 69.32 29.57 67.6 33.68 68.58 33.65"/><path class="cls-65" d="M85.34,58.49c-7.09,0-7.74,4.28-7.89,7.37a20.54,20.54,0,0,1,2.15.54,16.14,16.14,0,0,0,5.49,1.1c1.89,0,6-.86,6-4.88C91.16,59.45,87.05,58.63,85.34,58.49Z"/><path class="cls-66" d="M77.77,65.61a25.33,25.33,0,0,1,3.65,1,3.08,3.08,0,0,1-1.25-2.7A4.84,4.84,0,0,1,81.78,61,12,12,0,0,0,77.77,65.61Z"/><path class="cls-67" d="M77.77,65.61a12.81,12.81,0,0,1,2.46-2,3.43,3.43,0,0,1,1.34-2.12C79.27,62.57,77.77,65.61,77.77,65.61Z"/><path class="cls-68" d="M87.26,64.29a3.37,3.37,0,0,1-1.74,2.76,6.45,6.45,0,0,0,5.32-3.77c-2.56-2.1-4.4-2.75-6.14-2.91A3.91,3.91,0,0,1,87.26,64.29Z"/><path class="cls-69" d="M80.22,63.5a3.12,3.12,0,0,0,0,.44,2.93,2.93,0,0,0,1.25,2.7,12.68,12.68,0,0,0,4.48.4,3.26,3.26,0,0,0,1.82-2.66,3.73,3.73,0,0,0-.37-1.85A8.09,8.09,0,0,0,80.22,63.5Z"/><path class="cls-67" d="M85.89,61.15a3.52,3.52,0,0,1,1.67,2A10.63,10.63,0,0,1,90,64.49l.7-1.39C89.65,61.84,87.72,61.49,85.89,61.15Z"/><path class="cls-70" d="M85.89,61.15a9.15,9.15,0,0,0-3.34,0,3.8,3.8,0,0,0-1,.34,3.31,3.31,0,0,0-1.36,2.12,8.45,8.45,0,0,1,3.51-1.12,8.29,8.29,0,0,1,3.86.66A3.4,3.4,0,0,0,85.89,61.15Z"/><path class="cls-71" d="M84.05,61.37a2.27,2.27,0,1,0,2.2,2.44A2.32,2.32,0,0,0,84.05,61.37Z"/><path class="cls-72" d="M84.46,62.71a.67.67,0,0,0-.91.25.64.64,0,0,0,.22.89.69.69,0,0,0,.91-.25A.64.64,0,0,0,84.46,62.71Z"/><path class="cls-72" d="M86.6,63.65a.88.88,0,1,0-.89,1.51.88.88,0,1,0,.89-1.51Z"/><path class="cls-73" d="M92.42,60.17s-.69,1.43-4.15.2c-6.65-2.12-10.36,1.71-10.5,5.24,0,0,2-3.88,5.78-4.25,2.3-.22,4.29.72,6.28,1.78a5.74,5.74,0,0,1-4.4,3.6c2,0,6.33-1.62,6.65-3.26a.9.9,0,0,1-1.07.15S92.88,62.9,92.42,60.17Z"/><path class="cls-74" d="M81.94,58.82a6.44,6.44,0,0,0-3.31,2.43,7.12,7.12,0,0,1,3.52-2.08,15.13,15.13,0,0,1,6.12,0A8.9,8.9,0,0,0,81.94,58.82Z"/><path class="cls-75" d="M83.27,61a7.05,7.05,0,0,0-5.5,4.59,8.15,8.15,0,0,1,5.59-4c2.24-.4,4.77.69,6.47,1.54A7.9,7.9,0,0,0,83.27,61Z"/><path class="cls-76" d="M59.79,78.22c-.25.47-.22,1.37.4,1.58a12.73,12.73,0,0,1,3.56,1.71C62.75,80.08,60,77.8,59.79,78.22Z"/><path class="cls-77" d="M80.78,81.53a10,10,0,0,1,3.14-1.72c.86-.52.89-1.25.59-1.7S81.67,80,80.78,81.53Z"/><path class="cls-78" d="M66.17,84.66c1.18,2.47,7.62,5.92,12.38-.07C78.55,84.59,71.79,87.58,66.17,84.66Z"/><path class="cls-79" d="M71.62,80.42a49.26,49.26,0,0,1-11.05-1.27h0l.1.15a12.63,12.63,0,0,1,2.76,1.35c.77.55,1.52,4.24,9.07,4.15a11,11,0,0,0,9-4.23,6.47,6.47,0,0,1,2.08-1.48c0-.07.05-.1.07-.17A36.88,36.88,0,0,1,71.62,80.42Z"/><path class="cls-80" d="M78.42,81.08a38.89,38.89,0,0,1-12.09.45c-1.22-.53-1.1,1-1.1,1,2.66,2.69,4.79,2.18,6.93,2.24a11.53,11.53,0,0,0,7.12-2.44C79.46,81.83,79,80.94,78.42,81.08Z"/><path class="cls-81" d="M68.07,80.54a19.13,19.13,0,0,1-3.87-.65,4,4,0,0,1,.52.83c.25.59,1.53,2.57,7.61,2.49,4.57-.06,7-1.66,7.31-2.64.19-.59.62-.85.65-1a15.37,15.37,0,0,1-4.62,1A40.19,40.19,0,0,1,68.07,80.54Z"/><path class="cls-82" d="M72.91,84.54c-9.29,0-6.06-3.75-12.24-5.23a11.62,11.62,0,0,1,3,2.61c1.8,2,3.34,5.27,8.55,5.22,4.69,0,7.28-3.42,8.77-5.28a15.16,15.16,0,0,1,2.61-2.76C78.61,80.46,80.29,84.31,72.91,84.54Z"/><path class="cls-83" d="M76.86,83.6a17.37,17.37,0,0,1-4.74.86,12.78,12.78,0,0,1-4.71-.76,14.15,14.15,0,0,1-3-2.46c.34.45,2.35,5.31,7.58,5.19,6-.13,7.13-4.14,8.21-5.33A9.22,9.22,0,0,1,76.86,83.6Z"/><path class="cls-84" d="M74.66,84.69c-.61.21-2.71.36-2.63.57a3.48,3.48,0,0,0,2.92.19c1.23-.34,1.81-1,1.73-1.25S75.27,84.48,74.66,84.69Z"/><path class="cls-79" d="M60.77,79.67a9,9,0,0,1,2.11.41,21.58,21.58,0,0,0-2.64-1.2C60.12,78.93,60.23,79.43,60.77,79.67Z"/><path class="cls-79" d="M81.62,79.93a7.34,7.34,0,0,1,2-.47c.54-.25.63-.73.52-.8A12.73,12.73,0,0,0,81.62,79.93Z"/><path class="cls-85" d="M64.73,80.75s2.63,1.39,8,1.37a17,17,0,0,0,6.85-1.48l.31-.71L64.33,80Z"/><path class="cls-82" d="M75.69,79.51a20.61,20.61,0,0,0-3.3.16,33.77,33.77,0,0,0-3.84-.21,24.93,24.93,0,0,1-7.48-.27s1.1.67,6.54,1.7a22,22,0,0,0,4.72.58,28.07,28.07,0,0,0,5.19-.66A25.77,25.77,0,0,0,83.24,79,33,33,0,0,1,75.69,79.51Z"/><path class="cls-86" d="M74.65,79.67a21.27,21.27,0,0,1-2.6.2c-.54,0-2-.26-2.46-.26a14.32,14.32,0,0,0-3.2.43c-.15.55,6,.94,6.6.89s5.33-.62,5.36-.85S75.1,79.57,74.65,79.67Z"/><path class="cls-87" d="M59,58.49c-1.71.14-5.83,1-5.78,4.13.06,4,4.14,4.87,6,4.88a16.14,16.14,0,0,0,5.49-1.1,19.93,19.93,0,0,1,2.15-.54C66.76,62.77,66.11,58.49,59,58.49Z"/><path class="cls-88" d="M62.58,61a4.84,4.84,0,0,1,1.61,2.93,3.1,3.1,0,0,1-1.25,2.7,25.33,25.33,0,0,1,3.65-1A12,12,0,0,0,62.58,61Z"/><path class="cls-67" d="M62.79,61.47a3.43,3.43,0,0,1,1.34,2.12,12.81,12.81,0,0,1,2.46,2S65.08,62.57,62.79,61.47Z"/><path class="cls-89" d="M59.66,60.37c-1.74.16-3.58.81-6.14,2.91a6.44,6.44,0,0,0,5.31,3.77,3.38,3.38,0,0,1-1.73-2.76A3.9,3.9,0,0,1,59.66,60.37Z"/><path class="cls-90" d="M64.13,63.5a8.07,8.07,0,0,0-7.12-1,3.73,3.73,0,0,0-.37,1.85A3.26,3.26,0,0,0,58.46,67a12.68,12.68,0,0,0,4.48-.4,3,3,0,0,0,1.25-2.7A3.11,3.11,0,0,0,64.13,63.5Z"/><path class="cls-67" d="M53.7,63.1l.7,1.39a10.63,10.63,0,0,1,2.4-1.37,3.52,3.52,0,0,1,1.67-2C56.63,61.49,54.71,61.84,53.7,63.1Z"/><path class="cls-91" d="M62.79,61.47a3.74,3.74,0,0,0-1-.34,9.1,9.1,0,0,0-3.33,0,3.4,3.4,0,0,0-1.69,2,8.27,8.27,0,0,1,3.85-.66,8.45,8.45,0,0,1,3.52,1.12A3.35,3.35,0,0,0,62.79,61.47Z"/><path class="cls-92" d="M60.31,61.37a2.27,2.27,0,1,0,2.54,2.09A2.32,2.32,0,0,0,60.31,61.37Z"/><path class="cls-72" d="M60.83,62.71a.69.69,0,0,0-.92.25.64.64,0,0,0,.22.89A.69.69,0,0,0,61,63.6.63.63,0,0,0,60.83,62.71Z"/><path class="cls-72" d="M63,63.65a.87.87,0,1,0,.33,1.21A.89.89,0,0,0,63,63.65Z"/><path class="cls-93" d="M56.09,60.37c-3.46,1.23-4.15-.2-4.15-.2-.46,2.73,1.41,3.46,1.41,3.46a.9.9,0,0,1-1.07-.15c.32,1.64,4.69,3.27,6.65,3.26a6,6,0,0,1-4.4-3.6c2-1.06,4-2,6.28-1.78,3.78.37,5.78,4.25,5.78,4.25C66.45,62.08,62.74,58.25,56.09,60.37Z"/><path class="cls-94" d="M62.42,58.82a8.9,8.9,0,0,0-6.33.33,15.13,15.13,0,0,1,6.12,0,7.12,7.12,0,0,1,3.52,2.08A6.44,6.44,0,0,0,62.42,58.82Z"/><path class="cls-75" d="M61.09,61a7.9,7.9,0,0,0-6.56,2.12c1.7-.85,4.23-1.94,6.46-1.54a8.19,8.19,0,0,1,5.6,4A7.05,7.05,0,0,0,61.09,61Z"/><path class="cls-95" d="M58.93,66.74a12.79,12.79,0,0,1-4.84-1.46c.57.93,3.3,2,3.8,2a25.58,25.58,0,0,0,3.74,0,44.33,44.33,0,0,0,5-1.68s-1.33.29-2,.51A16.07,16.07,0,0,1,58.93,66.74Z"/><path class="cls-96" d="M81,66.45,79.28,66A19.1,19.1,0,0,0,82.05,67a13.13,13.13,0,0,0,4.1.35,18.88,18.88,0,0,0,4-2,15.46,15.46,0,0,1-4.68,1.37A11.74,11.74,0,0,1,81,66.45Z"/><path class="cls-97" d="M50.56,80.81c3.39,8.28,10.15,10.78,9.1,20.62s-10.75,13.9-13.33,16.63c-6.34,6.72-2.48,16.14-2.48,16.14-1.7-8.08,5.48-16.3,10.24-19.44s9.64-9.29,8.7-16.89S56.92,90.52,50.56,80.81Z"/><path class="cls-98" d="M48.08,32.3C40.75,42.62,37.13,61.15,37.13,61.15S43,43.75,48.08,36.49c2.2-3.11,7.46-7.45,11.58-7.68a7.91,7.91,0,0,1,7.94,4.87l1.18-2.81.54-1.3C62.52,21.86,52.14,26.6,48.08,32.3Z"/><path class="cls-99" d="M69.32,29.57l-.74,4.08s6.49-7.26,14.87-4.08c6.79,2.59,11.8,10.62,13.26,16.29,1.12,4.39,5.83,11.28,5.83,11.28S100.24,49,98.31,42.8C91.39,20.66,73.75,26.35,69.32,29.57Z"/><path class="cls-100" d="M23.91,112c2.91,11.21,7.73,14.25,7.73,14.25s-5-10.57-3.38-17.41,6.63-12.82,12.27-18.13c7.69-7.23,7.69-29.5,7.69-29.5S45,80.09,36,89.82C27.28,99.32,20.78,100,23.91,112Z"/><path class="cls-101" d="M46.33,94.76c-1.34,5.37-2.62,5.8-9,13.62C33,113.61,36.45,121,36.45,121c2.2-9.2,10-13.14,12.49-18.75,2.74-6.3-2.22-25.77-2.22-25.77C47,79.82,48.46,86.31,46.33,94.76Z"/><path class="cls-102" d="M46.92,42.4C42.19,52.44,42.68,54,40,60c-4.45,9.78-16.35,12.1-16.28,23.59,0,6.57,1.59,9.56,1.59,9.56.37-11.2,2.31-13.82,8.86-17.91,6.08-3.8,8.88-3.73,10.77-10.8,2.24-8.36,6.82-21.24,9.39-24.19,7.38-8.48,13.28-6.54,13.28-6.54C64.85,28.89,52.43,30.73,46.92,42.4Z"/><path class="cls-103" d="M28.06,77.6C21,83.08,25.3,93.12,25.3,93.12c.24-7.19,1.2-9.19,4.27-13.46s11.88-4.72,14.61-10,6.39-22.14,6.39-22.14-6.2,18.23-10.08,22.14C37.23,73,35.14,72.11,28.06,77.6Z"/><path class="cls-104" d="M53.24,29.13c-6.91,5.6-10.06,16.51-10.06,16.51,1.4-3.84,10.15-15.84,16.1-16.51a7.41,7.41,0,0,1,7.89,4.35l.43.2a10.54,10.54,0,0,0-2.5-5.17C63.05,26.57,56.83,26.22,53.24,29.13Z"/><path class="cls-105" d="M79.28,27.82c-5.64,0-10.7,5.83-10.7,5.83h.58s5.52-5.58,13-3.58c6,1.6,7.79,3.25,10.83,8.51a79.44,79.44,0,0,1,4.54,9.61s-2.06-6.72-4.68-12.74C91.44,32.24,87.58,27.8,79.28,27.82Z"/><path class="cls-106" d="M102.54,86.89c-2.54-4.27-.37-12.46-.37-12.46A32.84,32.84,0,0,0,100.46,87c.27,3.73,9.52,12.07,14.66,15.69a7.51,7.51,0,0,1,2.87,9c1.9-4,1.52-6.58-2.26-10.31S105.09,91.17,102.54,86.89Z"/><path class="cls-107" d="M80.21,34.5a28.61,28.61,0,0,0-11.63-.85s7.4.44,12,2.67c10.8,5.29,15.6,30.8,15.6,30.8C94.06,42.61,87.9,37,80.21,34.5Z"/></svg>