<svg id="Layer_1" data-name="Layer 1" xmlns="http://www.w3.org/2000/svg" xmlns:xlink="http://www.w3.org/1999/xlink" viewBox="0 0 144 144"><defs><style>.cls-1{fill:#f6ece6;}.cls-2{fill:url(#_ÂÁ_Ï_ÌÌ_È_ËÂÌÚ_1204);}.cls-3{fill:url(#_ÂÁ_Ï_ÌÌ_È_ËÂÌÚ_1204-2);}.cls-4{fill:#783c2d;}.cls-5{fill:url(#_ÂÁ_Ï_ÌÌ_È_ËÂÌÚ_996);}.cls-6{fill:url(#linear-gradient);}.cls-7{fill:url(#linear-gradient-2);}.cls-8{fill:url(#linear-gradient-3);}.cls-9{fill:#f0c499;}.cls-10{fill:url(#linear-gradient-4);}.cls-11{fill:url(#linear-gradient-5);}.cls-12{fill:url(#_ÂÁ_Ï_ÌÌ_È_ËÂÌÚ_38);}.cls-13{fill:url(#linear-gradient-6);}.cls-14{fill:url(#linear-gradient-7);}.cls-15{fill:url(#radial-gradient);}.cls-16{fill:url(#radial-gradient-2);}.cls-17{fill:url(#linear-gradient-8);}.cls-18{fill:url(#linear-gradient-9);}.cls-19{fill:url(#linear-gradient-10);}.cls-20{fill:url(#linear-gradient-11);}.cls-21{fill:#e1b28d;}.cls-22{fill:#721e23;}.cls-23{fill:#fcd8b4;}.cls-24{fill:url(#linear-gradient-12);}.cls-25{fill:url(#_ÂÁ_Ï_ÌÌ_È_ËÂÌÚ_1204-3);}.cls-26{fill:url(#linear-gradient-13);}.cls-27{fill:url(#linear-gradient-14);}.cls-28{fill:url(#_ÂÁ_Ï_ÌÌ_È_ËÂÌÚ_1204-4);}.cls-29{fill:url(#_ÂÁ_Ï_ÌÌ_È_ËÂÌÚ_1025);}.cls-30{fill:url(#linear-gradient-15);}.cls-31{fill:#f1f0f0;}.cls-32{fill:url(#_ÂÁ_Ï_ÌÌ_È_ËÂÌÚ_1024);}.cls-33{fill:url(#_ÂÁ_Ï_ÌÌ_È_ËÂÌÚ_1024-2);}.cls-34{fill:#393f45;}.cls-35{fill:#fff;}.cls-36{fill:url(#_ÂÁ_Ï_ÌÌ_È_ËÂÌÚ_1204-5);}.cls-37{fill:url(#_ÂÁ_Ï_ÌÌ_È_ËÂÌÚ_1204-6);}.cls-38{fill:url(#linear-gradient-16);}.cls-39{fill:url(#_ÂÁ_Ï_ÌÌ_È_ËÂÌÚ_1024-3);}.cls-40{fill:url(#linear-gradient-17);}.cls-41{fill:url(#_ÂÁ_Ï_ÌÌ_È_ËÂÌÚ_1204-7);}.cls-42{fill:url(#linear-gradient-18);}.cls-43{fill:url(#linear-gradient-19);}.cls-44{fill:url(#_ÂÁ_Ï_ÌÌ_È_ËÂÌÚ_2081);}.cls-45{fill:url(#_ÂÁ_Ï_ÌÌ_È_ËÂÌÚ_4011);}.cls-46{fill:url(#_ÂÁ_Ï_ÌÌ_È_ËÂÌÚ_4011-2);}.cls-47{fill:url(#_ÂÁ_Ï_ÌÌ_È_ËÂÌÚ_4011-3);}.cls-48{fill:url(#linear-gradient-20);}.cls-49{fill:#dca57c;}.cls-50{fill:url(#linear-gradient-21);}.cls-51{fill:url(#linear-gradient-22);}.cls-52{fill:url(#_ÂÁ_Ï_ÌÌ_È_ËÂÌÚ_2132);}.cls-53{fill:url(#_ÂÁ_Ï_ÌÌ_È_ËÂÌÚ_4016);}.cls-54{fill:url(#_ÂÁ_Ï_ÌÌ_È_ËÂÌÚ_4015);}.cls-55{fill:url(#linear-gradient-23);}.cls-56{fill:url(#linear-gradient-24);}.cls-57{fill:url(#linear-gradient-25);}.cls-58{fill:url(#linear-gradient-26);}.cls-59{fill:#f5f6f7;}.cls-60{fill:url(#_ÂÁ_Ï_ÌÌ_È_ËÂÌÚ_62);}.cls-61{fill:url(#_ÂÁ_Ï_ÌÌ_È_ËÂÌÚ_62-2);}.cls-62{fill:url(#_ÂÁ_Ï_ÌÌ_È_ËÂÌÚ_62-3);}.cls-63{fill:url(#_ÂÁ_Ï_ÌÌ_È_ËÂÌÚ_62-4);}.cls-64{fill:url(#linear-gradient-27);}.cls-65{fill:url(#linear-gradient-28);}.cls-66{fill:url(#_ÂÁ_Ï_ÌÌ_È_ËÂÌÚ_986);}.cls-67{fill:url(#_ÂÁ_Ï_ÌÌ_È_ËÂÌÚ_1204-8);}.cls-68{fill:url(#linear-gradient-29);}</style><linearGradient id="_ÂÁ_Ï_ÌÌ_È_ËÂÌÚ_1204" x1="75.84" y1="100.28" x2="79.91" y2="115.48" gradientUnits="userSpaceOnUse"><stop offset="0" stop-color="#dca47a"/><stop offset="0.5" stop-color="#e5b287"/><stop offset="1" stop-color="#f0c499"/></linearGradient><linearGradient id="_ÂÁ_Ï_ÌÌ_È_ËÂÌÚ_1204-2" x1="60.1" y1="80.25" x2="86.05" y2="110.5" xlink:href="#_ÂÁ_Ï_ÌÌ_È_ËÂÌÚ_1204"/><linearGradient id="_ÂÁ_Ï_ÌÌ_È_ËÂÌÚ_996" x1="73.03" y1="110.4" x2="72.31" y2="143.76" gradientUnits="userSpaceOnUse"><stop offset="0" stop-color="#783c2d"/><stop offset="0.54" stop-color="#7c4031"/><stop offset="1" stop-color="#854a39"/></linearGradient><linearGradient id="linear-gradient" x1="72.56" y1="90.06" x2="72.56" y2="112.31" gradientUnits="userSpaceOnUse"><stop offset="0" stop-color="#783c2d"/><stop offset="0.56" stop-color="#683326"/><stop offset="1" stop-color="#623023"/></linearGradient><linearGradient id="linear-gradient-2" x1="111.61" y1="119.14" x2="112" y2="100.28" gradientUnits="userSpaceOnUse"><stop offset="0" stop-color="#783c2d"/><stop offset="0.54" stop-color="#7b3f30"/><stop offset="0.97" stop-color="#844938"/><stop offset="1" stop-color="#854a39"/></linearGradient><linearGradient id="linear-gradient-3" x1="32.77" y1="119.61" x2="33.18" y2="99.53" xlink:href="#linear-gradient-2"/><linearGradient id="linear-gradient-4" x1="41.4" y1="62.28" x2="46.91" y2="75.65" xlink:href="#_ÂÁ_Ï_ÌÌ_È_ËÂÌÚ_1204"/><linearGradient id="linear-gradient-5" x1="98.4" y1="63.61" x2="102.47" y2="73.48" xlink:href="#_ÂÁ_Ï_ÌÌ_È_ËÂÌÚ_1204"/><linearGradient id="_ÂÁ_Ï_ÌÌ_È_ËÂÌÚ_38" x1="72.64" y1="36.75" x2="72.14" y2="63.52" gradientUnits="userSpaceOnUse"><stop offset="0" stop-color="#fed8b4"/><stop offset="0.33" stop-color="#fad6af"/><stop offset="1" stop-color="#f6d4ab"/></linearGradient><linearGradient id="linear-gradient-6" x1="85.32" y1="68.06" x2="84.57" y2="59.26" gradientUnits="userSpaceOnUse"><stop offset="0" stop-color="#f6d4ab"/><stop offset="0.52" stop-color="#f5d2a8"/><stop offset="0.85" stop-color="#f2caa0"/><stop offset="1" stop-color="#f0c499"/></linearGradient><linearGradient id="linear-gradient-7" x1="59.01" y1="68.01" x2="58.27" y2="59.35" xlink:href="#linear-gradient-6"/><radialGradient id="radial-gradient" cx="91.51" cy="123.18" r="20.07" gradientTransform="translate(35.83 5.47) scale(0.55 0.54)" gradientUnits="userSpaceOnUse"><stop offset="0" stop-color="#f8c49d"/><stop offset="1" stop-color="#f6d4ab"/></radialGradient><radialGradient id="radial-gradient-2" cx="34.69" cy="123.79" r="20.21" xlink:href="#radial-gradient"/><linearGradient id="linear-gradient-8" x1="83.99" y1="95.7" x2="83.69" y2="77.54" gradientUnits="userSpaceOnUse"><stop offset="0" stop-color="#f6d4ab"/><stop offset="0.53" stop-color="#f5d2a8"/><stop offset="0.87" stop-color="#f3caa0"/><stop offset="1" stop-color="#f2c59a"/></linearGradient><linearGradient id="linear-gradient-9" x1="72.41" y1="92.59" x2="72.35" y2="88.88" xlink:href="#linear-gradient-8"/><linearGradient id="linear-gradient-10" x1="60.14" y1="95.4" x2="59.83" y2="76.82" xlink:href="#linear-gradient-8"/><linearGradient id="linear-gradient-11" x1="95.23" y1="67.3" x2="87.42" y2="69.99" gradientUnits="userSpaceOnUse"><stop offset="0" stop-color="#fad6b0"/><stop offset="1" stop-color="#f6d4ab"/></linearGradient><linearGradient id="linear-gradient-12" x1="63.46" y1="83.83" x2="81.48" y2="84.14" gradientUnits="userSpaceOnUse"><stop offset="0" stop-color="#e8d9d7"/><stop offset="0.14" stop-color="#f0e6e4"/><stop offset="0.39" stop-color="#fbf8f8"/><stop offset="0.57" stop-color="#fff"/><stop offset="1" stop-color="#e8d3d1"/></linearGradient><linearGradient id="_ÂÁ_Ï_ÌÌ_È_ËÂÌÚ_1204-3" x1="72.92" y1="100.7" x2="72.44" y2="86.89" xlink:href="#_ÂÁ_Ï_ÌÌ_È_ËÂÌÚ_1204"/><linearGradient id="linear-gradient-13" x1="71.82" y1="77.09" x2="72.1" y2="83.76" gradientUnits="userSpaceOnUse"><stop offset="0" stop-color="#e8d9d7"/><stop offset="0.4" stop-color="#efe5e4"/><stop offset="1" stop-color="#fff"/></linearGradient><linearGradient id="linear-gradient-14" x1="71.99" y1="79.17" x2="71.88" y2="83.28" xlink:href="#linear-gradient-13"/><linearGradient id="_ÂÁ_Ï_ÌÌ_È_ËÂÌÚ_1204-4" x1="72.54" y1="103.36" x2="72.07" y2="74.74" xlink:href="#_ÂÁ_Ï_ÌÌ_È_ËÂÌÚ_1204"/><linearGradient id="_ÂÁ_Ï_ÌÌ_È_ËÂÌÚ_1025" x1="53.58" y1="60.71" x2="67.2" y2="64.54" gradientUnits="userSpaceOnUse"><stop offset="0" stop-color="#f0c499"/><stop offset="0.5" stop-color="#e5b287"/><stop offset="1" stop-color="#dca47a"/></linearGradient><linearGradient id="linear-gradient-15" x1="65.4" y1="64.46" x2="56.39" y2="62.29" gradientUnits="userSpaceOnUse"><stop offset="0" stop-color="#f7f5f4"/><stop offset="0.39" stop-color="#fdfdfc"/><stop offset="1" stop-color="#fff"/></linearGradient><linearGradient id="_ÂÁ_Ï_ÌÌ_È_ËÂÌÚ_1024" x1="63.53" y1="63.32" x2="53.49" y2="63.72" gradientUnits="userSpaceOnUse"><stop offset="0" stop-color="#c6c6c0"/><stop offset="1" stop-color="#95958d"/></linearGradient><linearGradient id="_ÂÁ_Ï_ÌÌ_È_ËÂÌÚ_1024-2" x1="62.56" y1="73.09" x2="59.8" y2="63.62" xlink:href="#_ÂÁ_Ï_ÌÌ_È_ËÂÌÚ_1024"/><linearGradient id="_ÂÁ_Ï_ÌÌ_È_ËÂÌÚ_1204-5" x1="67.04" y1="61.04" x2="52.88" y2="65.38" xlink:href="#_ÂÁ_Ï_ÌÌ_È_ËÂÌÚ_1204"/><linearGradient id="_ÂÁ_Ï_ÌÌ_È_ËÂÌÚ_1204-6" x1="77.41" y1="61.24" x2="90.79" y2="65.01" xlink:href="#_ÂÁ_Ï_ÌÌ_È_ËÂÌÚ_1204"/><linearGradient id="linear-gradient-16" x1="89.37" y1="64.58" x2="80.26" y2="62.38" xlink:href="#linear-gradient-15"/><linearGradient id="_ÂÁ_Ï_ÌÌ_È_ËÂÌÚ_1024-3" x1="87.58" y1="63.29" x2="77.54" y2="63.7" xlink:href="#_ÂÁ_Ï_ÌÌ_È_ËÂÌÚ_1024"/><linearGradient id="linear-gradient-17" x1="81.76" y1="60.76" x2="94.6" y2="67.3" gradientUnits="userSpaceOnUse"><stop offset="0" stop-color="#95958d"/><stop offset="1" stop-color="#c6c6c0"/></linearGradient><linearGradient id="_ÂÁ_Ï_ÌÌ_È_ËÂÌÚ_1204-7" x1="106.49" y1="59.69" x2="88.54" y2="65.19" xlink:href="#_ÂÁ_Ï_ÌÌ_È_ËÂÌÚ_1204"/><linearGradient id="linear-gradient-18" x1="57" y1="69.1" x2="45.42" y2="66.27" xlink:href="#linear-gradient-11"/><linearGradient id="linear-gradient-19" x1="85.58" y1="100.24" x2="98.04" y2="74.61" gradientUnits="userSpaceOnUse"><stop offset="0" stop-color="#f5d2ab"/><stop offset="1" stop-color="#fed8b3"/></linearGradient><linearGradient id="_ÂÁ_Ï_ÌÌ_È_ËÂÌÚ_2081" x1="48.32" y1="92.93" x2="56.17" y2="76.78" gradientUnits="userSpaceOnUse"><stop offset="0" stop-color="#f6d4ab"/><stop offset="0.76" stop-color="#f2c99e"/><stop offset="1" stop-color="#f0c499"/></linearGradient><linearGradient id="_ÂÁ_Ï_ÌÌ_È_ËÂÌÚ_4011" x1="94.7" y1="59.78" x2="84.73" y2="56.56" gradientUnits="userSpaceOnUse"><stop offset="0" stop-color="#f7f9fb"/><stop offset="0.32" stop-color="#f4f5f6"/><stop offset="1" stop-color="#f1f1f2"/></linearGradient><linearGradient id="_ÂÁ_Ï_ÌÌ_È_ËÂÌÚ_4011-2" x1="50.66" y1="57.2" x2="62.1" y2="55.55" xlink:href="#_ÂÁ_Ï_ÌÌ_È_ËÂÌÚ_4011"/><linearGradient id="_ÂÁ_Ï_ÌÌ_È_ËÂÌÚ_4011-3" x1="72.67" y1="87.84" x2="71.86" y2="77.07" xlink:href="#_ÂÁ_Ï_ÌÌ_È_ËÂÌÚ_4011"/><linearGradient id="linear-gradient-20" x1="71.9" y1="50.81" x2="72.45" y2="73.88" gradientUnits="userSpaceOnUse"><stop offset="0" stop-color="#fed8b4"/><stop offset="0.25" stop-color="#fbd6b1"/><stop offset="1" stop-color="#f6d4ab"/></linearGradient><linearGradient id="linear-gradient-21" x1="71.83" y1="65.92" x2="72.06" y2="73.78" xlink:href="#linear-gradient-6"/><linearGradient id="linear-gradient-22" x1="71.44" y1="76.02" x2="72.52" y2="68.03" xlink:href="#_ÂÁ_Ï_ÌÌ_È_ËÂÌÚ_38"/><linearGradient id="_ÂÁ_Ï_ÌÌ_È_ËÂÌÚ_2132" x1="71.47" y1="73.71" x2="72.66" y2="85.5" gradientUnits="userSpaceOnUse"><stop offset="0" stop-color="#f7f9fb"/><stop offset="0.33" stop-color="#eef0f2"/><stop offset="0.86" stop-color="#d7d9da"/><stop offset="1" stop-color="#cfd1d2"/></linearGradient><linearGradient id="_ÂÁ_Ï_ÌÌ_È_ËÂÌÚ_4016" x1="97.63" y1="38.97" x2="98.22" y2="58.84" gradientUnits="userSpaceOnUse"><stop offset="0" stop-color="#f7f9fb"/><stop offset="1" stop-color="#f1f1f2"/></linearGradient><linearGradient id="_ÂÁ_Ï_ÌÌ_È_ËÂÌÚ_4015" x1="46.24" y1="40.78" x2="46.68" y2="60.35" xlink:href="#_ÂÁ_Ï_ÌÌ_È_ËÂÌÚ_4016"/><linearGradient id="linear-gradient-23" x1="72.35" y1="50.53" x2="72.1" y2="47.63" xlink:href="#linear-gradient-6"/><linearGradient id="linear-gradient-24" x1="72.52" y1="45.29" x2="72.3" y2="42.67" xlink:href="#linear-gradient-6"/><linearGradient id="linear-gradient-25" x1="75.21" y1="58.22" x2="74.79" y2="53.34" xlink:href="#linear-gradient-6"/><linearGradient id="linear-gradient-26" x1="69.72" y1="58.92" x2="69.23" y2="53.2" xlink:href="#linear-gradient-6"/><linearGradient id="_ÂÁ_Ï_ÌÌ_È_ËÂÌÚ_62" x1="95.94" y1="36.73" x2="94.99" y2="103.9" gradientUnits="userSpaceOnUse"><stop offset="0" stop-color="#f7f9fb"/><stop offset="0.04" stop-color="#f4f6f8"/><stop offset="0.37" stop-color="#e0e2e3"/><stop offset="0.69" stop-color="#d3d5d6"/><stop offset="1" stop-color="#cfd1d2"/></linearGradient><linearGradient id="_ÂÁ_Ï_ÌÌ_È_ËÂÌÚ_62-2" x1="48.77" y1="38.95" x2="47.85" y2="103.21" xlink:href="#_ÂÁ_Ï_ÌÌ_È_ËÂÌÚ_62"/><linearGradient id="_ÂÁ_Ï_ÌÌ_È_ËÂÌÚ_62-3" x1="97.38" y1="49.9" x2="99.25" y2="79.54" xlink:href="#_ÂÁ_Ï_ÌÌ_È_ËÂÌÚ_62"/><linearGradient id="_ÂÁ_Ï_ÌÌ_È_ËÂÌÚ_62-4" x1="46.04" y1="52.87" x2="47.95" y2="83.07" xlink:href="#_ÂÁ_Ï_ÌÌ_È_ËÂÌÚ_62"/><linearGradient id="linear-gradient-27" x1="48.8" y1="93.18" x2="48.92" y2="56.42" xlink:href="#linear-gradient-6"/><linearGradient id="linear-gradient-28" x1="94.99" y1="97.23" x2="95.12" y2="56.43" xlink:href="#linear-gradient-6"/><linearGradient id="_ÂÁ_Ï_ÌÌ_È_ËÂÌÚ_986" x1="72.38" y1="99.35" x2="72.6" y2="91.39" gradientUnits="userSpaceOnUse"><stop offset="0" stop-color="#f6d4ab"/><stop offset="0.67" stop-color="#fad6af"/><stop offset="1" stop-color="#fed8b4"/></linearGradient><linearGradient id="_ÂÁ_Ï_ÌÌ_È_ËÂÌÚ_1204-8" x1="72.99" y1="103.42" x2="73.29" y2="107.49" xlink:href="#_ÂÁ_Ï_ÌÌ_È_ËÂÌÚ_1204"/><linearGradient id="linear-gradient-29" x1="71.63" y1="52.53" x2="72.22" y2="37.2" gradientUnits="userSpaceOnUse"><stop offset="0" stop-color="#f6d9b7"/><stop offset="1" stop-color="#feddbe"/></linearGradient></defs><circle class="cls-1" cx="72" cy="72" r="72" transform="translate(-19.8 27.95) rotate(-19.36)"/><path class="cls-2" d="M86.06,78.65s-10.59,5.61-27.65-.4A113.63,113.63,0,0,1,57.64,92a17.87,17.87,0,0,0,15.68,9.68c6.2,0,13.71-7.89,14.67-10.07C88,91.64,86,81.1,86.06,78.65Z"/><path class="cls-3" d="M87,83.05S68.51,81.38,57.32,81c0,13.83-3.2,15.56-3.2,15.56s2.64,18.08,19.33,17.14S91.3,96.54,91.3,96.54,88.8,95.55,87,83.05Z"/><path class="cls-4" d="M120.85,124.88c.81-7.76,1.54-14,1.54-14-3.74-2.62-26.73-12.16-26.73-12.16s-7.89,9.91-23.31,9.91-22.9-9.55-22.9-9.55c-14.51,6.74-26.1,12.24-26.1,12.24-.62,2.36-.58,7.83-.26,13.5a72,72,0,0,0,97.76,0Z"/><path class="cls-5" d="M109,123.67c-9.1-6.35-54.39-9.44-73.19,1.6-2.5,1.48-3.4,4.07-3.07,7.1a72,72,0,0,0,79.7-.8A8.34,8.34,0,0,0,109,123.67Z"/><path class="cls-4" d="M22.86,113.12c-1.85,1.08-3.53,3.16-5.19,6.13a72.08,72.08,0,0,0,9.4,9C26.05,119.23,24.6,112.11,22.86,113.12Z"/><path class="cls-4" d="M127.27,118.14c-1.57-2.8-3.15-4.79-4.88-5.79s-3.11,5.91-4.11,14.8A72.19,72.19,0,0,0,127.27,118.14Z"/><path class="cls-6" d="M72,107.32c-15.16-.77-17.88-10.78-17.88-10.78l-4.67,2.55s3.16,13.25,23.19,13.26c18,0,23-13.62,23-13.62L91.3,96.54S85.15,108,72,107.32Z"/><path class="cls-7" d="M122.39,110.89c-4.49-4.44-26.73-12.16-26.73-12.16s15.79,10.29,24.24,18a28.23,28.23,0,0,1,4.1,5q2.1-2.19,4-4.56A31.27,31.27,0,0,0,122.39,110.89Z"/><path class="cls-8" d="M25.22,117.34c8.45-7.74,24.23-18.25,24.23-18.25s-22.64,7.8-27.13,12.24c-1.81,1.79-3.67,3.08-5.78,6.59q2.07,2.49,4.33,4.77A30,30,0,0,1,25.22,117.34Z"/><path class="cls-9" d="M43,60.68c-3.07.56-4.05,3.63-1.2,7,1.81,9.58,4,10.76,5,10.18C48.79,76.82,46.74,60,43,60.68Z"/><path class="cls-10" d="M44.79,69c-.36-8.08-5.37-7.84-3.28-2.62,0,0,.22-2.65,1-2,.94.81-.55,1.58,1,5.53a11.89,11.89,0,0,0,3.24,4A6.78,6.78,0,0,1,44.79,69Z"/><path class="cls-9" d="M100.5,60.61C96.75,60.1,95.68,77,97.68,78c1.1.54,4.11-.59,4.86-10.26C105.3,62.89,103.6,61,100.5,60.61Z"/><path class="cls-11" d="M99.61,69a6.75,6.75,0,0,1-1.67,5,11.7,11.7,0,0,0,3-4.11c1.33-4-.2-4.73.69-5.58.72-.69,1.08,1.95,1.08,1.95C104.53,60.9,99.53,60.87,99.61,69Z"/><path class="cls-12" d="M94.44,37.07c-1.26-2.23-9.58-10.9-22.36-10.83C60.69,26.31,51.62,34.35,50,38c-3.77,8.27-3.84,15.52-3.51,26.15C46.87,77,47.27,81.89,50,86.69c3.17,5.65,9.21,9.38,14.53,13.14,1.38,1,10,3,17.17-1.37,3.83-2.3,10.3-7.92,12.8-11.77s3-13.14,3.09-14.83a106.63,106.63,0,0,0,.53-11.72C98,42.17,95.94,39.73,94.44,37.07Z"/><path class="cls-13" d="M77.7,54.81c-.34,2.2-2.4,10.31-1.09,11.07,8.18,4.76,17.12-1.26,17.12-1.26C94.38,50.92,77.7,54.81,77.7,54.81Z"/><path class="cls-14" d="M50,64.81s8.69,5.73,17.05.42c1.28-.81-1.25-8-1.6-10.21C65.44,55,49.29,49.91,50,64.81Z"/><path class="cls-15" d="M87,81.54c4.5.3,9.73-.2,10.68-9.44.53-5.26-.23-8.07-2.46-8.49-4.73-.87-11.51,1.18-14.34,2.63C74.86,69.32,79,81,87,81.54Z"/><path class="cls-16" d="M62,65.8c-1.29-.47-11.1-2.68-14-1.83-1.66.48-1.54,4.55-1.26,8.07a27.55,27.55,0,0,0,.64,5.09c1.89,5.21,9.52,5.44,13.67,4C68.13,78.64,68.54,68.16,62,65.8Z"/><path class="cls-17" d="M80.89,76.42c4.47,3.61,2.66,6.2,1.73,7.11,1.72-1.43,4-3,3.88-3.67C86,77.56,80.89,76.42,80.89,76.42Z"/><path class="cls-18" d="M67.08,90.3H77.67S76.32,89,72.51,89,67.08,90.3,67.08,90.3Z"/><path class="cls-19" d="M57.48,80c.1.71,2.1,2.45,3.4,3.8,0,0-3.49-3.75,1.37-7.14C62.25,76.64,57.14,77.61,57.48,80Z"/><path class="cls-20" d="M95,66.46c-.81-.45-1.42.2-3.1.75s-6.19,1.38-4.06,2.53c2.35,1.26,5.64-.47,6-.8S96,67,95,66.46Z"/><path class="cls-21" d="M82.22,80.75A25.56,25.56,0,0,0,85.06,80a2.41,2.41,0,0,0,.44-.84l-1.66.5Z"/><path class="cls-21" d="M58.61,79.3a2.39,2.39,0,0,0,.44.83,23.77,23.77,0,0,0,2.84.79l-1.62-1.13Z"/><path class="cls-22" d="M59.23,79.62c.14.14.24.34.42.42C63,81.49,63,82.87,64.44,83.63a16.12,16.12,0,0,0,14.89-.12c2.27-1.24,3.34-3.07,5.29-3.74a.66.66,0,0,0,.44-.42A55.23,55.23,0,0,1,59.23,79.62Z"/><path class="cls-23" d="M72.27,86.46c-2,0-3.9-.38-3.9,0s1.71,1.22,3.67,1.22S76,86.84,76,86.46,74.24,86.46,72.27,86.46Z"/><path class="cls-24" d="M77.94,82.61a33.71,33.71,0,0,1-6.15.76,38.26,38.26,0,0,1-6.53-.71c-.61-.11-.88,1-.88,1,1.85,1.33,4.08,1.84,7.64,1.86a12.54,12.54,0,0,0,7.37-2S78.72,82.45,77.94,82.61Z"/><path class="cls-25" d="M65,87c7.58,6,14.84-.4,14.84-.4A17.27,17.27,0,0,1,65,87Z"/><path class="cls-26" d="M62.52,80.3a2.13,2.13,0,0,0,1.32,1.77c.73.32,2.38,1.55,8.79,1.36s7.67-1.72,8-2a3.35,3.35,0,0,0,.79-1.33A58.71,58.71,0,0,1,62.52,80.3Z"/><path class="cls-27" d="M62.5,80.19a2.32,2.32,0,0,0,.25.89c.18.27,5.29,1,9.16,1A35.57,35.57,0,0,0,81,80.93a2.89,2.89,0,0,0,.43-1S77.08,81.43,62.5,80.19Z"/><path class="cls-28" d="M58.44,79.23s.93.53.79.39a55.23,55.23,0,0,0,25.83-.27l.79-.39C77.94,80.26,58.44,79.23,58.44,79.23Z"/><path class="cls-29" d="M60.72,59.05a13.87,13.87,0,0,0-4.75.84,3.92,3.92,0,0,0-2.84,3.76c0,.45.79,2.13,4.7,2.66,3.16.43,7.62-.12,8.52-.93.6-.54,0-3.68-.28-4.52C65.66,59.28,64.61,58.89,60.72,59.05Z"/><path class="cls-30" d="M62.3,60.26c-6.31-.75-5.48,1.07-8,4a6.1,6.1,0,0,0,2.57,1.62c4.05.76,5.39.28,7.07-.26.8-.26,1.5-.62,1.53-1.06A5.27,5.27,0,0,0,65,62.11,3.2,3.2,0,0,0,62.3,60.26Z"/><path class="cls-31" d="M57.85,60.86c-2.36-.25-3.59,3.4-3.59,3.4s.28.27.47.43A18.73,18.73,0,0,1,65,62.11C62.48,60.48,59.7,61.07,57.85,60.86Z"/><path class="cls-32" d="M59.74,60.62a3.48,3.48,0,0,0-3.51,3.72,2.63,2.63,0,0,0,.6,1.54,14.31,14.31,0,0,0,3,.39,7.82,7.82,0,0,0,3.1-.36,3.93,3.93,0,0,0,.55-1.73A3.28,3.28,0,0,0,59.74,60.62Z"/><path class="cls-33" d="M59.59,60.36a3.75,3.75,0,0,0-3.38,3.52A13,13,0,0,1,63,62.16,3.65,3.65,0,0,0,59.59,60.36Z"/><path class="cls-34" d="M59.85,61.43a2.16,2.16,0,1,0,2.24,2.12A2.16,2.16,0,0,0,59.85,61.43Z"/><path class="cls-34" d="M63.86,60.71a8,8,0,0,0-7.21.08,4.4,4.4,0,0,0-2.39,3.47,8.49,8.49,0,0,1,5.33-2.46c3.73-.51,5.45.31,5.45.31A2.84,2.84,0,0,0,63.86,60.71Z"/><path class="cls-35" d="M61.66,63.89a.93.93,0,0,0-.46,1.23.94.94,0,0,0,1.27.37.91.91,0,0,0,.46-1.23A.94.94,0,0,0,61.66,63.89Z"/><path class="cls-35" d="M59.68,62.84a.72.72,0,0,0-.36,1,.75.75,0,0,0,1,.29.72.72,0,0,0,.36-1A.76.76,0,0,0,59.68,62.84Z"/><path class="cls-36" d="M51.44,64.14,56.33,66C53.14,63.1,51.44,64.14,51.44,64.14Z"/><path class="cls-37" d="M87.8,59.89a13.84,13.84,0,0,0-4.75-.84c-3.88-.16-4.94.23-5.35,1.81-.22.84-.87,4-.28,4.52.91.81,5.37,1.36,8.53.93,3.91-.53,4.65-2.21,4.69-2.66A3.91,3.91,0,0,0,87.8,59.89Z"/><path class="cls-38" d="M81.47,60.26a3.21,3.21,0,0,0-2.74,1.85,5.42,5.42,0,0,0-.39,2.45c0,.44.73.8,1.54,1.06,1.68.54,3,1,7.06.26a6.1,6.1,0,0,0,2.57-1.62C87,61.33,87.78,59.51,81.47,60.26Z"/><path class="cls-31" d="M85.93,60.86c-1.85.21-4.64-.38-7.2,1.25a18.76,18.76,0,0,1,10.32,2.58l.46-.43S88.28,60.61,85.93,60.86Z"/><path class="cls-39" d="M84,60.62a3.29,3.29,0,0,0-3.76,3.56,4.07,4.07,0,0,0,.55,1.73,7.9,7.9,0,0,0,3.11.36,14.29,14.29,0,0,0,3-.39,2.5,2.5,0,0,0,.6-1.54A3.47,3.47,0,0,0,84,60.62Z"/><path class="cls-40" d="M84.19,60.36a3.67,3.67,0,0,0-3.46,1.8,13.05,13.05,0,0,1,6.84,1.72A3.76,3.76,0,0,0,84.19,60.36Z"/><path class="cls-34" d="M83.93,61.43a2.18,2.18,0,0,0-2.25,2.12,2.22,2.22,0,1,0,2.25-2.12Z"/><path class="cls-34" d="M87.12,60.79a8,8,0,0,0-7.21-.08,2.84,2.84,0,0,0-1.18,1.4s1.72-.82,5.45-.31a8.49,8.49,0,0,1,5.33,2.46A4.37,4.37,0,0,0,87.12,60.79Z"/><path class="cls-35" d="M86.19,63.89a.94.94,0,0,0-1.27.37.92.92,0,0,0,.46,1.23.94.94,0,0,0,1.27-.37A.92.92,0,0,0,86.19,63.89Z"/><path class="cls-35" d="M84.1,62.84a.76.76,0,0,0-1,.3.71.71,0,0,0,.36,1,.75.75,0,0,0,1-.29A.74.74,0,0,0,84.1,62.84Z"/><path class="cls-41" d="M87.45,66l4.89-1.88S90.64,63.1,87.45,66Z"/><path class="cls-42" d="M51.93,66.66c-1.72-.46-2.36-1.09-3.15-.59-1,.6.84,2.12,1.26,2.42s3.79,1.87,6.07.49C58.18,67.73,53.61,67.11,51.93,66.66Z"/><path class="cls-43" d="M84.42,96.61c1.65-1.29,5.68-4.6,9.1-7.86a13.78,13.78,0,0,0,3.12-6.08c.47-1.81,1.1-12.21,1.1-12.21C97.25,75,95.91,81.4,93.52,85.71S85.37,95.36,84.42,96.61Z"/><path class="cls-44" d="M46.38,69.5s.79,11.36,1.26,13.17a13.78,13.78,0,0,0,3.12,6.08c3.42,3.26,7.45,6.57,9.1,7.86-.94-1.25-6.71-6.59-9.1-10.9S46.87,74,46.38,69.5Z"/><path class="cls-45" d="M89.8,55.78A19.56,19.56,0,0,0,79,53.5a4.78,4.78,0,0,0-.43,2.76,4.84,4.84,0,0,1-.46-2.7c-1.32,1.22,0,3.64,0,3.64,1.59.07,5.71-.2,8.76.35a12,12,0,0,1,5.5,2.34A5,5,0,0,0,89.8,55.78Z"/><path class="cls-46" d="M65.09,56a4.85,4.85,0,0,0-.43-2.75,22.25,22.25,0,0,0-10.8,2.28c-2.16,1-2.15,3.83-2.15,3.83a10.21,10.21,0,0,1,5-2.07c3-.55,7.18-.27,8.77-.35,0,0,1.38-2.12,0-3.63A4.82,4.82,0,0,1,65.09,56Z"/><path class="cls-47" d="M79,75.7,78,75.1l-5.57,2.08-5.43-2s-2.8.27-2.86.34a7,7,0,0,1-2.24,1.7A32.56,32.56,0,0,1,57.37,79c6.67,1.42,15,.66,15,.66h.22a55,55,0,0,0,14-.66A24.94,24.94,0,0,1,83,77.8,28.27,28.27,0,0,1,79,75.7Z"/><path class="cls-48" d="M74.45,66.12c.26-5.07-1.53-5.8-2.86-5.75s-2,1.8-1.75,5.66-.5,5.33-.32,7.13c.08.82.46,1.36,2.57,1.38,2.31,0,3.12-.53,3.22-1.29C75.58,71.15,74.27,69.77,74.45,66.12Z"/><path class="cls-49" d="M75,76.51c3.9-.84,5.44-.34,5.44-.34C78.2,74.44,75,76.51,75,76.51Z"/><path class="cls-49" d="M64,75.92a13.36,13.36,0,0,1,5.09.62S66.07,74.58,64,75.92Z"/><path class="cls-50" d="M78.06,70.89c0,1.39.34,2.31-.15,3.1-1.08,1.76-3.89,2.46-5.77,2.33-1.43.14-4.77-.47-6.15-2.32-.57-.75-.21-1.42-.47-2.89,0,0-3.86,4-1.54,4.81a4.4,4.4,0,0,1,2.54-.29c1.87.15,1.48,1.92,5.77,2,3.74,0,2.55-1.52,4.93-1.82s2.68.24,3.22.44C81.63,76.21,80.77,72.8,78.06,70.89Z"/><path class="cls-51" d="M67.19,73.18c-.21,1.14,1.64,2.37,5,2.39,3.65,0,4.47-1.23,4.16-2.28C74.52,67.08,68,68.93,67.19,73.18Z"/><path class="cls-52" d="M72.21,79.3A75.22,75.22,0,0,1,57.37,79s.79,1.78,14.41,2.48c4.2.22,14.07-1,14.85-2.48C86.63,79,82.16,80.11,72.21,79.3Z"/><path class="cls-53" d="M94.44,37.07l.13,12.13,3.55,16c-.21,1.43-.24,1.8,0,.24,0-.23.08-.44.13-.65,1.12-4.46,2.76-4.09,2.76-4.09s.48-11.7.08-14.1C100.27,41.47,94.44,37.07,94.44,37.07Z"/><path class="cls-54" d="M42.61,47.65c-.06.43.41,13,.41,13S44.57,60.29,46,65c.36,1.52.61,2.49.61,2.49l3.41-17V38S43.48,42.13,42.61,47.65Z"/><path class="cls-55" d="M56.65,48.71s17-2.65,31.11.35C87.76,49.06,70.4,42.93,56.65,48.71Z"/><path class="cls-56" d="M62.67,43.69s11.4-2.24,19.49.64C82.16,44.33,73.93,37.74,62.67,43.69Z"/><path class="cls-57" d="M75.34,58,75,50.43C73.65,57.76,75.34,58,75.34,58Z"/><path class="cls-58" d="M69.07,58.68c2.06-2.65,0-8.84,0-8.84Z"/><path class="cls-59" d="M79.17,57a13.08,13.08,0,0,1,1.3-3.41C78.78,54.56,79.17,57,79.17,57Z"/><path class="cls-59" d="M79.91,56.7a13.19,13.19,0,0,1,2.38-2.79C80.37,54.26,79.91,56.7,79.91,56.7Z"/><path class="cls-59" d="M63.45,53.6A13.08,13.08,0,0,1,64.75,57S65.14,54.56,63.45,53.6Z"/><path class="cls-59" d="M61.63,53.91A13.19,13.19,0,0,1,64,56.7S63.55,54.26,61.63,53.91Z"/><path class="cls-60" d="M94.44,37.07s-1.33,12.4-1.33,12.77S95.86,58,95.86,58c0,.61,1.88,15.9,1.88,15.9s.31-7.8.43-8.41S95.09,49.92,95,49.19,94.44,37.07,94.44,37.07Z"/><path class="cls-61" d="M49.29,49.19c-.15.73-3.34,15.64-3.22,16.26s.59,8.41.59,8.41S48.42,58.57,48.37,58s2.57-7.74,2.57-8.12-1-11.09-1-11.09S49.43,48.47,49.29,49.19Z"/><path class="cls-62" d="M98.17,65.43c1.14-4.24-.94-11.71-.94-11.71Z"/><path class="cls-63" d="M46.07,65.45l1-11.94S44.93,61.2,46.07,65.45Z"/><path class="cls-64" d="M46.87,71.68s1.63-8.09,2.37-11.79c.56-2.83,1.7-10,1.7-10L48.37,58Z"/><polygon class="cls-65" points="93.11 49.84 97.1 70.46 95.86 57.96 93.11 49.84"/><path class="cls-66" d="M73,91.07c-4.3,0-7.79,1.44-7.87,2.53-.16,2.08,3.25,2.6,6.54,3S80,95.14,80,93.6,78.85,91.07,73,91.07Z"/><path class="cls-67" d="M66.51,100.21a66.53,66.53,0,0,1-6.65-3.6s4.38,4,6.48,4.82a15.2,15.2,0,0,0,11.47,0c2.53-1.08,7.29-5.36,7.29-5.36A59,59,0,0,1,78,100.21C75.45,101.3,69.53,101.27,66.51,100.21Z"/><path class="cls-68" d="M72.08,26.24C55.8,26.24,50,38,50,38S56,28.88,71,28.59s23.4,8.48,23.4,8.48S87.47,26.24,72.08,26.24Z"/></svg>