<svg id="Layer_1" data-name="Layer 1" xmlns="http://www.w3.org/2000/svg" xmlns:xlink="http://www.w3.org/1999/xlink" viewBox="0 0 144 144"><defs><style>.cls-1{fill:#f6ece6;}.cls-2{fill:url(#_ÂÁ_Ï_ÌÌ_È_ËÂÌÚ_1723);}.cls-3{fill:#1f2f50;}.cls-4{fill:url(#_ÂÁ_Ï_ÌÌ_È_ËÂÌÚ_1204);}.cls-5{fill:url(#_ÂÁ_Ï_ÌÌ_È_ËÂÌÚ_1204-2);}.cls-6{fill:url(#_ÂÁ_Ï_ÌÌ_È_ËÂÌÚ_2473);}.cls-7{fill:url(#_ÂÁ_Ï_ÌÌ_È_ËÂÌÚ_1723-2);}.cls-8{fill:url(#_ÂÁ_Ï_ÌÌ_È_ËÂÌÚ_1723-3);}.cls-9{fill:url(#_ÂÁ_Ï_ÌÌ_È_ËÂÌÚ_2463);}.cls-10{fill:url(#_ÂÁ_Ï_ÌÌ_È_ËÂÌÚ_2473-2);}.cls-11{fill:url(#_ÂÁ_Ï_ÌÌ_È_ËÂÌÚ_2473-3);}.cls-12{fill:url(#_ÂÁ_Ï_ÌÌ_È_ËÂÌÚ_2463-2);}.cls-13{fill:url(#_ÂÁ_Ï_ÌÌ_È_ËÂÌÚ_2463-3);}.cls-14{fill:#f1f0f4;}.cls-15{fill:url(#linear-gradient);}.cls-16{fill:#f0c499;}.cls-17{fill:url(#linear-gradient-2);}.cls-18{fill:url(#linear-gradient-3);}.cls-19{fill:url(#linear-gradient-4);}.cls-20{fill:url(#linear-gradient-5);}.cls-21{fill:url(#radial-gradient);}.cls-22{fill:url(#linear-gradient-6);}.cls-23{fill:url(#radial-gradient-2);}.cls-24{fill:url(#_ÂÁ_Ï_ÌÌ_È_ËÂÌÚ_1204-3);}.cls-25{fill:url(#_ÂÁ_Ï_ÌÌ_È_ËÂÌÚ_1204-4);}.cls-26{fill:url(#linear-gradient-7);}.cls-27{fill:#e1b28d;}.cls-28{fill:url(#_ÂÁ_Ï_ÌÌ_È_ËÂÌÚ_1204-5);}.cls-29{fill:#721e23;}.cls-30{fill:#fcd8b4;}.cls-31{fill:url(#linear-gradient-8);}.cls-32{fill:url(#linear-gradient-9);}.cls-33{fill:#f2eceb;}.cls-34{fill:url(#_ÂÁ_Ï_ÌÌ_È_ËÂÌÚ_1204-6);}.cls-35{fill:url(#linear-gradient-10);}.cls-36{fill:url(#_ÂÁ_Ï_ÌÌ_È_ËÂÌÚ_1204-7);}.cls-37{fill:url(#linear-gradient-11);}.cls-38{fill:url(#linear-gradient-12);}.cls-39{fill:url(#_ÂÁ_Ï_ÌÌ_È_ËÂÌÚ_1056);}.cls-40{fill:url(#_ÂÁ_Ï_ÌÌ_È_ËÂÌÚ_1057);}.cls-41{fill:url(#radial-gradient-3);}.cls-42{fill:#fff;}.cls-43{fill:url(#linear-gradient-13);}.cls-44{fill:url(#_ÂÁ_Ï_ÌÌ_È_ËÂÌÚ_1204-8);}.cls-45{fill:url(#linear-gradient-14);}.cls-46{fill:url(#linear-gradient-15);}.cls-47{fill:url(#_ÂÁ_Ï_ÌÌ_È_ËÂÌÚ_1057-2);}.cls-48{fill:url(#_ÂÁ_Ï_ÌÌ_È_ËÂÌÚ_1057-3);}.cls-49{fill:url(#radial-gradient-4);}.cls-50{fill:url(#linear-gradient-16);}.cls-51{fill:url(#linear-gradient-17);}.cls-52{fill:url(#linear-gradient-18);}.cls-53{fill:url(#linear-gradient-19);}.cls-54{fill:url(#linear-gradient-20);}.cls-55{fill:url(#_ÂÁ_Ï_ÌÌ_È_ËÂÌÚ_1204-9);}.cls-56{fill:url(#linear-gradient-21);}.cls-57{fill:url(#linear-gradient-22);}.cls-58{fill:url(#linear-gradient-23);}.cls-59{fill:url(#linear-gradient-24);}.cls-60{fill:#dca57c;}.cls-61{fill:url(#linear-gradient-25);}.cls-62{fill:url(#linear-gradient-26);}.cls-63{fill:url(#linear-gradient-27);}.cls-64{fill:url(#linear-gradient-28);}.cls-65{fill:url(#linear-gradient-29);}.cls-66{fill:url(#_ÂÁ_Ï_ÌÌ_È_ËÂÌÚ_145);}.cls-67{fill:url(#_ÂÁ_Ï_ÌÌ_È_ËÂÌÚ_145-2);}.cls-68{fill:url(#_ÂÁ_Ï_ÌÌ_È_ËÂÌÚ_145-3);}.cls-69{fill:url(#linear-gradient-30);}.cls-70,.cls-71{opacity:0.32;}.cls-70{fill:url(#linear-gradient-31);}.cls-71{fill:url(#linear-gradient-32);}.cls-72{fill:url(#linear-gradient-33);}.cls-73{fill:url(#linear-gradient-34);}</style><linearGradient id="_ÂÁ_Ï_ÌÌ_È_ËÂÌÚ_1723" x1="77.13" y1="125.24" x2="74.44" y2="109.79" gradientUnits="userSpaceOnUse"><stop offset="0" stop-color="#f1f0f4"/><stop offset="1" stop-color="#d3d2d5"/></linearGradient><linearGradient id="_ÂÁ_Ï_ÌÌ_È_ËÂÌÚ_1204" x1="60.02" y1="85.94" x2="86.16" y2="116.42" gradientUnits="userSpaceOnUse"><stop offset="0" stop-color="#dca47a"/><stop offset="0.5" stop-color="#e5b287"/><stop offset="1" stop-color="#f0c499"/></linearGradient><linearGradient id="_ÂÁ_Ï_ÌÌ_È_ËÂÌÚ_1204-2" x1="76.25" y1="106.56" x2="80.68" y2="123.12" xlink:href="#_ÂÁ_Ï_ÌÌ_È_ËÂÌÚ_1204"/><linearGradient id="_ÂÁ_Ï_ÌÌ_È_ËÂÌÚ_2473" x1="72.46" y1="135.85" x2="71.88" y2="156.92" gradientUnits="userSpaceOnUse"><stop offset="0" stop-color="#29385a"/><stop offset="0.38" stop-color="#223153"/><stop offset="1" stop-color="#1f2e50"/></linearGradient><linearGradient id="_ÂÁ_Ï_ÌÌ_È_ËÂÌÚ_1723-2" x1="72.85" y1="115.23" x2="81.73" y2="111.24" xlink:href="#_ÂÁ_Ï_ÌÌ_È_ËÂÌÚ_1723"/><linearGradient id="_ÂÁ_Ï_ÌÌ_È_ËÂÌÚ_1723-3" x1="79.68" y1="115.58" x2="63.88" y2="111.5" xlink:href="#_ÂÁ_Ï_ÌÌ_È_ËÂÌÚ_1723"/><linearGradient id="_ÂÁ_Ï_ÌÌ_È_ËÂÌÚ_2463" x1="72.02" y1="124.51" x2="72.61" y2="101.23" gradientUnits="userSpaceOnUse"><stop offset="0" stop-color="#1f2f50"/><stop offset="0.04" stop-color="#1e2d4e"/><stop offset="0.59" stop-color="#101d3e"/><stop offset="1" stop-color="#0b1738"/></linearGradient><linearGradient id="_ÂÁ_Ï_ÌÌ_È_ËÂÌÚ_2473-2" x1="112.64" y1="110.12" x2="111.18" y2="138.57" xlink:href="#_ÂÁ_Ï_ÌÌ_È_ËÂÌÚ_2473"/><linearGradient id="_ÂÁ_Ï_ÌÌ_È_ËÂÌÚ_2473-3" x1="32.66" y1="108.65" x2="31.04" y2="140.11" xlink:href="#_ÂÁ_Ï_ÌÌ_È_ËÂÌÚ_2473"/><linearGradient id="_ÂÁ_Ï_ÌÌ_È_ËÂÌÚ_2463-2" x1="84.22" y1="124.3" x2="84.57" y2="110.79" xlink:href="#_ÂÁ_Ï_ÌÌ_È_ËÂÌÚ_2463"/><linearGradient id="_ÂÁ_Ï_ÌÌ_È_ËÂÌÚ_2463-3" x1="60.25" y1="124.64" x2="60.61" y2="110.75" xlink:href="#_ÂÁ_Ï_ÌÌ_È_ËÂÌÚ_2463"/><linearGradient id="linear-gradient" x1="71.93" y1="35.54" x2="71.4" y2="63.29" gradientUnits="userSpaceOnUse"><stop offset="0" stop-color="#fed8b4"/><stop offset="0.33" stop-color="#fad6af"/><stop offset="1" stop-color="#f6d4ab"/></linearGradient><linearGradient id="linear-gradient-2" x1="104.72" y1="637.71" x2="109.82" y2="650.09" gradientTransform="matrix(0.98, 0.18, -0.14, 1.13, 32.08, -678.95)" xlink:href="#_ÂÁ_Ï_ÌÌ_È_ËÂÌÚ_1204"/><linearGradient id="linear-gradient-3" x1="129.39" y1="634.89" x2="134.49" y2="647.26" gradientTransform="matrix(-0.97, 0.23, 0.21, 1.13, 92.8, -680.96)" xlink:href="#_ÂÁ_Ï_ÌÌ_È_ËÂÌÚ_1204"/><linearGradient id="linear-gradient-4" x1="87.01" y1="74.54" x2="86.18" y2="64.78" gradientTransform="matrix(1, 0, 0, 1, -1.58, -3.16)" gradientUnits="userSpaceOnUse"><stop offset="0" stop-color="#f6d4ab"/><stop offset="0.52" stop-color="#f5d2a8"/><stop offset="0.85" stop-color="#f2caa0"/><stop offset="1" stop-color="#f0c499"/></linearGradient><linearGradient id="linear-gradient-5" x1="5148.14" y1="67.69" x2="5147.41" y2="59.09" gradientTransform="matrix(-1, 0, 0, 1, 5206.38, -7.88)" xlink:href="#linear-gradient-4"/><radialGradient id="radial-gradient" cx="3910.27" cy="-246.46" r="21.97" gradientTransform="matrix(-0.55, 0.02, 0.03, 0.39, 2248.08, 88.86)" gradientUnits="userSpaceOnUse"><stop offset="0" stop-color="#f8c49d"/><stop offset="1" stop-color="#f6d4ab"/></radialGradient><linearGradient id="linear-gradient-6" x1="71.86" y1="93.09" x2="72.4" y2="102.65" gradientUnits="userSpaceOnUse"><stop offset="0" stop-color="#fed8b4"/><stop offset="1" stop-color="#f6d4ab"/></linearGradient><radialGradient id="radial-gradient-2" cx="61.14" cy="-359.23" r="23.46" gradientTransform="matrix(0.55, -0.03, 0.05, 0.37, 39.26, 209.56)" xlink:href="#radial-gradient"/><linearGradient id="_ÂÁ_Ï_ÌÌ_È_ËÂÌÚ_1204-3" x1="62.42" y1="154.1" x2="59.88" y2="81.31" xlink:href="#_ÂÁ_Ï_ÌÌ_È_ËÂÌÚ_1204"/><linearGradient id="_ÂÁ_Ï_ÌÌ_È_ËÂÌÚ_1204-4" x1="85.83" y1="152.28" x2="83.35" y2="81.35" xlink:href="#_ÂÁ_Ï_ÌÌ_È_ËÂÌÚ_1204"/><linearGradient id="linear-gradient-7" x1="95.16" y1="67.73" x2="86.9" y2="70.58" gradientUnits="userSpaceOnUse"><stop offset="0" stop-color="#fad6b0"/><stop offset="1" stop-color="#f6d4ab"/></linearGradient><linearGradient id="_ÂÁ_Ï_ÌÌ_È_ËÂÌÚ_1204-5" x1="72.56" y1="106.02" x2="71.99" y2="89.57" xlink:href="#_ÂÁ_Ï_ÌÌ_È_ËÂÌÚ_1204"/><linearGradient id="linear-gradient-8" x1="61.74" y1="86.17" x2="82.33" y2="86.52" gradientUnits="userSpaceOnUse"><stop offset="0" stop-color="#e8d9d7"/><stop offset="0.14" stop-color="#f0e6e4"/><stop offset="0.39" stop-color="#fbf8f8"/><stop offset="0.57" stop-color="#fff"/><stop offset="1" stop-color="#e8d3d1"/></linearGradient><linearGradient id="linear-gradient-9" x1="71.29" y1="78.37" x2="71.62" y2="86.08" gradientUnits="userSpaceOnUse"><stop offset="0" stop-color="#e8d9d7"/><stop offset="0.4" stop-color="#efe5e4"/><stop offset="1" stop-color="#fff"/></linearGradient><linearGradient id="_ÂÁ_Ï_ÌÌ_È_ËÂÌÚ_1204-6" x1="72.12" y1="108.73" x2="71.58" y2="75.64" xlink:href="#_ÂÁ_Ï_ÌÌ_È_ËÂÌÚ_1204"/><linearGradient id="linear-gradient-10" x1="56.42" y1="70.27" x2="45.26" y2="67.55" xlink:href="#linear-gradient-7"/><linearGradient id="_ÂÁ_Ï_ÌÌ_È_ËÂÌÚ_1204-7" x1="78.24" y1="61.58" x2="93.03" y2="65.74" xlink:href="#_ÂÁ_Ï_ÌÌ_È_ËÂÌÚ_1204"/><linearGradient id="linear-gradient-11" x1="90.6" y1="65.58" x2="80.89" y2="63.23" gradientUnits="userSpaceOnUse"><stop offset="0" stop-color="#ece7e6"/><stop offset="0.24" stop-color="#f6f4f4"/><stop offset="0.54" stop-color="#fdfcfc"/><stop offset="1" stop-color="#fff"/></linearGradient><linearGradient id="linear-gradient-12" x1="84.92" y1="64.02" x2="85" y2="70.94" xlink:href="#linear-gradient-11"/><linearGradient id="_ÂÁ_Ï_ÌÌ_È_ËÂÌÚ_1056" x1="77.96" y1="60.88" x2="89.19" y2="67.01" gradientUnits="userSpaceOnUse"><stop offset="0" stop-color="#725342"/><stop offset="1" stop-color="#b89c8c"/></linearGradient><linearGradient id="_ÂÁ_Ï_ÌÌ_È_ËÂÌÚ_1057" x1="87.73" y1="74.37" x2="85.29" y2="66.41" gradientUnits="userSpaceOnUse"><stop offset="0" stop-color="#b89c8c"/><stop offset="1" stop-color="#725342"/></linearGradient><radialGradient id="radial-gradient-3" cx="92.78" cy="110.57" r="13.18" gradientTransform="translate(35.83 5.47) scale(0.55 0.54)" gradientUnits="userSpaceOnUse"><stop offset="0" stop-color="#2b3b3b"/><stop offset="1" stop-color="#1d2827"/></radialGradient><linearGradient id="linear-gradient-13" x1="78.84" y1="62.54" x2="91" y2="62.54" gradientUnits="userSpaceOnUse"><stop offset="0" stop-color="#3d2b26"/><stop offset="0.08" stop-color="#3a2924"/><stop offset="0.55" stop-color="#2d1e1b"/><stop offset="1" stop-color="#291b18"/></linearGradient><linearGradient id="_ÂÁ_Ï_ÌÌ_È_ËÂÌÚ_1204-8" x1="51.55" y1="61.37" x2="66.77" y2="65.65" xlink:href="#_ÂÁ_Ï_ÌÌ_È_ËÂÌÚ_1204"/><linearGradient id="linear-gradient-14" x1="64.89" y1="65.56" x2="55.12" y2="63.21" xlink:href="#linear-gradient-11"/><linearGradient id="linear-gradient-15" x1="59.19" y1="64" x2="59.28" y2="71.27" xlink:href="#linear-gradient-11"/><linearGradient id="_ÂÁ_Ï_ÌÌ_È_ËÂÌÚ_1057-2" x1="54.02" y1="61.48" x2="65.18" y2="67.56" xlink:href="#_ÂÁ_Ï_ÌÌ_È_ËÂÌÚ_1057"/><linearGradient id="_ÂÁ_Ï_ÌÌ_È_ËÂÌÚ_1057-3" x1="63.21" y1="76.15" x2="60.42" y2="67.02" xlink:href="#_ÂÁ_Ï_ÌÌ_È_ËÂÌÚ_1057"/><radialGradient id="radial-gradient-4" cx="46.86" cy="110.37" r="13.18" xlink:href="#radial-gradient-3"/><linearGradient id="linear-gradient-16" x1="53.11" y1="62.43" x2="65.27" y2="62.43" xlink:href="#linear-gradient-13"/><linearGradient id="linear-gradient-17" x1="51.04" y1="57.36" x2="66.31" y2="57.36" gradientUnits="userSpaceOnUse"><stop offset="0" stop-color="#291b18"/><stop offset="0.45" stop-color="#2d1e1b"/><stop offset="0.92" stop-color="#3a2924"/><stop offset="1" stop-color="#3d2b26"/></linearGradient><linearGradient id="linear-gradient-18" x1="77.81" y1="57.36" x2="93.08" y2="57.36" xlink:href="#linear-gradient-17"/><linearGradient id="linear-gradient-19" x1="69.11" y1="27.45" x2="72.49" y2="68.16" gradientUnits="userSpaceOnUse"><stop offset="0" stop-color="#f6d4ab"/><stop offset="0.45" stop-color="#f3cba1"/><stop offset="1" stop-color="#f0c499"/></linearGradient><linearGradient id="linear-gradient-20" x1="54.58" y1="53.88" x2="52.88" y2="93.06" gradientTransform="matrix(1, 0, 0, 1, 0, 0)" xlink:href="#linear-gradient-4"/><linearGradient id="_ÂÁ_Ï_ÌÌ_È_ËÂÌÚ_1204-9" x1="72.56" y1="105.68" x2="72.01" y2="89.7" xlink:href="#_ÂÁ_Ï_ÌÌ_È_ËÂÌÚ_1204"/><linearGradient id="linear-gradient-21" x1="92.35" y1="55.47" x2="90.66" y2="94.68" gradientTransform="matrix(1, 0, 0, 1, 0, 0)" xlink:href="#linear-gradient-4"/><linearGradient id="linear-gradient-22" x1="72.4" y1="106.87" x2="71.69" y2="79.25" gradientUnits="userSpaceOnUse"><stop offset="0" stop-color="#4d3d39"/><stop offset="0.14" stop-color="#473834"/><stop offset="0.52" stop-color="#3d2f2c"/><stop offset="1" stop-color="#3a2c29"/></linearGradient><linearGradient id="linear-gradient-23" x1="71.63" y1="95.15" x2="73.93" y2="121.65" xlink:href="#linear-gradient-22"/><linearGradient id="linear-gradient-24" x1="71.52" y1="50.35" x2="72.13" y2="75.62" gradientUnits="userSpaceOnUse"><stop offset="0" stop-color="#fed8b4"/><stop offset="0.25" stop-color="#fbd6b1"/><stop offset="1" stop-color="#f6d4ab"/></linearGradient><linearGradient id="linear-gradient-25" x1="71.7" y1="66.06" x2="71.94" y2="74.4" gradientTransform="matrix(1, 0, 0, 1, 0, 0)" xlink:href="#linear-gradient-4"/><linearGradient id="linear-gradient-26" x1="72.15" y1="74.89" x2="73.15" y2="67.46" xlink:href="#linear-gradient"/><linearGradient id="linear-gradient-27" x1="72.36" y1="91.39" x2="71.7" y2="106.61" xlink:href="#linear-gradient-22"/><linearGradient id="linear-gradient-28" x1="71.56" y1="25.47" x2="70.96" y2="89.77" gradientUnits="userSpaceOnUse"><stop offset="0" stop-color="#3d2b26"/><stop offset="0.16" stop-color="#362621"/><stop offset="0.54" stop-color="#2c1e1a"/><stop offset="1" stop-color="#291b18"/></linearGradient><linearGradient id="linear-gradient-29" x1="70.97" y1="82.47" x2="72.79" y2="31.12" xlink:href="#linear-gradient-28"/><linearGradient id="_ÂÁ_Ï_ÌÌ_È_ËÂÌÚ_145" x1="94.26" y1="69.56" x2="99.22" y2="30.48" gradientUnits="userSpaceOnUse"><stop offset="0" stop-color="#291b18"/><stop offset="0.41" stop-color="#2c1e1b"/><stop offset="0.74" stop-color="#362723"/><stop offset="1" stop-color="#44342f"/></linearGradient><linearGradient id="_ÂÁ_Ï_ÌÌ_È_ËÂÌÚ_145-2" x1="76.3" y1="68.76" x2="63.64" y2="28.01" xlink:href="#_ÂÁ_Ï_ÌÌ_È_ËÂÌÚ_145"/><linearGradient id="_ÂÁ_Ï_ÌÌ_È_ËÂÌÚ_145-3" x1="92.42" y1="64.29" x2="79.64" y2="23.15" xlink:href="#_ÂÁ_Ï_ÌÌ_È_ËÂÌÚ_145"/><linearGradient id="linear-gradient-30" x1="82.38" y1="60.46" x2="81.74" y2="47.64" xlink:href="#linear-gradient-28"/><linearGradient id="linear-gradient-31" x1="83.05" y1="91.14" x2="80.91" y2="69.45" xlink:href="#linear-gradient-11"/><linearGradient id="linear-gradient-32" x1="56.03" y1="91.24" x2="53.88" y2="69.42" xlink:href="#linear-gradient-11"/><linearGradient id="linear-gradient-33" x1="75.82" y1="104.67" x2="72.93" y2="75.34" gradientTransform="matrix(1, 0, 0, 1, 0, 0)" xlink:href="#linear-gradient-4"/><linearGradient id="linear-gradient-34" x1="76.61" y1="111.52" x2="72.95" y2="74.37" gradientUnits="userSpaceOnUse"><stop offset="0" stop-color="#575759"/><stop offset="1" stop-color="#2c2a2d"/></linearGradient></defs><circle class="cls-1" cx="72" cy="72" r="72" transform="translate(-21.53 31.76) rotate(-21.72)"/><path class="cls-2" d="M72.13,95C58.8,94.53,54.6,96.71,54.6,96.71s-.78,10.86,17.4,11,17.87-11,17.87-11S85.46,95.4,72.13,95Z"/><path class="cls-3" d="M72,144a71.87,71.87,0,0,0,54.69-25.17c-4.41-3-30.26-13.44-30.26-13.44S89,116.78,72.16,116.78s-23.49-11-23.49-11c-15.85,7.36-30,13.89-30,13.89,0,.16-.08.34-.12.52A71.81,71.81,0,0,0,72,144Z"/><path class="cls-4" d="M87.49,89.18S68.36,87.45,56.79,87c.05,14.29-3.3,16.09-3.3,16.09s3.07,16.6,20.32,15.63,18.1-15.63,18.1-15.63S89.33,102.1,87.49,89.18Z"/><path class="cls-5" d="M87,83.13s-11.56,6.13-30.19-.44a73.25,73.25,0,0,1-.48,12.81c3.15,6.17,9.42,12.81,16.77,12.81,6.76,0,14.37-11,15.42-13.4C88.5,94.91,86.89,85.81,87,83.13Z"/><path class="cls-6" d="M42.7,137.78a72.12,72.12,0,0,0,59.44-.38C88.69,134.38,62,133.56,42.7,137.78Z"/><path class="cls-7" d="M74.11,115.12a61.14,61.14,0,0,0,8.23-.68l-4.37-5Z"/><path class="cls-8" d="M63.35,114.23s5.21.69,7.54.89L67,109.45Z"/><path class="cls-9" d="M72.14,115.12c-15.67-.79-20.7-10.71-20.7-10.71l-4.82,2.36s5.14,14.1,25.84,14.11a29.09,29.09,0,0,0,25.87-14.69l-4.24-2S85.74,115.81,72.14,115.12Z"/><path class="cls-10" d="M126.7,118.82c-5.46-4.47-28.37-12.63-28.37-12.63s14.59,9.13,23.87,17.42Q124.56,121.32,126.7,118.82Z"/><path class="cls-11" d="M18.22,119.86q2.14,2.42,4.5,4.62c9.44-8.14,23.9-17.71,23.9-17.71S25.13,115.16,18.22,119.86Z"/><path class="cls-12" d="M78.22,114.61l5.19,7.56a28.67,28.67,0,0,0,7.35-9.32l-6.12-.64A29.75,29.75,0,0,1,78.22,114.61Z"/><path class="cls-13" d="M54.5,112.85a36.26,36.26,0,0,0,7,9.66l5.09-8.11a26.5,26.5,0,0,1-5.95-2.19Z"/><path class="cls-14" d="M78,109.45l7.09,10.27s8.31-8,9.4-15.34l-4.59-7.67S85.29,106.83,78,109.45Z"/><path class="cls-14" d="M54.6,96.71l-3.86,7.68c1.09,7.36,9.21,15.33,9.21,15.33L67,109.45C59.72,106.83,54.6,96.71,54.6,96.71Z"/><path class="cls-15" d="M98.19,60.47c1-23.52-5.56-26.69-7.68-29.09-4.32-4.88-11.1-7-22.69-6.74,0,0-15.11.51-18.88,8.53-4,8.57-5.62,27.53-2.62,38.18,3.51,12.43,3.84,15,5.82,17.66,4.35,5.77,7,6.6,12.23,11.29,1.32,1.19,11.45,4.58,17.89-1.4,3-2.8,6.28-5.08,8.93-9.08S97.11,73.34,97,71.94C96.66,64.37,97.92,67,98.19,60.47Z"/><path class="cls-16" d="M42.84,62c-3.26.59-2.54,2.78-1.12,6.61,1,11.91,4,10.14,5.11,9.52C48.89,77,46.78,61.28,42.84,62Z"/><path class="cls-17" d="M45.47,76.22s-1.52-1.91-.92-5.49c1.44-8.44-3.8-9.28-2.8-3.42,0,0,.82-2.7,1.46-1.85.78,1.05-.93,1.52-.21,6A12.54,12.54,0,0,0,45.47,76.22Z"/><path class="cls-16" d="M100.08,61.65c3.28.44,2.69,2.66,1.5,6.55C100.79,78.43,97.2,79,96,78.45,93.92,77.41,96.1,61.11,100.08,61.65Z"/><path class="cls-18" d="M98.29,76.24s1.41-2,.6-5.52c-1.93-8.36,3.26-9.44,2.6-3.54,0,0-1-2.66-1.57-1.78-.72,1.07,1,1.47.56,5.92A12.39,12.39,0,0,1,98.29,76.24Z"/><path class="cls-19" d="M94.49,65.89c2.22-14.55-16.06-9-16.06-9-.37,2.33-4.21,11.92-2.82,12.73C84.27,74.61,94.49,65.89,94.49,65.89Z"/><path class="cls-20" d="M49.09,66.09c-.88-14.92,16.35-9,16.35-9,1.28,2.24,4,9,2.6,9.87C59.19,72.56,49.09,66.09,49.09,66.09Z"/><path class="cls-21" d="M86.25,79.61c4.77.32,9.51,3.8,10.51-6,.57-5.57.71-8.37-1.65-8.81-5-.92-11.29,1.25-14.28,2.79C74.51,70.86,77.8,79.05,86.25,79.61Z"/><path class="cls-22" d="M72.37,96.48c-1.66,0-5.81,1.11-5.69,1.71.36,1.82,4.21,2.12,5.86,2.11s5-.42,5.08-2C77.65,97.72,74,96.47,72.37,96.48Z"/><path class="cls-23" d="M60.9,67.14C59.54,66.64,50.06,64.3,47,65.2c-1.77.51-.81,4.43-.52,8.16a40.52,40.52,0,0,0,1.76,6.89c2,5.51,7.46-.4,11.85-1.94C67.57,75.69,67.82,69.64,60.9,67.14Z"/><path class="cls-24" d="M58.84,89c-.29-1.12-1.05-6.35-1.37-7.79s-1.17-.5-1.17-.5-.53,7.62,0,9.13c1.53,4.35,8.07,5,8.07,5S59.14,90.19,58.84,89Z"/><path class="cls-25" d="M86.25,81.26C86,82.64,85.41,87,84.57,89L79,94.86s7.51-1.17,9.23-5.38c.7-1.73-1.34-9-1.34-9S86.57,79.61,86.25,81.26Z"/><path class="cls-26" d="M94.93,66.84c-.87-.48-1.5.21-3.29.79s-6.55,1.47-4.3,2.68c2.49,1.34,6-.5,6.39-.84S96,67.43,94.93,66.84Z"/><path class="cls-27" d="M83.17,82.6a29.22,29.22,0,0,0,3.25-.91,2.84,2.84,0,0,0,.5-1l-1.9.57Z"/><path class="cls-27" d="M56.2,80.91a2.84,2.84,0,0,0,.5,1,29.22,29.22,0,0,0,3.25.91L58.1,81.48Z"/><path class="cls-28" d="M65.52,93.91a50.46,50.46,0,0,1,13.23.1C72.76,90.28,65.52,93.91,65.52,93.91Z"/><path class="cls-29" d="M56.91,81.28c.16.17.28.39.49.49,3.79,1.68,3.84,3.28,5.46,4.16a18.2,18.2,0,0,0,17-.14c2.6-1.44,2.93-3.12,6-4.33a.81.81,0,0,0,.5-.49C69.78,85,56.91,81.28,56.91,81.28Z"/><path class="cls-30" d="M71.81,89.21c-2.24,0-4.45-.44-4.45,0s2,1.41,4.19,1.41,4.46-1,4.46-1.41S74.06,89.21,71.81,89.21Z"/><path class="cls-31" d="M78.29,84.74a37.17,37.17,0,0,1-7,.89,41.67,41.67,0,0,1-7.45-.83c-.71-.12-1,1.1-1,1.1,2.11,1.55,4.66,2.13,8.72,2.16A14.22,14.22,0,0,0,80,85.75S79.18,84.56,78.29,84.74Z"/><path class="cls-32" d="M60.67,82.07a2.49,2.49,0,0,0,1.51,2.06c.84.36,2.72,1.79,10,1.57s8.76-2,9.09-2.3a3.87,3.87,0,0,0,.91-1.55S71.19,84,60.67,82.07Z"/><path class="cls-33" d="M60.65,81.94a2.85,2.85,0,0,0,.28,1c.21.32,6.05,1.17,10.47,1.2s10.17-1.11,10.38-1.37a3.32,3.32,0,0,0,.49-1.1S77.3,83.38,60.65,81.94Z"/><path class="cls-34" d="M56,80.83s1.06.62.9.45c0,0,12.87,3.76,29.51-.31l.9-.45C78.28,82,56,80.83,56,80.83Z"/><path class="cls-35" d="M51.08,67.77c-1.82-.49-1.58-1.15-2.42-.63-1,.65,0,2.25.42,2.57s4,2,6.43.52C57.69,68.9,52.86,68.25,51.08,67.77Z"/><path class="cls-36" d="M91,60.2c-1-.73-4.26-.83-5.73-.84-7.16,0-7.91,5.17-7.47,5.84,2.1,3.24,6,2.48,9.18,2.26,4.24-.29,5.85-2.69,5.86-3.13A4.61,4.61,0,0,0,91,60.2Z"/><path class="cls-37" d="M84.17,61.13c-2.9,0-5.33,3.24-5.33,3.24,1.36,3,3.66,2.56,5.51,2.85,5.3.84,6.65-3,6.65-3C89.29,61.91,89,61.12,84.17,61.13Z"/><path class="cls-38" d="M84.36,61.68c-4.47.75-5.33,2.35-5.52,2.69a3.1,3.1,0,0,0,.42.77s.65-.32,1.26-.54c2.86-1.07,5.41-1.65,8.24-.62a14,14,0,0,1,1.85,1,2.91,2.91,0,0,0,.39-.73C89.88,62.35,88.82,60.93,84.36,61.68Z"/><path class="cls-39" d="M84.82,61c-2.79-.13-4.43,1.66-4.29,4A3.36,3.36,0,0,0,81,66.68a10.27,10.27,0,0,0,3.77.69,8.17,8.17,0,0,0,3.39-.44,2.81,2.81,0,0,0,.68-1.72C89.11,62.93,87.17,61.14,84.82,61Z"/><path class="cls-40" d="M84.83,60.92c-4.4,0-4.31,3.68-4.31,3.68A11.53,11.53,0,0,1,88.76,64,3.75,3.75,0,0,0,84.83,60.92Z"/><path class="cls-41" d="M84.75,61.68a2.44,2.44,0,1,0,2.49,2.48A2.48,2.48,0,0,0,84.75,61.68Z"/><path class="cls-42" d="M84.44,63.19a.87.87,0,1,0,1,.76A.86.86,0,0,0,84.44,63.19Z"/><path class="cls-43" d="M85.51,60.71c-4.94,0-6.67,2.77-6.67,3.66A11.51,11.51,0,0,1,85,62.14a10.66,10.66,0,0,1,6,2.08,9.94,9.94,0,0,0-1.14-2.54C89.05,60.86,87.62,60.69,85.51,60.71Z"/><path class="cls-42" d="M86.82,64.62a1.11,1.11,0,0,0-1,1.22,1.07,1.07,0,0,0,1.2,1,1.09,1.09,0,0,0,1-1.22A1.06,1.06,0,0,0,86.82,64.62Z"/><path class="cls-44" d="M58.85,59.26c-1.47,0-4.69.1-5.74.83a4.59,4.59,0,0,0-1.83,4.13c0,.44,1.61,2.84,5.85,3.13,3.18.22,7.09,1,9.19-2.26C66.76,64.42,66,59.25,58.85,59.26Z"/><path class="cls-45" d="M60,61c-4.85,0-5.13.79-6.84,3.09,0,0,1.36,3.84,6.66,3,1.85-.3,4.15.16,5.5-2.86C65.27,64.26,62.85,61,60,61Z"/><path class="cls-46" d="M59.76,61.57c-4.47-.75-5.53.67-6.65,2.54a2.91,2.91,0,0,0,.39.73,16.18,16.18,0,0,1,1.85-1c2.84-1,5.38-.45,8.25.62.6.22,1.26.54,1.26.54a3,3,0,0,0,.41-.77C65.08,63.92,64.22,62.33,59.76,61.57Z"/><path class="cls-47" d="M59.29,60.91C57,61,55,62.82,55.29,65.1A2.79,2.79,0,0,0,56,66.82a8.11,8.11,0,0,0,3.38.45,10.44,10.44,0,0,0,3.78-.7,3.36,3.36,0,0,0,.46-1.64C63.73,62.58,62.09,60.78,59.29,60.91Z"/><path class="cls-48" d="M59.29,60.81a3.77,3.77,0,0,0-3.94,3.06,11.56,11.56,0,0,1,8.25.62S63.69,60.8,59.29,60.81Z"/><path class="cls-49" d="M59.37,61.58a2.44,2.44,0,1,0,.07,4.87A2.5,2.5,0,0,0,61.94,64,2.47,2.47,0,0,0,59.37,61.58Z"/><path class="cls-42" d="M59.67,63.08a.87.87,0,0,0-1,.76.86.86,0,1,0,1.71.2A.87.87,0,0,0,59.67,63.08Z"/><path class="cls-50" d="M58.6,60.6c-2.1,0-3.54.15-4.34,1a10.06,10.06,0,0,0-1.15,2.54,10.66,10.66,0,0,1,6-2.07,11.4,11.4,0,0,1,6.17,2.22C65.28,63.38,63.55,60.66,58.6,60.6Z"/><path class="cls-42" d="M62,64.51a1.09,1.09,0,0,0-.24,2.17,1.06,1.06,0,0,0,1.2-1A1.1,1.1,0,0,0,62,64.51Z"/><path class="cls-51" d="M66,55.8a2.49,2.49,0,0,1-.62,1.88,2.37,2.37,0,0,0,.15-2,27.49,27.49,0,0,0-11.5.71,4.2,4.2,0,0,0-3,2.89,43.07,43.07,0,0,1,5.41-.85c3.26-.37,7.6.22,9.28.25C65.73,58.71,66.85,56.29,66,55.8Z"/><path class="cls-52" d="M90.12,56.42a27.49,27.49,0,0,0-11.5-.71,2.33,2.33,0,0,0,.15,2,2.41,2.41,0,0,1-.62-1.88c-.89.49.23,2.91.23,2.91,1.68,0,6-.62,9.29-.25a43.07,43.07,0,0,1,5.41.85A4.23,4.23,0,0,0,90.12,56.42Z"/><path class="cls-53" d="M91.84,35.46c-10.6-7.34-43.54-1.09-45,1.39-5.61,9.43-.5,34.5-.5,34.5S47.7,60.77,50,56.91C53.7,50.47,53,42.2,53,42.2c4.35,1.55,31.34,6.39,35.84.55,2.57,5.58,5.37,14.75,5.84,15.39C96.37,60.45,97,71.71,97,71.71S102.44,42.8,91.84,35.46Z"/><path class="cls-54" d="M46.24,71s2.22,13.25,3.48,15.41c6,10.21,10.5,12.74,10.5,12.74S59.4,95.34,58.08,94C55.58,91.5,49.72,86.39,46.24,71Z"/><path class="cls-55" d="M63.53,89.78c8.66,6.89,17-.48,17-.48A19.45,19.45,0,0,1,63.53,89.78Z"/><path class="cls-56" d="M85.12,98.31S91.61,92,93.57,87.55c1.11-2.49,3.48-16.26,3.48-16.26-3,10.56-5.68,16.25-6.84,17.72C85.44,95.1,85.12,98.31,85.12,98.31Z"/><path class="cls-57" d="M75.35,78.81l-8.22,0s-11.8,1.81-11.8,1.88a115.43,115.43,0,0,0,1,14.91c3.25,4,10.76,8.76,15.6,8.59,8.58-.29,15.34-8.11,15.34-8.11.91-1,1.49-14.56.58-15.75C87.5,79.94,75.35,78.81,75.35,78.81ZM85.12,89.3c-.53.84-6.12,6.2-8.55,6.21-.48,0-3.57-2.89-3.57-2.89a3.26,3.26,0,0,0-2.4-.1c-.42.1-3.14,3-3.67,3-3,0-8.53-5.71-8.94-6.46-1.08-2-1.71-6.56-1.69-7.92,0,0,20.45.72,30.7-.17C87,81,86.42,87.26,85.12,89.3Z"/><path class="cls-58" d="M66.92,96.69c-3.22,2.58,1.81,3.34,4.7,3.57s8.58-.34,5.33-3.42S67.93,95.88,66.92,96.69Z"/><path class="cls-59" d="M74.13,67.42c.26-5.36-1.07-6.66-2.4-6.62s-2.47,2.44-2.21,6.54S69,73,69.19,74.88c.08.87.47,1.44,2.58,1.46,2.31,0,3.12-.56,3.22-1.37C75.26,72.75,74,71.29,74.13,67.42Z"/><path class="cls-60" d="M74.39,77.86c3.13-.82,4.36-.33,4.36-.33C78.35,74.94,74.39,77.86,74.39,77.86Z"/><path class="cls-60" d="M65.52,77.29a8.86,8.86,0,0,1,4.08.59S65.86,74.77,65.52,77.29Z"/><path class="cls-61" d="M76.12,71.35a6,6,0,0,1,0,4.08c-.87,1.71-2.55,1.92-4.06,1.79a4.25,4.25,0,0,1-4.25-1.79c-.46-.72-.37-2.72-.25-3.94,0,0-4.83,5.05-2,5.8,0,0,0-.89,1.5-.75s1.73,1.88,5.17,1.91c3,0,3-1.62,4.86-1.91s1.24.83,1.67,1C79.67,77.57,80,74.9,76.12,71.35Z"/><path class="cls-62" d="M69.19,74.88c-.06.88.72,1.65,2.83,1.66,2.31,0,3.19-.92,3.06-1.74C74.12,68.34,69.53,70.48,69.19,74.88Z"/><path class="cls-63" d="M58.33,97.62s5.61,6.6,13.49,7.09c8,.49,14-7.19,14-7.19s-6.5,5.44-13.72,5.4C65.27,102.89,58.33,97.62,58.33,97.62Z"/><path class="cls-64" d="M93.57,28.86c-.24,0-3.68-13.23-26.28-9.91-5.38.79-25.45,5-27.07,23.24a24.47,24.47,0,0,0,.9,9.21c.21.79,1.72,10.6,1.72,10.6s2.41-.3,3,5.83a33.13,33.13,0,0,0,.37,3.79,51.23,51.23,0,0,0,.35-5.26,124.7,124.7,0,0,1,2.47-14.51c1-3.51,2.11-13.14,2.11-13.14,6.82,1.85,34.42,4.77,39-2.84C93.3,50,95.53,54.75,95.53,54.75c.74,1.36.83,6.83,1.14,8.5s.12,7,.37,8.69c.22-1.78.55-7.78,1.54-9.4a1.86,1.86,0,0,1,1.82-.84s1-6.57,1.39-8.3c1-5,.85-9.62.86-13.71C102.68,29.5,94.77,29,93.57,28.86Z"/><path class="cls-65" d="M92.53,31.88S88,38.42,73.15,38.66c-3.13.05-17.22.11-25.26-4.18a76.21,76.21,0,0,1-1.06,25.86,77.76,77.76,0,0,0,3-9.81c.59-3.35,1.31-11.64,1.31-11.64S67,42.32,76.74,41.4c8.54-.8,12-2.69,13.47-5.35,0,0,.72,11.85,6.59,20.82C96.8,56.87,91.5,36.74,92.53,31.88Z"/><path class="cls-66" d="M93.57,28.86s8.77,5.39,8,26.11C101.56,55,108.58,29.3,93.57,28.86Z"/><path class="cls-67" d="M71.67,18.49c-18,1.7-22.47,7.68-25.5,10.36S37.82,40.37,40.66,49.5c0,0,1.55-15.6,10.07-20.64s31.77-11.57,42.84,0C93.57,28.86,89.72,16.8,71.67,18.49Z"/><path class="cls-68" d="M80.07,22c-4.22,0-7.76,4.25-7.76,4.25,12-4.6,16.13-.85,16.13-.85C88.91,22.22,80.78,22,80.07,22Z"/><path class="cls-69" d="M72.52,44.07c17.79.54,17.69-8,17.69-8l-4.36,2.28C84.21,41.9,72.52,44.07,72.52,44.07Z"/><path class="cls-70" d="M80.42,59.59l-4,7.81a17.07,17.07,0,0,1,1.89,2.78L84.24,60C84.43,58.51,80.42,59.59,80.42,59.59Z"/><path class="cls-71" d="M54.48,59.5l-5.17,8.93c1.21,0,1.73,1.75,1.73,1.75L57.41,60.1C57.6,58.18,54.48,59.5,54.48,59.5Z"/><path class="cls-72" d="M93.76,66.16c-1.07,5.59-4.21,7.42-7.71,7.42-2.2,0-10.89-1.74-10.21-11.12a13.26,13.26,0,0,0-7.84,0c.88,9.28-8.09,11.14-10.28,11.14-3.23,0-6.5-1.58-7.77-6.24-.5.14-.87-2.12-1.36-1.92.23.85.66,4,.84,4.44a7.81,7.81,0,0,0,7.66,4.7c5.18,0,8.78-1.83,9.75-3.82a35.52,35.52,0,0,0,2.4-6.08,5,5,0,0,1,5.29,0s1.42,4.09,2.4,6.08,4.56,3.82,9.75,3.82a7.81,7.81,0,0,0,7.66-4.7,19.89,19.89,0,0,0,1.07-3.37C94.81,66.63,94.36,66.06,93.76,66.16Z"/><path class="cls-73" d="M83.77,59c-5.51.91-7.92,2.63-7.92,2.63a13.48,13.48,0,0,0-7.93,0S65.51,59.94,60,59s-12.15,1-12.42,3.25c-.15,1.18,1.2,5.27,1.85,6.78a7.81,7.81,0,0,0,7.66,4.7c5.18,0,8.78-1.83,9.75-3.82a27.7,27.7,0,0,0,2-6.08,6.9,6.9,0,0,1,6.15,0,39.93,39.93,0,0,0,2,6.08c1,2,4.56,3.82,9.75,3.82a7.81,7.81,0,0,0,7.66-4.7c.65-1.51,1.89-5.93,1.6-7.08C95.49,60.15,89.39,58.1,83.77,59Zm-26,13.75c-4,0-7.57-.65-8-8.41-.19-3.13,4.58-4.13,8.6-4.13s8.62,1.67,8.9,3.75C68.21,71.8,59.92,72.78,57.72,72.78Zm28.33,0c-2.2,0-10.5-1-9.45-8.79.28-2.08,4.89-3.75,8.9-3.75s8.79,1,8.59,4.13C93.62,72.13,90.07,72.78,86.05,72.78Z"/></svg>