<svg id="Layer_1" data-name="Layer 1" xmlns="http://www.w3.org/2000/svg" xmlns:xlink="http://www.w3.org/1999/xlink" viewBox="0 0 144 144"><defs><style>.cls-1{fill:#f6ece6;}.cls-2{fill:#361b16;}.cls-3{fill:#252a3e;}.cls-4{fill:url(#_ÂÁ_Ï_ÌÌ_È_ËÂÌÚ_156);}.cls-5{fill:#f6d4ab;}.cls-6{fill:url(#linear-gradient);}.cls-7{fill:url(#linear-gradient-2);}.cls-8{fill:url(#linear-gradient-3);}.cls-9{fill:url(#linear-gradient-4);}.cls-10{fill:url(#linear-gradient-5);}.cls-11{fill:url(#linear-gradient-6);}.cls-12{fill:url(#linear-gradient-7);}.cls-13{fill:#30364e;}.cls-14{fill:#f1f0f4;}.cls-15{fill:url(#_ÂÁ_Ï_ÌÌ_È_ËÂÌÚ_449);}.cls-16{fill:url(#_ÂÁ_Ï_ÌÌ_È_ËÂÌÚ_449-2);}.cls-17{fill:url(#_ÂÁ_Ï_ÌÌ_È_ËÂÌÚ_449-3);}.cls-18{fill:url(#_ÂÁ_Ï_ÌÌ_È_ËÂÌÚ_449-4);}.cls-19{fill:url(#_ÂÁ_Ï_ÌÌ_È_ËÂÌÚ_1471);}.cls-20{fill:url(#_ÂÁ_Ï_ÌÌ_È_ËÂÌÚ_1471-2);}.cls-21{fill:url(#_ÂÁ_Ï_ÌÌ_È_ËÂÌÚ_1471-3);}.cls-22{fill:url(#_ÂÁ_Ï_ÌÌ_È_ËÂÌÚ_1475);}.cls-23{fill:url(#_ÂÁ_Ï_ÌÌ_È_ËÂÌÚ_1475-2);}.cls-24{fill:url(#_ÂÁ_Ï_ÌÌ_È_ËÂÌÚ_1475-3);}.cls-25{fill:url(#_ÂÁ_Ï_ÌÌ_È_ËÂÌÚ_1475-4);}.cls-26{fill:url(#_ÂÁ_Ï_ÌÌ_È_ËÂÌÚ_1475-5);}.cls-27{fill:url(#_ÂÁ_Ï_ÌÌ_È_ËÂÌÚ_1475-6);}.cls-28{fill:url(#_ÂÁ_Ï_ÌÌ_È_ËÂÌÚ_1471-4);}.cls-29{fill:url(#_ÂÁ_Ï_ÌÌ_È_ËÂÌÚ_1178);}.cls-30{fill:url(#_ÂÁ_Ï_ÌÌ_È_ËÂÌÚ_156-2);}.cls-31{fill:url(#_ÂÁ_Ï_ÌÌ_È_ËÂÌÚ_1178-2);}.cls-32{fill:url(#_ÂÁ_Ï_ÌÌ_È_ËÂÌÚ_156-3);}.cls-33{fill:url(#_ÂÁ_Ï_ÌÌ_È_ËÂÌÚ_1178-3);}.cls-34{fill:url(#_ÂÁ_Ï_ÌÌ_È_ËÂÌÚ_1178-4);}.cls-35{fill:url(#_ÂÁ_Ï_ÌÌ_È_ËÂÌÚ_156-4);}.cls-36{fill:url(#_ÂÁ_Ï_ÌÌ_È_ËÂÌÚ_156-5);}.cls-37{fill:url(#_ÂÁ_Ï_ÌÌ_È_ËÂÌÚ_156-6);}.cls-38{fill:url(#_ÂÁ_Ï_ÌÌ_È_ËÂÌÚ_156-7);}.cls-39{fill:url(#_ÂÁ_Ï_ÌÌ_È_ËÂÌÚ_156-8);}.cls-40{fill:url(#_ÂÁ_Ï_ÌÌ_È_ËÂÌÚ_156-9);}.cls-41{fill:url(#_ÂÁ_Ï_ÌÌ_È_ËÂÌÚ_156-10);}.cls-42{fill:url(#linear-gradient-8);}.cls-43{fill:url(#linear-gradient-9);}.cls-44{fill:url(#_ÂÁ_Ï_ÌÌ_È_ËÂÌÚ_298);}.cls-45{fill:url(#_ÂÁ_Ï_ÌÌ_È_ËÂÌÚ_298-2);}.cls-46{fill:#f0c499;}.cls-47{fill:url(#linear-gradient-10);}.cls-48{fill:url(#linear-gradient-11);}.cls-49{fill:url(#_ÂÁ_Ï_ÌÌ_È_ËÂÌÚ_384);}.cls-50{fill:url(#linear-gradient-12);}.cls-51{fill:url(#linear-gradient-13);}.cls-52{fill:url(#_ÂÁ_Ï_ÌÌ_È_ËÂÌÚ_1001);}.cls-53{fill:url(#linear-gradient-14);}.cls-54{fill:url(#radial-gradient);}.cls-55{fill:url(#linear-gradient-15);}.cls-56{fill:url(#_ÂÁ_Ï_ÌÌ_È_ËÂÌÚ_154);}.cls-57{fill:url(#linear-gradient-16);}.cls-58{fill:url(#linear-gradient-17);}.cls-59{fill:url(#linear-gradient-18);}.cls-60{fill:url(#linear-gradient-19);}.cls-61{fill:url(#linear-gradient-20);}.cls-62{fill:url(#_ÂÁ_Ï_ÌÌ_È_ËÂÌÚ_106);}.cls-63{fill:url(#_ÂÁ_Ï_ÌÌ_È_ËÂÌÚ_1003);}.cls-64{fill:url(#_ÂÁ_Ï_ÌÌ_È_ËÂÌÚ_1003-2);}.cls-65{fill:url(#linear-gradient-21);}.cls-66{fill:#971b27;}.cls-67{fill:url(#linear-gradient-22);}.cls-68{fill:#f26d79;}.cls-69{fill:url(#linear-gradient-23);}.cls-70{fill:url(#linear-gradient-24);}.cls-71{fill:#f598a2;}.cls-72{fill:url(#linear-gradient-25);}.cls-73{fill:url(#linear-gradient-26);}.cls-74{fill:url(#linear-gradient-27);}.cls-75{fill:url(#linear-gradient-28);}.cls-76{fill:url(#linear-gradient-29);}.cls-77{fill:#ddd;}.cls-78{fill:url(#linear-gradient-30);}.cls-79{fill:url(#linear-gradient-31);}.cls-80{fill:url(#radial-gradient-2);}.cls-81{fill:url(#linear-gradient-32);}.cls-82{fill:url(#linear-gradient-33);}.cls-83{fill:url(#linear-gradient-34);}.cls-84{fill:#fff;}.cls-85{fill:url(#linear-gradient-35);}.cls-86{fill:url(#_ÂÁ_Ï_ÌÌ_È_ËÂÌÚ_1003-3);}.cls-87{fill:url(#linear-gradient-36);}.cls-88{fill:url(#linear-gradient-37);}.cls-89{fill:url(#linear-gradient-38);}.cls-90{fill:url(#radial-gradient-3);}.cls-91{fill:url(#_ÂÁ_Ï_ÌÌ_È_ËÂÌÚ_1002);}.cls-92{fill:url(#linear-gradient-39);}.cls-93{fill:url(#linear-gradient-40);}.cls-94{fill:url(#linear-gradient-41);}.cls-95{fill:url(#linear-gradient-42);}.cls-96{fill:url(#_ÂÁ_Ï_ÌÌ_È_ËÂÌÚ_383);}.cls-97{fill:url(#linear-gradient-43);}.cls-98{fill:url(#_ÂÁ_Ï_ÌÌ_È_ËÂÌÚ_298-3);}.cls-99{fill:url(#linear-gradient-44);}.cls-100{fill:url(#linear-gradient-45);}.cls-101{fill:url(#_ÂÁ_Ï_ÌÌ_È_ËÂÌÚ_298-4);}.cls-102{fill:url(#_ÂÁ_Ï_ÌÌ_È_ËÂÌÚ_298-5);}.cls-103{fill:url(#linear-gradient-46);}.cls-104{fill:url(#linear-gradient-47);}.cls-105{fill:url(#linear-gradient-48);}.cls-106{fill:url(#_ÂÁ_Ï_ÌÌ_È_ËÂÌÚ_383-2);}.cls-107{fill:#6c342a;}.cls-108{fill:url(#_ÂÁ_Ï_ÌÌ_È_ËÂÌÚ_298-6);}.cls-109{fill:url(#_ÂÁ_Ï_ÌÌ_È_ËÂÌÚ_298-7);}.cls-110{fill:url(#_ÂÁ_Ï_ÌÌ_È_ËÂÌÚ_298-8);}.cls-111{fill:url(#linear-gradient-49);}.cls-112{fill:url(#linear-gradient-50);}.cls-113{fill:url(#_ÂÁ_Ï_ÌÌ_È_ËÂÌÚ_298-9);}.cls-114{fill:url(#_ÂÁ_Ï_ÌÌ_È_ËÂÌÚ_361);}.cls-115{fill:url(#_ÂÁ_Ï_ÌÌ_È_ËÂÌÚ_126);}.cls-116{fill:url(#_ÂÁ_Ï_ÌÌ_È_ËÂÌÚ_298-10);}.cls-117{fill:url(#_ÂÁ_Ï_ÌÌ_È_ËÂÌÚ_298-11);}.cls-118{fill:url(#_ÂÁ_Ï_ÌÌ_È_ËÂÌÚ_298-12);}</style><linearGradient id="_ÂÁ_Ï_ÌÌ_È_ËÂÌÚ_156" x1="73.38" y1="95.58" x2="74.73" y2="115.12" gradientUnits="userSpaceOnUse"><stop offset="0" stop-color="#3b4460"/><stop offset="1" stop-color="#30364e"/></linearGradient><linearGradient id="linear-gradient" x1="64.04" y1="91.77" x2="84.71" y2="114.27" gradientUnits="userSpaceOnUse"><stop offset="0" stop-color="#f0c499"/><stop offset="0.52" stop-color="#f1c69c"/><stop offset="0.85" stop-color="#f4cea4"/><stop offset="1" stop-color="#f6d4ab"/></linearGradient><linearGradient id="linear-gradient-2" x1="87.86" y1="109" x2="71.42" y2="111.43" xlink:href="#linear-gradient"/><linearGradient id="linear-gradient-3" x1="75.19" y1="107.92" x2="101.28" y2="103.85" xlink:href="#linear-gradient"/><linearGradient id="linear-gradient-4" x1="73.69" y1="109.26" x2="50.79" y2="103.25" xlink:href="#linear-gradient"/><linearGradient id="linear-gradient-5" x1="72.06" y1="84.91" x2="75.03" y2="97.51" gradientUnits="userSpaceOnUse"><stop offset="0" stop-color="#dca47a"/><stop offset="0.5" stop-color="#e5b287"/><stop offset="1" stop-color="#f0c499"/></linearGradient><linearGradient id="linear-gradient-6" x1="35.89" y1="134.3" x2="35.89" y2="134.3" xlink:href="#linear-gradient"/><linearGradient id="linear-gradient-7" x1="36.73" y1="135.32" x2="28.43" y2="101.5" xlink:href="#linear-gradient"/><linearGradient id="_ÂÁ_Ï_ÌÌ_È_ËÂÌÚ_449" x1="42.49" y1="137.22" x2="42.41" y2="138.15" gradientUnits="userSpaceOnUse"><stop offset="0" stop-color="#f1f0f4"/><stop offset="0.64" stop-color="#f9f8fa"/><stop offset="1" stop-color="#fff"/></linearGradient><linearGradient id="_ÂÁ_Ï_ÌÌ_È_ËÂÌÚ_449-2" x1="42.49" y1="137.25" x2="42.42" y2="138.02" xlink:href="#_ÂÁ_Ï_ÌÌ_È_ËÂÌÚ_449"/><linearGradient id="_ÂÁ_Ï_ÌÌ_È_ËÂÌÚ_449-3" x1="103.05" y1="135.25" x2="102.78" y2="138.48" xlink:href="#_ÂÁ_Ï_ÌÌ_È_ËÂÌÚ_449"/><linearGradient id="_ÂÁ_Ï_ÌÌ_È_ËÂÌÚ_449-4" x1="73.59" y1="109.49" x2="70.49" y2="147.74" xlink:href="#_ÂÁ_Ï_ÌÌ_È_ËÂÌÚ_449"/><linearGradient id="_ÂÁ_Ï_ÌÌ_È_ËÂÌÚ_1471" x1="89.86" y1="109.89" x2="87.64" y2="143.04" gradientUnits="userSpaceOnUse"><stop offset="0" stop-color="#f1f0f4"/><stop offset="1" stop-color="#bfc0d7"/></linearGradient><linearGradient id="_ÂÁ_Ï_ÌÌ_È_ËÂÌÚ_1471-2" x1="59.29" y1="107.77" x2="56.94" y2="142.95" xlink:href="#_ÂÁ_Ï_ÌÌ_È_ËÂÌÚ_1471"/><linearGradient id="_ÂÁ_Ï_ÌÌ_È_ËÂÌÚ_1471-3" x1="74.85" y1="110.4" x2="74.33" y2="147.55" xlink:href="#_ÂÁ_Ï_ÌÌ_È_ËÂÌÚ_1471"/><linearGradient id="_ÂÁ_Ï_ÌÌ_È_ËÂÌÚ_1475" x1="41.92" y1="115.03" x2="60.92" y2="152.87" gradientUnits="userSpaceOnUse"><stop offset="0" stop-color="#30364e"/><stop offset="1" stop-color="#3b4460"/></linearGradient><linearGradient id="_ÂÁ_Ï_ÌÌ_È_ËÂÌÚ_1475-2" x1="102.52" y1="137.22" x2="102.52" y2="137.22" xlink:href="#_ÂÁ_Ï_ÌÌ_È_ËÂÌÚ_1475"/><linearGradient id="_ÂÁ_Ï_ÌÌ_È_ËÂÌÚ_1475-3" x1="105.91" y1="135.53" x2="105.91" y2="135.53" xlink:href="#_ÂÁ_Ï_ÌÌ_È_ËÂÌÚ_1475"/><linearGradient id="_ÂÁ_Ï_ÌÌ_È_ËÂÌÚ_1475-4" x1="107.59" y1="134.6" x2="107.59" y2="134.6" xlink:href="#_ÂÁ_Ï_ÌÌ_È_ËÂÌÚ_1475"/><linearGradient id="_ÂÁ_Ï_ÌÌ_È_ËÂÌÚ_1475-5" x1="104.23" y1="136.4" x2="104.23" y2="136.4" xlink:href="#_ÂÁ_Ï_ÌÌ_È_ËÂÌÚ_1475"/><linearGradient id="_ÂÁ_Ï_ÌÌ_È_ËÂÌÚ_1475-6" x1="89.72" y1="115.11" x2="104.61" y2="144.78" xlink:href="#_ÂÁ_Ï_ÌÌ_È_ËÂÌÚ_1475"/><linearGradient id="_ÂÁ_Ï_ÌÌ_È_ËÂÌÚ_1471-4" x1="61.54" y1="109.7" x2="60.26" y2="128.88" xlink:href="#_ÂÁ_Ï_ÌÌ_È_ËÂÌÚ_1471"/><linearGradient id="_ÂÁ_Ï_ÌÌ_È_ËÂÌÚ_1178" x1="47.91" y1="102.46" x2="53.4" y2="142.97" gradientUnits="userSpaceOnUse"><stop offset="0" stop-color="#30364e"/><stop offset="0.11" stop-color="#2d3349"/><stop offset="0.46" stop-color="#272c41"/><stop offset="1" stop-color="#252a3e"/></linearGradient><linearGradient id="_ÂÁ_Ï_ÌÌ_È_ËÂÌÚ_156-2" x1="53.48" y1="94.63" x2="53.74" y2="147.4" xlink:href="#_ÂÁ_Ï_ÌÌ_È_ËÂÌÚ_156"/><linearGradient id="_ÂÁ_Ï_ÌÌ_È_ËÂÌÚ_1178-2" x1="91.63" y1="102.7" x2="96.73" y2="140.33" xlink:href="#_ÂÁ_Ï_ÌÌ_È_ËÂÌÚ_1178"/><linearGradient id="_ÂÁ_Ï_ÌÌ_È_ËÂÌÚ_156-3" x1="93.25" y1="94.58" x2="93.51" y2="146.64" xlink:href="#_ÂÁ_Ï_ÌÌ_È_ËÂÌÚ_156"/><linearGradient id="_ÂÁ_Ï_ÌÌ_È_ËÂÌÚ_1178-3" x1="35.23" y1="125.64" x2="35.17" y2="132.76" xlink:href="#_ÂÁ_Ï_ÌÌ_È_ËÂÌÚ_1178"/><linearGradient id="_ÂÁ_Ï_ÌÌ_È_ËÂÌÚ_1178-4" x1="109.24" y1="120.95" x2="109.15" y2="131.93" xlink:href="#_ÂÁ_Ï_ÌÌ_È_ËÂÌÚ_1178"/><linearGradient id="_ÂÁ_Ï_ÌÌ_È_ËÂÌÚ_156-4" x1="119.73" y1="125.74" x2="119.74" y2="125.97" xlink:href="#_ÂÁ_Ï_ÌÌ_È_ËÂÌÚ_156"/><linearGradient id="_ÂÁ_Ï_ÌÌ_È_ËÂÌÚ_156-5" x1="119.93" y1="103.67" x2="120.59" y2="125.36" xlink:href="#_ÂÁ_Ï_ÌÌ_È_ËÂÌÚ_156"/><linearGradient id="_ÂÁ_Ï_ÌÌ_È_ËÂÌÚ_156-6" x1="24.62" y1="126.18" x2="24.62" y2="126.23" xlink:href="#_ÂÁ_Ï_ÌÌ_È_ËÂÌÚ_156"/><linearGradient id="_ÂÁ_Ï_ÌÌ_È_ËÂÌÚ_156-7" x1="23.29" y1="125.02" x2="23.29" y2="125.02" xlink:href="#_ÂÁ_Ï_ÌÌ_È_ËÂÌÚ_156"/><linearGradient id="_ÂÁ_Ï_ÌÌ_È_ËÂÌÚ_156-8" x1="25.97" y1="127.32" x2="25.98" y2="127.4" xlink:href="#_ÂÁ_Ï_ÌÌ_È_ËÂÌÚ_156"/><linearGradient id="_ÂÁ_Ï_ÌÌ_È_ËÂÌÚ_156-9" x1="21.99" y1="123.78" x2="21.99" y2="123.79" xlink:href="#_ÂÁ_Ï_ÌÌ_È_ËÂÌÚ_156"/><linearGradient id="_ÂÁ_Ï_ÌÌ_È_ËÂÌÚ_156-10" x1="25.38" y1="104.38" x2="26.14" y2="129.01" xlink:href="#_ÂÁ_Ï_ÌÌ_È_ËÂÌÚ_156"/><linearGradient id="linear-gradient-8" x1="99.1" y1="128.21" x2="98.59" y2="96.87" gradientUnits="userSpaceOnUse"><stop offset="0" stop-color="#6c342a"/><stop offset="0.3" stop-color="#673228"/><stop offset="0.63" stop-color="#5a2c22"/><stop offset="0.97" stop-color="#442119"/><stop offset="1" stop-color="#422018"/></linearGradient><linearGradient id="linear-gradient-9" x1="129.35" y1="132.73" x2="97.86" y2="73.75" xlink:href="#linear-gradient-8"/><linearGradient id="_ÂÁ_Ï_ÌÌ_È_ËÂÌÚ_298" x1="102.06" y1="125.43" x2="98.45" y2="85.05" gradientUnits="userSpaceOnUse"><stop offset="0" stop-color="#70372c"/><stop offset="0.31" stop-color="#6b342a"/><stop offset="0.66" stop-color="#5e2d23"/><stop offset="1" stop-color="#4a2119"/></linearGradient><linearGradient id="_ÂÁ_Ï_ÌÌ_È_ËÂÌÚ_298-2" x1="106.15" y1="121.43" x2="101.23" y2="71.77" xlink:href="#_ÂÁ_Ï_ÌÌ_È_ËÂÌÚ_298"/><linearGradient id="linear-gradient-10" x1="48.99" y1="132.28" x2="49.62" y2="154.15" xlink:href="#linear-gradient-5"/><linearGradient id="linear-gradient-11" x1="101.27" y1="131.25" x2="101.89" y2="152.8" xlink:href="#linear-gradient-5"/><linearGradient id="_ÂÁ_Ï_ÌÌ_È_ËÂÌÚ_384" x1="73.34" y1="30.97" x2="73.25" y2="94.36" gradientUnits="userSpaceOnUse"><stop offset="0" stop-color="#fed8b4"/><stop offset="0.35" stop-color="#f9d5ae"/><stop offset="1" stop-color="#f6d4ab"/></linearGradient><linearGradient id="linear-gradient-12" x1="86.11" y1="69.13" x2="83.3" y2="53.53" gradientUnits="userSpaceOnUse"><stop offset="0" stop-color="#f6d4ab"/><stop offset="0.52" stop-color="#f5d2a8"/><stop offset="0.85" stop-color="#f2caa0"/><stop offset="1" stop-color="#f0c499"/></linearGradient><linearGradient id="linear-gradient-13" x1="62.24" y1="71.79" x2="59.2" y2="52.97" xlink:href="#linear-gradient-12"/><radialGradient id="_ÂÁ_Ï_ÌÌ_È_ËÂÌÚ_1001" cx="40.87" cy="122.82" r="20.68" gradientTransform="translate(35.83 5.47) scale(0.55 0.54)" gradientUnits="userSpaceOnUse"><stop offset="0" stop-color="#f8b38e"/><stop offset="0.52" stop-color="#f7c69e"/><stop offset="0.86" stop-color="#f6d4ab"/></radialGradient><linearGradient id="linear-gradient-14" x1="73.81" y1="87.08" x2="74.08" y2="93.05" gradientUnits="userSpaceOnUse"><stop offset="0" stop-color="#fed8b4"/><stop offset="0.65" stop-color="#fbd7b1"/><stop offset="1" stop-color="#f6d4ab"/></linearGradient><radialGradient id="radial-gradient" cx="93" cy="122.82" r="18.29" gradientTransform="translate(35.83 5.47) scale(0.55 0.54)" gradientUnits="userSpaceOnUse"><stop offset="0" stop-color="#f8b38e"/><stop offset="0.61" stop-color="#f7c69e"/><stop offset="1" stop-color="#f6d4ab"/></radialGradient><linearGradient id="linear-gradient-15" x1="49.13" y1="74.68" x2="63.19" y2="74.68" xlink:href="#linear-gradient-5"/><linearGradient id="_ÂÁ_Ï_ÌÌ_È_ËÂÌÚ_154" x1="72.85" y1="29.73" x2="72.45" y2="68.21" gradientUnits="userSpaceOnUse"><stop offset="0" stop-color="#f6d4ab"/><stop offset="0.33" stop-color="#f4cea4"/><stop offset="1" stop-color="#f0c499"/></linearGradient><linearGradient id="linear-gradient-16" x1="85.01" y1="56.8" x2="94.34" y2="56.8" xlink:href="#linear-gradient-14"/><linearGradient id="linear-gradient-17" x1="73.38" y1="88.27" x2="72.45" y2="101.83" xlink:href="#linear-gradient-5"/><linearGradient id="linear-gradient-18" x1="65.3" y1="36.93" x2="60.05" y2="113.14" xlink:href="#linear-gradient-5"/><linearGradient id="linear-gradient-19" x1="73.62" y1="77.13" x2="72.78" y2="72.93" xlink:href="#linear-gradient-12"/><linearGradient id="linear-gradient-20" x1="72.96" y1="72.61" x2="72.93" y2="75.9" xlink:href="#linear-gradient-5"/><linearGradient id="_ÂÁ_Ï_ÌÌ_È_ËÂÌÚ_106" x1="72.76" y1="68.14" x2="72.8" y2="71.51" gradientUnits="userSpaceOnUse"><stop offset="0" stop-color="#f6d4ab"/><stop offset="1" stop-color="#fed8b4"/></linearGradient><linearGradient id="_ÂÁ_Ï_ÌÌ_È_ËÂÌÚ_1003" x1="64.43" y1="74.22" x2="75.87" y2="84.2" gradientUnits="userSpaceOnUse"><stop offset="0" stop-color="#f0c499"/><stop offset="0.5" stop-color="#e5b287"/><stop offset="1" stop-color="#dca47a"/></linearGradient><linearGradient id="_ÂÁ_Ï_ÌÌ_È_ËÂÌÚ_1003-2" x1="59.44" y1="75.29" x2="64.27" y2="79.5" xlink:href="#_ÂÁ_Ï_ÌÌ_È_ËÂÌÚ_1003"/><linearGradient id="linear-gradient-21" x1="84.63" y1="76.28" x2="81.96" y2="79.58" xlink:href="#linear-gradient-5"/><linearGradient id="linear-gradient-22" x1="66.7" y1="81.41" x2="79.4" y2="81.41" gradientUnits="userSpaceOnUse"><stop offset="0" stop-color="#e8d9d7"/><stop offset="0.04" stop-color="#ebdfdd"/><stop offset="0.21" stop-color="#f6f1f0"/><stop offset="0.38" stop-color="#fdfbfb"/><stop offset="0.57" stop-color="#fff"/><stop offset="0.69" stop-color="#fbf8f8"/><stop offset="0.87" stop-color="#f1e5e3"/><stop offset="1" stop-color="#e8d3d1"/></linearGradient><linearGradient id="linear-gradient-23" x1="63.87" y1="79.53" x2="81.9" y2="79.36" xlink:href="#linear-gradient-22"/><linearGradient id="linear-gradient-24" x1="69" y1="83.64" x2="77.35" y2="83.56" gradientUnits="userSpaceOnUse"><stop offset="0" stop-color="#f26e7f"/><stop offset="0.02" stop-color="#f26f80"/><stop offset="0.24" stop-color="#f37986"/><stop offset="0.53" stop-color="#f37c88"/><stop offset="0.77" stop-color="#f37885"/><stop offset="1" stop-color="#f26d7d"/></linearGradient><linearGradient id="linear-gradient-25" x1="72.83" y1="77.82" x2="72.78" y2="74.96" gradientUnits="userSpaceOnUse"><stop offset="0" stop-color="#fed8b4"/><stop offset="1" stop-color="#f6d4ab"/></linearGradient><linearGradient id="linear-gradient-26" x1="63.85" y1="78.77" x2="81.89" y2="78.6" gradientUnits="userSpaceOnUse"><stop offset="0" stop-color="#e8d9d7"/><stop offset="0.05" stop-color="#eadddb"/><stop offset="0.31" stop-color="#f6efef"/><stop offset="0.48" stop-color="#faf6f6"/><stop offset="1" stop-color="#e8d3d1"/></linearGradient><linearGradient id="linear-gradient-27" x1="66.03" y1="78.08" x2="81.72" y2="77.92" xlink:href="#linear-gradient-24"/><linearGradient id="linear-gradient-28" x1="91.77" y1="61.08" x2="79.9" y2="61.17" xlink:href="#linear-gradient-5"/><linearGradient id="linear-gradient-29" x1="78.54" y1="62.11" x2="90.98" y2="62.11" gradientUnits="userSpaceOnUse"><stop offset="0" stop-color="#fff"/><stop offset="0.46" stop-color="#fdfcfc"/><stop offset="0.76" stop-color="#f6f4f4"/><stop offset="1" stop-color="#ece7e6"/></linearGradient><linearGradient id="linear-gradient-30" x1="87.33" y1="64.94" x2="82.5" y2="60.28" gradientUnits="userSpaceOnUse"><stop offset="0" stop-color="#b89c8c"/><stop offset="1" stop-color="#725342"/></linearGradient><linearGradient id="linear-gradient-31" x1="83.18" y1="60.29" x2="93.95" y2="63.56" gradientUnits="userSpaceOnUse"><stop offset="0" stop-color="#725342"/><stop offset="1" stop-color="#b89c8c"/></linearGradient><radialGradient id="radial-gradient-2" cx="86.76" cy="104.3" r="5.13" gradientTransform="translate(35.83 5.47) scale(0.55 0.54)" gradientUnits="userSpaceOnUse"><stop offset="0" stop-color="#2b3b3b"/><stop offset="1" stop-color="#1d2827"/></radialGradient><linearGradient id="linear-gradient-32" x1="78.54" y1="60.42" x2="93.11" y2="60.42" gradientUnits="userSpaceOnUse"><stop offset="0" stop-color="#5b2b20"/><stop offset="0.31" stop-color="#4a2319"/><stop offset="0.66" stop-color="#3d1d15"/><stop offset="1" stop-color="#391b13"/></linearGradient><linearGradient id="linear-gradient-33" x1="85.58" y1="57.31" x2="74.28" y2="63.09" xlink:href="#linear-gradient-5"/><linearGradient id="linear-gradient-34" x1="75.91" y1="61.2" x2="88.17" y2="61.2" xlink:href="#linear-gradient-32"/><linearGradient id="linear-gradient-35" x1="85.01" y1="63.63" x2="92.89" y2="63.63" xlink:href="#linear-gradient-32"/><linearGradient id="_ÂÁ_Ï_ÌÌ_È_ËÂÌÚ_1003-3" x1="67.05" y1="61.08" x2="55.19" y2="61.17" xlink:href="#_ÂÁ_Ï_ÌÌ_È_ËÂÌÚ_1003"/><linearGradient id="linear-gradient-36" x1="54.8" y1="62.11" x2="67.24" y2="62.11" xlink:href="#linear-gradient-29"/><linearGradient id="linear-gradient-37" x1="59.17" y1="59.32" x2="63.58" y2="65.47" xlink:href="#linear-gradient-31"/><linearGradient id="linear-gradient-38" x1="60.6" y1="60.46" x2="66.76" y2="67.64" xlink:href="#linear-gradient-31"/><radialGradient id="radial-gradient-3" cx="45.17" cy="104.29" r="5.13" xlink:href="#radial-gradient-2"/><linearGradient id="_ÂÁ_Ï_ÌÌ_È_ËÂÌÚ_1002" x1="52.4" y1="60.4" x2="67.24" y2="60.4" gradientUnits="userSpaceOnUse"><stop offset="0" stop-color="#391b13"/><stop offset="0.34" stop-color="#3d1d15"/><stop offset="0.69" stop-color="#4a2319"/><stop offset="1" stop-color="#5b2b20"/></linearGradient><linearGradient id="linear-gradient-39" x1="63.04" y1="58.34" x2="54.9" y2="62.5" xlink:href="#linear-gradient-5"/><linearGradient id="linear-gradient-40" x1="52.33" y1="61.17" x2="64.6" y2="61.17" xlink:href="#linear-gradient-32"/><linearGradient id="linear-gradient-41" x1="52.93" y1="63.64" x2="60.81" y2="63.64" xlink:href="#_ÂÁ_Ï_ÌÌ_È_ËÂÌÚ_1002"/><linearGradient id="linear-gradient-42" x1="38.43" y1="131.27" x2="43.6" y2="110.99" xlink:href="#linear-gradient-8"/><linearGradient id="_ÂÁ_Ï_ÌÌ_È_ËÂÌÚ_383" x1="67.17" y1="52.32" x2="51.74" y2="52.88" gradientUnits="userSpaceOnUse"><stop offset="0" stop-color="#422018"/><stop offset="0.32" stop-color="#46221a"/><stop offset="0.66" stop-color="#53281e"/><stop offset="1" stop-color="#683126"/></linearGradient><linearGradient id="linear-gradient-43" x1="53.8" y1="133.67" x2="46.85" y2="105.36" xlink:href="#linear-gradient-8"/><linearGradient id="_ÂÁ_Ï_ÌÌ_È_ËÂÌÚ_298-3" x1="54.8" y1="120.57" x2="62.44" y2="97.64" xlink:href="#_ÂÁ_Ï_ÌÌ_È_ËÂÌÚ_298"/><linearGradient id="linear-gradient-44" x1="94.05" y1="52.55" x2="78.8" y2="53.1" gradientUnits="userSpaceOnUse"><stop offset="0" stop-color="#683126"/><stop offset="0.34" stop-color="#53281e"/><stop offset="0.68" stop-color="#46221a"/><stop offset="1" stop-color="#422018"/></linearGradient><linearGradient id="linear-gradient-45" x1="63.06" y1="-9.6" x2="60.13" y2="76.6" xlink:href="#linear-gradient-8"/><linearGradient id="_ÂÁ_Ï_ÌÌ_È_ËÂÌÚ_298-4" x1="48.62" y1="22.75" x2="29.13" y2="110.9" xlink:href="#_ÂÁ_Ï_ÌÌ_È_ËÂÌÚ_298"/><linearGradient id="_ÂÁ_Ï_ÌÌ_È_ËÂÌÚ_298-5" x1="33.48" y1="132.14" x2="42.49" y2="92" xlink:href="#_ÂÁ_Ï_ÌÌ_È_ËÂÌÚ_298"/><linearGradient id="linear-gradient-46" x1="96.04" y1="12.27" x2="93.61" y2="83.69" xlink:href="#linear-gradient-8"/><linearGradient id="linear-gradient-47" x1="29.08" y1="128.46" x2="46.92" y2="94.34" xlink:href="#linear-gradient-8"/><linearGradient id="linear-gradient-48" x1="60.24" y1="69.21" x2="74.34" y2="22.25" xlink:href="#linear-gradient-44"/><linearGradient id="_ÂÁ_Ï_ÌÌ_È_ËÂÌÚ_383-2" x1="90.82" y1="39.18" x2="109.21" y2="77.38" xlink:href="#_ÂÁ_Ï_ÌÌ_È_ËÂÌÚ_383"/><linearGradient id="_ÂÁ_Ï_ÌÌ_È_ËÂÌÚ_298-6" x1="42.79" y1="123.76" x2="56.09" y2="72.1" xlink:href="#_ÂÁ_Ï_ÌÌ_È_ËÂÌÚ_298"/><linearGradient id="_ÂÁ_Ï_ÌÌ_È_ËÂÌÚ_298-7" x1="56.83" y1="132.98" x2="53.73" y2="84.5" xlink:href="#_ÂÁ_Ï_ÌÌ_È_ËÂÌÚ_298"/><linearGradient id="_ÂÁ_Ï_ÌÌ_È_ËÂÌÚ_298-8" x1="68" y1="30.68" x2="63.17" y2="60.35" xlink:href="#_ÂÁ_Ï_ÌÌ_È_ËÂÌÚ_298"/><linearGradient id="linear-gradient-49" x1="25.62" y1="96.26" x2="58.76" y2="53.54" xlink:href="#linear-gradient-8"/><linearGradient id="linear-gradient-50" x1="27.19" y1="81.09" x2="52.84" y2="81.09" xlink:href="#linear-gradient-8"/><linearGradient id="_ÂÁ_Ï_ÌÌ_È_ËÂÌÚ_298-9" x1="31.34" y1="96.47" x2="54.01" y2="96.47" xlink:href="#_ÂÁ_Ï_ÌÌ_È_ËÂÌÚ_298"/><linearGradient id="_ÂÁ_Ï_ÌÌ_È_ËÂÌÚ_361" x1="88.78" y1="66.31" x2="92.93" y2="66.31" gradientUnits="userSpaceOnUse"><stop offset="0" stop-color="#f8c49d"/><stop offset="0.48" stop-color="#fbcfaa"/><stop offset="1" stop-color="#fed8b4"/></linearGradient><linearGradient id="_ÂÁ_Ï_ÌÌ_È_ËÂÌÚ_126" x1="54.08" y1="66.31" x2="58.22" y2="66.31" gradientUnits="userSpaceOnUse"><stop offset="0" stop-color="#fed8b4"/><stop offset="0.52" stop-color="#fbcfaa"/><stop offset="1" stop-color="#f8c49d"/></linearGradient><linearGradient id="_ÂÁ_Ï_ÌÌ_È_ËÂÌÚ_298-10" x1="26.89" y1="117.95" x2="59.05" y2="85.94" xlink:href="#_ÂÁ_Ï_ÌÌ_È_ËÂÌÚ_298"/><linearGradient id="_ÂÁ_Ï_ÌÌ_È_ËÂÌÚ_298-11" x1="93.33" y1="36.01" x2="98.54" y2="60.11" xlink:href="#_ÂÁ_Ï_ÌÌ_È_ËÂÌÚ_298"/><linearGradient id="_ÂÁ_Ï_ÌÌ_È_ËÂÌÚ_298-12" x1="117.97" y1="104.89" x2="103.64" y2="71.58" xlink:href="#_ÂÁ_Ï_ÌÌ_È_ËÂÌÚ_298"/></defs><circle class="cls-1" cx="72" cy="72" r="72" transform="translate(-29.82 72) rotate(-45)"/><polygon class="cls-2" points="48.16 53.31 38.09 101.99 103.85 103.99 98.02 55.67 48.16 53.31"/><path class="cls-3" d="M88.21,94.79a57.73,57.73,0,0,0-29.46,0s-5.25,5.43-4.21,9.2c.61,2.24,19.35,8.79,19.35,8.79s19.27-3.61,18.29-9.7S88.21,94.79,88.21,94.79Z"/><path class="cls-4" d="M73.61,92.91C63.18,93,60.3,94.13,58.75,94.79a10.53,10.53,0,0,0-1.4,2.35s3.2-3.29,16.26-3.2,15.4,2.44,16,2.8a7.77,7.77,0,0,0-1.39-1.95C87.39,94.48,85.69,92.82,73.61,92.91Z"/><polygon class="cls-5" points="25.99 127.38 25.99 127.38 25.99 127.38 25.99 127.38"/><path class="cls-5" d="M28.29,129.21l-.17-.13Z"/><polygon class="cls-5" points="119.71 125.92 119.72 125.91 119.71 125.92 119.71 125.92"/><polygon class="cls-5" points="35.23 133.91 35.23 133.91 35.23 133.91 35.23 133.91"/><path class="cls-5" d="M121.07,124.68h0Z"/><path class="cls-5" d="M121.07,124.68l1.32-1.25c-.45-3.63-1-5.54-4-11.7-1.86-3.83-10.78-6.22-11.88-6.33-3.83-.36-19.34-1.56-20.94-6.62-2-6.28.38-14.35.38-14.35L62.08,83.25c2.69,4.43,2.59,9.14,2.48,13.92-.12,5.25-16.21,9-21.74,9.55-3,.33-13.67,3.8-15.15,8.93A34.51,34.51,0,0,0,26,127.38h0c.7.58,1.41,1.15,2.13,1.7l.17.13a69.82,69.82,0,0,0,6.94,4.7h0l84.48-8h0l1.34-1.22Z"/><path class="cls-6" d="M85.42,94.54c-.11-1.16-.28-4.08-.32-5.61-.33.39-20.71-.34-21.5-1.49l-2.37,0s.7,7.4-.41,12.71c-.23,1.08-6.83,2.61-11.17,3.5.31.24,1.42,1,1.67,1.11,3.71.36,6.91.79,8.42.53A39,39,0,0,0,67,102.59c12.22-5.54,16-7.37,16-7.37.57,5.15,4.42,8.55,4.21,8.5a41,41,0,0,0,10.15.79,19.89,19.89,0,0,0,2.48-1.32C90.56,102,87.76,100.43,87.09,100S85.68,97.21,85.42,94.54Z"/><path class="cls-7" d="M72.34,109.87s4.4.77,5.56,2.12C77.9,112,76.63,108.53,72.34,109.87Z"/><path class="cls-8" d="M78.05,109c3.81-2.94,7.63-2.1,12.5-2.66s13.3-2.38,13.3-2.38c-2.22.43-21.15,1.06-22.86,1.48S78.05,109,78.05,109Z"/><path class="cls-9" d="M68.71,105.89c-2.11-.7-18.2-1.68-21.09-1.4,0,0,20.3,2,24.38,4.51A6.67,6.67,0,0,0,68.71,105.89Z"/><path class="cls-10" d="M61.29,96.76c14,4.41,23.91-5.48,23.91-5.48a48.77,48.77,0,0,1,.49-6c-1.09-.1-25-.95-25-.95C61.41,87.54,61.29,96.76,61.29,96.76Z"/><path class="cls-11" d="M35.89,134.3Z"/><path class="cls-12" d="M32.23,109.35a25.16,25.16,0,0,0-3,1.35c2.13,7.67,3.82,15.63,5.12,22.71.5.3,1,.6,1.5.89h0l1.51.85Z"/><path class="cls-13" d="M28.19,129.14l-.12-.1Z"/><path class="cls-13" d="M37.19,135l-.13-.08Z"/><path class="cls-13" d="M24,125.68l-.05-.05Z"/><path class="cls-13" d="M32.59,132.26l-.15-.1Z"/><polygon class="cls-13" points="22.02 123.82 22.02 123.82 22.02 123.82 22.02 123.82"/><path class="cls-13" d="M38.7,123c-.2-4.12-8.17-15.72-12-13.39-2.78,1.71-4.12,7.33-4.72,14.26h0c.64.62,1.29,1.22,1.95,1.81l.05.05q2,1.75,4.05,3.36l.12.1c1.38,1.05,2.79,2.06,4.25,3l.15.1q2.17,1.43,4.47,2.7l.13.08c.78.42,1.55.84,2.34,1.24C39.12,129.75,38.78,124.44,38.7,123Z"/><path class="cls-14" d="M39.79,136.41l-.15-.08Z"/><polygon class="cls-14" points="43.22 138.01 43.22 138.01 43.22 138.01 43.22 138.01"/><polygon class="cls-14" points="109.62 133.4 109.62 133.4 109.62 133.4 109.62 133.4"/><path class="cls-14" d="M107.49,134.66l0,0Z"/><path class="cls-14" d="M105.32,135.84l0,0Z"/><path class="cls-14" d="M41.48,137.22l-.07,0Z"/><polygon class="cls-14" points="36.27 134.52 36.27 134.52 36.27 134.52 36.27 134.52"/><path class="cls-14" d="M38.12,135.54l-.2-.11Z"/><path class="cls-14" d="M98.36,102.77C72.66,128.79,51,103,51,103l-20.38,6.7c2.45,9.24,4.29,17.73,5.63,24.79h0c.55.31,1.09.62,1.65.91l.2.11,1.52.79.15.08q.81.41,1.62.78l.07,0c.57.27,1.15.54,1.74.79h57.56c1.53-.66,3-1.38,4.49-2.15l0,0c.72-.38,1.43-.76,2.13-1.16l0,0q1.07-.61,2.13-1.26h0a154.07,154.07,0,0,1,7.49-24.14Z"/><path class="cls-15" d="M41.68,137.32l.12.69h1.41c-.51-.22-1-.45-1.52-.69Z"/><path class="cls-16" d="M43.21,138c-.51-.22-1-.45-1.52-.69C42.19,137.56,42.7,137.79,43.21,138Z"/><path class="cls-17" d="M100.78,138h0c1.44-.63,2.86-1.3,4.24-2h0C103.64,136.71,102.22,137.38,100.78,138Z"/><path class="cls-18" d="M104.12,118.9H39.25s1,9.51,2.43,18.42A72.11,72.11,0,0,0,105,136h0C104.77,127.42,104.12,118.9,104.12,118.9Z"/><path class="cls-19" d="M92.89,109.26l-6.28,3.52s-1.08,18.22-2,30.12q2.42-.43,4.77-1l1.43-.62Z"/><path class="cls-20" d="M59.81,110l-6.23-3.5,2.31,35.68q3.27.75,6.65,1.19l.17,0C61.69,130.6,59.81,110,59.81,110Z"/><path class="cls-21" d="M74.15,114.4C61,114.18,51,103,51,103l-3.53,1.16S56,116.86,74.15,117.32c21.13.54,28.24-13.56,28.24-13.56l-4-1C95.35,107.3,86,114.6,74.15,114.4Z"/><path class="cls-13" d="M35.69,134.18l-.3-.18Z"/><polygon class="cls-13" points="43.22 138.01 43.22 138.01 43.22 138.01 43.22 138.01"/><path class="cls-13" d="M38.1,135.53l-.07,0Z"/><path class="cls-13" d="M57.12,120.15c-2.7-17.77-1-21.4-1-21.4L26.74,109.56l6.39,23.05c.74.48,1.49.94,2.26,1.39l.3.18c.77.45,1.55.89,2.34,1.31l.07,0c1.67.89,3.37,1.72,5.12,2.48H59.28C58.73,132,58,126,57.12,120.15Z"/><path class="cls-22" d="M39.25,118.9s-.33,8.57-.18,17.14a71.67,71.67,0,0,0,20,6.81l-3-26.14Z"/><path class="cls-13" d="M113.25,131l-.18.13Z"/><path class="cls-13" d="M111.62,132.12l-.21.14Z"/><path class="cls-13" d="M109.77,133.31l.09-.06Z"/><path class="cls-13" d="M111.41,132.26l.21-.14c.48-.32,1-.64,1.45-1l.18-.13,1.58-1.13,5.08-20.32L90.48,98.75s1.75,3.63-1,21.4c-.89,5.8-1.6,11.8-2.16,17.86h13.42a71.68,71.68,0,0,0,9-4.7l.09-.06C110.38,132.93,110.9,132.6,111.41,132.26Z"/><path class="cls-23" d="M102.54,137.22h0Z"/><path class="cls-24" d="M106,135.5l-.12.06Z"/><polygon class="cls-25" points="107.6 134.6 107.6 134.6 107.59 134.6 107.6 134.6"/><path class="cls-26" d="M104.27,136.37l-.09,0Z"/><path class="cls-27" d="M107.4,118.9l-16.92-2.19L87.6,142.3A71,71,0,0,0,100.78,138h0c.58-.25,1.15-.51,1.73-.78h0l1.64-.8.09,0c.53-.26,1.06-.53,1.58-.81l.12-.06,1.62-.9h0C107.69,126.53,107.4,118.9,107.4,118.9Z"/><path class="cls-28" d="M58.19,109l.35,19.8s8.32-4.39,5.11-16.81A43.09,43.09,0,0,1,58.19,109Z"/><path class="cls-29" d="M50.55,102,44.14,118.9,52,120.22l-6.21,3.44s3,9.58,5.39,17.29a71.6,71.6,0,0,0,8.15,1.94c-.81-7.09-3-18.25-4-22.83Z"/><path class="cls-13" d="M115.63,129.28l-.15.11Z"/><path class="cls-13" d="M117.46,127.83l-.06,0Z"/><polygon class="cls-13" points="109.53 133.45 109.53 133.45 109.53 133.45 109.53 133.45"/><path class="cls-13" d="M121.12,124.64l-.08.07Z"/><path class="cls-13" d="M111.71,132.07l-.27.17Z"/><path class="cls-13" d="M111.71,132.07q1.92-1.29,3.77-2.68l.15-.11c.6-.46,1.19-.93,1.77-1.4l.06,0q1.85-1.5,3.58-3.12l.08-.07q1.75-1.64,3.39-3.38c-1.43-10.47-4.6-11.7-4.6-11.7-4.72-.88-10.35,23-10.35,23s0,.3,0,.85h0c.65-.39,1.28-.8,1.91-1.21Z"/><path class="cls-30" d="M56.4,104.61c-1.35-5.13,2.35-9.82,2.35-9.82s-6.71,2.1-9,11.15S46.35,118,46.35,118l7.18,1.49-5.91,2.37s3.21,11.19,5.48,19.6q2.91.78,5.91,1.34l2,.33C59.69,127.37,57,106.91,56.4,104.61Z"/><path class="cls-31" d="M94.62,120.22l7.88-1.32L96.1,102l-4.83,18.07c-1,4.53-2.32,15.08-3,22.08a71.73,71.73,0,0,0,8-2.34c2.15-7.35,4.54-16.14,4.54-16.14Z"/><path class="cls-32" d="M93.11,119.52,100.3,118s-1.13-3-3.41-12.09-8.68-11.15-8.68-11.15,3.38,4.69,2,9.82c-.59,2.25-2.35,22.27-3.68,37.92a73.3,73.3,0,0,0,8-2.15c2.17-8.29,4.45-18.49,4.45-18.49Z"/><path class="cls-33" d="M34.76,133.63l.81.48c-.38-2.65-.66-4.57-.69-4.78S34.8,130.92,34.76,133.63Z"/><path class="cls-34" d="M109.5,126.63c0,.21-.38,3.17-.88,7.37l1-.62C109.61,129.41,109.55,126.33,109.5,126.63Z"/><path class="cls-35" d="M119.62,126l.23-.2Z"/><path class="cls-36" d="M124.75,121c-1.06-9.87-4.84-11.44-4.84-11.44-5.31-.27-4.38,8.54-2,17.86.56-.47,1.12-.94,1.66-1.43l.23-.2C121.56,124.27,123.19,122.68,124.75,121Z"/><path class="cls-37" d="M24.64,126.23l0,0Z"/><path class="cls-38" d="M23.29,125Z"/><path class="cls-39" d="M26,127.4l-.07-.06Z"/><polygon class="cls-40" points="21.98 123.78 21.99 123.79 21.98 123.78 21.98 123.78"/><path class="cls-41" d="M26.74,109.56S22.62,111,22,123.79h0l1.3,1.23h0c.43.4.87.79,1.31,1.17l0,0,1.3,1.11.07.06,1.38,1.12C29.86,119.11,31.27,109.54,26.74,109.56Z"/><path class="cls-42" d="M101.06,62.77,96.91,74.2s-8,12-9.48,17.26S89,104.75,93.34,107s15.4,7.08,8.64,17.45c0,0,12.85-3.52,6.76-15.43C106,103.53,101.06,62.77,101.06,62.77Z"/><path class="cls-43" d="M102.22,40.93c-.89,5.56-.48,17.83-.48,17.83s-6.36,18.13-7,27.62c-.61,9.33,18.56,21.86,17.54,31.55-.63,6-7.16,10.45-7.16,10.45,8.76-1.79,11.51-6.21,12.87-9.48,3.89-9.4-2.33-18.33-6.44-26.23C103.65,77.38,105.12,52.16,102.22,40.93Z"/><path class="cls-44" d="M98.72,109c-2.85-4.43-3.2-7-3-13.51-1.59,6.75-1.16,12.12,2.81,16.88,1.72,2.06,4.14,3.13,4.38,5.86a11.32,11.32,0,0,1-.93,6.15c2.69-2.1,6.49-4.83,3.53-9.58C104.27,112.83,100,111,98.72,109Z"/><path class="cls-45" d="M96.36,87.64c-1.11-8.51,5.63-19.4,6.13-27.78a24.81,24.81,0,0,0-8.66-21,26.53,26.53,0,0,1,5.32,22.36c-1.65,7.58-8.93,21.88-7,29.91,1.88,7.82,16.28,10.7,19.47,26.25,1.14,5.57-3.74,8.77-6.47,11,14.42-4,12.4-15.15,9.07-21.5C108.74,96.42,97.52,96.47,96.36,87.64Z"/><path class="cls-46" d="M47.28,58.45c-4.54.26-3.37,5-1.37,9.49,1.3,2.92,2.53,6.23,5.87,6.23,0,0-.86-5.87-1.89-13.59C49.89,60.58,48.16,58.4,47.28,58.45Z"/><path class="cls-47" d="M48.16,66.5c1.19-7.93-4.25-8.47-3-3.06,0,0,.76-2.55,1.45-1.79.84.94-.91,1.45,0,5.55a11.23,11.23,0,0,0,2.72,4.37A6.13,6.13,0,0,1,48.16,66.5Z"/><path class="cls-46" d="M99.27,58.45c-.89-.05-2.61,2.13-2.61,2.13-1,7.72-1.89,13.59-1.89,13.59,3.34,0,4.56-3.31,5.87-6.23C102.64,63.49,103.81,58.71,99.27,58.45Z"/><path class="cls-48" d="M98.39,66.5a6.13,6.13,0,0,1-1.13,5.07A11.23,11.23,0,0,0,100,67.2c.89-4.1-.86-4.61,0-5.55.69-.76,1.45,1.79,1.45,1.79C102.64,58,97.2,58.57,98.39,66.5Z"/><path class="cls-49" d="M74.69,21.65s-.92,0-1.37,0-1.37,0-1.37,0c-10.12.64-18.66,6.87-21.58,13.44C47.2,42.25,48.11,52.31,49,58.88s2.72,17.25,4.38,20.27S63.45,90,65.26,91.3s3.18,3.3,8.08,3.52C78,95,80,92.58,81.68,91.3s9.9-9.14,11.56-12.15,3.47-13.69,4.38-20.27,1.81-16.63-1.36-23.79C93.35,28.52,84.8,22.29,74.69,21.65Z"/><path class="cls-50" d="M86.29,50.85C75.68,51.92,75.84,62.37,74.85,68.31c13,5.1,20.6-4.19,20.6-4.19s1.08-7.07-2.63-10.9A7.18,7.18,0,0,0,86.29,50.85Z"/><path class="cls-51" d="M59.39,51.3c-3.31-.21-4.43-.14-6.11,1.21-3.91,3.16-2.13,12.79-2.13,12.79s7.65,9,20.63,3.46C70.75,62.89,70,52,59.39,51.3Z"/><path class="cls-52" d="M63.72,61.77c-3-.88-14.52-3.28-14,.51C51,70.65,52.08,76.41,53.55,79s6.08,7,8,7.35c3,.51,6.25-10.51,6.32-14.29C68,66.78,66.7,62.65,63.72,61.77Z"/><path class="cls-53" d="M73.87,87.26c-2.13.1-3.84.86-3.83,1.69s1.74,1.43,3.86,1.33,3.83-.85,3.83-1.68S76,87.16,73.87,87.26Z"/><path class="cls-54" d="M82.94,61.77c-3,.88-4.84,5.07-4.74,10.36.07,3.77,3.83,14.74,6.87,14.23,2-.32,6.5-4.62,8-7.35s2.58-8.36,3.8-16.73C97.46,58.49,85.91,60.89,82.94,61.77Z"/><path class="cls-55" d="M49.13,59.72S51.26,75,53.24,79.18c.64,1.38,6.34,7.15,9.95,10.46,0,0-7.25-7.12-9.16-12C52.38,73.49,49.13,59.72,49.13,59.72Z"/><path class="cls-56" d="M75.73,26.67c-15.25-4.2-27.57,31.16-27.57,31.16l9.3,4.37s1.08-8.44,7.23-20.5C71.54,28.27,86.16,35,86.16,35c2,1.7,6.73,16.18,7,26.57l3.1,6.26.7-5.58c.09-9.46-1.59-25.95-2.37-27.54C93.39,32.42,91,30.87,75.73,26.67Z"/><path class="cls-46" d="M83.5,89.69c3.61-3.32,9.28-9.13,9.92-10.51,2-4.23,4.1-19.46,4.1-19.46s-3.25,13.77-4.89,17.94C90.71,82.52,83.5,89.69,83.5,89.69Z"/><path class="cls-57" d="M92.89,53.78C88.19,50.83,85,53,85,53c9.65-.67,8.88,8.32,8.88,8.32S95.4,55.35,92.89,53.78Z"/><path class="cls-58" d="M73.26,94.72A10.33,10.33,0,0,1,67.54,93c-.62-.35-6.39-5.3-6.39-5.3s4.37,5.23,6.39,6.36c1.85,1,3.62,2.34,5.78,2.34a12.18,12.18,0,0,0,6.79-2.91c1.42-1.16,5.58-5.87,5.58-5.87-.45.42-5.6,4.81-6.53,5.42A9.57,9.57,0,0,1,73.26,94.72Z"/><path class="cls-59" d="M61.44,34.65C54.28,43.77,46.8,62.71,47.32,66.74s8.12,15.38,8.12,15.38-4.27-17.24.65-29.33S65,28.36,81.73,30.65C81.73,30.65,68.59,25.54,61.44,34.65Z"/><polygon class="cls-60" points="72.83 73.14 68.95 73.14 68.52 73.69 73.06 76.77 77.32 73.6 76.71 73.09 72.83 73.14"/><path class="cls-61" d="M72.83,73.25,70,72.48l-1.47.17.13,1a5.36,5.36,0,0,1,3.23.1h1.85a6,6,0,0,1,3.59-.11l.08-.83-1.47-.29Z"/><path class="cls-46" d="M77.27,70.05s.68,1.12.39,1.84-2.22.1-3,.59c-1.46.9-2.34.68-3.79,0-.95-.45-2.29.11-2.83-.66a2.41,2.41,0,0,1,0-1.77,2.1,2.1,0,0,0-.92,1.64c-.14,1.38,1.3,2.13,1.52,2s-.18-1.18,1.15-1,1.26.85,1.48,1.07a6.22,6.22,0,0,0,2.95,0c.39-.25.28-1.15,1.54-1.11s1.3.89,1.48,1,.92-.55,1.14-1.82A1.79,1.79,0,0,0,77.27,70.05Z"/><path class="cls-62" d="M69.83,69.43a2.56,2.56,0,0,0,.46,1.82c.58.88,4.63,1.59,5.33-.41A4.88,4.88,0,0,0,75.68,69C75.6,68.12,69.85,68.55,69.83,69.43Z"/><path class="cls-63" d="M69,85c2.12,1.28,7.32,1,8.35.14a16.53,16.53,0,0,0,3-3.85H65.9A24.92,24.92,0,0,0,69,85Z"/><path class="cls-64" d="M61.35,76.8c-.2.46-.09,1.29.5,1.43a12,12,0,0,1,3.41,1.31C64.22,78.3,61.53,76.4,61.35,76.8Z"/><path class="cls-65" d="M80.71,79.65a9.51,9.51,0,0,1,3.1-1.21c.85-.37,1-1,.76-1.49S81.72,78.38,80.71,79.65Z"/><path class="cls-66" d="M62.75,77.59s3.25,3.32,4,3.82a35.92,35.92,0,0,0,5.76,2.39c.81.15,5.77-1,6.26-1.57s4.68-4.64,4.68-4.64-10.36.19-10.82.22S62.75,77.59,62.75,77.59Z"/><path class="cls-67" d="M67.25,79.4,66.7,81s4.13,2.4,6.37,2.4,6.33-2,6.33-2l-.83-2Z"/><path class="cls-68" d="M69.56,82.2c-1.25-.17-6.81-4.61-6.81-4.61a67.07,67.07,0,0,0,5.74,6.34c1.75,1.39,7.43,1.49,9.41,0,1.31-1,5.5-6.34,5.5-6.34s-5,4.31-6.35,4.64A39,39,0,0,1,69.56,82.2Z"/><path class="cls-69" d="M66.59,78.14a2.09,2.09,0,0,0,1.68,2.41c2,.5,8.77.21,9.68.1,2.21-.27,2-2.66,2-2.66Z"/><path class="cls-70" d="M73.35,82.57c-1.39-.09-3.95.14-4.21.48-.64.83.87,1.57,4.21,1.6s4.45-1.14,3.84-1.6S74.74,82.65,73.35,82.57Z"/><path class="cls-71" d="M74.09,83.14c-.58.2,2.58.48,3.26.17a5.58,5.58,0,0,0,1.52-1.54,15.11,15.11,0,0,0-1.36.66A31.56,31.56,0,0,1,74.09,83.14Z"/><path class="cls-72" d="M73.35,76.35a90.55,90.55,0,0,0-9.83,1.2s7.34-.42,9.89-.37,8.72.34,8.72.34A50.18,50.18,0,0,0,73.35,76.35Z"/><path class="cls-73" d="M66.59,78.8s1,.35,6.69.45,6.63-.41,6.63-.41a7.08,7.08,0,0,0,.08-.72l-13.4,0A2.15,2.15,0,0,0,66.59,78.8Z"/><path class="cls-68" d="M62.75,77.59s3.39,1.1,10.32,1.24c7.82.15,10.33-1.24,10.33-1.24s-6.67-.41-10-.41C68.94,77.18,62.75,77.59,62.75,77.59Z"/><path class="cls-74" d="M66,77.84a58.3,58.3,0,0,0,7.6.76A42.55,42.55,0,0,0,81.73,78s-4.71-.58-8.52-.61A53.49,53.49,0,0,0,66,77.84Z"/><path class="cls-66" d="M62.24,77.76a7.49,7.49,0,0,1,1.83.36,18.91,18.91,0,0,0-2.3-1.05C61.67,77.12,61.77,77.55,62.24,77.76Z"/><path class="cls-66" d="M82,78.3a6.28,6.28,0,0,1,1.77-.41c.47-.22.54-.64.45-.7A11.22,11.22,0,0,0,82,78.3Z"/><path class="cls-75" d="M90.57,58.15c-1.61-1.14-6-2.86-9.38-.23a9.28,9.28,0,0,0-3,5.16,11.48,11.48,0,0,0,6,2.59,10.15,10.15,0,0,0,5.69-1.21c2.62-1.55,2.44-3.59,2.44-3.59A3.41,3.41,0,0,0,90.57,58.15Z"/><path class="cls-76" d="M85.59,59.21a7.24,7.24,0,0,0-7,3.81,10.78,10.78,0,0,0,9,1.72A8.52,8.52,0,0,0,91,62.53,6.87,6.87,0,0,0,85.59,59.21Z"/><path class="cls-77" d="M84.27,59.12c-1.71-.07-4.77,2.19-5.73,3.9,0,0,3.13-2.41,6.41-2.15A8.42,8.42,0,0,1,90.53,63s.15-.16.45-.51C91,62.53,89.6,59.37,84.27,59.12Z"/><path class="cls-78" d="M84.37,58.69a3.72,3.72,0,0,0-3.72,3.72,2.71,2.71,0,0,0,1.18,2.23,9,9,0,0,0,5,.32,2.89,2.89,0,0,0,1.46-2.78A3.72,3.72,0,0,0,84.37,58.69Z"/><path class="cls-79" d="M86.68,59.12H82.32a4.06,4.06,0,0,0-1.63,2.65,7.77,7.77,0,0,1,7.55-.2A3.69,3.69,0,0,0,86.68,59.12Z"/><path class="cls-80" d="M84.59,59.77a2.44,2.44,0,0,0-2.75,2,2.32,2.32,0,0,0,2.26,2.43,2.45,2.45,0,0,0,2.75-2A2.31,2.31,0,0,0,84.59,59.77Z"/><path class="cls-81" d="M85.41,57.83c-4.06,0-6.61,2.45-6.87,5.19,0,0,1.5-3.36,6.56-3.31,3.94,0,5.73,2.94,6.16,2.88,1.74-.26,1.85-2.44,1.85-2.65C91.26,60.75,88.72,57.86,85.41,57.83Z"/><path class="cls-82" d="M81.73,57.4A7,7,0,0,0,79,60.71a10.24,10.24,0,0,1,3.47-3.25c2.62-1.49,6.69-.08,6.69-.08A7.83,7.83,0,0,0,81.73,57.4Z"/><path class="cls-83" d="M84.92,59.37c-2.6,0-5,.64-6.38,3.65a6.9,6.9,0,0,1,6.19-3.2,9.28,9.28,0,0,1,6.08,2.54A7,7,0,0,0,84.92,59.37Z"/><path class="cls-84" d="M84.31,61.23a.59.59,0,0,0-.78.3.62.62,0,0,0,.28.81.61.61,0,0,0,.5-1.11Z"/><path class="cls-84" d="M86.46,61.67a.83.83,0,0,0-1.08.39.79.79,0,0,0,.41,1,.82.82,0,0,0,1.08-.38A.8.8,0,0,0,86.46,61.67Z"/><path class="cls-85" d="M91.26,62.59c.24-.23-.68-.39-.56-.52A8,8,0,0,1,85,65.18a7.8,7.8,0,0,0,4.81-1.41h0c1.75.24,3.07-1.54,3.07-1.54C91.73,63.07,91.26,62.59,91.26,62.59Z"/><path class="cls-86" d="M64.57,57.9c-3.37-2.62-7.78-.87-9.38.28a3.4,3.4,0,0,0-1.71,2.73s-.17,2,2.46,3.57a10,10,0,0,0,5.69,1.18A11.41,11.41,0,0,0,67.58,63,9.22,9.22,0,0,0,64.57,57.9Z"/><path class="cls-87" d="M60.17,59.22a6.85,6.85,0,0,0-5.37,3.35,8.43,8.43,0,0,0,3.43,2.18,10.78,10.78,0,0,0,9-1.77A7.21,7.21,0,0,0,60.17,59.22Z"/><path class="cls-77" d="M61.49,59.12c-5.33.27-6.69,3.45-6.69,3.45l.45.5a8.42,8.42,0,0,1,5.56-2.2C64.1,60.59,67.24,63,67.24,63,66.27,61.28,63.2,59,61.49,59.12Z"/><path class="cls-88" d="M61.38,58.68a3.73,3.73,0,0,0-3.92,3.52A2.9,2.9,0,0,0,58.94,65a9,9,0,0,0,4.94-.33,2.62,2.62,0,0,0,1.24-2.26A3.72,3.72,0,0,0,61.38,58.68Z"/><path class="cls-89" d="M62.94,59.32l-3.86-.19a4.08,4.08,0,0,0-1.55,2.46,7.76,7.76,0,0,1,7.55.15A2.79,2.79,0,0,0,62.94,59.32Z"/><path class="cls-90" d="M61.17,59.76a2.31,2.31,0,0,0-2.24,2.44,2.45,2.45,0,0,0,2.76,2,2.31,2.31,0,0,0,2.24-2.44A2.45,2.45,0,0,0,61.17,59.76Z"/><path class="cls-91" d="M60.34,57.83c-3.31.05-6,3.13-7.94,2,0,.21.37,2.57,2.12,2.81.43.06,2.16-2.86,6.1-2.92,5.07-.08,6.62,3.28,6.62,3.28C67,60.24,64.4,57.77,60.34,57.83Z"/><path class="cls-92" d="M64,57.37a7.89,7.89,0,0,0-7.44,0s4.06-1.43,6.69.05a10.3,10.3,0,0,1,3.49,3.22A7.14,7.14,0,0,0,64,57.37Z"/><path class="cls-93" d="M60.84,59.37a7,7,0,0,0-5.88,3A9.26,9.26,0,0,1,61,59.82,6.91,6.91,0,0,1,67.24,63C65.87,60,63.43,59.31,60.84,59.37Z"/><path class="cls-84" d="M61.69,61.22a.6.6,0,0,0-.81.28.6.6,0,1,0,1.07.55A.62.62,0,0,0,61.69,61.22Z"/><path class="cls-84" d="M63.86,61.75a.84.84,0,0,0-1.12.35.81.81,0,0,0,.37,1.09.84.84,0,0,0,1.11-.35A.8.8,0,0,0,63.86,61.75Z"/><path class="cls-94" d="M55.07,62.1c.12.13-.79.29-.55.52l0,0c-.11.08-.59.37-1.61-.36,0,0,1.32,1.74,3,1.52a7.9,7.9,0,0,0,4.84,1.37A8.05,8.05,0,0,1,55.07,62.1Z"/><path class="cls-95" d="M41.4,106.7c-12,4.73-11.49,10-11.49,15,0,8.85,10.47,11.67,10.47,11.67-5.22-11.49,16.24-26.72,16.24-26.72S53.4,102,41.4,106.7Z"/><path class="cls-96" d="M66.81,52a5.35,5.35,0,0,1-.76,1.32,2,2,0,0,0,.39-1.48c-1.65-.66-6.88-1.65-9.26-1.19-3.06.6-5.37,4.17-5.37,4.17a10.13,10.13,0,0,1,5.63-2.19c3.05,0,8.89,1.82,8.89,1.82s.76-.1.84-2.18a3.6,3.6,0,0,1-.77,1.61A4.34,4.34,0,0,0,66.81,52Z"/><path class="cls-97" d="M44.32,105.77c9.49,11.66-3.66,28.39-3.66,28.39s15.83-4.87,20.45-11.29-4.27-24.51-4.27-24.51Z"/><path class="cls-98" d="M57.35,103.08c3.12,5.52,3,12.27,1.19,18.52-1.56,5.32-9.41,8.71-15.87,11.88,6.65-1.68,17.39-5.37,19.63-11.94S62.52,106.44,57.35,103.08Z"/><path class="cls-99" d="M88.76,50.65c-2.38-.46-7.61.53-9.26,1.19a2,2,0,0,0,.4,1.48A5.33,5.33,0,0,1,79.13,52a4.34,4.34,0,0,0,.41,1.88,3.73,3.73,0,0,1-.77-1.61c.09,2.08.85,2.18.85,2.18s5.83-1.84,8.88-1.82a10.13,10.13,0,0,1,5.63,2.19S91.82,51.25,88.76,50.65Z"/><path class="cls-100" d="M56.16,24.24c-12.89,8-17.27,21.15-19.81,38.53-.92,6.28,1.74,23.1-5.71,43.95,5.42-3.81,12.78-5.67,17.33-10.33s3.5-9.55,4.57-15.69c1.36-7.77-.83-13.88-.43-21.77.86-7,7.12-24.42,15.83-27.45,12.6-4.38,18.31,1.74,18.31,1.74s5.51-4.17,3.6-6.72C89.85,26.5,77.23,11.13,56.16,24.24Z"/><path class="cls-101" d="M35.22,76c.71,12.57-2.85,24.11-6.91,35.91,4.81-7.4,8.65-15.55,10.31-24.23,1.34-7-.36-14.32-.53-21.34-.23-10,3.82-23.11,9.87-35.08C38.09,42.35,34.49,63,35.22,76Z"/><path class="cls-102" d="M34.63,113.35c1.48-2.51-2.16.86-3.29,0-4.76,6.65-.7,18.51,9,20.07C35.45,131.51,29.27,122.51,34.63,113.35Z"/><path class="cls-103" d="M97.26,29.44a15.27,15.27,0,0,0-7.41-2.94l-3.6,6.72c9.49,6.3,10.68,25.49,10.68,25.49,4.55-.54,5.25.68,5.47,2.64.41-3,1.48-6.37,1.35-10.14C103.64,47.82,102.83,33.61,97.26,29.44Z"/><path class="cls-104" d="M38.75,98.78c-7.06,6.86-11.47,8.65-13.53,11.32-5.6,7.24-4.63,13.32,2.67,17.35,0,0-7.54-7.92,5.12-12.35s23.51-9.81,25-15.84c2.56-10.43-4.78-16.65-5.67-32.06C51.7,86.47,45.81,91.93,38.75,98.78Z"/><path class="cls-105" d="M67.92,25.11c-2.66.79-8.76,3.05-13.58,13.37-2.24,4.78-2.23,20.45-2.23,20.45S55,49.08,57.35,44.2s5.4-11.66,14-13.63c7.53-1.74,13.07.65,14.9,2.65a5.22,5.22,0,0,0-1.43-5.88C82.92,25.64,73.82,23.34,67.92,25.11Z"/><path class="cls-106" d="M86.25,33.22a17.25,17.25,0,0,1,6.69,10C96.67,58.72,96,67.86,96,67.86l1.48-7c.77-1.43,2-2.91,4.14-1.49-1.14-4.45.07-13.68-2.13-19.78C95.92,29.63,86.25,33.22,86.25,33.22Z"/><path class="cls-107" d="M89.62,95.09c.46-4.88,4.42-8.32,5.38-13-4.73,4.42-9.28,8.95-8.41,15.61a13.22,13.22,0,0,0,10.73,11.18A14.43,14.43,0,0,1,89.62,95.09Z"/><path class="cls-107" d="M40.66,69.36a71.18,71.18,0,0,1,5.69-19.28c1.86-4.32,8.65-14.57,13.26-20C40.69,45.44,39.55,57.74,40.66,69.36Z"/><path class="cls-108" d="M47.62,113.46a49.65,49.65,0,0,1-13,13c11.45-3.66,25.74-16,18.73-34.46A34.56,34.56,0,0,1,47.62,113.46Z"/><path class="cls-109" d="M59.8,108.91c1.08-6.7,0-13.4-2.91-22.53,2.72,16.46-.42,19-4,28.3-2.84,7.38-4.25,18,8,15.92C47.35,126.91,58.44,117.3,59.8,108.91Z"/><path class="cls-110" d="M61.83,20.75c-6.77,3.53-8.59,11.86-15.75,14.62,4.6-.56,7.59-4.14,10.43-7.08A24.44,24.44,0,0,1,66.7,21.77c8.89-3.05,14.83,2.79,23.15,4.73C82.51,19,71.87,15.51,61.83,20.75Z"/><path class="cls-111" d="M48.92,63.39s-11.65,10-14.29,14-13.39,7.61-3,17.09c0,0-3.91-7.68,3-9.46s12.82-5.19,15-12.53a54.6,54.6,0,0,0,1.81-15.75Z"/><path class="cls-112" d="M27.19,98.75s12.41,1,21-8.29S50.9,63.39,50.9,63.39,46.93,91.06,27.19,98.75Z"/><path class="cls-107" d="M38.27,73.07c-3.88,3.05-10,7.66-11.08,12.8a7.79,7.79,0,0,0,4.42,8.6c-7.36-10.43,3-14.89,9.08-19.54C50.9,67.17,52.33,54.68,53.22,43.2c-1.74,6.56-2.48,11.64-5.06,17.11A33.4,33.4,0,0,1,38.27,73.07Z"/><path class="cls-107" d="M61.15,27.9c-3.16,2.32-7.62,7.65-9,10.92C48.77,46.48,49,54.07,48,62.23c-1,7.63-2.22,15.31-6.09,22.25-3.18,5.71-8.37,10.24-14.32,14.13a32.29,32.29,0,0,0,18.8-17.2c3.38-7.28,4-15.82,5.38-23.55s1.88-14.48,5.21-21.66c2.53-5.46,10.52-11.71,18.11-11.64A18.05,18.05,0,0,0,61.15,27.9Z"/><path class="cls-113" d="M48.17,90.46c-2.19,4.4-5.68,8.45-8.77,12.36-4.95,6.25-14,15.6-2.33,20.76-5.47-4-5.18-8.63-1-13.22s11.79-8.87,15.25-13.94c4.25-6.23,2.34-13.81,1.26-27.06C52.19,78.12,50.73,85.32,48.17,90.46Z"/><path class="cls-114" d="M90.59,65.09c-1.14.3-1.93,1.09-1.79,1.76s1.2,1,2.33.68,1.94-1.08,1.79-1.76S91.73,64.79,90.59,65.09Z"/><path class="cls-115" d="M56.31,65.09c-1.14-.25-2.16.09-2.28.77s.69,1.42,1.82,1.67,2.16-.09,2.29-.77S57.44,65.34,56.31,65.09Z"/><path class="cls-116" d="M22,113.54c-2.68,5.77-.41,10,5.86,13.91-10.06-10.34,3.45-21.39,10.86-28.67C33.58,103.08,24.92,107.31,22,113.54Z"/><path class="cls-117" d="M99.59,37.39c-2-3.58-9.52-7.19-13.34-4.17C97,32.35,97.56,53,101.74,58.76,100.11,50.3,102.79,43.12,99.59,37.39Z"/><path class="cls-118" d="M105.12,60.47c-3.38,10.08-9.09,23.82,6.46,32.2C108.74,85,104.51,74.88,105.12,60.47Z"/><path class="cls-107" d="M116,93.09c-2.85-2.67-10.78-6.55-12.78-9.84s-.82-5.7-.32-9c-2.47,3.39-3.84,6.59-1.74,10.42,1.75,3.19,10,7.33,12,10.4,4.07,6.29,3.85,9.57,2.56,17C119.33,104.89,122.07,98.78,116,93.09Z"/><path class="cls-107" d="M105.51,50.3c-1.35-14.4-4.79-22.79-15.66-23.8,8.62,2.72,14.55,13.33,13.25,26.81-.77,8-4.38,21.62,8,26.34C101.66,69.84,106.41,59.94,105.51,50.3Z"/></svg>