<svg id="Layer_1" data-name="Layer 1" xmlns="http://www.w3.org/2000/svg" xmlns:xlink="http://www.w3.org/1999/xlink" viewBox="0 0 144 144"><defs><style>.cls-1{fill:#f6ece6;}.cls-2{fill:#c57d4f;}.cls-3{fill:url(#_ÂÁ_Ï_ÌÌ_È_ËÂÌÚ_1166);}.cls-4{fill:url(#_ÂÁ_Ï_ÌÌ_È_ËÂÌÚ_1166-2);}.cls-5{fill:url(#_ÂÁ_Ï_ÌÌ_È_ËÂÌÚ_1166-3);}.cls-6{fill:url(#_ÂÁ_Ï_ÌÌ_È_ËÂÌÚ_1166-4);}.cls-7{fill:url(#_ÂÁ_Ï_ÌÌ_È_ËÂÌÚ_7689);}.cls-8{fill:url(#_ÂÁ_Ï_ÌÌ_È_ËÂÌÚ_7689-2);}.cls-9{fill:#f3733c;}.cls-10{fill:url(#_ÂÁ_Ï_ÌÌ_È_ËÂÌÚ_90);}.cls-11{fill:url(#_ÂÁ_Ï_ÌÌ_È_ËÂÌÚ_83);}.cls-12{fill:url(#_ÂÁ_Ï_ÌÌ_È_ËÂÌÚ_1931);}.cls-13{fill:url(#_ÂÁ_Ï_ÌÌ_È_ËÂÌÚ_1166-5);}.cls-14{fill:url(#_ÂÁ_Ï_ÌÌ_È_ËÂÌÚ_1931-2);}.cls-15{fill:url(#_ÂÁ_Ï_ÌÌ_È_ËÂÌÚ_66);}.cls-16{fill:url(#linear-gradient);}.cls-17{fill:url(#_ÂÁ_Ï_ÌÌ_È_ËÂÌÚ_66-2);}.cls-18{fill:url(#_ÂÁ_Ï_ÌÌ_È_ËÂÌÚ_66-3);}.cls-19{fill:url(#_ÂÁ_Ï_ÌÌ_È_ËÂÌÚ_66-4);}.cls-20{fill:url(#_ÂÁ_Ï_ÌÌ_È_ËÂÌÚ_66-5);}.cls-21{fill:url(#linear-gradient-2);}.cls-22{fill:url(#_ÂÁ_Ï_ÌÌ_È_ËÂÌÚ_67);}.cls-23{fill:url(#linear-gradient-3);}.cls-24{fill:url(#_ÂÁ_Ï_ÌÌ_È_ËÂÌÚ_67-2);}.cls-25{fill:url(#linear-gradient-4);}.cls-26{fill:url(#linear-gradient-5);}.cls-27{fill:url(#radial-gradient);}.cls-28{fill:url(#radial-gradient-2);}.cls-29{fill:url(#linear-gradient-6);}.cls-30{fill:url(#_ÂÁ_Ï_ÌÌ_È_ËÂÌÚ_7689-3);}.cls-31{fill:url(#linear-gradient-7);}.cls-32{fill:url(#linear-gradient-8);}.cls-33{fill:url(#_ÂÁ_Ï_ÌÌ_È_ËÂÌÚ_75);}.cls-34{fill:url(#linear-gradient-9);}.cls-35{fill:url(#_ÂÁ_Ï_ÌÌ_È_ËÂÌÚ_1166-6);}.cls-36{fill:url(#linear-gradient-10);}.cls-37{fill:url(#linear-gradient-11);}.cls-38{fill:url(#_ÂÁ_Ï_ÌÌ_È_ËÂÌÚ_978);}.cls-39{fill:url(#_ÂÁ_Ï_ÌÌ_È_ËÂÌÚ_978-2);}.cls-40{fill:url(#_ÂÁ_Ï_ÌÌ_È_ËÂÌÚ_1166-7);}.cls-41{fill:url(#linear-gradient-12);}.cls-42{fill:url(#_ÂÁ_Ï_ÌÌ_È_ËÂÌÚ_1010);}.cls-43{fill:url(#_ÂÁ_Ï_ÌÌ_È_ËÂÌÚ_67-3);}.cls-44{fill:url(#linear-gradient-13);}.cls-45{fill:#ddd;}.cls-46{fill:url(#linear-gradient-14);}.cls-47{fill:url(#_ÂÁ_Ï_ÌÌ_È_ËÂÌÚ_8);}.cls-48{fill:url(#_ÂÁ_Ï_ÌÌ_È_ËÂÌÚ_8-2);}.cls-49{fill:url(#radial-gradient-3);}.cls-50{fill:#fff;}.cls-51{fill:url(#_ÂÁ_Ï_ÌÌ_È_ËÂÌÚ_331);}.cls-52{fill:url(#_ÂÁ_Ï_ÌÌ_È_ËÂÌÚ_1166-8);}.cls-53{fill:#391b13;}.cls-54{fill:url(#_ÂÁ_Ï_ÌÌ_È_ËÂÌÚ_1009);}.cls-55{fill:url(#linear-gradient-15);}.cls-56{fill:url(#linear-gradient-16);}.cls-57{fill:url(#_ÂÁ_Ï_ÌÌ_È_ËÂÌÚ_8-3);}.cls-58{fill:url(#_ÂÁ_Ï_ÌÌ_È_ËÂÌÚ_8-4);}.cls-59{fill:url(#radial-gradient-4);}.cls-60{fill:url(#_ÂÁ_Ï_ÌÌ_È_ËÂÌÚ_1011);}.cls-61{fill:url(#_ÂÁ_Ï_ÌÌ_È_ËÂÌÚ_1166-9);}.cls-62{fill:url(#linear-gradient-17);}.cls-63{fill:url(#_ÂÁ_Ï_ÌÌ_È_ËÂÌÚ_67-4);}.cls-64{fill:url(#_ÂÁ_Ï_ÌÌ_È_ËÂÌÚ_67-5);}.cls-65{fill:url(#linear-gradient-18);}.cls-66{fill:url(#linear-gradient-19);}.cls-67{fill:url(#_ÂÁ_Ï_ÌÌ_È_ËÂÌÚ_67-6);}.cls-68{fill:url(#_ÂÁ_Ï_ÌÌ_È_ËÂÌÚ_67-7);}.cls-69{fill:#771213;}.cls-70{fill:url(#linear-gradient-20);}.cls-71{fill:#d3404d;}.cls-72{fill:url(#linear-gradient-21);}.cls-73{fill:url(#_ÂÁ_Ï_ÌÌ_È_ËÂÌÚ_735);}.cls-74{fill:#d9656f;}.cls-75{fill:url(#linear-gradient-22);}.cls-76{fill:url(#linear-gradient-23);}.cls-77{fill:url(#_ÂÁ_Ï_ÌÌ_È_ËÂÌÚ_735-2);}.cls-78{fill:url(#_ÂÁ_Ï_ÌÌ_È_ËÂÌÚ_66-6);}.cls-79{fill:url(#_ÂÁ_Ï_ÌÌ_È_ËÂÌÚ_66-7);}.cls-80{fill:url(#_ÂÁ_Ï_ÌÌ_È_ËÂÌÚ_66-8);}.cls-81{fill:url(#_ÂÁ_Ï_ÌÌ_È_ËÂÌÚ_66-9);}.cls-82{fill:url(#_ÂÁ_Ï_ÌÌ_È_ËÂÌÚ_66-10);}.cls-83{fill:url(#_ÂÁ_Ï_ÌÌ_È_ËÂÌÚ_66-11);}.cls-84{fill:url(#_ÂÁ_Ï_ÌÌ_È_ËÂÌÚ_66-12);}.cls-85{fill:url(#_ÂÁ_Ï_ÌÌ_È_ËÂÌÚ_66-13);}.cls-86{fill:url(#linear-gradient-24);}</style><linearGradient id="_ÂÁ_Ï_ÌÌ_È_ËÂÌÚ_1166" x1="30.75" y1="128.22" x2="26.6" y2="125.39" gradientUnits="userSpaceOnUse"><stop offset="0" stop-color="#aa5740"/><stop offset="1" stop-color="#c57d4f"/></linearGradient><linearGradient id="_ÂÁ_Ï_ÌÌ_È_ËÂÌÚ_1166-2" x1="48.27" y1="82.06" x2="77.56" y2="114.69" xlink:href="#_ÂÁ_Ï_ÌÌ_È_ËÂÌÚ_1166"/><linearGradient id="_ÂÁ_Ï_ÌÌ_È_ËÂÌÚ_1166-3" x1="87.96" y1="116.38" x2="70.53" y2="118.95" xlink:href="#_ÂÁ_Ï_ÌÌ_È_ËÂÌÚ_1166"/><linearGradient id="_ÂÁ_Ï_ÌÌ_È_ËÂÌÚ_1166-4" x1="66.54" y1="88.02" x2="92.38" y2="116.86" xlink:href="#_ÂÁ_Ï_ÌÌ_È_ËÂÌÚ_1166"/><linearGradient id="_ÂÁ_Ï_ÌÌ_È_ËÂÌÚ_7689" x1="74.85" y1="115.18" x2="99.3" y2="111.36" gradientUnits="userSpaceOnUse"><stop offset="0" stop-color="#c57d4f"/><stop offset="1" stop-color="#aa5740"/></linearGradient><linearGradient id="_ÂÁ_Ï_ÌÌ_È_ËÂÌÚ_7689-2" x1="72.94" y1="116.65" x2="48.66" y2="110.28" xlink:href="#_ÂÁ_Ï_ÌÌ_È_ËÂÌÚ_7689"/><linearGradient id="_ÂÁ_Ï_ÌÌ_È_ËÂÌÚ_90" x1="73.35" y1="116.26" x2="70.85" y2="147.07" gradientUnits="userSpaceOnUse"><stop offset="0" stop-color="#f3733c"/><stop offset="0.39" stop-color="#f47944"/><stop offset="1" stop-color="#f6895a"/></linearGradient><linearGradient id="_ÂÁ_Ï_ÌÌ_È_ËÂÌÚ_83" x1="75.05" y1="133.71" x2="72.56" y2="96.7" gradientUnits="userSpaceOnUse"><stop offset="0" stop-color="#f3733c"/><stop offset="1" stop-color="#f16024"/></linearGradient><linearGradient id="_ÂÁ_Ï_ÌÌ_È_ËÂÌÚ_1931" x1="33.83" y1="107.01" x2="32.05" y2="128.89" gradientUnits="userSpaceOnUse"><stop offset="0" stop-color="#f6895a"/><stop offset="0.61" stop-color="#f47944"/><stop offset="1" stop-color="#f3733c"/></linearGradient><linearGradient id="_ÂÁ_Ï_ÌÌ_È_ËÂÌÚ_1166-5" x1="119.73" y1="126.41" x2="118.44" y2="125.54" xlink:href="#_ÂÁ_Ï_ÌÌ_È_ËÂÌÚ_1166"/><linearGradient id="_ÂÁ_Ï_ÌÌ_È_ËÂÌÚ_1931-2" x1="113.09" y1="109.66" x2="111.75" y2="126.15" xlink:href="#_ÂÁ_Ï_ÌÌ_È_ËÂÌÚ_1931"/><linearGradient id="_ÂÁ_Ï_ÌÌ_È_ËÂÌÚ_66" x1="72.42" y1="81.96" x2="72.42" y2="29.09" gradientUnits="userSpaceOnUse"><stop offset="0" stop-color="#1f120f"/><stop offset="0.49" stop-color="#2e1a15"/><stop offset="1" stop-color="#43241d"/></linearGradient><linearGradient id="linear-gradient" x1="73.31" y1="44.25" x2="69.44" y2="-10.29" xlink:href="#_ÂÁ_Ï_ÌÌ_È_ËÂÌÚ_66"/><linearGradient id="_ÂÁ_Ï_ÌÌ_È_ËÂÌÚ_66-2" x1="78.66" y1="56.88" x2="80.76" y2="17.11" xlink:href="#_ÂÁ_Ï_ÌÌ_È_ËÂÌÚ_66"/><linearGradient id="_ÂÁ_Ï_ÌÌ_È_ËÂÌÚ_66-3" x1="50.46" y1="45.92" x2="52.28" y2="11.6" xlink:href="#_ÂÁ_Ï_ÌÌ_È_ËÂÌÚ_66"/><linearGradient id="_ÂÁ_Ï_ÌÌ_È_ËÂÌÚ_66-4" x1="64.74" y1="42.46" x2="66.44" y2="10.38" xlink:href="#_ÂÁ_Ï_ÌÌ_È_ËÂÌÚ_66"/><linearGradient id="_ÂÁ_Ï_ÌÌ_È_ËÂÌÚ_66-5" x1="90.78" y1="50.88" x2="92.47" y2="18.8" xlink:href="#_ÂÁ_Ï_ÌÌ_È_ËÂÌÚ_66"/><linearGradient id="linear-gradient-2" x1="43.9" y1="63.95" x2="49.51" y2="85.04" gradientUnits="userSpaceOnUse"><stop offset="0" stop-color="#c57d4f"/><stop offset="0.31" stop-color="#c1784d"/><stop offset="0.69" stop-color="#b76947"/><stop offset="1" stop-color="#aa5740"/></linearGradient><linearGradient id="_ÂÁ_Ï_ÌÌ_È_ËÂÌÚ_67" x1="43.86" y1="67.09" x2="52.6" y2="91.61" gradientUnits="userSpaceOnUse"><stop offset="0" stop-color="#aa5740"/><stop offset="0.31" stop-color="#b76947"/><stop offset="0.69" stop-color="#c1784d"/><stop offset="1" stop-color="#c57d4f"/></linearGradient><linearGradient id="linear-gradient-3" x1="98.59" y1="65.61" x2="95.88" y2="88.62" xlink:href="#linear-gradient-2"/><linearGradient id="_ÂÁ_Ï_ÌÌ_È_ËÂÌÚ_67-2" x1="99.47" y1="66.49" x2="96.34" y2="88.47" xlink:href="#_ÂÁ_Ï_ÌÌ_È_ËÂÌÚ_67"/><linearGradient id="linear-gradient-4" x1="84.13" y1="71.61" x2="83.97" y2="53.23" xlink:href="#linear-gradient-2"/><linearGradient id="linear-gradient-5" x1="59.15" y1="69.91" x2="60.11" y2="52.66" xlink:href="#linear-gradient-2"/><radialGradient id="radial-gradient" cx="37.5" cy="134.54" r="21.08" gradientTransform="translate(35.83 5.47) scale(0.55 0.54)" gradientUnits="userSpaceOnUse"><stop offset="0" stop-color="#d1754d"/><stop offset="1" stop-color="#c57d4f"/></radialGradient><radialGradient id="radial-gradient-2" cx="91.15" cy="134.54" r="21.08" xlink:href="#radial-gradient"/><linearGradient id="linear-gradient-6" x1="72.51" y1="100.96" x2="72.21" y2="91.93" gradientUnits="userSpaceOnUse"><stop offset="0" stop-color="#c57d4f"/><stop offset="1" stop-color="#cd8653"/></linearGradient><linearGradient id="_ÂÁ_Ï_ÌÌ_È_ËÂÌÚ_7689-3" x1="47.1" y1="81.13" x2="61.34" y2="81.13" xlink:href="#_ÂÁ_Ï_ÌÌ_È_ËÂÌÚ_7689"/><linearGradient id="linear-gradient-7" x1="82.12" y1="81.13" x2="96.41" y2="81.13" xlink:href="#linear-gradient-6"/><linearGradient id="linear-gradient-8" x1="74.22" y1="125.45" x2="73.1" y2="112.03" xlink:href="#_ÂÁ_Ï_ÌÌ_È_ËÂÌÚ_7689"/><linearGradient id="_ÂÁ_Ï_ÌÌ_È_ËÂÌÚ_75" x1="86.67" y1="73.81" x2="95.55" y2="71.64" gradientUnits="userSpaceOnUse"><stop offset="0" stop-color="#cd8653"/><stop offset="1" stop-color="#c57d4f"/></linearGradient><linearGradient id="linear-gradient-9" x1="49.43" y1="70.44" x2="55.53" y2="74.55" xlink:href="#linear-gradient-6"/><linearGradient id="_ÂÁ_Ï_ÌÌ_È_ËÂÌÚ_1166-6" x1="71.21" y1="99.12" x2="72.89" y2="26.08" xlink:href="#_ÂÁ_Ï_ÌÌ_È_ËÂÌÚ_1166"/><linearGradient id="linear-gradient-10" x1="72.41" y1="46.17" x2="73.67" y2="1.75" xlink:href="#_ÂÁ_Ï_ÌÌ_È_ËÂÌÚ_66"/><linearGradient id="linear-gradient-11" x1="71.74" y1="72.29" x2="71.74" y2="17.29" xlink:href="#_ÂÁ_Ï_ÌÌ_È_ËÂÌÚ_66"/><linearGradient id="_ÂÁ_Ï_ÌÌ_È_ËÂÌÚ_978" x1="44.94" y1="26.33" x2="46.48" y2="58.19" gradientUnits="userSpaceOnUse"><stop offset="0" stop-color="#43241d"/><stop offset="0.51" stop-color="#2e1a15"/><stop offset="1" stop-color="#1f120f"/></linearGradient><linearGradient id="_ÂÁ_Ï_ÌÌ_È_ËÂÌÚ_978-2" x1="95.87" y1="25.45" x2="97.31" y2="55.31" xlink:href="#_ÂÁ_Ï_ÌÌ_È_ËÂÌÚ_978"/><linearGradient id="_ÂÁ_Ï_ÌÌ_È_ËÂÌÚ_1166-7" x1="72" y1="63.77" x2="72.17" y2="22.33" xlink:href="#_ÂÁ_Ï_ÌÌ_È_ËÂÌÚ_1166"/><linearGradient id="linear-gradient-12" x1="50.04" y1="58.37" x2="64.93" y2="58.37" gradientUnits="userSpaceOnUse"><stop offset="0" stop-color="#683126"/><stop offset="0.34" stop-color="#53281e"/><stop offset="0.68" stop-color="#46221a"/><stop offset="1" stop-color="#422018"/></linearGradient><linearGradient id="_ÂÁ_Ï_ÌÌ_È_ËÂÌÚ_1010" x1="77.82" y1="58.37" x2="92.74" y2="58.37" gradientUnits="userSpaceOnUse"><stop offset="0" stop-color="#422018"/><stop offset="0.32" stop-color="#46221a"/><stop offset="0.66" stop-color="#53281e"/><stop offset="1" stop-color="#683126"/></linearGradient><linearGradient id="_ÂÁ_Ï_ÌÌ_È_ËÂÌÚ_67-3" x1="90.27" y1="64.36" x2="76.9" y2="69.55" xlink:href="#_ÂÁ_Ï_ÌÌ_È_ËÂÌÚ_67"/><linearGradient id="linear-gradient-13" x1="77.2" y1="67.47" x2="81.3" y2="67.47" gradientUnits="userSpaceOnUse"><stop offset="0" stop-color="#fff"/><stop offset="0.46" stop-color="#fdfcfc"/><stop offset="0.76" stop-color="#f6f4f4"/><stop offset="1" stop-color="#ece7e6"/></linearGradient><linearGradient id="linear-gradient-14" x1="86.29" y1="67.35" x2="89.56" y2="67.35" xlink:href="#linear-gradient-13"/><linearGradient id="_ÂÁ_Ï_ÌÌ_È_ËÂÌÚ_8" x1="88.43" y1="70.97" x2="78.86" y2="64.99" gradientUnits="userSpaceOnUse"><stop offset="0" stop-color="#936756"/><stop offset="1" stop-color="#5b3e33"/></linearGradient><linearGradient id="_ÂÁ_Ï_ÌÌ_È_ËÂÌÚ_8-2" x1="96.4" y1="67.59" x2="83.93" y2="66.11" xlink:href="#_ÂÁ_Ï_ÌÌ_È_ËÂÌÚ_8"/><radialGradient id="radial-gradient-3" cx="85.36" cy="114.06" r="5.09" gradientTransform="translate(35.83 5.47) scale(0.55 0.54)" gradientUnits="userSpaceOnUse"><stop offset="0" stop-color="#2b3b3b"/><stop offset="1" stop-color="#1d2827"/></radialGradient><linearGradient id="_ÂÁ_Ï_ÌÌ_È_ËÂÌÚ_331" x1="77.2" y1="67.06" x2="92.3" y2="67.06" gradientUnits="userSpaceOnUse"><stop offset="0" stop-color="#5b2b20"/><stop offset="0.31" stop-color="#4a2319"/><stop offset="0.66" stop-color="#3d1d15"/><stop offset="1" stop-color="#391b13"/></linearGradient><linearGradient id="_ÂÁ_Ï_ÌÌ_È_ËÂÌÚ_1166-8" x1="83.75" y1="62.92" x2="73.79" y2="75.59" xlink:href="#_ÂÁ_Ï_ÌÌ_È_ËÂÌÚ_1166"/><linearGradient id="_ÂÁ_Ï_ÌÌ_È_ËÂÌÚ_1009" x1="64.74" y1="64.5" x2="52.84" y2="69.12" xlink:href="#linear-gradient-2"/><linearGradient id="linear-gradient-15" x1="61.62" y1="67.47" x2="65.73" y2="67.47" xlink:href="#linear-gradient-13"/><linearGradient id="linear-gradient-16" x1="54.32" y1="67.35" x2="57.59" y2="67.35" xlink:href="#linear-gradient-13"/><linearGradient id="_ÂÁ_Ï_ÌÌ_È_ËÂÌÚ_8-3" x1="64.17" y1="71.31" x2="54.27" y2="65.12" xlink:href="#_ÂÁ_Ï_ÌÌ_È_ËÂÌÚ_8"/><linearGradient id="_ÂÁ_Ï_ÌÌ_È_ËÂÌÚ_8-4" x1="62.69" y1="84.98" x2="61" y2="75.31" xlink:href="#_ÂÁ_Ï_ÌÌ_È_ËÂÌÚ_8"/><radialGradient id="radial-gradient-4" cx="41.8" cy="114.06" r="5.09" xlink:href="#radial-gradient-3"/><linearGradient id="_ÂÁ_Ï_ÌÌ_È_ËÂÌÚ_1011" x1="50.64" y1="67.06" x2="65.73" y2="67.06" gradientUnits="userSpaceOnUse"><stop offset="0" stop-color="#391b13"/><stop offset="0.34" stop-color="#3d1d15"/><stop offset="0.69" stop-color="#4a2319"/><stop offset="1" stop-color="#5b2b20"/></linearGradient><linearGradient id="_ÂÁ_Ï_ÌÌ_È_ËÂÌÚ_1166-9" x1="60.47" y1="63.14" x2="54.49" y2="70.75" xlink:href="#_ÂÁ_Ï_ÌÌ_È_ËÂÌÚ_1166"/><linearGradient id="linear-gradient-17" x1="71.29" y1="83.07" x2="70.8" y2="75.76" xlink:href="#linear-gradient-2"/><linearGradient id="_ÂÁ_Ï_ÌÌ_È_ËÂÌÚ_67-4" x1="71.13" y1="78.98" x2="71.11" y2="82.35" xlink:href="#_ÂÁ_Ï_ÌÌ_È_ËÂÌÚ_67"/><linearGradient id="_ÂÁ_Ï_ÌÌ_È_ËÂÌÚ_67-5" x1="71.06" y1="82.8" x2="70.76" y2="73.04" xlink:href="#_ÂÁ_Ï_ÌÌ_È_ËÂÌÚ_67"/><linearGradient id="linear-gradient-18" x1="70.89" y1="74.43" x2="70.94" y2="77.87" xlink:href="#linear-gradient-6"/><linearGradient id="linear-gradient-19" x1="61.66" y1="79.79" x2="74.68" y2="91.16" xlink:href="#linear-gradient-2"/><linearGradient id="_ÂÁ_Ï_ÌÌ_È_ËÂÌÚ_67-6" x1="56.84" y1="81.66" x2="62.03" y2="86.19" xlink:href="#_ÂÁ_Ï_ÌÌ_È_ËÂÌÚ_67"/><linearGradient id="_ÂÁ_Ï_ÌÌ_È_ËÂÌÚ_67-7" x1="83.93" y1="82.72" x2="81.06" y2="86.27" xlink:href="#_ÂÁ_Ï_ÌÌ_È_ËÂÌÚ_67"/><linearGradient id="linear-gradient-20" x1="64.65" y1="88.25" x2="78.31" y2="88.25" gradientUnits="userSpaceOnUse"><stop offset="0" stop-color="#e8d9d7"/><stop offset="0.04" stop-color="#ebdfdd"/><stop offset="0.21" stop-color="#f6f1f0"/><stop offset="0.38" stop-color="#fdfbfb"/><stop offset="0.57" stop-color="#fff"/><stop offset="0.69" stop-color="#fbf8f8"/><stop offset="0.87" stop-color="#f1e5e3"/><stop offset="1" stop-color="#e8d3d1"/></linearGradient><linearGradient id="linear-gradient-21" x1="61.6" y1="86.22" x2="80.99" y2="86.04" xlink:href="#linear-gradient-20"/><linearGradient id="_ÂÁ_Ï_ÌÌ_È_ËÂÌÚ_735" x1="66.89" y1="90.76" x2="76.33" y2="90.67" gradientUnits="userSpaceOnUse"><stop offset="0" stop-color="#d24051"/><stop offset="0.2" stop-color="#d74857"/><stop offset="0.47" stop-color="#da4c5a"/><stop offset="0.79" stop-color="#d84958"/><stop offset="1" stop-color="#d34152"/></linearGradient><linearGradient id="linear-gradient-22" x1="71.24" y1="84.41" x2="71.18" y2="80.8" xlink:href="#linear-gradient-6"/><linearGradient id="linear-gradient-23" x1="61.59" y1="85.4" x2="80.98" y2="85.22" gradientUnits="userSpaceOnUse"><stop offset="0" stop-color="#e8d9d7"/><stop offset="0.05" stop-color="#eadddb"/><stop offset="0.31" stop-color="#f6efef"/><stop offset="0.48" stop-color="#faf6f6"/><stop offset="1" stop-color="#e8d3d1"/></linearGradient><linearGradient id="_ÂÁ_Ï_ÌÌ_È_ËÂÌÚ_735-2" x1="63.92" y1="84.42" x2="80.8" y2="84.24" xlink:href="#_ÂÁ_Ï_ÌÌ_È_ËÂÌÚ_735"/><linearGradient id="_ÂÁ_Ï_ÌÌ_È_ËÂÌÚ_66-6" x1="80.94" y1="79.13" x2="80.77" y2="29.95" xlink:href="#_ÂÁ_Ï_ÌÌ_È_ËÂÌÚ_66"/><linearGradient id="_ÂÁ_Ï_ÌÌ_È_ËÂÌÚ_66-7" x1="90.65" y1="79.09" x2="90.48" y2="29.91" xlink:href="#_ÂÁ_Ï_ÌÌ_È_ËÂÌÚ_66"/><linearGradient id="_ÂÁ_Ï_ÌÌ_È_ËÂÌÚ_66-8" x1="67.92" y1="79.17" x2="67.75" y2="29.99" xlink:href="#_ÂÁ_Ï_ÌÌ_È_ËÂÌÚ_66"/><linearGradient id="_ÂÁ_Ï_ÌÌ_È_ËÂÌÚ_66-9" x1="57.27" y1="79.21" x2="57.1" y2="30.03" xlink:href="#_ÂÁ_Ï_ÌÌ_È_ËÂÌÚ_66"/><linearGradient id="_ÂÁ_Ï_ÌÌ_È_ËÂÌÚ_66-10" x1="49.48" y1="79.23" x2="49.31" y2="30.06" xlink:href="#_ÂÁ_Ï_ÌÌ_È_ËÂÌÚ_66"/><linearGradient id="_ÂÁ_Ï_ÌÌ_È_ËÂÌÚ_66-11" x1="98.43" y1="79.1" x2="98.85" y2="45" xlink:href="#_ÂÁ_Ï_ÌÌ_È_ËÂÌÚ_66"/><linearGradient id="_ÂÁ_Ï_ÌÌ_È_ËÂÌÚ_66-12" x1="45.41" y1="78.44" x2="45.84" y2="44.35" xlink:href="#_ÂÁ_Ï_ÌÌ_È_ËÂÌÚ_66"/><linearGradient id="_ÂÁ_Ï_ÌÌ_È_ËÂÌÚ_66-13" x1="71.77" y1="57.48" x2="71.86" y2="41.03" xlink:href="#_ÂÁ_Ï_ÌÌ_È_ËÂÌÚ_66"/><linearGradient id="linear-gradient-24" x1="72.7" y1="61.86" x2="75.95" y2="98.15" xlink:href="#_ÂÁ_Ï_ÌÌ_È_ËÂÌÚ_66"/></defs><circle class="cls-1" cx="72" cy="72" r="72" transform="translate(-23.85 37.63) rotate(-25.27)"/><path class="cls-2" d="M121.14,124.61a11.56,11.56,0,0,0-1.29-3.07c-2.43-3.76-12.32-7.93-13.44-8.2-4-1-19.67-1.63-21.35-6.94a24.19,24.19,0,0,1-.63-9.64H62.68A46.62,46.62,0,0,1,63,104.7c-.13,5.51-4.4,4.82-5.33,5.13a111.89,111.89,0,0,1-17.82,3.61c-3.18.35-14.11,6.19-15.66,11.59-.05.19-.11.4-.16.61a72,72,0,0,0,97.16-1Z"/><path class="cls-3" d="M23.9,125.57A74.59,74.59,0,0,0,30,130.45a85.17,85.17,0,0,0-4.1-8.33A8.48,8.48,0,0,0,23.9,125.57Z"/><path class="cls-4" d="M85.38,101c-.12-1.23-.31-4.32-.35-5.94-.34.42-22-.36-22.79-1.58l-2.51,0s.74,7.85-.44,13.47c-.24,1.15-7.24,2.77-11.83,3.72.32.25,1.5,1,1.77,1.17,3.93.38,7.32.84,8.92.56a39.75,39.75,0,0,0,7.66-2.9c13-5.86,17-7.8,17-7.8.61,5.45,4.7,10.39,4.47,10.34a43.42,43.42,0,0,0,10.76.83,26.51,26.51,0,0,0,3.13-1.53c-8.5-1.5-13.75-4.22-14-4.39C86.45,106.49,85.65,103.88,85.38,101Z"/><path class="cls-5" d="M71.51,117.3s4.66.81,5.89,2.24C77.4,119.54,76.05,115.87,71.51,117.3Z"/><path class="cls-6" d="M59.1,90.18c.82,3.44.7,13.22.7,13.22,14.88,4.67,25.34-5.87,25.34-5.87s.24-8.06.71-10.87C84.7,86.56,59.1,90.18,59.1,90.18Z"/><path class="cls-7" d="M77.56,116.4c4-3.11,8.09-2.22,13.25-2.82s11-1.71,11-1.71c-2.35.45-19.27.31-21.09.76S77.56,116.4,77.56,116.4Z"/><path class="cls-8" d="M67.66,113.08c-2.23-.74-19.29-1.79-22.36-1.49,0,0,21.52,2.13,25.85,4.78A7.11,7.11,0,0,0,67.66,113.08Z"/><path class="cls-9" d="M100.61,111.19c-4.77,4.11-16.28,7.93-26.35,8H72.68v.09H71.51c-10.07,0-21.58-3.85-26.34-8-18.91,5.24-20.72,11.31-21.45,13.19a19.63,19.63,0,0,1,2.19,2.84A72,72,0,0,0,121.82,124C120.57,121.72,115.55,116.47,100.61,111.19Z"/><path class="cls-10" d="M36.22,124.75s.46,4.61,1.24,10.44a72.08,72.08,0,0,0,70.75-.95c.58-5.39.9-9.49.9-9.49Z"/><path class="cls-11" d="M72,117.62a40.83,40.83,0,0,1-23.13-7.57l-3.74,1.23S52.81,120.51,72,121c22.4.57,29.91-9.33,29.91-9.33l-3.49-1.21C93.26,115.08,84.62,117.83,72,117.62Z"/><path class="cls-9" d="M23.83,122.47c-.38.65-.74,1.32-1.11,2A72.6,72.6,0,0,0,35.33,134l-2.8-18.29S27.91,115.4,23.83,122.47Z"/><path class="cls-12" d="M43.48,111.76s-13.32,4-14.53,4.53a11.48,11.48,0,0,0-5.37,5.27c-.31.6-.72,1.52-1.18,2.62.72.7,1.46,1.37,2.22,2A42.25,42.25,0,0,1,28.49,121C31.22,118.21,43.48,111.76,43.48,111.76Z"/><path class="cls-13" d="M119.8,122.12s-1.44,2.44-3.28,6.47q2.45-1.94,4.71-4.06A7.05,7.05,0,0,0,119.8,122.12Z"/><path class="cls-9" d="M121.82,122.47c-4.08-7.07-8.7-6.79-8.7-6.79l-2.63,17.18a72.15,72.15,0,0,0,11.88-9.42Z"/><path class="cls-14" d="M122.07,121.56a11.53,11.53,0,0,0-5.37-5.27c-1.21-.51-14.54-4.53-14.54-4.53s12.27,6.45,15,9.27a36.77,36.77,0,0,1,3.25,4.26c.8-.72,1.59-1.47,2.35-2.23C122.5,122.45,122.26,121.94,122.07,121.56Z"/><path class="cls-15" d="M74.87,2.78c.6.34,0,1.45-.34,2.14l-.33.72,0,.1A2.73,2.73,0,0,0,73,6.2c0-.27,0-.53-.07-.77C72.8,3,70.3.48,67.72,1.68a3.12,3.12,0,0,0-.56.39,2.86,2.86,0,0,0-1,1.79,4,4,0,0,0,.75,2.79c.49.44,1.58.81,2,.23a1.41,1.41,0,0,1-1.46-1.6A2.16,2.16,0,0,1,67.9,3.8a1.21,1.21,0,0,1,.56-.34,1.34,1.34,0,0,1,.66,0c.49,0,.74.43.9.78a4.12,4.12,0,0,1,.27.69,5.77,5.77,0,0,1,.16.72,6,6,0,0,1,.07,1.53,2.94,2.94,0,0,1-.43,1.33,2.77,2.77,0,0,1-.93.84c-1.15,0-2.85-.19-4.53-.22a2.52,2.52,0,0,1,.74-1.53c.56-.5,1.49,0,2.18.2a2.66,2.66,0,0,0-1.9-1.43,2.5,2.5,0,0,0-1.92.77,3.84,3.84,0,0,0-1,1.45,6.17,6.17,0,0,0-.19.61,3,3,0,0,0-.45.11l-.36.09a2.46,2.46,0,0,0,.07-.29,3.61,3.61,0,0,0-1-2.47,3.23,3.23,0,0,0-2.07-1.32,3.65,3.65,0,0,0-4,2.3c-.33.87-.22,2.07-.31,1.38a3.27,3.27,0,0,0-1.1-2.4,4.84,4.84,0,0,0-2.62-.78,6.92,6.92,0,0,0-1.44.06A3.13,3.13,0,0,0,48,6.34c-.76.53-.86,2.39-.37,3.17a2.57,2.57,0,0,0,2.14,1c-.19-.09-1.55-.74-1.4-2,0-.33-.16-.8.19-1a2.31,2.31,0,0,1,1.11-.07,6.78,6.78,0,0,1,1.27.24A3.74,3.74,0,0,1,52,8.14c.27.19.27.59.3.9a4.43,4.43,0,0,1,0,.63,1,1,0,0,1-.06.43c-.05.1-.2.13-.3.17a5.31,5.31,0,0,0-3.27,3.44l-.88.42-.35-.08A7.81,7.81,0,0,0,45,14a4.82,4.82,0,0,0-3.77,2.4,4.45,4.45,0,0,0-.51,2.09,5.56,5.56,0,0,0,.55,1.9c.15-1.18.36-2.63,1.28-3.42A3.44,3.44,0,0,1,44,16.25a6.47,6.47,0,0,0-2.56,5,4.68,4.68,0,0,0-2.08.49c-1.24.59-2.53,1.68-2.41,3.21a4.35,4.35,0,0,0,.68,1.91,4.13,4.13,0,0,0,1,1.12,6.08,6.08,0,0,1-.41-2.23,2.27,2.27,0,0,1,.16-1,1.68,1.68,0,0,1,.66-.61,5,5,0,0,1,1.73-.64,3,3,0,0,1,.84,0c.11,0,.07,0,.06.15a3.22,3.22,0,0,0,1.13,3,7,7,0,0,0-1.71.14,3,3,0,0,0-2.3,1.71,2.79,2.79,0,0,0,1,2.68,5.43,5.43,0,0,0-.81.62,5.25,5.25,0,0,0-1.84,4.89A6.1,6.1,0,0,0,40.3,40.4c0,.13.07.25.11.37a4,4,0,0,0-1.07.9,5,5,0,0,0-.65,2.55,4.3,4.3,0,0,0,.78,2,1.93,1.93,0,0,0,1.63.82,1.81,1.81,0,0,0,1.63-.66,1.22,1.22,0,0,0-.08-1.52c-.66,2.06-2.74-.93-1.9-1.58a5.76,5.76,0,0,1,.53-.47l.1-.06a4.89,4.89,0,0,0,3.79,2c4.41.35,33.14,4.55,45.8,4.84.92-1.31,11.63-2.42,12.88-7.07a4.51,4.51,0,0,0-2-5.3,4.81,4.81,0,0,0,3.79-.31c1.1-.61,2.25-1,2.27-2.34,0-2.46-2.09-3-3.33-3.11a2.19,2.19,0,0,0-1.62.46c-.08-.34-.18-.71-.28-1.12a6.84,6.84,0,0,0,2.44-3.28c.32-.83.95-1.22.92-2.11a4.56,4.56,0,0,0-1.44-2.84,3.17,3.17,0,0,0-2-.5,5,5,0,0,0-.93.14l.21-.15c.62-.49,1.44-2.28.85-2.79a4.43,4.43,0,0,0-1.49-1.06,1.35,1.35,0,0,1,.63,1.34,1.76,1.76,0,0,1-1,1.26,4.43,4.43,0,0,1-2.23.19,3.19,3.19,0,0,1-.58-.13,4,4,0,0,0,.12-3.73c-.3-.53-1.08-1.35-1.59-1.28.14-.21-.24-1.41-.17-1.67a4.92,4.92,0,0,0-1.24-4.33,5.44,5.44,0,0,0-4.32-1.76,6.37,6.37,0,0,0-2.52.73,3.75,3.75,0,0,0,.53-1.25c.15-.75.48-1,.31-1.78a4.63,4.63,0,0,0-1.39-2.52c-2.86-1.65-4.21,1.38-4.62,2.07A8.68,8.68,0,0,0,81,4.6a3.79,3.79,0,0,0,.4-.3,5.86,5.86,0,0,0,1-1.09A6.05,6.05,0,0,0,83.58.93C82.78.8,82,.68,81.19.58a3.5,3.5,0,0,1-.88,1.86,8.59,8.59,0,0,1-3.46,1.61,2.2,2.2,0,0,0,.23-.8A2.25,2.25,0,0,0,77,2.47C76.59.88,75.13.54,73.76,0L72,0c-.65,0-1.31,0-2,0C71,1.33,73.12,1.77,74.87,2.78ZM42.75,30.3a5.32,5.32,0,0,0-2.77.75c-.27-.56-.5-1.64-.18-2a2.12,2.12,0,0,1,1.53-.38,29.66,29.66,0,0,1,3.24.44C44.05,29.49,43.41,29.87,42.75,30.3Zm15.6-19c-.13-.08-.26-.16-.38-.25A3.08,3.08,0,0,1,56.88,9.8a2.14,2.14,0,0,1,0-1.7,2.14,2.14,0,0,1,3-.9,3.47,3.47,0,0,1,1.78,2.24A8,8,0,0,0,58.35,11.28Zm44.91,22.6a2.8,2.8,0,0,0-.1-.74l.16,0c.47-.11.93-.32,1.32-.06a3.44,3.44,0,0,1,.55.46c.1.11.24.26.21.42a1.54,1.54,0,0,1-.53.83,3.38,3.38,0,0,1-2,.72C103.36,34.72,103.23,34.89,103.26,33.88Zm-2.41-9.79a4,4,0,0,1,1.76-.16,2.43,2.43,0,0,1,.6.17s.09,0,.11.07a.79.79,0,0,1,.06.22,4,4,0,0,1-.14,1.78,7.7,7.7,0,0,1-.62,1.68,5.24,5.24,0,0,1-.46.79c-.13-.58-.27-1.22-.41-1.93a5.49,5.49,0,0,0-1-2.58Zm-5.62-3c-1.16-1.38-.31-2.7-.11-4.44l.17.1a1.24,1.24,0,0,1,.38,1,18,18,0,0,1-.45,2.39A3.43,3.43,0,0,0,95.23,21.11ZM91,10.22a4.17,4.17,0,0,1,2.89,1.42,10,10,0,0,1,1.56,1.95,6.27,6.27,0,0,1-.13,1.55A10.18,10.18,0,0,0,94.2,12.8c-1.72-2-3.39-.6-5.55-1.16A2.32,2.32,0,0,1,91,10.22ZM85.84,4.05a1.33,1.33,0,0,1,.72.92,4.69,4.69,0,0,1,.15,1.58,2,2,0,0,1-.5,1.35l-.1.11a3.81,3.81,0,0,0-2.9-2.45C83.38,5.39,85.34,3.85,85.84,4.05Z"/><path class="cls-16" d="M75.56,3.8c.09.08,0,.34,0,.63a4.92,4.92,0,0,1-.23.65c-.2.49-.43,1-.64,1.44l0,.1a5.58,5.58,0,0,0-1.6.8,6.57,6.57,0,0,0-.08-1.83A5.45,5.45,0,0,0,72.8,5c-.35-1.72-2.16-3.34-4-2.69a3,3,0,0,0-2.17,2.42,2.4,2.4,0,0,0,.71,2.1,1.28,1.28,0,0,0,1.81,0A1,1,0,0,1,68,6.16a1.52,1.52,0,0,1,.38-1.48,1.28,1.28,0,0,1,1.23-.35,1.43,1.43,0,0,1,.89.78,4.72,4.72,0,0,1,.44,1.41A6.12,6.12,0,0,1,71,8.06a3,3,0,0,1-.43,1.33,2.92,2.92,0,0,1-.94.84c-1.15,0-2.85-.2-4.52-.23a2.49,2.49,0,0,1,.74-1.53,1.93,1.93,0,0,1,2-.33,2.05,2.05,0,0,0-1.71-.9A2.71,2.71,0,0,0,64.2,8a3.84,3.84,0,0,0-1,1.45,4.06,4.06,0,0,0-.19.62,7.39,7.39,0,0,0-.86.13l-.37.09A2.45,2.45,0,0,0,61.9,10a3.31,3.31,0,0,0-.55-2.5,3.25,3.25,0,0,0-2.06-1.32,3.66,3.66,0,0,0-4,2.3,4,4,0,0,0,.48,3.76,6.73,6.73,0,0,0-1-.32,3.89,3.89,0,0,0,.21-2.06,3.31,3.31,0,0,0-1.1-2.4,4.84,4.84,0,0,0-2.62-.78,6.41,6.41,0,0,0-1.45.07,3.07,3.07,0,0,0-1.31.46A1.71,1.71,0,0,0,48,9.55a2.58,2.58,0,0,0,2.14,1,6.05,6.05,0,0,1-.55-.32,2,2,0,0,1-.81-.89c-.12-.31-.15-.8.2-1a2.16,2.16,0,0,1,1.1-.06,5.56,5.56,0,0,1,1.28.24A3.4,3.4,0,0,1,52.46,9c.28.2.28.59.31.9s0,.42,0,.63a1,1,0,0,1-.06.43c-.05.1-.21.13-.31.17s-.4.16-.6.26a5.42,5.42,0,0,0-2.66,3.18l-.89.42-.34-.08a7.81,7.81,0,0,0-2.46-.06,4.86,4.86,0,0,0-3.78,2.4,4.61,4.61,0,0,0-.51,2.09,4.44,4.44,0,0,0,.29,1.7A5.13,5.13,0,0,1,43,17.85a3.44,3.44,0,0,1,1.44-.72,6.51,6.51,0,0,0-2.57,5,4.74,4.74,0,0,0-2.08.49c-1.23.6-2.52,1.68-2.4,3.21a4.23,4.23,0,0,0,.68,1.91,4,4,0,0,0,1,1.12,6.29,6.29,0,0,1-.42-2.22,2.16,2.16,0,0,1,.17-1A1.62,1.62,0,0,1,39.5,25a5.09,5.09,0,0,1,1.73-.64,3.37,3.37,0,0,1,.84,0c.1,0,.07,0,0,.15a3.25,3.25,0,0,0,1.13,3,6.94,6.94,0,0,0-1.7.14,3,3,0,0,0-2.3,1.71,1.56,1.56,0,0,0,1.22,2c-.32-.36-.59-1-.2-1.45a2.14,2.14,0,0,1,1.53-.38A29.48,29.48,0,0,1,45,30c-.52.36-1.15.74-1.81,1.17a5.6,5.6,0,0,0-3.8,1.49,5.25,5.25,0,0,0-1.84,4.89,5.62,5.62,0,0,0,1.33,2.35,5.45,5.45,0,0,0,1.86,1.37c0,.13.07.25.11.37a3.86,3.86,0,0,0-1.07.9,2.92,2.92,0,0,0-.67,1.88,3.49,3.49,0,0,0,.61,1.85,1.9,1.9,0,0,0,1.63.82A1.78,1.78,0,0,0,43,46.44a1.33,1.33,0,0,0-.35-1.57,1.25,1.25,0,0,1-.1.91.58.58,0,0,1-.66.14,1.13,1.13,0,0,1-.82-1,1.25,1.25,0,0,1,.15-.76,1.79,1.79,0,0,1,.52-.47l.1-.05a5,5,0,0,0,3.8,2c5.56.44,53.54,1.49,53.54,1.49s6.3-3.27,3.14-9a4.83,4.83,0,0,0,3.78-.31,3.31,3.31,0,0,0,1.81-3.23,3,3,0,0,0-2.86-2.23,2.26,2.26,0,0,0-1.63.46c-.08-.34-.17-.71-.28-1.12a6.79,6.79,0,0,0,2.45-3.28,7.08,7.08,0,0,0,.48-2.62,3,3,0,0,0-1-2.33,3.19,3.19,0,0,0-2-.5,4.87,4.87,0,0,0-.93.15l.21-.16a3.47,3.47,0,0,0,1.31-2,2.09,2.09,0,0,0-.7-2,3.4,3.4,0,0,0-1.72-.73c.56.41,1.32,1,1.35,1.8s-.79,1.32-1.42,1.59a4.12,4.12,0,0,1-2.11.29,3.81,3.81,0,0,1-.93-.27.62.62,0,0,1-.41-.46,5.84,5.84,0,0,1,.2-1.85,4.49,4.49,0,0,0-.25-2.21,2.61,2.61,0,0,0-1.14-1.31,2.2,2.2,0,0,0,.3-.72,4.89,4.89,0,0,0-1.24-4.33A5.38,5.38,0,0,0,91.26,9a6.2,6.2,0,0,0-2.52.72,3.46,3.46,0,0,0,.52-1.25,5.52,5.52,0,0,0-.05-2.29,4,4,0,0,0-1-2,2.51,2.51,0,0,0-2-.73,3.41,3.41,0,0,0-1.83.83,6.54,6.54,0,0,0-.81.77,1.23,1.23,0,0,0-.37.69,5.11,5.11,0,0,0-1.73-.22c.13-.09.27-.19.4-.3a6.08,6.08,0,0,0,1-1.08A5,5,0,0,0,83.78,1L81.65.64a5,5,0,0,1-.22,1.54A4,4,0,0,1,79,4.32l-.57.22L77.29,5l.09-.27a3.29,3.29,0,0,0,.12-.61,2.12,2.12,0,0,0-.34-1.48A3,3,0,0,0,76.67,2c-1-.95-2.4-1.2-3.61-1.8A3.35,3.35,0,0,1,72.7,0H72L70.2,0C71.26,1.66,74,2.57,75.56,3.8ZM58.82,12.16c-.13-.08-.26-.16-.38-.25a3,3,0,0,1-1.09-1.23,2.1,2.1,0,0,1,0-1.7,2.13,2.13,0,0,1,3-.89,2.94,2.94,0,0,1,1.36,2.25A6.36,6.36,0,0,0,58.82,12.16ZM103.6,33.6l.16-.05a1.75,1.75,0,0,1,1.34.36,4.15,4.15,0,0,1,.56.46c.1.11.24.26.21.42a1.54,1.54,0,0,1-.53.83,3.39,3.39,0,0,1-2,.72A4.46,4.46,0,0,0,103.6,33.6ZM101.31,25a3.94,3.94,0,0,1,1.77-.17,3.15,3.15,0,0,1,.6.17s.09,0,.11.07a.79.79,0,0,1,.06.22,4,4,0,0,1-.14,1.78,7.7,7.7,0,0,1-.62,1.68,7.9,7.9,0,0,1-.46.8,5.16,5.16,0,0,0-.12-2A5.09,5.09,0,0,0,101.22,25Zm-5.73-7.87a1.21,1.21,0,0,1,.39,1,19.75,19.75,0,0,1-.46,2.39,3.86,3.86,0,0,0,0,1c-1.17-1.38-.31-2.7-.12-4.44Zm-4.16-6a4.23,4.23,0,0,1,2.89,1.42,3.58,3.58,0,0,1,1,2.13,1.48,1.48,0,0,1,0,.42,6,6,0,0,0-.5-1.22c-1.69-3.1-3.87-.7-6.12-2.21A5.9,5.9,0,0,1,91.42,11.1ZM83.83,5.35c.29-.11.58-.22.88-.31a2.52,2.52,0,0,1,1.6-.11,1.35,1.35,0,0,1,.72.92,5,5,0,0,1,.15,1.58,2,2,0,0,1-.5,1.35l-.1.11A5.83,5.83,0,0,0,83.2,5.7,1.57,1.57,0,0,1,83.83,5.35Z"/><path class="cls-17" d="M87.4,14.75a1.66,1.66,0,0,0-.62-.58A2.6,2.6,0,0,0,85,14a5.4,5.4,0,0,0-.84.26c-.28.11-.54.25-.77.36a3,3,0,0,1-.66.24c-.22,0-.16,0-.18,0s0-.07,0-.11a.83.83,0,0,0,0-.15l0-.17a4.91,4.91,0,0,1,0-.85,3.17,3.17,0,0,0-.14-1.27,2.49,2.49,0,0,0-.88-1.16,4.32,4.32,0,0,0-1.16-.62A5,5,0,0,0,79,10.24a5.74,5.74,0,0,0-2.63.4,4,4,0,0,0-2.12,1.88,2.09,2.09,0,0,0-.2.79,1.76,1.76,0,0,0,.17.84,2.15,2.15,0,0,0,.51.64,3.2,3.2,0,0,0,.62.39,3.28,3.28,0,0,0,.7.27,1.6,1.6,0,0,0,.81,0,1.27,1.27,0,0,0,.64-.48.76.76,0,0,0,.09-.77,1.55,1.55,0,0,1,0,.28A.81.81,0,0,1,77,15a1.28,1.28,0,0,1-1.17-.36,3.25,3.25,0,0,1-.35-.31,1.46,1.46,0,0,1-.25-.32.8.8,0,0,1,0-.74,2,2,0,0,1,.74-.84,3.75,3.75,0,0,1,1.36-.58,4.56,4.56,0,0,1,1.74-.08A3.43,3.43,0,0,1,80,12a2.49,2.49,0,0,1,.79.48,1,1,0,0,1,.31.69c0,.34,0,.83.06,1.39a2.65,2.65,0,0,0,.27.86,1.31,1.31,0,0,0,1,.7,1.91,1.91,0,0,0,1-.2,6.29,6.29,0,0,0,.73-.4c.23-.14.43-.27.65-.38a4.12,4.12,0,0,1,.69-.27,1.37,1.37,0,0,1,1.34.2,1.34,1.34,0,0,1,.39.65,1.67,1.67,0,0,1,0,.83,5.39,5.39,0,0,1-.86,1.64s.13-.11.36-.34a4.31,4.31,0,0,0,.86-1.2,2,2,0,0,0,.16-1.19A1.89,1.89,0,0,0,87.4,14.75Z"/><path class="cls-18" d="M56.15,14.75A2.65,2.65,0,0,0,55,14.53a3.53,3.53,0,0,0-1.15.24,2.65,2.65,0,0,0-1.71,2.07,10.41,10.41,0,0,0,0,2.56,4,4,0,0,1-.06,1.11A1.91,1.91,0,0,1,52,21c-.1.16-.13.17-.17.2a.55.55,0,0,1-.34,0,4.15,4.15,0,0,1-.61-.17l-.72-.29a4.49,4.49,0,0,0-.91-.27,3.17,3.17,0,0,0-1,0,2.77,2.77,0,0,0-1,.36,2.39,2.39,0,0,0-.78.8,2.61,2.61,0,0,0-.34,1,3.89,3.89,0,0,0,0,1,6.45,6.45,0,0,0,.21,1,6.8,6.8,0,0,0,.82,1.88A4,4,0,0,0,48.65,28a2.41,2.41,0,0,0,1,.31,1.36,1.36,0,0,0,1-.38,1.22,1.22,0,0,1-.48.19,1.74,1.74,0,0,1-1.35-.45,3.51,3.51,0,0,1-.75-.78,4.91,4.91,0,0,1-.58-1.17,7.22,7.22,0,0,1-.36-1.49,4,4,0,0,1,0-1.58,1.21,1.21,0,0,1,.93-.89,1.94,1.94,0,0,1,.8,0,4.73,4.73,0,0,1,.9.36,7.8,7.8,0,0,0,1.26.47,2.48,2.48,0,0,0,.92,0,1.62,1.62,0,0,0,1-.53,2.8,2.8,0,0,0,.67-1.55,6.59,6.59,0,0,0,0-1.47c0-.46-.09-.9-.1-1.31a2.45,2.45,0,0,1,.14-1.09,1.27,1.27,0,0,1,.69-.68,1.83,1.83,0,0,1,1.1-.23,1.46,1.46,0,0,1,1,.56,1.93,1.93,0,0,1,.43,1.18,1.48,1.48,0,0,1-.5,1.17,2.29,2.29,0,0,1-1.38.49l.29.08a2.24,2.24,0,0,0,1-.07,1.71,1.71,0,0,0,.77-.46,2.06,2.06,0,0,0,.54-1.06,2.67,2.67,0,0,0-.14-1.48A2.63,2.63,0,0,0,56.15,14.75Z"/><path class="cls-19" d="M69.71,15.72a4.32,4.32,0,0,0-1.26-1.39,4.66,4.66,0,0,0-1.94-.72,4.75,4.75,0,0,0-2.25.16,2.75,2.75,0,0,0-1,.69,4.52,4.52,0,0,0-.72,1,5,5,0,0,0-.7,2.36l0-.07a1.46,1.46,0,0,1,.09-.22,4.71,4.71,0,0,1,.43-.8,7.14,7.14,0,0,1,.9-1.09,4.26,4.26,0,0,1,.66-.53,1.67,1.67,0,0,1,.75-.28,4.5,4.5,0,0,1,2.08.27,4.23,4.23,0,0,1,.53.23,2.58,2.58,0,0,1,.45.31,3.8,3.8,0,0,1,.77.94A2.45,2.45,0,0,1,68.66,19a2.21,2.21,0,0,1-1.1.93,2.38,2.38,0,0,1-1.65,0,1.55,1.55,0,0,0,.62.49,2.28,2.28,0,0,0,1.16.2,2.37,2.37,0,0,0,.84-.2,2.65,2.65,0,0,0,.89-.59,2.85,2.85,0,0,0,.7-1.1,3.27,3.27,0,0,0,.14-1.5A4.44,4.44,0,0,0,69.71,15.72Z"/><path class="cls-20" d="M95.75,24.14a4.43,4.43,0,0,0-1.26-1.39,5.11,5.11,0,0,0-4.19-.56,2.79,2.79,0,0,0-1,.69,5.31,5.31,0,0,0-.72,1,4.84,4.84,0,0,0-.69,2.36l0-.08c0-.05,0-.12.08-.22a4.92,4.92,0,0,1,.44-.79,6.72,6.72,0,0,1,.9-1.1,3.76,3.76,0,0,1,.65-.53,1.77,1.77,0,0,1,.76-.27,4.39,4.39,0,0,1,2.08.27,3.43,3.43,0,0,1,.52.23,2,2,0,0,1,.45.31,3.44,3.44,0,0,1,.77.94,2.43,2.43,0,0,1,.17,2.45,2.24,2.24,0,0,1-1.09.93,2.39,2.39,0,0,1-1.65,0,1.55,1.55,0,0,0,.61.49,2.54,2.54,0,0,0,2,0,2.79,2.79,0,0,0,.9-.59,3,3,0,0,0,.7-1.1,3.14,3.14,0,0,0,.13-1.5A4.23,4.23,0,0,0,95.75,24.14Z"/><path class="cls-21" d="M45.21,64.57c-4.63.26-3.43,5.13-1.4,9.67,1.33,3,2.58,6.34,6,6.34,0,0-.88-6-1.93-13.84C47.87,66.74,46.11,64.52,45.21,64.57Z"/><path class="cls-22" d="M46.1,72.77c1.22-8.08-4.33-8.64-3.07-3.12,0,0,.77-2.6,1.47-1.82.86,1-.93,1.48,0,5.65.47,2.17,2.76,4.46,2.76,4.46A6.25,6.25,0,0,1,46.1,72.77Z"/><path class="cls-23" d="M98.44,64.57c-.9,0-2.66,2.17-2.66,2.17-1,7.86-2.32,13.84-2.32,13.84,3.41,0,5-3.37,6.38-6.34C101.87,69.7,103.07,64.83,98.44,64.57Z"/><path class="cls-24" d="M97.54,72.77a6.25,6.25,0,0,1-1.15,5.17s2.29-2.29,2.77-4.46c.91-4.17-.88-4.7,0-5.65.7-.78,1.47,1.82,1.47,1.82C101.88,64.13,96.33,64.69,97.54,72.77Z"/><path class="cls-2" d="M74.88,31s-23.55,3-26.52,9.73C45.13,48.06,46.05,58.3,47,65s2.77,17.57,4.46,20.65S61.7,96.82,63.55,98.19s3.94,3.44,8.22,3.44c3.81,0,6.82-2.28,8.5-3.59s10-9.63,11.75-12.7S95.59,71.71,96.51,65s1.85-17-1.38-24.25C92.16,34.06,85.19,31.67,74.88,31Z"/><path class="cls-25" d="M92.56,58.92a10.39,10.39,0,0,0-7.6-2.1C74.15,57.91,74.31,68.56,73.3,74.62c13.28,5.2,21-4.27,21-4.27S96.57,62,92.56,58.92Z"/><path class="cls-26" d="M57.55,57.28a10,10,0,0,0-7.33,2c-4,3.22-1.06,12.28-1.06,12.28s7.79,9.13,21,3.52C69.13,69.09,68.37,58,57.55,57.28Z"/><path class="cls-27" d="M62,68c-3-.9-14.8-3.34-14.24.52C49,77,50.09,82.86,51.6,85.52s6.2,7.16,8.19,7.5c3.09.51,6.37-10.72,6.44-14.57C66.34,73.06,65,68.84,62,68Z"/><path class="cls-28" d="M81.55,68c-3,.89-4.38,5.11-4.27,10.5.07,3.85,3.35,15.08,6.44,14.57,2-.34,6.62-4.72,8.2-7.5s2.63-8.52,3.87-17C96.35,64.61,84.58,67.05,81.55,68Z"/><path class="cls-29" d="M72.31,93.93c-2.17.1-3.91.87-3.9,1.72s1.77,1.46,3.93,1.36,3.91-.87,3.9-1.72S74.46,93.83,72.31,93.93Z"/><path class="cls-30" d="M47.1,65.86s2.17,15.52,4.18,19.84c.65,1.4,6.38,7.32,10.06,10.7,0,0-7.3-7.31-9.26-12.25C50.41,79.9,47.1,65.86,47.1,65.86Z"/><path class="cls-31" d="M82.12,96.4C85.8,93,91.58,87.1,92.23,85.7c2-4.32,4.18-19.84,4.18-19.84s-3.31,14-5,18.29C89.47,89.09,82.12,96.4,82.12,96.4Z"/><path class="cls-32" d="M71.69,101.53a10.51,10.51,0,0,1-5.84-1.74c-.63-.35-6.51-5.28-6.51-5.28s4.46,5.22,6.51,6.36c1.89,1.06,3.69,2.39,5.89,2.39a12.35,12.35,0,0,0,6.92-3,74.94,74.94,0,0,0,5.27-5.6c-.46.43-5.25,4.4-6.2,5A9.77,9.77,0,0,1,71.69,101.53Z"/><path class="cls-33" d="M88.17,72c-1.28.34-2.18,1.22-2,2s1.34,1.11,2.61.77,2.18-1.22,2-2S89.44,71.65,88.17,72Z"/><path class="cls-34" d="M54,71.9c-1.34-.3-2.55.11-2.69.91s.82,1.68,2.16,2,2.55-.11,2.7-.91S55.35,72.19,54,71.9Z"/><path class="cls-35" d="M78.17,31C68,30.1,54.38,36.3,50.47,48.84c-2.75,8.8-3.51,13.33-3,18.82.2,2.33.89,5.83,1.32,8.28,0,0-.17-6.64,4.7-9.18,0,0-1-11,4.45-19.48,3.3-5.15,9.68-6.66,13.35-6.91,3.87-.26,9,.74,12.22,4,4.59,4.67,5.9,12.86,6.17,22.37,5.89,0,5.29,5.06,5.17,8.8,0,0,1.07-4.89,1.64-9.86a31.78,31.78,0,0,0-1.09-14.15C92.92,43.46,88.4,31.92,78.17,31Z"/><path class="cls-36" d="M69,26.73c-22.49,2.34-24,32.73-23,37.64.28,1.4,2.29,1.85,2.29,1.85s.61-5.39,1.27-6.72c1.22-2.44,4-11.64,6-15.24a14.78,14.78,0,0,1,7.43-5.89A23.24,23.24,0,0,1,79,38.69c1.41.52,5.91,1,9.46,6.72a55.6,55.6,0,0,1,7,21c1.31-2.25,2.17-1.91,2.54-3.85S100,23.52,69,26.73Z"/><path class="cls-37" d="M97.59,35.66c-.59-1-1.74-1.44-2.34-2.53A10.15,10.15,0,0,0,93,30.06c-.9-.73-2.32-.19-3.46-1-.62-.43-1.28-.87-2-1.34a15.75,15.75,0,0,0-7.72-3.84,36.77,36.77,0,0,0-9.5-.22c-2.5.16-8.11.95-10.06,1.3-2.66.48-1.64,1.19-3.12,2.43-2.63,2.2-6.36,2.4-7.68,3.5s-.88,1.63-.77,2.45c.43,3.16-2.58,3.76-3.66,5.74s-.35,4.34-2,6.47c-.77,1-.49,2.58-.46,4.23.07,4.68.64,11.63,3.49,14.56,0,0,.35-3.91.35-8.18s2.53-8.48,4.4-13.18c2.33-5.88,10.3-10,19.87-10,2.07,0,10.35-.64,12.54-.38,9.7,1.13,11.16,10.24,11.9,12.69,1.42,4.64,2.15,19,2.15,19s3.11-4.89,3.19-6.49c.44-8.63,1.64-10.67-2.35-19.24C97.74,37.74,98,36.32,97.59,35.66Z"/><path class="cls-38" d="M42.51,48.41A79.77,79.77,0,0,0,44.2,64.72c1.86-.35,2.49.89,2.9,1.14,0,0,.53,4,1.35,8.31,0,0,1.28-15.82,1.55-17.48C50,56.69,43.21,54,42.51,48.41Z"/><path class="cls-39" d="M93.23,56.76c1.36,5.34,1.66,10.5,2.12,16.13,0,0,1-6.42,1.56-7.12a2.39,2.39,0,0,1,2.72-1,40,40,0,0,0,1.26-17.37S97.79,55.4,93.23,56.76Z"/><path class="cls-40" d="M82.61,38.79c-10.73-4.26-21.88-.49-24.17,1.74-5.66,5.53-8.31,10.83-9,21.69,0,0,4.2-12.23,5.51-14.34s3.52-5.73,7.54-7.48a26.21,26.21,0,0,1,19-.22c8.72,3.23,13,23.89,13,23.89S93.47,43.11,82.61,38.79Z"/><path class="cls-41" d="M64.15,58.25a1.43,1.43,0,0,1,.11,1.57,1.81,1.81,0,0,0-1-2c-1.48-.52-6.33-1.64-8.23-1.44-2.06.22-5,2.94-5,2.94a13,13,0,0,1,5.22-1.09,66.46,66.46,0,0,1,8.59,2.18C65.16,60.8,65.3,59.2,64.15,58.25Z"/><path class="cls-2" d="M92.74,59.27a8.65,8.65,0,0,0-9.17-.59c10.59-2.69,8.81,7.93,8.81,7.93S94.34,60.43,92.74,59.27Z"/><path class="cls-42" d="M79.46,57.77a1.79,1.79,0,0,0-1,2,1.43,1.43,0,0,1,.11-1.57c-1.16,1-1,2.55.3,2.11a66.59,66.59,0,0,1,8.6-2.18,13,13,0,0,1,5.23,1.09s-3-2.72-5-2.94C85.8,56.13,80.94,57.25,79.46,57.77Z"/><path class="cls-43" d="M85,62c-7.26,0-7.93,4.39-8.08,7.56a22,22,0,0,1,2.2.55,16.63,16.63,0,0,0,5.64,1.13c1.93,0,6.11-.88,6.17-5C91,63,86.8,62.14,85,62Z"/><path class="cls-44" d="M77.29,69.3a25.37,25.37,0,0,1,3.74,1,3.16,3.16,0,0,1-1.29-2.77,5,5,0,0,1,1.65-3A12.29,12.29,0,0,0,77.29,69.3Z"/><path class="cls-45" d="M77.29,69.3a12.47,12.47,0,0,1,2.52-2.08A3.59,3.59,0,0,1,81.18,65C78.83,66.17,77.29,69.3,77.29,69.3Z"/><path class="cls-46" d="M87,67.94a3.43,3.43,0,0,1-1.77,2.83,6.6,6.6,0,0,0,5.45-3.87c-2.63-2.15-4.51-2.82-6.3-3A4,4,0,0,1,87,67.94Z"/><path class="cls-47" d="M79.8,67.13c0,.16,0,.28-.06.45A3,3,0,0,0,81,70.35a12.72,12.72,0,0,0,4.59.41A3.34,3.34,0,0,0,87.49,68a3.76,3.76,0,0,0-.38-1.89A8.25,8.25,0,0,0,79.8,67.13Z"/><path class="cls-45" d="M85.61,64.72a3.61,3.61,0,0,1,1.71,2,11.12,11.12,0,0,1,2.47,1.41l.71-1.43C89.47,65.43,87.49,65.06,85.61,64.72Z"/><path class="cls-48" d="M85.61,64.72a9.59,9.59,0,0,0-3.42,0,4.45,4.45,0,0,0-1,.34,3.51,3.51,0,0,0-1.39,2.18,8.63,8.63,0,0,1,3.6-1.14,8.46,8.46,0,0,1,4,.67A3.55,3.55,0,0,0,85.61,64.72Z"/><path class="cls-49" d="M83.73,65A2.33,2.33,0,1,0,86,67.45,2.39,2.39,0,0,0,83.73,65Z"/><path class="cls-50" d="M84.15,66.32a.71.71,0,0,0-.94.25.66.66,0,0,0,.23.92.7.7,0,0,0,.93-.26A.64.64,0,0,0,84.15,66.32Z"/><path class="cls-50" d="M86.34,67.28a.92.92,0,0,0-1.25.32.91.91,0,1,0,1.25-.32Z"/><path class="cls-51" d="M92.31,63.72s-.71,1.46-4.25.2c-6.83-2.17-10.64,1.75-10.77,5.38,0,0,2-4,5.92-4.36,2.36-.23,4.4.73,6.44,1.82,0,1.62-2.16,3.59-4.51,4.06,2,0,6.49-2,6.82-3.71-.13.21-.55.36-1.1.16C90.86,67.27,92.78,66.51,92.31,63.72Z"/><path class="cls-52" d="M81.56,62.33a6.56,6.56,0,0,0-3.39,2.5,7.25,7.25,0,0,1,3.6-2.14,15.57,15.57,0,0,1,6.29,0A9.14,9.14,0,0,0,81.56,62.33Z"/><path class="cls-53" d="M82.93,64.59a7.24,7.24,0,0,0-5.64,4.71A8.36,8.36,0,0,1,83,65.18c2.29-.4,4.89.71,6.63,1.58A8.08,8.08,0,0,0,82.93,64.59Z"/><path class="cls-54" d="M58.06,62c-1.75.15-6,1-5.93,4.24.06,4.12,4.24,5,6.18,5a16.62,16.62,0,0,0,5.63-1.13,22,22,0,0,1,2.21-.55C66,66.38,65.32,62,58.06,62Z"/><path class="cls-55" d="M61.71,64.58a5,5,0,0,1,1.65,3,3.14,3.14,0,0,1-1.29,2.77,25.18,25.18,0,0,1,3.75-1A12.36,12.36,0,0,0,61.71,64.58Z"/><path class="cls-45" d="M61.92,65a3.51,3.51,0,0,1,1.37,2.18,12.6,12.6,0,0,1,2.53,2.08S64.28,66.17,61.92,65Z"/><path class="cls-56" d="M58.71,63.92c-1.79.16-3.67.83-6.29,3a6.58,6.58,0,0,0,5.45,3.87,3.44,3.44,0,0,1-1.78-2.83A4,4,0,0,1,58.71,63.92Z"/><path class="cls-57" d="M63.3,67.13a8.23,8.23,0,0,0-7.3-1A3.76,3.76,0,0,0,55.62,68a3.32,3.32,0,0,0,1.87,2.73,12.69,12.69,0,0,0,4.58-.41,3,3,0,0,0,1.29-2.77A3.25,3.25,0,0,0,63.3,67.13Z"/><path class="cls-45" d="M52.6,66.72l.72,1.43a10.89,10.89,0,0,1,2.46-1.41,3.59,3.59,0,0,1,1.72-2C55.61,65.06,53.64,65.43,52.6,66.72Z"/><path class="cls-58" d="M61.92,65a4.45,4.45,0,0,0-1-.34,9.54,9.54,0,0,0-3.41,0,3.51,3.51,0,0,0-1.74,2,8.39,8.39,0,0,1,4-.67,8.63,8.63,0,0,1,3.61,1.14A3.48,3.48,0,0,0,61.92,65Z"/><path class="cls-59" d="M59.38,65A2.33,2.33,0,1,0,62,67.09,2.38,2.38,0,0,0,59.38,65Z"/><path class="cls-50" d="M59.91,66.32a.71.71,0,0,0-.94.25.66.66,0,0,0,.23.92.7.7,0,0,0,.93-.26A.64.64,0,0,0,59.91,66.32Z"/><path class="cls-50" d="M62.1,67.28a.91.91,0,0,0-1.24.32.89.89,0,0,0,.33,1.23.9.9,0,1,0,.91-1.55Z"/><path class="cls-60" d="M55.05,63.92c-3.54,1.26-4.25-.2-4.25-.2-.48,2.79,1.44,3.55,1.44,3.55-.54.2-1,0-1.09-.16.32,1.68,4.8,3.73,6.81,3.71-2.35-.47-4.53-2.44-4.5-4.06,2-1.09,4.08-2.05,6.43-1.82,3.88.38,5.93,4.36,5.93,4.36C65.68,65.67,61.87,61.75,55.05,63.92Z"/><path class="cls-61" d="M61.54,62.33a9.11,9.11,0,0,0-6.49.34,15.52,15.52,0,0,1,6.28,0,7.32,7.32,0,0,1,3.61,2.14A6.62,6.62,0,0,0,61.54,62.33Z"/><path class="cls-53" d="M60.18,64.59a8.07,8.07,0,0,0-6.72,2.17c1.74-.87,4.33-2,6.62-1.58a8.39,8.39,0,0,1,5.74,4.12A7.24,7.24,0,0,0,60.18,64.59Z"/><polygon class="cls-62" points="70.97 79.53 66.39 79.53 65.88 80.08 71.25 83.23 76.29 80 75.57 79.48 70.97 79.53"/><path class="cls-63" d="M71,79.64l-3.35-.79L65.88,79,66,80a7.38,7.38,0,0,1,3.82.11H72A8.22,8.22,0,0,1,76.29,80l.09-.84-1.74-.3Z"/><path class="cls-64" d="M76.22,76.38s.81,1.14.47,1.87-2.63.1-3.57.6c-1.72.92-2.77.7-4.48,0-1.13-.45-2.71.12-3.35-.67a2.1,2.1,0,0,1,0-1.8,2.15,2.15,0,0,0-1.09,1.68,2,2,0,0,0,1.8,2c.27-.15-.21-1.21,1.36-1s1.49.86,1.74,1.09a8.5,8.5,0,0,0,3.49,0c.47-.25.34-1.17,1.83-1.13s1.53.91,1.74,1,1.1-.57,1.35-1.85S76.22,76.38,76.22,76.38Z"/><path class="cls-65" d="M67.43,75.75A2.39,2.39,0,0,0,68,77.6c.69.89,5.49,1.62,6.31-.42a4.26,4.26,0,0,0,.07-1.85C74.25,74.42,67.46,74.85,67.43,75.75Z"/><path class="cls-66" d="M66.88,92.11c2.28,1.38,8.36,1,9.47.15a20.93,20.93,0,0,0,3.49-4.38H63.3S66,91.59,66.88,92.11Z"/><path class="cls-67" d="M58.9,83.29c-.22.49-.1,1.38.53,1.54a12.86,12.86,0,0,1,3.67,1.4C62,84.89,59.09,82.85,58.9,83.29Z"/><path class="cls-68" d="M79.72,86.34a10.28,10.28,0,0,1,3.33-1.29c.91-.4,1-1.12.81-1.6S80.8,85,79.72,86.34Z"/><path class="cls-69" d="M60.4,84.14s3.49,3.57,4.25,4.11a39,39,0,0,0,6.19,2.56c.87.16,6.21-1.11,6.74-1.69s5-5,5-5-11.15.2-11.64.23S60.4,84.14,60.4,84.14Z"/><path class="cls-70" d="M65.24,86.08l-.59,1.76s4.44,2.58,6.85,2.58,6.81-2.17,6.81-2.17l-.9-2.17Z"/><path class="cls-71" d="M67.73,89.09c-1.34-.18-7.33-5-7.33-5s4.05,5.54,5.93,7,8.48,1.6,10.61,0c1.4-1.06,5.67-7,5.67-7s-5.4,4.62-6.83,5A40.83,40.83,0,0,1,67.73,89.09Z"/><path class="cls-72" d="M64.53,84.73a2.24,2.24,0,0,0,1.81,2.59c2.18.53,9.43.23,10.4.1,2.39-.29,2.2-2.86,2.2-2.86Z"/><path class="cls-73" d="M71.8,89.49c-1.5-.1-4.49.15-4.77.52-.69.89,1.18,1.92,4.77,1.95s5-1.46,4.38-1.95S73.3,89.58,71.8,89.49Z"/><path class="cls-74" d="M72.6,90.1c-.63.21,2.77.52,3.5.18a5.93,5.93,0,0,0,1.63-1.66s-.79.34-1.46.71A31.61,31.61,0,0,1,72.6,90.1Z"/><path class="cls-75" d="M61.23,84.09s7.89-.45,10.63-.39,9.38.36,9.38.36a30.42,30.42,0,0,0-9.44-1.5A44.12,44.12,0,0,0,61.23,84.09Z"/><path class="cls-76" d="M64.53,85.43s1.11.38,7.19.48,7.13-.43,7.13-.43a7.78,7.78,0,0,0,.09-.78l-14.41,0A2.08,2.08,0,0,0,64.53,85.43Z"/><path class="cls-71" d="M60.4,84.14s3.65,1.18,11.1,1.32c8.41.16,11.11-1.32,11.11-1.32s-7.17-.93-10.75-.93A102.53,102.53,0,0,0,60.4,84.14Z"/><path class="cls-77" d="M63.92,84.4a62.05,62.05,0,0,0,8.16.82,45.52,45.52,0,0,0,8.73-.66,53.65,53.65,0,0,0-9.16-1.13A31.85,31.85,0,0,0,63.92,84.4Z"/><path class="cls-69" d="M59.85,84.32a8.06,8.06,0,0,1,2,.38,19.51,19.51,0,0,0-2.47-1.12C59.24,83.62,59.34,84.09,59.85,84.32Z"/><path class="cls-69" d="M81.05,84.9A6.86,6.86,0,0,1,83,84.45c.5-.23.59-.68.49-.75A12.5,12.5,0,0,0,81.05,84.9Z"/><path class="cls-78" d="M81.37,33.17c-.14-.16-.53-.47-.52-.73s.36-.67.5-.88c.73-1.07,2.84-2.54,1.3-3.83a14.44,14.44,0,0,0-4.33-2.26c.69.57,1.37,1.15,2.05,1.73l1.07.94c.15.13.57.39.56.61s-.71.75-.89.94a7.65,7.65,0,0,0-1.3,1.75C79,33,80.45,34,81.55,34.92a5.78,5.78,0,0,1,.76.63c.19.23.18.24.09.51-.18.52-.47,1-.66,1.54A8.06,8.06,0,0,0,83.12,36c.22-.44,0-.72-.28-1.06C82.36,34.35,81.87,33.75,81.37,33.17Z"/><path class="cls-79" d="M90.22,36.45c1.34-.73,3.06-1.73,2.92-3.5-.1-1.22-1.21-2.24-2-3.08.66,1.41,1.88,3.05.38,4.34-1,.84-2.68,1-3.42,2.13s1,3,1.74,3.85,2.57,2.08,2.3,3.65c.94-1.6-.84-3.41-1.65-4.64q-.37-.57-.72-1.14c-.1-.16-.56-.73-.52-.94S90,36.57,90.22,36.45Z"/><path class="cls-80" d="M68.83,30.17c-.52-.26-1.33-.46-1.55-1.07s.36-1.32.75-1.79.73-1.06.19-1.59A3.74,3.74,0,0,0,66.54,25c.42.3,1.52.92,1.12,1.48-.26.36-.79.61-1.08,1A2.55,2.55,0,0,0,66,28.64,2.32,2.32,0,0,0,67.28,31a5.69,5.69,0,0,1,.56.3c-1.57,1.35-1.57,4.31.62,5.06a2.66,2.66,0,0,1,.11-4c.45-.37,1.08-.71.93-1.41C69.43,30.51,69.15,30.34,68.83,30.17Z"/><path class="cls-81" d="M59.11,35.41a1.23,1.23,0,0,0-.46-1.81A15.67,15.67,0,0,1,56,31.54c-.67-.75-.39-1.57-.16-2.45-1,1-1.36,2.17-.47,3.4a7.74,7.74,0,0,0,1.26,1.3,9.65,9.65,0,0,0,.81.62c.12.08.45.21.52.34s0,0,.06.11-.18.65-.19.88a2.57,2.57,0,0,0,.06.68,2.33,2.33,0,0,0,1.47,1.77A2.56,2.56,0,0,1,59.11,35.41Z"/><path class="cls-82" d="M49.91,43.23a4.2,4.2,0,0,0,.65-2.63c-.32-1.5-3-3-1.93-4.61-.92.58-.81,1.81-.44,2.67s1.19,1.73,1,2.74-.83,1.85-.51,2.91a2.05,2.05,0,0,0,2.08,1.51A1.9,1.9,0,0,1,49.91,43.23Z"/><path class="cls-83" d="M100.54,48.19A6.58,6.58,0,0,0,98.65,51c-.33,1.12.12,1.91.27,3,.24,1.8-3,3.54-1.61,5.38-.1-1.08.9-1.86,1.6-2.53a3.64,3.64,0,0,0,1.4-2.8c-.08-1.06-.74-1.91-.62-3A13.81,13.81,0,0,1,100.54,48.19Z"/><path class="cls-84" d="M44.7,55.85c-.67-1.15.72-1.66.88-2.7a3.35,3.35,0,0,0-1.47-2.61,5.48,5.48,0,0,1,.6,1.9c.06.57-.26.7-.64,1.08a2.36,2.36,0,0,0-.45,3.18,8.79,8.79,0,0,0,2.83,2.59c.79.51,1.66,1.37,1.19,2.38,1-.88.3-2.31-.44-3.08A15.48,15.48,0,0,1,44.7,55.85Z"/><path class="cls-85" d="M98.8,38.31c-.07-.7,0-1.38,0-2.08-.09-1.94-2.1-2-3.25-3.12A1.62,1.62,0,0,1,95,31.62c.13-.67.35-1.26-.05-1.89-.69-1.1-2.34-.66-3.42-1.08-1.48-.58-2.71-1.65-4.22-2.18a9.37,9.37,0,0,1-2.13-.63c-.45-.3-.62-.9-1-1.28-1.17-1.2-2.81-1-4.32-1.28-1.31-.25-2.13-1.43-3.42-1.77a3.14,3.14,0,0,0-2.52.48c-.39.25-1,.94-1.48.94s-1.3-.69-1.9-.87a4.59,4.59,0,0,0-2.52,0A23,23,0,0,0,64.15,24a3.49,3.49,0,0,1-2.24.4,20.36,20.36,0,0,0-2-.43,2.87,2.87,0,0,0-3.31,2.08c-.08.43.11,1.16-.11,1.54s-1.08.58-1.42.73c-1.59.71-4,.4-5.59,1.18A3.56,3.56,0,0,0,48,34c.33.79.46,1.18-.23,1.78s-1.37.81-2,1.32a7.12,7.12,0,0,0-1.91,2c-.39.82,0,1.79,0,2.66a6.54,6.54,0,0,1-1.09,4.09,10.47,10.47,0,0,0,1.92-2.75c.36-.87-.49-1.73-.3-2.62.44-2.07,2.9-2.84,4.34-4.08a1.9,1.9,0,0,0,.7-1.78,9.88,9.88,0,0,1-.1-2.66c.2-.71,1.32-.86,1.94-.91a13.22,13.22,0,0,0,3.76-.79c1.13-.44,2.66-.77,3.14-2,.21-.53,0-1.48.3-1.92s.91-.28,1.29-.21a21.94,21.94,0,0,0,2.43.55,5.5,5.5,0,0,0,2.43-.45c1.48-.6,3.14-2.2,4.85-2a5.22,5.22,0,0,1,1.56.71,2.89,2.89,0,0,0,2.08.22A6.66,6.66,0,0,0,75.06,24a1,1,0,0,1,1-.24c1,.32,1.63,1.2,2.62,1.52a11.93,11.93,0,0,0,2.66.37,2,2,0,0,1,1.7.94C84,28,85.44,28,86.91,28.49c1.71.61,3.14,1.84,5,2.14.28.05,1.35-.11,1.55.14s0,.46,0,.62c-.26,1.75,1.09,3,2.56,3.64.6.28,1.46.42,1.65,1.12s.06,1.42.18,2.11c.55,3.22,2.8,5.94,3,9.25.17-2.18-.65-4.24-1.29-6.28A15.47,15.47,0,0,1,98.8,38.31Z"/><path class="cls-86" d="M94.73,55.07a1.79,1.79,0,0,0-.84-2C91.53,51.42,93.26,48,91.1,46a4.21,4.21,0,0,1-1.48-2.82,4.42,4.42,0,0,0-2.78-3.34c-2.13-.89-3.72-3-6.1-3.27a23.7,23.7,0,0,0-4.36.37,6.71,6.71,0,0,1-2.81-.51,15.43,15.43,0,0,0-8.88,0c-1.6.44-3.48.74-4.7,2-.71.7-1.16,1.68-2.15,2s-2.28.24-2.89,1.32c-.44.81.12,1.58,0,2.4-.2,1.4-2.22,2.06-2.91,3.22a8.43,8.43,0,0,0-.8,3.46,3.87,3.87,0,0,1-1,2.46c-.54.55-.82.77-.8,1.58,0,1.14.57,2.07.22,3.24.56-1.24-.25-2.52.25-3.68a1.45,1.45,0,0,1,.45-.53,4.44,4.44,0,0,0,1.42-1.67c.45-1.13.44-2.38.92-3.5.63-1.52,2.35-1.9,3.28-3.2a3,3,0,0,0,.49-1c.13-.51-.2-1.34,0-1.78.08-.18.11-.17.26-.28.31-.23,1-.17,1.4-.24a4.05,4.05,0,0,0,1.8-.85c.55-.45.93-1.08,1.47-1.54a3.88,3.88,0,0,1,1.83-.8c3.36-.85,6.35-1.51,9.75-.43a9.67,9.67,0,0,0,4.66.46,10.29,10.29,0,0,1,3.12-.28c1.48.27,2.57,1.6,3.84,2.3.74.41,1.93.56,2.55,1.16s.75,1.89,1.07,2.77a4,4,0,0,0,1.61,2A3.93,3.93,0,0,1,91.12,50c.28,1.72.57,2.9,2.07,3.87.79.52.76.67.7,1.61A12.05,12.05,0,0,0,95,61.26,14.53,14.53,0,0,1,94.73,55.07Z"/></svg>