<svg id="Layer_1" data-name="Layer 1" xmlns="http://www.w3.org/2000/svg" xmlns:xlink="http://www.w3.org/1999/xlink" viewBox="0 0 144 144"><defs><style>.cls-1{fill:#f6ece6;}.cls-2{fill:url(#linear-gradient);}.cls-3{fill:#f7d9ab;}.cls-4{fill:url(#linear-gradient-2);}.cls-5{fill:url(#linear-gradient-3);}.cls-6{fill:url(#linear-gradient-4);}.cls-7{fill:url(#linear-gradient-5);}.cls-8{fill:#f1c99a;}.cls-9{fill:#971b27;}.cls-10{fill:url(#linear-gradient-6);}.cls-11{fill:url(#linear-gradient-7);}.cls-12{fill:#f26d79;}.cls-13{fill:url(#linear-gradient-8);}.cls-14{fill:#f598a2;}.cls-15{fill:url(#linear-gradient-9);}.cls-16{fill:url(#linear-gradient-10);}.cls-17{fill:url(#linear-gradient-11);}.cls-18{fill:url(#linear-gradient-12);}.cls-19{fill:url(#linear-gradient-13);}.cls-20{fill:url(#linear-gradient-14);}.cls-21{fill:url(#linear-gradient-15);}.cls-22{fill:url(#linear-gradient-16);}.cls-23{fill:url(#linear-gradient-17);}.cls-24{fill:#8f1941;}.cls-25{fill:url(#linear-gradient-18);}.cls-26{fill:url(#linear-gradient-19);}.cls-27{fill:url(#linear-gradient-20);}.cls-28{fill:url(#linear-gradient-21);}.cls-29{fill:url(#linear-gradient-22);}.cls-30{fill:url(#linear-gradient-23);}.cls-31{fill:url(#linear-gradient-24);}.cls-32{fill:url(#linear-gradient-25);}.cls-33{fill:url(#linear-gradient-26);}.cls-34{fill:url(#linear-gradient-27);}.cls-35{fill:url(#linear-gradient-28);}.cls-36{fill:url(#linear-gradient-29);}.cls-37{fill:url(#linear-gradient-30);}.cls-38{fill:url(#linear-gradient-31);}.cls-39{fill:url(#linear-gradient-32);}.cls-40{fill:url(#linear-gradient-33);}.cls-41{fill:url(#linear-gradient-34);}.cls-42{fill:url(#linear-gradient-35);}.cls-43{fill:url(#linear-gradient-36);}.cls-44{fill:url(#linear-gradient-37);}.cls-45{fill:url(#linear-gradient-38);}.cls-46{fill:url(#radial-gradient);}.cls-47{fill:url(#linear-gradient-39);}.cls-48{fill:url(#radial-gradient-2);}.cls-49{fill:url(#linear-gradient-40);}.cls-50{fill:url(#linear-gradient-41);}.cls-51{fill:url(#linear-gradient-42);}.cls-52{fill:url(#linear-gradient-43);}.cls-53{fill:url(#linear-gradient-44);}.cls-54{fill:#dba879;}.cls-55{fill:url(#linear-gradient-45);}.cls-56{fill:url(#linear-gradient-46);}.cls-57{fill:url(#linear-gradient-47);}.cls-58{fill:url(#linear-gradient-48);}.cls-59{fill:url(#linear-gradient-49);}.cls-60{fill:url(#linear-gradient-50);}.cls-61{fill:url(#linear-gradient-51);}.cls-62{fill:url(#linear-gradient-52);}.cls-63{fill:#ddd;}.cls-64{fill:url(#linear-gradient-53);}.cls-65{fill:url(#linear-gradient-54);}.cls-66{fill:url(#linear-gradient-55);}.cls-67{fill:url(#radial-gradient-3);}.cls-68{fill:#fff;}.cls-69{fill:url(#linear-gradient-56);}.cls-70{fill:#391b13;}.cls-71{fill:url(#linear-gradient-57);}.cls-72{fill:url(#linear-gradient-58);}.cls-73{fill:url(#linear-gradient-59);}.cls-74{fill:url(#linear-gradient-60);}.cls-75{fill:url(#linear-gradient-61);}.cls-76{fill:url(#radial-gradient-4);}.cls-77{fill:url(#linear-gradient-62);}.cls-78{fill:url(#linear-gradient-63);}.cls-79{fill:url(#linear-gradient-64);}.cls-80{fill:url(#linear-gradient-65);}.cls-81{fill:url(#linear-gradient-66);}.cls-82{fill:url(#linear-gradient-67);}.cls-83{fill:url(#linear-gradient-68);}.cls-84{fill:url(#linear-gradient-69);}.cls-85{fill:url(#linear-gradient-70);}.cls-86{fill:url(#linear-gradient-71);}.cls-87{fill:url(#linear-gradient-72);}.cls-88{fill:url(#linear-gradient-73);}.cls-89{fill:url(#linear-gradient-74);}.cls-90{fill:url(#linear-gradient-75);}.cls-91{fill:url(#linear-gradient-76);}.cls-92{fill:url(#linear-gradient-77);}.cls-93{fill:url(#linear-gradient-78);}.cls-94{fill:url(#linear-gradient-79);}.cls-95{fill:url(#linear-gradient-80);}.cls-96{fill:url(#linear-gradient-81);}.cls-97{fill:url(#linear-gradient-82);}.cls-98{fill:url(#linear-gradient-83);}.cls-99{fill:url(#linear-gradient-84);}.cls-100{fill:url(#linear-gradient-85);}.cls-101{fill:url(#linear-gradient-86);}.cls-102{fill:url(#linear-gradient-87);}.cls-103{fill:url(#linear-gradient-88);}.cls-104{fill:url(#linear-gradient-89);}.cls-105{fill:url(#linear-gradient-90);}</style><linearGradient id="linear-gradient" x1="71.66" y1="122.5" x2="69.66" y2="26.59" gradientUnits="userSpaceOnUse"><stop offset="0.23" stop-color="#492319"/><stop offset="1" stop-color="#663024"/></linearGradient><linearGradient id="linear-gradient-2" x1="25.21" y1="99.59" x2="25.59" y2="133.64" gradientUnits="userSpaceOnUse"><stop offset="0" stop-color="#ffdeb3"/><stop offset="0.68" stop-color="#fcdcb0"/><stop offset="1" stop-color="#f7d9ab"/></linearGradient><linearGradient id="linear-gradient-3" x1="118.09" y1="98.02" x2="117.9" y2="137.68" xlink:href="#linear-gradient-2"/><linearGradient id="linear-gradient-4" x1="65.06" y1="78.92" x2="61.94" y2="76.34" gradientUnits="userSpaceOnUse"><stop offset="0" stop-color="#f7d9ab"/><stop offset="0.53" stop-color="#f6d6a8"/><stop offset="0.87" stop-color="#f3cea0"/><stop offset="1" stop-color="#f1c99a"/></linearGradient><linearGradient id="linear-gradient-5" x1="84.83" y1="77.37" x2="82.52" y2="76.2" xlink:href="#linear-gradient-4"/><linearGradient id="linear-gradient-6" x1="65.8" y1="79.53" x2="79.65" y2="79.53" gradientUnits="userSpaceOnUse"><stop offset="0" stop-color="#e8d9d7"/><stop offset="0.14" stop-color="#f0e6e4"/><stop offset="0.39" stop-color="#fbf8f8"/><stop offset="0.57" stop-color="#fff"/><stop offset="1" stop-color="#e8d3d1"/></linearGradient><linearGradient id="linear-gradient-7" x1="61.38" y1="77.97" x2="83.18" y2="77.97" gradientUnits="userSpaceOnUse"><stop offset="0" stop-color="#e8d9d7"/><stop offset="0.04" stop-color="#ebdfdd"/><stop offset="0.21" stop-color="#f6f1f0"/><stop offset="0.38" stop-color="#fdfbfb"/><stop offset="0.57" stop-color="#fff"/><stop offset="0.69" stop-color="#fbf8f8"/><stop offset="0.87" stop-color="#f1e5e3"/><stop offset="1" stop-color="#e8d3d1"/></linearGradient><linearGradient id="linear-gradient-8" x1="65.25" y1="80.41" x2="81.18" y2="80.41" gradientUnits="userSpaceOnUse"><stop offset="0" stop-color="#f26e7f"/><stop offset="0.02" stop-color="#f26f80"/><stop offset="0.24" stop-color="#f37986"/><stop offset="0.53" stop-color="#f37c88"/><stop offset="0.77" stop-color="#f37885"/><stop offset="1" stop-color="#f26d7d"/></linearGradient><linearGradient id="linear-gradient-9" x1="64.63" y1="77.58" x2="81.5" y2="77.63" gradientUnits="userSpaceOnUse"><stop offset="0" stop-color="#e8d9d7"/><stop offset="0.05" stop-color="#eadddb"/><stop offset="0.31" stop-color="#f6efef"/><stop offset="0.48" stop-color="#faf6f6"/><stop offset="1" stop-color="#e8d3d1"/></linearGradient><linearGradient id="linear-gradient-10" x1="66.99" y1="76.8" x2="79.07" y2="76.8" xlink:href="#linear-gradient-8"/><linearGradient id="linear-gradient-11" x1="98.02" y1="39.54" x2="99.06" y2="71.8" gradientUnits="userSpaceOnUse"><stop offset="0" stop-color="#6c342a"/><stop offset="0.29" stop-color="#5b2c23"/><stop offset="0.71" stop-color="#49231b"/><stop offset="1" stop-color="#422018"/></linearGradient><linearGradient id="linear-gradient-12" x1="46.67" y1="61.47" x2="48.28" y2="43.28" xlink:href="#linear-gradient-11"/><linearGradient id="linear-gradient-13" x1="87.36" y1="105.89" x2="68.87" y2="108.61" gradientUnits="userSpaceOnUse"><stop offset="0" stop-color="#f1c99a"/><stop offset="0.53" stop-color="#f2cc9d"/><stop offset="0.87" stop-color="#f5d4a5"/><stop offset="1" stop-color="#f7d9ab"/></linearGradient><linearGradient id="linear-gradient-14" x1="52.26" y1="89.44" x2="84.47" y2="99.24" xlink:href="#linear-gradient-13"/><linearGradient id="linear-gradient-15" x1="34.13" y1="89.15" x2="77.9" y2="115.75" xlink:href="#linear-gradient-13"/><linearGradient id="linear-gradient-16" x1="115.24" y1="95.77" x2="71.8" y2="107.97" xlink:href="#linear-gradient-13"/><linearGradient id="linear-gradient-17" x1="56.86" y1="112.52" x2="113.82" y2="97" xlink:href="#linear-gradient-13"/><linearGradient id="linear-gradient-18" x1="112.47" y1="140.35" x2="109.09" y2="97.05" gradientUnits="userSpaceOnUse"><stop offset="0" stop-color="#8f1941"/><stop offset="0.59" stop-color="#95254a"/><stop offset="1" stop-color="#9a3052"/></linearGradient><linearGradient id="linear-gradient-19" x1="34.88" y1="137.56" x2="31.9" y2="99.51" xlink:href="#linear-gradient-18"/><linearGradient id="linear-gradient-20" x1="47.92" y1="110.58" x2="97.33" y2="110.58" gradientUnits="userSpaceOnUse"><stop offset="0" stop-color="#670e2e"/><stop offset="0.37" stop-color="#6f1032"/><stop offset="0.94" stop-color="#85163d"/><stop offset="1" stop-color="#88173e"/></linearGradient><linearGradient id="linear-gradient-21" x1="74.41" y1="145.04" x2="74.18" y2="142.03" gradientUnits="userSpaceOnUse"><stop offset="0" stop-color="#f1f0f4"/><stop offset="0.64" stop-color="#f9f8fa"/><stop offset="1" stop-color="#fff"/></linearGradient><linearGradient id="linear-gradient-22" x1="75.02" y1="155.97" x2="72.14" y2="119.12" xlink:href="#linear-gradient-18"/><linearGradient id="linear-gradient-23" x1="107.08" y1="95.2" x2="109.57" y2="139.02" xlink:href="#linear-gradient-20"/><linearGradient id="linear-gradient-24" x1="31.81" y1="99.47" x2="34.3" y2="143.29" xlink:href="#linear-gradient-20"/><linearGradient id="linear-gradient-25" x1="108.72" y1="133.79" x2="108.75" y2="133.24" gradientUnits="userSpaceOnUse"><stop offset="0" stop-color="#f1f0f4"/><stop offset="1" stop-color="#e2e2e5"/></linearGradient><linearGradient id="linear-gradient-26" x1="32.5" y1="132.01" x2="33.86" y2="132.36" xlink:href="#linear-gradient-25"/><linearGradient id="linear-gradient-27" x1="47.96" y1="62.7" x2="49.47" y2="45.67" xlink:href="#linear-gradient-11"/><linearGradient id="linear-gradient-28" x1="42.26" y1="122.42" x2="41.24" y2="73.53" xlink:href="#linear-gradient"/><linearGradient id="linear-gradient-29" x1="43.31" y1="126.28" x2="42.44" y2="84.64" xlink:href="#linear-gradient"/><linearGradient id="linear-gradient-30" x1="51.74" y1="125.12" x2="50.51" y2="66.48" xlink:href="#linear-gradient"/><linearGradient id="linear-gradient-31" x1="102.88" y1="153.51" x2="103.93" y2="40.62" xlink:href="#linear-gradient"/><linearGradient id="linear-gradient-32" x1="95.76" y1="175.91" x2="96.84" y2="59.28" xlink:href="#linear-gradient"/><linearGradient id="linear-gradient-33" x1="90.59" y1="161.67" x2="91.82" y2="29.99" xlink:href="#linear-gradient"/><linearGradient id="linear-gradient-34" x1="87.51" y1="120.17" x2="82.26" y2="79.16" gradientUnits="userSpaceOnUse"><stop offset="0" stop-color="#7d3c31"/><stop offset="0.31" stop-color="#6f352b"/><stop offset="0.89" stop-color="#4a241b"/><stop offset="1" stop-color="#422018"/></linearGradient><linearGradient id="linear-gradient-35" x1="70.87" y1="83.92" x2="73.58" y2="95.44" gradientUnits="userSpaceOnUse"><stop offset="0" stop-color="#dba879"/><stop offset="0.49" stop-color="#e4b687"/><stop offset="1" stop-color="#f1c99a"/></linearGradient><linearGradient id="linear-gradient-36" x1="99.17" y1="61.54" x2="96.34" y2="74.08" gradientUnits="userSpaceOnUse"><stop offset="0" stop-color="#dba879"/><stop offset="0.22" stop-color="#e2b384"/><stop offset="0.66" stop-color="#edc394"/><stop offset="1" stop-color="#f1c99a"/></linearGradient><linearGradient id="linear-gradient-37" x1="46.05" y1="60.87" x2="48.88" y2="75.59" xlink:href="#linear-gradient-36"/><linearGradient id="linear-gradient-38" x1="86.23" y1="67.73" x2="86.45" y2="53.08" xlink:href="#linear-gradient-4"/><radialGradient id="radial-gradient" cx="148.31" cy="76.93" r="21.26" gradientTransform="translate(28.26 38.72) scale(0.41 0.41)" gradientUnits="userSpaceOnUse"><stop offset="0" stop-color="#f9b58e"/><stop offset="0.56" stop-color="#f8c89d"/><stop offset="1" stop-color="#f7d9ab"/></radialGradient><linearGradient id="linear-gradient-39" x1="59.5" y1="68.37" x2="60.16" y2="53.28" xlink:href="#linear-gradient-4"/><radialGradient id="radial-gradient-2" cx="69.89" cy="78.97" r="19.87" xlink:href="#radial-gradient"/><linearGradient id="linear-gradient-40" x1="89.61" y1="66.14" x2="94.31" y2="66.14" gradientUnits="userSpaceOnUse"><stop offset="0" stop-color="#ffdeb3"/><stop offset="1" stop-color="#f7d9ab"/></linearGradient><linearGradient id="linear-gradient-41" x1="50.71" y1="66.33" x2="55.41" y2="66.33" xlink:href="#linear-gradient-40"/><linearGradient id="linear-gradient-42" x1="75.29" y1="7.05" x2="71.93" y2="71.07" gradientUnits="userSpaceOnUse"><stop offset="0" stop-color="#f7d9ab"/><stop offset="0.46" stop-color="#f3cfa1"/><stop offset="1" stop-color="#f1c99a"/></linearGradient><linearGradient id="linear-gradient-43" x1="67.23" y1="86.42" x2="75.75" y2="86.42" xlink:href="#linear-gradient-2"/><linearGradient id="linear-gradient-44" x1="81.81" y1="74.42" x2="97" y2="74.42" xlink:href="#linear-gradient-2"/><linearGradient id="linear-gradient-45" x1="78.98" y1="52.47" x2="93.21" y2="52.47" gradientUnits="userSpaceOnUse"><stop offset="0" stop-color="#683126"/><stop offset="0.34" stop-color="#53281e"/><stop offset="0.68" stop-color="#46221a"/><stop offset="1" stop-color="#422018"/></linearGradient><linearGradient id="linear-gradient-46" x1="72.73" y1="75.88" x2="72.7" y2="72.47" xlink:href="#linear-gradient-4"/><linearGradient id="linear-gradient-47" x1="73.74" y1="72.49" x2="70.84" y2="65.03" xlink:href="#linear-gradient-40"/><linearGradient id="linear-gradient-48" x1="77.19" y1="71.86" x2="74.33" y2="73.28" xlink:href="#linear-gradient-35"/><linearGradient id="linear-gradient-49" x1="68.34" y1="72.02" x2="71.4" y2="73.26" xlink:href="#linear-gradient-35"/><linearGradient id="linear-gradient-50" x1="51.75" y1="52.4" x2="66.09" y2="52.4" gradientUnits="userSpaceOnUse"><stop offset="0" stop-color="#422018"/><stop offset="0.32" stop-color="#46221a"/><stop offset="0.66" stop-color="#53281e"/><stop offset="1" stop-color="#683126"/></linearGradient><linearGradient id="linear-gradient-51" x1="91.3" y1="57.89" x2="77.96" y2="63.07" xlink:href="#linear-gradient-35"/><linearGradient id="linear-gradient-52" x1="78.22" y1="60.91" x2="82.25" y2="60.91" gradientUnits="userSpaceOnUse"><stop offset="0" stop-color="#fff"/><stop offset="0.46" stop-color="#fdfcfc"/><stop offset="0.76" stop-color="#f6f4f4"/><stop offset="1" stop-color="#ece7e6"/></linearGradient><linearGradient id="linear-gradient-53" x1="87.23" y1="60.79" x2="90.58" y2="60.79" xlink:href="#linear-gradient-52"/><linearGradient id="linear-gradient-54" x1="88.99" y1="62.85" x2="80.04" y2="60.24" gradientUnits="userSpaceOnUse"><stop offset="0" stop-color="#b89457"/><stop offset="1" stop-color="#675636"/></linearGradient><linearGradient id="linear-gradient-55" x1="93.59" y1="60.06" x2="85.2" y2="59.5" xlink:href="#linear-gradient-54"/><radialGradient id="radial-gradient-3" cx="136.16" cy="54.72" r="6.75" gradientTransform="translate(28.26 38.72) scale(0.41 0.41)" gradientUnits="userSpaceOnUse"><stop offset="0" stop-color="#2b3b3b"/><stop offset="1" stop-color="#1d2827"/></radialGradient><linearGradient id="linear-gradient-56" x1="78.23" y1="60.45" x2="93.28" y2="60.45" gradientUnits="userSpaceOnUse"><stop offset="0" stop-color="#5b2b20"/><stop offset="0.31" stop-color="#4a2319"/><stop offset="0.66" stop-color="#3d1d15"/><stop offset="1" stop-color="#391b13"/></linearGradient><linearGradient id="linear-gradient-57" x1="65.5" y1="57.97" x2="53.88" y2="62.48" gradientUnits="userSpaceOnUse"><stop offset="0" stop-color="#f1c99a"/><stop offset="0.51" stop-color="#e4b687"/><stop offset="1" stop-color="#dba879"/></linearGradient><linearGradient id="linear-gradient-58" x1="62.63" y1="60.91" x2="66.66" y2="60.91" xlink:href="#linear-gradient-52"/><linearGradient id="linear-gradient-59" x1="55.26" y1="60.79" x2="58.62" y2="60.79" xlink:href="#linear-gradient-52"/><linearGradient id="linear-gradient-60" x1="64.84" y1="59.93" x2="56.23" y2="63.1" xlink:href="#linear-gradient-54"/><linearGradient id="linear-gradient-61" x1="67.71" y1="58.96" x2="59.18" y2="59.55" gradientUnits="userSpaceOnUse"><stop offset="0" stop-color="#b89457"/><stop offset="0.34" stop-color="#917748"/><stop offset="1" stop-color="#675636"/></linearGradient><radialGradient id="radial-gradient-4" cx="77.65" cy="54.72" r="6.75" xlink:href="#radial-gradient-3"/><linearGradient id="linear-gradient-62" x1="51.61" y1="60.45" x2="66.66" y2="60.45" gradientUnits="userSpaceOnUse"><stop offset="0" stop-color="#391b13"/><stop offset="0.34" stop-color="#3d1d15"/><stop offset="0.69" stop-color="#4a2319"/><stop offset="1" stop-color="#5b2b20"/></linearGradient><linearGradient id="linear-gradient-63" x1="65.16" y1="78.65" x2="62.08" y2="76.1" xlink:href="#linear-gradient-4"/><linearGradient id="linear-gradient-64" x1="84.64" y1="76.6" x2="82.46" y2="75.5" xlink:href="#linear-gradient-4"/><linearGradient id="linear-gradient-65" x1="66.14" y1="78.95" x2="79.8" y2="78.95" xlink:href="#linear-gradient-6"/><linearGradient id="linear-gradient-66" x1="61.71" y1="77.37" x2="83.23" y2="77.37" xlink:href="#linear-gradient-7"/><linearGradient id="linear-gradient-67" x1="65.65" y1="79.79" x2="81.38" y2="79.79" xlink:href="#linear-gradient-8"/><linearGradient id="linear-gradient-68" x1="64.76" y1="76.99" x2="81.41" y2="77.04" xlink:href="#linear-gradient-9"/><linearGradient id="linear-gradient-69" x1="67.09" y1="76.32" x2="79.01" y2="76.32" xlink:href="#linear-gradient-8"/><linearGradient id="linear-gradient-70" x1="71.8" y1="127.99" x2="72.8" y2="21.13" xlink:href="#linear-gradient"/><linearGradient id="linear-gradient-71" x1="49.22" y1="21.3" x2="62.76" y2="147.13" gradientUnits="userSpaceOnUse"><stop offset="0" stop-color="#7d3c31"/><stop offset="0.33" stop-color="#6e352a"/><stop offset="0.95" stop-color="#452219"/><stop offset="1" stop-color="#422018"/></linearGradient><linearGradient id="linear-gradient-72" x1="70.18" y1="18.56" x2="68.94" y2="94.2" gradientUnits="userSpaceOnUse"><stop offset="0" stop-color="#884135"/><stop offset="0.27" stop-color="#7a3a2f"/><stop offset="0.78" stop-color="#552920"/><stop offset="1" stop-color="#422018"/></linearGradient><linearGradient id="linear-gradient-73" x1="55.26" y1="12.88" x2="50.3" y2="101.94" gradientUnits="userSpaceOnUse"><stop offset="0" stop-color="#7d3c31"/><stop offset="0.34" stop-color="#643026"/><stop offset="0.75" stop-color="#4b241c"/><stop offset="1" stop-color="#422018"/></linearGradient><linearGradient id="linear-gradient-74" x1="89.37" y1="14.78" x2="84.41" y2="103.81" xlink:href="#linear-gradient-73"/><linearGradient id="linear-gradient-75" x1="84.07" y1="27.21" x2="57.89" y2="71.89" xlink:href="#linear-gradient-34"/><linearGradient id="linear-gradient-76" x1="60.53" y1="30.66" x2="56.06" y2="94.15" xlink:href="#linear-gradient-71"/><linearGradient id="linear-gradient-77" x1="62.75" y1="36.96" x2="59.82" y2="54.18" xlink:href="#linear-gradient"/><linearGradient id="linear-gradient-78" x1="77.87" y1="26.23" x2="112.94" y2="89.02" xlink:href="#linear-gradient"/><linearGradient id="linear-gradient-79" x1="91.48" y1="33.08" x2="93.06" y2="77.72" gradientUnits="userSpaceOnUse"><stop offset="0" stop-color="#6c342a"/><stop offset="0.3" stop-color="#673228"/><stop offset="0.63" stop-color="#5a2c22"/><stop offset="0.97" stop-color="#442119"/><stop offset="1" stop-color="#422018"/></linearGradient><linearGradient id="linear-gradient-80" x1="93.74" y1="185.22" x2="30.59" y2="93.68" xlink:href="#linear-gradient-34"/><linearGradient id="linear-gradient-81" x1="52.62" y1="128.41" x2="36.03" y2="104.37" xlink:href="#linear-gradient-34"/><linearGradient id="linear-gradient-82" x1="47.05" y1="120.64" x2="29.32" y2="94.93" xlink:href="#linear-gradient-34"/><linearGradient id="linear-gradient-83" x1="102.95" y1="153.81" x2="103.65" y2="78.83" xlink:href="#linear-gradient"/><linearGradient id="linear-gradient-84" x1="103.25" y1="121.63" x2="103.38" y2="107.62" xlink:href="#linear-gradient-34"/><linearGradient id="linear-gradient-85" x1="62.6" y1="120.99" x2="56.91" y2="76.56" xlink:href="#linear-gradient-34"/><linearGradient id="linear-gradient-86" x1="46.61" y1="64.96" x2="47.65" y2="116.8" gradientUnits="userSpaceOnUse"><stop offset="0" stop-color="#7d3c31"/><stop offset="0.26" stop-color="#73372d"/><stop offset="0.7" stop-color="#582a21"/><stop offset="1" stop-color="#422018"/></linearGradient><linearGradient id="linear-gradient-87" x1="75.19" y1="143.31" x2="10.31" y2="49.26" xlink:href="#linear-gradient-34"/><linearGradient id="linear-gradient-88" x1="33.14" y1="103.16" x2="32.9" y2="102.82" xlink:href="#linear-gradient-34"/><linearGradient id="linear-gradient-89" x1="114.09" y1="117.35" x2="106.27" y2="56.28" xlink:href="#linear-gradient-34"/><linearGradient id="linear-gradient-90" x1="92.84" y1="161.8" x2="93.64" y2="76.58" xlink:href="#linear-gradient-34"/></defs><ellipse class="cls-1" cx="72" cy="71.81" rx="72" ry="71.81"/><path class="cls-2" d="M102.45,64.08c1.7-9.47,1.65-22.17-5.45-32.76C88.46,18.56,73.62,20.14,73.62,20.14s-17.34-3.72-27.31,9.15a44.1,44.1,0,0,0-8.56,32.15c1.44,12.37-6,15.92-9.23,22.17-2.75,5.3-3.87,8.75.05,14.53S40.6,109,40.6,109l65.52,0s3.79-2.17,7.7-8,1.9-12.92-.34-16.44C109.55,78.34,100.75,73.54,102.45,64.08Z" transform="translate(0 0)"/><path class="cls-3" d="M23.9,114.12c-.68,3.55-1.36,6.58-1.88,9.37a72.15,72.15,0,0,0,15.26,11.23c-.39-6.2-.7-11.15-.77-12.59C36.29,117.92,24.74,109.7,23.9,114.12Z" transform="translate(0 0)"/><path class="cls-4" d="M25.58,111.07a88.79,88.79,0,0,0-3.25,12.72,72.36,72.36,0,0,0,6.35,5.37C28.67,117,27.85,104.88,25.58,111.07Z" transform="translate(0 0)"/><path class="cls-3" d="M114.22,107.86c-4.76-.9-11.85,25.43-11.85,25.43s0,1.43-.06,3.66a71.82,71.82,0,0,0,19.18-13C119.12,113.49,114.22,107.86,114.22,107.86Z" transform="translate(0 0)"/><path class="cls-5" d="M114.38,129.85a71.63,71.63,0,0,0,7.29-6.06c-1.68-8.64-4.79-12.87-5.49-14.86C114.32,103.58,114.1,116.73,114.38,129.85Z" transform="translate(0 0)"/><path class="cls-6" d="M60.47,75.06c-.26.48.08,1,.7,1.2A11.42,11.42,0,0,1,64.32,78C63.32,76.52,60.71,74.63,60.47,75.06Z" transform="translate(0 0)"/><path class="cls-7" d="M81.5,78.18a11.58,11.58,0,0,1,3-1.89c.61-.24.93-.76.64-1.22S82.42,76.67,81.5,78.18Z" transform="translate(0 0)"/><path class="cls-8" d="M66.73,81.22c1.16,2.53,7.62,6.11,12.49.06C79.22,81.28,72.37,84.25,66.73,81.22Z" transform="translate(0 0)"/><path class="cls-9" d="M72.26,77a49.77,49.77,0,0,1-11.13-1.41h0a1.53,1.53,0,0,1,.11.16A12.3,12.3,0,0,1,64,77.12c.77.57,1.49,4.33,9.11,4.32a11.06,11.06,0,0,0,9.18-4.21,6.65,6.65,0,0,1,2.11-1.5c0-.07,0-.1.07-.17A36.66,36.66,0,0,1,72.26,77Z" transform="translate(0 0)"/><path class="cls-10" d="M79.12,77.7a39,39,0,0,1-12.2.34c-1.22-.56-1.12,1-1.12,1,2.66,2.76,4.81,2.27,7,2.34A11.53,11.53,0,0,0,80,79C80.16,78.47,79.72,77.57,79.12,77.7Z" transform="translate(0 0)"/><path class="cls-11" d="M68.69,77.05a19.09,19.09,0,0,1-3.9-.71,3.84,3.84,0,0,1,.51.85c.26.6,1.52,2.64,7.66,2.62,4.61,0,7.06-1.63,7.4-2.62.2-.59.63-.86.67-1.06a15.33,15.33,0,0,1-4.68,1A39.75,39.75,0,0,1,68.69,77.05Z" transform="translate(0 0)"/><path class="cls-12" d="M73.52,81.17c-9.36-.1-6.07-3.89-12.28-5.45a11.56,11.56,0,0,1,3,2.68c1.79,2.1,3.32,5.41,8.57,5.41,4.74,0,7.38-3.41,8.91-5.29a15.62,15.62,0,0,1,2.67-2.79C79.33,77.07,81,81,73.52,81.17Z" transform="translate(0 0)"/><path class="cls-13" d="M77.53,80.25a18,18,0,0,1-4.79.83A12.64,12.64,0,0,1,68,80.25a14.42,14.42,0,0,1-3-2.53c.33.46,2.31,5.43,7.59,5.37,6.1-.08,7.24-4.15,8.34-5.35A9.38,9.38,0,0,1,77.53,80.25Z" transform="translate(0 0)"/><path class="cls-14" d="M75.29,81.34c-.61.21-2.74.33-2.66.55a3.48,3.48,0,0,0,3,.22c1.24-.33,1.84-1,1.76-1.25S75.91,81.13,75.29,81.34Z" transform="translate(0 0)"/><path class="cls-9" d="M61.33,76.08a9.53,9.53,0,0,1,2.13.44,21.92,21.92,0,0,0-2.66-1.25C60.68,75.32,60.79,75.83,61.33,76.08Z" transform="translate(0 0)"/><path class="cls-9" d="M82.36,76.56a7.73,7.73,0,0,1,2.07-.46c.54-.25.64-.74.53-.81A13.1,13.1,0,0,0,82.36,76.56Z" transform="translate(0 0)"/><path class="cls-15" d="M65.31,77.22S68,78.67,73.4,78.7a17,17,0,0,0,6.93-1.44l.32-.72-15.73-.05Z" transform="translate(0 0)"/><path class="cls-12" d="M76.39,76.07a21.7,21.7,0,0,0-3.34.13A33.4,33.4,0,0,0,69.18,76a25,25,0,0,1-7.54-.35s1.1.69,6.58,1.8A21.72,21.72,0,0,0,73,78a28,28,0,0,0,5.24-.62A26.07,26.07,0,0,0,84,75.65,32.79,32.79,0,0,1,76.39,76.07Z" transform="translate(0 0)"/><path class="cls-16" d="M75.34,76.23a22.1,22.1,0,0,1-2.64.17c-.53,0-2-.28-2.47-.29a14.79,14.79,0,0,0-3.23.4c-.16.56,6.08,1,6.65,1s5.38-.57,5.42-.81S75.79,76.13,75.34,76.23Z" transform="translate(0 0)"/><path class="cls-17" d="M98.88,64l.61-4.47s-1.23-8.17-2-9.69C97.52,49.8,98.21,61,98.88,64Z" transform="translate(0 0)"/><path class="cls-18" d="M46.68,62.63c.87-3.46,1.76-13.42,1.76-13.42l-2.19,9.27Z" transform="translate(0 0)"/><path class="cls-3" d="M115.23,107.83c-1.76-2-28.41-7.36-31.21-9.45C81.82,96.73,81.82,78,81.82,78l-18.75,3.3s3.36,15.32-2.17,17.33c-3.94,1.44-29.38,5.15-33.28,9.11-4.45,4.51-4.43,12.82-4.06,17.17,1.19,1.07,2.42,2.11,3.67,3.1,13.47,1.16,64.28,5.2,86,2.63a71.82,71.82,0,0,0,9.44-7.86C121.4,115.21,119.05,112.17,115.23,107.83Z" transform="translate(0 0)"/><path class="cls-19" d="M70.22,109c1.19-.89,5.69-1.39,5.69-1.39C71.53,106.69,70.22,109,70.22,109Z" transform="translate(0 0)"/><path class="cls-20" d="M83.3,84.73s-21.74,1.2-22.08.81c0,1.53.2,10.33.05,11.49-.17,1.32-.27,1.49-15.19,4.68,0,0,5.38,1.74,15.29,1.84,1.72,0,3.11-2.8,3.31-5.35A25.28,25.28,0,0,0,79.6,94.45c.53,3.84,1.1,8.57,2.34,9.36s12.33-.4,12.33-.4l1.51-1.8c-3.36-.48-9.3-2.4-10.79-3.82S83.3,84.73,83.3,84.73Z" transform="translate(0 0)"/><path class="cls-21" d="M67,103.58c-1.54-.38-18.58-1-20.57-1.34,0,0,7.58,1.65,12,2.16s7.82-.26,11.25,2.41C69.63,106.81,68.53,104,67,103.58Z" transform="translate(0 0)"/><path class="cls-22" d="M77.81,103.74a6,6,0,0,0-3,2.82c3.68-2.27,21.8-3,21.8-3C94,103.28,79.7,103.1,77.81,103.74Z" transform="translate(0 0)"/><path class="cls-23" d="M72.06,117.83c-17.24,1-21.43-17.08-21.43-17.08l-3.85.73s3,21.33,23.81,20.31,25.57-20.1,25.57-20.1l-2.34-.45S89.49,116.82,72.06,117.83Z" transform="translate(0 0)"/><path class="cls-24" d="M72,143.61a71.77,71.77,0,0,0,35.88-9.54c.11-.77.19-1.17.19-1.17l2.93-.73a72.14,72.14,0,0,0,11.81-9.49c-1-4.3-2.52-9.89-4.66-13.67s-22.09-7.56-22.09-7.56-5.71,17.78-25.29,17.78-22.75-18-22.75-18-20.51,3.57-23,8.53a63.79,63.79,0,0,0-4,12.75A71.86,71.86,0,0,0,72,143.61Z" transform="translate(0 0)"/><path class="cls-25" d="M117.86,108.37c-4.56-3.36-20.15-6.59-20.15-6.59,6.26,2.14,16.49,6.22,18.47,10.59.55,1.23,2.58,8.15,3.94,12.85.92-.83,1.83-1.69,2.72-2.57C121.66,117.12,119.78,109.78,117.86,108.37Z" transform="translate(0 0)"/><path class="cls-26" d="M44.78,101.88s-14.51,2.72-18.91,6.77C24,110.4,22.17,117.2,21,122.5q1.6,1.6,3.32,3.11c1.15-4.52,2.89-11.09,3.5-12.28C30,109.05,38.51,104,44.78,101.88Z" transform="translate(0 0)"/><path class="cls-27" d="M73.53,118.71c-20.24,1.53-24.1-17.78-24.1-17.78l-1.51.33s3.41,20.11,26.2,18.92c19.85-1,23.21-18.51,23.21-18.51l-1.85-.32A24.13,24.13,0,0,1,73.53,118.71Z" transform="translate(0 0)"/><path class="cls-28" d="M63.58,143.12a48.37,48.37,0,0,0,21.32-.66A72.22,72.22,0,0,1,72,143.61,73.09,73.09,0,0,1,63.58,143.12Z" transform="translate(0 0)"/><path class="cls-29" d="M82,121.64C64.29,123.4,50,124.57,50,124.57c-22.74,10,1.78,15,5.7,16.39a50.27,50.27,0,0,0,7.84,2.16,73.09,73.09,0,0,0,8.42.49,72.22,72.22,0,0,0,12.9-1.15,38.93,38.93,0,0,0,17.56-9.69C111.29,124,99.61,119.88,82,121.64Z" transform="translate(0 0)"/><path class="cls-30" d="M107.32,127.89a20.75,20.75,0,0,1-.24,6.63,41,41,0,0,0,4.32-2.61c-.4-2.37-1.83-10.37-3-12C107.13,117.93,107,124.57,107.32,127.89Z" transform="translate(0 0)"/><path class="cls-31" d="M35.49,130.84c-.48-3.43-.74-12.63-2-12-1.09.56-2,9.67-2.26,12.12l1.42.95.47.11,0,.21c1,.64,2,1.25,3,1.84A26.13,26.13,0,0,1,35.49,130.84Z" transform="translate(0 0)"/><path class="cls-32" d="M108.77,133.26c0,.11,0,.22-.07.33l.06,0A2.91,2.91,0,0,1,108.77,133.26Z" transform="translate(0 0)"/><path class="cls-33" d="M32.58,131.9l.71.46-.11-.31Z" transform="translate(0 0)"/><path class="cls-34" d="M48,63.78c.82-3.23,1.64-12.55,1.64-12.55l-2,8.67Z" transform="translate(0 0)"/><path class="cls-35" d="M44.78,65.59s-1.89,7.22-2.06,10.21C42.42,81,30.82,81.7,31,90c.08,5.21,6.27,5.55,5.37,9.71-1,4.47-5.17,6.32-7.75,1.24a7.14,7.14,0,0,0-.09,5.27c2.11,2.88,6.86,4.58,9.64,1.5-1.45,2.4-3.92,2.58-6.33,2.24,7.26,4.76,15.16-1.52,15.39-7.08.31-7.78,1.83-8,1.4-11.62s6.65-11.54,6.65-11.54Z" transform="translate(0 0)"/><path class="cls-36" d="M47.14,82.34S41.85,86,40.31,91.42s.41,10.58,2.11,13.45-1.27,8.37-4.24,7.78S35,109.86,35,109.86a11.86,11.86,0,0,0-1.27,4.9c.16,4.71,4,6,6.06,6.62,2.78.88,9-1.15,10.47-5.77.92-2.87,3-13.7,1.44-15.73S47.14,82.34,47.14,82.34Z" transform="translate(0 0)"/><path class="cls-37" d="M57.91,98.33A46.87,46.87,0,0,1,62.41,86L50.54,74.93s-11.77,14.45-4.3,26c8.1,12.58-2.65,8.34-6.12,17.24-2,5.15,1.44,13.5,14,11.52-6.68-1.88-7.23-6.95-1.23-8.14,2.84-.57,9.09-.12,10.34-5.07C65.49,107.56,56.14,108,57.91,98.33Z" transform="translate(0 0)"/><path class="cls-38" d="M110.23,102.68c1.16-5,2.67-6.05,1.34-12.53-.95-4.61-5.49-5.88-9.42-9.33S97.31,66.1,97.31,66.1L92.52,76.52S91.52,89.78,97,90.9c7.63,1.57-.35,8.79,1.56,15.4s5.49,6.94,9.2,6.42a9,9,0,0,0,4.67-2.51c-2.36,1-5,1.44-6.79-.78a6,6,0,0,0,8-1,3.8,3.8,0,0,0,.39-4.43C113.48,107.5,109.45,106.06,110.23,102.68Z" transform="translate(0 0)"/><path class="cls-39" d="M98.74,90.65c-2.85-3-3-19.13-3-19.13l-13,15.38S82.66,92.2,93.35,97c2.43,1.09,5.51,6.3,2,9s-2.92,8.87,1.31,12c7.22,5.41,10.25-3.59,10.25-3.59-3.58,2.19-5,0-5.25-1.72-.69-4.68,10.06-2.15,8.46-13.47C109.51,94.9,101.59,93.6,98.74,90.65Z" transform="translate(0 0)"/><path class="cls-40" d="M100.9,100c-.34-4.32-6-3.61-8.56-9.93-1-2.45-1.68-14.23-1.68-14.23s-10,2.48-9.07,9.24c.08.53.18,1.06.3,1.58.49-.08,1.13,3,1.63,3a6.4,6.4,0,0,1,.25,2.49,33.55,33.55,0,0,0,3.75,6.4c4.23,5.11-4.49,8-5.68,12.79-2.32,9.37,9.19,7.37,10,12.86,1,6.55-7.16,2.41-7.16,2.41s5.28,7.74,12.35.71c6.36-6.33-3.35-12-3.65-16.47C93.18,107.79,101.63,109.43,100.9,100Z" transform="translate(0 0)"/><path class="cls-41" d="M83.76,92.44c.54,1.19,1.3,2.75,2.41,4.81a8,8,0,0,1-1.6,9.88c-.74.78-6.22,6.28-1.27,10.65a4.78,4.78,0,0,1,0-4.8c1.44-2.62,7.21-7.37,7.21-12,0-2-4.77-8.36-7-11.22C83.59,90.84,83.63,91.24,83.76,92.44Z" transform="translate(0 0)"/><path class="cls-42" d="M60.73,83.28c.71,2.54.6,11.27.6,11.27,13,4.11,22.19-4.8,22.19-4.8l-.19-4Z" transform="translate(0 0)"/><path class="cls-8" d="M98.39,60.17c-.74,0-1.59,1.89-1.59,1.89-1.12,6.47-1.57,11.42-1.57,11.42C99.42,72.17,102.64,60.14,98.39,60.17Z" transform="translate(0 0)"/><path class="cls-43" d="M97.78,66.45a4.83,4.83,0,0,1-.58,3.79,9,9,0,0,0,1.71-3.42c.46-3.07-.79-3.29-.23-4S99.75,64,99.75,64C100.39,59.89,96.63,60.77,97.78,66.45Z" transform="translate(0 0)"/><path class="cls-8" d="M47.1,59.9c-4.25-.19-1.47,11.95,2.67,13.41,0,0-.27-5-1.16-11.47C48.61,61.84,47.84,59.93,47.1,59.9Z" transform="translate(0 0)"/><path class="cls-44" d="M47.72,66.27c.87-6-3.22-6.41-2.27-2.31,0,0,.55-1.94,1.07-1.36s-.67,1.11,0,4.21a8.61,8.61,0,0,0,2,3.31A4.73,4.73,0,0,1,47.72,66.27Z" transform="translate(0 0)"/><path class="cls-3" d="M75.66,31.61c-14.44-2.39-24,8.64-26.72,24-1.52,8.6-.92,16.27,3.7,22.6,1.88,2.56,4.19,3.8,6.89,5.82,1.72,1.28,4.4,4,6.23,5.37a10.13,10.13,0,0,0,5.71,2.28c6.79.24,11.26-4.81,13.21-6.63,6.86-6.39,13.15-8.76,11.77-26.55C95.36,44.5,85.12,31.91,75.66,31.61Z" transform="translate(0 0)"/><path class="cls-45" d="M84.34,51.53C76.29,53,76.61,59,76,66.08c13,5.31,20.5-1,20.5-1s0-7.82-1.83-10.5C94,53.6,91.85,50.19,84.34,51.53Z" transform="translate(0 0)"/><path class="cls-46" d="M87.26,61.12c-3.79.77-7.53,5-6.7,9a12.06,12.06,0,0,0,7.07,8.92c4.7,1.85,8.12-4.16,8.93-11.6C97,63.38,91,60.35,87.26,61.12Z" transform="translate(0 0)"/><path class="cls-47" d="M59.75,51.88a11.52,11.52,0,0,0-7.71,2c-4,3-1.65,10.83-1.65,10.83s6.23,7.26,19.37,2.1C68.84,61.17,70.39,52.62,59.75,51.88Z" transform="translate(0 0)"/><path class="cls-48" d="M57.94,62.46c-3.47-.87-8.93,1.7-8.86,5.28.17,8.44,3.6,10.92,8.16,11.59,3.54.53,6.06-5.65,6.94-9.1S61.4,63.33,57.94,62.46Z" transform="translate(0 0)"/><path class="cls-49" d="M91.7,64.88c-1.29.32-2.19,1.15-2,1.85s1.36,1,2.64.68,2.19-1.15,2-1.85S93,64.55,91.7,64.88Z" transform="translate(0 0)"/><path class="cls-50" d="M53.13,65.06c-1.29-.24-2.45.13-2.58.83s.8,1.47,2.09,1.71,2.44-.12,2.58-.82S54.42,65.31,53.13,65.06Z" transform="translate(0 0)"/><path class="cls-51" d="M79,33.12S63.33,26.2,53.45,42c-5.05,8.07-6.87,22-4.13,29.8a19.53,19.53,0,0,1,2.57-10.71s-3.07-9.36,10.74-9.61c14.11.23,20.67-4.94,23.15-7,2.75,8.39,7.57,10,10.82,20.69a46.31,46.31,0,0,0-2.28-16.92C91.52,40.26,86.49,34.58,79,33.12Z" transform="translate(0 0)"/><path class="cls-52" d="M72.78,85.29c-1.8-.09-3.31.34-3.38,1s1.32,1.21,3.11,1.3,3.3-.34,3.38-1S74.56,85.38,72.78,85.29Z" transform="translate(0 0)"/><path class="cls-53" d="M93.5,61.17c5.2,7.39-.22,15.54-4.41,19.3-4.63,4.14-6.54,6.5-7.28,7.2.67-.58,6.84-6,8.6-7.19s7.92-7.33,6.34-15.08C96.75,65.4,95.75,62.19,93.5,61.17Z" transform="translate(0 0)"/><path class="cls-8" d="M56.69,81.35C47.52,74.76,50.26,63,50.26,63c-4.78,12,3.46,17.35,5.12,18.45,3.44,2.27,9.15,7,9.15,7A48.67,48.67,0,0,0,56.69,81.35Z" transform="translate(0 0)"/><path class="cls-54" d="M65.44,89.13s5.62,7.38,14.91-.34C80.35,88.79,72.89,94.6,65.44,89.13Z" transform="translate(0 0)"/><path class="cls-3" d="M92.88,53c-4.24-2.66-7.62-1.71-7.62-1.71,9.78.75,7.88,9.93,7.88,9.93S95.34,54.58,92.88,53Z" transform="translate(0 0)"/><path class="cls-55" d="M81.1,51.88c-1.72.8-2.95,3.06-1.46,2.57s7-2.57,8.21-2.6a13.35,13.35,0,0,1,5.36,1.39s-3.34-2.59-5.4-2.8S82,51.45,81.1,51.88Z" transform="translate(0 0)"/><path class="cls-56" d="M72.83,74.87c.81-.11,4.17-2.3,4.17-2.3H68.41S72,75,72.83,74.87Z" transform="translate(0 0)"/><path class="cls-57" d="M72.72,69c-2.28.06-2.93.64-2.76,1.25.41,1.47,1.37,1.75,2.8,1.74s2.67-.33,2.9-1.92C75.72,69.59,75,68.93,72.72,69Z" transform="translate(0 0)"/><path class="cls-58" d="M74.25,73s4.18.07,2.83-1.31C76.63,71.18,74.25,73,74.25,73Z" transform="translate(0 0)"/><path class="cls-59" d="M68.43,71.83C67,73,71.44,73,71.44,73S68.92,71.41,68.43,71.83Z" transform="translate(0 0)"/><path class="cls-8" d="M72.75,72.4c-4.24-.06-4.72-2.13-5.3-.8-.24.54.22.71,1,1,0,0-.24-.61.71-.55.69,0,1.24,1.51,3.69,1.44,2.61-.08,3-1.39,3.64-1.43a.48.48,0,0,1,.55.54s1.24-.64.77-1.21C76.92,70.32,76.66,72.46,72.75,72.4Z" transform="translate(0 0)"/><path class="cls-60" d="M64.07,51.87c-.94-.39-5-1.61-7.06-1.31s-5.26,3.09-5.26,3.09A12.77,12.77,0,0,1,57,52c1.2,0,6.81,1.84,8.32,2.26S65.83,52.6,64.07,51.87Z" transform="translate(0 0)"/><path class="cls-61" d="M86.57,55.57c-7.13,0-8.43,4.26-8.58,7.4a20.62,20.62,0,0,1,2.16.55,16.29,16.29,0,0,0,5.53,1.12c1.9,0,6.16-1,6.22-5.07C92,56.34,88.29,55.72,86.57,55.57Z" transform="translate(0 0)"/><path class="cls-62" d="M78.31,62.72A24.38,24.38,0,0,1,82,63.77,3.18,3.18,0,0,1,80.72,61a5,5,0,0,1,1.62-3A12.25,12.25,0,0,0,78.31,62.72Z" transform="translate(0 0)"/><path class="cls-63" d="M78.31,62.72a12.3,12.3,0,0,1,2.48-2,3.45,3.45,0,0,1,1.34-2.16C79.83,59.63,78.31,62.72,78.31,62.72Z" transform="translate(0 0)"/><path class="cls-64" d="M87.86,61.38a3.41,3.41,0,0,1-1.75,2.8,7.27,7.27,0,0,0,5.63-3.6c-2.57-2.13-4.7-3-6.46-3.18A4,4,0,0,1,87.86,61.38Z" transform="translate(0 0)"/><path class="cls-65" d="M80.78,60.58c0,.15,0,.27-.06.44A3,3,0,0,0,82,63.77a12.51,12.51,0,0,0,4.5.4,3.28,3.28,0,0,0,1.83-2.71A3.78,3.78,0,0,0,88,59.59,8,8,0,0,0,80.78,60.58Z" transform="translate(0 0)"/><path class="cls-63" d="M86.48,58.18a3.61,3.61,0,0,1,1.68,2,10.82,10.82,0,0,1,2.42,1.39l.49-.9A7.69,7.69,0,0,0,86.48,58.18Z" transform="translate(0 0)"/><path class="cls-66" d="M86.48,58.18a9.2,9.2,0,0,0-3.35,0,3.58,3.58,0,0,0-1,.34,3.43,3.43,0,0,0-1.37,2.16,8.31,8.31,0,0,1,3.54-1.14,8.12,8.12,0,0,1,3.88.67A3.49,3.49,0,0,0,86.48,58.18Z" transform="translate(0 0)"/><path class="cls-67" d="M84.63,58.41a2.31,2.31,0,1,0,2.22,2.48A2.34,2.34,0,0,0,84.63,58.41Z" transform="translate(0 0)"/><path class="cls-68" d="M84.89,59.82a.66.66,0,0,0-.88.31.68.68,0,0,0,.29.91.66.66,0,0,0,.88-.31A.69.69,0,0,0,84.89,59.82Z" transform="translate(0 0)"/><path class="cls-68" d="M87.08,60.73a.91.91,0,0,0-1.21.39.88.88,0,0,0,.41,1.19.89.89,0,1,0,.8-1.58Z" transform="translate(0 0)"/><path class="cls-69" d="M93.35,57.66a5,5,0,0,1-4.23-.12c-6.34-2.55-9.72.92-10.81,5.18,0,0,2.56-3.92,5.91-4.1a9.34,9.34,0,0,1,6.65,2.17c-1.26,2-2.44,2.51-4.85,3.44a8.69,8.69,0,0,0,4.55-1.69c1.64-1.18,2.39-.77,2.39-.79a1.24,1.24,0,0,0-1.21-.59,1.35,1.35,0,0,0,.06-.27C93.65,60.26,93.33,57.76,93.35,57.66Z" transform="translate(0 0)"/><path class="cls-54" d="M82.82,55.94a6.92,6.92,0,0,0-3.4,2.46,10.26,10.26,0,0,1,3.54-2c2.53-1,6.28-.26,6.28-.26A10,10,0,0,0,82.82,55.94Z" transform="translate(0 0)"/><path class="cls-70" d="M83.77,58.26c-4.08.42-5.46,4.46-5.46,4.46s2.53-3.79,5.63-4.08a9.89,9.89,0,0,1,6.93,2.15S89.24,57.71,83.77,58.26Z" transform="translate(0 0)"/><path class="cls-71" d="M58.49,55.57c-1.72.15-5.38.77-5.33,4,.05,4.08,4.32,5.05,6.22,5.07a16.23,16.23,0,0,0,5.52-1.12A21.29,21.29,0,0,1,67.07,63C66.92,59.83,65.62,55.57,58.49,55.57Z" transform="translate(0 0)"/><path class="cls-72" d="M62.72,58a5,5,0,0,1,1.61,3,3.15,3.15,0,0,1-1.26,2.75,24.38,24.38,0,0,1,3.68-1.05A12.25,12.25,0,0,0,62.72,58Z" transform="translate(0 0)"/><path class="cls-63" d="M62.92,58.51a3.51,3.51,0,0,1,1.35,2.16,12.3,12.3,0,0,1,2.48,2S65.23,59.63,62.92,58.51Z" transform="translate(0 0)"/><path class="cls-73" d="M59.78,57.4c-1.76.15-3.89,1.05-6.46,3.18a7.27,7.27,0,0,0,5.62,3.6,3.42,3.42,0,0,1-1.74-2.8A4,4,0,0,1,59.78,57.4Z" transform="translate(0 0)"/><path class="cls-74" d="M64.28,60.58a8,8,0,0,0-7.17-1,3.67,3.67,0,0,0-.37,1.87,3.28,3.28,0,0,0,1.83,2.71,12.51,12.51,0,0,0,4.5-.4A3,3,0,0,0,64.33,61,3,3,0,0,0,64.28,60.58Z" transform="translate(0 0)"/><path class="cls-63" d="M54,60.68l.49.9a10.82,10.82,0,0,1,2.42-1.39,3.57,3.57,0,0,1,1.68-2A7.69,7.69,0,0,0,54,60.68Z" transform="translate(0 0)"/><path class="cls-75" d="M62.92,58.51a3.42,3.42,0,0,0-1-.34,9.2,9.2,0,0,0-3.35,0,3.49,3.49,0,0,0-1.7,2,8.1,8.1,0,0,1,3.88-.67,8.21,8.21,0,0,1,3.53,1.14A3.39,3.39,0,0,0,62.92,58.51Z" transform="translate(0 0)"/><path class="cls-76" d="M60.42,58.41A2.31,2.31,0,1,0,63,60.53,2.35,2.35,0,0,0,60.42,58.41Z" transform="translate(0 0)"/><path class="cls-68" d="M61.09,59.82a.66.66,0,0,0-.88.31.69.69,0,0,0,.29.91.66.66,0,0,0,.88-.31A.69.69,0,0,0,61.09,59.82Z" transform="translate(0 0)"/><path class="cls-68" d="M63.28,60.73a.91.91,0,0,0-1.21.39.88.88,0,0,0,.41,1.19.91.91,0,0,0,1.21-.39A.88.88,0,0,0,63.28,60.73Z" transform="translate(0 0)"/><path class="cls-77" d="M55.94,57.54a5,5,0,0,1-4.23.12c0,.1-.3,2.6,1.54,3.23a1.35,1.35,0,0,0,.06.27,1.27,1.27,0,0,0-1.22.59s.76-.39,2.4.79A8.69,8.69,0,0,0,59,64.23c-2.42-.93-3.59-1.49-4.85-3.44a9.31,9.31,0,0,1,6.64-2.17c3.36.18,5.92,4.1,5.92,4.1C65.66,58.46,62.27,55,55.94,57.54Z" transform="translate(0 0)"/><path class="cls-54" d="M62.23,55.94a9.92,9.92,0,0,0-6.41.18s3.75-.7,6.28.26a10.26,10.26,0,0,1,3.54,2A6.91,6.91,0,0,0,62.23,55.94Z" transform="translate(0 0)"/><path class="cls-70" d="M61.29,58.26c-5.47-.55-7.1,2.53-7.1,2.53a9.89,9.89,0,0,1,6.93-2.15c3.1.29,5.63,4.08,5.63,4.08S65.37,58.68,61.29,58.26Z" transform="translate(0 0)"/><path class="cls-78" d="M60.61,74.88c-.25.47.1,1,.72,1.16a11.24,11.24,0,0,1,3.15,1.64C63.46,76.25,60.83,74.45,60.61,74.88Z" transform="translate(0 0)"/><path class="cls-79" d="M81.45,77.48a11.2,11.2,0,0,1,3-1.94c.6-.26.9-.78.6-1.23S82.32,76,81.45,77.48Z" transform="translate(0 0)"/><path class="cls-8" d="M66.93,80.81c1.21,2.48,7.68,5.86,12.34-.22C79.27,80.59,72.57,83.68,66.93,80.81Z" transform="translate(0 0)"/><path class="cls-9" d="M61.28,75.34v0a1.3,1.3,0,0,1,.1.15,12.54,12.54,0,0,1,2.77,1.32c.77.54,1.57,4.24,9.09,4a10.9,10.9,0,0,0,9-4.37A6.43,6.43,0,0,1,84.26,75a1.15,1.15,0,0,1,.06-.17,36.4,36.4,0,0,1-12,1.66A48.62,48.62,0,0,1,61.28,75.34Z" transform="translate(0 0)"/><path class="cls-80" d="M79.09,77.05a38.26,38.26,0,0,1-12,.61c-1.22-.51-1.08,1-1.08,1,2.68,2.67,4.8,2.13,6.93,2.15A11.36,11.36,0,0,0,80,78.29C80.13,77.79,79.67,76.91,79.09,77.05Z" transform="translate(0 0)"/><path class="cls-81" d="M68.77,76.65A18.6,18.6,0,0,1,64.91,76a4,4,0,0,1,.52.83c.27.59,1.57,2.57,7.62,2.41,4.56-.12,6.94-1.77,7.25-2.76.18-.59.6-.86.64-1.06a15.26,15.26,0,0,1-4.6,1.07A39.47,39.47,0,0,1,68.77,76.65Z" transform="translate(0 0)"/><path class="cls-12" d="M73.64,80.6c-9.25.12-6.09-3.69-12.26-5.09a11.37,11.37,0,0,1,3.07,2.58c1.82,2,3.41,5.26,8.59,5.14,4.68-.11,7.21-3.54,8.67-5.43A15.4,15.4,0,0,1,84.28,75C79.27,76.43,81,80.27,73.64,80.6Z" transform="translate(0 0)"/><path class="cls-82" d="M77.57,79.61a17.5,17.5,0,0,1-4.71.93,12.61,12.61,0,0,1-4.7-.71,14.16,14.16,0,0,1-3-2.43c.34.45,2.42,5.31,7.62,5.12,6-.21,7.06-4.26,8.12-5.47A9.24,9.24,0,0,1,77.57,79.61Z" transform="translate(0 0)"/><path class="cls-14" d="M75.39,80.73c-.6.22-2.7.4-2.61.61a3.41,3.41,0,0,0,2.91.15c1.22-.36,1.79-1.07,1.71-1.28S76,80.52,75.39,80.73Z" transform="translate(0 0)"/><path class="cls-9" d="M61.49,75.86a10.24,10.24,0,0,1,2.1.39,20.31,20.31,0,0,0-2.65-1.17C60.83,75.13,60.94,75.63,61.49,75.86Z" transform="translate(0 0)"/><path class="cls-9" d="M82.26,75.86a7.24,7.24,0,0,1,2-.51c.53-.26.61-.74.51-.81A13.18,13.18,0,0,0,82.26,75.86Z" transform="translate(0 0)"/><path class="cls-83" d="M65.44,76.9s2.65,1.37,8,1.28a16.86,16.86,0,0,0,6.81-1.59l.3-.72L65,76.18Z" transform="translate(0 0)"/><path class="cls-12" d="M76.35,75.51a19.66,19.66,0,0,0-3.29.21,32,32,0,0,0-3.83-.17,24.32,24.32,0,0,1-7.45-.17s1.1.65,6.54,1.63a21.85,21.85,0,0,0,4.71.51,28.21,28.21,0,0,0,5.16-.73,26.87,26.87,0,0,0,5.68-1.87A33,33,0,0,1,76.35,75.51Z" transform="translate(0 0)"/><path class="cls-84" d="M75.32,75.69a23.28,23.28,0,0,1-2.6.23c-.53,0-2-.23-2.45-.23a14.59,14.59,0,0,0-3.18.47c-.14.56,6,.87,6.59.81s5.3-.69,5.33-.92S75.76,75.58,75.32,75.69Z" transform="translate(0 0)"/><path class="cls-85" d="M92,29c-7-5.53-17.39-8.32-25-6.63-8.12,1.79-16.6,11-18.78,16.29s.09,27.21.09,27.21.79-8.6,4.15-12.75c2.92-3.61,8.57-3.4,12-4.8A19.25,19.25,0,0,0,71,43.92c-1.1,2.47-5.35,5.68-6.65,6.09,9.79-.11,14.38-1.85,16.69-6.83A7.6,7.6,0,0,1,77.7,48.3s8.56-1.81,6.21-9.38C91.31,49.4,93.52,50.32,95,54.36s1.81,11.37,1.81,11.37S101.11,36.2,92,29Z" transform="translate(0 0)"/><path class="cls-86" d="M39.58,65.59c.81,14.11,10.24,17.68,11,20.83s1.21,8.2-5.24,12.31c0,0,9.74-.22,11-8.35,1-6.78-6.55-9.66-7.52-21.09C47.89,59.1,53.53,44.78,65,33.22,65,33.22,38.61,48.69,39.58,65.59Z" transform="translate(0 0)"/><path class="cls-87" d="M83.34,21.28c-7.28-2.12-9.72-1.14-9.72-1.14C65,18.34,56,18.45,47.57,27.79a38.56,38.56,0,0,0-9.46,20.29C48,13.8,74.46,22,74.46,22c18.17-1.33,26.94,18.55,26.94,18.55C97.26,27.55,90.61,23.41,83.34,21.28Z" transform="translate(0 0)"/><path class="cls-88" d="M42,47.2s5.5-17.45,24-22.75c0,0-9.85.1-15.32,5.24S42.27,44.24,42,47.2Z" transform="translate(0 0)"/><path class="cls-89" d="M76,24.45c8.56,3.41,24.6,19.73,24.6,19.73C92.5,25.61,76,24.45,76,24.45Z" transform="translate(0 0)"/><path class="cls-90" d="M75.89,46.07C72.86,48.6,64.35,50,64.35,50s2.82.41,9.6-.82c1-.18,4.54-.95,7.09-6,2.11-4.17-1.87-9.51-1.87-9.51C80.84,39.93,78.14,44.18,75.89,46.07Z" transform="translate(0 0)"/><path class="cls-91" d="M68.17,42.91C64,45.3,56.34,45.25,54,46.81,36.35,58.45,50.32,76,50.32,76S44.84,59.15,55,50.63c2.13-1.78,10.68-2.56,14.52-5.33s3.89-8.7,3.94-9.83C73.49,35.47,72.35,40.52,68.17,42.91Z" transform="translate(0 0)"/><path class="cls-92" d="M50.54,54.52a57.33,57.33,0,0,0-1.38,7.15C50.42,55.62,53.26,52,55.23,51s4.15-1,8.44-2.41c6-1.94,7.33-4.65,7.33-4.65-4.26,3.9-9.69,3.87-12.47,4.33C54.52,48.94,51.7,51,50.54,54.52Z" transform="translate(0 0)"/><path class="cls-93" d="M82.91,36.2l1,2.72s6.15,8.58,9.41,13.34c2.87,4.19,3.08,12,3.49,13.47L97,61.47a20.09,20.09,0,0,0-3-11.82C90.38,43.63,82.91,36.2,82.91,36.2Z" transform="translate(0 0)"/><path class="cls-94" d="M82.91,36.2S98.11,54.41,101,57.34C101,57.34,97.47,45.73,82.91,36.2Z" transform="translate(0 0)"/><path class="cls-95" d="M46.24,101s3.62,6,2.84,7.89-7.64,4.67-9.12,8.39-1.15,10.55,4.15,12.61a13.75,13.75,0,0,0,10-.13s-12.52-1.21-12.21-7.13,6.78-5.75,10.17-8.79c-1.35,3.38-6,3.32-7.26,6a4.82,4.82,0,0,0-.61,2.51c1.82-5.24,10-4.54,11-8.92C56.37,108.51,46.24,101,46.24,101Z" transform="translate(0 0)"/><path class="cls-96" d="M39.15,112.33c-2.58,1-4.19-2.47-4.19-2.47s.61,5.87,6.11,4.4,1.72-8.45,1.72-8.45C42.79,110.57,41.14,111.52,39.15,112.33Z" transform="translate(0 0)"/><path class="cls-97" d="M35,96.13c2.81,2.71.34,6.24-.8,7.14-2.46,2-5.59-2.3-5.59-2.3s1.29,6.53,7.75,3.67C42.34,102,35,96.13,35,96.13Z" transform="translate(0 0)"/><path class="cls-98" d="M98.87,89.52C96.39,86.56,96,76.86,96,76.86s-.9,8.71.56,12.66,10.66,9.07,12.53,11.71-2,6.75-2,6.75c7.75-3.34,2.92-9.36,1.79-11.13S101.34,92.47,98.87,89.52Z" transform="translate(0 0)"/><path class="cls-99" d="M102.43,114.46a2.83,2.83,0,0,1-.11-3.68c-2.69,1.8-3.93,5-.59,5.68a5.15,5.15,0,0,0,5.19-2C104.42,115.92,102.94,115.14,102.43,114.46Z" transform="translate(0 0)"/><path class="cls-100" d="M61.13,87.67s-4.89,6.87-3.91,13.54c.67,4.65,1.59,4.69,4.07,8a8.75,8.75,0,0,1,1.44,8.61c4.41-7.33-2.1-15.4-3.38-18.87S61.13,87.67,61.13,87.67Z" transform="translate(0 0)"/><path class="cls-101" d="M51.58,84.2c-3.8-3.29-10.25-7.14-11.86-17,0,0,1,8.92,4.39,13.2s6,5.83,6.51,8.07,0,7-5.32,10.24c0,0,4.89-1.6,6.71-4.83S55.58,87.67,51.58,84.2Z" transform="translate(0 0)"/><path class="cls-102" d="M37.93,64.74c-.34,13.6-13.54,17.51-13.53,26.05,0,7.81,8.42,12.12,8.68,12.42,0,0-7.39-6.49-6.06-13.69a9.89,9.89,0,0,1,.52-1.83,5.53,5.53,0,0,0,2,5.36c-3-5.34,1.76-10.71,1.76-10.71l-.25.18C34.66,78.35,39.21,74,37.93,64.74Z" transform="translate(0 0)"/><path class="cls-103" d="M33,102.91Z" transform="translate(0 0)"/><path class="cls-104" d="M102.92,68.83c-.93-2-.24-6.16-.24-6.16A19.06,19.06,0,0,0,101.27,71c.16,1.79,1.56,3.24,3.53,5,1.67,2.09,4.47,5.59,5.4,6.61,3.22,3.56,3.52,10.14,3.52,10.14a11.25,11.25,0,0,0,.41-5.73c4.36,6.74-1.89,16.09-1.89,16.09,7.3-7,7.08-13.22,1-19.92C108.55,78.14,105,73.33,102.92,68.83Z" transform="translate(0 0)"/><path class="cls-105" d="M94.75,111.6c.06-2,3-2.65,5.45-6.12,4.43-6.28-2.63-9.58-2.63-9.58,1.63,9.26-7.6,10.73-8.84,15.93-1.47,6.15,5,5.86,6.5,9.75,1.77,4.54-.53,6.79-3.37,7.53s-7.16-2.41-7.16-2.41,3.1,4.45,8.29,4a6.33,6.33,0,0,0,5.76-4,7.3,7.3,0,0,1-3.07,4.35s5.82-1.92,6-6.92c.1-3.06-1.41-4.09-3.43-6.54C96.79,115.43,94.67,114.52,94.75,111.6Z" transform="translate(0 0)"/></svg>