<svg id="Layer_1" data-name="Layer 1" xmlns="http://www.w3.org/2000/svg" xmlns:xlink="http://www.w3.org/1999/xlink" viewBox="0 0 144 144"><defs><style>.cls-1{fill:#f6ece6;}.cls-2{fill:url(#_ÂÁ_Ï_ÌÌ_È_ËÂÌÚ_132);}.cls-3{fill:#c57d4f;}.cls-4{fill:#fdb621;}.cls-5{fill:url(#linear-gradient);}.cls-6{fill:url(#linear-gradient-2);}.cls-7{fill:#3e1c16;}.cls-8{fill:url(#linear-gradient-3);}.cls-9{fill:url(#linear-gradient-4);}.cls-10{fill:url(#linear-gradient-5);}.cls-11{fill:url(#linear-gradient-6);}.cls-12{fill:url(#linear-gradient-7);}.cls-13{fill:url(#linear-gradient-8);}.cls-14{fill:url(#linear-gradient-9);}.cls-15{fill:url(#linear-gradient-10);}.cls-16{fill:url(#linear-gradient-11);}.cls-17{fill:url(#linear-gradient-12);}.cls-18{fill:url(#linear-gradient-13);}.cls-19{fill:url(#linear-gradient-14);}.cls-20{fill:url(#linear-gradient-15);}.cls-21{fill:url(#linear-gradient-16);}.cls-22{fill:url(#linear-gradient-17);}.cls-23{fill:url(#linear-gradient-18);}.cls-24{fill:url(#linear-gradient-19);}.cls-25{fill:url(#linear-gradient-20);}.cls-26{fill:url(#linear-gradient-21);}.cls-27{fill:url(#linear-gradient-22);}.cls-28{fill:url(#linear-gradient-23);}.cls-29{fill:url(#linear-gradient-24);}.cls-30{fill:url(#linear-gradient-25);}.cls-31{fill:url(#linear-gradient-26);}.cls-32{fill:url(#linear-gradient-27);}.cls-33{fill:url(#linear-gradient-28);}.cls-34{fill:url(#linear-gradient-29);}.cls-35{fill:url(#_ÂÁ_Ï_ÌÌ_È_ËÂÌÚ_1026);}.cls-36{fill:url(#linear-gradient-30);}.cls-37{fill:url(#linear-gradient-31);}.cls-38{fill:url(#linear-gradient-32);}.cls-39{fill:url(#linear-gradient-33);}.cls-40{fill:url(#linear-gradient-34);}.cls-41{fill:url(#linear-gradient-35);}.cls-42{fill:url(#linear-gradient-36);}.cls-43{fill:url(#linear-gradient-37);}.cls-44{fill:url(#linear-gradient-38);}.cls-45{fill:url(#linear-gradient-39);}.cls-46{fill:url(#linear-gradient-40);}.cls-47{fill:url(#linear-gradient-41);}.cls-48{fill:url(#linear-gradient-42);}.cls-49{fill:url(#linear-gradient-43);}.cls-50{fill:url(#linear-gradient-44);}.cls-51{fill:url(#linear-gradient-45);}.cls-52{fill:url(#linear-gradient-46);}.cls-53{fill:url(#linear-gradient-47);}.cls-54{fill:url(#linear-gradient-48);}.cls-55{fill:url(#linear-gradient-49);}.cls-56{fill:url(#linear-gradient-50);}.cls-57{fill:url(#linear-gradient-51);}.cls-58{fill:url(#linear-gradient-52);}.cls-59{fill:url(#linear-gradient-53);}.cls-60{fill:url(#linear-gradient-54);}.cls-61{fill:url(#linear-gradient-55);}.cls-62{fill:url(#linear-gradient-56);}.cls-63{fill:url(#linear-gradient-57);}.cls-64{fill:url(#linear-gradient-58);}.cls-65{fill:url(#linear-gradient-59);}.cls-66{fill:url(#linear-gradient-60);}.cls-67{fill:url(#linear-gradient-61);}.cls-68{fill:url(#linear-gradient-62);}.cls-69{fill:url(#linear-gradient-63);}.cls-70{fill:url(#linear-gradient-64);}.cls-71{fill:url(#linear-gradient-65);}.cls-72{fill:url(#linear-gradient-66);}.cls-73{fill:url(#linear-gradient-67);}.cls-74{fill:url(#linear-gradient-68);}.cls-75{fill:url(#linear-gradient-69);}.cls-76{fill:url(#linear-gradient-70);}.cls-77{fill:url(#linear-gradient-71);}.cls-78{fill:url(#linear-gradient-72);}.cls-79{fill:url(#linear-gradient-73);}.cls-80{fill:url(#linear-gradient-74);}.cls-81{fill:url(#linear-gradient-75);}.cls-82{fill:url(#linear-gradient-76);}.cls-83{fill:url(#linear-gradient-77);}.cls-84{fill:url(#linear-gradient-78);}.cls-85{fill:url(#linear-gradient-79);}.cls-86{fill:url(#linear-gradient-80);}.cls-87{fill:url(#linear-gradient-81);}.cls-88{fill:url(#linear-gradient-82);}.cls-89{fill:url(#linear-gradient-83);}.cls-90{fill:url(#linear-gradient-84);}.cls-91{fill:url(#linear-gradient-85);}.cls-92{fill:url(#linear-gradient-86);}.cls-93{fill:url(#linear-gradient-87);}.cls-94{fill:url(#linear-gradient-88);}.cls-95{fill:url(#linear-gradient-89);}.cls-96{fill:url(#linear-gradient-90);}.cls-97{fill:url(#linear-gradient-91);}.cls-98{fill:url(#linear-gradient-92);}.cls-99{fill:url(#linear-gradient-93);}.cls-100{fill:url(#linear-gradient-94);}.cls-101{fill:url(#linear-gradient-95);}.cls-102{fill:url(#linear-gradient-96);}.cls-103{fill:url(#linear-gradient-97);}.cls-104{fill:url(#linear-gradient-98);}.cls-105{fill:url(#linear-gradient-99);}.cls-106{fill:url(#linear-gradient-100);}.cls-107{fill:url(#linear-gradient-101);}.cls-108{fill:url(#linear-gradient-102);}.cls-109{fill:url(#linear-gradient-103);}.cls-110{fill:url(#linear-gradient-104);}.cls-111{fill:url(#linear-gradient-105);}.cls-112{fill:url(#linear-gradient-106);}.cls-113{fill:url(#linear-gradient-107);}.cls-114{fill:url(#_ÂÁ_Ï_ÌÌ_È_ËÂÌÚ_127);}.cls-115{fill:url(#_ÂÁ_Ï_ÌÌ_È_ËÂÌÚ_127-2);}.cls-116{fill:url(#_ÂÁ_Ï_ÌÌ_È_ËÂÌÚ_127-3);}.cls-117{fill:url(#_ÂÁ_Ï_ÌÌ_È_ËÂÌÚ_127-4);}.cls-118{fill:url(#_ÂÁ_Ï_ÌÌ_È_ËÂÌÚ_127-5);}.cls-119{fill:url(#_ÂÁ_Ï_ÌÌ_È_ËÂÌÚ_127-6);}.cls-120{fill:url(#_ÂÁ_Ï_ÌÌ_È_ËÂÌÚ_127-7);}.cls-121{fill:url(#_ÂÁ_Ï_ÌÌ_È_ËÂÌÚ_127-8);}.cls-122{fill:url(#_ÂÁ_Ï_ÌÌ_È_ËÂÌÚ_127-9);}.cls-123{fill:url(#_ÂÁ_Ï_ÌÌ_È_ËÂÌÚ_127-10);}.cls-124{fill:url(#_ÂÁ_Ï_ÌÌ_È_ËÂÌÚ_127-11);}.cls-125{fill:url(#_ÂÁ_Ï_ÌÌ_È_ËÂÌÚ_127-12);}.cls-126{fill:url(#_ÂÁ_Ï_ÌÌ_È_ËÂÌÚ_127-13);}.cls-127{fill:url(#_ÂÁ_Ï_ÌÌ_È_ËÂÌÚ_127-14);}.cls-128{fill:url(#_ÂÁ_Ï_ÌÌ_È_ËÂÌÚ_127-15);}.cls-129{fill:url(#_ÂÁ_Ï_ÌÌ_È_ËÂÌÚ_127-16);}.cls-130{fill:url(#_ÂÁ_Ï_ÌÌ_È_ËÂÌÚ_127-17);}.cls-131{fill:url(#_ÂÁ_Ï_ÌÌ_È_ËÂÌÚ_127-18);}.cls-132{fill:url(#_ÂÁ_Ï_ÌÌ_È_ËÂÌÚ_127-19);}.cls-133{fill:url(#_ÂÁ_Ï_ÌÌ_È_ËÂÌÚ_127-20);}.cls-134{fill:url(#_ÂÁ_Ï_ÌÌ_È_ËÂÌÚ_127-21);}.cls-135{fill:url(#_ÂÁ_Ï_ÌÌ_È_ËÂÌÚ_127-22);}.cls-136{fill:url(#_ÂÁ_Ï_ÌÌ_È_ËÂÌÚ_127-23);}.cls-137{fill:url(#_ÂÁ_Ï_ÌÌ_È_ËÂÌÚ_127-24);}.cls-138{fill:url(#linear-gradient-108);}.cls-139{fill:url(#linear-gradient-109);}.cls-140{fill:url(#linear-gradient-110);}.cls-141{fill:url(#linear-gradient-111);}.cls-142{fill:url(#_ÂÁ_Ï_ÌÌ_È_ËÂÌÚ_1027);}.cls-143{fill:url(#linear-gradient-112);}.cls-144{fill:url(#_ÂÁ_Ï_ÌÌ_È_ËÂÌÚ_493);}.cls-145{fill:url(#_ÂÁ_Ï_ÌÌ_È_ËÂÌÚ_493-2);}.cls-146{fill:url(#_ÂÁ_Ï_ÌÌ_È_ËÂÌÚ_1027-2);}.cls-147{fill:url(#_ÂÁ_Ï_ÌÌ_È_ËÂÌÚ_580);}.cls-148{fill:url(#linear-gradient-113);}.cls-149{fill:url(#linear-gradient-114);}.cls-150{fill:url(#linear-gradient-115);}.cls-151{fill:url(#linear-gradient-116);}.cls-152{fill:url(#linear-gradient-117);}.cls-153{fill:url(#linear-gradient-118);}.cls-154{fill:url(#_ÂÁ_Ï_ÌÌ_È_ËÂÌÚ_1029);}.cls-155{fill:url(#_ÂÁ_Ï_ÌÌ_È_ËÂÌÚ_1028);}.cls-156{fill:url(#linear-gradient-119);}.cls-157{fill:#96292c;}.cls-158{fill:#e8d9d7;}.cls-159{fill:url(#linear-gradient-120);}.cls-160{fill:url(#linear-gradient-121);}.cls-161{fill:url(#linear-gradient-122);}.cls-162{fill:url(#linear-gradient-123);}.cls-163{fill:url(#linear-gradient-124);}.cls-164{fill:url(#linear-gradient-125);}.cls-165{fill:url(#linear-gradient-126);}.cls-166{fill:url(#linear-gradient-127);}.cls-167{fill:url(#linear-gradient-128);}.cls-168{fill:#ddd;}.cls-169{fill:url(#_ÂÁ_Ï_ÌÌ_È_ËÂÌÚ_1446);}.cls-170{fill:url(#_ÂÁ_Ï_ÌÌ_È_ËÂÌÚ_1446-2);}.cls-171{fill:url(#radial-gradient);}.cls-172{fill:#fff;}.cls-173{fill:url(#linear-gradient-129);}.cls-174{fill:url(#linear-gradient-130);}.cls-175{fill:url(#_ÂÁ_Ï_ÌÌ_È_ËÂÌÚ_1029-2);}.cls-176{fill:url(#_ÂÁ_Ï_ÌÌ_È_ËÂÌÚ_1027-3);}.cls-177{fill:url(#linear-gradient-131);}.cls-178{fill:url(#_ÂÁ_Ï_ÌÌ_È_ËÂÌÚ_8);}.cls-179{fill:url(#_ÂÁ_Ï_ÌÌ_È_ËÂÌÚ_8-2);}.cls-180{fill:url(#radial-gradient-2);}.cls-181{fill:url(#linear-gradient-132);}.cls-182{fill:url(#_ÂÁ_Ï_ÌÌ_È_ËÂÌÚ_127-25);}.cls-183{fill:url(#_ÂÁ_Ï_ÌÌ_È_ËÂÌÚ_127-26);}.cls-184{fill:url(#_ÂÁ_Ï_ÌÌ_È_ËÂÌÚ_7689);}.cls-185{fill:url(#_ÂÁ_Ï_ÌÌ_È_ËÂÌÚ_7689-2);}.cls-186{fill:url(#linear-gradient-133);}.cls-187{fill:url(#linear-gradient-134);}.cls-188{fill:url(#linear-gradient-135);}.cls-189{fill:url(#linear-gradient-136);}</style><linearGradient id="_ÂÁ_Ï_ÌÌ_È_ËÂÌÚ_132" x1="60.95" y1="105.7" x2="98.12" y2="113.15" gradientUnits="userSpaceOnUse"><stop offset="0" stop-color="#aa5740"/><stop offset="0.97" stop-color="#c47c4f"/><stop offset="1" stop-color="#c57d4f"/></linearGradient><linearGradient id="linear-gradient" x1="73.14" y1="144.82" x2="73.86" y2="128.32" gradientUnits="userSpaceOnUse"><stop offset="0" stop-color="#fdb621"/><stop offset="0.6" stop-color="#fec244"/><stop offset="1" stop-color="#ffc857"/></linearGradient><linearGradient id="linear-gradient-2" x1="71.82" y1="103.5" x2="75.38" y2="134" gradientUnits="userSpaceOnUse"><stop offset="0" stop-color="#ee9e2c"/><stop offset="0.41" stop-color="#f2a429"/><stop offset="0.96" stop-color="#fcb422"/><stop offset="1" stop-color="#fdb621"/></linearGradient><linearGradient id="linear-gradient-3" x1="21.76" y1="45.12" x2="21.7" y2="36.81" gradientUnits="userSpaceOnUse"><stop offset="0" stop-color="#563028"/><stop offset="0.13" stop-color="#512d25"/><stop offset="0.59" stop-color="#44251d"/><stop offset="1" stop-color="#3f221a"/></linearGradient><linearGradient id="linear-gradient-4" x1="34.19" y1="107.07" x2="33.91" y2="61.92" xlink:href="#linear-gradient-3"/><linearGradient id="linear-gradient-5" x1="23.3" y1="59.18" x2="23.3" y2="59.05" xlink:href="#linear-gradient-3"/><linearGradient id="linear-gradient-6" x1="112.69" y1="79.34" x2="112.69" y2="79.34" xlink:href="#linear-gradient-3"/><linearGradient id="linear-gradient-7" x1="23.29" y1="59.18" x2="23.29" y2="59.05" xlink:href="#linear-gradient-3"/><linearGradient id="linear-gradient-8" x1="23.29" y1="59.19" x2="23.29" y2="58.99" xlink:href="#linear-gradient-3"/><linearGradient id="linear-gradient-9" x1="112.78" y1="79.34" x2="112.78" y2="79.34" xlink:href="#linear-gradient-3"/><linearGradient id="linear-gradient-10" x1="112.67" y1="79.34" x2="112.67" y2="79.34" xlink:href="#linear-gradient-3"/><linearGradient id="linear-gradient-11" x1="27.03" y1="70.86" x2="27.03" y2="70.75" xlink:href="#linear-gradient-3"/><linearGradient id="linear-gradient-12" x1="27.75" y1="34.03" x2="27.75" y2="34.03" xlink:href="#linear-gradient-3"/><linearGradient id="linear-gradient-13" x1="112.75" y1="79.34" x2="112.75" y2="79.34" xlink:href="#linear-gradient-3"/><linearGradient id="linear-gradient-14" x1="27.84" y1="34.03" x2="27.84" y2="34.03" xlink:href="#linear-gradient-3"/><linearGradient id="linear-gradient-15" x1="27.91" y1="34.03" x2="27.91" y2="34.02" xlink:href="#linear-gradient-3"/><linearGradient id="linear-gradient-16" x1="112.69" y1="79.34" x2="112.69" y2="79.34" xlink:href="#linear-gradient-3"/><linearGradient id="linear-gradient-17" x1="27.04" y1="70.8" x2="27.04" y2="70.74" xlink:href="#linear-gradient-3"/><linearGradient id="linear-gradient-18" x1="26.98" y1="71.18" x2="26.98" y2="70.99" xlink:href="#linear-gradient-3"/><linearGradient id="linear-gradient-19" x1="27.97" y1="34.02" x2="27.97" y2="34.02" xlink:href="#linear-gradient-3"/><linearGradient id="linear-gradient-20" x1="26.97" y1="71.17" x2="26.97" y2="71.04" xlink:href="#linear-gradient-3"/><linearGradient id="linear-gradient-21" x1="26.94" y1="71.22" x2="26.94" y2="70.8" xlink:href="#linear-gradient-3"/><linearGradient id="linear-gradient-22" x1="113.47" y1="30.15" x2="113.47" y2="30.15" xlink:href="#linear-gradient-3"/><linearGradient id="linear-gradient-23" x1="120.51" y1="53.99" x2="120.51" y2="53.9" xlink:href="#linear-gradient-3"/><linearGradient id="linear-gradient-24" x1="113.5" y1="30.17" x2="113.5" y2="30.16" xlink:href="#linear-gradient-3"/><linearGradient id="linear-gradient-25" x1="95.95" y1="15.41" x2="95.95" y2="15.09" xlink:href="#linear-gradient-3"/><linearGradient id="linear-gradient-26" x1="89.11" y1="10.14" x2="89.11" y2="10.11" xlink:href="#linear-gradient-3"/><linearGradient id="linear-gradient-27" x1="55.61" y1="12.12" x2="55.61" y2="11.85" xlink:href="#linear-gradient-3"/><linearGradient id="linear-gradient-28" x1="28.44" y1="35.72" x2="28.43" y2="35.33" xlink:href="#linear-gradient-3"/><linearGradient id="linear-gradient-29" x1="30.25" y1="81.09" x2="30.25" y2="81.09" xlink:href="#linear-gradient-3"/><linearGradient id="_ÂÁ_Ï_ÌÌ_È_ËÂÌÚ_1026" x1="72.02" y1="106.91" x2="71.66" y2="50.12" gradientUnits="userSpaceOnUse"><stop offset="0" stop-color="#3f221a"/><stop offset="0.41" stop-color="#44251d"/><stop offset="0.87" stop-color="#512d25"/><stop offset="1" stop-color="#563028"/></linearGradient><linearGradient id="linear-gradient-30" x1="21.16" y1="49.42" x2="21.16" y2="49.42" xlink:href="#linear-gradient-3"/><linearGradient id="linear-gradient-31" x1="113.48" y1="30.15" x2="113.48" y2="30.15" xlink:href="#linear-gradient-3"/><linearGradient id="linear-gradient-32" x1="20.98" y1="57.36" x2="20.98" y2="57.36" xlink:href="#linear-gradient-3"/><linearGradient id="linear-gradient-33" x1="120.51" y1="53.99" x2="120.51" y2="53.9" xlink:href="#linear-gradient-3"/><linearGradient id="linear-gradient-34" x1="20.99" y1="57.36" x2="20.99" y2="57.36" xlink:href="#linear-gradient-3"/><linearGradient id="linear-gradient-35" x1="20.87" y1="57.37" x2="20.87" y2="57.34" xlink:href="#linear-gradient-3"/><linearGradient id="linear-gradient-36" x1="118.48" y1="71.62" x2="118.48" y2="71.56" xlink:href="#linear-gradient-3"/><linearGradient id="linear-gradient-37" x1="118.6" y1="71.54" x2="118.6" y2="71.52" xlink:href="#linear-gradient-3"/><linearGradient id="linear-gradient-38" x1="20.92" y1="44.52" x2="20.92" y2="44.48" xlink:href="#linear-gradient-3"/><linearGradient id="linear-gradient-39" x1="20.91" y1="44.53" x2="20.91" y2="44.5" xlink:href="#linear-gradient-3"/><linearGradient id="linear-gradient-40" x1="118.55" y1="71.54" x2="118.55" y2="71.5" xlink:href="#linear-gradient-3"/><linearGradient id="linear-gradient-41" x1="20.98" y1="57.36" x2="20.98" y2="57.36" xlink:href="#linear-gradient-3"/><linearGradient id="linear-gradient-42" x1="20.92" y1="44.48" x2="20.92" y2="44.47" xlink:href="#linear-gradient-3"/><linearGradient id="linear-gradient-43" x1="20.96" y1="57.36" x2="20.96" y2="57.36" xlink:href="#linear-gradient-3"/><linearGradient id="linear-gradient-44" x1="120.5" y1="53.99" x2="120.5" y2="53.9" xlink:href="#linear-gradient-3"/><linearGradient id="linear-gradient-45" x1="27.72" y1="34.04" x2="27.72" y2="34.03" xlink:href="#linear-gradient-3"/><linearGradient id="linear-gradient-46" x1="52.91" y1="15.54" x2="52.91" y2="15.29" xlink:href="#linear-gradient-3"/><linearGradient id="linear-gradient-47" x1="94.96" y1="94.68" x2="94.96" y2="94.54" xlink:href="#linear-gradient-3"/><linearGradient id="linear-gradient-48" x1="52.91" y1="15.54" x2="52.91" y2="15.29" xlink:href="#linear-gradient-3"/><linearGradient id="linear-gradient-49" x1="57.58" y1="93.12" x2="57.58" y2="93.12" xlink:href="#linear-gradient-3"/><linearGradient id="linear-gradient-50" x1="94.97" y1="94.5" x2="94.97" y2="94.47" xlink:href="#linear-gradient-3"/><linearGradient id="linear-gradient-51" x1="57.76" y1="13.02" x2="57.76" y2="12.93" xlink:href="#linear-gradient-3"/><linearGradient id="linear-gradient-52" x1="38.86" y1="22.69" x2="38.86" y2="22.69" xlink:href="#linear-gradient-3"/><linearGradient id="linear-gradient-53" x1="94.97" y1="94.51" x2="94.97" y2="94.5" xlink:href="#linear-gradient-3"/><linearGradient id="linear-gradient-54" x1="38.89" y1="22.69" x2="38.89" y2="22.66" xlink:href="#linear-gradient-3"/><linearGradient id="linear-gradient-55" x1="38.79" y1="22.68" x2="38.79" y2="22.6" xlink:href="#linear-gradient-3"/><linearGradient id="linear-gradient-56" x1="38.79" y1="22.72" x2="38.79" y2="22.62" xlink:href="#linear-gradient-3"/><linearGradient id="linear-gradient-57" x1="57.49" y1="13.01" x2="57.49" y2="13" xlink:href="#linear-gradient-3"/><linearGradient id="linear-gradient-58" x1="99.27" y1="20.88" x2="99.27" y2="20.86" xlink:href="#linear-gradient-3"/><linearGradient id="linear-gradient-59" x1="38.77" y1="22.71" x2="38.77" y2="22.69" xlink:href="#linear-gradient-3"/><linearGradient id="linear-gradient-60" x1="52.92" y1="15.45" x2="52.92" y2="15.23" xlink:href="#linear-gradient-3"/><linearGradient id="linear-gradient-61" x1="99.27" y1="20.86" x2="99.27" y2="20.85" xlink:href="#linear-gradient-3"/><linearGradient id="linear-gradient-62" x1="52.83" y1="15.51" x2="52.83" y2="15.45" xlink:href="#linear-gradient-3"/><linearGradient id="linear-gradient-63" x1="94.97" y1="94.45" x2="94.97" y2="94.44" xlink:href="#linear-gradient-3"/><linearGradient id="linear-gradient-64" x1="79.52" y1="10.99" x2="79.52" y2="10.76" xlink:href="#linear-gradient-3"/><linearGradient id="linear-gradient-65" x1="94.97" y1="94.48" x2="94.97" y2="94.46" xlink:href="#linear-gradient-3"/><linearGradient id="linear-gradient-66" x1="64.09" y1="9.77" x2="64.09" y2="9.64" xlink:href="#linear-gradient-3"/><linearGradient id="linear-gradient-67" x1="64.12" y1="9.59" x2="64.12" y2="9.57" xlink:href="#linear-gradient-3"/><linearGradient id="linear-gradient-68" x1="94.97" y1="94.49" x2="94.97" y2="94.49" xlink:href="#linear-gradient-3"/><linearGradient id="linear-gradient-69" x1="64.1" y1="9.65" x2="64.1" y2="9.61" xlink:href="#linear-gradient-3"/><linearGradient id="linear-gradient-70" x1="57.64" y1="13.01" x2="57.64" y2="13" xlink:href="#linear-gradient-3"/><linearGradient id="linear-gradient-71" x1="64.11" y1="9.66" x2="64.11" y2="9.59" xlink:href="#linear-gradient-3"/><linearGradient id="linear-gradient-72" x1="33.92" y1="22.76" x2="33.91" y2="22.6" xlink:href="#linear-gradient-3"/><linearGradient id="linear-gradient-73" x1="27.48" y1="29.73" x2="27.48" y2="29.63" xlink:href="#linear-gradient-3"/><linearGradient id="linear-gradient-74" x1="27.5" y1="29.74" x2="27.5" y2="29.58" xlink:href="#linear-gradient-3"/><linearGradient id="linear-gradient-75" x1="103.08" y1="89.78" x2="103.08" y2="89.74" xlink:href="#linear-gradient-3"/><linearGradient id="linear-gradient-76" x1="27.48" y1="29.73" x2="27.48" y2="29.64" xlink:href="#linear-gradient-3"/><linearGradient id="linear-gradient-77" x1="30.25" y1="80.27" x2="30.25" y2="80.26" xlink:href="#linear-gradient-3"/><linearGradient id="linear-gradient-78" x1="30.26" y1="80.27" x2="30.26" y2="80.17" xlink:href="#linear-gradient-3"/><linearGradient id="linear-gradient-79" x1="30.26" y1="80.26" x2="30.25" y2="80.21" xlink:href="#linear-gradient-3"/><linearGradient id="linear-gradient-80" x1="30.26" y1="80.18" x2="30.26" y2="80.13" xlink:href="#linear-gradient-3"/><linearGradient id="linear-gradient-81" x1="30.26" y1="80.18" x2="30.26" y2="80.13" xlink:href="#linear-gradient-3"/><linearGradient id="linear-gradient-82" x1="28.05" y1="34.02" x2="28.05" y2="34.02" xlink:href="#linear-gradient-3"/><linearGradient id="linear-gradient-83" x1="106.26" y1="29.07" x2="106.26" y2="28.92" xlink:href="#linear-gradient-3"/><linearGradient id="linear-gradient-84" x1="28.05" y1="34.02" x2="28.05" y2="34.02" xlink:href="#linear-gradient-3"/><linearGradient id="linear-gradient-85" x1="28.01" y1="34.02" x2="28.01" y2="34.02" xlink:href="#linear-gradient-3"/><linearGradient id="linear-gradient-86" x1="27.89" y1="34.03" x2="27.89" y2="34.03" xlink:href="#linear-gradient-3"/><linearGradient id="linear-gradient-87" x1="27.93" y1="34.03" x2="27.93" y2="34.02" xlink:href="#linear-gradient-3"/><linearGradient id="linear-gradient-88" x1="28.05" y1="34.02" x2="28.05" y2="34.02" xlink:href="#linear-gradient-3"/><linearGradient id="linear-gradient-89" x1="28.05" y1="34.02" x2="28.05" y2="34.02" xlink:href="#linear-gradient-3"/><linearGradient id="linear-gradient-90" x1="27.83" y1="34.03" x2="27.83" y2="34.03" xlink:href="#linear-gradient-3"/><linearGradient id="linear-gradient-91" x1="27.78" y1="34.03" x2="27.78" y2="34.03" xlink:href="#linear-gradient-3"/><linearGradient id="linear-gradient-92" x1="100.38" y1="20.79" x2="100.38" y2="20.77" xlink:href="#linear-gradient-3"/><linearGradient id="linear-gradient-93" x1="38.44" y1="89.68" x2="38.44" y2="89.67" xlink:href="#linear-gradient-3"/><linearGradient id="linear-gradient-94" x1="33.92" y1="22.76" x2="33.92" y2="22.59" xlink:href="#linear-gradient-3"/><linearGradient id="linear-gradient-95" x1="28.01" y1="34.02" x2="28.01" y2="34.02" xlink:href="#linear-gradient-3"/><linearGradient id="linear-gradient-96" x1="100.38" y1="20.79" x2="100.38" y2="20.76" xlink:href="#linear-gradient-3"/><linearGradient id="linear-gradient-97" x1="99.27" y1="20.87" x2="99.27" y2="20.86" xlink:href="#linear-gradient-3"/><linearGradient id="linear-gradient-98" x1="38.43" y1="89.68" x2="38.43" y2="89.67" xlink:href="#linear-gradient-3"/><linearGradient id="linear-gradient-99" x1="38.45" y1="89.68" x2="38.45" y2="89.68" xlink:href="#linear-gradient-3"/><linearGradient id="linear-gradient-100" x1="33.82" y1="22.74" x2="33.82" y2="22.7" xlink:href="#linear-gradient-3"/><linearGradient id="linear-gradient-101" x1="38.87" y1="22.69" x2="38.87" y2="22.69" xlink:href="#linear-gradient-3"/><linearGradient id="linear-gradient-102" x1="100.36" y1="20.79" x2="100.36" y2="20.78" xlink:href="#linear-gradient-3"/><linearGradient id="linear-gradient-103" x1="34.04" y1="22.55" x2="34.04" y2="22.43" xlink:href="#linear-gradient-3"/><linearGradient id="linear-gradient-104" x1="33.9" y1="22.67" x2="33.9" y2="22.59" xlink:href="#linear-gradient-3"/><linearGradient id="linear-gradient-105" x1="34.06" y1="22.47" x2="34.06" y2="22.45" xlink:href="#linear-gradient-3"/><linearGradient id="linear-gradient-106" x1="37.04" y1="9.71" x2="36.94" y2="35.85" gradientUnits="userSpaceOnUse"><stop offset="0" stop-color="#1f120f"/><stop offset="0.49" stop-color="#2e1a15"/><stop offset="1" stop-color="#43241d"/></linearGradient><linearGradient id="linear-gradient-107" x1="21.99" y1="34.8" x2="21.93" y2="49.15" xlink:href="#linear-gradient-106"/><linearGradient id="_ÂÁ_Ï_ÌÌ_È_ËÂÌÚ_127" x1="112.96" y1="80.35" x2="112.96" y2="80.36" gradientUnits="userSpaceOnUse"><stop offset="0" stop-color="#43241d"/><stop offset="0.51" stop-color="#2e1a15"/><stop offset="1" stop-color="#1f120f"/></linearGradient><linearGradient id="_ÂÁ_Ï_ÌÌ_È_ËÂÌÚ_127-2" x1="21.2" y1="58.36" x2="21.2" y2="58.38" xlink:href="#_ÂÁ_Ï_ÌÌ_È_ËÂÌÚ_127"/><linearGradient id="_ÂÁ_Ï_ÌÌ_È_ËÂÌÚ_127-3" x1="118.78" y1="72.48" x2="118.78" y2="72.54" xlink:href="#_ÂÁ_Ï_ÌÌ_È_ËÂÌÚ_127"/><linearGradient id="_ÂÁ_Ï_ÌÌ_È_ËÂÌÚ_127-4" x1="32.61" y1="28.9" x2="32.61" y2="29.32" xlink:href="#_ÂÁ_Ï_ÌÌ_È_ËÂÌÚ_127"/><linearGradient id="_ÂÁ_Ï_ÌÌ_È_ËÂÌÚ_127-5" x1="57.87" y1="14.01" x2="57.87" y2="14.02" xlink:href="#_ÂÁ_Ï_ÌÌ_È_ËÂÌÚ_127"/><linearGradient id="_ÂÁ_Ï_ÌÌ_È_ËÂÌÚ_127-6" x1="120.79" y1="54.97" x2="120.79" y2="54.97" xlink:href="#_ÂÁ_Ï_ÌÌ_È_ËÂÌÚ_127"/><linearGradient id="_ÂÁ_Ï_ÌÌ_È_ËÂÌÚ_127-7" x1="22.17" y1="51.16" x2="22.17" y2="51.34" xlink:href="#_ÂÁ_Ï_ÌÌ_È_ËÂÌÚ_127"/><linearGradient id="_ÂÁ_Ï_ÌÌ_È_ËÂÌÚ_127-8" x1="120.78" y1="54.97" x2="120.78" y2="54.99" xlink:href="#_ÂÁ_Ï_ÌÌ_È_ËÂÌÚ_127"/><linearGradient id="_ÂÁ_Ï_ÌÌ_È_ËÂÌÚ_127-9" x1="72.27" y1="2.91" x2="71.94" y2="88.1" xlink:href="#_ÂÁ_Ï_ÌÌ_È_ËÂÌÚ_127"/><linearGradient id="_ÂÁ_Ï_ÌÌ_È_ËÂÌÚ_127-10" x1="28.18" y1="35.87" x2="28.17" y2="36.6" xlink:href="#_ÂÁ_Ï_ÌÌ_È_ËÂÌÚ_127"/><linearGradient id="_ÂÁ_Ï_ÌÌ_È_ËÂÌÚ_127-11" x1="113.7" y1="31.16" x2="113.7" y2="31.16" xlink:href="#_ÂÁ_Ï_ÌÌ_È_ËÂÌÚ_127"/><linearGradient id="_ÂÁ_Ï_ÌÌ_È_ËÂÌÚ_127-12" x1="28.17" y1="35.03" x2="28.17" y2="35.04" xlink:href="#_ÂÁ_Ï_ÌÌ_È_ËÂÌÚ_127"/><linearGradient id="_ÂÁ_Ï_ÌÌ_È_ËÂÌÚ_127-13" x1="88.04" y1="12.89" x2="88.04" y2="13.01" xlink:href="#_ÂÁ_Ï_ÌÌ_È_ËÂÌÚ_127"/><linearGradient id="_ÂÁ_Ï_ÌÌ_È_ËÂÌÚ_127-14" x1="21.15" y1="45.49" x2="21.15" y2="45.5" xlink:href="#_ÂÁ_Ï_ÌÌ_È_ËÂÌÚ_127"/><linearGradient id="_ÂÁ_Ï_ÌÌ_È_ËÂÌÚ_127-15" x1="64.35" y1="10.53" x2="64.35" y2="10.65" xlink:href="#_ÂÁ_Ï_ÌÌ_È_ËÂÌÚ_127"/><linearGradient id="_ÂÁ_Ï_ÌÌ_È_ËÂÌÚ_127-16" x1="27.23" y1="71.65" x2="27.23" y2="72.11" xlink:href="#_ÂÁ_Ï_ÌÌ_È_ËÂÌÚ_127"/><linearGradient id="_ÂÁ_Ï_ÌÌ_È_ËÂÌÚ_127-17" x1="38.69" y1="90.69" x2="38.69" y2="90.7" xlink:href="#_ÂÁ_Ï_ÌÌ_È_ËÂÌÚ_127"/><linearGradient id="_ÂÁ_Ï_ÌÌ_È_ËÂÌÚ_127-18" x1="27.59" y1="30.63" x2="27.59" y2="30.7" xlink:href="#_ÂÁ_Ï_ÌÌ_È_ËÂÌÚ_127"/><linearGradient id="_ÂÁ_Ï_ÌÌ_È_ËÂÌÚ_127-19" x1="22.24" y1="49.76" x2="22.24" y2="49.78" xlink:href="#_ÂÁ_Ï_ÌÌ_È_ËÂÌÚ_127"/><linearGradient id="_ÂÁ_Ï_ÌÌ_È_ËÂÌÚ_127-20" x1="103.36" y1="90.74" x2="103.36" y2="90.78" xlink:href="#_ÂÁ_Ï_ÌÌ_È_ËÂÌÚ_127"/><linearGradient id="_ÂÁ_Ï_ÌÌ_È_ËÂÌÚ_127-21" x1="22.23" y1="49.78" x2="22.23" y2="49.81" xlink:href="#_ÂÁ_Ï_ÌÌ_È_ËÂÌÚ_127"/><linearGradient id="_ÂÁ_Ï_ÌÌ_È_ËÂÌÚ_127-22" x1="23.49" y1="60.15" x2="23.49" y2="60.17" xlink:href="#_ÂÁ_Ï_ÌÌ_È_ËÂÌÚ_127"/><linearGradient id="_ÂÁ_Ï_ÌÌ_È_ËÂÌÚ_127-23" x1="23.48" y1="60.08" x2="23.48" y2="60.1" xlink:href="#_ÂÁ_Ï_ÌÌ_È_ËÂÌÚ_127"/><linearGradient id="_ÂÁ_Ï_ÌÌ_È_ËÂÌÚ_127-24" x1="23.48" y1="60.1" x2="23.48" y2="60.14" xlink:href="#_ÂÁ_Ï_ÌÌ_È_ËÂÌÚ_127"/><linearGradient id="linear-gradient-108" x1="102.18" y1="65.11" x2="102.18" y2="91.28" gradientUnits="userSpaceOnUse"><stop offset="0" stop-color="#c57d4f"/><stop offset="1" stop-color="#aa5740"/></linearGradient><linearGradient id="linear-gradient-109" x1="106.84" y1="89.6" x2="101.78" y2="67.74" xlink:href="#linear-gradient-108"/><linearGradient id="linear-gradient-110" x1="44.65" y1="65.1" x2="44.65" y2="91.15" xlink:href="#linear-gradient-108"/><linearGradient id="linear-gradient-111" x1="48.58" y1="92.53" x2="42.81" y2="67.65" xlink:href="#linear-gradient-108"/><linearGradient id="_ÂÁ_Ï_ÌÌ_È_ËÂÌÚ_1027" x1="85.19" y1="45.8" x2="86.36" y2="68.53" gradientUnits="userSpaceOnUse"><stop offset="0" stop-color="#aa5740"/><stop offset="1" stop-color="#c57d4f"/></linearGradient><linearGradient id="linear-gradient-112" x1="59.71" y1="69.39" x2="58.72" y2="45.56" xlink:href="#linear-gradient-108"/><radialGradient id="_ÂÁ_Ï_ÌÌ_È_ËÂÌÚ_493" cx="92.72" cy="127.14" r="20.6" gradientTransform="translate(35.83 5.47) scale(0.55 0.54)" gradientUnits="userSpaceOnUse"><stop offset="0" stop-color="#cb794d"/><stop offset="1" stop-color="#c57d4f"/></radialGradient><radialGradient id="_ÂÁ_Ï_ÌÌ_È_ËÂÌÚ_493-2" cx="34.76" cy="129.52" r="20.19" xlink:href="#_ÂÁ_Ï_ÌÌ_È_ËÂÌÚ_493"/><linearGradient id="_ÂÁ_Ï_ÌÌ_È_ËÂÌÚ_1027-2" x1="74.29" y1="69.54" x2="73.01" y2="80.72" xlink:href="#_ÂÁ_Ï_ÌÌ_È_ËÂÌÚ_1027"/><linearGradient id="_ÂÁ_Ï_ÌÌ_È_ËÂÌÚ_580" x1="74.83" y1="73.63" x2="68.95" y2="23.56" gradientUnits="userSpaceOnUse"><stop offset="0" stop-color="#c57d4f"/><stop offset="0.03" stop-color="#c47c4f"/><stop offset="1" stop-color="#aa5740"/></linearGradient><linearGradient id="linear-gradient-113" x1="87.97" y1="72.23" x2="98.08" y2="69.6" gradientUnits="userSpaceOnUse"><stop offset="0" stop-color="#c57d4f"/><stop offset="1" stop-color="#cd8653"/></linearGradient><linearGradient id="linear-gradient-114" x1="59.23" y1="71.78" x2="46.91" y2="68.77" xlink:href="#linear-gradient-113"/><linearGradient id="linear-gradient-115" x1="85.78" y1="83.76" x2="92.57" y2="82.83" xlink:href="#linear-gradient-108"/><linearGradient id="linear-gradient-116" x1="60.94" y1="83.9" x2="53.53" y2="82.67" xlink:href="#linear-gradient-108"/><linearGradient id="linear-gradient-117" x1="73.96" y1="89.1" x2="73.81" y2="96.12" xlink:href="#linear-gradient-108"/><linearGradient id="linear-gradient-118" x1="73.03" y1="93.4" x2="72.88" y2="106.58" xlink:href="#linear-gradient-108"/><linearGradient id="_ÂÁ_Ï_ÌÌ_È_ËÂÌÚ_1029" x1="78.76" y1="57.77" x2="95.15" y2="57.77" gradientUnits="userSpaceOnUse"><stop offset="0" stop-color="#1f120f"/><stop offset="0.07" stop-color="#251511"/><stop offset="0.34" stop-color="#361d18"/><stop offset="0.64" stop-color="#40221c"/><stop offset="1" stop-color="#43241d"/></linearGradient><linearGradient id="_ÂÁ_Ï_ÌÌ_È_ËÂÌÚ_1028" x1="50.65" y1="57.76" x2="67.04" y2="57.76" gradientUnits="userSpaceOnUse"><stop offset="0" stop-color="#43241d"/><stop offset="0.36" stop-color="#40221c"/><stop offset="0.66" stop-color="#361d18"/><stop offset="0.93" stop-color="#251511"/><stop offset="1" stop-color="#1f120f"/></linearGradient><linearGradient id="linear-gradient-119" x1="74.73" y1="90.78" x2="69.06" y2="-4.25" xlink:href="#linear-gradient-106"/><linearGradient id="linear-gradient-120" x1="72.78" y1="77.86" x2="73.22" y2="88.34" gradientUnits="userSpaceOnUse"><stop offset="0" stop-color="#e8d9d7"/><stop offset="0.4" stop-color="#efe5e4"/><stop offset="1" stop-color="#fff"/></linearGradient><linearGradient id="linear-gradient-121" x1="72.89" y1="81.44" x2="73.8" y2="91.79" xlink:href="#linear-gradient-120"/><linearGradient id="linear-gradient-122" x1="74.16" y1="131.98" x2="73.14" y2="71.16" xlink:href="#linear-gradient-108"/><linearGradient id="linear-gradient-123" x1="73.37" y1="88.03" x2="73.56" y2="91.93" xlink:href="#linear-gradient-113"/><linearGradient id="linear-gradient-124" x1="74.47" y1="158.93" x2="73" y2="70.82" xlink:href="#linear-gradient-108"/><linearGradient id="linear-gradient-125" x1="68.99" y1="84.76" x2="59.76" y2="98.43" xlink:href="#linear-gradient-108"/><linearGradient id="linear-gradient-126" x1="94.2" y1="75.88" x2="76.57" y2="101.99" xlink:href="#linear-gradient-108"/><linearGradient id="linear-gradient-127" x1="49.4" y1="71.37" x2="65.85" y2="61.63" xlink:href="#linear-gradient-108"/><linearGradient id="linear-gradient-128" x1="65.82" y1="67.08" x2="56.07" y2="64.73" gradientUnits="userSpaceOnUse"><stop offset="0" stop-color="#fff"/><stop offset="0.46" stop-color="#fdfcfc"/><stop offset="0.76" stop-color="#f6f4f4"/><stop offset="1" stop-color="#ece7e6"/></linearGradient><linearGradient id="_ÂÁ_Ï_ÌÌ_È_ËÂÌÚ_1446" x1="54.88" y1="62.13" x2="66.29" y2="71.24" gradientUnits="userSpaceOnUse"><stop offset="0" stop-color="#5b3e33"/><stop offset="1" stop-color="#936756"/></linearGradient><linearGradient id="_ÂÁ_Ï_ÌÌ_È_ËÂÌÚ_1446-2" x1="60.19" y1="66.12" x2="61.07" y2="71.69" xlink:href="#_ÂÁ_Ï_ÌÌ_È_ËÂÌÚ_1446"/><radialGradient id="radial-gradient" cx="47.73" cy="113.72" r="12.58" gradientTransform="translate(35.83 5.47) scale(0.55 0.54)" gradientUnits="userSpaceOnUse"><stop offset="0" stop-color="#2b3b3b"/><stop offset="1" stop-color="#1d2827"/></radialGradient><linearGradient id="linear-gradient-129" x1="54.1" y1="65.48" x2="54.1" y2="65.48" xlink:href="#_ÂÁ_Ï_ÌÌ_È_ËÂÌÚ_1028"/><linearGradient id="linear-gradient-130" x1="54.09" y1="65.49" x2="54.1" y2="65.49" xlink:href="#_ÂÁ_Ï_ÌÌ_È_ËÂÌÚ_1028"/><linearGradient id="_ÂÁ_Ï_ÌÌ_È_ËÂÌÚ_1029-2" x1="53.97" y1="64.62" x2="65.44" y2="64.08" xlink:href="#_ÂÁ_Ï_ÌÌ_È_ËÂÌÚ_1029"/><linearGradient id="_ÂÁ_Ï_ÌÌ_È_ËÂÌÚ_1027-3" x1="79.68" y1="69.22" x2="96.8" y2="59.1" xlink:href="#_ÂÁ_Ï_ÌÌ_È_ËÂÌÚ_1027"/><linearGradient id="linear-gradient-131" x1="91.31" y1="67.35" x2="81.94" y2="65.09" xlink:href="#linear-gradient-128"/><linearGradient id="_ÂÁ_Ï_ÌÌ_È_ËÂÌÚ_8" x1="96.33" y1="76.22" x2="82.97" y2="64.09" gradientUnits="userSpaceOnUse"><stop offset="0" stop-color="#936756"/><stop offset="1" stop-color="#5b3e33"/></linearGradient><linearGradient id="_ÂÁ_Ï_ÌÌ_È_ËÂÌÚ_8-2" x1="101.39" y1="87.09" x2="87.23" y2="67.75" xlink:href="#_ÂÁ_Ï_ÌÌ_È_ËÂÌÚ_8"/><radialGradient id="radial-gradient-2" cx="94.35" cy="113.94" r="12.58" xlink:href="#radial-gradient"/><linearGradient id="linear-gradient-132" x1="79.62" y1="64.49" x2="91.18" y2="63.93" xlink:href="#_ÂÁ_Ï_ÌÌ_È_ËÂÌÚ_1028"/><linearGradient id="_ÂÁ_Ï_ÌÌ_È_ËÂÌÚ_127-25" x1="73.26" y1="77.79" x2="72.39" y2="127.46" xlink:href="#_ÂÁ_Ï_ÌÌ_È_ËÂÌÚ_127"/><linearGradient id="_ÂÁ_Ï_ÌÌ_È_ËÂÌÚ_127-26" x1="73.14" y1="78.38" x2="72.3" y2="126.12" xlink:href="#_ÂÁ_Ï_ÌÌ_È_ËÂÌÚ_127"/><linearGradient id="_ÂÁ_Ï_ÌÌ_È_ËÂÌÚ_7689" x1="77.16" y1="87.44" x2="78.11" y2="78.15" xlink:href="#linear-gradient-108"/><linearGradient id="_ÂÁ_Ï_ÌÌ_È_ËÂÌÚ_7689-2" x1="67.75" y1="86.57" x2="68.72" y2="77.17" xlink:href="#linear-gradient-108"/><linearGradient id="linear-gradient-133" x1="73.04" y1="69.98" x2="73.48" y2="83.04" xlink:href="#linear-gradient-108"/><linearGradient id="linear-gradient-134" x1="72.59" y1="70.89" x2="73.78" y2="76.2" xlink:href="#linear-gradient-113"/><linearGradient id="linear-gradient-135" x1="73.33" y1="127.51" x2="72.62" y2="84.71" xlink:href="#linear-gradient-108"/><linearGradient id="linear-gradient-136" x1="73.6" y1="109.64" x2="73.79" y2="125.21" xlink:href="#linear-gradient-106"/></defs><circle class="cls-1" cx="72" cy="72" r="72" transform="translate(-29.82 72) rotate(-45)"/><path class="cls-2" d="M90.18,106c-.27-1.21-1.24-13.64-1.24-13.64L57.46,91.06l-.06,14.82C54.47,107.94,48,110,48,110c-.44,4.82,10.85,17,24.67,16.31C90.55,125.44,98.92,110,98.92,110S90.44,107.24,90.18,106Z"/><path class="cls-3" d="M80.59,114.42c-.19.17-11.28,1.47-15.29-.08-2-.78-7.07-6.23-7.07-6.23-2.17,2-6.35,2.83-6.35,2.83,12.14,12.15,25.45,10.28,30.59,8.47S96,110.76,96,110.76a17.88,17.88,0,0,1-6.76-3.32C86,111.49,80.77,114.25,80.59,114.42Z"/><path class="cls-4" d="M72,144a71.83,71.83,0,0,0,53.41-23.71v-1.44c-8.93-4-27.57-9.41-27.57-9.41s-5.19,14.84-24.26,15.87-25.23-15.87-25.23-15.87c-23,7-28.11,9.41-28.11,9.41a15.43,15.43,0,0,1,.25,3.45A71.76,71.76,0,0,0,72,144Z"/><path class="cls-5" d="M74,133.61c-16.92-.47-24-2.31-34.26,2.76a72.07,72.07,0,0,0,67.63-1.64C100.41,131.53,89.57,134.05,74,133.61Z"/><path class="cls-4" d="M18.34,120q1.55,1.73,3.2,3.35c-.77-2.68-1.3-4.5-1.3-4.5A6.12,6.12,0,0,0,18.34,120Z"/><path class="cls-4" d="M125.41,118.85s-.23.79-.6,2.09c.49-.54,1-1.09,1.47-1.64A5.15,5.15,0,0,0,125.41,118.85Z"/><path class="cls-6" d="M72.34,122.33a29,29,0,0,1-24-12.89l-6.44,2s9.26,17,29.32,17.06c23.17,0,32.32-17.34,32.32-17.34l-5.71-1.71C96.78,111.73,87,122.5,72.34,122.33Z"/><path class="cls-7" d="M94.49,34.79c-2.09-2-36.22.83-43.54,4.43-2.27,1.12-3.52,6.86-4.27,13.82C45.63,62.81,45,73.93,45,73.93s2.67-16.17,3.16-19.51,2.07-12.12,3.55-13.25,22.39-5.55,41.44-.74c0,0,1.77,1.76,4.31,15.21s3.26,17.92,3.26,17.92S99.22,55.72,99,54.23,96.59,36.84,94.49,34.79Z"/><path class="cls-8" d="M21.73,41Z"/><path class="cls-9" d="M34.05,86.49Z"/><path class="cls-10" d="M23.26,59.16s.1-.18.07-.2A.8.8,0,0,1,23.26,59.16Z"/><path class="cls-11" d="M112.62,79.34h.15S112.67,79.34,112.62,79.34Z"/><path class="cls-12" d="M23.26,59.16a.8.8,0,0,0,.07-.2h0C23.26,59,23.25,59.12,23.26,59.16Z"/><path class="cls-13" d="M23.26,59.16s0-.2.06-.2h0C23.35,58.77,23.2,58.75,23.26,59.16Z"/><polygon class="cls-14" points="112.77 79.34 112.78 79.34 112.78 79.34 112.77 79.34"/><path class="cls-15" d="M112.71,79.34h0Z"/><path class="cls-16" d="M27,70.77s0,0,0,.07l0,0s0-.07,0-.11v0S27,70.75,27,70.77Z"/><path class="cls-17" d="M27.76,34h0Z"/><path class="cls-18" d="M112.78,79.34h0Z"/><path class="cls-19" d="M27.84,34h0Z"/><path class="cls-20" d="M27.85,34h0Z"/><path class="cls-21" d="M112.71,79.34h0Z"/><path class="cls-22" d="M27.05,70.68s0,.08,0,.11A.52.52,0,0,0,27.05,70.68Z"/><path class="cls-23" d="M27,70.93c0,.06,0,.14,0,.22l.06-.31s0,0,0,.06Z"/><path class="cls-24" d="M28,34Z"/><path class="cls-25" d="M27,70.93a.45.45,0,0,0,0,.22C27,71.07,27,71,27,70.93Z"/><path class="cls-26" d="M27,71.15a.45.45,0,0,1,0-.22C27.1,70.11,26.7,70.52,27,71.15Z"/><path class="cls-27" d="M113.46,30.14h0Z"/><path class="cls-28" d="M120.46,53.83s.11.1.09.14S120.47,53.81,120.46,53.83Z"/><path class="cls-29" d="M113.47,30.15h0l.06,0-.07,0Z"/><path class="cls-30" d="M96.58,14.83a4.19,4.19,0,0,0-1.25.53A1.92,1.92,0,0,0,96.58,14.83Z"/><path class="cls-31" d="M89.19,10.09h0l-.14.05Z"/><path class="cls-32" d="M55.58,11.64a3,3,0,0,1,.06.43A1,1,0,0,0,55.58,11.64Z"/><path class="cls-33" d="M27.83,35.66A7.69,7.69,0,0,0,29,35,13.07,13.07,0,0,1,27.83,35.66Z"/><path class="cls-34" d="M30.25,81.08Z"/><path class="cls-35" d="M122.46,59c1.58.52,3.38-1.23,3.35-2.68a1.2,1.2,0,1,0-2.27.74c.4-1.67,1.66-.71.37.19-1.57,1.26-2.92-1.19-2.61-2.4a5.9,5.9,0,0,0,.6.42,1.67,1.67,0,0,1-.25-1.65,4.08,4.08,0,0,1-.51.36c-.19-.58-2.15-3.27-1.12-3.3,1.07-.55,1.06-1.79,1-2.73.42-.2,1.09.46,1.49.7,1.62.85.22,3.46-1.49,2.45a1.7,1.7,0,0,0,3-.5c.55-2.06-1.16-4.92-3.58-3.93-.36,0-.43-.65-.71-.87.87-.09,2,.39,2.25-.51.45-1.4-.58-3-2.07-2,2.16.22,0,2.62-1.16.86-.66-.75-.32-2.28-1.7-2.14,2.61-.23,5.82-3.48,3.48-5.86-2.06-1.59-4.28,2-1.72,2.86-2.06-4,5-1.3-2.31,2.51,3.66-2.79-1.6-5.62-5-5.63a17.42,17.42,0,0,0,1.18-1.76c1.12,4.57,9.76.64,4.7-1.71,2.54,1.95-2.44,4.36-3.25,1.51-.09-.5.79-.1,1.07-.44.69-.84,1-2.32,0-3.1-.93-.93-2.16-.12-3.19-.7.41-.12.46,0,.83-.19-2-.28-5.31-1.51-5.52-3.94-.45-1.26,1.14-1.83,2.12-2.06,2.61,1.42,2.65,3.89-.87,4,6.78,1.24,3.68-8.23-1.61-4.46a3.3,3.3,0,0,0-1.66-1.75c3.94-.13,3.1-4.32-.49-3.84-1,.14-.92,1.83-.4,1.66.68-2.67,3.68.37,1.07.7-1.73.19-3.55-.63-5.23,0,.2-1.42-.79-3.62.63-4.56,1.21-.21,1.86,1.35,1.7,2.71,2.07-3-3.47-5.44-3.86-1.38-.35-1.53-1.2-1.91-2.17-1.69a1.92,1.92,0,0,1-1.25.53,8.41,8.41,0,0,0-2.27,2.1c.57-1,1.28-1.14,1.31-2.34a1.85,1.85,0,0,0,1,.24,4.19,4.19,0,0,1,1.25-.53c1-.93,1.17-2.73-.82-2.63-.12.19.65,1,.62,1.37-2.12,2.21-1.72-2.28-2.95-3a4.18,4.18,0,0,0-4.26-.53h0l-.16.05A2.44,2.44,0,0,0,87.39,12c-.5-.43-1.18-1.31-.63-1.95s1.54.19,2.27.05l.14-.05c-1.08-.47-2.35-1.42-3.22-.47a3.1,3.1,0,0,0-2.24-1.54c.08-1.82-2.51-3-4.13-2.33-1.37.6-1,3.2.74,2.73-.77.06-1.14-1.26-.64-1.93a1.61,1.61,0,0,1,2.07,2.09c-.45.81-1.39,1.29-1.9,2.1C78.74,5.61,73,5.51,70.65,9.8c-2.12.94-2.44-2.53-.26-2.7-1.45-.28-2.93,1.35-2.19,2.72a3.47,3.47,0,0,0-3.11-.07c-.08-6.43-6-2.08-3.83,2.34-3.32-2.68-6.64,2.15-7.75-.11a1.12,1.12,0,0,1,2.07-.34c-.55-2.53-4.53-.68-2.52,2-1.69.55-.94,3.19-2.77,3.34-.87,0-2.07.14-2.63-.64-.54-2.2,3-2.16,2.4.2.81-1.17-.24-2.06-1-2.31-1.91-.51-3.4,2.28-2.17,3.67,1.66.38,3.93,1.11,5.31-.29a7.87,7.87,0,0,0-.08,1.94,20,20,0,0,1-4.87-1.15c-1.3.23-2.86.12-4.21.4,3.59-.89-2-4.26-1.92-1.46.33-.44,1.51-.45,1.73.27.05.22-.4-.41-.55-.26-.79.77-2,1-2.7,1.87-.07-3.74-6.42-3.08-4.44.66a6,6,0,0,0,1.73.92C33.49,16.11,40,17.44,38,22.34c-2.88-3.37-4.35.07-6,1.86-2.83.6-1.27-3.4.5-1.11a1.58,1.58,0,0,0-3.1.42,2.46,2.46,0,0,0,3.82,2c-.28.9.78.62.8,1.57s-1,2.56-1,1.71a2,2,0,0,0-.59-1.5c-.28-.43-1.7-.41-1.59.73,0,0,.59,0,.43.32a.34.34,0,0,1-.47.23c-2.7-1-5.56,1.36-4.74,3-2.76-2.39-5.06,2.19-3,4.24,1.34.81,3.22.51,4.75-.16A13.07,13.07,0,0,0,29,35l.19-.12L29,35a7.69,7.69,0,0,1-1.21.65c-2.4,1.19-5.85,2.64-3.32,5a12.75,12.75,0,0,1-1.67,1.88c1.8-2.75-3.7-2.58-2.44,0,.3-.69,1.09-1.15,1.67-.56-2,.79-3.9,3.39-1.92,5.21-3.08.61-.72,5.7,2,3-3,3-6.36,6.14-3,8.7,1.92,1,2.82,1.76,2.38,2.47-2.38,3.89-5-2.16-1-.23-4.29-3.14-3.75,4.42,1.19,2.13a2.25,2.25,0,0,0-.13,3.92c-2.16,1.7-.89,5.77,1.9,4.79a1.62,1.62,0,0,0,.73-1.31s-.53.26-.69.32C22.1,71.44,22,69,22.27,68.26c1.31-1.29,3.46-1.05,5.17-1.1a4.41,4.41,0,0,0-.77,6.35c0,1.12,0,3,.7,4,.25.18.14.35-.11.41-2,.69-3.67-2.69-.79-2.2.48.23.07-.2-.71-.34-3.18.4-1.3,4,1.56,3.75a32.45,32.45,0,0,0,5.17-.73c-.42.7-2,.82-2.15,1.63-.69-1.37-2.86-.85-3.25.5-.62,2.53,3.1,4.18,4.14,1.41a3.53,3.53,0,0,0,1.11,2.73c-3.69,2.68,1,7.7,1.9,2.84-2.27,2.06-2-.58-.81-1.73,1.1-.28,2.31,0,3.33-.6a4.59,4.59,0,0,0,.38,5.35c.92,1.08,2.66.52,3.53,1.56.87,1.68-1,3.59-2.5,2,1.55,2.75,4.57-.49,3.47-2.65a8.42,8.42,0,0,0,1.81-.09c-1.27,3,2.88,5.86,3.64,3,0-.09-.11.19-.17.25-1.48.94-2.81-1.5-2.2-2.72,1.47-.09,3.13,0,4.41-1-.65,1.63,2.92,4.68.36,5.32-2.09.08-1.67-3.31-.14-1.07a1,1,0,0,0-1.49-.92c-1.78,4.17,6.48,4.45,2.91-1.19a5.2,5.2,0,0,0,2.74.75c1.09,1.46,2.66,2.26,4.06.83.19.89-.79,1.5-1.6,1.4a1.81,1.81,0,0,0,2.72-1c1.28,4.15,6.45,1.16,8.22-1.15.11,6.92,5.78,3.17,8.14-.3,2,2.59,6,4.16,6.45-.34,1.84,1.2,5.1,3.64,6.91,1.27.54.64,1.84,1.82,2.66,1.45a.84.84,0,0,0-.1-1.43c-.41,1-1.48-1-1.74-1.34-.55-.81-.08-1.88-.38-2.8,1.47,1.26,2.6,3.34,4.56,3.93-2.9,3.6,3.77,2.76,2.87-.45a5.9,5.9,0,0,0,2.33-.88c.27,3.25,4.29,3.34,4.14.22-1.17,3.17-3.86-.25-1.6-1.9,2.5-.68,5.5,1.24,5.26-3,.25,1.58,5.28,3,2.89.66.16.76-.53.36-.78.18a4.9,4.9,0,0,1-1.19-2.86A3.77,3.77,0,0,0,111,83.16c1.67,1.09,3.61,4.72.17,4.14.35.53.94.43,1.56.35,2-.15,1.75-2.44,1-3.72s-2.41-2-2.2-3.74c4.15,1.7,4.38-1.48,6.85-3.06,1.41.43.9,2.83,0,3.43,2.27-.73,1.87-5.49-1-4.34a16.85,16.85,0,0,0,0-1.88c1.17,1.89,3.28,1.38,3.7-.56-1.14,1.38-3.39.93-2.09-.75,3-1,1.79-3.83,2-6a2.69,2.69,0,0,0-.27.32c0-.19-.11-.37-.16-.55,5.56,1.74,2.69-6.8,1.06-1.84,1.65-2.34,1.76,2.45-1.42.13C116.32,58.74,120.8,62.45,122.46,59Zm-1.91-4.18c-.21-.28-.43-.57-.65-.84C120.1,54.27,120.83,54.4,120.55,54.81Zm-7-24c1,.28.7,1.24,0,1.72a2.49,2.49,0,0,0-.2-1.76ZM28,34c-7,2-4.13-4.21-2.06-1.66.32.69.45.65.45-.11A8.2,8.2,0,0,0,28.08,34ZM21.55,57.93l-.41-.07c-.05,0-.47-.09,0,0-3-.74-1.19-4.41.42-5.74C20.23,53.66,19.33,56.82,21.55,57.93Zm-.32-8.52h-.09c-1,.26-1.24-.73-1.1-1.53,0-.23.43-.1.65-.15C21.12,47.49,22.18,49.67,21.23,49.41Zm.82-.12H22A2,2,0,0,0,21.92,48a16.75,16.75,0,0,0,2.38.51A18,18,0,0,1,22.05,49.29Zm5.5,22.06c0,.15-.08.31-.1.46a4.22,4.22,0,0,1,1.14-3.88A27.48,27.48,0,0,0,27.55,71.35Zm.6,9.46c.36-1,2.17-1,2.11.19,0-.16,0,0,0,.08C30.42,83,27.74,82.37,28.15,80.81Zm10.31,8.87h0c-1.52-1.14-2-4.74,0-5.61-.36,1.86-.67,4,.28,5.71a1.45,1.45,0,0,1-.22-.09Zm1.6-66.06c-.4-.22-.81-.43-1.22-.62a5.84,5.84,0,0,0,.55-1.19C39.55,22.46,40.14,22.91,40.06,23.62ZM53.48,16c.18-.74,1-2.29,1.87-1.42C54.7,15,53.84,15.31,53.48,16Zm4.11,77.12h0Zm-.25-79.45a4.27,4.27,0,0,1,4.93,1.12A14,14,0,0,0,57.34,13.67ZM64.1,9.62c-.25.62-1.25,2.26-1.45,3-.25-1.77-.65-3.21.17-4.46C63.47,7,64.6,8.8,64.1,9.62ZM74.35,9c2.22-1.1,4.7.75,5.5,2.63C78.47,10.16,76.54,8.29,74.35,9ZM90.5,12.31c-6.12,1.13,1-2.06,2.47.26A6.44,6.44,0,0,0,90.5,12.31Zm4.09,83.38c-.72.38-1.71,0-1.47-1,.51-.48,1.58-.27,2.15,0A1.84,1.84,0,0,1,94.59,95.69Zm4.84-74.32a.61.61,0,0,1-.28.16c0-.49,0-1,0-1.47C99.23,20.5,99.57,20.94,99.43,21.37Zm1,.4h-.12a1.89,1.89,0,0,1,1.16-.11C101.12,21.69,100.78,21.72,100.43,21.77ZM103,90.4a6.59,6.59,0,0,0-1.4-.13,8.74,8.74,0,0,0,.5-1,11.87,11.87,0,0,0,2,1.38Zm3-60.69c.21-.48.4-1,.57-1.45a3.64,3.64,0,0,0,1.44,1.17A16.76,16.76,0,0,0,106.09,29.71Zm6.83,50.46c-.12,0-.24,0-.36,0h0c-.33-.08-1.21.16-1.11-.35a6.41,6.41,0,0,0,2.13.28C113.39,80.14,113.16,80.16,112.92,80.17Zm5.72-8a3.35,3.35,0,0,0-1.3.9c0-.53-.07-1.06-.15-1.59A9.15,9.15,0,0,0,118.64,72.2Z"/><path class="cls-36" d="M21.14,49.42h0Z"/><path class="cls-37" d="M113.48,30.15Z"/><path class="cls-38" d="M21,57.36h0Z"/><path class="cls-39" d="M120.55,54s-.07-.12-.09-.14A.46.46,0,0,0,120.55,54Z"/><path class="cls-40" d="M21,57.36h0Z"/><path class="cls-41" d="M21,57.36c-.47-.09,0,0,0,0h0Z"/><path class="cls-42" d="M118.64,71.54s0,0-.09,0C118.22,71.44,118.2,71.75,118.64,71.54Z"/><path class="cls-43" d="M118.64,71.54a.32.32,0,0,0-.09,0S118.62,71.55,118.64,71.54Z"/><path class="cls-44" d="M20.91,44.51v0S20.92,44.5,20.91,44.51Z"/><path class="cls-45" d="M20.91,44.52a.06.06,0,0,1,0,0h0Z"/><path class="cls-46" d="M118.45,71.47s.06,0,.1,0a.32.32,0,0,1,.09,0l-.16-.07Z"/><polygon class="cls-47" points="20.98 57.36 20.98 57.36 20.98 57.36 20.98 57.36"/><polygon class="cls-48" points="20.92 44.48 20.92 44.47 20.92 44.48 20.92 44.48"/><path class="cls-49" d="M20.93,57.35h0Z"/><path class="cls-50" d="M120.46,53.82s0,0,0,.07l.06.08a.46.46,0,0,1-.09-.14Z"/><path class="cls-51" d="M27.75,34h0Z"/><path class="cls-52" d="M53,15.1a2.66,2.66,0,0,1-.17.4C53,15.22,53,15.11,53,15.1Z"/><path class="cls-53" d="M95,94.49v0h0c0,.39,0-.07,0-.06v0Z"/><path class="cls-54" d="M52.84,15.41a.29.29,0,0,1,0,.09,2.66,2.66,0,0,0,.17-.4S52.89,15.22,52.84,15.41Z"/><path class="cls-55" d="M57.59,93.12s0,0,0,0Z"/><path class="cls-56" d="M95,94.5h0v0S95,94.49,95,94.5Z"/><path class="cls-57" d="M57.52,12.94l-.17.07a.87.87,0,0,1,.28,0C58.5,13,58.21,12.72,57.52,12.94Z"/><path class="cls-58" d="M38.86,22.69Z"/><path class="cls-59" d="M95,94.51v0h0Z"/><path class="cls-60" d="M38.87,22.69a.05.05,0,0,0,0-.05A.05.05,0,0,1,38.87,22.69Z"/><path class="cls-61" d="M38.67,22.67c0-.06.18-.21.23-.07v0C38.92,22.56,38.81,22.44,38.67,22.67Z"/><path class="cls-62" d="M38.67,22.67a.3.3,0,0,0,.19,0h0a.05.05,0,0,0,0-.05v0C38.85,22.46,38.71,22.61,38.67,22.67Z"/><path class="cls-63" d="M57.35,13h.28A.87.87,0,0,0,57.35,13Z"/><path class="cls-64" d="M99.27,20.86h0v0Z"/><path class="cls-65" d="M38.67,22.67a.22.22,0,0,0,.19,0A.3.3,0,0,1,38.67,22.67Z"/><path class="cls-66" d="M52.93,15.12l-.09.29c0-.19.14-.33.15-.31v0S53,15.09,52.93,15.12Z"/><path class="cls-67" d="M99.27,20.85h0v0Z"/><path class="cls-68" d="M52.82,15.5a.29.29,0,0,0,0-.09A.29.29,0,0,1,52.82,15.5Z"/><path class="cls-69" d="M95,94.44Z"/><path class="cls-70" d="M79.68,11s-.75-.83,0,0Z"/><path class="cls-71" d="M95,94.48v0h0Z"/><path class="cls-72" d="M64.09,9.65c-.1.27,0-.1,0-.11s0,.07,0,.11Z"/><path class="cls-73" d="M64.11,9.59l0,0Z"/><path class="cls-74" d="M95,94.48h0Z"/><path class="cls-75" d="M64.09,9.65l0-.06v.06Z"/><path class="cls-76" d="M57.65,13h.28S57.68,13,57.65,13Z"/><path class="cls-77" d="M64.11,9.59l0,.06h0s0-.07,0-.11h0Z"/><path class="cls-78" d="M34,22.46c-.08.08-.17.21-.24.28A1.9,1.9,0,0,0,34,22.46Z"/><path class="cls-79" d="M27.33,29.72a.71.71,0,0,0,.29-.16h0C27.53,29.51,27.36,29.65,27.33,29.72Z"/><path class="cls-80" d="M27.39,29.62l-.06.1c0-.07.2-.21.28-.17h0C27.76,29.44,27.56,29.39,27.39,29.62Z"/><path class="cls-81" d="M103,89.73h0c-.09,0-.15,0,.06,0l.1,0-.15,0Z"/><path class="cls-82" d="M27.62,29.56a.71.71,0,0,1-.29.16S27.63,29.61,27.62,29.56Z"/><path class="cls-83" d="M30.25,80.25Z"/><path class="cls-84" d="M30.27,80.1a.35.35,0,0,0,0,.07h0v.08h0S30.27,80.07,30.27,80.1Z"/><path class="cls-85" d="M30.26,80.17h0v0Z"/><path class="cls-86" d="M30.26,80.17v0Z"/><path class="cls-87" d="M30.26,80.17a.35.35,0,0,1,0-.07v.07Z"/><polygon class="cls-88" points="28.05 34.02 28.05 34.02 28.05 34.02 28.05 34.02"/><path class="cls-89" d="M106.09,29c.66-.13.21-.47,0,0Z"/><path class="cls-90" d="M28.05,34Z"/><path class="cls-91" d="M28,34h0Z"/><path class="cls-92" d="M28,34h0Z"/><path class="cls-93" d="M28.05,34h0Z"/><polygon class="cls-94" points="28.05 34.02 28.05 34.02 28.05 34.02 28.05 34.02"/><polygon class="cls-95" points="28.05 34.02 28.05 34.02 28.05 34.02 28.05 34.02"/><path class="cls-96" d="M27.81,34Z"/><path class="cls-97" d="M27.81,34Z"/><path class="cls-98" d="M100.31,20.79l.12,0h0Z"/><polygon class="cls-99" points="38.44 89.67 38.45 89.68 38.44 89.67 38.44 89.67"/><path class="cls-100" d="M33.85,22.66l-.06.08c.07-.07.16-.2.24-.28h0A.9.9,0,0,0,33.85,22.66Z"/><path class="cls-101" d="M28,34h0Z"/><path class="cls-102" d="M100.31,20.76v0s.06,0,.11,0S100.35,20.7,100.31,20.76Z"/><path class="cls-103" d="M99.26,20.87s0,0,0,0v0Z"/><path class="cls-104" d="M38.42,89.66l0,0h0Z"/><path class="cls-105" d="M38.46,89.68Z"/><path class="cls-106" d="M33.79,22.74l.06-.08Z"/><path class="cls-107" d="M38.87,22.69h0Z"/><path class="cls-108" d="M100.42,20.76s-.11,0-.11,0Z"/><path class="cls-109" d="M34,22.46a.83.83,0,0,0,.08-.12c-.06.06-.11.13-.16.19Z"/><path class="cls-110" d="M33.85,22.66a1.27,1.27,0,0,1,.11-.13Z"/><path class="cls-111" d="M34,22.46l0,0,0,0Z"/><polygon class="cls-112" points="37 20.73 37 20.73 37 20.73 37 20.73"/><polygon class="cls-113" points="21.96 41.98 21.96 41.98 21.96 41.98 21.96 41.98 21.96 41.98"/><path class="cls-114" d="M112.92,80.35h0C113.06,80.35,113,80.35,112.92,80.35Z"/><path class="cls-115" d="M21.2,58.37Z"/><path class="cls-116" d="M118.87,72.55c-.42-.15,0,0,0,0Z"/><path class="cls-117" d="M32.71,28.92c-.07.16-.14.3-.19.45A1.27,1.27,0,0,0,32.71,28.92Z"/><path class="cls-118" d="M57.58,14c1.29,0,0,0,0,0Z"/><path class="cls-119" d="M120.78,55Z"/><path class="cls-120" d="M22,51.36a2.5,2.5,0,0,0,.41-.19Z"/><path class="cls-121" d="M120.78,55v0Z"/><path class="cls-122" d="M122.69,59.34c1.86.7,3.86-2,3.16-3a1.21,1.21,0,0,0-2.31.68c.12-.56,1.33-.95,1.17-.11-1.34,2.39-3.49-.1-3.35-1.92a4.25,4.25,0,0,0,.54.24,1.21,1.21,0,0,1-.25-1.65,3.67,3.67,0,0,0-.53.65c-.25-.58-1.73-2.21-1-2.51,1.15-.53,1.19-1.83,1.09-2.8,3.19-1.11,1.26,3.67-.23,2.14,3.46,3.56,4.83-4.76-.16-3.47-.47.26-.55-.57-.86-.82,2.66.12,2.72-4.28,0-3.55,2.29.51.66,3.18-1,1.81-.54-1-.65-2.49-2-2.77,2.85.13,6.43-3.47,4-6-1.9-1.6-4.31,1.78-1.91,2.76-1.22-1.1,1-3,1.23-1.08-.13,2.21-2.4,3.44-4.11,4.25,4.24-3.08-1.46-5.31-4.47-5.36a16.89,16.89,0,0,0,1.18-1.76c1.51,5.11,9.73-.38,4.47-2.73,3.15,2-2.25,5.38-3,2.25,1.81-1.93,2.06-4.9-1.41-4.34-.39.12-.81-.34-1.25-.35a6.26,6.26,0,0,0,1.17-.48c-3.5,1.14-8.26-3.74-3.17-5,3.53.17,1.79,3.43-1.1,3,6.73,1.76,3.76-7.11-1.37-3.45a3.32,3.32,0,0,0-1.67-1.75c4.72,0,2-6.37-1.32-3.88-.41.78.87,1.46,1.34.81-.24.08-.64,0-.72-.27a1.61,1.61,0,0,1,1.92,1c-.84,2.18-4.5-.16-6.27.88-1.06-9.29,4.67-1.51.48-2.71.81,1,2.24,0,2.1-1.12-.28-2.87-4.25-2-4.11.59-.78-3.58-4.41-.83-5.69.94a7.71,7.71,0,0,0,1.15-3.33c1.93,1.12,3.9-2.23,1.63-3-.39-.12-1,.33-.73.7.86-.85,1.11,1.32,0,1.11-1.31-.84-1.13-3-3.45-3.21-1.47-.23-4.3.57-4.29,2.27-1.88-1.57-.13-2.59,1.57-3a2.86,2.86,0,0,0-3.34.35,2.14,2.14,0,0,0-2.35-1.3,2.69,2.69,0,0,0-3.82-2.67c-1.27.51-.74,2.51.64,2-2.85-1.76,5.35-1.49-.24,3.27-.54-3.27-4.41-5.4-7.22-3.19-1,.61-1.31,2.29-2.6,2.47-2-.43-1.79-3.84.37-3.92-2-.3-3.11,2.15-2.19,3.73A4.13,4.13,0,0,0,65,10.62c.5-6.31-5.72-1.92-3.51,2.48-3.31-2.68-6.12,2.12-7.65-.47-1.18-1.82,2.44-2,1.58.39,1.47-4.08-5.5-2.43-1.62,1.33-2.12.39-1.41,3.54-3.44,3.62-5.65.54-.52-5.95-.31-1.47,1-1.95-2.08-2.77-2.9-1-2.18,3.21,3.14,5.28,5.25,3.11a7.89,7.89,0,0,0-.08,1.94,12.65,12.65,0,0,0-9.27-.8c2.59-1.75-1-5.07-2-2.42,0,0,.12.22.15.16.08-.52.89-.34,1.17-.13,1.2,1.45-2.1,1.76-2.6,2.86-.92-5.31-8.19-1.18-2.82.54-.31-.42-1.66-2.06,0-1.78,2.08.36,1.56,2.92,1.25,4.41-2.7-3.14-3.91-.24-5.13,1.7-3.45.58-3.23-4.13-.61-2C29.62,19.76,28,26.6,32.91,26c.62-.05,0,1.22,0,2.22a2.25,2.25,0,0,1-.18.69,1.27,1.27,0,0,1-.19.45,1.23,1.23,0,0,0,0,1,10.74,10.74,0,0,0-1.7-.06,2.51,2.51,0,0,0,1.69-.9c0-.15.12-.29.19-.45.24-1.26-1.54-2.64-1.86-.94.13.19.21-.14.36-.14.52.08.55.75.41,1.14-3.05-.51-5.67-.85-5.37,3.25-3.53-2.85-6.44,5.81.64,4.45a10.16,10.16,0,0,1,2.57-.78,14.11,14.11,0,0,1-2.57.78c-2.11,1-3.86,2.62-1.44,4.5A14.84,14.84,0,0,0,23,43c1.57-2.85-3.74-2.46-2.46-.21-.3-.7,1.64-1.27,1.39-.61-1.44,1.44-3.32,3.5-1.21,5.33-3.19.26-1.23,4.73,1.27,3.84l.41-.19a2.5,2.5,0,0,1-.41.19c-3.36,1.68-5.76,6.33-.91,8.46.78.35,1.43.4,1.05,1.18-3.08,3.89-5.35-1.65-1.58.1-3.72-2.73-3.1,4.28,1.72,1.45-.65,1.52-1.48,3.78.07,5-3.78,2.06,1.16,6.44,1.9,3-3.39.84-2.43-3.09,3.46-2.45a4.15,4.15,0,0,0-.76,6.14,4.59,4.59,0,0,0,.86,3.22c-.47.53-1.39.22-1.9-.13-2.32-1.51,1.5-2.87,1-.36a1.22,1.22,0,0,0-1.05-1.79c-2.29.28-1.09,3.87,1.17,3.41.23,0,4.46,0,5.74-.45-.42.7-2,1.48-2.15,2.3-.69-1.38-2.86-.85-3.25.5-.68,2.25,2.94,4.2,4.14,1.9a3.53,3.53,0,0,0,1.11,2.73C28.9,88,34.33,91.6,34.24,87.48c-1.14,1.71-2.49.06-.61-.71,1.11-.3,2.33,0,3.37-.61-1.62,2.54-.32,6.35,3,6.35,2.63.77-.19,3.84-1.68,1.8,1.25,2.43,4.78.45,3.55-1.89a9.12,9.12,0,0,0,1.81-.09c-.9,2,3.08,4.16,3.35,1.82-.78.84-2.35-.33-2.07-1.34,1.48-.06,3.13,0,4.4-1-.43,1.39,1.26,2.67.85,3.81a1.53,1.53,0,0,1-1.85-.36c-.9-1.35.61-1.61,1-.21.09-1.79-1.83-1.73-1.75,0,.55,3.21,5.74,1.86,3.73-1.17a3.05,3.05,0,0,0,2.36.85c1,1.27,3,.8,4.11-.15.19.89-.79,1.5-1.6,1.39a1.8,1.8,0,0,0,2.72-1c.79,5.11,6.09,2.63,8.23-.16.1,6.94,5.76,3.15,8.13-.3,2,2.59,6,4.18,6.45-.33,1.83,1.19,5.11,3.62,6.91,1.27,1.55,2.17,4.49-.26,2.33-1,.22,1.47-1.63,0-1.73-.74s0-1.6-.16-2.38c1.43,1,2.06,2.9,3.9,3.33-2.39,3.15,4.54,3.63,3.53.14a5.85,5.85,0,0,0,2.34-.88c.31,2.92,5.08,2,3.9-.79.2,2.4-3.79,1.81-2.16-.28,2.07-2.2,6.39,1.41,6-3.58,2.11,3.85,5.22-.5,2.66-.35a.37.37,0,0,1,0,.68c-1.14.14-1.62-1.45-1.71-2.35a3.76,3.76,0,0,0,3.65-3.06c.58.85,1.84,1.21,2,2.3s-1.34,1.41-2.07.83c1.65,2.08,4.23-.74,2.64-2.54-.93-1.08-2.26-1.93-2.08-3.56,5.55,2,4.21-2.74,6.81-3.52,1.19.56.79,2.35-.23,2.88,2.58-.49,1.69-5-.94-3.83a10.5,10.5,0,0,0,.19-1.37c1.16,1.58,3.6.1,3.47-1.58a2.38,2.38,0,0,1-1.8,1.17c-.54,0-.85-.61-.23-.82,3.22-1.13,2-3.74,2.18-6.13a2,2,0,0,0-.27.31l-.16-.55c5,.64,2.9-7,.83-2.85,3.12-2.74-.13,6.11-2.7-1.95C118.86,61,122.71,62.4,122.69,59.34ZM120.78,55s-.42-.57-.64-.84C120.34,54.45,121.05,54.57,120.78,55ZM113.7,31.16h0c1,.25.79,1.23.1,1.74a2.49,2.49,0,0,0-.2-1.76ZM21.2,58.37c-2.8-.62-1.58-4.36-.06-5.73-1.52,1.71-2.13,4.77.47,5.8l-.41-.07Zm-.05-12.88h0a2.07,2.07,0,0,1,.68-1.09,2.56,2.56,0,0,0-.18,2.4,1.91,1.91,0,0,1-.5-1.3S21.13,45.68,21.15,45.49Zm.42,4.44c-.86.34-1.9-.92-.94-1.43S22.66,50.1,21.57,49.93Zm.66-.11a3.6,3.6,0,0,0-.08-1.28,8.18,8.18,0,0,0,1.64.7A8.15,8.15,0,0,1,22.23,49.82Zm1.26,10.35a3.44,3.44,0,0,0-.79-1.31,7.61,7.61,0,0,0,1.42.29C23.9,59.48,23.69,59.83,23.49,60.17Zm.6-11.08h0c-.28-.09-.59-.49-.84-.68a6.9,6.9,0,0,0,1.08.56Zm3.09,23.07a4.27,4.27,0,0,1,1.14-3.88A27.79,27.79,0,0,0,27.18,72.16ZM24.41,32.74c1.37-1.39,2.66,1.59.86,2a1.5,1.5,0,0,0,1.38-1.51A8.2,8.2,0,0,0,28.31,35h0C26.18,35.46,21.73,35.45,24.41,32.74Zm3.15-2v0h0v0c.42-.62,1.94-.74,2.75-.44A9.52,9.52,0,0,0,27.56,30.73Zm.79,50.33c.37-1.19,2.29-.84,2.15,0C30.69,83.12,28.17,82.74,28.35,81.06ZM38.69,90.7c-.07,0,0,0,0,0-1.53-1.12-2-4.76-.06-5.62-.36,1.86-.67,4,.28,5.71Zm.21-67s.41-.79.56-1.2c.18.61.68,1.15.66,1.81C39.72,24.08,38.9,23.69,38.9,23.69Zm14.27-7.18a3.43,3.43,0,0,1,.21-.73c.07-.31.48-1.2,1.19-1A4.11,4.11,0,0,0,53.17,16.51Zm4.65,77.62h0ZM57.58,14a4.24,4.24,0,0,1,4.92,1.12A13.94,13.94,0,0,0,57.58,14Zm5.3-.4h0a22.77,22.77,0,0,1-.32-2.32,1.53,1.53,0,0,0,1.29.28A6,6,0,0,0,62.88,13.62Zm1.46-3a1.31,1.31,0,0,1-1.71.71c-.32-.64.3-3.18,1.3-2.32a1.5,1.5,0,0,1,.41,1.61C64.43,10.38,64.26,10.81,64.34,10.6ZM71.68,13c-.3-.25-.62-.5-.94-.73a2.87,2.87,0,0,0,1.67-1A7.31,7.31,0,0,0,71.68,13Zm2.74-3.62c2.22-1.12,4.72.78,5.5,2.63C78.54,10.51,76.6,8.63,74.42,9.33ZM87.75,13c1.24-1.17,3.9-1.55,5.12-.11A10.33,10.33,0,0,0,87.75,13Zm5.37,81.7c.54.15,2.13.29,2.08.73C94.82,97,92,96.25,93.12,94.73ZM99.5,21.87c0,.17-.17.14-.29.18q0-.74.06-1.47C99.31,21,99.64,21.58,99.5,21.87Zm3.83,68.89a4.48,4.48,0,0,0-1.46-.15,8.6,8.6,0,0,0,.5-1,11.87,11.87,0,0,0,2,1.38Zm3-60.7c.21-.48.41-1,.58-1.45a3.55,3.55,0,0,0,1.43,1.17A17,17,0,0,0,106.32,30.06Zm6.62,50.3c-.25,0-.13,0,0,0-.37,0-1.27.17-1.19-.34a6.16,6.16,0,0,0,2.13.28C113.55,80.33,113.25,80.34,112.94,80.36Zm5.93-7.81a3.36,3.36,0,0,0-1.3.89c0-.52-.07-1.06-.15-1.58A9.15,9.15,0,0,0,118.87,72.55Z"/><path class="cls-123" d="M26.89,36.68a14.11,14.11,0,0,0,2.57-.78A10.16,10.16,0,0,0,26.89,36.68Z"/><path class="cls-124" d="M113.71,31.16h0S113.71,31.16,113.71,31.16Z"/><path class="cls-125" d="M28.28,35Z"/><path class="cls-126" d="M87.75,13c1.3-.29,0,0,0,0Z"/><polygon class="cls-127" points="21.15 45.49 21.15 45.49 21.15 45.5 21.15 45.49"/><path class="cls-128" d="M64.34,10.6c-.08.21.09-.22,0,0Z"/><path class="cls-129" d="M27.18,72.16c.23-1.1,0,0,0,0Z"/><path class="cls-130" d="M38.68,90.69h0S38.7,90.7,38.68,90.69Z"/><path class="cls-131" d="M27.57,30.71Z"/><path class="cls-132" d="M22.24,49.78s0,0,0,0Z"/><path class="cls-133" d="M103.33,90.76Z"/><path class="cls-134" d="M22.23,49.82v0Z"/><path class="cls-135" d="M23.49,60.17v0Z"/><path class="cls-136" d="M23.48,60.1s0,0,0,0Z"/><path class="cls-137" d="M23.48,60.15v0Z"/><path class="cls-138" d="M103.22,63.67c-4-.45-6.12,15.3-4,16.22,1.17.51,5-.94,5.85-10.18C106.42,66,106.55,64.05,103.22,63.67Z"/><path class="cls-139" d="M101.87,71.22a5.44,5.44,0,0,1-1.63,5.25s3.07-2.21,3.33-4.3c.49-4-1.27-4.37-.52-5.35.6-.79,2,1.29,2,1.29C105.75,62.79,100,63.69,101.87,71.22Z"/><path class="cls-140" d="M42.89,63.67c-3.32.38-3.19,2.3-1.88,6C41.87,79,45.6,80,46.87,79.89,52.26,79.33,46.92,63.22,42.89,63.67Z"/><path class="cls-141" d="M44.25,71.22c1.9-7.53-3.88-8.43-3.17-3.11,0,0,1.39-2.08,2-1.29.75,1-1,1.32-.52,5.35.26,2.09,3.33,4.3,3.33,4.3A5.44,5.44,0,0,1,44.25,71.22Z"/><path class="cls-3" d="M68.8,27s-15.15.54-18.93,9c-4,9.05-4.18,17.11-3.32,28.75,1.15,15.58,3.84,23,7.56,27.73,2.52,3.2,8.73,11.77,10.9,13,3.52,1.93,14.26,1.64,17.6-.51,2.93-1.9,6.58-6.51,10.84-12.14,3.47-4.59,5.44-17.3,5.44-17.3-.23-8,1-7.86,1.29-14.76C101.14,35.88,91,25.58,68.8,27Z"/><path class="cls-142" d="M79,56.29C77.44,57.73,76.07,67,77.59,67.56a23.41,23.41,0,0,0,17.88-1C95.88,52.31,79,56.29,79,56.29Z"/><path class="cls-143" d="M50.2,66.78s7.2,5.37,18.23,1.64c1.53-.52-.49-10.24-1.61-12C66.82,56.46,50.23,51,50.2,66.78Z"/><path class="cls-144" d="M85.08,82.38c4.78.46,12.56,1.94,13.91-6.33,1.27-7.8.69-8.62-1.68-9.26-3.88-1-14.66,1.29-15.45,1.88C75.53,73.41,76.6,81.56,85.08,82.38Z"/><path class="cls-145" d="M61.88,67.94C61,67.45,51.7,65.56,48,67.13c-1.68.71-1.38,4.54-.1,12.9,1.41,9.2,8.89,4.13,12,2.41C67.34,78.28,68.82,71.7,61.88,67.94Z"/><polygon class="cls-146" points="73.28 77.42 66.56 76.48 66.38 77.1 73.77 81.23 80.45 77.28 79.92 76.48 73.28 77.42"/><path class="cls-147" d="M70.44,26.94C51.27,29.19,45.79,39.19,44.78,48.51c-.32,3,2.31,22.92,2.45,25.77.67-6.58,1-8.57,2.07-11.87,1.75-5.07,1-8.15,3.58-14.83,3-7.7,11.31-8.51,18-8.63,14.26-.27,17.37-.6,21.45,9.3C95,54.87,95.22,58,96.56,62.16c1.69,4.33,1.94,7,2.48,11.77,0,0,.47-24.71,0-30C98.4,37.05,92.79,24.31,70.44,26.94Z"/><path class="cls-148" d="M95.14,69.11c-.86-.5-1.5.22-3.29.83s-6.57,1.51-4.31,2.77c2.5,1.38,6-.52,6.41-.87S96.21,69.72,95.14,69.11Z"/><path class="cls-149" d="M53.83,69.15C52,68.64,51.33,68,50.5,68.5c-1,.67.89,2.33,1.33,2.66s4,2,6.44.53C60.47,70.32,55.62,69.65,53.83,69.15Z"/><path class="cls-150" d="M83.69,77.64c7.48,5.74,5.55,12,5.55,12,1.44-3.19,2.15-6.84,1.93-7.71C90.43,79.08,83.69,77.64,83.69,77.64Z"/><path class="cls-151" d="M55.2,82.43a35.42,35.42,0,0,0,1.85,6.62,9.91,9.91,0,0,1,4.51-10.84S54.75,79.44,55.2,82.43Z"/><path class="cls-152" d="M67.06,94.7a54.17,54.17,0,0,1,13.56.1C74.48,91.18,67.06,94.7,67.06,94.7Z"/><path class="cls-153" d="M73.14,106.34a21.13,21.13,0,0,1-13.82-5.77A18.16,18.16,0,0,0,73.7,107.9c9.25,0,12.87-6.56,12.87-6.56A18.67,18.67,0,0,1,73.14,106.34Z"/><path class="cls-154" d="M91.47,55.22c-3.36-1.77-7.24-1.18-10.71-.94-1.32.09-2.86,2.66-1.43,2.87,2.69.4,6.74-.44,9.91.15,3.71.7,5.91,4.25,5.91,4.25S92.76,55.9,91.47,55.22Z"/><path class="cls-155" d="M65,54.28c-3.47-.24-7.35-.83-10.71.94-1.29.68-3.68,6.32-3.68,6.32s2.2-3.55,5.91-4.24c3.16-.59,7.22.25,9.91-.14C67.89,57,66.36,54.38,65,54.28Z"/><path class="cls-156" d="M79.48,24.66C70.86,24,62.86,24.8,58,26.3c-4.6,1.41-12.56,8.8-13.45,17.28-.37,3.53-.24,20-.24,20s1.39.9,2.94,11.68c0-4.65,2.6-20.25,3-23.47.6-5,2.28-8.79,5-10.89,8.24-6.39,27.44-6.86,34-1a21.77,21.77,0,0,1,6,11.28c.57,3.45,3.59,17.92,3.84,24.89.22-1.74,1.11-6.2,1.11-6.2s.66-5,1.62-5.56c-.1-4.31-.58-20.11-1.65-23.49C98.66,36.38,94.28,25.85,79.48,24.66Z"/><path class="cls-157" d="M69.85,82.48a48.89,48.89,0,0,0-11.11,1.46A21.1,21.1,0,0,0,66,88.54c6,2.55,11.1,1.54,15.73-1.07,3-1.72,4.14-2.12,6.2-3.85C88.17,83.44,78.28,82.35,69.85,82.48Z"/><path class="cls-158" d="M80.14,86.38a37.63,37.63,0,0,1-7.2.92,42.54,42.54,0,0,1-7.64-.86c-.72-.13-1,1.34-1,1.34,2.37,1.34,4.61,1.94,8.47,1.94a18.63,18.63,0,0,0,9.1-2.29S81.06,86.19,80.14,86.38Z"/><path class="cls-159" d="M62.65,82.72s.05,2.83,1.44,3.48c.81.38,2.61,1.88,9.63,1.64s8.4-2.08,8.72-2.4c.6-.6.87-3,.87-3S72.74,84.74,62.65,82.72Z"/><path class="cls-160" d="M62.88,84.33c.19.34,5.78.32,10,.35s10-.26,10.12-.57a10.41,10.41,0,0,0,.35-1.78s-6.17,0-20.73.25A5.92,5.92,0,0,0,62.88,84.33Z"/><path class="cls-161" d="M58.65,84.17A86.06,86.06,0,0,1,73.07,83a126.54,126.54,0,0,1,15,1.21s-5.3-3.79-14.88-3.93S58.65,84.17,58.65,84.17Z"/><path class="cls-162" d="M73.62,90.45c-2.3,0-4.56-.46-4.56,0s2,1.48,4.29,1.48,4.57-1,4.57-1.48S75.92,90.45,73.62,90.45Z"/><path class="cls-163" d="M72.56,89.09C63.25,88.63,59,84.17,59,84.17c2.18,2.36,5.65,5.65,14,5.84s14.56-6,14.56-6A24.73,24.73,0,0,1,72.56,89.09Z"/><path class="cls-164" d="M64.28,96.46a66.45,66.45,0,0,1-5-5.56c-.21-.33-.67-6.12-.67-6.12l-1.29,7.77,5.28,6.21h7.23l.24-4.11L67.75,97S64.55,96.46,64.28,96.46Z"/><path class="cls-165" d="M86.73,90.79a63.29,63.29,0,0,1-4.41,5.49c-.28,0-4,.87-4,.87l-2.37-2.61.24,4.1h7.23l5.28-6.21L87.4,84.66S86.94,90.45,86.73,90.79Z"/><path class="cls-166" d="M59.35,60.62a8.28,8.28,0,0,0-5.44,1.54,5.69,5.69,0,0,0-1.78,4c0,.49.93,2.84,5.67,3.09,3.09.17,8-.4,9.15-1.75.57-.64,0-2.07-.26-3C65.78,61.78,63.7,60.82,59.35,60.62Z"/><path class="cls-167" d="M62.3,62.83c-5.5-.72-8.2,2.65-8.2,2.65A2.75,2.75,0,0,0,56,68.12a16.68,16.68,0,0,0,8.32,0A3.71,3.71,0,0,0,66,66.63S64.58,63.13,62.3,62.83Z"/><path class="cls-168" d="M59,62.3c-2.47-.24-4.94,3.18-4.94,3.18a4.18,4.18,0,0,0,.23,1.1,6.88,6.88,0,0,1,3.47-1c6.89-.41,8.19,1,8.19,1C65.46,63.52,61.52,62.55,59,62.3Z"/><path class="cls-169" d="M60,63.25c-2.1.12-3.94,1.25-3.65,3.43A2.72,2.72,0,0,0,57,68.33a12.59,12.59,0,0,0,3,.37,16.56,16.56,0,0,0,3.37-.36A4.36,4.36,0,0,0,64,66.42C64.07,64.17,62.09,63.12,60,63.25Z"/><path class="cls-170" d="M59.25,63.11a3.16,3.16,0,0,0-2.91,2.7,22.27,22.27,0,0,1,7.61,0C63.64,63.72,61.89,62.91,59.25,63.11Z"/><path class="cls-171" d="M60,63.56a2.33,2.33,0,1,0,2.39,2.26A2.33,2.33,0,0,0,60,63.56Z"/><path class="cls-172" d="M62.25,65.54a1,1,0,0,0-1.33.39,1,1,0,0,0,.46,1.33,1,1,0,0,0,1.34-.39A1,1,0,0,0,62.25,65.54Z"/><path class="cls-172" d="M60,64.6a.78.78,0,0,0-1.06.3.8.8,0,0,0,.37,1A.76.76,0,1,0,60,64.6Z"/><polygon class="cls-173" points="54.1 65.48 54.1 65.48 54.1 65.48 54.1 65.48"/><path class="cls-174" d="M54.1,65.48Z"/><path class="cls-175" d="M64.16,63a8.25,8.25,0,0,0-8.22-.3,5.53,5.53,0,0,0-1.84,2.74,10.65,10.65,0,0,1,5.81-1.71,14.35,14.35,0,0,1,3,.47A5.78,5.78,0,0,1,66,66.62,4,4,0,0,0,64.16,63Z"/><path class="cls-176" d="M86.47,60.74c-4.34.2-6.42,1.16-7.33,3.93-.29.88-.83,2.31-.27,3C80,69,84.93,69.54,88,69.37c4.73-.25,5.61-2.6,5.66-3.09a5.69,5.69,0,0,0-1.78-4A8.25,8.25,0,0,0,86.47,60.74Z"/><path class="cls-177" d="M83.52,63c-2.28.3-3.7,3.8-3.7,3.8a3.76,3.76,0,0,0,1.71,1.53,16.72,16.72,0,0,0,8.33,0,2.75,2.75,0,0,0,1.86-2.64S89,62.23,83.52,63Z"/><path class="cls-168" d="M86.78,62.42c-2.48.25-6.41,1.22-7,4.31,0,0,1.3-1.41,8.19-1a7,7,0,0,1,3.47,1,3.8,3.8,0,0,0,.23-1.1S89.26,62.18,86.78,62.42Z"/><path class="cls-178" d="M85.83,63.37c-2.09-.13-4.08.92-4,3.18a4.65,4.65,0,0,0,.58,1.91,16.56,16.56,0,0,0,3.37.36,12.59,12.59,0,0,0,3-.37,2.72,2.72,0,0,0,.65-1.65C89.77,64.62,87.93,63.49,85.83,63.37Z"/><path class="cls-179" d="M86.57,63.23c-2.64-.2-4.38.61-4.7,2.73a22.28,22.28,0,0,1,7.61,0A3.16,3.16,0,0,0,86.57,63.23Z"/><path class="cls-180" d="M85.82,63.68a2.33,2.33,0,1,0,2.27,2.4A2.34,2.34,0,0,0,85.82,63.68Z"/><path class="cls-172" d="M88.1,65.66a1,1,0,0,0-1.34.39,1,1,0,0,0,.47,1.33A1,1,0,0,0,88.57,67,1,1,0,0,0,88.1,65.66Z"/><path class="cls-172" d="M85.82,64.72a.78.78,0,0,0-1.06.3.8.8,0,0,0,.36,1,.76.76,0,1,0,.7-1.35Z"/><path class="cls-181" d="M89.88,62.86a8.38,8.38,0,0,0-8.21.3,4,4,0,0,0-1.84,3.58,5.73,5.73,0,0,1,3.06-2.38,14.23,14.23,0,0,1,3-.47,10.65,10.65,0,0,1,5.81,1.71A5,5,0,0,0,89.88,62.86Z"/><path class="cls-182" d="M73.47,77.83c-10.22,0-15.25,3.43-16.11,4.27-.54.52-2.39,6.33-2.39,6.33l3.57,5s-.22-9.12.11-9.26a29.29,29.29,0,0,1,14.1-3.66,31.4,31.4,0,0,1,14.72,3.66L88,93.58l3.17-4.65s-1.57-5.87-2.4-6.6C87.48,81.18,81.15,77.83,73.47,77.83Z"/><path class="cls-183" d="M91,87.66,87,92.2s-3.77,4.74-4.46,5a39.09,39.09,0,0,1-4.72.67s-1.65-3.25-2.31-3.73-4.52-.36-5,0a23,23,0,0,0-2.16,3.71s-4.39-.52-4.85-.9-4.74-5.2-4.74-5.2l-3.08-4s-5.27-3-8.43-12.56c.68,4.79.41,7.6,1.32,10.88.59,2.12,7.61,12.51,8.52,13.77,3.43,4.79,9.38,8.35,18,8,6-.25,12.89-6.61,14.7-8.7,1.49-1.72,7.48-10.72,8.39-13S99.25,79.89,99,76A23.21,23.21,0,0,1,91,87.66Z"/><path class="cls-184" d="M75.89,77.58c3.3-.84,4.6-.34,4.6-.34C78.57,75.52,75.89,77.58,75.89,77.58Z"/><path class="cls-185" d="M66.56,77a9.62,9.62,0,0,1,4.3.62S68.33,75.65,66.56,77Z"/><path class="cls-186" d="M78.44,72c1.27,2,2.19,3.1.86,3.94-.72.48-3.39.72-6.06.73s-5.18-.2-5.94-.64c-1.32-.69-.56-2.07.62-4.28a17.65,17.65,0,0,0-1.56,1.38c-1.57,1.45-1.71,4,0,4a3.64,3.64,0,0,1,2.33-.4c1.56.28,1.25,1.91,4.87,2,3.15,0,2.15-1.51,4.15-1.81s2.27.24,2.72.44C81.46,77.28,82.44,74.1,78.44,72Z"/><path class="cls-187" d="M73.76,72.52c-1.52,0-6,.38-6,1.73,0,3.18,10.92,1.71,11.25.48S76.18,72.52,73.76,72.52Z"/><path class="cls-3" d="M73,77a17.7,17.7,0,0,0,3.88-.56l-7.18,0A16.08,16.08,0,0,0,73,77Z"/><path class="cls-188" d="M64.25,91.22c.69,1,3.81,2.73,9.28,2.8s7.67-2.48,7.67-2.48a18.78,18.78,0,0,1-8.38,1.65A19.6,19.6,0,0,1,64.25,91.22Z"/><path class="cls-189" d="M57.18,100.07s5.24,9,16.13,9c9,0,16.46-9.93,16.46-9.93s-8.3,7.8-16,8.1C63.54,107.66,57.18,100.07,57.18,100.07Z"/></svg>