    <svg id="Layer_2" data-name="Layer 1" xmlns="http://www.w3.org/2000/svg" xmlns:xlink="http://www.w3.org/1999/xlink" viewBox="0 0 144 144"><defs><style>.cls-1{fill:#f6ece6;}.cls-2{fill:url(#linear-gradient);}.cls-3{fill:url(#linear-gradient-2);}.cls-4{fill:url(#linear-gradient-3);}.cls-5{fill:#373737;}.cls-6{fill:url(#linear-gradient-4);}.cls-7{fill:url(#linear-gradient-5);}.cls-8{fill:url(#linear-gradient-6);}.cls-9{fill:url(#linear-gradient-7);}.cls-10{fill:url(#linear-gradient-8);}.cls-11{fill:url(#linear-gradient-9);}.cls-12{fill:url(#linear-gradient-10);}.cls-13{fill:url(#linear-gradient-11);}.cls-14{fill:url(#linear-gradient-12);}.cls-15{fill:url(#linear-gradient-13);}.cls-16{fill:url(#linear-gradient-14);}.cls-17{fill:url(#linear-gradient-15);}.cls-18{fill:url(#linear-gradient-16);}.cls-19{fill:url(#linear-gradient-17);}.cls-20{fill:url(#linear-gradient-18);}.cls-21{fill:url(#linear-gradient-19);}.cls-22{fill:url(#linear-gradient-20);}.cls-23{fill:url(#linear-gradient-21);}.cls-24{fill:url(#linear-gradient-22);}.cls-25{fill:url(#linear-gradient-23);}.cls-26{fill:url(#linear-gradient-24);}.cls-27{fill:#f1c99a;}.cls-28{fill:url(#linear-gradient-25);}.cls-29{fill:url(#linear-gradient-26);}.cls-30{fill:#f7d9ab;}.cls-31{fill:url(#linear-gradient-27);}.cls-32{fill:url(#linear-gradient-28);}.cls-33{fill:url(#linear-gradient-29);}.cls-34{fill:url(#linear-gradient-30);}.cls-35{fill:url(#linear-gradient-31);}.cls-36{fill:url(#linear-gradient-32);}.cls-37{fill:url(#linear-gradient-33);}.cls-38{fill:url(#linear-gradient-34);}.cls-39{fill:url(#linear-gradient-35);}.cls-40{fill:url(#linear-gradient-36);}.cls-41{fill:url(#linear-gradient-37);}.cls-42{fill:#e1b58c;}.cls-43{fill:url(#linear-gradient-38);}.cls-44{fill:url(#linear-gradient-39);}.cls-45{fill:#972a2e;}.cls-46{fill:#fcddb3;}.cls-47{fill:url(#linear-gradient-40);}.cls-48{fill:url(#linear-gradient-41);}.cls-49{fill:url(#linear-gradient-42);}.cls-50{fill:#f2eceb;}.cls-51{fill:url(#linear-gradient-43);}.cls-52{fill:url(#linear-gradient-44);}.cls-53{fill:url(#linear-gradient-45);}.cls-54{fill:url(#linear-gradient-46);}.cls-55{fill:url(#linear-gradient-47);}.cls-56{fill:url(#linear-gradient-48);}.cls-57{fill:url(#linear-gradient-49);}.cls-58{fill:url(#linear-gradient-50);}.cls-59{fill:url(#linear-gradient-51);}.cls-60{fill:#ddd;}.cls-61{fill:url(#linear-gradient-52);}.cls-62{fill:url(#linear-gradient-53);}.cls-63{fill:url(#radial-gradient);}.cls-64{fill:#fff;}.cls-65{fill:#3c3c3b;}.cls-66{fill:url(#linear-gradient-54);}.cls-67{fill:url(#linear-gradient-55);}.cls-68{fill:url(#linear-gradient-56);}.cls-69{fill:url(#linear-gradient-57);}.cls-70{fill:url(#radial-gradient-2);}.cls-71{fill:url(#linear-gradient-58);}.cls-72{fill:url(#linear-gradient-59);}.cls-73{fill:url(#linear-gradient-60);}.cls-74{fill:url(#linear-gradient-61);}.cls-75{fill:url(#linear-gradient-62);}</style><linearGradient id="linear-gradient" x1="74.27" y1="102.64" x2="78.28" y2="135.16" gradientUnits="userSpaceOnUse"><stop offset="0" stop-color="#f1f0f4"/><stop offset="0.64" stop-color="#f9f8fa"/><stop offset="1" stop-color="#fff"/></linearGradient><linearGradient id="linear-gradient-2" x1="73.14" y1="90.69" x2="75.7" y2="136.95" gradientUnits="userSpaceOnUse"><stop offset="0" stop-color="#e2e2e5"/><stop offset="1" stop-color="#f1f0f4"/></linearGradient><linearGradient id="linear-gradient-3" x1="73.57" y1="91.23" x2="75.85" y2="132.55" xlink:href="#linear-gradient-2"/><linearGradient id="linear-gradient-4" x1="69.42" y1="105.57" x2="74.61" y2="105.57" gradientUnits="userSpaceOnUse"><stop offset="0" stop-color="#2d2e2d"/><stop offset="1" stop-color="#373737"/></linearGradient><linearGradient id="linear-gradient-5" x1="76.72" y1="113.63" x2="76.01" y2="129.9" xlink:href="#linear-gradient-4"/><linearGradient id="linear-gradient-6" x1="74.61" y1="105.33" x2="80.71" y2="105.33" xlink:href="#linear-gradient-4"/><linearGradient id="linear-gradient-7" x1="75.42" y1="117.83" x2="75.22" y2="110.02" xlink:href="#linear-gradient-4"/><linearGradient id="linear-gradient-8" x1="90.17" y1="89.4" x2="45.99" y2="86.21" gradientUnits="userSpaceOnUse"><stop offset="0" stop-color="#f7d9ab"/><stop offset="0.13" stop-color="#f5d4a5"/><stop offset="0.47" stop-color="#f2cc9d"/><stop offset="1" stop-color="#f1c99a"/></linearGradient><linearGradient id="linear-gradient-9" x1="81.16" y1="123.8" x2="74.37" y2="91.62" gradientUnits="userSpaceOnUse"><stop offset="0" stop-color="#f7d9ab"/><stop offset="0.51" stop-color="#f3ce9f"/><stop offset="1" stop-color="#f1c99a"/></linearGradient><linearGradient id="linear-gradient-10" x1="89.42" y1="98.54" x2="90.47" y2="117.1" xlink:href="#linear-gradient"/><linearGradient id="linear-gradient-11" x1="60.29" y1="100.19" x2="61.34" y2="118.75" xlink:href="#linear-gradient"/><linearGradient id="linear-gradient-12" x1="84.86" y1="90.97" x2="84.56" y2="133.12" xlink:href="#linear-gradient"/><linearGradient id="linear-gradient-13" x1="62.94" y1="92.13" x2="62.64" y2="134.2" xlink:href="#linear-gradient"/><linearGradient id="linear-gradient-14" x1="77.65" y1="94.61" x2="94.32" y2="94.61" gradientUnits="userSpaceOnUse"><stop offset="0" stop-color="#fff"/><stop offset="0.36" stop-color="#f9f8fa"/><stop offset="1" stop-color="#f1f0f4"/></linearGradient><linearGradient id="linear-gradient-15" x1="53.53" y1="102.12" x2="85.53" y2="83.91" xlink:href="#linear-gradient-14"/><linearGradient id="linear-gradient-16" x1="72.19" y1="100.29" x2="75.43" y2="225.78" gradientUnits="userSpaceOnUse"><stop offset="0" stop-color="#17b287"/><stop offset="0.06" stop-color="#16b085"/><stop offset="1" stop-color="#05946a"/></linearGradient><linearGradient id="linear-gradient-17" x1="117.24" y1="128.41" x2="103.13" y2="83.01" gradientUnits="userSpaceOnUse"><stop offset="0" stop-color="#37ba95"/><stop offset="1" stop-color="#17b287"/></linearGradient><linearGradient id="linear-gradient-18" x1="21.19" y1="103.61" x2="52.3" y2="103.61" xlink:href="#linear-gradient-17"/><linearGradient id="linear-gradient-19" x1="73.41" y1="93.64" x2="75.54" y2="142.35" xlink:href="#linear-gradient-17"/><linearGradient id="linear-gradient-20" x1="121.75" y1="108.84" x2="124.83" y2="137.89" gradientUnits="userSpaceOnUse"><stop offset="0" stop-color="#17b287"/><stop offset="0.17" stop-color="#12aa80"/><stop offset="0.64" stop-color="#099a70"/><stop offset="1" stop-color="#05946a"/></linearGradient><linearGradient id="linear-gradient-21" x1="20.62" y1="109.67" x2="24" y2="141.55" xlink:href="#linear-gradient-20"/><linearGradient id="linear-gradient-22" x1="125.36" y1="106.85" x2="126.53" y2="211.71" xlink:href="#linear-gradient-16"/><linearGradient id="linear-gradient-23" x1="20.4" y1="107.81" x2="21.58" y2="213.9" xlink:href="#linear-gradient-16"/><linearGradient id="linear-gradient-24" x1="73.57" y1="84.63" x2="72.67" y2="146.05" xlink:href="#linear-gradient-20"/><linearGradient id="linear-gradient-25" x1="43.17" y1="54.46" x2="48.4" y2="67.14" gradientUnits="userSpaceOnUse"><stop offset="0" stop-color="#dba879"/><stop offset="0.49" stop-color="#e4b687"/><stop offset="1" stop-color="#f1c99a"/></linearGradient><linearGradient id="linear-gradient-26" x1="96.82" y1="55.11" x2="101.39" y2="66.2" xlink:href="#linear-gradient-25"/><linearGradient id="linear-gradient-27" x1="85.15" y1="61.3" x2="84.36" y2="52.06" gradientUnits="userSpaceOnUse"><stop offset="0" stop-color="#f7d9ab"/><stop offset="0.53" stop-color="#f6d6a8"/><stop offset="0.87" stop-color="#f3cea0"/><stop offset="1" stop-color="#f1c99a"/></linearGradient><linearGradient id="linear-gradient-28" x1="76.63" y1="48.37" x2="92.47" y2="48.37" gradientUnits="userSpaceOnUse"><stop offset="0" stop-color="#777"/><stop offset="0.33" stop-color="#737373"/><stop offset="0.68" stop-color="#676766"/><stop offset="1" stop-color="#555554"/></linearGradient><linearGradient id="linear-gradient-29" x1="60.15" y1="61.39" x2="59.39" y2="52.53" xlink:href="#linear-gradient-27"/><linearGradient id="linear-gradient-30" x1="72.21" y1="80.18" x2="74.28" y2="94.04" gradientUnits="userSpaceOnUse"><stop offset="0" stop-color="#ffdeb3"/><stop offset="1" stop-color="#f7d9ab"/></linearGradient><linearGradient id="linear-gradient-31" x1="87.74" y1="69.35" x2="59.83" y2="31.21" gradientUnits="userSpaceOnUse"><stop offset="0" stop-color="#f7d9ab"/><stop offset="0.49" stop-color="#f5d4a6"/><stop offset="1" stop-color="#f1c99a"/></linearGradient><linearGradient id="linear-gradient-32" x1="70.89" y1="16.4" x2="71.95" y2="49.5" gradientUnits="userSpaceOnUse"><stop offset="0" stop-color="#919090"/><stop offset="0.23" stop-color="#868585"/><stop offset="0.63" stop-color="#797979"/><stop offset="1" stop-color="#757575"/></linearGradient><linearGradient id="linear-gradient-33" x1="93.08" y1="59.07" x2="80.41" y2="66.96" gradientUnits="userSpaceOnUse"><stop offset="0" stop-color="#ffdeb3"/><stop offset="0.28" stop-color="#fbdcaf"/><stop offset="1" stop-color="#f7d9ab"/></linearGradient><linearGradient id="linear-gradient-34" x1="63.24" y1="65.39" x2="50.84" y2="59.75" gradientUnits="userSpaceOnUse"><stop offset="0" stop-color="#f7d9ab"/><stop offset="0.72" stop-color="#fbdcaf"/><stop offset="1" stop-color="#ffdeb3"/></linearGradient><linearGradient id="linear-gradient-35" x1="48.6" y1="37.64" x2="88.38" y2="37.64" xlink:href="#linear-gradient-28"/><linearGradient id="linear-gradient-36" x1="83.7" y1="78.69" x2="83.68" y2="77.63" gradientUnits="userSpaceOnUse"><stop offset="0" stop-color="#f7d9ab"/><stop offset="0.53" stop-color="#f6d7a8"/><stop offset="0.87" stop-color="#f4cfa0"/><stop offset="1" stop-color="#f2ca9a"/></linearGradient><linearGradient id="linear-gradient-37" x1="85.52" y1="90.31" x2="85.17" y2="68.79" xlink:href="#linear-gradient-36"/><linearGradient id="linear-gradient-38" x1="60.56" y1="91.27" x2="60.2" y2="69.25" xlink:href="#linear-gradient-36"/><linearGradient id="linear-gradient-39" x1="73.72" y1="95.73" x2="73.2" y2="80.78" xlink:href="#linear-gradient-36"/><linearGradient id="linear-gradient-40" x1="63.88" y1="77.68" x2="82.62" y2="78" gradientUnits="userSpaceOnUse"><stop offset="0" stop-color="#e8d9d7"/><stop offset="0.14" stop-color="#f0e6e4"/><stop offset="0.39" stop-color="#fbf8f8"/><stop offset="0.57" stop-color="#fff"/><stop offset="1" stop-color="#e8d3d1"/></linearGradient><linearGradient id="linear-gradient-41" x1="73.73" y1="95.42" x2="73.22" y2="80.9" xlink:href="#linear-gradient-36"/><linearGradient id="linear-gradient-42" x1="72.57" y1="70.59" x2="72.87" y2="77.6" gradientUnits="userSpaceOnUse"><stop offset="0" stop-color="#e8d9d7"/><stop offset="0.4" stop-color="#efe5e4"/><stop offset="1" stop-color="#fff"/></linearGradient><linearGradient id="linear-gradient-43" x1="73.33" y1="98.2" x2="72.83" y2="68.11" xlink:href="#linear-gradient-36"/><linearGradient id="linear-gradient-44" x1="72.32" y1="49.36" x2="72.84" y2="71.22" gradientUnits="userSpaceOnUse"><stop offset="0" stop-color="#ffdeb3"/><stop offset="0.2" stop-color="#fdddb1"/><stop offset="1" stop-color="#f7d9ab"/></linearGradient><linearGradient id="linear-gradient-45" x1="72.73" y1="74.36" x2="72.68" y2="68.85" xlink:href="#linear-gradient-27"/><linearGradient id="linear-gradient-46" x1="72.05" y1="52.32" x2="72.75" y2="70.74" xlink:href="#linear-gradient-36"/><linearGradient id="linear-gradient-47" x1="72.2" y1="68.89" x2="72.94" y2="63.43" xlink:href="#linear-gradient-33"/><linearGradient id="linear-gradient-48" x1="87.33" y1="38.01" x2="95.03" y2="38.01" gradientUnits="userSpaceOnUse"><stop offset="0" stop-color="#555554"/><stop offset="0.32" stop-color="#676766"/><stop offset="0.67" stop-color="#737373"/><stop offset="1" stop-color="#777"/></linearGradient><linearGradient id="linear-gradient-49" x1="72.27" y1="13.54" x2="72.52" y2="29.02" gradientUnits="userSpaceOnUse"><stop offset="0" stop-color="#939393"/><stop offset="0.85" stop-color="#a6a6a6"/><stop offset="1" stop-color="#aaa"/></linearGradient><linearGradient id="linear-gradient-50" x1="77.87" y1="53.52" x2="92.06" y2="57.51" xlink:href="#linear-gradient-25"/><linearGradient id="linear-gradient-51" x1="90.02" y1="55.99" x2="76.52" y2="54.81" gradientUnits="userSpaceOnUse"><stop offset="0" stop-color="#fff"/><stop offset="0.46" stop-color="#fdfcfc"/><stop offset="0.76" stop-color="#f6f4f4"/><stop offset="1" stop-color="#ece7e6"/></linearGradient><linearGradient id="linear-gradient-52" x1="88.68" y1="58.67" x2="78.8" y2="53.41" gradientUnits="userSpaceOnUse"><stop offset="0" stop-color="#ddddda"/><stop offset="1" stop-color="#a4a59d"/></linearGradient><linearGradient id="linear-gradient-53" x1="86.92" y1="57.12" x2="79.79" y2="53.01" gradientUnits="userSpaceOnUse"><stop offset="0" stop-color="#c6c6c0"/><stop offset="1" stop-color="#95958d"/></linearGradient><radialGradient id="radial-gradient" cx="131.93" cy="36.03" r="15.43" gradientTransform="translate(32.4 42.81) scale(0.41 0.41)" gradientUnits="userSpaceOnUse"><stop offset="0" stop-color="#2b3b3b"/><stop offset="1" stop-color="#1d2827"/></radialGradient><linearGradient id="linear-gradient-54" x1="53.48" y1="53.27" x2="67.57" y2="57.24" gradientUnits="userSpaceOnUse"><stop offset="0" stop-color="#f1c99a"/><stop offset="0.51" stop-color="#e4b687"/><stop offset="1" stop-color="#dba879"/></linearGradient><linearGradient id="linear-gradient-55" x1="66.36" y1="56.78" x2="56.34" y2="54.36" xlink:href="#linear-gradient-51"/><linearGradient id="linear-gradient-56" x1="64.24" y1="55.77" x2="54.58" y2="56.16" xlink:href="#linear-gradient-52"/><linearGradient id="linear-gradient-57" x1="64.41" y1="55.51" x2="58.18" y2="54.36" xlink:href="#linear-gradient-53"/><radialGradient id="radial-gradient-2" cx="73.9" cy="35.77" r="15.04" xlink:href="#radial-gradient"/><linearGradient id="linear-gradient-58" x1="52.39" y1="48.47" x2="67.88" y2="48.47" xlink:href="#linear-gradient-48"/><linearGradient id="linear-gradient-59" x1="112.26" y1="90.75" x2="59.16" y2="93.31" xlink:href="#linear-gradient-25"/><linearGradient id="linear-gradient-60" x1="60.3" y1="93.68" x2="46.84" y2="67.93" gradientUnits="userSpaceOnUse"><stop offset="0" stop-color="#f7d9ab"/><stop offset="1" stop-color="#f1c99a"/></linearGradient><linearGradient id="linear-gradient-61" x1="85.34" y1="93.7" x2="97.78" y2="68.12" xlink:href="#linear-gradient-30"/><linearGradient id="linear-gradient-62" x1="71.73" y1="61.21" x2="72.51" y2="50.08" gradientUnits="userSpaceOnUse"><stop offset="0" stop-color="#565658"/><stop offset="1" stop-color="#2c2a2d"/></linearGradient></defs><circle class="cls-1" cx="72" cy="72" r="72" transform="translate(-29.82 72) rotate(-45)"/><g class="person"><path class="cls-2" d="M74.19,103c-2.83,0-6.74.92-8.46,2.17s-6.91,11.3-6.91,11.3,14,18,19.1,16.33,15.59-20.64,14.33-23.06S77,103.05,74.19,103Z" transform="translate(0 0)"/><path class="cls-3" d="M74.61,125.84S67.49,119.29,63.22,115l-3.12,3.56s9.9,10.06,13.95,11c0,0,10.78-6.27,15.12-12.62l-2.49-3S77.75,124.43,74.61,125.84Z" transform="translate(0 0)"/><path class="cls-4" d="M87.81,110C83.69,106.12,80,103.1,80,103.1s-9.24-.16-10.73.47c-.69.29-2.74,3-4.76,5.83L53.07,92.72s-2,7-.16,11.17,8.41,15.89,8.41,15.89,9.28-11.41,9.91-11.64,6.27-1.67,7.77.21c1,1.26,11.86,12.76,11.86,12.76s4.66-13.79,5-17.22a24.55,24.55,0,0,0-1.07-10Z" transform="translate(0 0)"/><path class="cls-5" d="M74.56,103.11c-2.41-.34-5,2.75-5,2.75s1.21,8,2.63,9,5.71.93,6.55-.4,1.84-8.69,1.72-9.18S76.54,103.38,74.56,103.11Z" transform="translate(0 0)"/><path class="cls-6" d="M70,108c.44-1.25,4.65-4.92,4.65-4.92a11.6,11.6,0,0,0-5.19,2.06Z" transform="translate(0 0)"/><path class="cls-5" d="M84.3,138c-.18-5.85-5-18.93-5.14-19.38s-.79-5.3-.79-5.3l-5.12.07a20.28,20.28,0,0,0-1.75,6.5c-.64,4.51-3.39,20.47-3.39,20.47L68,143.89c1.34.07,2.68.11,4,.11A72,72,0,0,0,84.28,143C84.32,140.73,84.33,139,84.3,138Z" transform="translate(0 0)"/><path class="cls-7" d="M72.21,114.85l-1.84,12.22c.35-1.45,6.9-8.64,6.9-8.64L81.9,127l-3.14-12.5C77.24,115.75,72.21,114.85,72.21,114.85Z" transform="translate(0 0)"/><path class="cls-8" d="M80.28,107.55l.43-2.79a31.68,31.68,0,0,0-6.1-1.65S78.73,105,80.28,107.55Z" transform="translate(0 0)"/><path class="cls-9" d="M74.74,114.86c-2.32-.39-4-3.28-4-3.28a8.81,8.81,0,0,0,1.08,2.86c.82,1.3,2.65,1.33,3.25,1.37a4.52,4.52,0,0,0,3.52-1.08c.88-.91,1.13-3.82,1.13-3.82C78.79,112.52,77.07,115.26,74.74,114.86Z" transform="translate(0 0)"/><path class="cls-10" d="M57.41,76.75s0,8.22.12,14c5.29,5.8,12.91,11.67,16.66,11.33,4.59-.42,11.69-6.75,15.61-10.84,0,0-.82-14.42-1-15.74C88.84,75.46,77.41,83.7,57.41,76.75Z" transform="translate(0 0)"/><path class="cls-11" d="M84.29,95.45c-3.55,2.51-8.25,4.8-9.6,5s-10-3.86-11.8-5.22-4.47-6-5.41-8a11.58,11.58,0,0,0,.5,3.87c.47,1,1.78,5.11,6,7.51S72.76,103,74.19,103s8.12-2,9.27-2.87,5.84-5.11,6-6.79a40.73,40.73,0,0,0,.09-7.5S87.83,93,84.29,95.45Z" transform="translate(0 0)"/><path class="cls-12" d="M89.75,112.18a22.46,22.46,0,0,1-4.61-1.85l5.47,6.16,4.06-12.57S91.26,112.4,89.75,112.18Z" transform="translate(0 0)"/><path class="cls-13" d="M54.92,105.33,61,116.49l5.42-7.27S60.44,115.46,54.92,105.33Z" transform="translate(0 0)"/><path class="cls-14" d="M89.54,86.2s.31,1.79-.81,6C87.32,97.54,74.19,103,74.19,103a17.16,17.16,0,0,1,6.24,2.43c1.13.67,10.18,11,10.18,11s4.77-12.92,4.77-16.56.41-5.65-2.57-9.55C91.39,88.51,89.54,86.2,89.54,86.2Z" transform="translate(0 0)"/><path class="cls-15" d="M58.51,92c-1.12-3.7-1-4.8-1-4.8S54.15,90.89,52.6,93c-3.1,4.22,1.84,11.44,1.84,11.44l6.6,12s6.89-9.4,8.46-11.12S74.19,103,74.19,103,59.77,96.18,58.51,92Z" transform="translate(0 0)"/><path class="cls-16" d="M89.54,86.19a14.49,14.49,0,0,1-.29,3.53,12.29,12.29,0,0,1-5.57,7.87A77.86,77.86,0,0,1,74.19,103c8.09-1.2,13.5-5.34,15.73-10C92.24,88.21,89.54,86.19,89.54,86.19Z" transform="translate(0 0)"/><path class="cls-17" d="M59.4,93.12a17,17,0,0,1-1.92-5.92s-1.17,1.29.28,5.17a11.44,11.44,0,0,0,4.28,5c7.41,5.38,12.15,5.64,12.15,5.64C68.49,100.18,61.31,96.16,59.4,93.12Z" transform="translate(0 0)"/><path class="cls-18" d="M123,122.79c.44-7.57.67-13.45.67-13.45C120,106.69,94.51,96.21,94.51,96.21s-1.14,29.44-20,37.15c0,.21.06.41.08.61-15.47-10.51-22-37-22-37-31.06,12.88-31.4,14-31.4,14,.3.58,1.26,6.77,2.39,14.29A72,72,0,0,0,123,122.79Z" transform="translate(0 0)"/><path class="cls-19" d="M94.85,96.21c9.4,10.17,21.81,12.07,28.85,13.12C115,103.27,94.85,96.21,94.85,96.21Z" transform="translate(0 0)"/><path class="cls-20" d="M52.3,96.21s-24.46,10-31.11,14.77C35.31,111.68,52.3,96.21,52.3,96.21Z" transform="translate(0 0)"/><path class="cls-21" d="M88.32,124.67c-3.41,4.46-9.59,8.76-14.47,8.76-5.85-.37-6.7-2.79-11.32-7.23-8.71-.3-14,.17-22.16,4.83a5.65,5.65,0,0,0-2.9,4.16,72,72,0,0,0,75.34-3.87,4.84,4.84,0,0,0-.93-1.28C107.11,125.41,99.16,124.19,88.32,124.67Z" transform="translate(0 0)"/><path class="cls-22" d="M129,116c-1.5-2.77-3.28-3.59-5.33-5.26-3.92,5.31-5.69,13.5-6.31,17.17A72.47,72.47,0,0,0,129,116Z" transform="translate(0 0)"/><path class="cls-23" d="M21.33,111A37.78,37.78,0,0,0,16,117.3a72.51,72.51,0,0,0,12,11.73c-.22-1-.41-2-.59-2.69C26,120.05,23.32,113.87,21.33,111Z" transform="translate(0 0)"/><path class="cls-24" d="M129.31,115.58a24,24,0,0,0-5.61-6.24c-2.08,4.11-2.42,9.14-1.73,14.49A72.72,72.72,0,0,0,129.31,115.58Z" transform="translate(0 0)"/><path class="cls-25" d="M21.21,110.88a20.39,20.39,0,0,0-5.57,5.93,72.41,72.41,0,0,0,9.83,10.13,33.25,33.25,0,0,0-.18-3.36C24.57,117.07,22.83,112.94,21.21,110.88Z" transform="translate(0 0)"/><path class="cls-26" d="M94.46,93c.14,4.18-.8,10.72-5.53,21.08C84.93,122.86,75,127,75,127s-7.65-2.62-14.93-13.62C52.47,101.84,52.6,93,52.6,93c-1.33,1.44-3.26,3.63-4.07,4.78-1.32,1.86-1.64,13.41,13.53,30,3.41,3.74,12.72,8.43,12.72,8.43s12.8-5.76,18.15-14.78c7.26-12.25,5.79-23.46,5.38-24C96.9,95.7,94.46,93,94.46,93Z" transform="translate(0 0)"/><path class="cls-27" d="M44.29,52.89c-2.93.54-2.28,2.53-1,6,1.25,9.28,3.63,11.13,4.65,10.56C49.78,68.44,47.83,52.23,44.29,52.89Z" transform="translate(0 0)"/><path class="cls-28" d="M45.83,61.09c1.29-7.69-3.42-8.45-2.52-3.11,0,0,.74-2.46,1.31-1.69.71,1-.83,1.38-.18,5.41a11.36,11.36,0,0,0,2.21,4.39A6.64,6.64,0,0,1,45.83,61.09Z" transform="translate(0 0)"/><path class="cls-27" d="M99.41,52.82c-3.58-.49-4.6,15.78-2.69,16.73,1,.52,3.32-1.44,4-10.76C101.83,55.24,102.36,53.22,99.41,52.82Z" transform="translate(0 0)"/><path class="cls-29" d="M98.33,61.08a6.53,6.53,0,0,1-.53,5,11.29,11.29,0,0,0,2-4.48c.41-4.06-1.15-4.42-.5-5.4.53-.8,1.4,1.62,1.4,1.62C101.27,52.48,96.61,53.47,98.33,61.08Z" transform="translate(0 0)"/><path class="cls-30" d="M88.38,28.22c-3.89-4.53-9-8.62-19.41-8.38,0,0-13.58.48-17,7.92-3.64,8-5,17.71-4.77,28,.33,12.43,1,18.36,2.06,21a11.37,11.37,0,0,0,3.76,4.84c3.87,3.06,8,9.14,11.06,12.63,1.07,1.21,15.74.61,17.6-.4,3.23-1.75,6.87-7.59,11.11-11.83a11.16,11.16,0,0,0,3.09-6.44c0-1.75,1-11,1-12.29-.35-7,0-5.18.22-11.24C98,30.14,90.28,30.44,88.38,28.22Z" transform="translate(0 0)"/><path class="cls-31" d="M76.79,49.19c-.34,2.23-1.63,7.28-.46,8.25a12.94,12.94,0,0,0,16.9.37C95.3,39.14,76.79,49.19,76.79,49.19Z" transform="translate(0 0)"/><path class="cls-32" d="M89.37,47.17c-5.08-.84-9-.84-12.17.55-1.19.53-.37,2.47,1,2.43,2.67-.07,6.45-.85,9-.89,3.71-.07,5.23.64,5.23.64A4.12,4.12,0,0,0,89.37,47.17Z" transform="translate(0 0)"/><path class="cls-33" d="M51,58a12.93,12.93,0,0,0,16.9-.4c1.17-1,.22-6.1-.13-8.33C67.75,49.26,50.27,41.24,51,58Z" transform="translate(0 0)"/><path class="cls-34" d="M73.74,86c-2.25,0-7.88,1.53-7.71,2.35.49,2.49,5.71,2.91,8,2.9s6.8-.58,6.89-2.71C80.91,87.75,76,86,73.74,86Z" transform="translate(0 0)"/><path class="cls-35" d="M89.21,27.24q-.84-.22-1.86-.45c-5-1.08-12.77-4.73-19.88-4.73A46.09,46.09,0,0,0,56,23.72a11.07,11.07,0,0,0-3.44,1.41C49.9,27,48.33,34,47.43,42.24c-.29,2.68.5,17.86.35,19.82a21.29,21.29,0,0,1,3.56-7.41c1.33-10.6-.84-18.37,3.63-21.59,3.08-2.21,11.48,1.49,17.46,1.74,12,.51,14.55-2.95,15.81-1.5,5,5.81,2.06,12.62,8.65,26.28,0,0-.38-16.7-.81-21.35C95.51,32.13,93.91,28.54,89.21,27.24Z" transform="translate(0 0)"/><path class="cls-36" d="M90.09,21.75s-8-7.18-21.29-6.27c-10.67.72-15.41,4.32-18.06,8.87-.74,1.26-10.1,4.57-6.4,18.08.18,3.21-.76,4.75.19,10.44,0,0,1.07.28,1.8,2.41a50.36,50.36,0,0,1,1.16,6.61c.49-4.48,1.45-5.56,1.63-7.94.22-2.9.39-4.54.89-10.61.56-6.72,1-10.92,3.15-13.82,0,0,5.16-4.56,15,0,10.2,2,16.74.53,20-.77,0,0,4.69.59,5.84,13.83.43,5,.5,7.87,1.11,11.36.41,2.4,1.38,5.6,1.69,7.94,0,0-.06-8.75,2.42-9.08.37-2.79.3-3.91-.52-11.87C101.34,34.87,97.85,24,90.09,21.75Z" transform="translate(0 0)"/><path class="cls-37" d="M93.82,58.87c-.77-.44-1.35.19-2.95.72S85,60.93,87,62c2.24,1.22,5.37-.45,5.75-.76S94.78,59.41,93.82,58.87Z" transform="translate(0 0)"/><path class="cls-38" d="M53,59.78c-1.63-.45-2.24-1.05-3-.58-.93.59.8,2,1.19,2.34S54.8,63.34,57,62C58.94,60.81,54.59,60.21,53,59.78Z" transform="translate(0 0)"/><path class="cls-39" d="M71,28.76c-7.37-1.86-11.23-4.19-15.47-2.84a9.18,9.18,0,0,0-6.38,7.26c-1.42,6.93.31,16.59.31,16.59s.74-8.16,1.2-12.93c.48-5,2.22-6.06,4.87-6.74,3.27-.84,8.7.34,13,1.21,16,3.27,19.84-3.09,19.84-3.09A33,33,0,0,1,71,28.76Z" transform="translate(0 0)"/><path class="cls-40" d="M83.93,77.65l-.49.42A4.86,4.86,0,0,0,83.93,77.65Z" transform="translate(0 0)"/><path class="cls-41" d="M81.88,69.22c5.29,4.28,3.15,7.35,2.05,8.43,2-1.71,4.78-3.61,4.6-4.36C87.88,70.57,81.88,69.22,81.88,69.22Z" transform="translate(0 0)"/><path class="cls-42" d="M83.39,74.43a26.2,26.2,0,0,0,3-.82,2.65,2.65,0,0,0,.46-.89l-1.73.53Z" transform="translate(0 0)"/><path class="cls-43" d="M57.42,73.7c.12.84,2.49,2.9,4,4.5,0,0-4.14-4.45,1.61-8.46C63.07,69.74,57,70.89,57.42,73.7Z" transform="translate(0 0)"/><path class="cls-42" d="M58.83,72.9a2.54,2.54,0,0,0,.46.88,26.45,26.45,0,0,0,3,.83l-1.68-1.19Z" transform="translate(0 0)"/><path class="cls-44" d="M67.32,84.72a46,46,0,0,1,12,.09C73.91,81.42,67.32,84.72,67.32,84.72Z" transform="translate(0 0)"/><path class="cls-45" d="M59.48,73.23c.14.16.25.36.44.45,3.45,1.53,3.5,3,5,3.78a16.53,16.53,0,0,0,15.48-.13c2.37-1.3,2.67-2.83,5.51-3.93a.71.71,0,0,0,.45-.45C71.2,76.66,59.48,73.23,59.48,73.23Z" transform="translate(0 0)"/><path class="cls-46" d="M73.05,80.44c-2,0-4.06-.39-4.06,0s1.77,1.29,3.82,1.29,4.06-.89,4.06-1.29S75.09,80.44,73.05,80.44Z" transform="translate(0 0)"/><path class="cls-47" d="M78.94,76.38a33.12,33.12,0,0,1-6.4.81,39.66,39.66,0,0,1-6.79-.75c-.63-.12-.91,1-.91,1,1.92,1.4,4.24,1.94,7.94,2a12.91,12.91,0,0,0,7.67-2.1S79.75,76.22,78.94,76.38Z" transform="translate(0 0)"/><path class="cls-48" d="M65.5,81c7.89,6.27,15.43-.43,15.43-.43A17.74,17.74,0,0,1,65.5,81Z" transform="translate(0 0)"/><path class="cls-49" d="M62.9,74a2.24,2.24,0,0,0,1.37,1.86c.77.33,2.48,1.64,9.14,1.43s8-1.81,8.29-2.09a3.58,3.58,0,0,0,.82-1.41A60.48,60.48,0,0,1,62.9,74Z" transform="translate(0 0)"/><path class="cls-50" d="M62.88,73.84a2.42,2.42,0,0,0,.26.93c.18.29,5.51,1.07,9.53,1.09a36.7,36.7,0,0,0,9.45-1.24,3.14,3.14,0,0,0,.45-1S78,75.14,62.88,73.84Z" transform="translate(0 0)"/><path class="cls-51" d="M58.65,72.82a8,8,0,0,0,.83.41S71.2,76.66,86.34,73l.82-.41C78.94,73.91,58.65,72.82,58.65,72.82Z" transform="translate(0 0)"/><path class="cls-52" d="M74.64,60.43c.24-4.81-1.44-5.5-2.68-5.45s-1.88,1.7-1.64,5.37-.47,5-.31,6.75c.08.78.44,1.29,2.41,1.31,2.17,0,2.92-.5,3-1.23C75.69,65.19,74.46,63.89,74.64,60.43Z" transform="translate(0 0)"/><path class="cls-53" d="M66.59,69s5.44,4,6.63,3.72S78.77,69,78.77,69s-4.94.61-6.07.61S66.59,69,66.59,69Z" transform="translate(0 0)"/><path class="cls-42" d="M74.88,69.77c2.93-.73,4.08-.3,4.08-.3C77.25,68,74.88,69.77,74.88,69.77Z" transform="translate(0 0)"/><path class="cls-42" d="M66.58,69.26a8.65,8.65,0,0,1,3.82.53S68.15,68.09,66.58,69.26Z" transform="translate(0 0)"/><path class="cls-54" d="M77.14,64.89c0,1.21.26,2-.11,2.69-.81,1.53-2.92,2.13-4.33,2a5.53,5.53,0,0,1-4.61-2c-.43-.65-.16-1.23-.35-2.51,0,0-2.9,3.5-1.16,4.18A3,3,0,0,1,68.49,69c1.4.13,1.11,1.67,4.33,1.7,2.8,0,1.91-1.32,3.69-1.57a2.78,2.78,0,0,1,2.42.38C79.82,69.51,79.18,66.55,77.14,64.89Z" transform="translate(0 0)"/><path class="cls-55" d="M69.71,67c-.13.78,1,1.63,3,1.64,2.16,0,2.65-.84,2.47-1.56C74.06,62.77,70.16,64,69.71,67Z" transform="translate(0 0)"/><path class="cls-56" d="M88.38,28.22l-1,1.12c5,2.14,5.49,6.94,7.09,18.47,0,0,1.3-7.36.09-11.47C93.49,32.89,91.55,29.33,88.38,28.22Z" transform="translate(0 0)"/><path class="cls-57" d="M54.68,19.83C59.43,18.6,69.44,24.62,75,25.51c10.35,1.68,13.84.58,13.84.58C87.23,23.62,84.14,19.3,74.71,18c2.7,0,12.24,2.9,15.38,3.8C74.34,9.46,56.2,17.52,54.68,19.83Z" transform="translate(0 0)"/><path class="cls-58" d="M89.61,52.56a9.41,9.41,0,0,0-4.63-1c-4.92.18-6.74,1-7,2.3-.09.46-.75,2.95-.49,3.43.77,1.42,5.71,1.77,8.57,1.55s5.79-1.92,5.81-2.62A6.44,6.44,0,0,0,89.61,52.56Z" transform="translate(0 0)"/><path class="cls-59" d="M82.07,52.8c-3,.21-4,4.37-4,4.37s.47.41,1.33.59c3.39.69,4.92.84,8.21.11a5.19,5.19,0,0,0,2.82-1.73C88,53.26,89.21,52.29,82.07,52.8Z" transform="translate(0 0)"/><path class="cls-60" d="M87,53.11c-2.3.22-7.5.59-7.5.59L78.1,57.17A16.26,16.26,0,0,1,83,55.6c.35-.05,4.67,0,6.89,1.09a2.58,2.58,0,0,0,.53-.55S89.26,52.89,87,53.11Z" transform="translate(0 0)"/><path class="cls-61" d="M84.17,53.34c-2-.12-3.82.91-3.72,3A3.81,3.81,0,0,0,81,58.06a19.3,19.3,0,0,0,3.11.39A11.5,11.5,0,0,0,87,58a2.5,2.5,0,0,0,.65-1.45C87.9,54.57,86.14,53.46,84.17,53.34Z" transform="translate(0 0)"/><path class="cls-62" d="M85.18,53.8c-2.49.05-4.89.1-4.74,2.41A13,13,0,0,1,87.65,56,2.25,2.25,0,0,0,85.18,53.8Z" transform="translate(0 0)"/><path class="cls-63" d="M84.32,54.08a2.13,2.13,0,1,0,2.13,2.2A2.15,2.15,0,0,0,84.32,54.08Z" transform="translate(0 0)"/><path class="cls-64" d="M85.67,55.76a.92.92,0,0,0-.8,1,.9.9,0,0,0,1,.81.93.93,0,0,0,.81-1A.91.91,0,0,0,85.67,55.76Z" transform="translate(0 0)"/><path class="cls-64" d="M83.69,55a.73.73,0,0,0,.16,1.46.73.73,0,0,0,.63-.82A.71.71,0,0,0,83.69,55Z" transform="translate(0 0)"/><path class="cls-65" d="M88.36,53c-2.26-.78-6.64-1-8.63.47-1.57,1.16-1.63,3.69-1.63,3.69a5.63,5.63,0,0,1,2.48-2.24A19,19,0,0,1,88,54.68a3.61,3.61,0,0,1,2.5,1.46S90.22,53.66,88.36,53Z" transform="translate(0 0)"/><path class="cls-66" d="M60,51.45c-1.31-.08-4.15.26-5,1a8.84,8.84,0,0,0-2.11,3.61c0,.44,2,2.46,5.77,2.75,2.83.22,7.18-.33,8.27-1.52.52-.58-.22-2.84-.36-3.66C66.3,52.17,64,51.67,60,51.45Z" transform="translate(0 0)"/><path class="cls-67" d="M62.82,52.68c-7.06-.59-6.24.5-8.7,3.32a7.62,7.62,0,0,0,2.73,1.76,14.81,14.81,0,0,0,8.15,0,2.83,2.83,0,0,0,1.33-.57S65.75,52.93,62.82,52.68Z" transform="translate(0 0)"/><path class="cls-60" d="M57.6,53.05c-2.27-.25-3.48,3-3.48,3a4.43,4.43,0,0,0,.8.69,10.32,10.32,0,0,1,5-1.35,10.61,10.61,0,0,1,6.44,1.84C66,56.23,65,54.1,65,54.1S59.87,53.29,57.6,53.05Z" transform="translate(0 0)"/><path class="cls-68" d="M60.6,53.46c-1.93.09-3.63,1.08-3.39,3A2.46,2.46,0,0,0,57.8,58a11.37,11.37,0,0,0,2.78.39,21.21,21.21,0,0,0,3.09-.3,4.47,4.47,0,0,0,.55-1.73C64.33,54.33,62.52,53.37,60.6,53.46Z" transform="translate(0 0)"/><path class="cls-69" d="M59.92,53.33a2.73,2.73,0,0,0-2.7,2.4,20.58,20.58,0,0,1,7,.35C64.23,54.09,62.35,53.27,59.92,53.33Z" transform="translate(0 0)"/><path class="cls-70" d="M60.6,54a2.08,2.08,0,1,0,2.17,2A2.12,2.12,0,0,0,60.6,54Z" transform="translate(0 0)"/><path class="cls-64" d="M61.66,56a.87.87,0,1,0,.78,1.55.89.89,0,0,0,.44-1.19A.92.92,0,0,0,61.66,56Z" transform="translate(0 0)"/><path class="cls-64" d="M59.75,55a.69.69,0,0,0-.35.93.72.72,0,0,0,1,.28.7.7,0,0,0,.35-.93A.73.73,0,0,0,59.75,55Z" transform="translate(0 0)"/><path class="cls-65" d="M64.48,53.32c-2-1.49-6.19-1.06-8.35-.25-1.33.5-2,2.93-2,2.93a4.28,4.28,0,0,1,2.36-1.35c4.1-.66,6.06-.25,7.19.1,1.36.42,2.66,2.43,2.66,2.43S66,54.49,64.48,53.32Z" transform="translate(0 0)"/><path class="cls-71" d="M67.36,47.94c-3.07-1.35-7-1.49-12-.66a4.08,4.08,0,0,0-3,2.9,13.63,13.63,0,0,1,5.09-.75c3.08,0,6.13.65,8.73.72C67.59,50.18,68.52,48.45,67.36,47.94Z" transform="translate(0 0)"/><path class="cls-72" d="M66,93.89c-1.88-.4-4.75-3.23-4.75-3.23s3,4,3.68,4.31,15.31.4,16.79-.68a16.71,16.71,0,0,0,2.88-2.91s-2.88,2.11-4.09,2.38S67.87,94.29,66,93.89Z" transform="translate(0 0)"/><path class="cls-73" d="M47.52,63.43c.18,4.76.5,12.36,1.5,14.47.42.89,5.18,5.78,6.12,6.59s5.74,5.71,5.74,5.71c-.73-1.07-6.87-9.62-8-11.28C48.67,72.6,47.52,63.43,47.52,63.43Z" transform="translate(0 0)"/><path class="cls-74" d="M85.3,90.62c.54-.94,10.21-10.84,10.75-12.72s.83-14.21.83-14.21A47.36,47.36,0,0,1,93,77.27C92,78.93,85.3,90.62,85.3,90.62Z" transform="translate(0 0)"/><path class="cls-75" d="M87.17,50.18a64,64,0,0,0-10.54,1.07c-.5.1-1.24.91-1.47,1a18.31,18.31,0,0,0-5.53,0c-.26,0-1-.86-1.62-1a63,63,0,0,0-10.39-1,33.57,33.57,0,0,0-8.75,1.12A13.4,13.4,0,0,0,49.24,55c.11.11.57.44.9.69.8,2.23,1.52,4.52,2.62,4.77,3.7.82,13,.71,14,.1s2.35-5.26,3.14-6.5c.32-.49,4.7-.6,5,0,.66,1.31,2.33,5.67,3.33,6.27s10.1.95,13.8.13c1.1-.25,1.82-2.54,2.61-4.77.34-.25.8-.58.91-.69a13.4,13.4,0,0,0,.37-3.71A33.66,33.66,0,0,0,87.17,50.18ZM65.9,59.93c-1,.61-11,.48-12.24,0-1-.36-2.87-6.57-1.28-7.14,6-2.16,15.76-.47,15.78.65C68.18,54.76,66.91,59.32,65.9,59.93Zm25.23,0c-1.29.46-11,.43-12-.18s-2.55-5-2.53-6.31c0-1.12,9.75-2.81,15.78-.65C94,53.38,92.12,59.59,91.13,60Z" transform="translate(0 0)"/></g></svg>