<svg id="Layer_1" data-name="Layer 1" xmlns="http://www.w3.org/2000/svg" xmlns:xlink="http://www.w3.org/1999/xlink" viewBox="0 0 144 144"><defs><style>.cls-1{fill:#f6ece6;}.cls-2{fill:url(#linear-gradient);}.cls-3{fill:url(#linear-gradient-2);}.cls-4{fill:url(#linear-gradient-3);}.cls-5{fill:#f1eff3;}.cls-6{fill:#39383c;}.cls-7{fill:url(#linear-gradient-4);}.cls-8{fill:url(#linear-gradient-5);}.cls-9{fill:url(#linear-gradient-6);}.cls-10{fill:url(#linear-gradient-7);}.cls-11{fill:url(#linear-gradient-8);}.cls-12{fill:url(#linear-gradient-9);}.cls-13{fill:url(#linear-gradient-10);}.cls-14{fill:url(#linear-gradient-11);}.cls-15{fill:url(#linear-gradient-12);}.cls-16{fill:url(#linear-gradient-13);}.cls-17{fill:#9d1f22;}.cls-18{fill:url(#linear-gradient-14);}.cls-19{fill:url(#linear-gradient-15);}.cls-20{fill:url(#linear-gradient-16);}.cls-21{fill:url(#linear-gradient-17);}.cls-22{fill:url(#linear-gradient-18);}.cls-23{fill:url(#linear-gradient-19);}.cls-24{fill:url(#linear-gradient-20);}.cls-25{fill:url(#linear-gradient-21);}.cls-26{fill:url(#linear-gradient-22);}.cls-27{fill:url(#linear-gradient-23);}.cls-28{fill:#f1c99a;}.cls-29{fill:url(#linear-gradient-24);}.cls-30{fill:url(#linear-gradient-25);}.cls-31{fill:#f7d9ab;}.cls-32{fill:url(#radial-gradient);}.cls-33{fill:url(#radial-gradient-2);}.cls-34{fill:url(#linear-gradient-26);}.cls-35{fill:url(#linear-gradient-27);}.cls-36{fill:url(#linear-gradient-28);}.cls-37{fill:#e1b58c;}.cls-38{fill:url(#linear-gradient-29);}.cls-39{fill:url(#linear-gradient-30);}.cls-40{fill:#972a2e;}.cls-41{fill:#fcddb3;}.cls-42{fill:url(#linear-gradient-31);}.cls-43{fill:url(#linear-gradient-32);}.cls-44{fill:url(#linear-gradient-33);}.cls-45{fill:#f2eceb;}.cls-46{fill:url(#linear-gradient-34);}.cls-47{fill:url(#linear-gradient-35);}.cls-48{fill:url(#linear-gradient-36);}.cls-49{fill:url(#linear-gradient-37);}.cls-50{fill:url(#linear-gradient-38);}.cls-51{fill:url(#linear-gradient-39);}.cls-52{fill:#ddd;}.cls-53{fill:url(#linear-gradient-40);}.cls-54{fill:url(#linear-gradient-41);}.cls-55{fill:url(#radial-gradient-3);}.cls-56{fill:url(#linear-gradient-42);}.cls-57{fill:#fff;}.cls-58{fill:url(#linear-gradient-43);}.cls-59{fill:url(#linear-gradient-44);}.cls-60{fill:url(#linear-gradient-45);}.cls-61{fill:url(#linear-gradient-46);}.cls-62{fill:url(#radial-gradient-4);}.cls-63{fill:url(#linear-gradient-47);}.cls-64{fill:url(#linear-gradient-48);}.cls-65{fill:url(#linear-gradient-49);}.cls-66{fill:url(#linear-gradient-50);}.cls-67{fill:url(#linear-gradient-51);}.cls-68{fill:url(#linear-gradient-52);}.cls-69{fill:url(#linear-gradient-53);}.cls-70{fill:url(#linear-gradient-54);}.cls-71{fill:url(#linear-gradient-55);}.cls-72{fill:url(#linear-gradient-56);}.cls-73{fill:url(#linear-gradient-57);}.cls-74{fill:url(#linear-gradient-58);}.cls-75{fill:url(#linear-gradient-59);}.cls-76{fill:url(#linear-gradient-60);}.cls-77{fill:url(#linear-gradient-61);}.cls-78{fill:url(#linear-gradient-62);}.cls-79{fill:url(#linear-gradient-63);}.cls-80{fill:url(#linear-gradient-64);}.cls-81{fill:url(#linear-gradient-65);}.cls-82{fill:url(#linear-gradient-66);}.cls-83{fill:url(#linear-gradient-67);}.cls-84{fill:url(#linear-gradient-68);}.cls-85{fill:url(#linear-gradient-69);}</style><linearGradient id="linear-gradient" x1="81.21" y1="115.69" x2="76.28" y2="95.52" gradientUnits="userSpaceOnUse"><stop offset="0" stop-color="#daa77a"/><stop offset="0.48" stop-color="#e3b587"/><stop offset="1" stop-color="#f1c999"/></linearGradient><linearGradient id="linear-gradient-2" x1="74.98" y1="104.78" x2="74.55" y2="97.15" xlink:href="#linear-gradient"/><linearGradient id="linear-gradient-3" x1="89.77" y1="86.06" x2="89.77" y2="86.03" xlink:href="#linear-gradient"/><linearGradient id="linear-gradient-4" x1="24.6" y1="127.29" x2="23.34" y2="83.54" gradientUnits="userSpaceOnUse"><stop offset="0.01" stop-color="#2c2a2d"/><stop offset="1" stop-color="#333336"/></linearGradient><linearGradient id="linear-gradient-5" x1="61.58" y1="96.5" x2="65.7" y2="134.15" gradientUnits="userSpaceOnUse"><stop offset="0" stop-color="#fff"/><stop offset="0.39" stop-color="#f8f7f9"/><stop offset="1" stop-color="#f1eff3"/></linearGradient><linearGradient id="linear-gradient-6" x1="46.47" y1="116.47" x2="52.75" y2="118.62" gradientUnits="userSpaceOnUse"><stop offset="0" stop-color="#f1eff3"/><stop offset="1" stop-color="#e1e0e4"/></linearGradient><linearGradient id="linear-gradient-7" x1="67.12" y1="125.11" x2="76.96" y2="125.11" gradientUnits="userSpaceOnUse"><stop offset="0" stop-color="#e1e0e4"/><stop offset="1" stop-color="#f1eff3"/></linearGradient><linearGradient id="linear-gradient-8" x1="84.78" y1="118.91" x2="97.09" y2="118.91" xlink:href="#linear-gradient-7"/><linearGradient id="linear-gradient-9" x1="73.51" y1="120.96" x2="74.52" y2="83.96" xlink:href="#linear-gradient-7"/><linearGradient id="linear-gradient-10" x1="38.5" y1="62.51" x2="46.69" y2="128.08" xlink:href="#linear-gradient-4"/><linearGradient id="linear-gradient-11" x1="45.77" y1="104.95" x2="52.75" y2="151.03" gradientUnits="userSpaceOnUse"><stop offset="0.22" stop-color="#403f42"/><stop offset="0.77" stop-color="#38383b"/><stop offset="1" stop-color="#333336"/></linearGradient><linearGradient id="linear-gradient-12" x1="96.82" y1="65.77" x2="104.92" y2="130.61" xlink:href="#linear-gradient-4"/><linearGradient id="linear-gradient-13" x1="77.13" y1="124.16" x2="65.65" y2="129.54" gradientUnits="userSpaceOnUse"><stop offset="0" stop-color="#a41e23"/><stop offset="1" stop-color="#b3292c"/></linearGradient><linearGradient id="linear-gradient-14" x1="64.56" y1="111.56" x2="75.76" y2="106.77" xlink:href="#linear-gradient-13"/><linearGradient id="linear-gradient-15" x1="95.07" y1="92.13" x2="101.86" y2="139.7" xlink:href="#linear-gradient-11"/><linearGradient id="linear-gradient-16" x1="71.83" y1="105" x2="60.77" y2="115.48" xlink:href="#linear-gradient-13"/><linearGradient id="linear-gradient-17" x1="62.1" y1="102.6" x2="66.71" y2="78.74" xlink:href="#linear-gradient-7"/><linearGradient id="linear-gradient-18" x1="81.47" y1="94.48" x2="95.15" y2="103.79" xlink:href="#linear-gradient-7"/><linearGradient id="linear-gradient-19" x1="77.87" y1="113.45" x2="85.64" y2="102.92" gradientUnits="userSpaceOnUse"><stop offset="0" stop-color="#f1eff3"/><stop offset="0.61" stop-color="#f8f7f9"/><stop offset="1" stop-color="#fff"/></linearGradient><linearGradient id="linear-gradient-20" x1="59.13" y1="113.07" x2="49.64" y2="97.42" xlink:href="#linear-gradient-19"/><linearGradient id="linear-gradient-21" x1="121.53" y1="126.71" x2="122.78" y2="97.72" gradientUnits="userSpaceOnUse"><stop offset="0" stop-color="#282628"/><stop offset="0.25" stop-color="#2b2a2c"/><stop offset="1" stop-color="#333336"/></linearGradient><linearGradient id="linear-gradient-22" x1="127.66" y1="136.38" x2="122.22" y2="107.61" gradientUnits="userSpaceOnUse"><stop offset="0" stop-color="#39383c"/><stop offset="1" stop-color="#363438"/></linearGradient><linearGradient id="linear-gradient-23" x1="127.14" y1="112.98" x2="130.9" y2="114.27" gradientUnits="userSpaceOnUse"><stop offset="0" stop-color="#39383c"/><stop offset="1" stop-color="#333336"/></linearGradient><linearGradient id="linear-gradient-24" x1="103.95" y1="632.7" x2="108.79" y2="644.44" gradientTransform="matrix(0.98, 0.18, -0.14, 1.13, 32.08, -678.95)" gradientUnits="userSpaceOnUse"><stop offset="0" stop-color="#dba879"/><stop offset="0.49" stop-color="#e4b687"/><stop offset="1" stop-color="#f1c99a"/></linearGradient><linearGradient id="linear-gradient-25" x1="128.15" y1="629.97" x2="132.99" y2="641.71" gradientTransform="matrix(-0.97, 0.23, 0.21, 1.13, 92.8, -680.96)" xlink:href="#linear-gradient-24"/><radialGradient id="radial-gradient" cx="78.54" cy="153.53" r="27.1" gradientTransform="translate(54.18 5.22) scale(0.41 0.41)" gradientUnits="userSpaceOnUse"><stop offset="0" stop-color="#f7c79c"/><stop offset="1" stop-color="#f7d9ab"/></radialGradient><radialGradient id="radial-gradient-2" cx="1.28" cy="154.35" r="27.59" xlink:href="#radial-gradient"/><linearGradient id="linear-gradient-26" x1="94.68" y1="62.32" x2="86.91" y2="64.99" gradientUnits="userSpaceOnUse"><stop offset="0" stop-color="#fadbaf"/><stop offset="1" stop-color="#f7d9ab"/></linearGradient><linearGradient id="linear-gradient-27" x1="81.73" y1="80.43" x2="81.71" y2="79.53" gradientUnits="userSpaceOnUse"><stop offset="0" stop-color="#f7d9ab"/><stop offset="0.53" stop-color="#f6d7a8"/><stop offset="0.87" stop-color="#f4cfa0"/><stop offset="1" stop-color="#f2ca9a"/></linearGradient><linearGradient id="linear-gradient-28" x1="83.28" y1="90.31" x2="82.98" y2="72" xlink:href="#linear-gradient-27"/><linearGradient id="linear-gradient-29" x1="62.04" y1="91.13" x2="61.73" y2="72.4" xlink:href="#linear-gradient-27"/><linearGradient id="linear-gradient-30" x1="73.24" y1="94.93" x2="72.8" y2="82.2" xlink:href="#linear-gradient-27"/><linearGradient id="linear-gradient-31" x1="64.86" y1="79.57" x2="80.81" y2="79.84" gradientUnits="userSpaceOnUse"><stop offset="0" stop-color="#e8d9d7"/><stop offset="0.14" stop-color="#f0e6e4"/><stop offset="0.39" stop-color="#fbf8f8"/><stop offset="0.57" stop-color="#fff"/><stop offset="1" stop-color="#e8d3d1"/></linearGradient><linearGradient id="linear-gradient-32" x1="73.24" y1="94.67" x2="72.81" y2="82.31" xlink:href="#linear-gradient-27"/><linearGradient id="linear-gradient-33" x1="72.26" y1="73.53" x2="72.51" y2="79.5" gradientUnits="userSpaceOnUse"><stop offset="0" stop-color="#e8d9d7"/><stop offset="0.4" stop-color="#efe5e4"/><stop offset="1" stop-color="#fff"/></linearGradient><linearGradient id="linear-gradient-34" x1="72.9" y1="97.03" x2="72.48" y2="71.43" xlink:href="#linear-gradient-27"/><linearGradient id="linear-gradient-35" x1="56.9" y1="64.83" x2="45.39" y2="62.02" xlink:href="#linear-gradient-26"/><linearGradient id="linear-gradient-36" x1="85.33" y1="63.37" x2="84.59" y2="54.57" gradientUnits="userSpaceOnUse"><stop offset="0" stop-color="#f7d9ab"/><stop offset="0.53" stop-color="#f6d6a8"/><stop offset="0.87" stop-color="#f3cea0"/><stop offset="1" stop-color="#f1c99a"/></linearGradient><linearGradient id="linear-gradient-37" x1="59.07" y1="63.32" x2="58.34" y2="54.75" xlink:href="#linear-gradient-36"/><linearGradient id="linear-gradient-38" x1="52.21" y1="56" x2="67.1" y2="60.2" gradientUnits="userSpaceOnUse"><stop offset="0" stop-color="#f1c99a"/><stop offset="0.51" stop-color="#e4b687"/><stop offset="1" stop-color="#dba879"/></linearGradient><linearGradient id="linear-gradient-39" x1="65.19" y1="59.89" x2="55.65" y2="57.58" gradientUnits="userSpaceOnUse"><stop offset="0" stop-color="#ece7e6"/><stop offset="0.24" stop-color="#f6f4f4"/><stop offset="0.54" stop-color="#fdfcfc"/><stop offset="1" stop-color="#fff"/></linearGradient><linearGradient id="linear-gradient-40" x1="63.32" y1="58.73" x2="53.28" y2="59.13" gradientUnits="userSpaceOnUse"><stop offset="0" stop-color="#95958d"/><stop offset="1" stop-color="#c6c6c0"/></linearGradient><linearGradient id="linear-gradient-41" x1="57.21" y1="56.67" x2="67.62" y2="61.97" xlink:href="#linear-gradient-40"/><radialGradient id="radial-gradient-3" cx="18.2" cy="134.65" r="15.6" gradientTransform="translate(54.18 5.22) scale(0.41 0.41)" gradientUnits="userSpaceOnUse"><stop offset="0" stop-color="#2b3b3b"/><stop offset="1" stop-color="#1d2827"/></radialGradient><linearGradient id="linear-gradient-42" x1="53.44" y1="57.14" x2="64.36" y2="56.62" gradientUnits="userSpaceOnUse"><stop offset="0" stop-color="#683126"/><stop offset="0.34" stop-color="#53281e"/><stop offset="0.68" stop-color="#46221a"/><stop offset="1" stop-color="#422018"/></linearGradient><linearGradient id="linear-gradient-43" x1="77.36" y1="56.24" x2="91.89" y2="60.33" xlink:href="#linear-gradient-38"/><linearGradient id="linear-gradient-44" x1="89.47" y1="59.94" x2="80.17" y2="57.7" xlink:href="#linear-gradient-39"/><linearGradient id="linear-gradient-45" x1="87.43" y1="58.72" x2="77.39" y2="59.12" xlink:href="#linear-gradient-40"/><linearGradient id="linear-gradient-46" x1="81.63" y1="56.12" x2="93.79" y2="62.32" xlink:href="#linear-gradient-40"/><radialGradient id="radial-gradient-4" cx="77.41" cy="134.65" r="15.6" xlink:href="#radial-gradient-3"/><linearGradient id="linear-gradient-47" x1="78.48" y1="57.38" x2="89.29" y2="56.87" xlink:href="#linear-gradient-42"/><linearGradient id="linear-gradient-48" x1="77.46" y1="50.39" x2="90.74" y2="50.39" xlink:href="#linear-gradient-42"/><linearGradient id="linear-gradient-49" x1="52.38" y1="50.39" x2="65.66" y2="50.39" xlink:href="#linear-gradient-42"/><linearGradient id="linear-gradient-50" x1="59.04" y1="94.76" x2="45.8" y2="69.43" gradientUnits="userSpaceOnUse"><stop offset="0" stop-color="#f6d7aa"/><stop offset="1" stop-color="#f1c999"/></linearGradient><linearGradient id="linear-gradient-51" x1="85.51" y1="95.61" x2="98.08" y2="69.76" gradientUnits="userSpaceOnUse"><stop offset="0" stop-color="#f6d7aa"/><stop offset="1" stop-color="#ffddb2"/></linearGradient><linearGradient id="linear-gradient-52" x1="68.76" y1="4.95" x2="72.15" y2="58.34" gradientUnits="userSpaceOnUse"><stop offset="0" stop-color="#f7d9ab"/><stop offset="0.43" stop-color="#f4d0a2"/><stop offset="1" stop-color="#f1c99a"/></linearGradient><linearGradient id="linear-gradient-53" x1="69.37" y1="10.86" x2="73.64" y2="75.87" xlink:href="#linear-gradient-42"/><linearGradient id="linear-gradient-54" x1="91.87" y1="28.22" x2="102.02" y2="28.22" gradientUnits="userSpaceOnUse"><stop offset="0" stop-color="#683126"/><stop offset="0.74" stop-color="#7b3d33"/><stop offset="1" stop-color="#834238"/></linearGradient><linearGradient id="linear-gradient-55" x1="73.39" y1="15.72" x2="91.87" y2="15.72" gradientUnits="userSpaceOnUse"><stop offset="0" stop-color="#834238"/><stop offset="0.26" stop-color="#7b3d33"/><stop offset="1" stop-color="#683126"/></linearGradient><linearGradient id="linear-gradient-56" x1="52.07" y1="14.94" x2="80.97" y2="14.94" xlink:href="#linear-gradient-55"/><linearGradient id="linear-gradient-57" x1="43.04" y1="21.96" x2="55.39" y2="21.96" xlink:href="#linear-gradient-55"/><linearGradient id="linear-gradient-58" x1="55.85" y1="56.09" x2="54.77" y2="76.08" xlink:href="#linear-gradient-52"/><linearGradient id="linear-gradient-59" x1="40.7" y1="29.6" x2="51.12" y2="29.6" xlink:href="#linear-gradient-54"/><linearGradient id="linear-gradient-60" x1="73.07" y1="69.22" x2="72.71" y2="78.93" xlink:href="#linear-gradient-52"/><linearGradient id="linear-gradient-61" x1="90.23" y1="52.56" x2="88.98" y2="75.68" xlink:href="#linear-gradient-52"/><linearGradient id="linear-gradient-62" x1="40.55" y1="37.07" x2="48.28" y2="37.07" xlink:href="#linear-gradient-54"/><linearGradient id="linear-gradient-63" x1="71.63" y1="41.54" x2="72.66" y2="123.55" xlink:href="#linear-gradient-42"/><linearGradient id="linear-gradient-64" x1="61.07" y1="-12.88" x2="61.38" y2="27.97" xlink:href="#linear-gradient-42"/><linearGradient id="linear-gradient-65" x1="68.92" y1="15.49" x2="70.17" y2="35.31" xlink:href="#linear-gradient-42"/><linearGradient id="linear-gradient-66" x1="71.86" y1="46.04" x2="72.41" y2="69.23" gradientUnits="userSpaceOnUse"><stop offset="0" stop-color="#ffdeb3"/><stop offset="0.2" stop-color="#fdddb1"/><stop offset="1" stop-color="#f7d9ab"/></linearGradient><linearGradient id="linear-gradient-67" x1="71.99" y1="59.25" x2="72.38" y2="72.32" xlink:href="#linear-gradient-27"/><linearGradient id="linear-gradient-68" x1="71.82" y1="70.4" x2="72.6" y2="64.61" gradientUnits="userSpaceOnUse"><stop offset="0" stop-color="#ffdeb3"/><stop offset="0.28" stop-color="#fbdcaf"/><stop offset="1" stop-color="#f7d9ab"/></linearGradient><linearGradient id="linear-gradient-69" x1="76.6" y1="104.57" x2="73.01" y2="68.19" gradientUnits="userSpaceOnUse"><stop offset="0" stop-color="#565758"/><stop offset="1" stop-color="#2c2a2d"/></linearGradient></defs><circle class="cls-1" cx="72" cy="72" r="72" transform="translate(-29.82 72) rotate(-45)"/><circle class="cls-1" cx="72" cy="72" r="72" transform="translate(-29.82 72) rotate(-45)"/><path class="cls-2" d="M58.72,96.21s9.5,10.52,11.73,11.15,19-11,19.44-16.87l.35-10.44L58.05,85.58Z"/><path class="cls-3" d="M74.59,101.89c-1.26.24-6-.19-6.39-.15s-7.51-5.54-7.55-5.91-2.18-6-2.18-6-.12,5.48.54,6.72,8.44,6.78,8.44,6.78l5.89.82s8.74-2.74,10.83-4.88S89.46,87,89.75,86.06a24.32,24.32,0,0,1-3.55,6.53C84.63,94.72,74.81,101.85,74.59,101.89Z"/><path class="cls-4" d="M89.75,86.06l0-.07Z"/><path class="cls-5" d="M79.89,106.11,64,105.31s-21,4.14-21,5L39,136a72.2,72.2,0,0,0,60.82,2.42L98.59,97.12Z"/><path class="cls-6" d="M24.12,109a3.87,3.87,0,0,1,.28-1.26c-1.53-.59-4.17,5.13-4.53,13.9,1.68,1.76,3.45,3.44,5.29,5C24.36,116,23.43,110.6,24.12,109Z"/><path class="cls-7" d="M24.41,107.75c-1.28,2.62-1.34,9.36-1,17.4.74.69,1.51,1.35,2.29,2A131.75,131.75,0,0,1,24.41,107.75Z"/><path class="cls-8" d="M94.55,122.22c-7.16-11.5-45.33-10-50.94-6-3.76,2.61-8.66,9.14-11.51,15.77a72.07,72.07,0,0,0,67.26,6.67A32,32,0,0,0,94.55,122.22Z"/><path class="cls-9" d="M56.22,103.42l-.88-6.8-11.83,28.9L42.29,137.6q2.4,1.1,4.91,2c.54-4.06.94-7,1-7.75C51.33,112,56.22,103.42,56.22,103.42Z"/><path class="cls-10" d="M72.37,116.88a18.37,18.37,0,0,0,2.68-2.94,19,19,0,0,0,1.91-5l-1.3-2.67c-8,8-5.36,16.24-5.42,20l-3.12,17.6c1.25.09,2.51.14,3.78.16.07-.88.14-1.59.2-2.05C71.63,138,72,118.85,72.37,116.88Z"/><path class="cls-11" d="M90.62,95s-2.86,29.78-3.47,31.2c-.24.54-1.27,7.68-2.37,16.71a71.21,71.21,0,0,0,12.31-3.37L95.76,96.21Z"/><path class="cls-6" d="M126.45,119.11l.55-13s-21.39-5.36-23.73-7-12.65-5.92-12.65-5.92,2.35,5.28,2.49,8.51c.12,2.9-2,29.05-3.13,40A72,72,0,0,0,126.45,119.11Z"/><path class="cls-12" d="M70.1,104.78l-12-6.3-4.52,2.2c.28,11,1.33,15.49,1.33,15.49.49-.21,12.83-10.49,12.83-10.49l3.81.45L81,119c4-3.85,13.7-20.14,13.7-20.14l-19.22,6.63Z"/><path class="cls-6" d="M49.72,111.87c2.25-5.9,1-14.12,1-14.12-13.17,5.41-21.59,8.36-26.32,10a82.53,82.53,0,0,0,.34,18.56A72,72,0,0,0,42.6,137.74c.28-2,.46-3.31.48-3.57C43.27,132.28,48.43,115.24,49.72,111.87Z"/><path class="cls-13" d="M54.14,96.11,37.47,104l3.4,1.85-6.94.86s1.45,14.11,2.11,27.64c1.8,1,3.66,2,5.56,2.89,1.22-12.91,2.67-26.06,4-28.18C48.07,105.18,54.14,96.11,54.14,96.11Z"/><path class="cls-14" d="M56.65,96.49,56.34,94,39,103l6.91,2.82-9.25,1.15s1.4,21.37,1.53,28.63h0a71.43,71.43,0,0,0,6.68,3.14c.19-1.28.35-2.43.51-3.42C50.19,107.72,56.65,96.49,56.65,96.49Z"/><path class="cls-15" d="M113.38,106.13l-6-.65,2.61-2.06-6.44-3.33s-4.72,21.37-9,40.28a72.33,72.33,0,0,0,7.49-3,4.61,4.61,0,0,1,.49-1.18C103.27,135.82,113.38,106.13,113.38,106.13Z"/><path class="cls-16" d="M64.24,114.31s-6.06,19.41-8.12,27.93a72.33,72.33,0,0,0,12.75,1.69c.57-7.07,2.62-30.11,2.62-30.11Z"/><path class="cls-17" d="M63.89,115.42c5.84,1.09,7.26,2.32,7.26,2.32l.34-3.52-7.15-.49Z"/><path class="cls-18" d="M69.72,103.87a7.41,7.41,0,0,0-2.91,0A11.6,11.6,0,0,1,64,105.31s-1.88,5.79.18,9.22c2.21.23,4.61.74,7.06.89,4-2.13,4.71-7.36,4.71-7.36l-3.13-3.74S71.31,104.18,69.72,103.87Z"/><path class="cls-19" d="M103.49,105.58l5.6-3.53s-10.21-5.81-15.81-8.82c0,0-1.81,15.42-1.81,17.1,0,1.13-1.68,19.08-2.93,31.76A72.2,72.2,0,0,0,99,138.78c4.21-12.06,11.81-32.36,11.81-32.36Z"/><path class="cls-20" d="M67.74,103.42H64.39a22.28,22.28,0,0,0-1.07,5.34c.23-.27,4.9-4.64,4.9-4.64l3.42.44,3.73,5.71a21.47,21.47,0,0,0,.85-2.88c-.69-.94-2.88-3.27-2.88-3.27Z"/><path class="cls-5" d="M86.48,93.29c-1.76,2-8.57,9.25-13.14,10.83,0,0,7.28,10.58,8.21,12l6.52-8.78s5.78-9,5.78-12.43c0-3.73-3.78-9.79-3.78-9.79S88.24,91.32,86.48,93.29Z"/><path class="cls-5" d="M58.47,89.8s-3,3.91-3.13,6.82c-.1,2.51-.18,17.36-.18,17.36s7.68-9.43,12.58-10.56a60.41,60.41,0,0,1-6.39-5.14C59.39,96.24,58.47,89.8,58.47,89.8Z"/><path class="cls-21" d="M61,97.78a24.08,24.08,0,0,1-2.33-7.45s-1.17,5.78,1.11,8.15,7.2,4.62,8,4.94C67.74,103.42,61.31,98.46,61,97.78Z"/><path class="cls-22" d="M80.42,99.34c-4.07,3.78-7.08,4.78-7.08,4.78s1.24.33,7.4-3.44c1.44-.89,6.28-5.76,7.33-7s2-8.54,2-8.54-2.37,6.17-2.8,7A63.88,63.88,0,0,1,80.42,99.34Z"/><path class="cls-23" d="M76.09,108.12l5.46,8,5.19-7C82.75,111.13,76.09,108.12,76.09,108.12Z"/><path class="cls-24" d="M55.25,101.74,55.16,114c.61-.46,5.49-5.86,5.49-5.86C56,106.64,55.25,101.74,55.25,101.74Z"/><path class="cls-25" d="M124.88,120.86,127,106.29c-5.53,5.35-7.32,11.63-10.13,22A72.4,72.4,0,0,0,124.88,120.86Z"/><path class="cls-26" d="M130.39,114.12c-1.26-4.71-2.62-8.71-3.6-7.91-3.33,2.75-6,11.6-7.91,20.43A72,72,0,0,0,130.39,114.12Z"/><path class="cls-27" d="M129.36,110.56a48.27,48.27,0,0,0-.86,6.07c.64-.82,1.27-1.64,1.87-2.48C129.76,112,129.36,110.56,129.36,110.56Z"/><path class="cls-28" d="M42.78,56c-3.05.57-2.38,2.65-1,6.29,1.29,9.67,3.78,11.6,4.84,11C48.51,72.18,46.48,55.28,42.78,56Z"/><path class="cls-29" d="M45.25,69.73a6.86,6.86,0,0,1-.86-5.21c1.35-8-3.57-8.82-2.63-3.25,0,0,.77-2.56,1.37-1.76.74,1-.87,1.44-.19,5.65A11.85,11.85,0,0,0,45.25,69.73Z"/><path class="cls-28" d="M100.27,55.89c3.07.42,2.52,2.53,1.4,6.23-.74,9.72-3.11,11.76-4.21,11.22C95.48,72.35,96.54,55.38,100.27,55.89Z"/><path class="cls-30" d="M98.59,69.75a6.83,6.83,0,0,0,.56-5.24c-1.8-7.94,3.06-9,2.44-3.37,0,0-.92-2.52-1.47-1.69-.68,1,.95,1.4.52,5.63A11.79,11.79,0,0,1,98.59,69.75Z"/><path class="cls-31" d="M97.87,55.42c.91-22.76-6.07-25.83-8.06-28.15-4-4.72-10.41-6.78-21.28-6.53,0,0-14.17.5-17.71,8.26C47,37.3,46.36,48.7,46.69,59.4c.4,13,.4,16.42,1.53,19.13a10.84,10.84,0,0,0,3.7,5c4,3.19,9.34,9.18,12.6,11.8,1.31,1.06,10.12,3.32,17-1.38a80.57,80.57,0,0,0,11.83-10,11.72,11.72,0,0,0,3.22-6.72c0-1.83,1.09-8.73,1-10.08C97.28,59.81,97.62,61.74,97.87,55.42Z"/><path class="cls-32" d="M86.81,76.93c4.47.3,9.9-.27,10.83-9.55.54-5.3-.45-8.06-2.67-8.47-4.69-.88-11.43,1.18-14.23,2.64C74.81,64.65,78.88,76.39,86.81,76.93Z"/><path class="cls-33" d="M62,61.11c-1.28-.47-11-2.69-13.92-1.85-1.65.49-2.2,4.24-1.92,7.77a29.31,29.31,0,0,0,.89,5.47c1.88,5.24,9.86,5.47,14,4C68.12,74,68.53,63.48,62,61.11Z"/><path class="cls-34" d="M94.44,61.45c-.8-.45-1.4.2-3.08.76s-6.14,1.39-4,2.54c2.34,1.27,5.6-.47,6-.8S95.44,62,94.44,61.45Z"/><path class="cls-35" d="M81.93,79.54l-.43.36A2.79,2.79,0,0,0,81.93,79.54Z"/><path class="cls-36" d="M80.18,72.37c4.5,3.64,2.68,6.25,1.75,7.17,1.73-1.45,4.06-3.07,3.91-3.71C85.28,73.52,80.18,72.37,80.18,72.37Z"/><path class="cls-37" d="M81.46,76.81A21.33,21.33,0,0,0,84,76.1a2.15,2.15,0,0,0,.38-.75l-1.46.45Z"/><path class="cls-38" d="M59.37,76.19c.1.71,2.11,2.46,3.43,3.82,0,0-3.52-3.78,1.38-7.19C64.18,72.82,59,73.79,59.37,76.19Z"/><path class="cls-37" d="M60.57,75.5a2,2,0,0,0,.39.75,20.5,20.5,0,0,0,2.51.7L62,76Z"/><path class="cls-39" d="M67.79,85.56A38.7,38.7,0,0,1,78,85.64C73.4,82.75,67.79,85.56,67.79,85.56Z"/><path class="cls-40" d="M61.12,75.79c.12.13.21.3.37.37,2.94,1.3,3,2.55,4.24,3.23a14.08,14.08,0,0,0,13.17-.12c2-1.11,2.28-2.41,4.69-3.35a.62.62,0,0,0,.39-.37A48.21,48.21,0,0,1,61.12,75.79Z"/><path class="cls-41" d="M72.66,81.92c-1.73,0-3.45-.34-3.45,0S70.72,83,72.46,83s3.46-.76,3.46-1.1S74.4,81.92,72.66,81.92Z"/><path class="cls-42" d="M77.68,78.47a28.87,28.87,0,0,1-5.45.68,32.58,32.58,0,0,1-5.77-.64c-.55-.1-.78.85-.78.85,1.64,1.2,3.61,1.65,6.76,1.67A11,11,0,0,0,79,79.24S78.37,78.33,77.68,78.47Z"/><path class="cls-43" d="M66.24,82.36C73,87.7,79.38,82,79.38,82A15.09,15.09,0,0,1,66.24,82.36Z"/><path class="cls-44" d="M64,76.4A1.91,1.91,0,0,0,65.2,78c.65.28,2.11,1.39,7.78,1.22s6.78-1.55,7-1.79a2.86,2.86,0,0,0,.7-1.19A51.21,51.21,0,0,1,64,76.4Z"/><path class="cls-45" d="M64,76.3a2.24,2.24,0,0,0,.22.8c.16.24,4.69.9,8.11.92a31.28,31.28,0,0,0,8-1,2.59,2.59,0,0,0,.38-.85S76.91,77.41,64,76.3Z"/><path class="cls-46" d="M60.42,75.44s.82.48.7.35A48.21,48.21,0,0,0,84,75.55l.69-.35C77.68,76.36,60.42,75.44,60.42,75.44Z"/><path class="cls-47" d="M51.86,62.39c-1.7-.46-2.34-1.09-3.12-.59-1,.61.83,2.13,1.24,2.44s3.77,1.87,6,.49C58.06,63.47,53.53,62.85,51.86,62.39Z"/><path class="cls-48" d="M77.63,50.06c-.35,2.21-2.38,10.36-1.08,11.13,8.12,4.78,17-1.27,17-1.27C95.8,46.6,77.63,50.06,77.63,50.06Z"/><path class="cls-49" d="M50.11,60.11s8.63,5.77,16.93.43c1.27-.82-1.24-8.06-1.59-10.27C65.45,50.27,49.93,45.7,50.11,60.11Z"/><path class="cls-50" d="M59.21,54.05C57.85,54,55,54.39,54,55.14c-1.73,1.35-2.34,2.56-2.19,4.1.05.46,1.9,2.2,5.83,2.5,2.94.23,7.61,0,8.75-1.23.54-.59-.16-2.95-.38-3.79C65.58,55.14,63.34,54.28,59.21,54.05Z"/><path class="cls-51" d="M62.1,55.69c-6.32-.76-5.93.18-8.49,3.11a2.3,2.3,0,0,0,.39,1,4.31,4.31,0,0,0,2.62,1.52,13.69,13.69,0,0,0,7.08-.15c.73-.15,1.55-.85,1.53-1.16a5.41,5.41,0,0,0-.39-2.45A3.18,3.18,0,0,0,62.1,55.69Z"/><path class="cls-52" d="M53.61,58.8a2.29,2.29,0,0,0,.36.94c4.53-2.81,9.43-2.16,10.87-2.2-2.57-1.64-6.32-1.27-8.17-1.48C54.32,55.81,53.61,58.8,53.61,58.8Z"/><path class="cls-53" d="M59.53,56.05A3.47,3.47,0,0,0,56,59.76a2.58,2.58,0,0,0,.6,1.54,13.17,13.17,0,0,0,3,.38,11.14,11.14,0,0,0,3.14-.31,4.2,4.2,0,0,0,.58-1.76A3.29,3.29,0,0,0,59.53,56.05Z"/><path class="cls-54" d="M59.38,55.78a3.68,3.68,0,0,0-3.3,2.89,16.59,16.59,0,0,1,6.7-1.17A3.88,3.88,0,0,0,59.38,55.78Z"/><path class="cls-55" d="M59.6,56.63a2.17,2.17,0,1,0,2.25,2.12A2.2,2.2,0,0,0,59.6,56.63Z"/><path class="cls-56" d="M63.55,56.05c-2.23-1.24-5.7-1-7.92-.11a3,3,0,0,0-2,2.86s1.14-1.3,4.87-1.81a13.71,13.71,0,0,1,6.36.55A3.46,3.46,0,0,0,63.55,56.05Z"/><path class="cls-57" d="M61.42,59a.9.9,0,1,0,1.27.38A.94.94,0,0,0,61.42,59Z"/><path class="cls-57" d="M59.43,58.05a.74.74,0,0,0-.36,1,.75.75,0,0,0,1,.29.71.71,0,0,0,.36-1A.76.76,0,0,0,59.43,58.05Z"/><path class="cls-58" d="M89.43,55.14c-1-.75-3.87-1.16-5.22-1.09-4.14.23-6.37,1.09-6.78,2.67-.22.84-.92,3.2-.38,3.79,1.13,1.24,5.81,1.46,8.75,1.23,3.93-.3,5.78-2,5.82-2.5C91.77,57.7,91.16,56.49,89.43,55.14Z"/><path class="cls-59" d="M81.32,55.69a3.18,3.18,0,0,0-2.74,1.85A5.26,5.26,0,0,0,78.19,60c0,.31.79,1,1.53,1.16a13.66,13.66,0,0,0,7.07.15,4.34,4.34,0,0,0,2.63-1.52,2.47,2.47,0,0,0,.39-1C87.25,55.87,87.63,54.93,81.32,55.69Z"/><path class="cls-52" d="M86.74,56.06c-1.84.21-5.6-.16-8.16,1.48,1.44,0,6.33-.61,10.87,2.2a2.29,2.29,0,0,0,.36-.94S89.1,55.81,86.74,56.06Z"/><path class="cls-60" d="M83.88,56.05a3.28,3.28,0,0,0-3.76,3.56,4.24,4.24,0,0,0,.57,1.76,11.19,11.19,0,0,0,3.14.31,13.09,13.09,0,0,0,3-.38,2.52,2.52,0,0,0,.6-1.54A3.46,3.46,0,0,0,83.88,56.05Z"/><path class="cls-61" d="M84,55.78a3.91,3.91,0,0,0-3.41,1.72,16.62,16.62,0,0,1,6.71,1.17A3.68,3.68,0,0,0,84,55.78Z"/><path class="cls-62" d="M83.82,56.63a2.18,2.18,0,0,0-2.25,2.12,2.22,2.22,0,1,0,2.25-2.12Z"/><path class="cls-63" d="M87.79,55.94c-2.22-.9-5.7-1.13-7.92.11a3.46,3.46,0,0,0-1.29,1.49A13.68,13.68,0,0,1,84.94,57c3.73.51,4.87,1.81,4.87,1.81A3,3,0,0,0,87.79,55.94Z"/><path class="cls-57" d="M85.63,58.86A1,1,0,0,0,84.79,60a.94.94,0,0,0,1,.84,1,1,0,0,0,.84-1.08A1,1,0,0,0,85.63,58.86Z"/><path class="cls-57" d="M83.55,58a.76.76,0,0,0-.66.85.75.75,0,1,0,.66-.85Z"/><path class="cls-64" d="M89,50.05a19,19,0,0,0-10.65-.71c-1.27.21-1.13,2.37.27,2.52,2.62.27,12.06-1,12.06-1S91.28,50.76,89,50.05Z"/><path class="cls-65" d="M64.79,49.34a19,19,0,0,0-10.65.71c-2.3.71-1.68.85-1.68.85s9.44,1.23,12.06,1C65.92,51.71,66.06,49.55,64.79,49.34Z"/><path class="cls-66" d="M45.89,65.31a61.11,61.11,0,0,0,1.66,12.33,11.87,11.87,0,0,0,3.24,5.52c3.93,3.67,9.22,8,9.22,8-.77-1.13-7.3-8.64-8.47-10.39C47.1,74.1,45.89,65.31,45.89,65.31Z"/><path class="cls-67" d="M84.35,92c1.66-1.3,5.72-4.64,9.17-7.93a13.91,13.91,0,0,0,3.15-6.13c.47-1.82,1.1-12.31,1.1-12.31-.49,4.55-1.84,11-4.25,15.37S85.3,90.69,84.35,92Z"/><path class="cls-68" d="M91.06,31c-9.94-7-36.57-.11-39.29-.05s-5.48,34.55-5.48,34.55S49,58.2,49.93,54.07s1.37-13.91,4.88-17.35C65,26.77,83,31,87.3,35c4.66,4.28,5.5,15,6.44,17.56s3.63,11.52,3.63,11.52S101,38,91.06,31Z"/><path class="cls-69" d="M94.23,26.43s1.9-5.58-2.36-9.36c0,0,1.42,1.42,0,3.78,0,0-4.57-9.75-18.48-10.25l2.73,3.1s-12.82-4.93-24.05,2A12.22,12.22,0,0,1,55.39,18c-6.93-.48-10.55,3.63-12.35,8,0,0,4.28-2.42,8.08.44A9.22,9.22,0,0,0,40.7,32.92s4.55-4.59,7.58,0c0,0-5.2-.65-7.73,8.31,2.13-3.31,3.71-1.42,3.71-1.42S41.64,45,43.45,56.05c0,0,2.44.84,2.75,7.63,0,0,2.57-26.36,7.41-29.56C65.87,26,85,30,87.85,32c8.89,6.37,9.92,31.85,9.92,31.85s-.06-8.17,2.81-7.87C100.58,55.94,107.08,32.34,94.23,26.43Z"/><path class="cls-70" d="M94.23,26.43a8.28,8.28,0,0,0-2.36-9.36s4.59,6.26.41,10.17c0,0,6.24,1.75,9.74,12.13C102,39.37,101.9,29.29,94.23,26.43Z"/><path class="cls-71" d="M73.39,10.6l2.73,3.1V12.44S81.65,11,91.87,20.85C91.87,20.85,87.94,11.11,73.39,10.6Z"/><path class="cls-72" d="M52.07,15.66A10.63,10.63,0,0,1,55.39,18l-.28-2.3C70.24,8.84,81,17.92,81,17.92,74.52,7.5,52.5,13.15,52.07,15.66Z"/><path class="cls-73" d="M43,26a16.21,16.21,0,0,1,2.77-.87s1-6.66,9.58-7.1C55.39,18,47,16.42,43,26Z"/><path class="cls-74" d="M54.55,75.2C50.33,74,48,58.67,48,58.67c-2.11,5.22,4,21.75,7.55,21.23s7.56-8,7.56-8S58.2,76.23,54.55,75.2Z"/><path class="cls-75" d="M40.7,32.92a18.11,18.11,0,0,1,1.88-1.37,8,8,0,0,1,8.54-5.12A9,9,0,0,0,40.7,32.92Z"/><path class="cls-76" d="M79.38,85.64c-1.65,1.36-8.46,3.08-13.14.48-3.78-2.1-5.37-9.31-5.37-9.31.05,5.32,1.54,9.26,3.31,11.57s12.16,2.11,16.94-1,3.27-11.24,3.27-11.24C84.44,78.72,82.21,83.31,79.38,85.64Z"/><path class="cls-77" d="M91.43,73.94c-3.54,1.85-8.61-1.12-8.61-1.12s5.75,11.14,10,5.94,3-22.42,3-22.42S95,72.09,91.43,73.94Z"/><path class="cls-78" d="M40.55,41.23A5.13,5.13,0,0,1,43,39.28s-.25-4.49,5.24-6.36C48.28,32.92,42.49,32.26,40.55,41.23Z"/><path class="cls-79" d="M95.79,56.63c-.69,15.74-2.48,19.8-7,19.21s-4.76-2.57-7-3.74c-1.46-.75-17.38-1.09-18.74-.21-2.22,1.42-2.49,4.42-7.89,4.62-3,.12-6.71-4.67-7.22-17.84-.16-4.1-1.45,2.18-1.45,2.18-1.38,13.66,1.33,20.69,4.09,25.74,1.94,3.55,6.64,10.83,12.88,14.27,2.62,1.45,5,1.35,8.54,1.27s7.72-.17,10.87-2c6.36-3.74,10.76-11.23,12.83-16.79,3.1-8.31,1.81-22.76,1.81-22.76Zm-14.05,28c-1.31,2.08-4.1,3.25-7.61,3.49-6.35.41-9-.58-10.66-3.09-1.82-2.85-3.27-9.19-2.35-9.64.69-.34,12.49.88,22.52-.22C85.08,75,84.46,80.31,81.74,84.59Z"/><path class="cls-80" d="M61.38,19.49l-.12,0Z"/><path class="cls-81" d="M80.57,19.46S86.69,25.35,86.83,30c-3-2-11.44-2.15-13.11-2.13-1.64-2.2-5.19-7.15-12.34-8.4.81.19,3.89,1.06,8,8.18-2.84-.23-8.13,1.64-9.25,1.87-.79-.56-4.2-2.35-6.55-2.34,0,0,3.63,1.68,4,3.18a13.62,13.62,0,0,0-5.81,4.91C46.13,44.81,46.14,66,46.14,66s2-7.56,3-13c1.2-6.3,1.58-13.8,3.8-16.79,5.64-7.61,26.32-9,34.9-3.29,4.75,3.17,5.53,11.36,6.9,18.48,1.18,6.1,3,14.71,3,14.71S98,42,92.28,33.57C92.28,33.57,88.72,23.36,80.57,19.46Z"/><path class="cls-82" d="M74.4,61.43c.26-5.1-1.52-5.83-2.84-5.78s-2,1.81-1.73,5.69-.5,5.36-.33,7.17c.08.82.46,1.36,2.56,1.38,2.29,0,3.09-.53,3.19-1.3C75.52,66.48,74.22,65.1,74.4,61.43Z"/><path class="cls-37" d="M74.66,71.33C77.76,70.56,79,71,79,71,77.18,69.43,74.66,71.33,74.66,71.33Z"/><path class="cls-37" d="M65.86,70.79a9.22,9.22,0,0,1,4,.57S67.53,69.56,65.86,70.79Z"/><path class="cls-83" d="M77.06,66.16c0,1.28.27,2.13-.11,2.86-.87,1.61-3.1,2.26-4.6,2.13-1.13.14-3.79-.43-4.89-2.12-.46-.69-.17-1.31-.38-2.67,0,0-3.07,3.71-1.22,4.43a3.16,3.16,0,0,1,2-.27c1.49.14,1.18,1.77,4.59,1.8,3,0,2-1.39,3.92-1.67s2.14.22,2.56.41C79.9,71.06,79.22,67.92,77.06,66.16Z"/><path class="cls-84" d="M69.17,68.35c-.13.83,1,1.72,3.13,1.74,2.3,0,2.81-.9,2.62-1.66C73.79,63.91,69.66,65.26,69.17,68.35Z"/><path class="cls-85" d="M75.27,53.74a8.78,8.78,0,0,1-6.84.22c-.8-.62-19-.83-20-.12-.56.41,0,4.22.08,7.19s.38,4.76,2,5.83,13.68,1.51,15.67.12,3.4-8.17,3.4-8.17a4.75,4.75,0,0,1,4.43,0c.32,1.08,1.46,6.67,3.39,7.91s14.06.93,15.67-.12,1.9-2.86,2-5.83.64-6.78.08-7.19C94.29,52.91,76.14,53.23,75.27,53.74ZM64.91,65.79c-1.44,1.29-12,0-12.48-.12a2.41,2.41,0,0,1-1.72-2.19c-.09-.64-1-6.94-.08-7.71s17-.43,17.34.21C68.7,57.29,66.34,64.51,64.91,65.79ZM93,63.25a2.43,2.43,0,0,1-1.72,2.2c-.46.16-10.69.9-12.48.12S75,57.06,75.73,55.76c.36-.64,16.47-1,17.34-.21S93.08,62.62,93,63.25Z"/></svg>