<svg id="Layer_1" data-name="Layer 1" xmlns="http://www.w3.org/2000/svg" xmlns:xlink="http://www.w3.org/1999/xlink" viewBox="0 0 144 144"><defs><style>.cls-1{fill:#f6ece6;}.cls-2{fill:url(#linear-gradient);}.cls-3{fill:url(#linear-gradient-2);}.cls-4{fill:#f7d9ab;}.cls-5{fill:url(#linear-gradient-3);}.cls-6{fill:url(#linear-gradient-4);}.cls-7{fill:url(#linear-gradient-5);}.cls-8{fill:#f37443;}.cls-9{fill:url(#linear-gradient-6);}.cls-10{fill:url(#linear-gradient-7);}.cls-11{fill:url(#linear-gradient-8);}.cls-12{fill:url(#linear-gradient-9);}.cls-13{fill:url(#linear-gradient-10);}.cls-14{fill:url(#linear-gradient-11);}.cls-15{fill:url(#linear-gradient-12);}.cls-16{fill:url(#linear-gradient-13);}.cls-17{fill:url(#linear-gradient-14);}.cls-18{fill:url(#linear-gradient-15);}.cls-19{fill:url(#linear-gradient-16);}.cls-20{fill:url(#linear-gradient-17);}.cls-21{fill:url(#linear-gradient-18);}.cls-22{fill:url(#linear-gradient-19);}.cls-23{fill:url(#linear-gradient-20);}.cls-24{fill:url(#linear-gradient-21);}.cls-25{fill:url(#linear-gradient-22);}.cls-26{fill:url(#linear-gradient-23);}.cls-27{fill:url(#linear-gradient-24);}.cls-28{fill:url(#linear-gradient-25);}.cls-29{fill:url(#linear-gradient-26);}.cls-30{fill:url(#linear-gradient-27);}.cls-31{fill:#f1c99a;}.cls-32{fill:url(#linear-gradient-28);}.cls-33{fill:url(#linear-gradient-29);}.cls-34{fill:url(#radial-gradient);}.cls-35{fill:url(#linear-gradient-30);}.cls-36{fill:url(#radial-gradient-2);}.cls-37{fill:url(#linear-gradient-31);}.cls-38{fill:url(#linear-gradient-32);}.cls-39{fill:url(#linear-gradient-33);}.cls-40{fill:url(#linear-gradient-34);}.cls-41{fill:url(#linear-gradient-35);}.cls-42{fill:url(#linear-gradient-36);}.cls-43{fill:url(#linear-gradient-37);}.cls-44{fill:#dba879;}.cls-45{fill:url(#linear-gradient-38);}.cls-46{fill:url(#linear-gradient-39);}.cls-47{fill:url(#linear-gradient-40);}.cls-48{fill:url(#linear-gradient-41);}.cls-49{fill:url(#linear-gradient-42);}.cls-50{fill:url(#linear-gradient-43);}.cls-51{fill:url(#linear-gradient-44);}.cls-52{fill:url(#linear-gradient-45);}.cls-53{fill:url(#linear-gradient-46);}.cls-54{fill:url(#linear-gradient-47);}.cls-55{fill:url(#linear-gradient-48);}.cls-56{fill:url(#linear-gradient-49);}.cls-57{fill:url(#linear-gradient-50);}.cls-58{fill:url(#linear-gradient-51);}.cls-59{fill:url(#linear-gradient-52);}.cls-60{fill:url(#linear-gradient-53);}.cls-61{fill:url(#linear-gradient-54);}.cls-62{fill:url(#linear-gradient-55);}.cls-63{fill:url(#linear-gradient-56);}.cls-64{fill:url(#linear-gradient-57);}.cls-65{fill:url(#linear-gradient-58);}.cls-66{fill:url(#linear-gradient-59);}.cls-67{fill:url(#linear-gradient-60);}.cls-68{fill:#971b27;}.cls-69{fill:url(#linear-gradient-61);}.cls-70{fill:url(#linear-gradient-62);}.cls-71{fill:#f26d79;}.cls-72{fill:url(#linear-gradient-63);}.cls-73{fill:#f598a2;}.cls-74{fill:url(#linear-gradient-64);}.cls-75{fill:url(#linear-gradient-65);}.cls-76{fill:url(#linear-gradient-66);}.cls-77{fill:url(#linear-gradient-67);}.cls-78{fill:url(#linear-gradient-68);}.cls-79{fill:#ddd;}.cls-80{fill:url(#linear-gradient-69);}.cls-81{fill:url(#linear-gradient-70);}.cls-82{fill:url(#linear-gradient-71);}.cls-83{fill:#fff;}.cls-84{fill:url(#linear-gradient-72);}.cls-85{fill:url(#linear-gradient-73);}.cls-86{fill:url(#linear-gradient-74);}.cls-87{fill:url(#linear-gradient-75);}.cls-88{fill:url(#linear-gradient-76);}.cls-89{fill:url(#linear-gradient-77);}.cls-90{fill:url(#linear-gradient-78);}.cls-91{fill:url(#linear-gradient-79);}.cls-92{fill:url(#linear-gradient-80);}.cls-93{fill:url(#linear-gradient-81);}.cls-94{fill:url(#linear-gradient-82);}.cls-95{fill:url(#linear-gradient-83);}.cls-96{fill:url(#linear-gradient-84);}</style><linearGradient id="linear-gradient" x1="54.78" y1="92.55" x2="54.78" y2="92.21" gradientUnits="userSpaceOnUse"><stop offset="0" stop-color="#5a3b34"/><stop offset="0.01" stop-color="#593b34"/><stop offset="0.3" stop-color="#482f29"/><stop offset="0.61" stop-color="#3e2823"/><stop offset="1" stop-color="#3b2621"/></linearGradient><linearGradient id="linear-gradient-2" x1="73.13" y1="117.57" x2="73.13" y2="86.67" xlink:href="#linear-gradient"/><linearGradient id="linear-gradient-3" x1="109.39" y1="127.77" x2="101.55" y2="135.97" gradientUnits="userSpaceOnUse"><stop offset="0" stop-color="#f1c99a"/><stop offset="0.53" stop-color="#f2cc9d"/><stop offset="0.87" stop-color="#f5d4a5"/><stop offset="1" stop-color="#f7d9ab"/></linearGradient><linearGradient id="linear-gradient-4" x1="108.27" y1="116.64" x2="119.41" y2="116.64" gradientUnits="userSpaceOnUse"><stop offset="0" stop-color="#ffdeb3"/><stop offset="0.68" stop-color="#fcdcb0"/><stop offset="1" stop-color="#f7d9ab"/></linearGradient><linearGradient id="linear-gradient-5" x1="115.66" y1="127.61" x2="113.82" y2="125.35" xlink:href="#linear-gradient-3"/><linearGradient id="linear-gradient-6" x1="116.22" y1="150.63" x2="111.24" y2="98.91" gradientUnits="userSpaceOnUse"><stop offset="0" stop-color="#f68f66"/><stop offset="0.35" stop-color="#f5895e"/><stop offset="0.9" stop-color="#f37848"/><stop offset="1" stop-color="#f37443"/></linearGradient><linearGradient id="linear-gradient-7" x1="108.86" y1="113.41" x2="111.66" y2="133.74" gradientUnits="userSpaceOnUse"><stop offset="0" stop-color="#f37443"/><stop offset="0.52" stop-color="#ee6739"/><stop offset="1" stop-color="#ec6134"/></linearGradient><linearGradient id="linear-gradient-8" x1="112.98" y1="112.84" x2="115.78" y2="133.17" xlink:href="#linear-gradient-7"/><linearGradient id="linear-gradient-9" x1="55.44" y1="89.22" x2="91.21" y2="104.99" xlink:href="#linear-gradient-3"/><linearGradient id="linear-gradient-10" x1="52.96" y1="95.31" x2="94.83" y2="116.01" xlink:href="#linear-gradient-3"/><linearGradient id="linear-gradient-11" x1="43.54" y1="118.8" x2="43.98" y2="126.68" gradientUnits="userSpaceOnUse"><stop offset="0" stop-color="#f1f0f4"/><stop offset="1" stop-color="#e2e2e5"/></linearGradient><linearGradient id="linear-gradient-12" x1="52.54" y1="126.75" x2="53.42" y2="142.59" xlink:href="#linear-gradient-7"/><linearGradient id="linear-gradient-13" x1="43.35" y1="125.67" x2="43.94" y2="136.47" xlink:href="#linear-gradient-11"/><linearGradient id="linear-gradient-14" x1="80.53" y1="109.83" x2="83.03" y2="134.73" xlink:href="#linear-gradient-6"/><linearGradient id="linear-gradient-15" x1="76.47" y1="115.21" x2="75.33" y2="105.59" xlink:href="#linear-gradient-3"/><linearGradient id="linear-gradient-16" x1="108.86" y1="113.63" x2="111.47" y2="132.59" xlink:href="#linear-gradient-7"/><linearGradient id="linear-gradient-17" x1="40.31" y1="135.77" x2="39.95" y2="136.66" gradientUnits="userSpaceOnUse"><stop offset="0" stop-color="#d2d1d4"/><stop offset="1" stop-color="#e2e2e5"/></linearGradient><linearGradient id="linear-gradient-18" x1="92.83" y1="109.28" x2="34.22" y2="102.04" xlink:href="#linear-gradient-7"/><linearGradient id="linear-gradient-19" x1="34.44" y1="108.33" x2="34.44" y2="108.33" gradientUnits="userSpaceOnUse"><stop offset="0" stop-color="#f1c99a"/><stop offset="0.66" stop-color="#f2cc9d"/><stop offset="1" stop-color="#f4d2a3"/></linearGradient><linearGradient id="linear-gradient-20" x1="50.87" y1="115.53" x2="47.75" y2="120.84" gradientUnits="userSpaceOnUse"><stop offset="0" stop-color="#f4d2a3"/><stop offset="0.34" stop-color="#f2cc9d"/><stop offset="1" stop-color="#f1c99a"/></linearGradient><linearGradient id="linear-gradient-21" x1="46.26" y1="109" x2="38.15" y2="137.14" xlink:href="#linear-gradient-4"/><linearGradient id="linear-gradient-22" x1="34.61" y1="135.7" x2="54.49" y2="135.7" gradientUnits="userSpaceOnUse"><stop offset="0" stop-color="#f7d9ab"/><stop offset="0.13" stop-color="#f5d4a5"/><stop offset="0.47" stop-color="#f2cc9d"/><stop offset="1" stop-color="#f1c99a"/></linearGradient><linearGradient id="linear-gradient-23" x1="44.85" y1="157.5" x2="39.87" y2="105.78" xlink:href="#linear-gradient-6"/><linearGradient id="linear-gradient-24" x1="45.43" y1="131.54" x2="41.38" y2="139.28" xlink:href="#linear-gradient-7"/><linearGradient id="linear-gradient-25" x1="75.52" y1="142.57" x2="72.82" y2="80.36" gradientUnits="userSpaceOnUse"><stop offset="0" stop-color="#dba879"/><stop offset="0.49" stop-color="#e4b687"/><stop offset="1" stop-color="#f1c99a"/></linearGradient><linearGradient id="linear-gradient-26" x1="54.34" y1="121.17" x2="51.58" y2="139.11" xlink:href="#linear-gradient-7"/><linearGradient id="linear-gradient-27" x1="99.83" y1="63.93" x2="96.98" y2="76.59" gradientUnits="userSpaceOnUse"><stop offset="0" stop-color="#dba879"/><stop offset="0.22" stop-color="#e2b384"/><stop offset="0.66" stop-color="#edc394"/><stop offset="1" stop-color="#f1c99a"/></linearGradient><linearGradient id="linear-gradient-28" x1="46.39" y1="63.26" x2="49.24" y2="78.1" xlink:href="#linear-gradient-27"/><linearGradient id="linear-gradient-29" x1="86.86" y1="70.21" x2="86.71" y2="54.28" gradientUnits="userSpaceOnUse"><stop offset="0" stop-color="#f7d9ab"/><stop offset="0.53" stop-color="#f6d6a8"/><stop offset="0.87" stop-color="#f3cea0"/><stop offset="1" stop-color="#f1c99a"/></linearGradient><radialGradient id="radial-gradient" cx="105.58" cy="119.79" r="21.39" gradientTransform="translate(46.28 23.62) scale(0.41 0.41)" gradientUnits="userSpaceOnUse"><stop offset="0" stop-color="#f9b58e"/><stop offset="0.56" stop-color="#f8c89d"/><stop offset="1" stop-color="#f7d9ab"/></radialGradient><linearGradient id="linear-gradient-30" x1="59.99" y1="70.86" x2="60.51" y2="53.73" xlink:href="#linear-gradient-29"/><radialGradient id="radial-gradient-2" cx="26.1" cy="121.35" r="20.41" xlink:href="#radial-gradient"/><linearGradient id="linear-gradient-31" x1="90.22" y1="68.58" x2="94.95" y2="68.58" gradientUnits="userSpaceOnUse"><stop offset="0" stop-color="#ffdeb3"/><stop offset="1" stop-color="#f7d9ab"/></linearGradient><linearGradient id="linear-gradient-32" x1="51.08" y1="68.77" x2="55.8" y2="68.77" xlink:href="#linear-gradient-31"/><linearGradient id="linear-gradient-33" x1="75.98" y1="5.82" x2="72.43" y2="73.46" gradientUnits="userSpaceOnUse"><stop offset="0" stop-color="#f7d9ab"/><stop offset="0.46" stop-color="#f3cfa1"/><stop offset="1" stop-color="#f1c99a"/></linearGradient><linearGradient id="linear-gradient-34" x1="67.69" y1="89.03" x2="76.27" y2="89.03" xlink:href="#linear-gradient-4"/><linearGradient id="linear-gradient-35" x1="73.34" y1="103.29" x2="73.43" y2="84.79" xlink:href="#linear-gradient-25"/><linearGradient id="linear-gradient-36" x1="96.66" y1="44.4" x2="97.64" y2="74.86" gradientUnits="userSpaceOnUse"><stop offset="0" stop-color="#6c342a"/><stop offset="0.29" stop-color="#5b2c23"/><stop offset="0.71" stop-color="#49231b"/><stop offset="1" stop-color="#422018"/></linearGradient><linearGradient id="linear-gradient-37" x1="48.31" y1="65.1" x2="49.82" y2="47.92" xlink:href="#linear-gradient-36"/><linearGradient id="linear-gradient-38" x1="97.68" y1="67.14" x2="93.85" y2="56.12" gradientUnits="userSpaceOnUse"><stop offset="0" stop-color="#683126"/><stop offset="0.59" stop-color="#4e261d"/><stop offset="1" stop-color="#422018"/></linearGradient><linearGradient id="linear-gradient-39" x1="90.85" y1="29.69" x2="91.66" y2="109.59" xlink:href="#linear-gradient"/><linearGradient id="linear-gradient-40" x1="58.16" y1="30.34" x2="58.98" y2="110.68" xlink:href="#linear-gradient"/><linearGradient id="linear-gradient-41" x1="90.3" y1="102.4" x2="88.57" y2="16.27" xlink:href="#linear-gradient"/><linearGradient id="linear-gradient-42" x1="76.48" y1="38.74" x2="77.6" y2="22.15" gradientUnits="userSpaceOnUse"><stop offset="0" stop-color="#5a3b34"/><stop offset="0.4" stop-color="#5f3e38"/><stop offset="0.85" stop-color="#6c4842"/><stop offset="1" stop-color="#724d47"/></linearGradient><linearGradient id="linear-gradient-43" x1="90.02" y1="74.2" x2="101.6" y2="7.01" xlink:href="#linear-gradient-42"/><linearGradient id="linear-gradient-44" x1="53.14" y1="73.99" x2="66.57" y2="-3.91" xlink:href="#linear-gradient-42"/><linearGradient id="linear-gradient-45" x1="98.1" y1="-25.05" x2="100.86" y2="111.29" gradientUnits="userSpaceOnUse"><stop offset="0" stop-color="#3b2621"/><stop offset="0.39" stop-color="#3e2823"/><stop offset="0.7" stop-color="#482f29"/><stop offset="0.99" stop-color="#593b34"/><stop offset="1" stop-color="#5a3b34"/></linearGradient><linearGradient id="linear-gradient-46" x1="38.37" y1="-26.76" x2="43.88" y2="99.29" xlink:href="#linear-gradient-45"/><linearGradient id="linear-gradient-47" x1="60.11" y1="155.54" x2="61.21" y2="4.05" xlink:href="#linear-gradient"/><linearGradient id="linear-gradient-48" x1="98.55" y1="88.83" x2="95.94" y2="47.19" xlink:href="#linear-gradient"/><linearGradient id="linear-gradient-49" x1="94.78" y1="61.36" x2="96.86" y2="61.36" xlink:href="#linear-gradient"/><linearGradient id="linear-gradient-50" x1="59.05" y1="-42.02" x2="43.67" y2="96.94" xlink:href="#linear-gradient-45"/><linearGradient id="linear-gradient-51" x1="53.96" y1="92.74" x2="51.34" y2="50.92" gradientUnits="userSpaceOnUse"><stop offset="0" stop-color="#3b2621"/><stop offset="0.35" stop-color="#3f2924"/><stop offset="0.73" stop-color="#4c312b"/><stop offset="1" stop-color="#5a3b34"/></linearGradient><linearGradient id="linear-gradient-52" x1="82.37" y1="76.93" x2="97.65" y2="76.93" xlink:href="#linear-gradient-4"/><linearGradient id="linear-gradient-53" x1="80.38" y1="54.81" x2="94.87" y2="54.81" xlink:href="#linear-gradient-51"/><linearGradient id="linear-gradient-54" x1="51.54" y1="54.81" x2="66.12" y2="54.81" gradientUnits="userSpaceOnUse"><stop offset="0" stop-color="#5a3b34"/><stop offset="0.27" stop-color="#4c312b"/><stop offset="0.65" stop-color="#3f2924"/><stop offset="1" stop-color="#3b2621"/></linearGradient><linearGradient id="linear-gradient-55" x1="72.88" y1="77.84" x2="72.85" y2="74.22" xlink:href="#linear-gradient-29"/><linearGradient id="linear-gradient-56" x1="73.95" y1="74.32" x2="70.93" y2="66.51" xlink:href="#linear-gradient-31"/><linearGradient id="linear-gradient-57" x1="77.49" y1="73.71" x2="74.54" y2="75.17" xlink:href="#linear-gradient-25"/><linearGradient id="linear-gradient-58" x1="68.34" y1="73.76" x2="71.51" y2="75.05" xlink:href="#linear-gradient-25"/><linearGradient id="linear-gradient-59" x1="66.32" y1="81.11" x2="63.54" y2="78.81" xlink:href="#linear-gradient-29"/><linearGradient id="linear-gradient-60" x1="83.9" y1="79.72" x2="81.85" y2="78.68" xlink:href="#linear-gradient-29"/><linearGradient id="linear-gradient-61" x1="67.13" y1="81.66" x2="79.44" y2="81.66" gradientUnits="userSpaceOnUse"><stop offset="0" stop-color="#e8d9d7"/><stop offset="0.14" stop-color="#f0e6e4"/><stop offset="0.39" stop-color="#fbf8f8"/><stop offset="0.57" stop-color="#fff"/><stop offset="1" stop-color="#e8d3d1"/></linearGradient><linearGradient id="linear-gradient-62" x1="63.17" y1="80.26" x2="82.56" y2="80.26" gradientUnits="userSpaceOnUse"><stop offset="0" stop-color="#e8d9d7"/><stop offset="0.04" stop-color="#ebdfdd"/><stop offset="0.21" stop-color="#f6f1f0"/><stop offset="0.38" stop-color="#fdfbfb"/><stop offset="0.57" stop-color="#fff"/><stop offset="0.69" stop-color="#fbf8f8"/><stop offset="0.87" stop-color="#f1e5e3"/><stop offset="1" stop-color="#e8d3d1"/></linearGradient><linearGradient id="linear-gradient-63" x1="66.69" y1="82.44" x2="80.86" y2="82.44" gradientUnits="userSpaceOnUse"><stop offset="0" stop-color="#f26e7f"/><stop offset="0.02" stop-color="#f26f80"/><stop offset="0.24" stop-color="#f37986"/><stop offset="0.53" stop-color="#f37c88"/><stop offset="0.77" stop-color="#f37885"/><stop offset="1" stop-color="#f26d7d"/></linearGradient><linearGradient id="linear-gradient-64" x1="65.94" y1="79.92" x2="80.95" y2="79.96" gradientUnits="userSpaceOnUse"><stop offset="0" stop-color="#e8d9d7"/><stop offset="0.05" stop-color="#eadddb"/><stop offset="0.31" stop-color="#f6efef"/><stop offset="0.48" stop-color="#faf6f6"/><stop offset="1" stop-color="#e8d3d1"/></linearGradient><linearGradient id="linear-gradient-65" x1="68.04" y1="79.23" x2="78.78" y2="79.23" xlink:href="#linear-gradient-63"/><linearGradient id="linear-gradient-66" x1="53.32" y1="62.28" x2="66.08" y2="62.28" xlink:href="#linear-gradient-25"/><linearGradient id="linear-gradient-67" x1="63.95" y1="63.93" x2="73.84" y2="63.93" gradientUnits="userSpaceOnUse"><stop offset="0" stop-color="#fff"/><stop offset="0.46" stop-color="#fdfcfc"/><stop offset="0.76" stop-color="#f6f4f4"/><stop offset="1" stop-color="#ece7e6"/></linearGradient><linearGradient id="linear-gradient-68" x1="45.95" y1="64.16" x2="58.63" y2="64.16" xlink:href="#linear-gradient-67"/><linearGradient id="linear-gradient-69" x1="57.21" y1="63.89" x2="64.63" y2="63.89" gradientUnits="userSpaceOnUse"><stop offset="0" stop-color="#725342"/><stop offset="1" stop-color="#b89c8c"/></linearGradient><linearGradient id="linear-gradient-70" x1="72.05" y1="69.17" x2="62.82" y2="63.37" gradientUnits="userSpaceOnUse"><stop offset="0" stop-color="#b89c8c"/><stop offset="1" stop-color="#725342"/></linearGradient><linearGradient id="linear-gradient-71" x1="58.26" y1="63.12" x2="63.38" y2="63.12" gradientUnits="userSpaceOnUse"><stop offset="0" stop-color="#2b3b3b"/><stop offset="1" stop-color="#1d2827"/></linearGradient><linearGradient id="linear-gradient-72" x1="52.6" y1="64.25" x2="66.11" y2="60.74" xlink:href="#linear-gradient-54"/><linearGradient id="linear-gradient-73" x1="44.94" y1="61.7" x2="64.77" y2="63.04" xlink:href="#linear-gradient-54"/><linearGradient id="linear-gradient-74" x1="55.77" y1="59.15" x2="75.48" y2="60.89" xlink:href="#linear-gradient-25"/><linearGradient id="linear-gradient-75" x1="78.62" y1="62.28" x2="91.39" y2="62.28" gradientUnits="userSpaceOnUse"><stop offset="0" stop-color="#f1c99a"/><stop offset="0.51" stop-color="#e4b687"/><stop offset="1" stop-color="#dba879"/></linearGradient><linearGradient id="linear-gradient-76" x1="79.03" y1="63.93" x2="88.92" y2="63.93" xlink:href="#linear-gradient-67"/><linearGradient id="linear-gradient-77" x1="79.03" y1="65.18" x2="95.3" y2="65.18" xlink:href="#linear-gradient-67"/><linearGradient id="linear-gradient-78" x1="78.65" y1="64.16" x2="91.34" y2="64.16" xlink:href="#linear-gradient-67"/><linearGradient id="linear-gradient-79" x1="89.88" y1="65.77" x2="78.21" y2="60.83" xlink:href="#linear-gradient-70"/><linearGradient id="linear-gradient-80" x1="82.47" y1="61.39" x2="109.22" y2="66.26" xlink:href="#linear-gradient-69"/><linearGradient id="linear-gradient-81" x1="82.25" y1="63.12" x2="87.37" y2="63.12" xlink:href="#linear-gradient-71"/><linearGradient id="linear-gradient-82" x1="78.99" y1="64.77" x2="93.89" y2="60.9" xlink:href="#linear-gradient-51"/><linearGradient id="linear-gradient-83" x1="106.27" y1="63.95" x2="82.86" y2="62.99" xlink:href="#linear-gradient-54"/><linearGradient id="linear-gradient-84" x1="79.46" y1="59.59" x2="98.21" y2="61.24" xlink:href="#linear-gradient-25"/></defs><circle class="cls-1" cx="72" cy="72" r="72" transform="translate(-29.82 72) rotate(-45)"/><path class="cls-1" d="M72,0h0a72,72,0,0,1,0,144h0A72,72,0,0,0,72,0Z"/><circle class="cls-1" cx="72" cy="72" r="72"/><path class="cls-2" d="M54.87,92.4c-.06-.3-.11-.6-.18-.89Z"/><path class="cls-3" d="M68.89,24.62C52.14,28.86,25.62,69.46,54.22,104c0,0,.29-2.24,1-2.65-1.3-2.88-1.3-6.23-1.86-9.4L53.16,91l.18.94c.56,2.88,1.12,5.78,2.51,8.12a16.6,16.6,0,0,1,2.25-1.58,33.23,33.23,0,0,1,9.29-3.73A25,25,0,0,1,89,99.59c1.45-1.6,3.09-3,4-5.13-.84,2-2,4-3,6A14.8,14.8,0,0,0,92.19,102s19.21-31.26,10-49.42C95,38.36,83.12,21,68.89,24.62Z"/><path class="cls-4" d="M95.75,101s5.9,24.5,6.63,27.71a53,53,0,0,0,3,7.08,72.06,72.06,0,0,0,13.81-9.44c-2.85-6.08-8.2-16.69-9.6-19.5C108.09,103.78,105.51,100.87,95.75,101Z"/><path class="cls-5" d="M105.23,135.88a70.4,70.4,0,0,0,8-4.88c-3-5.08-5.32-9-5.32-9Z"/><path class="cls-6" d="M108.77,107.69c3,5.75,6.8,13.88,8.11,16.74.34.73.84,1.66,1.44,2.69l1.09-.94c-3.36-6.66-7-14-9-17.93C109.74,106.86,107.19,104.63,108.77,107.69Z"/><path class="cls-7" d="M111.6,129.37l.41,1.23s4.76-6.1,6.16-6.87l-.65-1.31A35.8,35.8,0,0,0,111.6,129.37Z"/><path class="cls-8" d="M104.6,101.46c1.13,3.43,6.23,29.32,6.23,29.32,1.78-3.72,7-8,7-8C110.05,104.65,106.22,101.49,104.6,101.46Z"/><path class="cls-9" d="M116.56,123.75l1.47-1c-7-15.49-10.88-19.66-10.88-19.66C109.94,108.9,116.56,123.75,116.56,123.75Z"/><path class="cls-10" d="M108.5,118.24l3.13,11.56,1.81-3.1s-3.86-7.33-7.83-16.94C105.41,109.28,108.5,118.24,108.5,118.24Z"/><path class="cls-11" d="M111.27,127.49l.45,2.1s3-4.74,6.38-6.71l-.78-1.64C113.73,123,111.65,127.12,111.27,127.49Z"/><path class="cls-4" d="M84.57,99.94c-.64-.83-1.69-15-1.69-15l-20.61-.42c.61,1.7,1.11,11.61,0,14.93C61.39,102.32,46.8,105,46.8,105,56.59,119.23,68,117,80,116.17s12.64-14.5,12.64-14.5S85.53,101.17,84.57,99.94Z"/><path class="cls-12" d="M84.61,98.92a74.36,74.36,0,0,1-.42-7.69c.31-4.47.43-8.43.42-8.37L62,86.58s.47,11.25-.51,13.08c-1.28,2.36-11.77,4.5-11.77,4.5l.72,2.07s14-2,14.68-2.31.3-3.23.3-3.23c7.55-.92,12.71-2.21,16-4.6.17,2.11.11,7.22.47,7.77,1.18,1.82,18.49-2.07,18.49-2.07l-9.12-1.28S85.58,99.9,84.61,98.92Z"/><path class="cls-13" d="M90.05,100.39s2.37,11.18-12,12.68c-17.24,1.82-25.42-9.6-25.42-9.6l-3.26.75s12.37,15.14,30.51,12.43,12.09-16,12.09-16Z"/><path class="cls-8" d="M104.71,101.43l-13.63-1.22s1.54,10.9-8,13S60.91,115.17,51,103.62a126.05,126.05,0,0,0-16.51,4.73c2.76.82,9.06,8.35,6.85,28.8A72.06,72.06,0,0,0,111.81,132c-.67-3-1.48-6.06-2.25-9.64C107.74,113.92,108,110.34,104.71,101.43Z"/><path class="cls-14" d="M45.19,127.09c-1.67-4.92-2.83-8.26-2.83-8.26A51.38,51.38,0,0,0,45.19,127.09Z"/><path class="cls-15" d="M45.19,127.09c1.28,3.79,2.87,8.51,4.48,13.37a71.35,71.35,0,0,0,11.15,2.68C54.53,140.47,49,135.68,45.19,127.09Z"/><path class="cls-16" d="M40.69,136.85c2.17,1.05,4.42,2,6.71,2.84a59.07,59.07,0,0,1-5.2-13.08S42.62,132.81,40.69,136.85Z"/><path class="cls-17" d="M91.74,119.19c-5.73-1.12-23.65-1.62-29,2.59s-8.14,13.79,4,14.69c8.24.61,23.14,1.2,35.66-1.35C111,133.35,107.33,122.26,91.74,119.19Z"/><path class="cls-18" d="M76,107.74c-.44.32-2.67-1.25-3.48-1.43a17.79,17.79,0,0,0,3.06,3.58c1.19.78,2.58-4.33,2.52-5S76.47,107.41,76,107.74Z"/><path class="cls-19" d="M110.47,128.57c.25,1.29.49,2.58.71,3.84l1.14-.75c-1.48-5.83-3.84-15-3.84-15C108.18,117.68,109.38,123,110.47,128.57Z"/><path class="cls-20" d="M39.22,136.12l1.58.79-.39-.93C40.26,135.61,39.81,135.74,39.22,136.12Z"/><path class="cls-21" d="M91.08,100.21s1,8.12-4.68,11.4c-4.25,2.47-14.47,3.93-23.59.6-3.42-1.25-10-6.56-11.82-8.59l-1.34.29s6.13,8.8,17.13,10.94c12.25,2.39,20.44-1.09,22.08-3.1a13.86,13.86,0,0,0,3.58-11.42Z"/><path class="cls-4" d="M44.55,113.72c-4.31-5.3-7.09-5.75-9.41-5.51-1.38.15-7,1.63-6.62,9.87A70.69,70.69,0,0,0,30.66,131a71.5,71.5,0,0,0,24.78,11.13,71.83,71.83,0,0,1-4.89-16A35.16,35.16,0,0,0,44.55,113.72Z"/><path class="cls-22" d="M34.45,108.33h0Z"/><path class="cls-23" d="M34.45,108.33c.34-.06,5.27-.77,10.23,6.85,3.2,4.92,7.42,21.35,8.39,24.76.11.37.28.95.5,1.67.76.21,1.52.4,2.29.57C51.56,130.79,49,118.8,46,114.48,43.45,110.84,39.36,107.18,34.45,108.33Z"/><path class="cls-24" d="M36.53,109c-2.47-.06-8.89,2.73-6.33,13.56.67,2.85,1.55,6.22,2.64,9.89a71.83,71.83,0,0,0,18.79,8.64C47.38,124.9,41.89,109.1,36.53,109Z"/><path class="cls-25" d="M54.49,138.37l-.67-2a29.25,29.25,0,0,0-19.21-2.85c1.17.72,2.37,1.39,3.58,2C42.9,135.36,49.42,135.68,54.49,138.37Z"/><path class="cls-8" d="M53.94,136.76s.64-5.54,1.16-5.88,1.07-9.37-7.52-17.47c-7.33-6.92-9.07-6.57-9.07-6.57-14.15,2.93-11,13.7-8.82,23.42,1.83,1.33,3.73,2.58,5.68,3.73C48,132.21,53.94,136.76,53.94,136.76Z"/><path class="cls-26" d="M50,134.52s-5.28-15-6.27-19,.13-8.88,7.3-11.92c0,0-18.38,3.74-19.58,6.46-2.65,6-1.16,15.7.48,21.72.93.62,1.88,1.23,2.84,1.81C38.18,133,45.05,132.32,50,134.52Z"/><path class="cls-27" d="M54,136.81l-.52-1.65c-5.35-4.3-15.05-3.24-20-2.34.74.48,1.49.93,2.25,1.38C48.86,132.88,54,136.81,54,136.81Z"/><path class="cls-28" d="M61.94,97.35s12.25,1.46,22.25-5.42l.42-7.38-23,2.09A53.7,53.7,0,0,1,61.94,97.35Z"/><path class="cls-29" d="M51.46,122.32c-.49.85-.41,5.22-.41,5.58s3.44,10.48,3.44,10.48.5-6.93.13-7.66S52,121.47,51.46,122.32Z"/><path class="cls-30" d="M98.43,68.88a4.88,4.88,0,0,1-.58,3.83,9.13,9.13,0,0,0,1.72-3.46c.46-3.09-.79-3.31-.23-4.08s1.08,1.19,1.08,1.19C101.06,62.27,97.27,63.15,98.43,68.88Z"/><path class="cls-31" d="M47.44,62.27c-4.27-.19-1.48,12.06,2.68,13.54,0,0-.27-5-1.16-11.57C49,64.24,48.18,62.31,47.44,62.27Z"/><path class="cls-32" d="M48.06,68.71c.88-6.07-3.23-6.47-2.28-2.33,0,0,.56-2,1.08-1.38s-.68,1.12,0,4.25a8.64,8.64,0,0,0,2.06,3.33A4.74,4.74,0,0,1,48.06,68.71Z"/><path class="cls-4" d="M76.88,32.1C62.35,29.69,52,42.45,49.29,57.92c-1.52,8.67-.92,16.42,3.73,22.8,1.89,2.58,4.21,3.83,6.93,5.87,1.73,1.29,4.42,4.07,6.26,5.42A10.3,10.3,0,0,0,72,94.31c6.84.24,11.33-4.85,13.29-6.69,6.9-6.44,13.24-8.84,11.85-26.78C96,46.74,86.4,32.4,76.88,32.1Z"/><path class="cls-33" d="M84.91,53.84c-8.1,1.44-7.78,7.54-8.38,14.67,13.07,5.36,20.63-1,20.63-1s0-7.89-1.84-10.6C94.62,55.92,92.47,52.48,84.91,53.84Z"/><path class="cls-34" d="M87.85,63.51c-3.81.78-7.58,5-6.75,9.11a12.23,12.23,0,0,0,7.12,9c4.73,1.86,8.17-4.2,9-11.71C97.66,65.79,91.65,62.74,87.85,63.51Z"/><path class="cls-35" d="M60.17,54.18a11.61,11.61,0,0,0-7.76,2c-4,3-1.66,10.92-1.66,10.92S57,74.41,70.24,69.21C69.32,63.56,70.87,54.93,60.17,54.18Z"/><path class="cls-36" d="M58.34,64.86c-3.48-.88-9,1.72-8.9,5.32.17,8.52,3.62,11,8.21,11.7,3.55.53,6.83-4.91,7.71-8.4S61.83,65.74,58.34,64.86Z"/><path class="cls-37" d="M92.32,67.3c-1.3.32-2.2,1.16-2,1.86s1.37,1,2.67.69,2.2-1.16,2-1.86S93.61,67,92.32,67.3Z"/><path class="cls-38" d="M53.51,67.49c-1.3-.25-2.46.12-2.6.83s.81,1.48,2.1,1.73,2.46-.12,2.6-.83S54.8,67.74,53.51,67.49Z"/><path class="cls-39" d="M79.15,32.42S63.77,28.28,53.83,44.2c-5.08,8.14-6.91,22.15-4.15,30.06a19.69,19.69,0,0,1,2.58-10.8s6.06-25.81,22.39-26.72C90.5,42.12,94,56.85,97.24,67.6A46.8,46.8,0,0,0,95,50.54C92.14,42.47,86.72,33.9,79.15,32.42Z"/><path class="cls-40" d="M73.28,87.89c-1.81-.09-3.33.34-3.4,1s1.33,1.22,3.13,1.31,3.32-.34,3.4-1S75.08,88,73.28,87.89Z"/><path class="cls-31" d="M57.1,83.92c-9.23-6.65-6.48-18.54-6.48-18.54C45.81,77.45,54.1,82.87,55.77,84c3.46,2.29,9.2,7,9.2,7A48.15,48.15,0,0,0,57.1,83.92Z"/><path class="cls-41" d="M65.9,91.77s5.65,7.45,15-.34C80.9,91.43,73.39,97.28,65.9,91.77Z"/><path class="cls-4" d="M94.14,56a14.79,14.79,0,0,0-8.3-2.35c9.83.76,8.52,10,8.52,10S96.62,57.53,94.14,56Z"/><path class="cls-42" d="M97.47,67.45l.58-4.22s-1.16-7.71-1.85-9.15C96.2,54.08,96.84,64.69,97.47,67.45Z"/><path class="cls-43" d="M48.32,66.2C49.14,62.93,50,53.53,50,53.53l-2.06,8.75Z"/><path class="cls-31" d="M47.58,62.72c-4.17-.14-1.31,11.78,2.76,13.18,0,0-.31-4.88-1.25-11.28C49.09,64.62,48.31,62.74,47.58,62.72Z"/><path class="cls-44" d="M48.26,69c.79-5.93-3.23-6.28-2.25-2.25,0,0,.52-1.92,1-1.35s-.65,1.09.05,4.14a8.43,8.43,0,0,0,2,3.23A4.64,4.64,0,0,1,48.26,69Z"/><path class="cls-45" d="M96.4,67.93l.37-4s-1.36-8.41-2.06-9.78C94.71,54.17,95.73,65.29,96.4,67.93Z"/><path class="cls-46" d="M81.71,25a67.53,67.53,0,0,0-5.64,10s14.28,1.64,19.46,20.67c3.75,13.77,5.69,26.72-5,47.44,0,0,14.22-12.46,15.4-36.63C106.69,52,101.06,23.83,81.71,25Z"/><path class="cls-47" d="M57.22,23.77C47.29,28.36,34.28,43.47,35,71.47c.53,20.78,18.75,32.67,18.75,32.67S47,81.26,48,68.46c1.36-18,15.69-36.2,28.13-33.44,0,0,4.72-6.29,5.63-10.18A25.68,25.68,0,0,0,57.22,23.77Z"/><path class="cls-48" d="M84.21,37.1c-6-3.53-8.14-2.09-8.14-2.09,20.54,7.61,21.4,28.26,22.25,38.47,1,12-7.74,29.63-7.74,29.63C117,60.61,92.4,41.94,84.21,37.1Z"/><path class="cls-49" d="M81.71,24.84c-16.17-10.29-30,2.4-30,2.4,18.69-9.63,29.12.17,29.12.17,10-3.15,21,13.6,21,13.6C95,22.84,81.71,24.84,81.71,24.84Z"/><path class="cls-50" d="M86.23,31.27c10.63,4.5,17.72,27,17.72,27C100.13,32.8,86.23,31.27,86.23,31.27Z"/><path class="cls-51" d="M39.38,58.29S49.75,21.52,77.57,27.77C77.57,27.77,46.35,14.78,39.38,58.29Z"/><path class="cls-52" d="M94.14,100.21C110.19,85.74,106,61,106,61,105.19,85.93,94.14,100.21,94.14,100.21Z"/><path class="cls-53" d="M35.33,64.23s-2.4,27.54,16.05,39.43C51.38,103.66,38,90.58,35.33,64.23Z"/><path class="cls-54" d="M63,35c-14,7.82-25.83,31.71-9.24,69.11,0,0-9.6-34.22.56-52.57C61,39.47,66.5,34.49,76.08,35,76.08,35,70.49,30.84,63,35Z"/><path class="cls-55" d="M94.78,54.63c2.41,9.9,2.49,29.39,1.31,34.27,9.48-22.94.31-33.84-2.91-38.78A23.33,23.33,0,0,1,94.78,54.63Z"/><path class="cls-31" d="M98,63.05c-.71,0-1.51,1.84-1.51,1.84a23.79,23.79,0,0,1-1.16,10.83C99.36,74.42,102.11,63,98,63.05Z"/><path class="cls-56" d="M96.5,68.12l.35-3.92s-1.22-7.69-2.08-9.61C94.77,54.59,95.85,65.53,96.5,68.12Z"/><path class="cls-44" d="M97.5,69.11A4.68,4.68,0,0,1,97,72.78a8.74,8.74,0,0,0,1.61-3.32c.41-3-.79-3.16-.27-3.9s1.05,1.12,1.05,1.12C99.94,62.77,96.33,63.65,97.5,69.11Z"/><path class="cls-57" d="M46.49,49.09s-17,28.08,3.69,49C50.18,98.08,35.11,77.39,46.49,49.09Z"/><path class="cls-58" d="M50.2,84.73c-2.38-23.79,5.11-35,5.11-35C44.42,61.44,50.2,84.73,50.2,84.73Z"/><path class="cls-59" d="M94.13,63.56C99.36,71,93.91,79.23,89.69,83c-4.66,4.18-6.58,6.56-7.32,7.26.67-.58,6.87-6,8.65-7.25s8-7.39,6.38-15.22C97.4,67.82,96.39,64.59,94.13,63.56Z"/><path class="cls-60" d="M82.57,53.66c-1.76.79-3,3.08-1.52,2.6a58.24,58.24,0,0,1,8.39-1.4,13.49,13.49,0,0,1,5.43,1.48S92.08,53.66,90,53.42,83.52,53.23,82.57,53.66Z"/><path class="cls-61" d="M64.1,53.62c-1-.41-5.66-.57-7.74-.29s-4.82,3.09-4.82,3.09a12.86,12.86,0,0,1,5.4-1.64A67.47,67.47,0,0,1,65.38,56C66.91,56.48,65.88,54.38,64.1,53.62Z"/><path class="cls-62" d="M73,76.77c.84-.1,4.33-2.32,4.33-2.32l-8.87-.13S72.11,76.87,73,76.77Z"/><path class="cls-63" d="M72.91,70.67c-2.36,0-3,.62-2.87,1.26.4,1.53,1.4,1.83,2.87,1.85s2.76-.31,3-2C76,71.34,75.27,70.64,72.91,70.67Z"/><path class="cls-64" d="M74.44,74.8s4.32.13,2.94-1.32C76.92,73,74.44,74.8,74.44,74.8Z"/><path class="cls-65" d="M68.44,73.55c-1.47,1.21,3.09,1.21,3.09,1.21S69,73.13,68.44,73.55Z"/><path class="cls-31" d="M72.9,74.21c-4.38-.12-4.85-2.27-5.47-.91-.25.56.21.74,1,1,0,0-.24-.63.74-.56.71.06,1.26,1.58,3.79,1.54,2.7,0,3.09-1.39,3.79-1.42a.49.49,0,0,1,.55.57s1.29-.65.82-1.25C77.23,72.11,76.93,74.32,72.9,74.21Z"/><path class="cls-66" d="M62.24,77.68c-.24.42.07.87.62,1.06a10.58,10.58,0,0,1,2.8,1.54C64.78,79,62.45,77.3,62.24,77.68Z"/><path class="cls-67" d="M80.94,80.45a10.29,10.29,0,0,1,2.71-1.69c.55-.22.83-.68.57-1.1S81.76,79.1,80.94,80.45Z"/><path class="cls-31" d="M67.81,83.17c1,2.25,6.79,5.44,11.11,0C78.92,83.21,72.83,85.87,67.81,83.17Z"/><path class="cls-68" d="M72.73,79.36a43.84,43.84,0,0,1-9.9-1.24h0a.67.67,0,0,1,.09.14,10.61,10.61,0,0,1,2.46,1.24c.69.51,1.33,3.86,8.11,3.85a9.8,9.8,0,0,0,8.15-3.77,6,6,0,0,1,1.88-1.33.94.94,0,0,0,.06-.15A32.55,32.55,0,0,1,72.73,79.36Z"/><path class="cls-69" d="M78.83,80A34.51,34.51,0,0,1,68,80.33c-1.09-.49-1,.89-1,.89,2.36,2.46,4.27,2,6.19,2.09a10.34,10.34,0,0,0,6.41-2.15C79.75,80.71,79.36,79.9,78.83,80Z"/><path class="cls-70" d="M69.55,79.44a16.48,16.48,0,0,1-3.47-.62,3.89,3.89,0,0,1,.46.76c.22.53,1.35,2.34,6.81,2.33,4.1,0,6.28-1.46,6.58-2.34.18-.54.56-.77.59-.95a13.93,13.93,0,0,1-4.16.88A35.78,35.78,0,0,1,69.55,79.44Z"/><path class="cls-71" d="M73.85,83.12c-8.33-.09-5.4-3.46-10.93-4.85a9.86,9.86,0,0,1,2.71,2.38c1.6,1.88,3,4.82,7.63,4.83,4.21,0,6.56-3,7.92-4.73a13.91,13.91,0,0,1,2.36-2.49C79,79.46,80.48,83,73.85,83.12Z"/><path class="cls-72" d="M77.41,82.3a15.91,15.91,0,0,1-4.26.74,11.44,11.44,0,0,1-4.22-.74,12.43,12.43,0,0,1-2.65-2.25c.3.41,2.07,4.84,6.76,4.78,5.43-.07,6.44-3.7,7.42-4.78A8.41,8.41,0,0,1,77.41,82.3Z"/><path class="cls-73" d="M75.43,83.27c-.55.18-2.44.3-2.37.49a3.11,3.11,0,0,0,2.62.2c1.11-.3,1.63-.93,1.57-1.12S76,83.08,75.43,83.27Z"/><path class="cls-68" d="M63,78.59a7.65,7.65,0,0,1,1.88.39,17.83,17.83,0,0,0-2.36-1.11C62.43,77.91,62.52,78.36,63,78.59Z"/><path class="cls-68" d="M81.71,79a6.75,6.75,0,0,1,1.84-.41c.48-.23.56-.66.47-.72A11.28,11.28,0,0,0,81.71,79Z"/><path class="cls-74" d="M66.55,79.6s2.35,1.29,7.19,1.32a15.13,15.13,0,0,0,6.16-1.29l.29-.64-14,0Z"/><path class="cls-71" d="M76.39,78.57a18.3,18.3,0,0,0-3,.12A31.13,31.13,0,0,0,70,78.46a21.9,21.9,0,0,1-6.7-.3s1,.61,5.85,1.6a19.47,19.47,0,0,0,4.23.56A25.53,25.53,0,0,0,78,79.76a23.44,23.44,0,0,0,5.15-1.57A29.59,29.59,0,0,1,76.39,78.57Z"/><path class="cls-75" d="M75.46,78.71a19.26,19.26,0,0,1-2.34.16c-.48,0-1.8-.25-2.2-.26A13.19,13.19,0,0,0,68,79c-.14.5,5.41.91,5.92.87a32.9,32.9,0,0,0,4.82-.73A11,11,0,0,0,75.46,78.71Z"/><path class="cls-76" d="M59.54,57.79c-3,.36-6.55,1.84-6,5,.52,3,2.7,3.67,4.66,3.91,2.5.31,4.75-.6,6.29-1a12.3,12.3,0,0,1,2.5-.22S68.13,57.3,59.54,57.79Z"/><path class="cls-77" d="M64.39,62.24a3.45,3.45,0,0,1,.17.65A3.05,3.05,0,0,1,64,65.61a13.42,13.42,0,0,1,2.82-.23A6.1,6.1,0,0,0,64.39,62.24Z"/><path class="cls-78" d="M57.25,64a3.69,3.69,0,0,1,.33-2.19,20.84,20.84,0,0,0-3.09,1.31c.18.91.92,2.88,4.11,3.35A3.61,3.61,0,0,1,57.25,64Z"/><path class="cls-79" d="M64.65,61.34a8.35,8.35,0,0,0-3.41-1.83,12.91,12.91,0,0,0-5.69,1.64,9.33,9.33,0,0,0-1.11,1.52s.14.77.19,1.06a15.29,15.29,0,0,1,2.62-.83c.51-1.06,1.85-2.92,3.09-3.11,1.8-.28,3.7,1.86,4.27,3.52,1.84,1.22,2.16,2.07,2.16,2.07s0-.27-.08-.4A6.9,6.9,0,0,0,64.65,61.34Z"/><path class="cls-80" d="M64.39,62.24c-1.4-.93-3.55-1.45-6.81-.41A3.69,3.69,0,0,0,57.25,64a3.61,3.61,0,0,0,1.35,2.47A15.74,15.74,0,0,0,64,65.61a3,3,0,0,0,.61-2.72A3.45,3.45,0,0,0,64.39,62.24Z"/><path class="cls-79" d="M60.34,59.79a3.72,3.72,0,0,0-2.76,2c3.26-1,5.41-.52,6.81.41A3.68,3.68,0,0,0,60.34,59.79Z"/><path class="cls-81" d="M60.34,59.79a3.55,3.55,0,0,0-3.09,3.11c2.88-.86,6.37-.27,7.36.41A3.84,3.84,0,0,0,60.34,59.79Z"/><path class="cls-82" d="M60.52,60.59a2.57,2.57,0,0,0-2.14,2.93,2.43,2.43,0,0,0,1,1.77,3.26,3.26,0,0,0,2.15.33,2.57,2.57,0,0,0-1-5Z"/><path class="cls-83" d="M61.52,62.41a.63.63,0,0,0-.84.33.65.65,0,0,0,.3.86.62.62,0,0,0,.84-.32A.66.66,0,0,0,61.52,62.41Z"/><path class="cls-83" d="M63.65,63.21a.87.87,0,0,0-1.15.41.86.86,0,0,0,.43,1.14.87.87,0,0,0,1.15-.41A.86.86,0,0,0,63.65,63.21Z"/><path class="cls-84" d="M60.34,59.37c-3.85-.17-4.79,1.78-8,.12,0,0-.33,2.48,1,2.92v.34s-.51-.24-1.21.49c0,0,.79-.5,2.19,1.4a4.91,4.91,0,0,0,3.86,1.8s-3.47-.58-3.84-3.77c10.38-5.32,12.33,2.71,12.33,2.71a4.7,4.7,0,0,0-1.27-4.14C63.81,59.34,61,59.4,60.34,59.37Z"/><path class="cls-85" d="M60.69,60.56a10.17,10.17,0,0,0-6.25,2.11,21.28,21.28,0,0,1,6.17-1.43c2.51,0,5,.73,6.16,4.14C66.77,65.38,66.37,60.73,60.69,60.56Z"/><path class="cls-86" d="M62.11,57.77A8.61,8.61,0,0,0,55.66,59a12.17,12.17,0,0,1,6.22-.77,6.13,6.13,0,0,1,4.8,3.89A5.55,5.55,0,0,0,62.11,57.77Z"/><path class="cls-87" d="M86.26,57.79c-8.59-.49-7.43,7.77-7.43,7.77a12.3,12.3,0,0,1,2.5.22c1.54.36,3.79,1.27,6.29,1,2-.24,4.14-.94,4.66-3.91C92.81,59.63,89.22,58.15,86.26,57.79Z"/><path class="cls-88" d="M81.24,62.89a3.45,3.45,0,0,1,.17-.65A6.1,6.1,0,0,0,79,65.38a13.37,13.37,0,0,1,2.82.23A3.05,3.05,0,0,1,81.24,62.89Z"/><path class="cls-89" d="M79.11,65c-.06.25-.08.4-.08.4S79.08,65.11,79.11,65Z"/><path class="cls-90" d="M88.55,64a3.61,3.61,0,0,1-1.35,2.47c3.19-.47,3.94-2.44,4.11-3.35a20.84,20.84,0,0,0-3.09-1.31A3.69,3.69,0,0,1,88.55,64Z"/><path class="cls-79" d="M84.57,59.51a8.32,8.32,0,0,0-3.42,1.83,6.9,6.9,0,0,0-2,3.64c0,.13-.06.26-.08.4s.32-.85,2.16-2.07c.57-1.66,2.48-3.8,4.27-3.52C86.7,60,88,61.84,88.55,62.9a15.29,15.29,0,0,1,2.62.83c0-.29.19-1.06.19-1.06a9.33,9.33,0,0,0-1.11-1.52A12.9,12.9,0,0,0,84.57,59.51Z"/><path class="cls-91" d="M81.41,62.24a3.45,3.45,0,0,0-.17.65,3,3,0,0,0,.61,2.72,15.74,15.74,0,0,0,5.35.88A3.61,3.61,0,0,0,88.55,64a3.69,3.69,0,0,0-.33-2.19C85,60.79,82.81,61.31,81.41,62.24Z"/><path class="cls-79" d="M85.46,59.79a3.69,3.69,0,0,0-4,2.45c1.4-.93,3.55-1.45,6.81-.41A3.72,3.72,0,0,0,85.46,59.79Z"/><path class="cls-92" d="M85.46,59.79a3.84,3.84,0,0,0-4.27,3.52c1-.68,4.48-1.27,7.36-.41A3.54,3.54,0,0,0,85.46,59.79Z"/><path class="cls-93" d="M85.28,60.59a2.57,2.57,0,0,0-1,5,3.3,3.3,0,0,0,2.16-.33,2.45,2.45,0,0,0,1-1.77A2.57,2.57,0,0,0,85.28,60.59Z"/><path class="cls-94" d="M92.36,62.75v-.34c1.38-.44,1-2.92,1-2.92-2.45,1.77-4.1-.29-8-.12-.63,0-3.47,0-5.16,1.87A4.7,4.7,0,0,0,79,65.38s2-8,12.33-2.71c-.37,3.19-3.83,3.77-3.83,3.77a4.9,4.9,0,0,0,3.85-1.8c1.4-1.9,2.19-1.4,2.19-1.4C92.87,62.51,92.36,62.75,92.36,62.75Z"/><path class="cls-95" d="M79,65.38c1.11-3.41,3.65-4.14,6.17-4.14a21.28,21.28,0,0,1,6.16,1.43,10.17,10.17,0,0,0-6.25-2.11C79.43,60.73,79,65.38,79,65.38Z"/><path class="cls-96" d="M83.69,57.77a5.55,5.55,0,0,0-4.57,4.33,6.13,6.13,0,0,1,4.8-3.89,12.17,12.17,0,0,1,6.22.77A8.61,8.61,0,0,0,83.69,57.77Z"/><path class="cls-83" d="M85.39,62.4a.64.64,0,0,0-.84.33.66.66,0,0,0,.3.87.63.63,0,0,0,.84-.33A.66.66,0,0,0,85.39,62.4Z"/><path class="cls-83" d="M87.52,63.2a.88.88,0,0,0-1.15.41.87.87,0,0,0,.43,1.15A.88.88,0,0,0,88,64.34.86.86,0,0,0,87.52,63.2Z"/></svg>