<svg id="Layer_1" data-name="Layer 1" xmlns="http://www.w3.org/2000/svg" xmlns:xlink="http://www.w3.org/1999/xlink" viewBox="0 0 144 144"><defs><style>.cls-1{fill:#f6ece6;}.cls-2{fill:#6e9cbf;}.cls-3{fill:#f7d9ab;}.cls-4{fill:#f1f0f3;}.cls-5{fill:url(#linear-gradient);}.cls-6{fill:url(#linear-gradient-2);}.cls-7{fill:url(#linear-gradient-3);}.cls-8{fill:url(#linear-gradient-4);}.cls-9{fill:url(#linear-gradient-5);}.cls-10{fill:url(#linear-gradient-6);}.cls-11{fill:#c3d7e8;}.cls-12{fill:#94b4cf;}.cls-13{fill:url(#linear-gradient-7);}.cls-14{fill:#6a95b7;}.cls-15{fill:url(#linear-gradient-8);}.cls-16{fill:url(#linear-gradient-9);}.cls-17{fill:url(#linear-gradient-10);}.cls-18{fill:url(#linear-gradient-11);}.cls-19{fill:url(#linear-gradient-12);}.cls-20{fill:url(#linear-gradient-13);}.cls-21{fill:url(#linear-gradient-14);}.cls-22{fill:url(#linear-gradient-15);}.cls-23{fill:url(#linear-gradient-16);}.cls-24{fill:url(#linear-gradient-17);}.cls-25{fill:url(#linear-gradient-18);}.cls-26{fill:url(#linear-gradient-19);}.cls-27{fill:url(#linear-gradient-20);}.cls-28{fill:#f1c99a;}.cls-29{fill:url(#linear-gradient-21);}.cls-30{fill:url(#linear-gradient-22);}.cls-31{fill:url(#radial-gradient);}.cls-32{fill:url(#radial-gradient-2);}.cls-33{fill:url(#linear-gradient-23);}.cls-34{fill:url(#linear-gradient-24);}.cls-35{fill:url(#linear-gradient-25);}.cls-36{fill:url(#linear-gradient-26);}.cls-37{fill:url(#linear-gradient-27);}.cls-38{fill:url(#linear-gradient-28);}.cls-39{fill:url(#linear-gradient-29);}.cls-40{fill:#ddd;}.cls-41{fill:url(#linear-gradient-30);}.cls-42{fill:url(#linear-gradient-31);}.cls-43{fill:url(#radial-gradient-3);}.cls-44{fill:url(#linear-gradient-32);}.cls-45{fill:#fff;}.cls-46{fill:url(#linear-gradient-33);}.cls-47{fill:url(#linear-gradient-34);}.cls-48{fill:url(#linear-gradient-35);}.cls-49{fill:url(#linear-gradient-36);}.cls-50{fill:url(#radial-gradient-4);}.cls-51{fill:url(#linear-gradient-37);}.cls-52{fill:#644028;}.cls-53{fill:url(#linear-gradient-38);}.cls-54{fill:url(#linear-gradient-39);}.cls-55{fill:#e1b58c;}.cls-56{fill:url(#linear-gradient-40);}.cls-57{fill:#972a2e;}.cls-58{fill:#fcddb3;}.cls-59{fill:url(#linear-gradient-41);}.cls-60{fill:url(#linear-gradient-42);}.cls-61{fill:url(#linear-gradient-43);}.cls-62{fill:#f2eceb;}.cls-63{fill:url(#linear-gradient-44);}.cls-64{fill:url(#linear-gradient-45);}.cls-65{fill:url(#linear-gradient-46);}.cls-66{fill:url(#linear-gradient-47);}.cls-67{fill:url(#linear-gradient-48);}.cls-68{fill:url(#linear-gradient-49);}.cls-69{fill:url(#linear-gradient-50);}</style><linearGradient id="linear-gradient" x1="70.13" y1="147.44" x2="74" y2="108.15" gradientUnits="userSpaceOnUse"><stop offset="0" stop-color="#f1f0f3"/><stop offset="0.64" stop-color="#f9f8f9"/><stop offset="1" stop-color="#fff"/></linearGradient><linearGradient id="linear-gradient-2" x1="85.96" y1="142.55" x2="86.92" y2="103.52" gradientUnits="userSpaceOnUse"><stop offset="0" stop-color="#f1f0f4"/><stop offset="1" stop-color="#e2e2e5"/></linearGradient><linearGradient id="linear-gradient-3" x1="77.73" y1="108.15" x2="69.61" y2="106.98" gradientUnits="userSpaceOnUse"><stop offset="0" stop-color="#f2ca9a"/><stop offset="0.53" stop-color="#f3cc9d"/><stop offset="0.87" stop-color="#f5d4a5"/><stop offset="1" stop-color="#f7d9ab"/></linearGradient><linearGradient id="linear-gradient-4" x1="94.65" y1="84.21" x2="50.02" y2="104.58" xlink:href="#linear-gradient-3"/><linearGradient id="linear-gradient-5" x1="68.57" y1="247.88" x2="72.44" y2="90.18" xlink:href="#linear-gradient-2"/><linearGradient id="linear-gradient-6" x1="56.51" y1="142.74" x2="57.44" y2="104.52" xlink:href="#linear-gradient-2"/><linearGradient id="linear-gradient-7" x1="111.16" y1="129.62" x2="111.51" y2="137.88" gradientUnits="userSpaceOnUse"><stop offset="0" stop-color="#6a95b7"/><stop offset="0.61" stop-color="#82a7c5"/><stop offset="1" stop-color="#94b4cf"/></linearGradient><linearGradient id="linear-gradient-8" x1="86.79" y1="111.32" x2="98.53" y2="110.66" gradientUnits="userSpaceOnUse"><stop offset="0" stop-color="#7faacd"/><stop offset="0.49" stop-color="#77a2c5"/><stop offset="1" stop-color="#6a95b7"/></linearGradient><linearGradient id="linear-gradient-9" x1="89.93" y1="114.77" x2="90.81" y2="88.4" gradientUnits="userSpaceOnUse"><stop offset="0" stop-color="#c3d7e8"/><stop offset="0.27" stop-color="#b2cadf"/><stop offset="0.71" stop-color="#9cbad3"/><stop offset="1" stop-color="#94b4cf"/></linearGradient><linearGradient id="linear-gradient-10" x1="88.67" y1="114.58" x2="87.67" y2="88.81" xlink:href="#linear-gradient-8"/><linearGradient id="linear-gradient-11" x1="86.8" y1="114.49" x2="87.38" y2="145.34" xlink:href="#linear-gradient-8"/><linearGradient id="linear-gradient-12" x1="111.05" y1="130.89" x2="110.7" y2="134.43" xlink:href="#linear-gradient-7"/><linearGradient id="linear-gradient-13" x1="59.24" y1="110.96" x2="35.05" y2="107.07" xlink:href="#linear-gradient-8"/><linearGradient id="linear-gradient-14" x1="53.34" y1="115.47" x2="52.63" y2="86.81" xlink:href="#linear-gradient-9"/><linearGradient id="linear-gradient-15" x1="55.18" y1="116.24" x2="54.12" y2="89.02" xlink:href="#linear-gradient-8"/><linearGradient id="linear-gradient-16" x1="57.28" y1="115.57" x2="57.84" y2="145.5" xlink:href="#linear-gradient-8"/><linearGradient id="linear-gradient-17" x1="51.85" y1="117.29" x2="53.78" y2="152.11" gradientUnits="userSpaceOnUse"><stop offset="0" stop-color="#6a95b7"/><stop offset="0.21" stop-color="#769ebe"/><stop offset="0.69" stop-color="#8caeca"/><stop offset="1" stop-color="#94b4cf"/></linearGradient><linearGradient id="linear-gradient-18" x1="36.33" y1="129.28" x2="37" y2="145.11" xlink:href="#linear-gradient-7"/><linearGradient id="linear-gradient-19" x1="37.08" y1="131.9" x2="36.47" y2="138.09" xlink:href="#linear-gradient-7"/><linearGradient id="linear-gradient-20" x1="71.23" y1="84.55" x2="72.59" y2="96.49" gradientUnits="userSpaceOnUse"><stop offset="0" stop-color="#bc9f84"/><stop offset="0.24" stop-color="#b8997d"/><stop offset="1" stop-color="#ac896a"/></linearGradient><linearGradient id="linear-gradient-21" x1="42.08" y1="58.26" x2="47.3" y2="70.91" gradientUnits="userSpaceOnUse"><stop offset="0" stop-color="#dba879"/><stop offset="0.49" stop-color="#e4b687"/><stop offset="1" stop-color="#f1c99a"/></linearGradient><linearGradient id="linear-gradient-22" x1="95.64" y1="58.91" x2="100.2" y2="69.98" xlink:href="#linear-gradient-21"/><radialGradient id="radial-gradient" cx="541.39" cy="-236.3" r="30.32" gradientTransform="matrix(-0.41, 0.02, 0.02, 0.29, 313.51, 128.46)" gradientUnits="userSpaceOnUse"><stop offset="0" stop-color="#f7c79c"/><stop offset="1" stop-color="#f7d9ab"/></radialGradient><radialGradient id="radial-gradient-2" cx="46.38" cy="-289.55" r="31.71" gradientTransform="matrix(0.41, -0.03, 0.04, 0.28, 46.6, 150.43)" xlink:href="#radial-gradient"/><linearGradient id="linear-gradient-23" x1="92.87" y1="62.77" x2="85.44" y2="65.33" gradientUnits="userSpaceOnUse"><stop offset="0" stop-color="#fadbaf"/><stop offset="1" stop-color="#f7d9ab"/></linearGradient><linearGradient id="linear-gradient-24" x1="56.71" y1="65.18" x2="45.7" y2="62.49" xlink:href="#linear-gradient-23"/><linearGradient id="linear-gradient-25" x1="83.76" y1="63.77" x2="83.09" y2="55.87" gradientUnits="userSpaceOnUse"><stop offset="0" stop-color="#f7d9ab"/><stop offset="0.53" stop-color="#f6d6a8"/><stop offset="0.87" stop-color="#f3cea0"/><stop offset="1" stop-color="#f1c99a"/></linearGradient><linearGradient id="linear-gradient-26" x1="59.27" y1="63.71" x2="58.62" y2="56.08" xlink:href="#linear-gradient-25"/><linearGradient id="linear-gradient-27" x1="71.26" y1="31.5" x2="71.11" y2="40.99" gradientUnits="userSpaceOnUse"><stop offset="0" stop-color="#f7d9ab"/><stop offset="0.49" stop-color="#f5d4a6"/><stop offset="1" stop-color="#f1c99a"/></linearGradient><linearGradient id="linear-gradient-28" x1="76.67" y1="57.06" x2="90.6" y2="60.98" xlink:href="#linear-gradient-21"/><linearGradient id="linear-gradient-29" x1="89.53" y1="58.91" x2="75.9" y2="59.6" gradientUnits="userSpaceOnUse"><stop offset="0" stop-color="#fff"/><stop offset="0.46" stop-color="#fdfcfc"/><stop offset="0.76" stop-color="#f6f4f4"/><stop offset="1" stop-color="#ece7e6"/></linearGradient><linearGradient id="linear-gradient-30" x1="86.34" y1="59.87" x2="76.07" y2="59.5" gradientUnits="userSpaceOnUse"><stop offset="0" stop-color="#b89c8c"/><stop offset="1" stop-color="#725342"/></linearGradient><linearGradient id="linear-gradient-31" x1="86.27" y1="58.24" x2="77.38" y2="58.98" xlink:href="#linear-gradient-30"/><radialGradient id="radial-gradient-3" cx="89.29" cy="59.84" r="14.94" gradientTransform="translate(48.09 36.82) scale(0.41 0.41)" gradientUnits="userSpaceOnUse"><stop offset="0" stop-color="#2b3b3b"/><stop offset="1" stop-color="#1d2827"/></radialGradient><linearGradient id="linear-gradient-32" x1="76.75" y1="58.72" x2="88.55" y2="58.16" gradientUnits="userSpaceOnUse"><stop offset="0" stop-color="#684125"/><stop offset="0.34" stop-color="#53351e"/><stop offset="0.68" stop-color="#462d19"/><stop offset="1" stop-color="#422b18"/></linearGradient><linearGradient id="linear-gradient-33" x1="52.59" y1="56.8" x2="66.59" y2="60.74" gradientUnits="userSpaceOnUse"><stop offset="0" stop-color="#f1c99a"/><stop offset="0.51" stop-color="#e4b687"/><stop offset="1" stop-color="#dba879"/></linearGradient><linearGradient id="linear-gradient-34" x1="65.32" y1="60.49" x2="55.37" y2="58.09" xlink:href="#linear-gradient-29"/><linearGradient id="linear-gradient-35" x1="63.22" y1="59.46" x2="53.62" y2="59.85" xlink:href="#linear-gradient-30"/><linearGradient id="linear-gradient-36" x1="63.41" y1="59.21" x2="57.2" y2="58.07" xlink:href="#linear-gradient-30"/><radialGradient id="radial-gradient-4" cx="32.93" cy="59.59" r="14.93" xlink:href="#radial-gradient-3"/><linearGradient id="linear-gradient-37" x1="53.03" y1="58.92" x2="64.71" y2="58.37" gradientUnits="userSpaceOnUse"><stop offset="0" stop-color="#422b18"/><stop offset="0.32" stop-color="#462d19"/><stop offset="0.66" stop-color="#53351e"/><stop offset="1" stop-color="#684125"/></linearGradient><linearGradient id="linear-gradient-38" x1="68.88" y1="20.01" x2="72.62" y2="76.89" gradientUnits="userSpaceOnUse"><stop offset="0" stop-color="#865f3c"/><stop offset="0.22" stop-color="#7c5636"/><stop offset="0.62" stop-color="#6f4a2e"/><stop offset="1" stop-color="#6b462b"/></linearGradient><linearGradient id="linear-gradient-39" x1="72.87" y1="20.37" x2="76.92" y2="44.12" gradientUnits="userSpaceOnUse"><stop offset="0" stop-color="#865f3c"/><stop offset="0.92" stop-color="#95714f"/><stop offset="1" stop-color="#977351"/></linearGradient><linearGradient id="linear-gradient-40" x1="72.22" y1="98.34" x2="71.69" y2="82.99" gradientUnits="userSpaceOnUse"><stop offset="0" stop-color="#f7d9ab"/><stop offset="0.53" stop-color="#f6d7a8"/><stop offset="0.87" stop-color="#f4cfa0"/><stop offset="1" stop-color="#f2ca9a"/></linearGradient><linearGradient id="linear-gradient-41" x1="62.11" y1="79.81" x2="81.35" y2="80.14" gradientUnits="userSpaceOnUse"><stop offset="0" stop-color="#e8d9d7"/><stop offset="0.14" stop-color="#f0e6e4"/><stop offset="0.39" stop-color="#fbf8f8"/><stop offset="0.57" stop-color="#fff"/><stop offset="1" stop-color="#e8d3d1"/></linearGradient><linearGradient id="linear-gradient-42" x1="72.22" y1="98.02" x2="71.71" y2="83.11" xlink:href="#linear-gradient-40"/><linearGradient id="linear-gradient-43" x1="71.04" y1="72.53" x2="71.35" y2="79.73" gradientUnits="userSpaceOnUse"><stop offset="0" stop-color="#e8d9d7"/><stop offset="0.4" stop-color="#efe5e4"/><stop offset="1" stop-color="#fff"/></linearGradient><linearGradient id="linear-gradient-44" x1="71.81" y1="100.88" x2="71.31" y2="69.99" xlink:href="#linear-gradient-40"/><linearGradient id="linear-gradient-45" x1="71.93" y1="96.65" x2="71.17" y2="71.57" gradientUnits="userSpaceOnUse"><stop offset="0" stop-color="#ac896a"/><stop offset="0.76" stop-color="#b8997d"/><stop offset="1" stop-color="#bc9f84"/></linearGradient><linearGradient id="linear-gradient-46" x1="93.74" y1="75.96" x2="122.39" y2="14.98" xlink:href="#linear-gradient-20"/><linearGradient id="linear-gradient-47" x1="70.69" y1="47.22" x2="71.23" y2="69.66" gradientUnits="userSpaceOnUse"><stop offset="0" stop-color="#ffdeb3"/><stop offset="0.2" stop-color="#fdddb1"/><stop offset="1" stop-color="#f7d9ab"/></linearGradient><linearGradient id="linear-gradient-48" x1="70.82" y1="60" x2="71.2" y2="72.65" xlink:href="#linear-gradient-40"/><linearGradient id="linear-gradient-49" x1="70.66" y1="70.79" x2="71.42" y2="65.19" gradientUnits="userSpaceOnUse"><stop offset="0" stop-color="#ffdeb3"/><stop offset="0.28" stop-color="#fbdcaf"/><stop offset="1" stop-color="#f7d9ab"/></linearGradient><linearGradient id="linear-gradient-50" x1="39.17" y1="53.31" x2="51.27" y2="78.76" xlink:href="#linear-gradient-20"/></defs><circle class="cls-1" cx="72" cy="72" r="72" transform="translate(-29.82 72) rotate(-45)"/><polygon class="cls-2" points="56.19 88.48 51.25 95.81 92.81 95.72 87.15 88.4 56.19 88.48"/><path class="cls-3" d="M56.37,94.37c-1.66,2.27-10.15,4.76-10.15,4.76s13.47,14.3,27.55,14.5S95.94,97.47,95.94,97.47l-9-4.22C77.87,101.54,56.37,94.37,56.37,94.37Z" transform="translate(0)"/><path class="cls-4" d="M116.06,128.94c2.35-10.59,4.83-21.63,4.83-21.63-3.62-2.63-28.07-11.6-28.07-11.6a21.72,21.72,0,0,1-20.5,16.06c-17.14.94-20-15.27-20-15.27s-21.55,10-24.14,11.13c.61,6.21.22,15.06-.17,21.36a72,72,0,0,0,88.06-.05Z" transform="translate(0)"/><path class="cls-5" d="M105.71,122.44c-5.92-5.92-16.52-2.65-33-3.12s-22.63-2.4-33.22,3.83c-3.35,2-4.81,6.17-4,10.89a72,72,0,0,0,72.31.46C108.94,129.32,107.89,124.62,105.71,122.44Z" transform="translate(0)"/><path class="cls-6" d="M82.23,111.12l3.53,31.56c1.59-.31,3.17-.67,4.72-1.08L87,107.79Z" transform="translate(0)"/><path class="cls-3" d="M127.83,117.47a21.27,21.27,0,0,0-3-6.46s-4.44,9.27-8.06,17.41A73.2,73.2,0,0,0,127.83,117.47Z" transform="translate(0)"/><polygon class="cls-7" points="68.42 105.37 73.36 111.29 77.8 104.38 71.88 107.34 68.42 105.37"/><path class="cls-8" d="M87,87.21c-.23-3.82-.48-8.06-.56-8.74,0,0-11,8-30.31,1.25,0,0,0,6.36.09,11.66-.08,1.2-.15,1.76-.25,2.44-.2,1.45-5.82,3.65-5.82,3.65s2.28,14.92,21.13,16.16S95.83,97,95.83,97s-6.72-2.87-7.55-3.49C87.8,93.18,87.33,90.12,87,87.21Zm-14.79,23c-13.93.47-17.51-10.87-17.51-10.87a25.49,25.49,0,0,1,2.49-1.66c.57-.28.91-1.32,1.12-2.42,4.74,4.37,10.23,7,13.38,6.7,3.48-.32,8.84-2.83,12.82-5.81l4.79,3.71C85.27,108.25,75.33,110.11,72.22,110.21Z" transform="translate(0)"/><path class="cls-9" d="M72.43,111.35c-16.59.72-20.12-14.85-20.12-14.85l-4.85,1.14s2.7,18.06,23,19.31S97.06,97.3,97.06,97.3l-4.24-1.59A21.59,21.59,0,0,1,72.43,111.35Z" transform="translate(0)"/><path class="cls-10" d="M53.31,108.6l-.89,32.7a68.33,68.33,0,0,0,7.3,1.65l1.64-29.86Z" transform="translate(0)"/><path class="cls-11" d="M116.83,105.05,96.12,96.61l-.18,10.5-11.21,7.28s3.14,18.07,4.58,27.51a71.79,71.79,0,0,0,26.84-13Z" transform="translate(0)"/><path class="cls-12" d="M93.75,95.35l2.67,44.4a73.32,73.32,0,0,0,9.36-4.15L103.2,99.5Z" transform="translate(0)"/><path class="cls-11" d="M127.94,117.33a29.72,29.72,0,0,0-2.29-5.56c-3.25-5.65-16.43-9.49-16.43-9.49l1.28,30.57A72.55,72.55,0,0,0,127.94,117.33Z" transform="translate(0)"/><path class="cls-12" d="M109.67,102.14l-17.29.08c-.79,2.82-2.76,4.88-4.37,7.27a9.83,9.83,0,0,1-2.23,3.89c20,.06,36.83,0,40.75.13C124.87,107.1,112.74,103.34,109.67,102.14Z" transform="translate(0)"/><path class="cls-12" d="M124.5,121.27l-1.36-12.5-11.78-5.72,2.89,27.25A72.74,72.74,0,0,0,124.5,121.27Z" transform="translate(0)"/><path class="cls-12" d="M86.39,125.08a74.77,74.77,0,0,0,1.84,11.26l16,.08a72.29,72.29,0,0,0,16.46-11.34Z" transform="translate(0)"/><path class="cls-13" d="M110.85,130c0,.9,0,1.79,0,2.65l.84-.55C111.2,129.19,110.84,128,110.85,130Z" transform="translate(0)"/><path class="cls-14" d="M95.54,125.08l.68,11.3,8,0,1.6-.82L105,125.08Z" transform="translate(0)"/><path class="cls-14" d="M113.69,125.08l.56,5.22a72.7,72.7,0,0,0,6.39-5.22Z" transform="translate(0)"/><polygon class="cls-15" points="84.73 114.39 93.21 111.77 103.2 113.43 93.21 107.93 84.73 114.39"/><polygon class="cls-14" points="93.97 102.16 94.83 113.4 104.19 113.42 103.39 102.17 93.97 102.16"/><path class="cls-14" d="M123.14,108.77c-3.72-3.48-11.78-6-11.78-6l1.1,10.67,11.19,0Z" transform="translate(0)"/><path class="cls-12" d="M87.15,88.4s4.71,16.09,3.46,17.45-5.88,8.54-5.88,8.54l8.78-4.71,9.69,3.75s-.79-1.59-4-12.26S87.15,88.4,87.15,88.4Z" transform="translate(0)"/><path class="cls-16" d="M91.83,104.79l-7.1,9.6,8.78-4.71a28.14,28.14,0,0,0,2-6.24c.23-2.29-8.37-15-8.37-15Z" transform="translate(0)"/><path class="cls-17" d="M90.8,105.23c0,.25-5,7.35-6.07,9.16.83-.88,6.93-8.08,7.46-9.14s-5-16.85-5-16.85S91.12,103.67,90.8,105.23Z" transform="translate(0)"/><path class="cls-18" d="M84.73,114.39s1.58,12.4,3.34,27.81l1.31-.32c-1.84-15-3.6-27.81-3.6-27.81Z" transform="translate(0)"/><path class="cls-19" d="M110.85,132.63l.33-.22-.33-2.44S110.84,131,110.85,132.63Z" transform="translate(0)"/><path class="cls-14" d="M92.22,141.12l.72-.22c-1.9-13.22-3.73-25.85-3.73-25.85S90.67,127.77,92.22,141.12Z" transform="translate(0)"/><path class="cls-11" d="M49.71,106.82l.83-10.53L28.17,107.63l6.23,25.78a71.67,71.67,0,0,0,23.15,9.14c.39-7.51,1.25-26.81,1.25-26.81Z" transform="translate(0)"/><path class="cls-12" d="M40.89,101.18l-1.28,35.14a71.75,71.75,0,0,0,11.15,4.49l1.65-45.55Z" transform="translate(0)"/><path class="cls-11" d="M22.52,112.54a40,40,0,0,0-3.19,8.54A72.09,72.09,0,0,0,37.5,135.21L39,102.16S25.78,106.89,22.52,112.54Z" transform="translate(0)"/><path class="cls-12" d="M39.32,102c-6.48,2.55-15,6.47-17.4,11.3,6.54,0,19.82,0,34.15,0-2.61-2.88-5.65-7.11-5.65-11.22C50.42,102.09,45.11,102,39.32,102Z" transform="translate(0)"/><path class="cls-12" d="M26.18,108.51a13.76,13.76,0,0,0-5,6.45c-.63,1.84-1.28,4-1.85,6.11a72.6,72.6,0,0,0,9.25,8.36l.81-22.4A7.78,7.78,0,0,0,26.18,108.51Z" transform="translate(0)"/><path class="cls-12" d="M58.24,125.05l-34.95,0a72.05,72.05,0,0,0,16.24,11.26l18,.06C57.58,132.37,58.07,128.81,58.24,125.05Z" transform="translate(0)"/><polygon class="cls-14" points="39.61 136.28 50.92 136.32 51.33 125.05 40.02 125.03 39.61 136.28"/><path class="cls-14" d="M23.28,125c1.69,1.55,3.46,3,5.29,4.42l.16-4.4Z" transform="translate(0)"/><path class="cls-14" d="M21.92,113.24l7.24.05.21-6.68A16.21,16.21,0,0,0,21.92,113.24Z" transform="translate(0)"/><path class="cls-20" d="M40.33,114.78s8.48-1.49,8.87-1.49,9.6,2.45,9.6,2.45L46.05,102Z" transform="translate(0)"/><polygon class="cls-14" points="40.45 113.29 51.76 113.35 52 102.05 40.86 101.99 40.45 113.29"/><path class="cls-12" d="M56.19,88.48a22,22,0,0,0-11.89,14c-3.18,10.67-4,12.26-4,12.26L50,111l8.78,4.71s-4.63-8.54-5.88-9.89S56.19,88.48,56.19,88.48Z" transform="translate(0)"/><path class="cls-21" d="M56.19,88.48s-8.81,13.61-8.58,15.9S50,111,50,111l8.78,4.71L52,105Z" transform="translate(0)"/><path class="cls-22" d="M54,97.47c.2-.88,2.21-9,2.21-9s-5.27,15.39-5.08,16.64,7.69,10.62,7.69,10.62-5.88-9.89-6.07-10.49S53.77,98.35,54,97.47Z" transform="translate(0)"/><path class="cls-23" d="M57.62,115.28l-1.36,27c.42.09.83.19,1.25.27l1.29-26.8Z" transform="translate(0)"/><path class="cls-24" d="M51.89,141.15l.58.17c.29-8.6.51-16.95.62-24.76Z" transform="translate(0)"/><path class="cls-14" d="M55,121.82a1.33,1.33,0,1,0,1.55,1.31A1.45,1.45,0,0,0,55,121.82Z" transform="translate(0)"/><path class="cls-25" d="M37.09,129c0-2.58-.59.25-1.34,5.2.44.27.89.52,1.35.77C37.08,133.09,37.08,131.11,37.09,129Z" transform="translate(0)"/><path class="cls-26" d="M37.09,130.33c-.19,1.43-.39,2.87-.6,4.31l.6.34C37.12,132.14,37.09,130.33,37.09,130.33Z" transform="translate(0)"/><path class="cls-27" d="M72.16,87.89c-2.16,0-7.58,1.47-7.42,2.27.47,2.39,5.49,2.8,7.65,2.79s6.54-.56,6.63-2.61C79.06,89.53,74.32,87.88,72.16,87.89Z" transform="translate(0)"/><path class="cls-28" d="M43.2,56.69c-2.92.54-2.28,2.53-1,6,1.24,9.26,3.62,11.11,4.63,10.54C48.68,72.21,46.74,56,43.2,56.69Z" transform="translate(0)"/><path class="cls-29" d="M44.74,64.88c1.29-7.67-3.41-8.44-2.51-3.11,0,0,.73-2.46,1.3-1.68.71.95-.83,1.38-.18,5.4a11.52,11.52,0,0,0,2.21,4.38A6.62,6.62,0,0,1,44.74,64.88Z" transform="translate(0)"/><path class="cls-28" d="M98.22,56.62c-3.57-.49-4.59,15.76-2.68,16.7,1,.52,3.31-1.44,4-10.74C100.64,59,101.16,57,98.22,56.62Z" transform="translate(0)"/><path class="cls-30" d="M97.15,64.87a6.54,6.54,0,0,1-.54,5,11.29,11.29,0,0,0,2-4.47C99,61.37,97.43,61,98.08,60c.53-.8,1.4,1.62,1.4,1.62C100.08,56.29,95.42,57.27,97.15,64.87Z" transform="translate(0)"/><path class="cls-3" d="M87.21,31.34c-3.88-4.51-9-8.6-19.37-8.36,0,0-13.56.48-16.94,7.9-3.63,7.94-5,18.81-4.76,29,.33,12.41,1,15.71,2.06,18.32A11.21,11.21,0,0,0,52,83.06c3.86,3,8.52,9.12,11.6,12.61,1.07,1.21,15.82.8,17.57-.4,2.83-2,6.29-7.57,10.52-11.8A11.19,11.19,0,0,0,94.73,77c0-1.74.84-8.45.87-9.75.21-7,.08-5.06.32-11.12C96.79,34.38,89.11,33.57,87.21,31.34Z" transform="translate(0)"/><path class="cls-31" d="M85.34,76.76c4.28.29,9.27.73,10.17-8.16.51-5.06-.24-8.69-2.36-9.09-4.49-.84-10.94,1.13-13.62,2.53C73.85,65,77.75,76.24,85.34,76.76Z" transform="translate(0)"/><path class="cls-32" d="M61.64,61.61c-1.23-.45-10.55-2.57-13.33-1.76-1.58.46-2.14,4.26-1.88,7.64a28.67,28.67,0,0,0,.6,5.06c1.8,5,9.73,5.2,13.68,3.8C67.45,74,67.85,63.88,61.64,61.61Z" transform="translate(0)"/><path class="cls-33" d="M92.65,61.94c-.78-.43-1.35.19-3,.72S83.81,64,85.84,65.09c2.23,1.22,5.36-.45,5.74-.76S93.6,62.48,92.65,61.94Z" transform="translate(0)"/><path class="cls-34" d="M51.89,62.84c-1.63-.44-2.24-1-3-.57-.92.59.8,2,1.19,2.34s3.6,1.79,5.77.46C57.83,63.87,53.49,63.28,51.89,62.84Z" transform="translate(0)"/><path class="cls-35" d="M75.62,52.88c-.33,2-1.35,8.2-.1,8.9,7.77,4.35,16.27-1.16,16.27-1.16C92.94,45.82,75.62,52.88,75.62,52.88Z" transform="translate(0)"/><path class="cls-36" d="M50.62,60.8s8.25,5.24,16.2.39c1.21-.75-.23-5.86-.57-7.88C66.25,53.31,49.84,46.37,50.62,60.8Z" transform="translate(0)"/><path class="cls-37" d="M88.23,33.81c-.57-.15-1.2-.31-1.89-.45-5-1.09-12.86-4.76-20-4.76a46.75,46.75,0,0,0-11.53,1.67,11.45,11.45,0,0,0-3.46,1.42C48.62,33.54,47,37,46.13,45.33c-.29,2.69.24,20.64.24,20.84,5.69-13.16,5-25,8-26.83s13.5,0,19.52.27,13.73-1.13,14.19-.72c1.41,1.25,1.84,12.82,7.59,27.18,0,0-.08-20.11-.51-24.8C94.57,35.12,93,35.11,88.23,33.81Z" transform="translate(0)"/><path class="cls-38" d="M83.27,55c-4,.17-6.1,1-6.52,2.47-.22.8-.91,3.06-.4,3.63,1.07,1.2,5.54,1.46,8.36,1.27,3.77-.25,5.61-1.89,5.6-2.33a9.71,9.71,0,0,0-2-3.94C87.39,55.3,84.57,54.94,83.27,55Z" transform="translate(0)"/><path class="cls-39" d="M80.49,56.53C77.58,56.74,77,61,77,61a3.74,3.74,0,0,0,1.32.58,16.69,16.69,0,0,0,8.1.1,7.56,7.56,0,0,0,2.73-1.72C86.68,57.09,87.52,56,80.49,56.53Z" transform="translate(0)"/><path class="cls-40" d="M85.68,57c-2.26.22-6.31-.23-8.73,4,0,0,1.77-1.53,7.74-1.52a7.91,7.91,0,0,1,3.68,1.11,6.13,6.13,0,0,0,.73-.63S87.93,56.73,85.68,57Z" transform="translate(0)"/><path class="cls-41" d="M82.69,57.33c-1.91-.12-3.72.82-3.62,2.81a3.89,3.89,0,0,0,.52,1.68,20.14,20.14,0,0,0,3.06.33,12.31,12.31,0,0,0,2.78-.31,2.5,2.5,0,0,0,.6-1.47C86.29,58.44,84.6,57.44,82.69,57.33Z" transform="translate(0)"/><path class="cls-42" d="M83.37,57.2c-2.42,0-4.31.49-4.3,2.85a18.45,18.45,0,0,1,7-.46S85.58,57.22,83.37,57.2Z" transform="translate(0)"/><path class="cls-43" d="M82.68,57.9A2.07,2.07,0,1,0,84.75,60,2.1,2.1,0,0,0,82.68,57.9Z" transform="translate(0)"/><path class="cls-44" d="M87.13,57c-2.14-.83-6.34-1.31-8.3.15C77.29,58.29,77,61,77,61s1.32-2,2.68-2.39a10.75,10.75,0,0,1,3.53-.41,14.08,14.08,0,0,1,3.67.71,7.3,7.3,0,0,1,2.27,1.05S88.45,57.5,87.13,57Z" transform="translate(0)"/><path class="cls-45" d="M84.73,59.52a1,1,0,0,0-.81,1,.91.91,0,0,0,1,.81.93.93,0,0,0,.81-1A.92.92,0,0,0,84.73,59.52Z" transform="translate(0)"/><path class="cls-45" d="M82.74,58.67a.73.73,0,1,0,.8.64A.73.73,0,0,0,82.74,58.67Z" transform="translate(0)"/><path class="cls-46" d="M59.05,54.86c-1.3-.07-4.13.26-5,1A9.6,9.6,0,0,0,52,59.83c0,.43,1.81,2.1,5.57,2.39,2.82.22,7.29,0,8.37-1.18.52-.56-.14-2.83-.36-3.63C65.14,55.9,63,55.08,59.05,54.86Z" transform="translate(0)"/><path class="cls-47" d="M61.81,56.42c-7-.58-6.2.5-8.65,3.3a7.43,7.43,0,0,0,2.72,1.75,16.68,16.68,0,0,0,8.09,0,3.53,3.53,0,0,0,1.33-.57S64.71,56.67,61.81,56.42Z" transform="translate(0)"/><path class="cls-40" d="M56.62,56.78c-2.26-.24-3.46,2.94-3.46,2.94a5.41,5.41,0,0,0,.73.63,8,8,0,0,1,3.69-1.06c6,.06,7.72,1.6,7.72,1.6C62.93,56.63,58.87,57,56.62,56.78Z" transform="translate(0)"/><path class="cls-48" d="M59.6,57.2c-1.92.09-3.61,1.07-3.37,3a2.41,2.41,0,0,0,.58,1.47,12.51,12.51,0,0,0,2.78.34,21.12,21.12,0,0,0,3.06-.29,3.9,3.9,0,0,0,.54-1.67C63.31,58.06,61.51,57.11,59.6,57.2Z" transform="translate(0)"/><path class="cls-49" d="M58.92,57.07c-2.21,0-2.68,2.35-2.68,2.35a18.61,18.61,0,0,1,6.95.54C63.18,57.49,61.34,57.07,58.92,57.07Z" transform="translate(0)"/><path class="cls-50" d="M59.61,57.77a2.07,2.07,0,1,0,2.15,2A2.11,2.11,0,0,0,59.61,57.77Z" transform="translate(0)"/><path class="cls-45" d="M61.39,59.59a.9.9,0,0,0-.45,1.18.92.92,0,0,0,1.22.36A.88.88,0,0,0,62.6,60,.9.9,0,0,0,61.39,59.59Z" transform="translate(0)"/><path class="cls-45" d="M59.49,58.72a.69.69,0,0,0-.35.92.72.72,0,0,0,1,.28.68.68,0,0,0,.34-.92A.72.72,0,0,0,59.49,58.72Z" transform="translate(0)"/><path class="cls-51" d="M63.46,57.05c-1.94-1.48-6.15-1-8.3-.24-1.32.49-2,2.91-2,2.91a8.05,8.05,0,0,1,2.37-1.06,15,15,0,0,1,4-.63,10.58,10.58,0,0,1,3.13.44c1.35.42,2.65,2.42,2.65,2.42S65,58.22,63.46,57.05Z" transform="translate(0)"/><path class="cls-52" d="M65.65,52.05a16.93,16.93,0,0,0-9.38-1c-2.27.46-4.09,3.22-4.09,3.22s1.41-1.1,4.94-1.23c3-.12,5.61,1.27,8.15,1.26A1.13,1.13,0,0,0,65.65,52.05Z" transform="translate(0)"/><path class="cls-53" d="M94.87,32.7a5.67,5.67,0,0,0,2.35-2.78c-.7-.64-21.86-10.51-29.34-9.84C51.45,21.57,50.15,28.6,50.15,28.6s-1.52-.72-1.88-3.48l-.17.11a5.42,5.42,0,0,0-.93,5.65c-.52-1-1.14-1.1-1.62-2.93A15.58,15.58,0,0,0,43,34.58a168,168,0,0,0,.42,22.09,3.61,3.61,0,0,1,2.1,2.52c.54,1.55.59,5.52.81,7,.48-4.51,1.69-9.82,2.09-12.19.82-5,1.67-15.35,3.9-17.24a41.79,41.79,0,0,1,9.27-1.33c4.6.41,11.91,1.08,13.46,1.28,1.8.23,10.45-.35,14-.61a1.21,1.21,0,0,1,.38.19s4,16.4,4.31,18.15c.85,4.54,1.29,7.58,1.86,11.75,0,0-.16-9.61,2.41-9.61.35-9.22-.48-22.7-.58-24.75A5.38,5.38,0,0,1,94.87,32.7Z" transform="translate(0)"/><path class="cls-52" d="M91.22,34.38C89.86,33.55,78.59,36,77.32,36c-13.27.1-21.91-5.3-25.91-4.7S47.76,41.68,47.32,43s-1.19,21.13-1,23.2c3.22-14.08,3.8-27.37,6.13-28.81,2.6-1.62,4.55-.75,7.56-.6.57,0,14,1.48,16.49,1.39,7.57-.26,12.19-2.21,12.56-2s5.56,23.74,6.54,30.08c0,0-2-22.57-2.12-23.24C93.23,41.23,92.58,35.21,91.22,34.38Z" transform="translate(0)"/><path class="cls-54" d="M51.55,28.6s6.23-3.08,9.81-1.27,10.82,6,14.11,6.32A47.71,47.71,0,0,0,91.57,32c-2.79-.25-5.56-3.05-8-4.29,8,4.29,12.19,2.67,13.7,2.23-7.31-3.34-10-8.45-19.21-9.87C55.1,16.53,51.55,28.6,51.55,28.6Z" transform="translate(0)"/><path class="cls-55" d="M82.14,76.48a26.29,26.29,0,0,0,3-.85,2.59,2.59,0,0,0,.47-.91l-1.77.54Z" transform="translate(0)"/><path class="cls-55" d="M56.94,74.9a2.59,2.59,0,0,0,.47.91,25.75,25.75,0,0,0,3,.85l-1.73-1.22Z" transform="translate(0)"/><path class="cls-56" d="M65.65,87A46.86,46.86,0,0,1,78,87.13C72.41,83.65,65.65,87,65.65,87Z" transform="translate(0)"/><path class="cls-57" d="M57.6,75.25c.15.15.26.37.45.45,3.54,1.57,3.59,3.07,5.11,3.89a17,17,0,0,0,15.89-.13c2.43-1.35,2.75-2.91,5.65-4a.77.77,0,0,0,.47-.46C69.63,78.76,57.6,75.25,57.6,75.25Z" transform="translate(0)"/><path class="cls-58" d="M71.53,82.65c-2.1,0-4.17-.41-4.17,0S69.18,84,71.28,84s4.17-.91,4.17-1.32S73.62,82.65,71.53,82.65Z" transform="translate(0)"/><path class="cls-59" d="M77.58,78.48a34.71,34.71,0,0,1-6.57.83,40.17,40.17,0,0,1-7-.77c-.65-.12-.94,1-.94,1,2,1.44,4.36,2,8.15,2a13.28,13.28,0,0,0,7.87-2.16S78.41,78.32,77.58,78.48Z" transform="translate(0)"/><path class="cls-60" d="M63.78,83.18c8.1,6.44,15.84-.44,15.84-.44A18.22,18.22,0,0,1,63.78,83.18Z" transform="translate(0)"/><path class="cls-61" d="M61.11,76a2.34,2.34,0,0,0,1.41,1.92c.78.34,2.54,1.67,9.38,1.46s8.19-1.86,8.5-2.15a3.65,3.65,0,0,0,.85-1.44S71,77.79,61.11,76Z" transform="translate(0)"/><path class="cls-62" d="M61.09,75.87a2.66,2.66,0,0,0,.27,1c.19.3,5.65,1.09,9.78,1.12a37.89,37.89,0,0,0,9.7-1.28,3.4,3.4,0,0,0,.46-1S76.65,77.21,61.09,75.87Z" transform="translate(0)"/><path class="cls-63" d="M56.75,74.83s1,.57.85.42c0,0,12,3.51,27.57-.29l.84-.42C77.57,76,56.75,74.83,56.75,74.83Z" transform="translate(0)"/><path class="cls-64" d="M88.14,79.61C87.78,77,87,73.5,87,73.5c-.4-.38-6.2-1.07-7-1.2s-3.27-.42-4.35-.45S72.94,73,71.19,72.92s-2.65-.92-3.47-1.2a7.13,7.13,0,0,0-3.56.46c-1.18.39-7.8,1.32-7.8,1.32-.76.43-1.11,4.69-1.28,6.11-6.67-3.7-8.71-13.44-8.71-13.44.31,4.2,1.19,12,2.77,13.7s13.49,15.7,14.64,16.07c2.84.89,12.52.84,17.07,0,2.06-.39,11.57-13.35,13.62-16.07,1.06-1.4,1.19-13.65,1.19-13.65A19.58,19.58,0,0,1,88.14,79.61ZM82.41,84.9c-1.48,2.91-6.58.92-11.42,1-4.15.1-7.47,1.9-9.32-1.31-1.51-3.14-4.73-9.72-4.73-9.72,3.78.1,10.87,0,14.46,0,2,0,13,.25,14.07-.27A85.55,85.55,0,0,1,82.41,84.9Z" transform="translate(0)"/><path class="cls-65" d="M83.18,94.05c1-1.17,11.08-12.15,11.67-15,.4-1.91.81-12.88.81-12.88-.48,4.32-.52,7.86-3.82,12.53C84.42,89.26,85.55,90.26,83.18,94.05Z" transform="translate(0)"/><path class="cls-66" d="M73.16,62.1c.25-4.93-1.48-5.63-2.75-5.59S68.48,58.26,68.73,62s-.48,5.18-.32,6.94c.08.8.45,1.32,2.48,1.34,2.22,0,3-.51,3.09-1.26C74.24,67,73,65.66,73.16,62.1Z" transform="translate(0)"/><path class="cls-55" d="M73.4,71.69c3-.75,4.19-.3,4.19-.3C75.84,69.85,73.4,71.69,73.4,71.69Z" transform="translate(0)"/><path class="cls-55" d="M64.89,71.17a9,9,0,0,1,3.92.55S66.5,70,64.89,71.17Z" transform="translate(0)"/><path class="cls-67" d="M75.73,66.69c0,1.23.26,2.06-.11,2.76-.84,1.57-3,2.19-4.45,2.07-1.1.13-3.67-.42-4.74-2.06-.43-.67-.16-1.27-.35-2.58,0,0-3,3.59-1.19,4.29a3,3,0,0,1,2-.26c1.43.13,1.14,1.71,4.44,1.74,2.88,0,2-1.35,3.79-1.61s2.07.2,2.48.39C78.48,71.43,77.82,68.39,75.73,66.69Z" transform="translate(0)"/><path class="cls-68" d="M68.1,68.8c-.13.8,1,1.67,3,1.68,2.22,0,2.72-.86,2.53-1.6C72.56,64.51,68.56,65.81,68.1,68.8Z" transform="translate(0)"/><path class="cls-52" d="M86.26,50.9a16.87,16.87,0,0,0-9.92,1,1.24,1.24,0,0,0,.5,2.37c2.65,0,6-1.44,8.52-1.41C89,52.86,90.51,54,90.51,54S88.6,51.47,86.26,50.9Z" transform="translate(0)"/><path class="cls-69" d="M51.55,78.75c-4.65-4.34-5.18-12.58-5.18-12.58,0,1.17.16,2.43.27,4,.24,3.58.59,7.43,1.29,8.88.42.88,5.27,5.47,6,6.46,1,1.31,8.36,9.06,8.36,9.06C60.15,91.55,59.54,86.23,51.55,78.75Z" transform="translate(0)"/></svg>