<svg id="Layer_1" data-name="Layer 1" xmlns="http://www.w3.org/2000/svg" xmlns:xlink="http://www.w3.org/1999/xlink" viewBox="0 0 144 144"><defs><style>.cls-1{fill:#f6ece6;}.cls-2{fill:url(#linear-gradient);}.cls-3{fill:url(#linear-gradient-2);}.cls-4{fill:url(#linear-gradient-3);}.cls-5{fill:#f7d9ab;}.cls-6{fill:url(#linear-gradient-4);}.cls-7{fill:url(#linear-gradient-5);}.cls-8{fill:#ac347c;}.cls-9{fill:url(#linear-gradient-6);}.cls-10{fill:url(#linear-gradient-7);}.cls-11{fill:url(#linear-gradient-8);}.cls-12{fill:url(#linear-gradient-9);}.cls-13{fill:url(#linear-gradient-10);}.cls-14{fill:url(#linear-gradient-11);}.cls-15{fill:url(#linear-gradient-12);}.cls-16{fill:url(#linear-gradient-13);}.cls-17{fill:url(#linear-gradient-14);}.cls-18{fill:url(#linear-gradient-15);}.cls-19{fill:url(#linear-gradient-16);}.cls-20{fill:url(#linear-gradient-17);}.cls-21{fill:url(#linear-gradient-18);}.cls-22{fill:url(#linear-gradient-19);}.cls-23{fill:url(#linear-gradient-20);}.cls-24{fill:url(#linear-gradient-21);}.cls-25{fill:url(#linear-gradient-22);}.cls-26{fill:url(#linear-gradient-23);}.cls-27{fill:url(#linear-gradient-24);}.cls-28{fill:url(#linear-gradient-25);}.cls-29{fill:#f1c99a;}.cls-30{fill:url(#linear-gradient-26);}.cls-31{fill:url(#linear-gradient-27);}.cls-32{fill:url(#linear-gradient-28);}.cls-33{fill:url(#radial-gradient);}.cls-34{fill:url(#linear-gradient-29);}.cls-35{fill:url(#radial-gradient-2);}.cls-36{fill:url(#linear-gradient-30);}.cls-37{fill:url(#linear-gradient-31);}.cls-38{fill:url(#linear-gradient-32);}.cls-39{fill:url(#linear-gradient-33);}.cls-40{fill:#971b27;}.cls-41{fill:url(#linear-gradient-34);}.cls-42{fill:url(#linear-gradient-35);}.cls-43{fill:#f26d79;}.cls-44{fill:url(#linear-gradient-36);}.cls-45{fill:#f598a2;}.cls-46{fill:url(#linear-gradient-37);}.cls-47{fill:url(#linear-gradient-38);}.cls-48{fill:url(#linear-gradient-39);}.cls-49{fill:url(#linear-gradient-40);}.cls-50{fill:url(#linear-gradient-41);}.cls-51{fill:url(#linear-gradient-42);}.cls-52{fill:#ddd;}.cls-53{fill:url(#linear-gradient-43);}.cls-54{fill:url(#linear-gradient-44);}.cls-55{fill:url(#linear-gradient-45);}.cls-56{fill:url(#radial-gradient-3);}.cls-57{fill:#fff;}.cls-58{fill:url(#linear-gradient-46);}.cls-59{fill:#dba879;}.cls-60{fill:#391b13;}.cls-61{fill:url(#linear-gradient-47);}.cls-62{fill:url(#linear-gradient-48);}.cls-63{fill:url(#linear-gradient-49);}.cls-64{fill:url(#linear-gradient-50);}.cls-65{fill:url(#linear-gradient-51);}.cls-66{fill:url(#radial-gradient-4);}.cls-67{fill:url(#linear-gradient-52);}.cls-68{fill:url(#linear-gradient-53);}.cls-69{fill:url(#linear-gradient-54);}.cls-70{fill:url(#linear-gradient-55);}.cls-71{fill:url(#linear-gradient-56);}.cls-72{fill:url(#linear-gradient-57);}.cls-73{fill:url(#linear-gradient-58);}.cls-74{fill:url(#linear-gradient-59);}.cls-75{fill:url(#linear-gradient-60);}.cls-76{fill:#834238;}.cls-77{fill:url(#linear-gradient-61);}.cls-78{fill:url(#linear-gradient-62);}.cls-79{fill:url(#linear-gradient-63);}.cls-80{fill:url(#linear-gradient-64);}.cls-81{fill:url(#linear-gradient-65);}.cls-82{fill:url(#linear-gradient-66);}.cls-83{fill:url(#linear-gradient-67);}.cls-84{fill:url(#linear-gradient-68);}.cls-85{fill:url(#linear-gradient-69);}</style><linearGradient id="linear-gradient" x1="70.2" y1="20.08" x2="71.84" y2="86.81" gradientUnits="userSpaceOnUse"><stop offset="0" stop-color="#6c342a"/><stop offset="0.3" stop-color="#673228"/><stop offset="0.63" stop-color="#5a2c22"/><stop offset="0.97" stop-color="#442119"/><stop offset="1" stop-color="#422018"/></linearGradient><linearGradient id="linear-gradient-2" x1="49.47" y1="132.02" x2="46.48" y2="76.13" gradientUnits="userSpaceOnUse"><stop offset="0" stop-color="#683126"/><stop offset="0.59" stop-color="#4e261d"/><stop offset="1" stop-color="#422018"/></linearGradient><linearGradient id="linear-gradient-3" x1="89.9" y1="152.21" x2="85.29" y2="55.82" gradientUnits="userSpaceOnUse"><stop offset="0" stop-color="#683126"/><stop offset="0.34" stop-color="#53281e"/><stop offset="0.68" stop-color="#46221a"/><stop offset="1" stop-color="#422018"/></linearGradient><linearGradient id="linear-gradient-4" x1="24" y1="116.03" x2="35.3" y2="116.03" gradientUnits="userSpaceOnUse"><stop offset="0" stop-color="#ffdeb3"/><stop offset="0.68" stop-color="#fcdcb0"/><stop offset="1" stop-color="#f7d9ab"/></linearGradient><linearGradient id="linear-gradient-5" x1="22.73" y1="117.5" x2="38.34" y2="117.04" gradientUnits="userSpaceOnUse"><stop offset="0" stop-color="#f1c99a"/><stop offset="0.53" stop-color="#f2cc9d"/><stop offset="0.87" stop-color="#f5d4a5"/><stop offset="1" stop-color="#f7d9ab"/></linearGradient><linearGradient id="linear-gradient-6" x1="37.94" y1="127.76" x2="31.31" y2="134.7" xlink:href="#linear-gradient-5"/><linearGradient id="linear-gradient-7" x1="70.74" y1="115.26" x2="69.43" y2="104.19" xlink:href="#linear-gradient-5"/><linearGradient id="linear-gradient-8" x1="64.29" y1="76.64" x2="72.39" y2="116.22" xlink:href="#linear-gradient-5"/><linearGradient id="linear-gradient-9" x1="67.96" y1="104.69" x2="68.13" y2="113.02" gradientUnits="userSpaceOnUse"><stop offset="0" stop-color="#f7d9ab"/><stop offset="0.57" stop-color="#f5d4a5"/><stop offset="1" stop-color="#f2cc9c"/></linearGradient><linearGradient id="linear-gradient-10" x1="69.41" y1="123.64" x2="78.02" y2="83.56" xlink:href="#linear-gradient-5"/><linearGradient id="linear-gradient-11" x1="32.91" y1="128.15" x2="33.16" y2="132.7" gradientUnits="userSpaceOnUse"><stop offset="0" stop-color="#ac347c"/><stop offset="0.36" stop-color="#a12f74"/><stop offset="1" stop-color="#902768"/></linearGradient><linearGradient id="linear-gradient-12" x1="93.54" y1="119.21" x2="94.74" y2="141.03" xlink:href="#linear-gradient-11"/><linearGradient id="linear-gradient-13" x1="91.34" y1="141.01" x2="91.29" y2="140.35" xlink:href="#linear-gradient-11"/><linearGradient id="linear-gradient-14" x1="101.55" y1="126.01" x2="102.07" y2="135.48" xlink:href="#linear-gradient-11"/><linearGradient id="linear-gradient-15" x1="35.3" y1="132.42" x2="35.2" y2="127.85" xlink:href="#linear-gradient-11"/><linearGradient id="linear-gradient-16" x1="108.77" y1="106.15" x2="102.86" y2="116.22" gradientUnits="userSpaceOnUse"><stop offset="0" stop-color="#f1c99a"/><stop offset="0.66" stop-color="#f2cc9d"/><stop offset="1" stop-color="#f4d2a3"/></linearGradient><linearGradient id="linear-gradient-17" x1="112" y1="107.66" x2="112" y2="107.66" xlink:href="#linear-gradient-16"/><linearGradient id="linear-gradient-18" x1="112.99" y1="105.48" x2="102.29" y2="142.61" xlink:href="#linear-gradient-4"/><linearGradient id="linear-gradient-19" x1="92.2" y1="127.8" x2="115.93" y2="122.81" xlink:href="#linear-gradient-5"/><linearGradient id="linear-gradient-20" x1="89.54" y1="127.87" x2="92.52" y2="130.34" xlink:href="#linear-gradient-11"/><linearGradient id="linear-gradient-21" x1="58.33" y1="153.94" x2="66.46" y2="114.34" gradientUnits="userSpaceOnUse"><stop offset="0" stop-color="#ac347c"/><stop offset="0.29" stop-color="#ad397f"/><stop offset="0.62" stop-color="#b14687"/><stop offset="0.97" stop-color="#b75d94"/><stop offset="1" stop-color="#b85f95"/></linearGradient><linearGradient id="linear-gradient-22" x1="29" y1="124.07" x2="39.84" y2="90.95" xlink:href="#linear-gradient-21"/><linearGradient id="linear-gradient-23" x1="72.61" y1="80.98" x2="72.11" y2="95.28" gradientUnits="userSpaceOnUse"><stop offset="0" stop-color="#dba879"/><stop offset="0.49" stop-color="#e4b687"/><stop offset="1" stop-color="#f1c99a"/></linearGradient><linearGradient id="linear-gradient-24" x1="30.19" y1="108.93" x2="37.45" y2="121.64" xlink:href="#linear-gradient-11"/><linearGradient id="linear-gradient-25" x1="42.67" y1="109.1" x2="35.07" y2="121.3" xlink:href="#linear-gradient-11"/><linearGradient id="linear-gradient-26" x1="98.96" y1="61.11" x2="96.91" y2="73.08" gradientUnits="userSpaceOnUse"><stop offset="0" stop-color="#dba879"/><stop offset="0.22" stop-color="#e2b384"/><stop offset="0.66" stop-color="#edc394"/><stop offset="1" stop-color="#f1c99a"/></linearGradient><linearGradient id="linear-gradient-27" x1="46.23" y1="61.86" x2="47.55" y2="70.89" xlink:href="#linear-gradient-23"/><linearGradient id="linear-gradient-28" x1="85.9" y1="68.69" x2="86.78" y2="52.23" gradientUnits="userSpaceOnUse"><stop offset="0" stop-color="#f7d9ab"/><stop offset="0.53" stop-color="#f6d6a8"/><stop offset="0.87" stop-color="#f3cea0"/><stop offset="1" stop-color="#f1c99a"/></linearGradient><radialGradient id="radial-gradient" cx="131.42" cy="65.63" r="21.14" gradientTransform="translate(35.39 43.75) scale(0.41 0.41)" gradientUnits="userSpaceOnUse"><stop offset="0" stop-color="#f9b58e"/><stop offset="0.56" stop-color="#f8c89d"/><stop offset="1" stop-color="#f7d9ab"/></radialGradient><linearGradient id="linear-gradient-29" x1="57.68" y1="54.79" x2="61.13" y2="69.78" gradientUnits="userSpaceOnUse"><stop offset="0" stop-color="#f1c99a"/><stop offset="0.13" stop-color="#f3cea0"/><stop offset="0.47" stop-color="#f6d6a8"/><stop offset="1" stop-color="#f7d9ab"/></linearGradient><radialGradient id="radial-gradient-2" cx="50.31" cy="66.7" r="19.75" xlink:href="#radial-gradient"/><linearGradient id="linear-gradient-30" x1="89.24" y1="67.04" x2="93.91" y2="67.04" gradientUnits="userSpaceOnUse"><stop offset="0" stop-color="#ffdeb3"/><stop offset="1" stop-color="#f7d9ab"/></linearGradient><linearGradient id="linear-gradient-31" x1="50.78" y1="67.28" x2="55.44" y2="67.28" xlink:href="#linear-gradient-30"/><linearGradient id="linear-gradient-32" x1="65.81" y1="79.96" x2="63.1" y2="77.71" xlink:href="#linear-gradient-28"/><linearGradient id="linear-gradient-33" x1="82.95" y1="78.36" x2="80.99" y2="77.37" xlink:href="#linear-gradient-28"/><linearGradient id="linear-gradient-34" x1="66.63" y1="80.34" x2="78.64" y2="80.34" gradientUnits="userSpaceOnUse"><stop offset="0" stop-color="#e8d9d7"/><stop offset="0.14" stop-color="#f0e6e4"/><stop offset="0.39" stop-color="#fbf8f8"/><stop offset="0.57" stop-color="#fff"/><stop offset="1" stop-color="#e8d3d1"/></linearGradient><linearGradient id="linear-gradient-35" x1="62.74" y1="78.97" x2="81.66" y2="78.97" gradientUnits="userSpaceOnUse"><stop offset="0" stop-color="#e8d9d7"/><stop offset="0.04" stop-color="#ebdfdd"/><stop offset="0.21" stop-color="#f6f1f0"/><stop offset="0.38" stop-color="#fdfbfb"/><stop offset="0.57" stop-color="#fff"/><stop offset="0.69" stop-color="#fbf8f8"/><stop offset="0.87" stop-color="#f1e5e3"/><stop offset="1" stop-color="#e8d3d1"/></linearGradient><linearGradient id="linear-gradient-36" x1="66.19" y1="81.1" x2="80.02" y2="81.1" gradientUnits="userSpaceOnUse"><stop offset="0" stop-color="#f26e7f"/><stop offset="0.02" stop-color="#f26f80"/><stop offset="0.24" stop-color="#f37986"/><stop offset="0.53" stop-color="#f37c88"/><stop offset="0.77" stop-color="#f37885"/><stop offset="1" stop-color="#f26d7d"/></linearGradient><linearGradient id="linear-gradient-37" x1="65.44" y1="78.64" x2="80.09" y2="78.68" gradientUnits="userSpaceOnUse"><stop offset="0" stop-color="#e8d9d7"/><stop offset="0.05" stop-color="#eadddb"/><stop offset="0.31" stop-color="#f6efef"/><stop offset="0.48" stop-color="#faf6f6"/><stop offset="1" stop-color="#e8d3d1"/></linearGradient><linearGradient id="linear-gradient-38" x1="67.49" y1="78.01" x2="77.97" y2="78.01" xlink:href="#linear-gradient-36"/><linearGradient id="linear-gradient-39" x1="66.8" y1="87.39" x2="75.27" y2="87.39" xlink:href="#linear-gradient-4"/><linearGradient id="linear-gradient-40" x1="72.71" y1="100.78" x2="72.8" y2="82.46" xlink:href="#linear-gradient-23"/><linearGradient id="linear-gradient-41" x1="65.28" y1="58.92" x2="53.49" y2="63.5" gradientUnits="userSpaceOnUse"><stop offset="0" stop-color="#f1c99a"/><stop offset="0.51" stop-color="#e4b687"/><stop offset="1" stop-color="#dba879"/></linearGradient><linearGradient id="linear-gradient-42" x1="62.36" y1="61.91" x2="66.45" y2="61.91" gradientUnits="userSpaceOnUse"><stop offset="0" stop-color="#fff"/><stop offset="0.46" stop-color="#fdfcfc"/><stop offset="0.76" stop-color="#f6f4f4"/><stop offset="1" stop-color="#ece7e6"/></linearGradient><linearGradient id="linear-gradient-43" x1="54.89" y1="61.79" x2="58.29" y2="61.79" xlink:href="#linear-gradient-42"/><linearGradient id="linear-gradient-44" x1="66.3" y1="67.07" x2="56.51" y2="60.13" gradientUnits="userSpaceOnUse"><stop offset="0" stop-color="#ddddda"/><stop offset="1" stop-color="#a4a59d"/></linearGradient><linearGradient id="linear-gradient-45" x1="73.65" y1="67.84" x2="63.48" y2="62.41" gradientUnits="userSpaceOnUse"><stop offset="0" stop-color="#c6c6c0"/><stop offset="1" stop-color="#95958d"/></linearGradient><radialGradient id="radial-gradient-3" cx="59.09" cy="45.06" r="7.2" gradientTransform="translate(35.39 43.75) scale(0.41 0.41)" gradientUnits="userSpaceOnUse"><stop offset="0" stop-color="#2b3b3b"/><stop offset="1" stop-color="#1d2827"/></radialGradient><linearGradient id="linear-gradient-46" x1="51.19" y1="61.44" x2="66.45" y2="61.44" gradientUnits="userSpaceOnUse"><stop offset="0" stop-color="#5b2b20"/><stop offset="0.31" stop-color="#4a2319"/><stop offset="0.66" stop-color="#3d1d15"/><stop offset="1" stop-color="#391b13"/></linearGradient><linearGradient id="linear-gradient-47" x1="91.16" y1="58.59" x2="77.63" y2="63.85" xlink:href="#linear-gradient-23"/><linearGradient id="linear-gradient-48" x1="77.89" y1="61.66" x2="81.98" y2="61.66" xlink:href="#linear-gradient-42"/><linearGradient id="linear-gradient-49" x1="87.03" y1="61.54" x2="90.43" y2="61.54" xlink:href="#linear-gradient-42"/><linearGradient id="linear-gradient-50" x1="89.09" y1="65.16" x2="79.54" y2="59.19" xlink:href="#linear-gradient-44"/><linearGradient id="linear-gradient-51" x1="97" y1="61.76" x2="84.6" y2="60.29" xlink:href="#linear-gradient-45"/><radialGradient id="radial-gradient-4" cx="118.22" cy="44.42" r="7.2" xlink:href="#radial-gradient-3"/><linearGradient id="linear-gradient-52" x1="77.9" y1="61.19" x2="93.16" y2="61.19" gradientUnits="userSpaceOnUse"><stop offset="0" stop-color="#391b13"/><stop offset="0.34" stop-color="#3d1d15"/><stop offset="0.69" stop-color="#4a2319"/><stop offset="1" stop-color="#5b2b20"/></linearGradient><linearGradient id="linear-gradient-53" x1="78.91" y1="53.15" x2="93.27" y2="53.15" xlink:href="#linear-gradient-3"/><linearGradient id="linear-gradient-54" x1="51.44" y1="53.11" x2="65.91" y2="53.11" xlink:href="#linear-gradient-3"/><linearGradient id="linear-gradient-55" x1="97.94" y1="64.94" x2="94.08" y2="53.81" xlink:href="#linear-gradient-2"/><linearGradient id="linear-gradient-56" x1="50.2" y1="63.39" x2="47.6" y2="55.91" xlink:href="#linear-gradient-2"/><linearGradient id="linear-gradient-57" x1="62.7" y1="17.56" x2="43.43" y2="116.74" gradientUnits="userSpaceOnUse"><stop offset="0" stop-color="#6c342a"/><stop offset="0.41" stop-color="#5e2d24"/><stop offset="1" stop-color="#422018"/></linearGradient><linearGradient id="linear-gradient-58" x1="33.82" y1="66.11" x2="33.83" y2="66.11" gradientUnits="userSpaceOnUse"><stop offset="0" stop-color="#683126"/><stop offset="0.38" stop-color="#6d3429"/><stop offset="0.8" stop-color="#7a3c32"/><stop offset="1" stop-color="#834238"/></linearGradient><linearGradient id="linear-gradient-59" x1="33.83" y1="45.37" x2="81.3" y2="45.37" xlink:href="#linear-gradient-58"/><linearGradient id="linear-gradient-60" x1="117.01" y1="53.93" x2="86.68" y2="29.94" xlink:href="#linear-gradient-58"/><linearGradient id="linear-gradient-61" x1="68.17" y1="48.35" x2="112.49" y2="82.98" gradientUnits="userSpaceOnUse"><stop offset="0" stop-color="#683126"/><stop offset="0.06" stop-color="#5a2b20"/><stop offset="0.15" stop-color="#4d251b"/><stop offset="0.23" stop-color="#492319"/><stop offset="1" stop-color="#663024"/></linearGradient><linearGradient id="linear-gradient-62" x1="32.42" y1="68.2" x2="78.86" y2="68.2" xlink:href="#linear-gradient"/><linearGradient id="linear-gradient-63" x1="81.62" y1="75.29" x2="96.69" y2="75.29" xlink:href="#linear-gradient-4"/><linearGradient id="linear-gradient-64" x1="72.29" y1="76.55" x2="72.26" y2="73.05" xlink:href="#linear-gradient-28"/><linearGradient id="linear-gradient-65" x1="73.32" y1="73.06" x2="70.35" y2="65.4" xlink:href="#linear-gradient-30"/><linearGradient id="linear-gradient-66" x1="76.86" y1="72.42" x2="73.93" y2="73.87" xlink:href="#linear-gradient-23"/><linearGradient id="linear-gradient-67" x1="67.79" y1="72.58" x2="70.93" y2="73.86" xlink:href="#linear-gradient-23"/><linearGradient id="linear-gradient-68" x1="97.37" y1="106.47" x2="112.71" y2="125.16" xlink:href="#linear-gradient-21"/><linearGradient id="linear-gradient-69" x1="119.08" y1="121.82" x2="83.27" y2="127.53" xlink:href="#linear-gradient-11"/></defs><circle class="cls-1" cx="72" cy="72" r="72" transform="translate(-29.82 72) rotate(-45)"/><path class="cls-2" d="M96.78,27.8c-6.42-5.53-22.43-5.56-22.43-5.56-45.36-2.74-52.92,74-22,85.33,2.61.37,26.8,14.28,32.73,15.24-2.55-4,5.39-14.51,11.83-23,5.5-7.24,10.8-19.55,11.87-33.37C109.8,53.5,107.14,36.74,96.78,27.8Z"/><path class="cls-3" d="M53.23,73.43c4.26-10.16.4-16.81.81-28.35,0,0-40.19,13.4.31,87.15l5.07-7.35S47.26,87.71,53.23,73.43Z"/><path class="cls-4" d="M82.56,31.94c-5,17-3,28.47,3.54,38.12,11.48,17.07-18.62,69.11-18.62,69.11,5.87.08,15.63-3.76,18.65-7.41C112.23,100.13,110,73,105,61.45,88.06,21.91,82.56,31.94,82.56,31.94Z"/><path class="cls-5" d="M48.3,100c-10.13-.14-12.82,2.88-14.41,6.07-1.4,2.84-6.69,13.32-9.71,19.71a72,72,0,0,0,14.3,9.91,49.32,49.32,0,0,0,2.93-6.91C42.17,125.49,48.3,100,48.3,100Z"/><path class="cls-6" d="M34.77,107c1.65-3.18-1-.86-1.73.58-2,4-5.63,11.31-9,18.09.38.34.76.68,1.15,1,.49-.87.91-1.65,1.2-2.29C27.71,121.4,31.69,113,34.77,107Z"/><path class="cls-7" d="M30.35,113c2.41,3.77,4.5,11.54,4.5,11.54l1.22-3.72a20.9,20.9,0,0,0-4.36-10.92C31.38,110.65,30.35,113,30.35,113Z"/><path class="cls-8" d="M30.9,111.21c3.46,3.92,4.74,10.64,4.74,10.64s4.64-10.77,4.74-15A15.6,15.6,0,0,0,39,100.48C35.06,101.85,30.9,111.21,30.9,111.21Z"/><path class="cls-9" d="M30.38,130.76a70.88,70.88,0,0,0,8,4.89l-2.69-13.8S33.41,125.7,30.38,130.76Z"/><path class="cls-5" d="M84.49,99.11c-1.11-3.45-2-14.4-1.4-16.16l-21.41.44s-.31,14.87-1,15.72c-1,1.29-9.2,1.62-9.2,1.62s-3,30.64,9.52,31.52,28-13.27,38.14-28C99.17,104.21,85.45,102.06,84.49,99.11Z"/><path class="cls-10" d="M68.8,107c-.46-.34-2.12-3.58-2.18-2.92s1.37,6,2.61,5.15a18.11,18.11,0,0,0,3.18-3.71C71.57,105.74,69.26,107.37,68.8,107Z"/><path class="cls-11" d="M85.81,99.25c-1-1.89-1.26-18-1.26-18l-25.24-1.9a61.77,61.77,0,0,1,1.31,8.77c0,3.3.67,8.22,0,9.59s-7.19,1.5-7.19,1.5l-13.21,1.19A72.55,72.55,0,0,1,48.75,102c5.78,1.45,12.87,4,13.22,4s1-5.71,1.13-7.91c4-.5,14.52.62,19.63-5,0,0,.6,11.37,1.26,11.7s14.75-1.14,14.75-1.14S87.13,101.71,85.81,99.25Z"/><path class="cls-12" d="M65.09,111.91s1.62-3.71,6-1.9C69.62,107.18,65.25,107.43,65.09,111.91Z"/><path class="cls-13" d="M68.8,107C54.22,106,52,99.39,52,99.39l-2.41.21s-.07,14.22.52,15.85,9.79,14.85,11.17,14.85,14.12-3.26,20-8.24c3.08-2.6,17.42-18.42,17.42-18.42l-3-.52A66.55,66.55,0,0,1,68.8,107Z"/><path class="cls-8" d="M112,107.67a98.17,98.17,0,0,0-14.13-4.23c-12.88,4.93-24.93,6.19-34.89,4s-12.79-8-12.79-8L39,100.48c-3.39,9.26-1.47,13.71-3.36,22.47a67.51,67.51,0,0,1-2.92,9.39,72,72,0,0,0,72,3.82C102.84,116,109.16,108.5,112,107.67Z"/><path class="cls-14" d="M33.85,128.08A26.54,26.54,0,0,0,32.18,132l1.48,1A18.14,18.14,0,0,1,33.85,128.08Z"/><path class="cls-15" d="M84.57,142.9a70.45,70.45,0,0,0,12.06-3.23c3.68-11.09,7.14-21.11,7.14-21.11C99,131.59,92.22,138.89,84.57,142.9Z"/><path class="cls-16" d="M89.49,141.86l1.59-.42c.61-2,1.21-4.08,1.78-6.2C91.63,137.74,90.5,139.94,89.49,141.86Z"/><path class="cls-17" d="M103.94,126.64a57,57,0,0,1-4.59,12c1.92-.79,3.81-1.66,5.64-2.61A28.05,28.05,0,0,1,103.94,126.64Z"/><path class="cls-18" d="M38.45,115s-4.19,10.3-6.71,16.74c.5.34,1,.67,1.51,1,.43-1.47.89-3,1.32-4.61C36.09,122.38,38.77,116,38.45,115Z"/><path class="cls-5" d="M111.27,107.53c-2.4-.25-5.29.22-9.78,5.72a36.49,36.49,0,0,0-6.22,12.89,72.71,72.71,0,0,1-4.6,15.41,71.75,71.75,0,0,0,26.79-13.72,44.33,44.33,0,0,0,1.46-9.27C119.17,110,112.7,107.68,111.27,107.53Z"/><path class="cls-19" d="M101.37,114.77c5.14-7.91,10.26-7.18,10.62-7.11-5.1-1.21-9.34,2.6-12,6.38-3,4.34-5.62,16.16-9.83,27.65.78-.21,1.55-.42,2.32-.65.06-.21.11-.4.15-.55C93.66,137,98,119.88,101.37,114.77Z"/><path class="cls-20" d="M112,107.66h0Z"/><path class="cls-21" d="M109.84,108.32c-5.44.13-11,15.74-15.37,32.1a71.76,71.76,0,0,0,19.91-10.22c.81-2.84,1.48-5.48,2-7.78C119.06,111.17,112.4,108.26,109.84,108.32Z"/><path class="cls-8" d="M107.77,106.1s-1.8-.36-9.42,6.83c-8.93,8.42-8.35,17.8-7.81,18.15a5.14,5.14,0,0,1,.61,2c5.91-8.59,18.7-13.06,27.41-10.59C119.69,115.09,118.67,108.36,107.77,106.1Z"/><path class="cls-22" d="M107.12,121.37c-4.84.42-12.38,6.62-12.38,6.62l-.86,2.81s6.51-5.63,13.34-6.88a40.51,40.51,0,0,1,11.11-.09l.23-1.29S115,120.69,107.12,121.37Z"/><path class="cls-23" d="M91,130.91c-.37.76.14,8,.14,8s3.57-10.51,3.57-10.89.09-4.92-.42-5.8S91.41,130.15,91,130.91Z"/><path class="cls-24" d="M87,121c-3.31-4.68-20.4-4.67-24.26-5.31s-15.84.13-19,3.3-4.5,10.32-5.46,16.46a1.23,1.23,0,0,0,0,.19,71.29,71.29,0,0,0,25.18,7.87,50.1,50.1,0,0,0,9.36-.8C85.61,140.17,90.28,125.67,87,121Z"/><path class="cls-25" d="M34.7,103.61a17.15,17.15,0,0,0-3.14,5.67l.79,3.23a26.54,26.54,0,0,1,6.65-12A10,10,0,0,0,34.7,103.61Z"/><path class="cls-26" d="M60,84.45a84.63,84.63,0,0,1,.89,10.38s15.61,2.37,23.86-5.6L84.56,82Z"/><path class="cls-27" d="M31.56,109.28a14.84,14.84,0,0,0-.66,1.93c3.91,4.35,4.57,11.11,4.57,11.11L36.82,119C35.3,110.87,31.66,109.38,31.56,109.28Z"/><path class="cls-28" d="M35,119.12a19.75,19.75,0,0,1,.48,3.74c.36-.57,6.57-12.08,5.67-13.14C37.74,117.18,35,119.12,35,119.12Z"/><path class="cls-29" d="M98.06,61.08c-.74,0-1.58,1.89-1.58,1.89-1.1,6.45-1.54,11.37-1.54,11.37C99.1,73,102.28,61,98.06,61.08Z"/><path class="cls-30" d="M97.46,67.34a4.84,4.84,0,0,1-.57,3.78,9,9,0,0,0,1.69-3.42c.45-3-.78-3.27-.23-4,.44-.61,1.07,1.18,1.07,1.18C100.05,60.8,96.31,61.68,97.46,67.34Z"/><path class="cls-29" d="M47.09,60.54c-4.22-.18-1.44,11.91,2.67,13.36,0,0-.27-4.94-1.16-11.42C48.6,62.48,47.83,60.57,47.09,60.54Z"/><path class="cls-31" d="M47.72,66.89c.86-6-3.21-6.38-2.26-2.3,0,0,.55-1.93,1.07-1.36s-.67,1.11,0,4.2a8.58,8.58,0,0,0,2,3.29A4.68,4.68,0,0,1,47.72,66.89Z"/><path class="cls-5" d="M76.13,31C61.78,28.67,51.69,41.39,49,56.67c-1.5,8.57-1,16.11,3.6,22.41,1.86,2.55,4.16,3.78,6.85,5.79,1.7,1.27,4.37,4,6.19,5.34a10.07,10.07,0,0,0,5.68,2.26c6.75.24,11.18-4.8,13.11-6.61,6.81-6.37,13.06-8.75,11.67-26.47C95,45.47,85.54,31.33,76.13,31Z"/><path class="cls-32" d="M84.09,52.49c-8,1.44-7.67,7.47-8.26,14.51,12.91,5.28,20.37-1,20.37-1s0-7.79-1.83-10.46C93.68,54.54,91.55,51.15,84.09,52.49Z"/><path class="cls-33" d="M87,62.05c-3.76.77-7.47,5-6.65,9a12.06,12.06,0,0,0,7,8.88c4.67,1.83,8.06-4.16,8.86-11.57C96.69,64.28,90.76,61.27,87,62.05Z"/><path class="cls-34" d="M59.66,52.87a11.48,11.48,0,0,0-7.66,2c-4,3-1.63,10.79-1.63,10.79s6.2,7.23,19.25,2.08C68.7,62.12,70.23,53.59,59.66,52.87Z"/><path class="cls-35" d="M57.87,63.41c-3.44-.86-8.87,1.71-8.79,5.27.18,8.41,3.59,10.88,8.12,11.54,3.51.52,6-5.63,6.88-9.08S61.31,64.27,57.87,63.41Z"/><path class="cls-36" d="M91.42,65.78c-1.28.32-2.17,1.15-2,1.85s1.35,1,2.63.67,2.17-1.14,2-1.84S92.69,65.46,91.42,65.78Z"/><path class="cls-37" d="M53.09,66c-1.28-.24-2.42.13-2.56.82s.8,1.47,2.08,1.71,2.43-.12,2.56-.82S54.37,66.26,53.09,66Z"/><path class="cls-38" d="M61.81,76.62c-.22.42.08.85.63,1a10.14,10.14,0,0,1,2.75,1.47C64.3,77.86,62,76.24,61.81,76.62Z"/><path class="cls-39" d="M80.1,79.1a10.07,10.07,0,0,1,2.63-1.67c.53-.23.8-.68.54-1.08S80.88,77.78,80.1,79.1Z"/><path class="cls-29" d="M67.31,81.91c1,2.19,6.69,5.23,10.85-.09C78.16,81.82,72.24,84.49,67.31,81.91Z"/><path class="cls-40" d="M62.39,77h0l.1.13a11,11,0,0,1,2.41,1.19c.68.49,1.35,3.75,8,3.66a9.56,9.56,0,0,0,7.91-3.77,5.79,5.79,0,0,1,1.83-1.32c0-.06,0-.09.05-.15a32,32,0,0,1-10.58,1.35A43.06,43.06,0,0,1,62.39,77Z"/><path class="cls-41" d="M78,78.71a34.15,34.15,0,0,1-10.59.43c-1.06-.47-1,.88-1,.88,2.33,2.38,4.2,1.92,6.07,2a10,10,0,0,0,6.23-2.17C79,79.37,78.55,78.59,78,78.71Z"/><path class="cls-42" d="M69,78.26a16.6,16.6,0,0,1-3.39-.58,3.46,3.46,0,0,1,.45.74c.23.52,1.35,2.28,6.68,2.19,4-.06,6.11-1.49,6.39-2.36.17-.52.54-.75.57-.93a13.32,13.32,0,0,1-4,.91A35.25,35.25,0,0,1,69,78.26Z"/><path class="cls-43" d="M73.21,81.79c-8.13,0-5.31-3.32-10.72-4.61a10.34,10.34,0,0,1,2.67,2.3c1.58,1.81,2.94,4.67,7.5,4.62,4.11,0,6.37-3,7.68-4.7a12.67,12.67,0,0,1,2.28-2.46C78.2,78.16,79.68,81.57,73.21,81.79Z"/><path class="cls-44" d="M76.68,81a15.75,15.75,0,0,1-4.15.77,10.82,10.82,0,0,1-4.13-.67,12.17,12.17,0,0,1-2.61-2.17c.3.4,2.07,4.7,6.65,4.59,5.3-.13,6.24-3.69,7.18-4.75A8,8,0,0,1,76.68,81Z"/><path class="cls-45" d="M74.75,81.92c-.53.19-2.37.32-2.3.51a3.05,3.05,0,0,0,2.56.16c1.07-.31,1.58-.93,1.51-1.11S75.29,81.73,74.75,81.92Z"/><path class="cls-40" d="M62.57,77.5a7.56,7.56,0,0,1,1.85.36A17.81,17.81,0,0,0,62.1,76.8C62,76.84,62.1,77.28,62.57,77.5Z"/><path class="cls-40" d="M80.83,77.68a6.29,6.29,0,0,1,1.79-.42c.47-.23.55-.65.46-.71A11.26,11.26,0,0,0,80.83,77.68Z"/><path class="cls-46" d="M66,78.44s2.31,1.24,7,1.21a14.91,14.91,0,0,0,6-1.34l.27-.63-13.66.13Z"/><path class="cls-43" d="M75.64,77.32a18,18,0,0,0-2.89.15,33.3,33.3,0,0,0-3.37-.18,21.23,21.23,0,0,1-6.55-.22s1,.59,5.74,1.5a19.68,19.68,0,0,0,4.13.5,25.13,25.13,0,0,0,4.55-.6,22.8,22.8,0,0,0,5-1.6A28.42,28.42,0,0,1,75.64,77.32Z"/><path class="cls-47" d="M74.73,77.47a18.17,18.17,0,0,1-2.28.18c-.47,0-1.76-.22-2.15-.22a12.48,12.48,0,0,0-2.81.38c-.13.49,5.3.82,5.79.78A33.58,33.58,0,0,0,78,77.83,10.27,10.27,0,0,0,74.73,77.47Z"/><path class="cls-48" d="M72.54,86.27c-1.78-.12-3.29.28-3.37.9s1.29,1.22,3.08,1.34,3.28-.29,3.36-.91S74.31,86.38,72.54,86.27Z"/><path class="cls-29" d="M56.66,82.23c-9.12-6.55-6.42-18.3-6.42-18.3-4.73,11.93,3.45,17.28,5.11,18.37,3.42,2.26,9.09,6.93,9.09,6.93C62.17,87.16,60.94,85.31,56.66,82.23Z"/><path class="cls-49" d="M65.36,90s5.59,7.34,14.81-.36C80.17,89.62,72.76,95.41,65.36,90Z"/><path class="cls-29" d="M80.49,31.94S60.29,26.45,53.7,42c-7,16.43-5.44,24.9-5,28.73,0,0,1.6-9.46,3.73-12.39A69.92,69.92,0,0,0,63.68,45.86c9.64-14.19,19.33-12,22.62-7.48C91.62,45.7,94,55.91,96.63,67.84c0,0-.14-11.44-2.4-19.1C91.69,40.15,88,33.47,80.49,31.94Z"/><path class="cls-50" d="M58.16,56.48c-1.74.15-5.45.78-5.41,4.07.06,4.15,4.38,5.14,6.31,5.15a16.17,16.17,0,0,0,5.61-1.14c1.07-.33,1.65-.44,2.19-.56C66.72,60.81,65.39,56.48,58.16,56.48Z"/><path class="cls-51" d="M62.45,59a5.1,5.1,0,0,1,1.64,3,3.21,3.21,0,0,1-1.28,2.8,24.65,24.65,0,0,1,3.73-1.07A12.46,12.46,0,0,0,62.45,59Z"/><path class="cls-52" d="M62.66,59.47A3.53,3.53,0,0,1,64,61.66a12.73,12.73,0,0,1,2.52,2.09S65,60.6,62.66,59.47Z"/><path class="cls-53" d="M59.47,58.34c-1.78.16-3.95,1.07-6.55,3.23a7.37,7.37,0,0,0,5.7,3.67,3.48,3.48,0,0,1-1.76-2.85A4,4,0,0,1,59.47,58.34Z"/><path class="cls-54" d="M64,61.57a8.11,8.11,0,0,0-7.27-1,3.79,3.79,0,0,0-.37,1.9,3.36,3.36,0,0,0,1.85,2.76,12.86,12.86,0,0,0,4.57-.41A3.06,3.06,0,0,0,64.09,62,3.25,3.25,0,0,0,64,61.57Z"/><path class="cls-52" d="M53.6,61.68l.5.92a10.74,10.74,0,0,1,2.45-1.42,3.6,3.6,0,0,1,1.7-2A7.74,7.74,0,0,0,53.6,61.68Z"/><path class="cls-55" d="M62.66,59.47a4,4,0,0,0-1-.35,9.26,9.26,0,0,0-3.4,0,3.49,3.49,0,0,0-1.72,2,8.21,8.21,0,0,1,3.93-.68,8.45,8.45,0,0,1,3.59,1.15A3.48,3.48,0,0,0,62.66,59.47Z"/><path class="cls-56" d="M60,59.38a2.47,2.47,0,1,0,2.72,2.27A2.51,2.51,0,0,0,60,59.38Z"/><path class="cls-57" d="M60.8,60.81a.66.66,0,0,0-.89.31.69.69,0,0,0,.29.92.65.65,0,0,0,.89-.32A.67.67,0,0,0,60.8,60.81Z"/><path class="cls-57" d="M63,61.73a.9.9,0,1,0,.41,1.21A.89.89,0,0,0,63,61.73Z"/><path class="cls-58" d="M55.57,58.48a5,5,0,0,1-4.28.13c0,.09-.3,2.64,1.55,3.28,0,0,0,.13.07.27a1.26,1.26,0,0,0-1.23.61s.76-.41,2.43.8a8.77,8.77,0,0,0,4.61,1.72c-2.45-1-3.64-1.52-4.91-3.5a9.41,9.41,0,0,1,6.73-2.21c3.41.18,6,4.17,6,4.17C65.43,59.42,62,55.89,55.57,58.48Z"/><path class="cls-59" d="M62,56.86a10,10,0,0,0-6.5.18s3.8-.71,6.36.27a10.39,10.39,0,0,1,3.6,2A7,7,0,0,0,62,56.86Z"/><path class="cls-60" d="M61,59.22c-5.55-.56-7.2,2.57-7.2,2.57a10,10,0,0,1,7-2.19c3.14.3,5.71,4.15,5.71,4.15S65.14,59.64,61,59.22Z"/><path class="cls-61" d="M86.36,56.23c-7.23,0-8.55,4.33-8.7,7.52.54.12,1.12.23,2.19.56a16.17,16.17,0,0,0,5.61,1.14c1.93,0,6.25-1,6.31-5.15C91.82,57,88.1,56.38,86.36,56.23Z"/><path class="cls-62" d="M78,63.5a24.65,24.65,0,0,1,3.73,1.07,3.23,3.23,0,0,1-1.28-2.8,5,5,0,0,1,1.64-3A12.39,12.39,0,0,0,78,63.5Z"/><path class="cls-52" d="M78,63.5a12.73,12.73,0,0,1,2.52-2.09,3.53,3.53,0,0,1,1.36-2.19C79.52,60.35,78,63.5,78,63.5Z"/><path class="cls-63" d="M87.66,62.14A3.46,3.46,0,0,1,85.9,65a7.37,7.37,0,0,0,5.7-3.67c-2.6-2.16-4.77-3.07-6.55-3.23A4,4,0,0,1,87.66,62.14Z"/><path class="cls-64" d="M80.49,61.32a3.25,3.25,0,0,0-.06.45,3.08,3.08,0,0,0,1.28,2.8,12.86,12.86,0,0,0,4.57.41,3.36,3.36,0,0,0,1.85-2.76,3.79,3.79,0,0,0-.37-1.9A8.11,8.11,0,0,0,80.49,61.32Z"/><path class="cls-52" d="M86.27,58.89a3.6,3.6,0,0,1,1.7,2,10.74,10.74,0,0,1,2.45,1.42l.5-.92A7.71,7.71,0,0,0,86.27,58.89Z"/><path class="cls-65" d="M86.27,58.89a9.26,9.26,0,0,0-3.4,0,4,4,0,0,0-1,.35,3.48,3.48,0,0,0-1.39,2.19,8.45,8.45,0,0,1,3.59-1.15,8.21,8.21,0,0,1,3.93.68A3.49,3.49,0,0,0,86.27,58.89Z"/><path class="cls-66" d="M84.5,59.12a2.46,2.46,0,1,0,2.36,2.65A2.49,2.49,0,0,0,84.5,59.12Z"/><path class="cls-57" d="M84.81,60.5a.69.69,0,0,0-.93.26.67.67,0,0,0,.22.92.7.7,0,0,0,.93-.26A.65.65,0,0,0,84.81,60.5Z"/><path class="cls-57" d="M87,61.47a.9.9,0,1,0-.9,1.56.9.9,0,0,0,1.24-.31A.92.92,0,0,0,87,61.47Z"/><path class="cls-67" d="M93.24,58.36A5.08,5.08,0,0,1,89,58.23c-6.43-2.59-9.86.94-11,5.27,0,0,2.59-4,6-4.17a9.45,9.45,0,0,1,6.74,2.21c-1.28,2-2.47,2.55-4.92,3.5a8.77,8.77,0,0,0,4.61-1.72c1.67-1.21,2.43-.79,2.43-.8a1.26,1.26,0,0,0-1.23-.61c0-.14.06-.23.07-.27C93.53,61,93.22,58.45,93.24,58.36Z"/><path class="cls-59" d="M82.56,56.61a7,7,0,0,0-3.46,2.5,10.39,10.39,0,0,1,3.6-2c2.56-1,6.36-.27,6.36-.27A10,10,0,0,0,82.56,56.61Z"/><path class="cls-60" d="M83.52,59C79.38,59.39,78,63.5,78,63.5s2.57-3.85,5.71-4.15a10,10,0,0,1,7,2.19S89.06,58.41,83.52,59Z"/><path class="cls-5" d="M92.88,53.8c-4.28-2.68-7.69-1.71-7.69-1.71,9.87.74,8,10,8,10S95.37,55.36,92.88,53.8Z"/><path class="cls-68" d="M81.06,52.56c-1.73.82-3,3.1-1.47,2.6s7.06-2.61,8.28-2.64a13.34,13.34,0,0,1,5.4,1.4S89.9,51.3,87.82,51.1,82,52.12,81.06,52.56Z"/><path class="cls-69" d="M63.87,52.57c-.95-.39-5.06-1.63-7.12-1.32s-5.31,3.14-5.31,3.14a13,13,0,0,1,5.34-1.71c1.21,0,6.87,1.85,8.39,2.27S65.65,53.3,63.87,52.57Z"/><path class="cls-70" d="M96.52,65.8l.45-4s-1.2-8.54-1.89-10C95.08,51.8,95.9,63.1,96.52,65.8Z"/><path class="cls-71" d="M48.27,64.3c.8-3.19,1-10.08,1-10.08l-1.13,6.06Z"/><path class="cls-72" d="M38.06,41.3c-2.27,4.59-7.49,19.2-4.62,34.89,9.9-11.6,13.38-21.36,20.2-25.17,9.25-5.18,14.63-25.76,25.23-18,4.69-3.51,3.68-7.33,3.19-9.88C73.27,15.22,50.31,16.57,38.06,41.3Z"/><path class="cls-73" d="M33.83,66.08a.18.18,0,0,0,0,.06Z"/><path class="cls-74" d="M72.26,24.77C65,23.9,56.35,29,49.69,36,36,50.7,34.56,60.45,33.83,66.08,34.21,65,43.33,52.28,55,40.33,61,34.09,67,29,72.28,28.15a11.36,11.36,0,0,1,9,2.29s-.76-1-2-2.28A11.13,11.13,0,0,0,72.26,24.77Z"/><path class="cls-75" d="M96.82,33.33c-3.39-3.28-7.74-5.31-11-4.95s-4.36,1.93-4.49,2.05a6.38,6.38,0,0,1,4.48-.92c2.9.23,6.42,2.45,9.7,5.64A75.34,75.34,0,0,1,105.89,48,35.61,35.61,0,0,0,96.82,33.33Z"/><path class="cls-76" d="M98.4,28.71c-8.55-7-16.69-6-16.69-6a18.51,18.51,0,0,0-13-4.13c-32.4,1.54-35.66,40.86-35.66,40.86,4.22-25.25,17.26-34.83,27.39-37.65A30.3,30.3,0,0,1,81.67,23.5C85.1,23,93.39,26.1,98,30.62,106.21,38.75,108.48,53,108.48,53,108.16,43.08,104.43,33.66,98.4,28.71Z"/><path class="cls-77" d="M78.86,33s3.85-1.35,8.56,2.48C113.68,65.29,99.71,97,97.54,103.81a55,55,0,0,0,6.77,2c14.54-40.28-6.41-64-10.3-68.93S83.28,27.28,78.86,33Z"/><path class="cls-78" d="M75.29,30.73c-8.81-2.21-15.18,10.23-19,14.49C44.33,58.44,17.61,77.08,43,105.93,26.63,78,46.21,65.59,59.33,47.49c3.42-4.72,5.33-7.76,8.19-10.85s4.41-4.26,7-4.45a8.59,8.59,0,0,1,4.34.85A7,7,0,0,0,75.29,30.73Z"/><path class="cls-79" d="M93.2,62.09c5.18,7.35-.19,15.48-4.36,19.23-4.59,4.13-6.48,6.48-7.22,7.18.66-.58,6.78-5.93,8.53-7.17S98,74,96.44,66.29C96.44,66.29,95.44,63.1,93.2,62.09Z"/><path class="cls-80" d="M72.4,75.51c.83-.11,4.26-2.36,4.26-2.36h-8.8S71.57,75.62,72.4,75.51Z"/><path class="cls-81" d="M72.27,69.47c-2.33.06-3,.65-2.82,1.28.42,1.51,1.41,1.8,2.87,1.79s2.73-.34,3-2C75.36,70.08,74.61,69.4,72.27,69.47Z"/><path class="cls-82" d="M73.84,73.54s4.3.07,2.91-1.35C76.28,71.72,73.84,73.54,73.84,73.54Z"/><path class="cls-83" d="M67.88,72.38C66.44,73.6,71,73.54,71,73.54S68.38,72,67.88,72.38Z"/><path class="cls-29" d="M72.31,73c-4.35-.06-4.84-2.18-5.43-.82-.24.56.22.72,1,1,0,0-.25-.62.73-.56.7,0,1.27,1.55,3.78,1.47,2.68-.07,3-1.42,3.73-1.46a.49.49,0,0,1,.56.56s1.28-.66.79-1.25C76.58,70.83,76.31,73,72.31,73Z"/><path class="cls-84" d="M97.83,103.44c-.18.07-1,.31-1.46.55,4.34,3.07,6.86,7.74,6,11.15-.54,2.18-3.06,6-4.61,10.58,5.4-3.55,12.62-5.29,18.71-3.87.51-4.76.28-8.72-1.34-12.38C114.28,107.47,103.32,104.61,97.83,103.44Z"/><path class="cls-85" d="M107.12,120.33a24.32,24.32,0,0,0-12.38,6l-.34,2.83s4-5.4,12.72-6.91c7.46-1.29,11.44.29,11.44.29l.26-2.12A33.88,33.88,0,0,0,107.12,120.33Z"/></svg>