<svg xmlns="http://www.w3.org/2000/svg" viewBox="0 0 505 432"><defs><style>.cls-1{fill:none;stroke:#231f20;stroke-miterlimit:10;}.cls-2{font-size:12px;fill:#231f20;font-family:MyriadPro-Regular, Myriad Pro;}</style></defs><g id="Layer_1" data-name="Layer 1"><path class="cls-1" d="M504,144.3" transform="translate(0.5 0)"/><line class="cls-1" x1="504.5" y1="215.53" x2="0.5" y2="215.82"/><line class="cls-1" x1="504.5" y1="360" x2="0.5" y2="360"/><line class="cls-1" x1="0.5" y1="288" x2="504.5" y2="288"/><line class="cls-1" x1="0.5" y1="144" x2="504.5" y2="144.3"/><line class="cls-1" x1="72.5" y1="432" x2="72.5" y2="72"/><line class="cls-1" x1="144.5" y1="432" x2="144.5" y2="72"/><line class="cls-1" x1="216.5" y1="432" x2="216.5" y2="72"/><line class="cls-1" x1="288.5" y1="432" x2="288.5" y2="72"/><line class="cls-1" x1="360.5" y1="432" x2="360.5" y2="72"/><line class="cls-1" x1="432.5" y1="432" x2="432.5" y2="72"/><polyline class="cls-1" points="504.5 432 504.5 71.89 0.5 71.89 0.5 432"/><text x="0.5"/></g><g id="Layer_2" data-name="Layer 2"><text class="cls-2" transform="translate(63.6 83.52)">1</text><text class="cls-2" transform="translate(135.6 83.52)">2</text><text class="cls-2" transform="translate(207.6 83.52)">3</text><text class="cls-2" transform="translate(278.6 83.52)">4</text><text class="cls-2" transform="translate(350.6 83.52)">5</text><text class="cls-2" transform="translate(422.6 83.52)">6</text><text class="cls-2" transform="translate(494.6 83.52)">7</text><text class="cls-2" transform="translate(63.6 156.52)">8</text><text class="cls-2" transform="translate(135.6 156.52)">9</text><text class="cls-2" transform="translate(201.84 156.52)">10</text><text class="cls-2" transform="translate(274.93 156.52)">11</text><text class="cls-2" transform="translate(346.11 156.52)">13</text><text class="cls-2" transform="translate(418.78 156.52)">14</text><text class="cls-2" transform="translate(490.79 156.52)">15</text><text class="cls-2" transform="translate(58.09 226.52)">16</text><text class="cls-2" transform="translate(130.59 226.52)">17</text><text class="cls-2" transform="translate(201.84 226.52)">18</text><text class="cls-2" transform="translate(273.99 226.52)">19</text><text class="cls-2" transform="translate(346.17 226.52)">20</text><text class="cls-2" transform="translate(416.58 226.52)">21</text><text class="cls-2" transform="translate(489.73 226.52)">22</text><text class="cls-2" transform="translate(57.44 299.52)">23</text><text class="cls-2" transform="translate(129.14 299.52)">24</text><text class="cls-2" transform="translate(201.97 299.52)">25</text><text class="cls-2" transform="translate(272.86 299.52)">26</text><text class="cls-2" transform="translate(345.38 299.52)">27</text><text class="cls-2" transform="translate(417.78 299.52)">28</text><text class="cls-2" transform="translate(489.5 299.52)">29</text><text class="cls-2" transform="translate(57.44 372.52)">30</text><text class="cls-2" transform="translate(129.14 372.52)">31</text></g></svg>