<svg viewBox="0 0 210.43 294.42" xmlns="http://www.w3.org/2000/svg"><path d="m160.21 132.01v-43.49h-17.91v26.38" fill="none" stroke="#231f20" stroke-miterlimit="10" stroke-width="5"/><path d="m22.14 154.96 80.11-80.12 37.35 37.35 42.76 42.77v125.05h-160.22v-125.05l80.11-80.12" fill="none" stroke="#231f20" stroke-miterlimit="10" stroke-width="6"/><path d="m141.27 74.38c-1.82-2.07-2.77-5.28-1.48-7.87.63-1.29 1.92-2.18 2.92-3.16a11.67 11.67 0 0 0 3.17-4.81c1.13-3.77-1-6.73-2.83-9.81-2.11-3.52-2-7.42-1.93-11.39.07-3.37.27-8.25 4.1-9.56a3.54 3.54 0 0 0 2.18-2.7c.15-.81-.19-2.19-1.33-1.8-4.17 1.42-6.73 5.28-7.82 9.39a30.82 30.82 0 0 0 -.75 7.33 40.56 40.56 0 0 0 .32 6.88 16.13 16.13 0 0 0 2.33 5.92c.93 1.53 2.27 3.18 2.47 5 .14 1.4-1.13 2.25-2.05 3.11a15.69 15.69 0 0 0 -3.75 4.81c-1.86 4-1.62 9 1.35 12.38 1.5 1.7 4.37-2.33 3.1-3.77z"/><path d="m160.63 71.23c3.65-3.23 5.44-8.85 3.3-13.42-.45-1-1.52-2.1-1.44-3.22 0 0 .18-.45.07-.22a4.24 4.24 0 0 1 .91-1c1.68-1.51 3.69-2.59 5.34-4.12 7.45-6.87 9.78-18.08 6.29-27.49a32.91 32.91 0 0 0 -10-13.76c-1.48-1.23-4.12 3-2.5 4.33 6.8 5.67 11.8 14.67 10.25 23.67a17.22 17.22 0 0 1 -5.56 10.25c-3.21 2.75-7.71 4.75-8.29 9.48a6.32 6.32 0 0 0 .78 3.87 10.54 10.54 0 0 1 1.44 3.34 5.2 5.2 0 0 1 -1.52 4.81c-.81.72-1.62 2.12-1.24 3.23s1.51.89 2.22.25z"/><g fill="#010101"><circle cx="143.68" cy="189.24" r="8.79"/><circle cx="74.07" cy="189.24" r="8.79"/><path d="m161.91 209.14a10.53 10.53 0 0 0 -10.51-9.95h-15.4a16.62 16.62 0 0 1 -7.54-1.81l-16.55-8.45a6.63 6.63 0 0 0 -6.07 0l-16.55 8.45a16.55 16.55 0 0 1 -7.53 1.81h-15.4a10.52 10.52 0 0 0 -10.51 9.95l-.85 15.05a2.9 2.9 0 0 0 2.3 3.05 2.8 2.8 0 0 0 3.26-2.47l1.31-12.7a.66.66 0 0 1 1.31 0l3 44.67a2.73 2.73 0 0 0 2.82 2.57h10.2a2.71 2.71 0 0 0 2.71-2.54l3.18-46.42a4.15 4.15 0 0 1 2-3.3l20.91-12.24a1.82 1.82 0 0 1 1.86 0l20.84 12.24a4.13 4.13 0 0 1 2 3.3l3.17 46.42a2.73 2.73 0 0 0 2.72 2.54h10.2a2.71 2.71 0 0 0 2.71-2.54l3.05-44.67a.66.66 0 0 1 1.31 0l1.29 12.6a2.88 2.88 0 0 0 2.22 2.55 2.8 2.8 0 0 0 3.36-2.89z"/></g></svg>