<svg id="Layer_3" data-name="Layer 3" xmlns="http://www.w3.org/2000/svg" viewBox="0 0 213.3 162.73"><defs><style>.cls-1{stroke:#fff;stroke-miterlimit:10;}</style></defs><path d="M36.16,63.49a29.87,29.87,0,0,1,9.33-1.39c4.57-.2,116.38-.2,119.16,0a34.64,34.64,0,0,1,6.55,1.39v4.36c-3.18,2-4.37,2.19-6.75,2.19H45.1a31.61,31.61,0,0,1-8.94-2Z"/><path d="M36.16,74.49a29.87,29.87,0,0,1,9.33-1.39c4.57-.2,116.38-.2,119.16,0a34.64,34.64,0,0,1,6.55,1.39v4.36c-3.18,2-4.37,2.19-6.75,2.19H45.1a31.61,31.61,0,0,1-8.94-2Z"/><path d="M36.16,86.49a29.87,29.87,0,0,1,9.33-1.39c4.57-.2,116.38-.2,119.16,0a34.64,34.64,0,0,1,6.55,1.39v4.36c-3.18,2-4.37,2.19-6.75,2.19H45.1a31.61,31.61,0,0,1-8.94-2Z"/><path d="M36.16,98.49a29.87,29.87,0,0,1,9.33-1.39c4.57-.2,116.38-.2,119.16,0a34.64,34.64,0,0,1,6.55,1.39v4.36c-3.18,2-4.37,2.19-6.75,2.19H45.1a31.61,31.61,0,0,1-8.94-2Z"/><path d="M48.28,103s-.4,30.21,0,31.81.2,1.6,1.8,1.6a21.6,21.6,0,0,0,3.6,0c1.4-.2,2-.4,2.2-1.4s0-27.2,0-27.2Z"/><path d="M151.28,103s-.4,30.21,0,31.81.2,1.6,1.8,1.6a21.6,21.6,0,0,0,3.6,0c1.4-.2,2-.4,2.2-1.4s.09-32.53.09-32.53Z"/><ellipse class="cls-1" cx="152.73" cy="92.68" rx="12.51" ry="10.53"/><path class="cls-1" d="M45.1,93.27c3-2.58,6.75-5.16,9.92-5.56a26.56,26.56,0,0,0,11.32-5.16c2.39-2.18,2-3.38,7.15-4s23.83.4,30-2.58a38.41,38.41,0,0,1,22.64-4c9.33,1.19,13.7,4.36,15.89,7.54s0,10.92,0,13.7,1.34,9.74,1,13.31-4.35,8.74-8.72,9.33-17.08-.19-23.23-2.78-9.14-6.95-13.9-6.15-8.15,0-14.3,1.39S71.71,110.15,66.34,111s-14.49-.6-17.87-2-6.55-1.78-6.75-4.56S45.1,93.27,45.1,93.27Z"/></svg>