<svg id="Layer_1" data-name="Layer 1" xmlns="http://www.w3.org/2000/svg" xmlns:xlink="http://www.w3.org/1999/xlink" viewBox="0 0 144 144"><defs><style>.cls-1{fill:#f6ece6;}.cls-2{fill:#cd8845;}.cls-3{fill:#78c3e5;}.cls-4{fill:url(#linear-gradient);}.cls-5{fill:url(#linear-gradient-2);}.cls-6{fill:url(#linear-gradient-3);}.cls-7{fill:url(#linear-gradient-4);}.cls-8{fill:url(#linear-gradient-5);}.cls-9{fill:url(#radial-gradient);}.cls-10{fill:url(#linear-gradient-6);}.cls-11{fill:url(#linear-gradient-7);}.cls-12{fill:url(#radial-gradient-2);}.cls-13{fill:url(#linear-gradient-8);}.cls-14{fill:url(#linear-gradient-9);}.cls-15{fill:url(#linear-gradient-10);}.cls-16{fill:url(#linear-gradient-11);}.cls-17{fill:url(#linear-gradient-12);}.cls-18{fill:url(#linear-gradient-13);}.cls-19{fill:url(#linear-gradient-14);}.cls-20{fill:url(#linear-gradient-15);}.cls-21{fill:url(#linear-gradient-16);}.cls-22{fill:url(#linear-gradient-17);}.cls-23{fill:#dededd;}.cls-24{fill:url(#linear-gradient-18);}.cls-25{fill:url(#linear-gradient-19);}.cls-26{fill:url(#radial-gradient-3);}.cls-27{fill:#fff;}.cls-28{fill:url(#linear-gradient-20);}.cls-29{fill:url(#linear-gradient-21);}.cls-30{fill:url(#linear-gradient-22);}.cls-31{fill:url(#linear-gradient-23);}.cls-32{fill:url(#radial-gradient-4);}.cls-33{fill:url(#linear-gradient-24);}.cls-34{fill:url(#linear-gradient-25);}.cls-35{fill:url(#linear-gradient-26);}.cls-36{fill:url(#linear-gradient-27);}.cls-37{fill:url(#linear-gradient-28);}.cls-38{fill:url(#linear-gradient-29);}.cls-39{fill:url(#linear-gradient-30);}.cls-40{fill:url(#linear-gradient-31);}.cls-41{fill:#972a2e;}.cls-42{fill:url(#linear-gradient-32);}.cls-43{fill:url(#linear-gradient-33);}.cls-44{fill:url(#linear-gradient-34);}.cls-45{fill:url(#linear-gradient-35);}.cls-46{fill:#f2eceb;}.cls-47{fill:url(#linear-gradient-36);}.cls-48{fill:url(#linear-gradient-37);}.cls-49{fill:url(#linear-gradient-38);}.cls-50{fill:url(#linear-gradient-39);}.cls-51{fill:url(#linear-gradient-40);}.cls-52{fill:url(#linear-gradient-41);}.cls-53{fill:url(#linear-gradient-42);}.cls-54{fill:url(#linear-gradient-43);}.cls-55{fill:url(#linear-gradient-44);}.cls-56{fill:url(#linear-gradient-45);}.cls-57{fill:url(#linear-gradient-46);}.cls-58{fill:url(#linear-gradient-47);}.cls-59{fill:url(#linear-gradient-48);}.cls-60{fill:url(#linear-gradient-49);}.cls-61{fill:url(#linear-gradient-50);}.cls-62{fill:url(#linear-gradient-51);}.cls-63{fill:url(#linear-gradient-52);}.cls-64{fill:url(#linear-gradient-53);}.cls-65{fill:url(#linear-gradient-54);}.cls-66{fill:url(#linear-gradient-55);}.cls-67{fill:url(#linear-gradient-56);}.cls-68{fill:url(#linear-gradient-57);}.cls-69{fill:url(#linear-gradient-58);}.cls-70{fill:url(#linear-gradient-59);}.cls-71{fill:url(#linear-gradient-60);}.cls-72{fill:url(#linear-gradient-61);}.cls-73{fill:url(#linear-gradient-62);}.cls-74{fill:url(#linear-gradient-63);}.cls-75{fill:url(#linear-gradient-64);}.cls-76{fill:url(#linear-gradient-65);}.cls-77{fill:url(#linear-gradient-66);}.cls-78{fill:url(#linear-gradient-67);}.cls-79{fill:url(#linear-gradient-68);}.cls-80{fill:url(#linear-gradient-69);}.cls-81{fill:url(#linear-gradient-70);}.cls-82{fill:url(#linear-gradient-71);}.cls-83{fill:url(#linear-gradient-72);}.cls-84{fill:url(#linear-gradient-73);}.cls-85{fill:url(#linear-gradient-74);}</style><linearGradient id="linear-gradient" x1="83.17" y1="110.78" x2="42.42" y2="104.51" gradientUnits="userSpaceOnUse"><stop offset="0" stop-color="#cd8845"/><stop offset="1" stop-color="#b45f38"/></linearGradient><linearGradient id="linear-gradient-2" x1="102.35" y1="98.48" x2="30.45" y2="95.05" xlink:href="#linear-gradient"/><linearGradient id="linear-gradient-3" x1="73.38" y1="121.55" x2="73.1" y2="92.11" gradientUnits="userSpaceOnUse"><stop offset="0" stop-color="#78c3e5"/><stop offset="0.29" stop-color="#6ebfe0"/><stop offset="1" stop-color="#5ab6d6"/></linearGradient><linearGradient id="linear-gradient-4" x1="20.31" y1="140.7" x2="18.02" y2="116.29" gradientUnits="userSpaceOnUse"><stop offset="0" stop-color="#cd8845"/><stop offset="1" stop-color="#d59148"/></linearGradient><linearGradient id="linear-gradient-5" x1="100.55" y1="67.66" x2="99.17" y2="56.26" xlink:href="#linear-gradient"/><radialGradient id="radial-gradient" cx="-2735.47" cy="203.81" r="27.16" gradientTransform="matrix(-0.41, 0.02, 0.02, 0.41, 316.81, 6.65)" gradientUnits="userSpaceOnUse"><stop offset="0" stop-color="#d78144"/><stop offset="1" stop-color="#cd8845"/></radialGradient><linearGradient id="linear-gradient-6" x1="72.7" y1="89.82" x2="72.7" y2="94.33" xlink:href="#linear-gradient-4"/><linearGradient id="linear-gradient-7" x1="72.4" y1="73" x2="71.95" y2="62.93" xlink:href="#linear-gradient"/><radialGradient id="radial-gradient-2" cx="-5.93" cy="253.13" r="27.37" gradientTransform="matrix(0.41, -0.04, 0.04, 0.41, 50.05, 26.17)" xlink:href="#radial-gradient"/><linearGradient id="linear-gradient-8" x1="75.83" y1="79.58" x2="76.71" y2="71.05" xlink:href="#linear-gradient"/><linearGradient id="linear-gradient-9" x1="88.89" y1="61.88" x2="69.59" y2="38.82" gradientUnits="userSpaceOnUse"><stop offset="0" stop-color="#cd8845"/><stop offset="0.3" stop-color="#ca8343"/><stop offset="0.66" stop-color="#c1743f"/><stop offset="1" stop-color="#b45f38"/></linearGradient><linearGradient id="linear-gradient-10" x1="49.41" y1="63.49" x2="77.85" y2="42.16" xlink:href="#linear-gradient-9"/><linearGradient id="linear-gradient-11" x1="67.08" y1="78.67" x2="67.96" y2="70.15" xlink:href="#linear-gradient"/><linearGradient id="linear-gradient-12" x1="71.99" y1="63.59" x2="72.39" y2="75.51" xlink:href="#linear-gradient"/><linearGradient id="linear-gradient-13" x1="72.98" y1="68.56" x2="67.34" y2="20.54" xlink:href="#linear-gradient"/><linearGradient id="linear-gradient-14" x1="88.12" y1="63.8" x2="97.52" y2="61.35" xlink:href="#linear-gradient-4"/><linearGradient id="linear-gradient-15" x1="56.38" y1="64.66" x2="44.92" y2="61.86" xlink:href="#linear-gradient-4"/><linearGradient id="linear-gradient-16" x1="49.29" y1="62.98" x2="65.17" y2="53.58" xlink:href="#linear-gradient"/><linearGradient id="linear-gradient-17" x1="65.34" y1="58.89" x2="55.31" y2="56.47" gradientUnits="userSpaceOnUse"><stop offset="0" stop-color="#fff"/><stop offset="0.46" stop-color="#fdfcfc"/><stop offset="0.76" stop-color="#f6f4f4"/><stop offset="1" stop-color="#ece7e6"/></linearGradient><linearGradient id="linear-gradient-18" x1="63.36" y1="57.62" x2="53.17" y2="58.03" gradientUnits="userSpaceOnUse"><stop offset="0" stop-color="#a97350"/><stop offset="1" stop-color="#643827"/></linearGradient><linearGradient id="linear-gradient-19" x1="63.62" y1="57.31" x2="57.02" y2="56.1" gradientUnits="userSpaceOnUse"><stop offset="0" stop-color="#936545"/><stop offset="1" stop-color="#593528"/></linearGradient><radialGradient id="radial-gradient-3" cx="-3215.83" cy="181" r="15.58" gradientTransform="translate(52.09 18.36) scale(0.41 0.41)" gradientUnits="userSpaceOnUse"><stop offset="0" stop-color="#2c3c3c"/><stop offset="1" stop-color="#1d2827"/></radialGradient><linearGradient id="linear-gradient-20" x1="96.26" y1="57.3" x2="76.19" y2="56.65" xlink:href="#linear-gradient"/><linearGradient id="linear-gradient-21" x1="-1128.37" y1="-235.05" x2="-1137.95" y2="-237.36" xlink:href="#linear-gradient-17"/><linearGradient id="linear-gradient-22" x1="88.19" y1="61.95" x2="77.2" y2="53.63" xlink:href="#linear-gradient-18"/><linearGradient id="linear-gradient-23" x1="87.25" y1="59.87" x2="80.4" y2="55.38" xlink:href="#linear-gradient-19"/><radialGradient id="radial-gradient-4" cx="143.09" cy="-0.65" r="16.27" xlink:href="#radial-gradient-3"/><linearGradient id="linear-gradient-24" x1="77.51" y1="56.73" x2="89.38" y2="56.16" gradientUnits="userSpaceOnUse"><stop offset="0" stop-color="#211412"/><stop offset="0.06" stop-color="#261614"/><stop offset="0.33" stop-color="#371e19"/><stop offset="0.63" stop-color="#41231d"/><stop offset="1" stop-color="#44241e"/></linearGradient><linearGradient id="linear-gradient-25" x1="65.59" y1="275.08" x2="69.15" y2="237.9" xlink:href="#linear-gradient"/><linearGradient id="linear-gradient-26" x1="66.83" y1="58.63" x2="52.52" y2="54.7" xlink:href="#linear-gradient-24"/><linearGradient id="linear-gradient-27" x1="54.08" y1="87.93" x2="56.53" y2="62.36" xlink:href="#linear-gradient"/><linearGradient id="linear-gradient-28" x1="83.32" y1="79.46" x2="83.89" y2="79.38" xlink:href="#linear-gradient"/><linearGradient id="linear-gradient-29" x1="83.36" y1="74.7" x2="89.66" y2="73.84" xlink:href="#linear-gradient"/><linearGradient id="linear-gradient-30" x1="61.45" y1="75.43" x2="54.58" y2="74.28" xlink:href="#linear-gradient"/><linearGradient id="linear-gradient-31" x1="72.77" y1="81.14" x2="72.63" y2="88.01" xlink:href="#linear-gradient"/><linearGradient id="linear-gradient-32" x1="68.09" y1="82.72" x2="76.35" y2="82.72" xlink:href="#linear-gradient-4"/><linearGradient id="linear-gradient-33" x1="62.74" y1="79.25" x2="82.39" y2="79.58" gradientUnits="userSpaceOnUse"><stop offset="0" stop-color="#e8d9d7"/><stop offset="0.14" stop-color="#f0e6e4"/><stop offset="0.39" stop-color="#fbf8f8"/><stop offset="0.57" stop-color="#fff"/><stop offset="1" stop-color="#e8d3d1"/></linearGradient><linearGradient id="linear-gradient-34" x1="72.56" y1="81.14" x2="72.41" y2="88.01" xlink:href="#linear-gradient"/><linearGradient id="linear-gradient-35" x1="71.85" y1="71.81" x2="72.17" y2="79.16" gradientUnits="userSpaceOnUse"><stop offset="0" stop-color="#e8d9d7"/><stop offset="0.4" stop-color="#efe5e4"/><stop offset="1" stop-color="#fff"/></linearGradient><linearGradient id="linear-gradient-36" x1="72.65" y1="100.97" x2="72.13" y2="69.42" xlink:href="#linear-gradient"/><linearGradient id="linear-gradient-37" x1="44.52" y1="73.34" x2="43.15" y2="61.93" xlink:href="#linear-gradient"/><linearGradient id="linear-gradient-38" x1="71.97" y1="84.56" x2="71.84" y2="96.59" xlink:href="#linear-gradient"/><linearGradient id="linear-gradient-39" x1="84.7" y1="94.05" x2="97.99" y2="66.7" xlink:href="#linear-gradient-4"/><linearGradient id="linear-gradient-40" x1="56.8" y1="92.85" x2="44.5" y2="60.19" xlink:href="#linear-gradient"/><linearGradient id="linear-gradient-41" x1="51.78" y1="49.93" x2="66.33" y2="49.93" gradientUnits="userSpaceOnUse"><stop offset="0" stop-color="#44241e"/><stop offset="0.37" stop-color="#41231d"/><stop offset="0.67" stop-color="#371e19"/><stop offset="0.94" stop-color="#261614"/><stop offset="1" stop-color="#211412"/></linearGradient><linearGradient id="linear-gradient-42" x1="-1267.65" y1="49.7" x2="-1253.07" y2="49.7" xlink:href="#linear-gradient-41"/><linearGradient id="linear-gradient-43" x1="69.42" y1="18.77" x2="72.04" y2="64.99" xlink:href="#linear-gradient-41"/><linearGradient id="linear-gradient-44" x1="70.73" y1="60.6" x2="72.5" y2="68.52" xlink:href="#linear-gradient-4"/><linearGradient id="linear-gradient-45" x1="71.62" y1="29.29" x2="69.21" y2="19.13" gradientUnits="userSpaceOnUse"><stop offset="0" stop-color="#40231b"/><stop offset="0.42" stop-color="#45261e"/><stop offset="0.89" stop-color="#522e27"/><stop offset="1" stop-color="#56312a"/></linearGradient><linearGradient id="linear-gradient-46" x1="80" y1="143.63" x2="80.02" y2="143.46" gradientUnits="userSpaceOnUse"><stop offset="0" stop-color="#78c3e5"/><stop offset="0.31" stop-color="#83c9e8"/><stop offset="1" stop-color="#97d4ef"/></linearGradient><linearGradient id="linear-gradient-47" x1="82.43" y1="143.32" x2="82.45" y2="143.15" xlink:href="#linear-gradient-46"/><linearGradient id="linear-gradient-48" x1="87.56" y1="142.42" x2="87.58" y2="142.16" xlink:href="#linear-gradient-46"/><linearGradient id="linear-gradient-49" x1="85.18" y1="142.87" x2="85.2" y2="142.68" xlink:href="#linear-gradient-46"/><linearGradient id="linear-gradient-50" x1="69.37" y1="143.97" x2="69.37" y2="143.92" xlink:href="#linear-gradient-46"/><linearGradient id="linear-gradient-51" x1="90.18" y1="141.73" x2="90.19" y2="141.62" xlink:href="#linear-gradient-46"/><linearGradient id="linear-gradient-52" x1="66.97" y1="143.83" x2="66.97" y2="143.81" xlink:href="#linear-gradient-46"/><linearGradient id="linear-gradient-53" x1="74.69" y1="144" x2="74.7" y2="143.88" xlink:href="#linear-gradient-46"/><linearGradient id="linear-gradient-54" x1="77.22" y1="143.85" x2="77.22" y2="143.76" xlink:href="#linear-gradient-46"/><linearGradient id="linear-gradient-55" x1="97.43" y1="139.52" x2="97.46" y2="139.17" xlink:href="#linear-gradient-46"/><linearGradient id="linear-gradient-56" x1="108.67" y1="134.15" x2="108.72" y2="133.71" xlink:href="#linear-gradient-46"/><linearGradient id="linear-gradient-57" x1="104.25" y1="136.54" x2="104.28" y2="136.17" xlink:href="#linear-gradient-46"/><linearGradient id="linear-gradient-58" x1="106.6" y1="135.26" x2="106.63" y2="135" xlink:href="#linear-gradient-46"/><linearGradient id="linear-gradient-59" x1="110.85" y1="132.63" x2="110.85" y2="132.63" xlink:href="#linear-gradient-46"/><linearGradient id="linear-gradient-60" x1="102.11" y1="137.55" x2="102.15" y2="137.21" xlink:href="#linear-gradient-46"/><linearGradient id="linear-gradient-61" x1="94.97" y1="140.28" x2="94.98" y2="140.22" xlink:href="#linear-gradient-46"/><linearGradient id="linear-gradient-62" x1="92.57" y1="141.15" x2="92.6" y2="140.83" xlink:href="#linear-gradient-46"/><linearGradient id="linear-gradient-63" x1="99.66" y1="138.59" x2="99.69" y2="138.35" xlink:href="#linear-gradient-46"/><linearGradient id="linear-gradient-64" x1="64.23" y1="143.59" x2="64.24" y2="143.58" xlink:href="#linear-gradient-46"/><linearGradient id="linear-gradient-65" x1="42.92" y1="137.92" x2="42.93" y2="137.83" xlink:href="#linear-gradient-46"/><linearGradient id="linear-gradient-66" x1="56.85" y1="142.43" x2="56.86" y2="142.35" xlink:href="#linear-gradient-46"/><linearGradient id="linear-gradient-67" x1="38.52" y1="135.81" x2="38.53" y2="135.69" xlink:href="#linear-gradient-46"/><linearGradient id="linear-gradient-68" x1="54.55" y1="141.9" x2="54.55" y2="141.82" xlink:href="#linear-gradient-46"/><linearGradient id="linear-gradient-69" x1="49.74" y1="140.54" x2="49.76" y2="140.42" xlink:href="#linear-gradient-46"/><linearGradient id="linear-gradient-70" x1="45.11" y1="138.85" x2="45.12" y2="138.76" xlink:href="#linear-gradient-46"/><linearGradient id="linear-gradient-71" x1="52.08" y1="141.22" x2="52.08" y2="141.2" xlink:href="#linear-gradient-46"/><linearGradient id="linear-gradient-72" x1="61.85" y1="143.3" x2="61.86" y2="143.27" xlink:href="#linear-gradient-46"/><linearGradient id="linear-gradient-73" x1="59.38" y1="142.9" x2="59.38" y2="142.89" xlink:href="#linear-gradient-46"/><linearGradient id="linear-gradient-74" x1="71.19" y1="147.27" x2="74.74" y2="111.2" xlink:href="#linear-gradient-46"/></defs><circle class="cls-1" cx="72" cy="72" r="72" transform="translate(-29.82 72) rotate(-45)"/><path class="cls-2" d="M56.44,95.64c-1.74,2.39-10.65,5-10.65,5s14.13,15,28.9,15.21S98,98.9,98,98.9l-9.4-4.43C79,103.16,56.44,95.64,56.44,95.64Z" transform="translate(0 0)"/><path class="cls-3" d="M123.13,122.68c.17-2,.32-3.9.45-5.6.46-1.51.74-2.39.74-2.39a6.29,6.29,0,0,0-.54-.36c.22-3.12.34-5.11.34-5.11-3.8-2.76-29.45-12.16-29.45-12.16s-3.52,15.84-21.5,16.83-21-16-21-16c-31.59,12.68-31.68,12.8-31.68,12.8.34.68.87,6.33,1.55,13.16a72,72,0,0,0,101.09-1.16Z" transform="translate(0 0)"/><polygon class="cls-4" points="69.08 107.18 74.26 113.4 78.92 106.15 72.71 109.25 69.08 107.18"/><path class="cls-5" d="M88.58,88.14c-.24-4-.51-8.46-.59-9.17,0,0-11.56,8.34-31.8,1.31,0,0,0,6.67.1,12.23-.08,1.26-.16,1.85-.26,2.56-.21,1.52-6.11,3.83-6.11,3.83s2.39,15.65,22.17,16.95S97.82,98.44,97.82,98.44s-7-3-7.92-3.67C89.41,94.4,88.91,91.19,88.58,88.14ZM73.06,112.26c-14.61.49-18.36-11.4-18.36-11.4a24.91,24.91,0,0,1,2.61-1.74c.59-.3,1-1.38,1.18-2.54,5,4.58,10.73,7.32,14,7,3.65-.34,9.27-3,13.44-6.09l5,3.88C86.75,110.2,76.32,112.16,73.06,112.26Z" transform="translate(0 0)"/><path class="cls-6" d="M73.28,113.46c-17.4.75-21.11-15.58-21.11-15.58l-5,2s2.71,18.14,24,19.45,27.9-20.61,27.9-20.61l-4.45-1.66A22.65,22.65,0,0,1,73.28,113.46Z" transform="translate(0 0)"/><path class="cls-2" d="M15.89,117.11q2.1,2.61,4.43,5c-2-3.88-3.43-6.67-3.43-6.67A14,14,0,0,0,15.89,117.11Z" transform="translate(0 0)"/><path class="cls-7" d="M16.71,118.12q1.54,1.84,3.21,3.59C19.78,116.55,18.83,114.28,16.71,118.12Z" transform="translate(0 0)"/><path class="cls-3" d="M129.77,115a14.2,14.2,0,0,0-5.66-5.76c-2.22,2.71-4.68,9.22-6.22,15.6-.23.92-.44,2-.64,3.18A72.14,72.14,0,0,0,129.77,115Z" transform="translate(0 0)"/><path class="cls-2" d="M100.1,54.77c3.1.35,2.53,2.18,1.38,5.39-.8,8.44-3.4,12.47-4.5,12C95,71.33,96.35,54.36,100.1,54.77Z" transform="translate(0 0)"/><path class="cls-8" d="M98.33,66.59A5.27,5.27,0,0,0,98.92,62c-1.76-6.88,3.14-7.8,2.48-2.94,0,0-.91-2.18-1.47-1.45-.69.89.95,1.2.49,4.87A9.8,9.8,0,0,1,98.33,66.59Z" transform="translate(0 0)"/><path class="cls-2" d="M42.23,55.13c-3.07.51-2.41,2.31-1.09,5.46,1.25,8.38,4.41,11.73,5.48,11.22C48.57,70.86,46,54.51,42.23,55.13Z" transform="translate(0 0)"/><path class="cls-2" d="M97.26,54.52c.9-22.67-8.53-32.08-29.23-30.81,0,0-14.1.5-17.63,8.23-3.77,8.26-5.14,15.71-4.86,26.36.59,22.24,4.84,22.67,8.31,27,2.34,2.93,8.63,9,10.66,10,3.27,1.76,13.27,1.5,16.38-.47,2.74-1.73,6.13-6,10.1-11.08,3.24-4.19,6.33-5.09,6-17.08C96.75,59.39,97,60.81,97.26,54.52Z" transform="translate(0 0)"/><path class="cls-9" d="M83.2,74.29c4.45.43,12,2.56,13.23-5,1.18-7.12.16-10.64-2.05-11.22C89,56.66,82.73,59.93,80.2,61.78,74.3,66.11,75.3,73.55,83.2,74.29Z" transform="translate(0 0)"/><path class="cls-10" d="M72.9,89.92c-1.55,0-5.42,1-5.31,1.62.34,1.72,3.93,2,5.48,2s4.68-.4,4.74-1.86C77.84,91.09,74.45,89.91,72.9,89.92Z" transform="translate(0 0)"/><path class="cls-11" d="M65.76,69.59c-.32-.47,6.17.68,6.17.68s7.46-.92,6.79-.22-2.85,3.48-6.79,3.17A8.23,8.23,0,0,1,65.76,69.59Z" transform="translate(0 0)"/><path class="cls-12" d="M61.59,61.11c-.83-.44-10.42-4.13-13.87-2.66-2.44,1-2.64,6.42-.46,13.55,2.5,8.14,9.57,3.92,12.45,2.35C66.68,70.55,68.05,64.54,61.59,61.11Z" transform="translate(0 0)"/><path class="cls-13" d="M74.64,70.52c3.07-.76,4.28-.31,4.28-.31C77.13,68.65,74.64,70.52,74.64,70.52Z" transform="translate(0 0)"/><path class="cls-14" d="M77.15,50.48c-1.4,1.31-2.21,8.9-.93,9.66,8,4.72,16.78-1.26,16.78-1.26C94.93,44.23,77.15,50.48,77.15,50.48Z" transform="translate(0 0)"/><path class="cls-15" d="M50.79,59.28s8.5,5.68,16.69.41c1.26-.8-.58-7.49-1.63-9.06C65.85,50.63,49.5,44,50.79,59.28Z" transform="translate(0 0)"/><path class="cls-16" d="M65.94,70a9.1,9.1,0,0,1,4,.56S67.6,68.76,65.94,70Z" transform="translate(0 0)"/><path class="cls-17" d="M77,65.41a2.94,2.94,0,0,1-1.35,3.83c-1.32.86-5.17,1.12-6.61.32-1.23-.63-2.19-1.91-1.85-4.37a14.79,14.79,0,0,0-1.45,1.25c-1.46,1.32-1.6,3.62,0,3.65A3.43,3.43,0,0,1,68,69.72c1.45.25,1.16,1.75,4.53,1.78,2.94,0,2-1.38,3.87-1.65a2.94,2.94,0,0,1,2.54.4C79.82,70.25,80.74,67.35,77,65.41Z" transform="translate(0 0)"/><path class="cls-18" d="M69.56,23.69c-17.86,2-23,11.18-23.9,19.69-.3,2.76.37,21.22.5,23.83.62-6,2.69-8.13,3.71-11.14,1.63-4.64,2.77-6.56,2.68-12.77C52.67,32,64,30.23,70.22,30.12c13.28-.24,19.27,3.34,19.45,12.53.13,6.52,2.2,8.54,3.45,12.34,1.57,4,3.66,9.33,4.16,13.72,0,0-.64-24.69-1.09-29.49C95.6,32.91,90.38,21.29,69.56,23.69Z" transform="translate(0 0)"/><path class="cls-19" d="M94.79,60.93c-.8-.46-1.4.2-3.07.75s-6.11,1.39-4,2.53c2.33,1.27,5.58-.47,6-.79S95.79,61.48,94.79,60.93Z" transform="translate(0 0)"/><path class="cls-20" d="M51.31,62.22c-1.7-.47-2.33-1.09-3.11-.6-1,.61.83,2.13,1.24,2.43s3.75,1.87,6,.49C57.49,63.29,53,62.67,51.31,62.22Z" transform="translate(0 0)"/><path class="cls-21" d="M58.94,52.53A7.85,7.85,0,0,0,53.66,54a5.67,5.67,0,0,0-1.77,3.9c0,.48.87,2.8,5.45,3.1,3,.19,7.72-.31,8.87-1.61.55-.63.05-2-.22-2.9C65.14,53.74,63.14,52.77,58.94,52.53Z" transform="translate(0 0)"/><path class="cls-22" d="M61.77,54.73c-7.41-1.07-6.09.07-8.68,3.16a5.44,5.44,0,0,0,2.49,1.94,17,17,0,0,0,8.05.14,2.55,2.55,0,0,0,1.66-.8S64,55.05,61.77,54.73Z" transform="translate(0 0)"/><path class="cls-23" d="M58.62,54.17c-2.39-.27-5.53,3.72-5.53,3.72a2.35,2.35,0,0,0,.66.81,5.77,5.77,0,0,1,3.63-1.3c6.68.16,7.91,1.75,7.91,1.75C64.8,56.11,61,54.45,58.62,54.17Z" transform="translate(0 0)"/><path class="cls-24" d="M59.53,55.11c-2,.1-3.83,1.18-3.57,3.32a2.74,2.74,0,0,0,.61,1.63,13.49,13.49,0,0,0,3,.38,18.93,18.93,0,0,0,3.27-.32,4.45,4.45,0,0,0,.55-1.85C63.47,56.06,61.56,55,59.53,55.11Z" transform="translate(0 0)"/><path class="cls-25" d="M58.81,55c-2.34,0-2.84,2.6-2.84,2.6,3.18-.71,7.37.6,7.37.6C63.33,55.43,61.38,55,58.81,55Z" transform="translate(0 0)"/><path class="cls-26" d="M59.54,55.41a2.28,2.28,0,0,0-2.22,2.33,2.25,2.25,0,1,0,2.22-2.33Z" transform="translate(0 0)"/><path class="cls-27" d="M61,57.5a1,1,0,0,0-.47,1.3,1,1,0,0,0,1.3.39,1,1,0,0,0,.46-1.3A.93.93,0,0,0,61,57.5Z" transform="translate(0 0)"/><path class="cls-28" d="M84.19,52.68c-4.2.19-6.21,1.13-7.09,3.85-.28.87-.81,2.26-.26,2.89,1.13,1.32,5.86,1.88,8.85,1.72,4.58-.25,5.43-2.56,5.49-3a5.66,5.66,0,0,0-1.73-3.92A7.86,7.86,0,0,0,84.19,52.68Z" transform="translate(0 0)"/><path class="cls-29" d="M81.34,54.85c-2.21.29-3.58,4.39-3.58,4.39a2.52,2.52,0,0,0,1.65.83,17,17,0,0,0,8,0A5.49,5.49,0,0,0,90,58.12C87.42,55,88.75,53.86,81.34,54.85Z" transform="translate(0 0)"/><path class="cls-23" d="M84.49,54.33c-2.4.24-6.2,1.86-6.72,4.89,0,0,1.24-1.57,7.92-1.65a5.8,5.8,0,0,1,3.62,1.35,2.49,2.49,0,0,0,.67-.8S86.88,54.09,84.49,54.33Z" transform="translate(0 0)"/><path class="cls-30" d="M83.57,55.25c-2-.12-3.95.91-3.85,3.12a4.5,4.5,0,0,0,.55,1.85,21.88,21.88,0,0,0,3.27.38,12.38,12.38,0,0,0,2.93-.36,2.78,2.78,0,0,0,.63-1.62C87.38,56.49,85.6,55.38,83.57,55.25Z" transform="translate(0 0)"/><path class="cls-31" d="M84.29,55.12c-2.56,0-4.52.41-4.57,3.15,0,0,4.21-1.26,7.38-.51C87.1,57.76,86.63,55.14,84.29,55.12Z" transform="translate(0 0)"/><path class="cls-32" d="M83.56,55.56a2.25,2.25,0,0,0-2.31,2.21,2.25,2.25,0,1,0,2.31-2.21Z" transform="translate(0 0)"/><path class="cls-27" d="M85.76,57.5a.93.93,0,0,0-1.29.38,1,1,0,0,0,.45,1.31,1,1,0,0,0,1.3-.38A1,1,0,0,0,85.76,57.5Z" transform="translate(0 0)"/><path class="cls-27" d="M83.56,56.58a.76.76,0,0,0-1,.29.79.79,0,0,0,.36,1,.74.74,0,0,0,1-.3A.77.77,0,0,0,83.56,56.58Z" transform="translate(0 0)"/><path class="cls-33" d="M88.29,54.88c-2.15-1.29-6.28-1.36-8.41.17a5.84,5.84,0,0,0-2.12,4.18s1.09-2.5,3-3a8.65,8.65,0,0,1,2.93-.46,6.64,6.64,0,0,1,3.59.77A23.27,23.27,0,0,1,90,58.12S89.58,55.66,88.29,54.88Z" transform="translate(0 0)"/><path class="cls-34" d="M87.19,60.05a13.45,13.45,0,0,1-4.68.48s1.7.65,5-.18A4.16,4.16,0,0,0,90,58.13,5.78,5.78,0,0,1,87.19,60.05Z" transform="translate(0 0)"/><path class="cls-27" d="M59,56.57a.78.78,0,0,0-.37,1,.74.74,0,0,0,1,.31.77.77,0,0,0,.37-1A.75.75,0,0,0,59,56.57Z" transform="translate(0 0)"/><path class="cls-35" d="M63.22,55c-2.11-1.56-6.23-1.53-8.4-.27-1.3.76-1.73,3.21-1.73,3.21a22.58,22.58,0,0,1,2.75-1.54,6.7,6.7,0,0,1,3.61-.73,8.64,8.64,0,0,1,2.92.5c1.86.52,2.92,3,2.92,3A5.82,5.82,0,0,0,63.22,55Z" transform="translate(0 0)"/><path class="cls-36" d="M55.85,59.86a5.78,5.78,0,0,1-2.76-2,4.13,4.13,0,0,0,2.48,2.26,9.05,9.05,0,0,0,5,.23A13.75,13.75,0,0,1,55.85,59.86Z" transform="translate(0 0)"/><path class="cls-37" d="M83.76,79.21l-.52.45A5.45,5.45,0,0,0,83.76,79.21Z" transform="translate(0 0)"/><path class="cls-38" d="M81.61,70.38c5.55,4.48,3.3,7.7,2.15,8.83,2.13-1.79,5-3.78,4.82-4.57C87.89,71.79,81.61,70.38,81.61,70.38Z" transform="translate(0 0)"/><path class="cls-39" d="M56,75.08c.13.87,2.6,3,4.23,4.71,0,0-4.34-4.66,1.69-8.86C61.89,70.93,55.55,72.13,56,75.08Z" transform="translate(0 0)"/><path class="cls-40" d="M66.35,86.63A47.78,47.78,0,0,1,79,86.72C73.25,83.17,66.35,86.63,66.35,86.63Z" transform="translate(0 0)"/><path class="cls-41" d="M58.13,74.59c.15.15.26.37.46.46,3.62,1.6,3.67,3.13,5.22,4A17.38,17.38,0,0,0,80,78.88c2.48-1.37,2.8-3,5.77-4.12a.74.74,0,0,0,.47-.47C70.41,78.17,58.13,74.59,58.13,74.59Z" transform="translate(0 0)"/><path class="cls-42" d="M72.35,82.14c-2.14,0-4.26-.42-4.26,0s1.87,1.35,4,1.35,4.25-.93,4.25-1.35S74.49,82.14,72.35,82.14Z" transform="translate(0 0)"/><path class="cls-43" d="M78.53,77.89a36.08,36.08,0,0,1-6.71.84A41.66,41.66,0,0,1,64.71,78c-.67-.13-1,1-1,1,2,1.47,4.44,2,8.32,2.06a13.51,13.51,0,0,0,8-2.21S79.38,77.72,78.53,77.89Z" transform="translate(0 0)"/><path class="cls-44" d="M64.44,82.69c8.27,6.57,16.18-.46,16.18-.46A18.6,18.6,0,0,1,64.44,82.69Z" transform="translate(0 0)"/><path class="cls-45" d="M61.72,75.34a2.36,2.36,0,0,0,1.43,2c.8.34,2.6,1.71,9.58,1.5s8.37-1.9,8.69-2.2a3.75,3.75,0,0,0,.86-1.47S71.76,77.18,61.72,75.34Z" transform="translate(0 0)"/><path class="cls-46" d="M61.69,75.22a2.65,2.65,0,0,0,.28,1c.19.3,5.77,1.12,10,1.14A38.68,38.68,0,0,0,81.86,76,3.4,3.4,0,0,0,82.33,75S77.58,76.58,61.69,75.22Z" transform="translate(0 0)"/><path class="cls-47" d="M57.26,74.15s1,.59.87.44,12.28,3.58,28.15-.3l.86-.43C78.52,75.3,57.26,74.15,57.26,74.15Z" transform="translate(0 0)"/><path class="cls-48" d="M44.06,62.38c1.4-7-3.55-7.62-2.63-2.8,0,0,.78-2.23,1.39-1.53.73.85-.89,1.25-.24,4.9a9.91,9.91,0,0,0,2.31,4A5.27,5.27,0,0,1,44.06,62.38Z" transform="translate(0 0)"/><path class="cls-49" d="M72.08,96.17A19.86,19.86,0,0,1,59.2,90.9a17,17,0,0,0,13.4,6.69c8.61,0,12-6,12-6A17.56,17.56,0,0,1,72.08,96.17Z" transform="translate(0 0)"/><path class="cls-50" d="M88.63,82.49c-2.34,2.89-3.37,8.35-3.37,8.35,1.19-1.5,9.18-9.9,10.35-12.64,1.92-4.55,1.55-16.38,1.55-16.38C96.9,77.12,91,79.6,88.63,82.49Z" transform="translate(0 0)"/><path class="cls-51" d="M46,63.41s0,11.9,2.48,15.75c2.23,3.48,9.3,10.4,10.25,11.27a12,12,0,0,0-2.81-6.71C53.36,81,47,77.3,46,63.41Z" transform="translate(0 0)"/><path class="cls-52" d="M65,49.19c-3-1.21-7.37-1.81-10.7-.63-1.28.46-3.08,3.38-3.08,3.38s1.52-1.07,5-1.23c3-.14,5.87.78,8.4.75A1.17,1.17,0,0,0,65,49.19Z" transform="translate(0 0)"/><path class="cls-53" d="M88.5,48.32c-3.35-1.13-7.69-.47-10.7.78a1.17,1.17,0,0,0,.38,2.27c2.53,0,5.39-1,8.39-.87,3.52.11,5.06,1.16,5.06,1.16S89.78,48.76,88.5,48.32Z" transform="translate(0 0)"/><path class="cls-54" d="M78,19.34c-8-.63-15.49.13-20,1.5-4.29,1.29-11.53,7.73-12.53,15.45C44.59,42.6,44,56.15,44,56.15s2,2.56,2,7.71a67.7,67.7,0,0,1,1.75-9.56C48.89,50.19,50,48.91,49.92,46c-.18-4.3,2.38-12.33,3.88-13.2,11.17-6.52,30.74-3.14,34.84-.32,1.75,1.21,3.75,9.75,3.88,13.16.13,3.2,1.84,4.79,3,8.8a72.76,72.76,0,0,1,1.69,8.46s.48-6.36,1.61-7.48c-.09-3.94-.29-14.7-1.64-21.61C96.34,29.59,91.77,20.43,78,19.34Z" transform="translate(0 0)"/><path class="cls-55" d="M72.24,62.46c-1.42,0-3.34,2.07-3,4.61.35,2.88,5.36,1.59,5.67.47S74.49,62.46,72.24,62.46Z" transform="translate(0 0)"/><path class="cls-56" d="M85.77,20.58c-7.78-2.95-24.51-1.74-29.63.86A20.67,20.67,0,0,0,49,28c7.44-7.16,16.89-7.66,27.77-7.08s16.46,5.34,16.46,5.34S89.92,22.15,85.77,20.58Z" transform="translate(0 0)"/><path class="cls-3" d="M19.37,121.12c.47.51.95,1,1.44,1.51C20.32,122.13,19.84,121.63,19.37,121.12Z" transform="translate(0 0)"/><path class="cls-3" d="M15,116h0c1.33,1.72,2.73,3.36,4.2,4.95C17.77,119.4,16.37,117.76,15,116Z" transform="translate(0 0)"/><path class="cls-3" d="M24.11,125.76c.46.41.93.82,1.41,1.22C25,126.58,24.57,126.17,24.11,125.76Z" transform="translate(0 0)"/><path class="cls-3" d="M23.94,125.6q-1.61-1.42-3.12-3Q22.33,124.17,23.94,125.6Z" transform="translate(0 0)"/><path class="cls-3" d="M25.76,127.18c.52.44,1,.88,1.59,1.3h0C26.81,128.06,26.28,127.62,25.76,127.18Z" transform="translate(0 0)"/><path class="cls-3" d="M25.76,127.18l-.24-.2Z" transform="translate(0 0)"/><path class="cls-3" d="M20.82,122.64h0Z" transform="translate(0 0)"/><path class="cls-3" d="M24.11,125.76a1.29,1.29,0,0,1-.17-.16A1.29,1.29,0,0,0,24.11,125.76Z" transform="translate(0 0)"/><path class="cls-3" d="M19.37,121.12l-.13-.13Z" transform="translate(0 0)"/><path class="cls-3" d="M26.89,126.35c-1.54-6.37-4.2-12.81-6.4-15.67A15.43,15.43,0,0,0,15,116c1.33,1.72,2.73,3.36,4.2,4.95l.13.13c.47.51.95,1,1.44,1.51h0q1.51,1.53,3.12,3a1.29,1.29,0,0,0,.17.16c.46.41.93.82,1.41,1.22l.24.2c.52.44,1,.88,1.59,1.3C27.2,127.71,27,127,26.89,126.35Z" transform="translate(0 0)"/><path class="cls-57" d="M80.3,143.52l-.58.07Z" transform="translate(0 0)"/><path class="cls-58" d="M82.7,143.21l-.52.07Z" transform="translate(0 0)"/><path class="cls-59" d="M87.85,142.25l-.56.12Z" transform="translate(0 0)"/><path class="cls-60" d="M85.42,142.75l-.46.08Z" transform="translate(0 0)"/><path class="cls-61" d="M69.69,144l-.64,0Z" transform="translate(0 0)"/><path class="cls-62" d="M90.29,141.65l-.21.06Z" transform="translate(0 0)"/><path class="cls-63" d="M67.24,143.84l-.53,0Z" transform="translate(0 0)"/><path class="cls-64" d="M75,143.93l-.64,0Z" transform="translate(0 0)"/><path class="cls-65" d="M77.41,143.8l-.38,0Z" transform="translate(0 0)"/><path class="cls-66" d="M97.7,139.27l-.52.2Z" transform="translate(0 0)"/><path class="cls-67" d="M108.92,133.82l-.46.27Z" transform="translate(0 0)"/><path class="cls-68" d="M104.48,136.27l-.43.22Z" transform="translate(0 0)"/><path class="cls-69" d="M106.75,135.07l-.27.15Z" transform="translate(0 0)"/><polygon class="cls-70" points="110.85 132.63 110.85 132.63 110.85 132.63 110.85 132.63"/><path class="cls-71" d="M102.34,137.31l-.42.2Z" transform="translate(0 0)"/><path class="cls-72" d="M95,140.24l-.12,0Z" transform="translate(0 0)"/><path class="cls-73" d="M92.86,140.93l-.56.16Z" transform="translate(0 0)"/><path class="cls-74" d="M99.84,138.42l-.34.14Z" transform="translate(0 0)"/><path class="cls-75" d="M64.45,143.61l-.43-.05Z" transform="translate(0 0)"/><path class="cls-76" d="M43,137.93l-.2-.09Z" transform="translate(0 0)"/><path class="cls-77" d="M57.08,142.45l-.46-.1Z" transform="translate(0 0)"/><path class="cls-78" d="M38.62,135.81l-.18-.1Z" transform="translate(0 0)"/><path class="cls-79" d="M54.74,141.91l-.38-.09Z" transform="translate(0 0)"/><path class="cls-80" d="M49.94,140.55l-.38-.12Z" transform="translate(0 0)"/><path class="cls-81" d="M45.21,138.85l-.19-.08Z" transform="translate(0 0)"/><path class="cls-82" d="M52.12,141.22l-.08,0Z" transform="translate(0 0)"/><path class="cls-83" d="M62.15,143.33l-.59-.09Z" transform="translate(0 0)"/><path class="cls-84" d="M59.42,142.9h0Z" transform="translate(0 0)"/><path class="cls-85" d="M73.56,121.82c-17.31-.49-23.74-2.52-34.84,4a9.45,9.45,0,0,0-4.38,7.54q2,1.23,4.1,2.34l.18.1q2.07,1.08,4.21,2l.2.09c.66.29,1.32.57,2,.84l.19.08c1.43.57,2.88,1.1,4.35,1.58l.38.12c.7.23,1.4.44,2.1.65l.08,0c.74.21,1.48.41,2.24.6l.38.09c.63.16,1.25.3,1.88.44l.46.1c.75.16,1.5.31,2.26.44h.08c.71.13,1.43.24,2.14.34l.59.09,1.87.23.43.05,2.26.2.53,0c.6,0,1.2.07,1.81.09l.64,0c.77,0,1.54,0,2.31,0s1.59,0,2.38,0l.64,0c.67,0,1.34-.06,2-.11l.38,0,2.31-.21.58-.07c.63-.07,1.25-.15,1.88-.24l.52-.07c.75-.11,1.51-.24,2.26-.38l.46-.08,1.87-.38.56-.12c.75-.17,1.49-.35,2.23-.54l.21-.06c.68-.17,1.34-.36,2-.56l.56-.16c.69-.21,1.38-.43,2.06-.66l.12,0,2.14-.77.52-.2,1.8-.71.34-.14,2.08-.91.42-.2,1.71-.82.43-.22c.67-.34,1.34-.69,2-1.05l.27-.15c.58-.32,1.15-.65,1.71-1l.46-.27c.65-.39,1.29-.78,1.93-1.19h0c-.12-3.28-1.13-6-2.66-7.54C102,118.88,90.87,122.31,73.56,121.82Z" transform="translate(0 0)"/></svg>