<svg id="Layer_1" data-name="Layer 1" xmlns="http://www.w3.org/2000/svg" xmlns:xlink="http://www.w3.org/1999/xlink" viewBox="0 0 144 144"><defs><style>.cls-1{fill:#f6ece6;}.cls-2{fill:url(#linear-gradient);}.cls-3{fill:#f6d4ab;}.cls-4{fill:#ef4834;}.cls-5{fill:url(#linear-gradient-2);}.cls-6{fill:url(#linear-gradient-3);}.cls-7{fill:#f0c499;}.cls-8{fill:url(#linear-gradient-4);}.cls-9{fill:url(#linear-gradient-5);}.cls-10{fill:url(#linear-gradient-6);}.cls-11{fill:url(#linear-gradient-7);}.cls-12{fill:url(#linear-gradient-8);}.cls-13{fill:url(#linear-gradient-9);}.cls-14{fill:url(#radial-gradient);}.cls-15{fill:url(#linear-gradient-10);}.cls-16{fill:url(#radial-gradient-2);}.cls-17{fill:url(#linear-gradient-11);}.cls-18{fill:url(#linear-gradient-12);}.cls-19{fill:url(#linear-gradient-13);}.cls-20{fill:url(#_ÂÁ_Ï_ÌÌ_È_ËÂÌÚ_1204);}.cls-21{fill:url(#linear-gradient-14);}.cls-22{fill:#ddd;}.cls-23{fill:url(#_ÂÁ_Ï_ÌÌ_È_ËÂÌÚ_144);}.cls-24{fill:url(#_ÂÁ_Ï_ÌÌ_È_ËÂÌÚ_144-2);}.cls-25{fill:url(#radial-gradient-3);}.cls-26{fill:url(#_ÂÁ_Ï_ÌÌ_È_ËÂÌÚ_17912);}.cls-27{fill:#fff;}.cls-28{fill:url(#_ÂÁ_Ï_ÌÌ_È_ËÂÌÚ_1204-2);}.cls-29{fill:url(#linear-gradient-15);}.cls-30{fill:url(#_ÂÁ_Ï_ÌÌ_È_ËÂÌÚ_311);}.cls-31{fill:url(#_ÂÁ_Ï_ÌÌ_È_ËÂÌÚ_144-3);}.cls-32{fill:url(#radial-gradient-4);}.cls-33{fill:url(#_ÂÁ_Ï_ÌÌ_È_ËÂÌÚ_17912-2);}.cls-34{fill:url(#_ÂÁ_Ï_ÌÌ_È_ËÂÌÚ_17912-3);}.cls-35{fill:url(#_ÂÁ_Ï_ÌÌ_È_ËÂÌÚ_17912-4);}.cls-36{fill:url(#linear-gradient-16);}.cls-37{fill:url(#_ÂÁ_Ï_ÌÌ_È_ËÂÌÚ_161);}.cls-38{fill:url(#_ÂÁ_Ï_ÌÌ_È_ËÂÌÚ_162);}.cls-39{fill:url(#_ÂÁ_Ï_ÌÌ_È_ËÂÌÚ_390);}.cls-40{fill:#dca57c;}.cls-41{fill:url(#linear-gradient-17);}.cls-42{fill:url(#linear-gradient-18);}.cls-43{fill:url(#_ÂÁ_Ï_ÌÌ_È_ËÂÌÚ_151);}.cls-44{fill:url(#_ÂÁ_Ï_ÌÌ_È_ËÂÌÚ_17912-5);}.cls-45{fill:url(#_ÂÁ_Ï_ÌÌ_È_ËÂÌÚ_139);}.cls-46{fill:url(#_ÂÁ_Ï_ÌÌ_È_ËÂÌÚ_17912-6);}.cls-47{fill:url(#_ÂÁ_Ï_ÌÌ_È_ËÂÌÚ_17912-7);}.cls-48{fill:url(#_ÂÁ_Ï_ÌÌ_È_ËÂÌÚ_142);}.cls-49{fill:url(#_ÂÁ_Ï_ÌÌ_È_ËÂÌÚ_163);}.cls-50{fill:url(#_ÂÁ_Ï_ÌÌ_È_ËÂÌÚ_142-2);}.cls-51{fill:url(#_ÂÁ_Ï_ÌÌ_È_ËÂÌÚ_142-3);}.cls-52{fill:url(#_ÂÁ_Ï_ÌÌ_È_ËÂÌÚ_1204-3);}.cls-53{fill:url(#_ÂÁ_Ï_ÌÌ_È_ËÂÌÚ_1204-4);}.cls-54{fill:url(#_ÂÁ_Ï_ÌÌ_È_ËÂÌÚ_1204-5);}.cls-55{fill:#721e23;}.cls-56{fill:#fcd8b4;}.cls-57{fill:url(#linear-gradient-19);}.cls-58{fill:url(#_ÂÁ_Ï_ÌÌ_È_ËÂÌÚ_1204-6);}.cls-59{fill:url(#linear-gradient-20);}.cls-60{fill:#f2eceb;}.cls-61{fill:url(#_ÂÁ_Ï_ÌÌ_È_ËÂÌÚ_1204-7);}.cls-62{fill:#f2be96;}.cls-63{fill:url(#_ÂÁ_Ï_ÌÌ_È_ËÂÌÚ_1016);}</style><linearGradient id="linear-gradient" x1="60.81" y1="102.93" x2="97.1" y2="110.2" gradientUnits="userSpaceOnUse"><stop offset="0" stop-color="#f0c499"/><stop offset="1" stop-color="#f6d4ab"/></linearGradient><linearGradient id="linear-gradient-2" x1="72.66" y1="145.1" x2="73.68" y2="121.71" gradientUnits="userSpaceOnUse"><stop offset="0" stop-color="#ef4834"/><stop offset="0.37" stop-color="#f05441"/><stop offset="1" stop-color="#f26454"/></linearGradient><linearGradient id="linear-gradient-3" x1="71.79" y1="98.02" x2="76.21" y2="135.92" gradientUnits="userSpaceOnUse"><stop offset="0" stop-color="#fff"/><stop offset="0.36" stop-color="#f9f8fa"/><stop offset="1" stop-color="#f1f0f4"/></linearGradient><linearGradient id="linear-gradient-4" x1="41.92" y1="64.99" x2="47.3" y2="78.05" gradientUnits="userSpaceOnUse"><stop offset="0" stop-color="#dca47a"/><stop offset="0.5" stop-color="#e5b287"/><stop offset="1" stop-color="#f0c499"/></linearGradient><linearGradient id="linear-gradient-5" x1="97.42" y1="65.67" x2="102.12" y2="77.07" xlink:href="#linear-gradient-4"/><linearGradient id="linear-gradient-6" x1="72.48" y1="39.39" x2="71.97" y2="66.76" gradientUnits="userSpaceOnUse"><stop offset="0" stop-color="#fed8b4"/><stop offset="0.33" stop-color="#fad6af"/><stop offset="1" stop-color="#f6d4ab"/></linearGradient><linearGradient id="linear-gradient-7" x1="85.4" y1="70.7" x2="84.65" y2="61.96" gradientUnits="userSpaceOnUse"><stop offset="0" stop-color="#f6d4ab"/><stop offset="0.52" stop-color="#f5d2a8"/><stop offset="0.85" stop-color="#f2caa0"/><stop offset="1" stop-color="#f0c499"/></linearGradient><linearGradient id="linear-gradient-8" x1="59.29" y1="70.65" x2="58.56" y2="62.06" xlink:href="#linear-gradient-7"/><linearGradient id="linear-gradient-9" x1="72.16" y1="92.77" x2="72.66" y2="101.73" gradientUnits="userSpaceOnUse"><stop offset="0" stop-color="#fed8b4"/><stop offset="1" stop-color="#f6d4ab"/></linearGradient><radialGradient id="radial-gradient" cx="3909.94" cy="-240.06" r="23.48" gradientTransform="matrix(-0.55, 0.02, 0.03, 0.39, 2248.07, 88.78)" gradientUnits="userSpaceOnUse"><stop offset="0" stop-color="#f8c49d"/><stop offset="1" stop-color="#f6d4ab"/></radialGradient><linearGradient id="linear-gradient-10" x1="94.49" y1="69.97" x2="86.74" y2="72.65" gradientUnits="userSpaceOnUse"><stop offset="0" stop-color="#fad6b0"/><stop offset="1" stop-color="#f6d4ab"/></linearGradient><radialGradient id="radial-gradient-2" cx="61.19" cy="-353.97" r="24.14" gradientTransform="matrix(0.55, -0.03, 0.05, 0.37, 39.26, 209.44)" xlink:href="#radial-gradient"/><linearGradient id="linear-gradient-11" x1="86.74" y1="88.81" x2="86.35" y2="81.64" xlink:href="#linear-gradient-7"/><linearGradient id="linear-gradient-12" x1="59.46" y1="90.28" x2="59.07" y2="83.11" xlink:href="#linear-gradient-7"/><linearGradient id="linear-gradient-13" x1="58.24" y1="72.06" x2="46.74" y2="69.25" xlink:href="#linear-gradient-10"/><linearGradient id="_ÂÁ_Ï_ÌÌ_È_ËÂÌÚ_1204" x1="52.44" y1="63.39" x2="67.31" y2="67.58" xlink:href="#linear-gradient-4"/><linearGradient id="linear-gradient-14" x1="65.41" y1="67.27" x2="55.88" y2="64.97" gradientUnits="userSpaceOnUse"><stop offset="0" stop-color="#ece7e6"/><stop offset="0.24" stop-color="#f6f4f4"/><stop offset="0.54" stop-color="#fdfcfc"/><stop offset="1" stop-color="#fff"/></linearGradient><linearGradient id="_ÂÁ_Ï_ÌÌ_È_ËÂÌÚ_144" x1="63.54" y1="66.11" x2="53.51" y2="66.51" gradientUnits="userSpaceOnUse"><stop offset="0" stop-color="#a68d66"/><stop offset="1" stop-color="#604c2d"/></linearGradient><linearGradient id="_ÂÁ_Ï_ÌÌ_È_ËÂÌÚ_144-2" x1="66.9" y1="95.38" x2="62.05" y2="75.33" xlink:href="#_ÂÁ_Ï_ÌÌ_È_ËÂÌÚ_144"/><radialGradient id="radial-gradient-3" cx="47.17" cy="113.99" r="11.54" gradientTransform="translate(35.83 5.47) scale(0.55 0.54)" gradientUnits="userSpaceOnUse"><stop offset="0" stop-color="#2b3b3b"/><stop offset="1" stop-color="#1d2827"/></radialGradient><linearGradient id="_ÂÁ_Ï_ÌÌ_È_ËÂÌÚ_17912" x1="62.96" y1="83.27" x2="59.98" y2="68.23" gradientUnits="userSpaceOnUse"><stop offset="0" stop-color="#973925"/><stop offset="0.19" stop-color="#913724"/><stop offset="0.43" stop-color="#822f1f"/><stop offset="0.71" stop-color="#682418"/><stop offset="0.9" stop-color="#501912"/><stop offset="1" stop-color="#43140f"/></linearGradient><linearGradient id="_ÂÁ_Ï_ÌÌ_È_ËÂÌÚ_1204-2" x1="77.58" y1="63.63" x2="92.08" y2="67.71" xlink:href="#linear-gradient-4"/><linearGradient id="linear-gradient-15" x1="89.68" y1="67.32" x2="80.38" y2="65.08" xlink:href="#linear-gradient-14"/><linearGradient id="_ÂÁ_Ï_ÌÌ_È_ËÂÌÚ_311" x1="87.64" y1="66.09" x2="77.61" y2="66.5" gradientUnits="userSpaceOnUse"><stop offset="0" stop-color="#604c2d"/><stop offset="1" stop-color="#a68d66"/></linearGradient><linearGradient id="_ÂÁ_Ï_ÌÌ_È_ËÂÌÚ_144-3" x1="82.47" y1="92.73" x2="83.72" y2="72.95" xlink:href="#_ÂÁ_Ï_ÌÌ_È_ËÂÌÚ_144"/><radialGradient id="radial-gradient-4" cx="90.97" cy="113.99" r="11.54" xlink:href="#radial-gradient-3"/><linearGradient id="_ÂÁ_Ï_ÌÌ_È_ËÂÌÚ_17912-2" x1="87" y1="78.53" x2="84.03" y2="63.5" xlink:href="#_ÂÁ_Ï_ÌÌ_È_ËÂÌÚ_17912"/><linearGradient id="_ÂÁ_Ï_ÌÌ_È_ËÂÌÚ_17912-3" x1="83.73" y1="45.1" x2="84.98" y2="60.74" xlink:href="#_ÂÁ_Ï_ÌÌ_È_ËÂÌÚ_17912"/><linearGradient id="_ÂÁ_Ï_ÌÌ_È_ËÂÌÚ_17912-4" x1="57.93" y1="47.2" x2="59.17" y2="62.75" xlink:href="#_ÂÁ_Ï_ÌÌ_È_ËÂÌÚ_17912"/><linearGradient id="linear-gradient-16" x1="69.45" y1="31.69" x2="72.56" y2="69.1" gradientUnits="userSpaceOnUse"><stop offset="0" stop-color="#f6d4ab"/><stop offset="0.45" stop-color="#f3cba1"/><stop offset="1" stop-color="#f0c499"/></linearGradient><linearGradient id="_ÂÁ_Ï_ÌÌ_È_ËÂÌÚ_161" x1="54.44" y1="74.69" x2="54.83" y2="105.38" xlink:href="#linear-gradient"/><linearGradient id="_ÂÁ_Ï_ÌÌ_È_ËÂÌÚ_162" x1="90.24" y1="74.24" x2="90.64" y2="104.92" xlink:href="#linear-gradient"/><radialGradient id="_ÂÁ_Ï_ÌÌ_È_ËÂÌÚ_390" cx="63.11" cy="120.46" r="12.92" gradientTransform="translate(35.83 5.47) scale(0.55 0.54)" gradientUnits="userSpaceOnUse"><stop offset="0" stop-color="#f7cba3"/><stop offset="1" stop-color="#f6d4ab"/></radialGradient><linearGradient id="linear-gradient-17" x1="71.92" y1="68.97" x2="72.12" y2="76.07" xlink:href="#linear-gradient-7"/><linearGradient id="linear-gradient-18" x1="71.66" y1="77.62" x2="72.44" y2="71.91" xlink:href="#linear-gradient-6"/><linearGradient id="_ÂÁ_Ï_ÌÌ_È_ËÂÌÚ_151" x1="73.12" y1="97.45" x2="72.7" y2="107.09" gradientUnits="userSpaceOnUse"><stop offset="0" stop-color="#f0c499"/><stop offset="0.5" stop-color="#e5b287"/><stop offset="1" stop-color="#dca47a"/></linearGradient><linearGradient id="_ÂÁ_Ï_ÌÌ_È_ËÂÌÚ_17912-5" x1="72.92" y1="23.55" x2="70.56" y2="66.42" xlink:href="#_ÂÁ_Ï_ÌÌ_È_ËÂÌÚ_17912"/><linearGradient id="_ÂÁ_Ï_ÌÌ_È_ËÂÌÚ_139" x1="72.04" y1="63.21" x2="72.82" y2="31.52" gradientUnits="userSpaceOnUse"><stop offset="0" stop-color="#43140f"/><stop offset="0.33" stop-color="#501912"/><stop offset="0.49" stop-color="#5b1e15"/><stop offset="0.77" stop-color="#792c1d"/><stop offset="1" stop-color="#973925"/></linearGradient><linearGradient id="_ÂÁ_Ï_ÌÌ_È_ËÂÌÚ_17912-6" x1="70.66" y1="25.67" x2="68.01" y2="42.14" xlink:href="#_ÂÁ_Ï_ÌÌ_È_ËÂÌÚ_17912"/><linearGradient id="_ÂÁ_Ï_ÌÌ_È_ËÂÌÚ_17912-7" x1="49.3" y1="49.52" x2="114.65" y2="31.61" xlink:href="#_ÂÁ_Ï_ÌÌ_È_ËÂÌÚ_17912"/><linearGradient id="_ÂÁ_Ï_ÌÌ_È_ËÂÌÚ_142" x1="74.72" y1="81.52" x2="70.09" y2="36.29" gradientUnits="userSpaceOnUse"><stop offset="0" stop-color="#531710"/><stop offset="0.01" stop-color="#551810"/><stop offset="0.3" stop-color="#79291b"/><stop offset="0.57" stop-color="#933522"/><stop offset="0.81" stop-color="#a23c26"/><stop offset="1" stop-color="#a83f28"/></linearGradient><linearGradient id="_ÂÁ_Ï_ÌÌ_È_ËÂÌÚ_163" x1="95.65" y1="30.92" x2="92.8" y2="58.78" gradientUnits="userSpaceOnUse"><stop offset="0" stop-color="#a83f28"/><stop offset="0.19" stop-color="#a23c26"/><stop offset="0.43" stop-color="#933522"/><stop offset="0.7" stop-color="#79291b"/><stop offset="0.99" stop-color="#551810"/><stop offset="1" stop-color="#531710"/></linearGradient><linearGradient id="_ÂÁ_Ï_ÌÌ_È_ËÂÌÚ_142-2" x1="48.42" y1="53.93" x2="42.34" y2="39.87" xlink:href="#_ÂÁ_Ï_ÌÌ_È_ËÂÌÚ_142"/><linearGradient id="_ÂÁ_Ï_ÌÌ_È_ËÂÌÚ_142-3" x1="73.03" y1="106.61" x2="66.44" y2="42.27" xlink:href="#_ÂÁ_Ï_ÌÌ_È_ËÂÌÚ_142"/><linearGradient id="_ÂÁ_Ï_ÌÌ_È_ËÂÌÚ_1204-3" x1="83.52" y1="82.53" x2="87.13" y2="82.53" xlink:href="#linear-gradient-4"/><linearGradient id="_ÂÁ_Ï_ÌÌ_È_ËÂÌÚ_1204-4" x1="57.49" y1="82.71" x2="61.11" y2="82.71" xlink:href="#linear-gradient-4"/><linearGradient id="_ÂÁ_Ï_ÌÌ_È_ËÂÌÚ_1204-5" x1="73.27" y1="105.74" x2="72.72" y2="90.06" xlink:href="#linear-gradient-4"/><linearGradient id="linear-gradient-19" x1="62.84" y1="86.82" x2="82.7" y2="87.16" gradientUnits="userSpaceOnUse"><stop offset="0" stop-color="#e8d9d7"/><stop offset="0.14" stop-color="#f0e6e4"/><stop offset="0.39" stop-color="#fbf8f8"/><stop offset="0.57" stop-color="#fff"/><stop offset="1" stop-color="#e8d3d1"/></linearGradient><linearGradient id="_ÂÁ_Ï_ÌÌ_È_ËÂÌÚ_1204-6" x1="73.27" y1="105.41" x2="72.74" y2="90.19" xlink:href="#linear-gradient-4"/><linearGradient id="linear-gradient-20" x1="72.05" y1="79.39" x2="72.37" y2="86.74" gradientUnits="userSpaceOnUse"><stop offset="0" stop-color="#e8d9d7"/><stop offset="0.4" stop-color="#efe5e4"/><stop offset="1" stop-color="#fff"/></linearGradient><linearGradient id="_ÂÁ_Ï_ÌÌ_È_ËÂÌÚ_1204-7" x1="72.85" y1="108.34" x2="72.33" y2="76.8" xlink:href="#linear-gradient-4"/><linearGradient id="_ÂÁ_Ï_ÌÌ_È_ËÂÌÚ_1016" x1="113.33" y1="31.23" x2="39.19" y2="57.82" gradientUnits="userSpaceOnUse"><stop offset="0" stop-color="#973925"/><stop offset="0.19" stop-color="#7d2d1e"/><stop offset="0.47" stop-color="#5c1f15"/><stop offset="0.62" stop-color="#501912"/><stop offset="0.97" stop-color="#44140f"/><stop offset="1" stop-color="#43140f"/></linearGradient></defs><circle class="cls-1" cx="72" cy="72" r="72"/><path class="cls-2" d="M89.68,101.58c-.26-1.18-1.21-13.31-1.21-13.31L57.73,87l0,14.47c-2.87,2-9.15,4-9.15,4-.42,4.72,11.25,20.3,24.74,19.67,17.43-.81,25-19.67,25-19.67S89.93,102.76,89.68,101.58Z"/><path class="cls-3" d="M80.31,109.77c-.18.17-11,1.44-14.92-.08-2-.76-6.91-6.08-6.91-6.08a12.17,12.17,0,0,1-5.38,2.58A47.13,47.13,0,0,0,73.43,121c9.32-3.16,20.46-15.22,20.46-15.22-1.69-.51-2.38-.42-5.16-2.84C85.58,106.92,80.5,109.61,80.31,109.77Z"/><path class="cls-4" d="M124,121.76c0-4.5,0-7.66,0-7.66-8.71-3.94-26.91-9.19-26.91-9.19s-14,19.13-23.89,20.18c-11.52,1.22-24.43-20.18-24.43-20.18-22.43,6.86-27.44,9.19-27.44,9.19.26.51.27,4.29.29,9.4A72,72,0,0,0,124,121.76Z"/><path class="cls-5" d="M73.88,128.51C56,128,49.3,125.94,37.8,132.62a8.56,8.56,0,0,0-2,1.62,72,72,0,0,0,74.75-1.42,7.06,7.06,0,0,0-.81-1C103.3,125.5,91.8,129,73.88,128.51Z"/><path class="cls-4" d="M16.92,118.37a72.71,72.71,0,0,0,8,8.14c-1.78-6.25-3.56-12.41-3.56-12.41C19.87,114.64,18.37,116.16,16.92,118.37Z"/><path class="cls-4" d="M127.87,117.41a9.4,9.4,0,0,0-3.8-3.31s-1.46,5-3,10.63A72.9,72.9,0,0,0,127.87,117.41Z"/><path class="cls-6" d="M73,123.39s-18.47-8.66-23-18.85c-2.3.65-6.38,2-6.38,2s12.17,15.9,29.08,22.73c22-10.76,29.14-22.92,29.14-22.92l-5.17-1.79C90.23,115.5,73,123.39,73,123.39Z"/><path class="cls-7" d="M43.06,63.38c-3.05.56-2.79,3.16-1.45,6.75,1.29,9.54,4.18,10.9,5.24,10.32C48.78,79.38,46.75,62.71,43.06,63.38Z"/><path class="cls-8" d="M44.67,71.82c1.34-7.91-3.57-8.7-2.63-3.2,0,0,.77-2.53,1.37-1.74.73,1-.87,1.42-.2,5.57A11.66,11.66,0,0,0,45.52,77,6.71,6.71,0,0,1,44.67,71.82Z"/><path class="cls-7" d="M100.08,63.31c-3.72-.5-4.78,16.24-2.8,17.22,1.09.53,4.36-1.91,5.1-11.5C103.5,65.39,103.16,63.72,100.08,63.31Z"/><path class="cls-9" d="M99,71.81A6.67,6.67,0,0,1,98.41,77a11.58,11.58,0,0,0,2-4.61c.43-4.18-1.2-4.55-.52-5.56.55-.82,1.46,1.67,1.46,1.67C102,63,97.16,64,99,71.81Z"/><path class="cls-10" d="M89.64,35.07c-4-4.66-10.4-6.69-21.27-6.44,0,0-14.15.49-17.69,8.15-3.79,8.18-4.54,19.45-4.21,30,.41,12.81,1.48,17.62,5,23S58,96.09,62.64,101.4c.94,1.08,9,5.82,15.35,3,1-.46,4.63-2,5.27-3,2.79-4.17,7.48-6.84,10.13-12.44,2.82-6,4.13-13.22,4.07-14.56-.36-7.23,0-5.32.23-11.56C98.6,40.38,91.62,37.36,89.64,35.07Z"/><path class="cls-11" d="M77.84,57.55c-.34,2.19-2.38,10.23-1.08,11,8.11,4.72,17-1.26,17-1.26C94.38,53.69,77.84,57.55,77.84,57.55Z"/><path class="cls-12" d="M50.35,67.47s8.62,5.69,16.91.42c1.27-.8-1.23-8-1.59-10.13C65.67,57.76,49.65,52.69,50.35,67.47Z"/><path class="cls-13" d="M72.63,96c-1.55,0-5.44,1-5.33,1.6.34,1.7,4,2,5.5,2s4.7-.39,4.76-1.85C77.59,97.11,74.19,95.94,72.63,96Z"/><path class="cls-14" d="M86.63,84.07c4.47.3,9.9-.27,10.83-9.43.54-5.22-.45-7.94-2.67-8.35-4.69-.87-11.42,1.16-14.22,2.6C74.65,72,78.71,83.54,86.63,84.07Z"/><path class="cls-15" d="M94.27,69.14c-.81-.45-1.41.2-3.09.74s-6.13,1.38-4,2.51c2.33,1.25,5.59-.46,6-.79S95.26,69.69,94.27,69.14Z"/><path class="cls-16" d="M61.89,68.46C60.61,68,50.88,65.8,48,66.64c-1.65.47-1.31,3.09-1.42,6.16a31.61,31.61,0,0,0,.8,6.9c1.88,5.16,9.44,5.39,13.57,4C68,81.19,68.38,70.8,61.89,68.46Z"/><path class="cls-17" d="M82.63,77.91c5.79,4.68,3.44,8,2.24,9.23,2.23-1.87,5.23-4,5-4.77C89.19,79.38,82.63,77.91,82.63,77.91Z"/><path class="cls-18" d="M55.85,82.82c.13.91,2.71,3.17,4.41,4.93,0,0-4.53-4.88,1.77-9.27C62,78.48,55.4,79.74,55.85,82.82Z"/><path class="cls-19" d="M53.2,69.63c-1.7-.46-2.33-1.07-3.11-.59-1,.61.83,2.11,1.24,2.41s3.76,1.85,6,.48C59.4,70.69,54.87,70.08,53.2,69.63Z"/><path class="cls-20" d="M59.44,61.5c-1.36-.08-4.25.33-5.22,1.07C52.49,63.9,51.88,65.1,52,66.62c0,.44,1.89,2.16,5.82,2.46,2.94.22,7.61,0,8.74-1.21.54-.59-.16-2.92-.38-3.75C65.8,62.56,63.57,61.72,59.44,61.5Z"/><path class="cls-21" d="M62.32,63.11c-6.3-.75-5.92.18-8.48,3.06a2.4,2.4,0,0,0,.39,1,4.38,4.38,0,0,0,2.63,1.51,14,14,0,0,0,7.06-.15c.74-.15,1.55-.84,1.53-1.15a5.14,5.14,0,0,0-.39-2.42A3.19,3.19,0,0,0,62.32,63.11Z"/><path class="cls-22" d="M53.84,66.17a2.17,2.17,0,0,0,.36.93c4.53-2.76,9.42-2.13,10.86-2.17-2.56-1.61-6.31-1.25-8.16-1.45C54.55,63.23,53.84,66.17,53.84,66.17Z"/><path class="cls-23" d="M59.76,63.46a3.43,3.43,0,0,0-3.5,3.67,2.43,2.43,0,0,0,.6,1.52,13.72,13.72,0,0,0,3,.37A11.14,11.14,0,0,0,63,68.71,4,4,0,0,0,63.52,67C63.64,64.92,62.21,63.34,59.76,63.46Z"/><path class="cls-24" d="M59.61,63.2a3.66,3.66,0,0,0-3.3,2.85A16.84,16.84,0,0,1,63,64.9,3.89,3.89,0,0,0,59.61,63.2Z"/><path class="cls-25" d="M59.83,64a2.14,2.14,0,1,0,2.25,2.09A2.19,2.19,0,0,0,59.83,64Z"/><path class="cls-26" d="M63.77,63.46c-2.22-1.22-5.69-1-7.91-.1a2.93,2.93,0,0,0-2,2.81S55,64.9,58.71,64.4a13.67,13.67,0,0,1,6.35.53A3.46,3.46,0,0,0,63.77,63.46Z"/><path class="cls-27" d="M61.64,66.34a.92.92,0,0,0-.46,1.22,1,1,0,0,0,1.27.36.89.89,0,0,0,.46-1.21A1,1,0,0,0,61.64,66.34Z"/><path class="cls-27" d="M59.66,65.44a.72.72,0,0,0-.36,1,.75.75,0,0,0,1,.29.7.7,0,0,0,.36-1A.77.77,0,0,0,59.66,65.44Z"/><path class="cls-28" d="M89.64,62.57c-1-.74-3.87-1.15-5.23-1.07-4.13.22-6.36,1.06-6.77,2.62-.22.83-.92,3.16-.38,3.75,1.13,1.22,5.8,1.43,8.74,1.21,3.93-.3,5.78-2,5.82-2.46C92,65.1,91.36,63.9,89.64,62.57Z"/><path class="cls-29" d="M81.53,63.11a3.19,3.19,0,0,0-2.74,1.82,5.29,5.29,0,0,0-.39,2.42c0,.31.8,1,1.53,1.15a14,14,0,0,0,7.07.15,4.35,4.35,0,0,0,2.62-1.51,2.24,2.24,0,0,0,.39-1C87.46,63.29,87.84,62.36,81.53,63.11Z"/><path class="cls-22" d="M87,63.48c-1.85.2-5.6-.16-8.16,1.45,1.44,0,6.33-.59,10.86,2.17a2.17,2.17,0,0,0,.36-.93S89.3,63.23,87,63.48Z"/><path class="cls-30" d="M84.09,63.46c-2.45-.12-3.88,1.46-3.76,3.52a4.11,4.11,0,0,0,.57,1.73A11.19,11.19,0,0,0,84,69a13.93,13.93,0,0,0,3-.37,2.55,2.55,0,0,0,.6-1.52A3.45,3.45,0,0,0,84.09,63.46Z"/><path class="cls-31" d="M84.24,63.2a3.9,3.9,0,0,0-3.4,1.7,16.84,16.84,0,0,1,6.7,1.15A3.66,3.66,0,0,0,84.24,63.2Z"/><path class="cls-32" d="M84,64a2.16,2.16,0,0,0-2.24,2.09A2.22,2.22,0,1,0,84,64Z"/><path class="cls-33" d="M88,63.36c-2.22-.89-5.69-1.12-7.91.1a3.46,3.46,0,0,0-1.29,1.47,13.67,13.67,0,0,1,6.35-.53c3.73.5,4.87,1.77,4.87,1.77A2.93,2.93,0,0,0,88,63.36Z"/><path class="cls-27" d="M85.84,66.24A1,1,0,0,0,85,67.31a1,1,0,0,0,1,.84,1,1,0,0,0,.84-1.07A1,1,0,0,0,85.84,66.24Z"/><path class="cls-27" d="M83.76,65.36a.75.75,0,0,0-.66.84A.75.75,0,1,0,84.59,66,.75.75,0,0,0,83.76,65.36Z"/><path class="cls-34" d="M89.31,57.62A25.86,25.86,0,0,0,78.6,56.23a2.24,2.24,0,0,0,0,1.86,2.35,2.35,0,0,1-.46-1.8c-.85.4,0,2.73,0,2.73,1.57.08,5.67-.19,8.69.35a39,39,0,0,1,5,1.14A4,4,0,0,0,89.31,57.62Z"/><path class="cls-35" d="M65.53,56.29a2.31,2.31,0,0,1-.45,1.8,2.24,2.24,0,0,0,0-1.86,25.86,25.86,0,0,0-10.71,1.39,4,4,0,0,0-2.58,2.89,39,39,0,0,1,5-1.14c3-.54,7.12-.27,8.69-.35C65.5,59,66.39,56.69,65.53,56.29Z"/><path class="cls-36" d="M90.88,38.77c-9.93-6.88-36.53-.11-39.25-.05S46.56,72.8,46.56,72.8s2.81-10.4,5.07-13.93C57.27,50,51,44.53,54.26,43.18s10.05,3,15.38,4.4c12.14,3.23,16.06,1.55,20.27-3.92C93.3,48.49,86.52,50.4,93.56,60c1.58,2.16,4,12.13,4,12.13S100.82,45.64,90.88,38.77Z"/><path class="cls-37" d="M46.56,72.8s0,8.71,1.76,13,4.43,6.41,6.28,8.34,8,7.21,8,7.21-4.82-7.89-6.06-9.3S48.32,86.4,46.56,72.8Z"/><path class="cls-38" d="M87.13,92.57c-1.24,1.41-3.87,8.83-3.87,8.83s4.79-5.18,6.64-7.11,5.1-4.89,6.4-9.36c.69-2.4,1.26-11.56,1.26-11.56C94.57,89,88.36,91.16,87.13,92.57Z"/><path class="cls-39" d="M71.9,68.49c-2.52,0-7.86,3.25-7.86,4.6s5.63-.63,8.15-.63,7.57,1.88,7.57.54S74.43,68.49,71.9,68.49Z"/><path class="cls-40" d="M74.5,78.54c3.1-.76,4.32-.3,4.32-.3C77,76.67,74.5,78.54,74.5,78.54Z"/><path class="cls-40" d="M65.7,78a9.48,9.48,0,0,1,4,.56S67.37,76.79,65.7,78Z"/><path class="cls-41" d="M76.9,73.45c0,1.25.27,2.09-.12,2.81-.86,1.6-3.1,2.23-4.59,2.11-1.13.13-3.79-.43-4.89-2.1-.45-.68-.17-1.29-.37-2.63,0,0-3.07,3.66-1.23,4.37a3.18,3.18,0,0,1,2-.27c1.48.14,1.17,1.75,4.58,1.78,3,0,2-1.38,3.92-1.64a3,3,0,0,1,2.56.39C79.73,78.27,79.05,75.18,76.9,73.45Z"/><path class="cls-42" d="M69,75.6c-.13.82,1,1.7,3.12,1.71,2.3,0,2.81-.87,2.62-1.63C73.63,71.22,69.5,72.55,69,75.6Z"/><path class="cls-43" d="M62.64,101.4A14.52,14.52,0,0,0,73,105.87a15.67,15.67,0,0,0,10.31-4.47c-3.86,2.24-5.36,3.14-10.52,3.18A19.43,19.43,0,0,1,62.64,101.4Z"/><path class="cls-44" d="M95.23,30.26c-1.06-.62-2.26.67-3.4.51-.23,0,3.09-2.37-2.19-5l.63,3.41c-5.79-4.21-6.6-7.59-18.8-5.53-5.11.87-16.61,4.21-20,7.78-4.76,4.92.06.74-4.28.9,2.94,1-2.74,5.3-.74,4.71-2.33,1.46-4.48,1.9-5.35,7.33-.49,3,.86,6,1.58,8.81.23.9.49,1.79.79,2.66a6.5,6.5,0,0,1,.14,2.81c-.09,1.27.16,4.78.16,4.78a9.21,9.21,0,0,1,2.75,5.9c0,.59.09,2.34.09,3.45l.75-3.91c.46-2.47.19-5.34,1.22-7.62s1.83-4.29,2.9-6.36A5.9,5.9,0,0,0,52,53.23c.31-1.94-2-3.76-2.07-5.72-.12-2.34-1.68-5.3.55-6.42s7.49-.38,9.9,0c2.77.4,5.62,1,8.32-.09a7.74,7.74,0,0,0-.86,2.88c2.17-3.58,6.73-3.5,10.48-3.6,3.09-.09,9.78-.15,12.07-2.82,2.24,2.5,2.61,5.56,3,8.71s-.42,4.57,1.18,7.5c.7,1.27.83,4.87,1.13,6.29s.63,3.12.92,4.68.71,6.79,1,8.35c.2-1.67.27-7.68,1.46-9a4.89,4.89,0,0,1,1-.61s.3-3.45.29-4a13.54,13.54,0,0,1,.25-3.71c1-4.72,2.54-12,1.85-15.78A14.52,14.52,0,0,0,95.23,30.26Z"/><path class="cls-45" d="M97.56,45.28c2.07-6.38-5.76-8.47-7.31-10.05C84,44.77,65.78,39.68,60.72,38.77c-7.24-1.31-13.21,1.31-14.16,3.81-1.15,3,3.5,5.58,3.09,9.48s-4.55,5.58-3.29,15.59c.2,1.79.2,4.3.2,5.15l.75-3.91c.46-2.47.19-5.34,1.22-7.62.89-2,3.35-7.15,3.49-8,.29-1.92-1.77-10.25.45-11.37s5.48-.57,7.89-.23A16.21,16.21,0,0,0,68.72,41a7.74,7.74,0,0,0-.86,2.88c2.17-3,6.78-1.83,10.52-1.93,3.1-.08,8.79-1,11.07-3.63,2.24,2.5,3.57,4.7,3.94,7.85s-1.6,5.19,0,8.11a30.35,30.35,0,0,1,2.31,5.68c.32,1.55.63,3.12.92,4.68a82.47,82.47,0,0,1,1,8.35C99.93,49.75,94.6,54.38,97.56,45.28Z"/><path class="cls-46" d="M77.4,29.2c-3.07,1.35-5.22,4.11-7.89,6-5.65,4.07-11.36,1.4-17-1.1,4.47,5.63,11.34,10,18.44,5.92,3.14-1.78,5-4.65,7.53-7.08a11.85,11.85,0,0,1,8.38-3.16A9.94,9.94,0,0,0,77.4,29.2Z"/><path class="cls-47" d="M82.64,39.76c-2.72,1.06-6.52-.34-9.27-.85-3-.57-4.7-.88-7.46.58-6.19,3.3-5,8.55-4,10.72,1.38-4.71,6.1-5,8.72-4.38,3,.71,8.82,1.4,11.94.65,5.23-1.26,9.32-6.18,7.18-14.13C90.25,35.23,85.35,38.71,82.64,39.76Z"/><path class="cls-48" d="M69,30.77c-3.9,9.39-16.54,3.36-16.54,3.36C67.1,43.31,75.1,30.48,77.4,29.2a8.83,8.83,0,0,1,9.42.61C80.15,23.22,71.67,24.35,69,30.77Z"/><path class="cls-49" d="M92.81,29.36s1.76-3.1-4.87-5.05c0,0,2.86,2.23,1.66,6.69,0,0,11.38,0,12.59,16.19,0,0,1.84-7.38-.73-12C100.09,32.79,96.53,29.71,92.81,29.36Z"/><path class="cls-50" d="M42.31,52S40.66,42,46.4,37.06C46.4,37.06,37.32,39.87,42.31,52Z"/><path class="cls-51" d="M64.68,24.06c-5.4,3.82-12.83,1.87-17.09,4.55-9.42,5.92-2.07,11.69-5.67,14,6.72-.95,1.8-5.52,9.5-10.19,3.23-2,7.22,0,12.54-1.84,4.51-1.53,6.81-7.09,13.9-6.49,4.61.39,8.67,2.88,11.74,4.62C80.93,21.3,73.58,17.76,64.68,24.06Z"/><path class="cls-52" d="M83.52,83.43a25.78,25.78,0,0,0,3.12-.87,2.58,2.58,0,0,0,.49-.92l-1.83.55Z"/><path class="cls-53" d="M57.49,81.82a2.68,2.68,0,0,0,.49.93,27.63,27.63,0,0,0,3.13.86l-1.79-1.24Z"/><path class="cls-54" d="M66.49,94.2a48.82,48.82,0,0,1,12.76.09C73.47,90.74,66.49,94.2,66.49,94.2Z"/><path class="cls-55" d="M58.18,82.17c.15.16.26.38.46.47,3.66,1.6,3.71,3.12,5.28,4a17.74,17.74,0,0,0,16.41-.14c2.51-1.37,2.83-3,5.83-4.12a.72.72,0,0,0,.48-.46C70.6,85.75,58.18,82.17,58.18,82.17Z"/><path class="cls-56" d="M72.56,89.72c-2.17,0-4.31-.42-4.31,0s1.89,1.35,4,1.35,4.31-.93,4.31-1.35S74.72,89.72,72.56,89.72Z"/><path class="cls-57" d="M78.8,85.47a36.71,36.71,0,0,1-6.78.84,41.61,41.61,0,0,1-7.19-.78c-.68-.12-1,1-1,1,2,1.47,4.49,2,8.41,2.06a13.89,13.89,0,0,0,8.13-2.2S79.66,85.3,78.8,85.47Z"/><path class="cls-58" d="M64.56,90.26c8.36,6.57,16.36-.45,16.36-.45A19,19,0,0,1,64.56,90.26Z"/><path class="cls-59" d="M61.81,82.93a2.33,2.33,0,0,0,1.45,1.95c.81.35,2.62,1.71,9.68,1.5s8.46-1.9,8.78-2.19a3.7,3.7,0,0,0,.87-1.48S72,84.77,61.81,82.93Z"/><path class="cls-60" d="M61.78,82.8a2.6,2.6,0,0,0,.28,1c.19.31,5.83,1.12,10.09,1.15a40,40,0,0,0,10-1.3,3.15,3.15,0,0,0,.47-1S77.85,84.17,61.78,82.8Z"/><path class="cls-61" d="M57.3,81.74s1,.59.88.43c0,0,12.42,3.58,28.46-.29l.87-.43C78.8,82.88,57.3,81.74,57.3,81.74Z"/><path class="cls-62" d="M76.64,69.44a.23.23,0,0,0-.23.23.23.23,0,0,0,.46,0A.23.23,0,0,0,76.64,69.44Z"/><path class="cls-62" d="M67.54,69.16a.29.29,0,0,0-.3.29.3.3,0,1,0,.59,0A.29.29,0,0,0,67.54,69.16Z"/><path class="cls-62" d="M73.66,68a.24.24,0,1,0,.24.23A.24.24,0,0,0,73.66,68Z"/><path class="cls-62" d="M70.91,68.3a.35.35,0,0,0-.35.34.35.35,0,0,0,.7,0A.35.35,0,0,0,70.91,68.3Z"/><path class="cls-62" d="M73.9,70.23a.34.34,0,1,0,0,.68.34.34,0,1,0,0-.68Z"/><path class="cls-62" d="M70.1,70.33a.35.35,0,0,0-.35.35.35.35,0,0,0,.7,0A.35.35,0,0,0,70.1,70.33Z"/><path class="cls-62" d="M64,72.15a.3.3,0,1,0,0,.59.3.3,0,1,0,0-.59Z"/><path class="cls-62" d="M78.82,73.08a.3.3,0,1,0,.3.29A.3.3,0,0,0,78.82,73.08Z"/><path class="cls-62" d="M60.07,71.06a.3.3,0,0,0-.3.3.3.3,0,0,0,.59,0A.3.3,0,0,0,60.07,71.06Z"/><path class="cls-62" d="M83.82,71.06a.31.31,0,0,0-.3.3.3.3,0,0,0,.6,0A.31.31,0,0,0,83.82,71.06Z"/><path class="cls-62" d="M68.13,72.15a.3.3,0,1,0,0,.59.3.3,0,1,0,0-.59Z"/><circle class="cls-62" cx="80" cy="71.06" r="0.3"/><path class="cls-63" d="M81.4,44.53c-8.49,1.41-11.1-2-16.34,0a4.65,4.65,0,0,0-3.13,5.68s1.47-4.61,5.9-4.07,8.66,1.57,14.21.45,9.24-5.36,8.21-11.36A10.19,10.19,0,0,1,81.4,44.53Z"/></svg>