<svg id="Layer_1" data-name="Layer 1" xmlns="http://www.w3.org/2000/svg" xmlns:xlink="http://www.w3.org/1999/xlink" viewBox="0 0 144 144"><defs><style>.cls-1{fill:#f6ece6;}.cls-2{fill:#efb480;}.cls-3{fill:url(#linear-gradient);}.cls-4{fill:url(#_ÂÁ_Ï_ÌÌ_È_ËÂÌÚ_153);}.cls-5{fill:url(#linear-gradient-2);}.cls-6{fill:url(#linear-gradient-3);}.cls-7{fill:url(#linear-gradient-4);}.cls-8{fill:url(#linear-gradient-5);}.cls-9{fill:url(#_ÂÁ_Ï_ÌÌ_È_ËÂÌÚ_120);}.cls-10{fill:url(#linear-gradient-6);}.cls-11{fill:url(#linear-gradient-7);}.cls-12{fill:url(#linear-gradient-8);}.cls-13{fill:url(#linear-gradient-9);}.cls-14{fill:#2cb189;}.cls-15{fill:url(#linear-gradient-10);}.cls-16{fill:url(#linear-gradient-11);}.cls-17{fill:url(#linear-gradient-12);}.cls-18{fill:url(#linear-gradient-13);}.cls-19{fill:url(#linear-gradient-14);}.cls-20{fill:url(#_ÂÁ_Ï_ÌÌ_È_ËÂÌÚ_117);}.cls-21{fill:url(#_ÂÁ_Ï_ÌÌ_È_ËÂÌÚ_117-2);}.cls-22{fill:url(#_ÂÁ_Ï_ÌÌ_È_ËÂÌÚ_1022);}.cls-23{fill:url(#_ÂÁ_Ï_ÌÌ_È_ËÂÌÚ_1023);}.cls-24{fill:url(#linear-gradient-15);}.cls-25{fill:url(#linear-gradient-16);}.cls-26{fill:url(#linear-gradient-17);}.cls-27{fill:url(#_ÂÁ_Ï_ÌÌ_È_ËÂÌÚ_110);}.cls-28{fill:url(#_ÂÁ_Ï_ÌÌ_È_ËÂÌÚ_120-2);}.cls-29{fill:url(#_ÂÁ_Ï_ÌÌ_È_ËÂÌÚ_131);}.cls-30{fill:url(#_ÂÁ_Ï_ÌÌ_È_ËÂÌÚ_133);}.cls-31{fill:#ddd;}.cls-32{fill:url(#_ÂÁ_Ï_ÌÌ_È_ËÂÌÚ_131-2);}.cls-33{fill:url(#_ÂÁ_Ï_ÌÌ_È_ËÂÌÚ_141);}.cls-34{fill:url(#_ÂÁ_Ï_ÌÌ_È_ËÂÌÚ_134);}.cls-35{fill:url(#_ÂÁ_Ï_ÌÌ_È_ËÂÌÚ_129);}.cls-36{fill:url(#_ÂÁ_Ï_ÌÌ_È_ËÂÌÚ_128);}.cls-37{fill:#fff;}.cls-38{fill:url(#_ÂÁ_Ï_ÌÌ_È_ËÂÌÚ_331);}.cls-39{fill:url(#linear-gradient-18);}.cls-40{fill:#111;}.cls-41{fill:#391b13;}.cls-42{fill:url(#_ÂÁ_Ï_ÌÌ_È_ËÂÌÚ_120-3);}.cls-43{fill:url(#_ÂÁ_Ï_ÌÌ_È_ËÂÌÚ_131-3);}.cls-44{fill:url(#_ÂÁ_Ï_ÌÌ_È_ËÂÌÚ_133-2);}.cls-45{fill:url(#_ÂÁ_Ï_ÌÌ_È_ËÂÌÚ_131-4);}.cls-46{fill:url(#_ÂÁ_Ï_ÌÌ_È_ËÂÌÚ_129-2);}.cls-47{fill:url(#_ÂÁ_Ï_ÌÌ_È_ËÂÌÚ_130);}.cls-48{fill:url(#_ÂÁ_Ï_ÌÌ_È_ËÂÌÚ_129-3);}.cls-49{fill:url(#_ÂÁ_Ï_ÌÌ_È_ËÂÌÚ_128-2);}.cls-50{fill:url(#_ÂÁ_Ï_ÌÌ_È_ËÂÌÚ_331-2);}.cls-51{fill:url(#linear-gradient-19);}.cls-52{fill:url(#linear-gradient-20);}.cls-53{fill:url(#linear-gradient-21);}.cls-54{fill:url(#linear-gradient-22);}.cls-55{fill:#971b27;}.cls-56{fill:url(#linear-gradient-23);}.cls-57{fill:url(#linear-gradient-24);}.cls-58{fill:#f26d79;}.cls-59{fill:url(#linear-gradient-25);}.cls-60{fill:#f598a2;}.cls-61{fill:url(#linear-gradient-26);}.cls-62{fill:url(#linear-gradient-27);}.cls-63{fill:url(#_ÂÁ_Ï_ÌÌ_È_ËÂÌÚ_117-3);}.cls-64{fill:url(#linear-gradient-28);}.cls-65{fill:url(#linear-gradient-29);}.cls-66{fill:url(#linear-gradient-30);}.cls-67{fill:url(#_ÂÁ_Ï_ÌÌ_È_ËÂÌÚ_117-4);}.cls-68{fill:url(#linear-gradient-31);}.cls-69{fill:url(#linear-gradient-32);}.cls-70{fill:url(#linear-gradient-33);}.cls-71{fill:url(#linear-gradient-34);}.cls-72{fill:url(#linear-gradient-35);}.cls-73{fill:url(#_ÂÁ_Ï_ÌÌ_È_ËÂÌÚ_110-2);}.cls-74{fill:url(#linear-gradient-36);}.cls-75{fill:url(#linear-gradient-37);}.cls-76{fill:url(#_ÂÁ_Ï_ÌÌ_È_ËÂÌÚ_153-2);}.cls-77{fill:url(#_ÂÁ_Ï_ÌÌ_È_ËÂÌÚ_153-3);}.cls-78{fill:url(#_ÂÁ_Ï_ÌÌ_È_ËÂÌÚ_153-4);}.cls-79{fill:url(#_ÂÁ_Ï_ÌÌ_È_ËÂÌÚ_153-5);}.cls-80{fill:url(#_ÂÁ_Ï_ÌÌ_È_ËÂÌÚ_153-6);}.cls-81{fill:url(#_ÂÁ_Ï_ÌÌ_È_ËÂÌÚ_153-7);}.cls-82{fill:url(#_ÂÁ_Ï_ÌÌ_È_ËÂÌÚ_153-8);}.cls-83{fill:url(#linear-gradient-38);}.cls-84{fill:url(#linear-gradient-39);}.cls-85{fill:#5c2b20;}.cls-86{fill:url(#_ÂÁ_Ï_ÌÌ_È_ËÂÌÚ_153-9);}.cls-87{fill:url(#linear-gradient-40);}.cls-88{fill:url(#linear-gradient-41);}.cls-89{fill:url(#linear-gradient-42);}.cls-90{fill:url(#linear-gradient-43);}.cls-91{fill:url(#linear-gradient-44);}.cls-92{fill:url(#linear-gradient-45);}.cls-93{fill:url(#linear-gradient-46);}.cls-94{fill:url(#linear-gradient-47);}.cls-95{fill:url(#linear-gradient-48);}.cls-96{fill:#efb385;}</style><linearGradient id="linear-gradient" x1="87.92" y1="154.18" x2="87.92" y2="85.56" gradientUnits="userSpaceOnUse"><stop offset="0.23" stop-color="#492319"/><stop offset="1" stop-color="#663024"/></linearGradient><linearGradient id="_ÂÁ_Ï_ÌÌ_È_ËÂÌÚ_153" x1="115.41" y1="59.32" x2="102.41" y2="81.16" gradientUnits="userSpaceOnUse"><stop offset="0" stop-color="#422018"/><stop offset="0.44" stop-color="#52281f"/><stop offset="1" stop-color="#6c342a"/></linearGradient><linearGradient id="linear-gradient-2" x1="39.66" y1="67.42" x2="85.61" y2="125.5" gradientUnits="userSpaceOnUse"><stop offset="0" stop-color="#d79268"/><stop offset="0.33" stop-color="#da976b"/><stop offset="0.72" stop-color="#e4a575"/><stop offset="1" stop-color="#efb480"/></linearGradient><linearGradient id="linear-gradient-3" x1="86.51" y1="116.02" x2="70.23" y2="118.42" xlink:href="#linear-gradient-2"/><linearGradient id="linear-gradient-4" x1="73.96" y1="114.95" x2="99.8" y2="110.91" xlink:href="#linear-gradient-2"/><linearGradient id="linear-gradient-5" x1="72.48" y1="116.28" x2="49.8" y2="110.32" xlink:href="#linear-gradient-2"/><linearGradient id="_ÂÁ_Ï_ÌÌ_È_ËÂÌÚ_120" x1="69.81" y1="91.58" x2="89.52" y2="119.96" gradientUnits="userSpaceOnUse"><stop offset="0" stop-color="#cb8663"/><stop offset="0.04" stop-color="#cd8965"/><stop offset="0.39" stop-color="#dfa074"/><stop offset="0.72" stop-color="#eaae7d"/><stop offset="1" stop-color="#eeb380"/></linearGradient><linearGradient id="linear-gradient-6" x1="102.53" y1="141.61" x2="104.56" y2="108.1" xlink:href="#linear-gradient-2"/><linearGradient id="linear-gradient-7" x1="40.09" y1="142.77" x2="42.22" y2="107.73" xlink:href="#linear-gradient-2"/><linearGradient id="linear-gradient-8" x1="71.05" y1="156.25" x2="73.2" y2="123.78" xlink:href="#linear-gradient-2"/><linearGradient id="linear-gradient-9" x1="16.3" y1="84.84" x2="116.74" y2="145.86" xlink:href="#linear-gradient-2"/><linearGradient id="linear-gradient-10" x1="38.69" y1="132.03" x2="40.4" y2="137.35" gradientUnits="userSpaceOnUse"><stop offset="0" stop-color="#f15b40"/><stop offset="0.45" stop-color="#e74a33"/><stop offset="1" stop-color="#de3926"/></linearGradient><linearGradient id="linear-gradient-11" x1="46.37" y1="77.96" x2="46.87" y2="65.99" xlink:href="#linear-gradient-2"/><linearGradient id="linear-gradient-12" x1="47.69" y1="134.65" x2="48.31" y2="156.3" gradientUnits="userSpaceOnUse"><stop offset="0" stop-color="#d79268"/><stop offset="0.6" stop-color="#d28d66"/><stop offset="1" stop-color="#cb8663"/></linearGradient><linearGradient id="linear-gradient-13" x1="96.42" y1="80.03" x2="96.92" y2="68.07" xlink:href="#linear-gradient-2"/><linearGradient id="linear-gradient-14" x1="99.45" y1="133.63" x2="100.06" y2="154.96" xlink:href="#linear-gradient-12"/><linearGradient id="_ÂÁ_Ï_ÌÌ_È_ËÂÌÚ_117" x1="83.59" y1="70.75" x2="85.2" y2="41.4" gradientUnits="userSpaceOnUse"><stop offset="0" stop-color="#efb480"/><stop offset="0.03" stop-color="#eeb380"/><stop offset="0.34" stop-color="#e6a778"/><stop offset="1" stop-color="#d79268"/></linearGradient><linearGradient id="_ÂÁ_Ï_ÌÌ_È_ËÂÌÚ_117-2" x1="59.39" y1="69.43" x2="61" y2="40.09" xlink:href="#_ÂÁ_Ï_ÌÌ_È_ËÂÌÚ_117"/><radialGradient id="_ÂÁ_Ï_ÌÌ_È_ËÂÌÚ_1022" cx="38.34" cy="128.25" r="20.48" gradientTransform="translate(35.83 5.47) scale(0.55 0.54)" gradientUnits="userSpaceOnUse"><stop offset="0" stop-color="#eb926e"/><stop offset="0.8" stop-color="#efb480"/></radialGradient><radialGradient id="_ÂÁ_Ï_ÌÌ_È_ËÂÌÚ_1023" cx="90.5" cy="126.9" r="21.24" gradientTransform="translate(35.83 5.47) scale(0.55 0.54)" gradientUnits="userSpaceOnUse"><stop offset="0" stop-color="#eb926e"/><stop offset="0.78" stop-color="#efb480"/></radialGradient><linearGradient id="linear-gradient-15" x1="73.57" y1="102.8" x2="72.21" y2="90.4" gradientUnits="userSpaceOnUse"><stop offset="0" stop-color="#efb480"/><stop offset="0.23" stop-color="#efb683"/><stop offset="1" stop-color="#eeb986"/></linearGradient><linearGradient id="linear-gradient-16" x1="47.83" y1="77.61" x2="61.75" y2="77.61" xlink:href="#linear-gradient-2"/><linearGradient id="linear-gradient-17" x1="81.85" y1="77.63" x2="95.74" y2="77.63" xlink:href="#linear-gradient-15"/><linearGradient id="_ÂÁ_Ï_ÌÌ_È_ËÂÌÚ_110" x1="73.97" y1="96.36" x2="69.68" y2="24.91" gradientUnits="userSpaceOnUse"><stop offset="0" stop-color="#d79268"/><stop offset="0.66" stop-color="#e6a777"/><stop offset="1" stop-color="#efb480"/></linearGradient><linearGradient id="_ÂÁ_Ï_ÌÌ_È_ËÂÌÚ_120-2" x1="-2910.85" y1="61.31" x2="-2923.93" y2="66.39" gradientTransform="translate(3000.64)" xlink:href="#_ÂÁ_Ï_ÌÌ_È_ËÂÌÚ_120"/><linearGradient id="_ÂÁ_Ï_ÌÌ_È_ËÂÌÚ_131" x1="-2923.64" y1="64.35" x2="-2919.62" y2="64.35" gradientTransform="translate(3000.64)" gradientUnits="userSpaceOnUse"><stop offset="0" stop-color="#fff"/><stop offset="0.41" stop-color="#fcfcfc"/><stop offset="0.69" stop-color="#f3f3f3"/><stop offset="0.92" stop-color="#e5e5e5"/><stop offset="1" stop-color="#ddd"/></linearGradient><linearGradient id="_ÂÁ_Ï_ÌÌ_È_ËÂÌÚ_133" x1="3015.13" y1="65.38" x2="3016.36" y2="66.27" gradientTransform="matrix(-1, 0, 0, 1, 3093.66, 0)" gradientUnits="userSpaceOnUse"><stop offset="0" stop-color="#fff"/><stop offset="0.46" stop-color="#f2f2f2"/><stop offset="1" stop-color="#ddd"/></linearGradient><linearGradient id="_ÂÁ_Ï_ÌÌ_È_ËÂÌÚ_131-2" x1="-2914.74" y1="64.23" x2="-2911.55" y2="64.23" xlink:href="#_ÂÁ_Ï_ÌÌ_È_ËÂÌÚ_131"/><linearGradient id="_ÂÁ_Ï_ÌÌ_È_ËÂÌÚ_141" x1="-2912.65" y1="67.78" x2="-2922.01" y2="61.93" gradientTransform="translate(3000.64)" gradientUnits="userSpaceOnUse"><stop offset="0" stop-color="#97aec6"/><stop offset="1" stop-color="#6e8295"/></linearGradient><linearGradient id="_ÂÁ_Ï_ÌÌ_È_ËÂÌÚ_134" x1="3007.06" y1="64.33" x2="3013.7" y2="64.33" gradientTransform="matrix(-1, 0, 0, 1, 3093.66, 0)" gradientUnits="userSpaceOnUse"><stop offset="0" stop-color="#a8c3dd"/><stop offset="1" stop-color="#7a91a5"/></linearGradient><linearGradient id="_ÂÁ_Ï_ÌÌ_È_ËÂÌÚ_129" x1="3010.74" y1="66.27" x2="3011.6" y2="72.72" gradientTransform="matrix(-1, 0, 0, 1, 3093.66, 0)" gradientUnits="userSpaceOnUse"><stop offset="0" stop-color="#6e8295"/><stop offset="1" stop-color="#97aec6"/></linearGradient><radialGradient id="_ÂÁ_Ï_ÌÌ_È_ËÂÌÚ_128" cx="3007.55" cy="107.64" r="4.3" gradientTransform="matrix(-0.55, 0, 0, 0.54, 1740.68, 5.47)" gradientUnits="userSpaceOnUse"><stop offset="0" stop-color="#676767"/><stop offset="1" stop-color="#1d1d1d"/></radialGradient><linearGradient id="_ÂÁ_Ï_ÌÌ_È_ËÂÌÚ_331" x1="-2923.63" y1="63.95" x2="-2908.87" y2="63.95" gradientTransform="translate(3000.64)" gradientUnits="userSpaceOnUse"><stop offset="0" stop-color="#5b2b20"/><stop offset="0.31" stop-color="#4a2319"/><stop offset="0.66" stop-color="#3d1d15"/><stop offset="1" stop-color="#391b13"/></linearGradient><linearGradient id="linear-gradient-18" x1="-2917.22" y1="59.9" x2="-2926.96" y2="72.3" gradientTransform="translate(3000.64)" xlink:href="#linear-gradient-2"/><linearGradient id="_ÂÁ_Ï_ÌÌ_È_ËÂÌÚ_120-3" x1="39.69" y1="61.31" x2="26.61" y2="66.39" gradientTransform="matrix(-1, 0, 0, 1, 93.02, 0)" xlink:href="#_ÂÁ_Ï_ÌÌ_È_ËÂÌÚ_120"/><linearGradient id="_ÂÁ_Ï_ÌÌ_È_ËÂÌÚ_131-3" x1="26.9" y1="64.35" x2="30.92" y2="64.35" gradientTransform="matrix(-1, 0, 0, 1, 93.02, 0)" xlink:href="#_ÂÁ_Ï_ÌÌ_È_ËÂÌÚ_131"/><linearGradient id="_ÂÁ_Ï_ÌÌ_È_ËÂÌÚ_133-2" x1="64.59" y1="65.38" x2="65.82" y2="66.27" gradientTransform="matrix(1, 0, 0, 1, 0, 0)" xlink:href="#_ÂÁ_Ï_ÌÌ_È_ËÂÌÚ_133"/><linearGradient id="_ÂÁ_Ï_ÌÌ_È_ËÂÌÚ_131-4" x1="35.8" y1="64.23" x2="38.99" y2="64.23" gradientTransform="matrix(-1, 0, 0, 1, 93.02, 0)" xlink:href="#_ÂÁ_Ï_ÌÌ_È_ËÂÌÚ_131"/><linearGradient id="_ÂÁ_Ï_ÌÌ_È_ËÂÌÚ_129-2" x1="37.89" y1="67.78" x2="28.53" y2="61.93" gradientTransform="matrix(-1, 0, 0, 1, 93.02, 0)" xlink:href="#_ÂÁ_Ï_ÌÌ_È_ËÂÌÚ_129"/><linearGradient id="_ÂÁ_Ï_ÌÌ_È_ËÂÌÚ_130" x1="56.52" y1="64.33" x2="63.16" y2="64.33" gradientUnits="userSpaceOnUse"><stop offset="0" stop-color="#7a91a5"/><stop offset="1" stop-color="#a8c3dd"/></linearGradient><linearGradient id="_ÂÁ_Ï_ÌÌ_È_ËÂÌÚ_129-3" x1="60.2" y1="66.27" x2="61.06" y2="72.72" gradientTransform="matrix(1, 0, 0, 1, 0, 0)" xlink:href="#_ÂÁ_Ï_ÌÌ_È_ËÂÌÚ_129"/><radialGradient id="_ÂÁ_Ï_ÌÌ_È_ËÂÌÚ_128-2" cx="43.55" cy="107.64" r="4.3" gradientTransform="translate(35.83 5.47) scale(0.55 0.54)" xlink:href="#_ÂÁ_Ï_ÌÌ_È_ËÂÌÚ_128"/><linearGradient id="_ÂÁ_Ï_ÌÌ_È_ËÂÌÚ_331-2" x1="26.91" y1="63.95" x2="41.67" y2="63.95" gradientTransform="matrix(-1, 0, 0, 1, 93.02, 0)" xlink:href="#_ÂÁ_Ï_ÌÌ_È_ËÂÌÚ_331"/><linearGradient id="linear-gradient-19" x1="33.32" y1="59.9" x2="23.58" y2="72.3" gradientTransform="matrix(-1, 0, 0, 1, 93.02, 0)" xlink:href="#linear-gradient-2"/><linearGradient id="linear-gradient-20" x1="57.42" y1="77.74" x2="62.5" y2="82.17" xlink:href="#linear-gradient-12"/><linearGradient id="linear-gradient-21" x1="83.89" y1="78.61" x2="81.01" y2="82.16" xlink:href="#linear-gradient-12"/><linearGradient id="linear-gradient-22" x1="71.9" y1="80.93" x2="71.62" y2="89.07" xlink:href="#linear-gradient-12"/><linearGradient id="linear-gradient-23" x1="64.98" y1="83.77" x2="78.29" y2="83.77" gradientUnits="userSpaceOnUse"><stop offset="0" stop-color="#e8d9d7"/><stop offset="0.14" stop-color="#f0e6e4"/><stop offset="0.39" stop-color="#fbf8f8"/><stop offset="0.57" stop-color="#fff"/><stop offset="1" stop-color="#e8d3d1"/></linearGradient><linearGradient id="linear-gradient-24" x1="60.67" y1="82.27" x2="81.64" y2="82.27" gradientUnits="userSpaceOnUse"><stop offset="0" stop-color="#e8d9d7"/><stop offset="0.04" stop-color="#ebdfdd"/><stop offset="0.21" stop-color="#f6f1f0"/><stop offset="0.38" stop-color="#fdfbfb"/><stop offset="0.57" stop-color="#fff"/><stop offset="0.69" stop-color="#fbf8f8"/><stop offset="0.87" stop-color="#f1e5e3"/><stop offset="1" stop-color="#e8d3d1"/></linearGradient><linearGradient id="linear-gradient-25" x1="64.49" y1="84.6" x2="79.83" y2="84.6" gradientUnits="userSpaceOnUse"><stop offset="0" stop-color="#f26e7f"/><stop offset="0.02" stop-color="#f26f80"/><stop offset="0.24" stop-color="#f37986"/><stop offset="0.53" stop-color="#f37c88"/><stop offset="0.77" stop-color="#f37885"/><stop offset="1" stop-color="#f26d7d"/></linearGradient><linearGradient id="linear-gradient-26" x1="63.67" y1="81.94" x2="79.91" y2="81.94" gradientUnits="userSpaceOnUse"><stop offset="0" stop-color="#e8d9d7"/><stop offset="0.05" stop-color="#eadddb"/><stop offset="0.31" stop-color="#f6efef"/><stop offset="0.48" stop-color="#faf6f6"/><stop offset="1" stop-color="#e8d3d1"/></linearGradient><linearGradient id="linear-gradient-27" x1="65.94" y1="81.21" x2="77.56" y2="81.21" xlink:href="#linear-gradient-25"/><linearGradient id="_ÂÁ_Ï_ÌÌ_È_ËÂÌÚ_117-3" x1="71.5" y1="79.65" x2="71.44" y2="69.54" xlink:href="#_ÂÁ_Ï_ÌÌ_È_ËÂÌÚ_117"/><linearGradient id="linear-gradient-28" x1="71.48" y1="71.19" x2="71.7" y2="75.56" xlink:href="#linear-gradient-15"/><linearGradient id="linear-gradient-29" x1="74.92" y1="76.12" x2="75.3" y2="82.29" xlink:href="#linear-gradient-2"/><linearGradient id="linear-gradient-30" x1="68.27" y1="76.52" x2="68.65" y2="82.71" xlink:href="#linear-gradient-2"/><linearGradient id="_ÂÁ_Ï_ÌÌ_È_ËÂÌÚ_117-4" x1="71.34" y1="71.95" x2="71.5" y2="80.56" xlink:href="#_ÂÁ_Ï_ÌÌ_È_ËÂÌÚ_117"/><linearGradient id="linear-gradient-31" x1="72.21" y1="85.57" x2="71.29" y2="99" xlink:href="#linear-gradient-12"/><linearGradient id="linear-gradient-32" x1="77.68" y1="55.52" x2="92.17" y2="55.52" gradientUnits="userSpaceOnUse"><stop offset="0" stop-color="#683126"/><stop offset="0.34" stop-color="#53281e"/><stop offset="0.68" stop-color="#46221a"/><stop offset="1" stop-color="#422018"/></linearGradient><linearGradient id="linear-gradient-33" x1="50.69" y1="55.52" x2="65.15" y2="55.52" xlink:href="#linear-gradient-32"/><linearGradient id="linear-gradient-34" x1="72.51" y1="51.69" x2="74.57" y2="16.28" xlink:href="#linear-gradient"/><linearGradient id="linear-gradient-35" x1="72.26" y1="76.64" x2="72.26" y2="25" xlink:href="#linear-gradient"/><linearGradient id="_ÂÁ_Ï_ÌÌ_È_ËÂÌÚ_110-2" x1="70.43" y1="33.61" x2="71.5" y2="73.05" xlink:href="#_ÂÁ_Ï_ÌÌ_È_ËÂÌÚ_110"/><linearGradient id="linear-gradient-36" x1="48.14" y1="47.43" x2="49.08" y2="89.2" xlink:href="#linear-gradient"/><linearGradient id="linear-gradient-37" x1="95.07" y1="45.39" x2="96.02" y2="87.81" xlink:href="#linear-gradient"/><linearGradient id="_ÂÁ_Ï_ÌÌ_È_ËÂÌÚ_153-2" x1="115.27" y1="54.02" x2="100.93" y2="78.12" xlink:href="#_ÂÁ_Ï_ÌÌ_È_ËÂÌÚ_153"/><linearGradient id="_ÂÁ_Ï_ÌÌ_È_ËÂÌÚ_153-3" x1="72.37" y1="68.91" x2="71.89" y2="41.15" xlink:href="#_ÂÁ_Ï_ÌÌ_È_ËÂÌÚ_153"/><linearGradient id="_ÂÁ_Ï_ÌÌ_È_ËÂÌÚ_153-4" x1="80.2" y1="61.83" x2="79.51" y2="38.77" xlink:href="#_ÂÁ_Ï_ÌÌ_È_ËÂÌÚ_153"/><linearGradient id="_ÂÁ_Ï_ÌÌ_È_ËÂÌÚ_153-5" x1="87.6" y1="61.22" x2="86.91" y2="38.47" xlink:href="#_ÂÁ_Ï_ÌÌ_È_ËÂÌÚ_153"/><linearGradient id="_ÂÁ_Ï_ÌÌ_È_ËÂÌÚ_153-6" x1="93.82" y1="61.83" x2="93.11" y2="38.44" xlink:href="#_ÂÁ_Ï_ÌÌ_È_ËÂÌÚ_153"/><linearGradient id="_ÂÁ_Ï_ÌÌ_È_ËÂÌÚ_153-7" x1="63.4" y1="63.99" x2="62.67" y2="39.61" xlink:href="#_ÂÁ_Ï_ÌÌ_È_ËÂÌÚ_153"/><linearGradient id="_ÂÁ_Ï_ÌÌ_È_ËÂÌÚ_153-8" x1="56.25" y1="63.11" x2="55.54" y2="39.58" xlink:href="#_ÂÁ_Ï_ÌÌ_È_ËÂÌÚ_153"/><linearGradient id="linear-gradient-38" x1="87.02" y1="45.69" x2="89.06" y2="10.73" xlink:href="#linear-gradient"/><linearGradient id="linear-gradient-39" x1="56.63" y1="43.94" x2="58.67" y2="8.95" xlink:href="#linear-gradient"/><linearGradient id="_ÂÁ_Ï_ÌÌ_È_ËÂÌÚ_153-9" x1="50.66" y1="62.13" x2="49.97" y2="39.32" xlink:href="#_ÂÁ_Ï_ÌÌ_È_ËÂÌÚ_153"/><linearGradient id="linear-gradient-40" x1="107.3" y1="132.08" x2="107.14" y2="137.83" xlink:href="#linear-gradient-2"/><linearGradient id="linear-gradient-41" x1="96.55" y1="123.24" x2="48.65" y2="123.24" gradientUnits="userSpaceOnUse"><stop offset="0" stop-color="#fff"/><stop offset="0.36" stop-color="#f9f8fa"/><stop offset="1" stop-color="#f1f0f4"/></linearGradient><linearGradient id="linear-gradient-42" x1="104.98" y1="123.23" x2="100.07" y2="123.23" xlink:href="#linear-gradient-41"/><linearGradient id="linear-gradient-43" x1="44.81" y1="123.42" x2="39.1" y2="123.42" xlink:href="#linear-gradient-41"/><linearGradient id="linear-gradient-44" x1="36.98" y1="132.12" x2="36.82" y2="137.83" xlink:href="#linear-gradient-2"/><linearGradient id="linear-gradient-45" x1="35.88" y1="134.26" x2="35.83" y2="134.01" xlink:href="#linear-gradient-2"/><linearGradient id="linear-gradient-46" x1="108.09" y1="131.1" x2="108.07" y2="133.92" xlink:href="#linear-gradient-2"/><linearGradient id="linear-gradient-47" x1="27" y1="97.03" x2="30.86" y2="144.25" xlink:href="#linear-gradient-15"/><linearGradient id="linear-gradient-48" x1="114.91" y1="95.44" x2="118.74" y2="142.35" xlink:href="#linear-gradient-15"/></defs><circle class="cls-1" cx="72" cy="72" r="72"/><path class="cls-2" d="M123.18,122.64C120.63,112,115.4,112,115.4,112c-3.68-.69-5.21,14.61-5.7,21.33A72.4,72.4,0,0,0,123.18,122.64Z"/><path class="cls-2" d="M38.08,126.16C37.87,122,31.64,111.65,27.85,114c-2.92,1.8-4.36,6.21-5.13,10.51A72.45,72.45,0,0,0,37.8,135.37C38,130.74,38.14,127.26,38.08,126.16Z"/><path class="cls-3" d="M93.35,82c1.1-4.16-1.53-11.43-1.53-11.43l-18.11,23,8,23s3.53,1.41,7.23,2.74c9.45-3.7,11-9.12,10.14-14.22,2.18,4.29,1.69,8.72-8.16,14.92,3.34,1.14,6.32,2,6.42,1.41.22-1.33,4.08-7.9,4.58-11.14C104.14,95.56,89.21,97.55,93.35,82Z"/><path class="cls-4" d="M95.87,86.24c1-4.73-.62-9.18-4-11.6.62,1.62,0,.49.62,1.62C94,79.34,94.34,81.8,93.74,84c-.76,2.85-2.17,5.24-1.35,8.35,1.3,4.92,7.69,8,12.2,9.37C98.64,97.68,94.22,94,95.87,86.24Z"/><path class="cls-2" d="M103.83,110.83c-3.8-.36-18,.08-19.54-4.93-2-6.22-1-16.06-1-16.06L61,90.52c2.67,4.39-.11,9.82-.22,14.56-.12,5.19-14.18,5.25-19.66,5.84-3,.33-14.75-1-17.38,9.4a21.82,21.82,0,0,0-.47,4.66,72.11,72.11,0,0,0,21.13,13.53H99.62a72.21,72.21,0,0,0,22.88-15.19,20,20,0,0,0-1.08-6.16C117.93,108.64,104.91,110.93,103.83,110.83Z"/><path class="cls-5" d="M85.12,104.27a36.07,36.07,0,0,1-1.35-8.12c-.32.39-23.86-2.41-23.86-2.41s.48,8.59-.72,10.53c-.58.93-6.22,5-10.52,5.92.31.24,1.41,1.53,1.66,1.66,3.67.36,4.86.59,6.36.33A62.86,62.86,0,0,0,66,108.8c12.1-5.48,16-8.38,16-8.38.57,5.09,2.05,8,3.89,10.37s6.75.87,10,.78a17.6,17.6,0,0,0,2.46-1.29C89.18,109.1,85.56,105.41,85.12,104.27Z"/><path class="cls-6" d="M71.14,116.88s4.36.76,5.5,2.09C76.64,119,75.38,115.55,71.14,116.88Z"/><path class="cls-7" d="M76.79,116c3.78-2.9,7.56-2.07,12.38-2.63s13.17-2.35,13.17-2.35c-2.2.42-20.94,1-22.64,1.46S76.79,116,76.79,116Z"/><path class="cls-8" d="M67.54,112.94c-2.08-.69-18-1.67-20.88-1.39,0,0,20.1,2,24.14,4.47A6.6,6.6,0,0,0,67.54,112.94Z"/><path class="cls-9" d="M59,88c1.36,4,.83,13.29.83,13.29,13.9,4.36,23.91-5.14,23.91-5.14a65.27,65.27,0,0,1,.42-7.9C83.11,88.16,59,88,59,88Z"/><path class="cls-10" d="M103.83,110.83l-3.1-.32s.94,15.28,3.52,25.88c.79-.4,1.58-.81,2.36-1.24-.21-.73-.41-1.52-.56-2.33A183.83,183.83,0,0,1,103.83,110.83Z"/><path class="cls-11" d="M41.1,110.92a99.84,99.84,0,0,1-2,17.88c-.72,3.39-1.1,5.34-1.39,6.55,1.27.69,2.57,1.34,3.89,2,2.38-11.14,3.19-26.66,3.19-26.66Z"/><path class="cls-12" d="M65.25,127.58c4.42,3,5,7.43,4.74,10.93H77c-.37-3-.24-8,3.81-10.8C84.41,125.22,61,124.71,65.25,127.58Z"/><path class="cls-13" d="M94.36,109.53s1,19.54-6,22.51c-9.42,4-25.68,3.43-32.92-2.95-5.11-4.5-5.09-19.3-5.09-19.3l-3.2.63c-1.27,4.46-1.68,24.31,20.46,28.09H81.22c19.91-4.1,19.51-27.45,19.51-27.45Z"/><path class="cls-14" d="M94.94,109.34s2.89,18.41-3,22.69c-3.3,2.41-12.28,3.84-17.49,3.87-6.06,0-16.2-2.25-19.6-5.22-5.68-5-4.9-21.34-4.9-21.34a30.63,30.63,0,0,0-7.06.89c-.77,5.67-1.23,16.52-3.63,25.93a72.14,72.14,0,0,0,65.49,0c-2.7-9.66-2.87-21.3-2.88-25.89A28.55,28.55,0,0,0,94.94,109.34Z"/><path class="cls-15" d="M39.93,133.5c-.24.93-.48,1.8-.71,2.62l1,.52A8.52,8.52,0,0,0,39.93,133.5Z"/><path class="cls-16" d="M46,61.54c-4.5.26-3.33,5-1.36,9.4,1.3,2.89,2.51,6.17,5.82,6.17,0,0-.86-5.82-1.87-13.46C48.58,63.65,46.87,61.5,46,61.54Z"/><path class="cls-17" d="M46.86,69.51c1.18-7.85-4.21-8.39-3-3,0,0,.74-2.53,1.42-1.77.84.93-.9,1.44,0,5.5A11.16,11.16,0,0,0,48,74.54,6.12,6.12,0,0,1,46.86,69.51Z"/><path class="cls-18" d="M97.47,61.54c-.88,0-2.59,2.11-2.59,2.11C93.87,71.29,93,77.11,93,77.11c3.31,0,4.52-3.28,5.82-6.17C100.8,66.53,102,61.8,97.47,61.54Z"/><path class="cls-19" d="M96.6,69.51a6.12,6.12,0,0,1-1.12,5,11.16,11.16,0,0,0,2.69-4.33c.89-4.06-.85-4.57,0-5.5.68-.76,1.42,1.77,1.42,1.77C100.81,61.12,95.42,61.66,96.6,69.51Z"/><path class="cls-2" d="M73.13,27s-.91-.06-1.36,0-1.35,0-1.35,0c-10,.63-18.48,6.8-21.36,13.31C45.92,47.39,46.81,55.46,47.71,62S50.4,79,52.05,82s10,10.71,11.75,12,3.15,3.27,8,3.48c4.56.21,6.62-2.22,8.26-3.48s9.79-9,11.44-12S94.94,68.48,95.84,62s1.79-14.58-1.35-21.67C91.61,33.79,83.15,27.62,73.13,27Z"/><path class="cls-20" d="M92,56.06a10,10,0,0,0-7.37-2c-10.51,1-10.35,11.4-11.33,17.29,12.89,5,20.39-4.15,20.39-4.15S95.89,59.07,92,56.06Z"/><path class="cls-21" d="M58,54.47a9.66,9.66,0,0,0-7.12,1.93c-3.87,3.13-1,11.93-1,11.93s7.57,8.87,20.42,3.42C69.23,65.94,68.5,55.16,58,54.47Z"/><path class="cls-22" d="M62.27,64.83c-3-.87-14.38-3.25-13.83.5,1.2,8.29,2.3,14,3.76,16.57s6,7,8,7.28c3,.51,6.19-10.41,6.26-14.15C66.52,69.79,65.22,65.7,62.27,64.83Z"/><path class="cls-23" d="M81.3,64.83c-3,.87-4.25,5-4.15,10.2.07,3.74,3.25,14.66,6.26,14.15,1.94-.32,6.43-4.58,8-7.28s2.51-8.29,3.76-16.57C96.18,58.44,84.25,64,81.3,64.83Z"/><path class="cls-24" d="M72.32,90.07c-2.11.1-3.8.85-3.79,1.67s1.72,1.42,3.82,1.32,3.8-.84,3.79-1.67S74.41,90,72.32,90.07Z"/><path class="cls-25" d="M47.83,62.8s2.1,15.08,4.06,19.27c.64,1.37,6.28,7.07,9.86,10.36,0,0-7.18-7.06-9.08-11.86C51,76.44,47.83,62.8,47.83,62.8Z"/><path class="cls-26" d="M81.85,92.47c3.58-3.28,9.19-9,9.83-10.4,1.95-4.19,4.06-19.27,4.06-19.27s-3.22,13.64-4.85,17.77C89,85.37,81.85,92.47,81.85,92.47Z"/><path class="cls-27" d="M78.23,30.23c-9.91-.85-23.06,5-26.85,16.76s-3,17.73-2.54,22.06a7,7,0,0,1,6.31-7.22s1.44-14.55,4.39-19.59c3.31-5.64,8.45-6.08,12-6.32,3.75-.25,9,.34,11.76,4.83,3.37,5.43,5.28,12.1,4.63,21,5.71,0,5.91,3.91,6.63,6.69,0,0,2.43-8.84-1.18-20.44C91,40.41,88.14,31.09,78.23,30.23Z"/><path class="cls-2" d="M92.06,56.1c-4.66-2.93-7.81-.94-7.81-.94,9.55-.66,8.42,8.43,8.42,8.43S94.54,57.65,92.06,56.1Z"/><path class="cls-28" d="M84.68,59c-7.1,0-7.76,4.29-7.91,7.38a21.27,21.27,0,0,1,2.16.55A16.49,16.49,0,0,0,84.44,68c1.89,0,6-.87,6-4.9C90.53,60,86.4,59.14,84.68,59Z"/><path class="cls-29" d="M77.09,66.14a25.67,25.67,0,0,1,3.67,1,3.07,3.07,0,0,1-1.26-2.71,4.81,4.81,0,0,1,1.61-2.93A12.08,12.08,0,0,0,77.09,66.14Z"/><path class="cls-30" d="M78.08,64.71s-.54.68.38,1.72a9.93,9.93,0,0,0-1.37-.29A10,10,0,0,1,78.08,64.71Z"/><path class="cls-31" d="M77.09,66.14a12.54,12.54,0,0,1,2.47-2A3.53,3.53,0,0,1,80.9,62C78.6,63.09,77.09,66.14,77.09,66.14Z"/><path class="cls-32" d="M86.61,64.82a3.37,3.37,0,0,1-1.74,2.76A6.45,6.45,0,0,0,90.2,63.8C87.63,61.7,85.79,61,84,60.89A3.91,3.91,0,0,1,86.61,64.82Z"/><path class="cls-33" d="M79.55,64c0,.16,0,.27,0,.44a2.92,2.92,0,0,0,1.26,2.71,12.58,12.58,0,0,0,4.48.41,3.29,3.29,0,0,0,1.83-2.68,3.73,3.73,0,0,0-.37-1.85A8.1,8.1,0,0,0,79.55,64Z"/><path class="cls-34" d="M80,64.45c0,1.71,1.48,2.84,3.32,2.84s3.32-1.1,3.32-2.81a3.33,3.33,0,0,0-6.64,0Z"/><path class="cls-31" d="M85.23,61.66a3.55,3.55,0,0,1,1.68,2A10.64,10.64,0,0,1,89.32,65l.7-1.4C89,62.36,87.08,62,85.23,61.66Z"/><path class="cls-35" d="M85.23,61.66a9.37,9.37,0,0,0-3.34,0,4,4,0,0,0-1,.33,3.44,3.44,0,0,0-1.36,2.13A8.49,8.49,0,0,1,83.07,63a8.31,8.31,0,0,1,3.86.66A3.43,3.43,0,0,0,85.23,61.66Z"/><path class="cls-36" d="M83.39,61.89a2.28,2.28,0,1,0,2.21,2.44A2.32,2.32,0,0,0,83.39,61.89Z"/><path class="cls-37" d="M82.87,63.23a.69.69,0,0,1,.92.25.64.64,0,0,1-.22.89.68.68,0,0,1-.91-.25A.63.63,0,0,1,82.87,63.23Z"/><path class="cls-37" d="M84.7,64.17a.89.89,0,0,1,1.22.31.9.9,0,0,1-1.55.9A.89.89,0,0,1,84.7,64.17Z"/><path class="cls-38" d="M91.78,60.68s-.69,1.44-4.15.21C81,58.76,77.23,62.6,77.09,66.14c0,0,2-3.89,5.8-4.26,2.3-.22,4.3.71,6.29,1.78,0,1.58-2.1,3.51-4.4,4,2,0,6.34-2,6.66-3.63-.12.21-.54.35-1.07.16C90.37,64.16,92.25,63.42,91.78,60.68Z"/><path class="cls-39" d="M81.27,59.33A6.48,6.48,0,0,0,78,61.77a7.16,7.16,0,0,1,3.53-2.09,15.28,15.28,0,0,1,6.15,0A9,9,0,0,0,81.27,59.33Z"/><path class="cls-40" d="M81,63.46a6.53,6.53,0,0,1,4.41-.31,2.36,2.36,0,0,0-2.47-1.27A2.21,2.21,0,0,0,81,63.46Z"/><path class="cls-41" d="M82.61,61.54a7.08,7.08,0,0,0-5.52,4.6,8.22,8.22,0,0,1,5.61-4c2.24-.39,4.78.7,6.48,1.55A7.91,7.91,0,0,0,82.61,61.54Z"/><path class="cls-42" d="M58.44,59c7.1,0,7.76,4.29,7.91,7.38a20.62,20.62,0,0,0-2.16.55A16.49,16.49,0,0,1,58.68,68c-1.9,0-6-.87-6-4.9C52.59,60,56.72,59.14,58.44,59Z"/><path class="cls-43" d="M66,66.14a25.88,25.88,0,0,0-3.66,1,3.09,3.09,0,0,0,1.26-2.71A4.91,4.91,0,0,0,62,61.53,12,12,0,0,1,66,66.14Z"/><path class="cls-44" d="M65,64.71s.54.68-.38,1.72A10,10,0,0,1,66,66.14,9.69,9.69,0,0,0,65,64.71Z"/><path class="cls-31" d="M66,66.14a12,12,0,0,0-2.47-2A3.44,3.44,0,0,0,62.21,62C64.51,63.09,66,66.14,66,66.14Z"/><path class="cls-45" d="M56.51,64.82a3.37,3.37,0,0,0,1.74,2.76,6.45,6.45,0,0,1-5.33-3.78c2.56-2.1,4.41-2.76,6.16-2.91A3.9,3.9,0,0,0,56.51,64.82Z"/><path class="cls-46" d="M63.56,64a3.11,3.11,0,0,1,.06.44,3,3,0,0,1-1.26,2.71,12.62,12.62,0,0,1-4.49.41,3.28,3.28,0,0,1-1.82-2.68,3.62,3.62,0,0,1,.37-1.85A8.08,8.08,0,0,1,63.56,64Z"/><path class="cls-47" d="M63.16,64.45c0,1.71-1.49,2.84-3.32,2.84s-3.32-1.1-3.32-2.81a3.33,3.33,0,0,1,6.64,0Z"/><path class="cls-31" d="M57.88,61.66a3.54,3.54,0,0,0-1.67,2A10.36,10.36,0,0,0,53.8,65l-.7-1.4C54.11,62.36,56,62,57.88,61.66Z"/><path class="cls-48" d="M57.88,61.66a9.43,9.43,0,0,1,3.35,0,3.77,3.77,0,0,1,1,.33,3.41,3.41,0,0,1,1.37,2.13A8.49,8.49,0,0,0,60.05,63a8.31,8.31,0,0,0-3.86.66A3.45,3.45,0,0,1,57.88,61.66Z"/><path class="cls-49" d="M59.72,61.89a2.28,2.28,0,1,1-2.2,2.44A2.33,2.33,0,0,1,59.72,61.89Z"/><path class="cls-37" d="M60.24,63.23a.67.67,0,0,0-.91.25.64.64,0,0,0,.22.89.68.68,0,0,0,.91-.25A.64.64,0,0,0,60.24,63.23Z"/><path class="cls-37" d="M62.39,64.17a.89.89,0,0,0-1.22.31.89.89,0,0,0,1.54.9A.89.89,0,0,0,62.39,64.17Z"/><path class="cls-50" d="M51.33,60.68s.7,1.44,4.16.21c6.67-2.13,10.4,1.71,10.53,5.25,0,0-2-3.89-5.79-4.26-2.31-.22-4.3.71-6.3,1.78,0,1.58,2.11,3.51,4.41,4-2,0-6.35-2-6.67-3.63a.92.92,0,0,0,1.08.16S50.87,63.42,51.33,60.68Z"/><path class="cls-51" d="M61.84,59.33a6.42,6.42,0,0,1,3.32,2.44,7.09,7.09,0,0,0-3.53-2.09,15.23,15.23,0,0,0-6.14,0A9,9,0,0,1,61.84,59.33Z"/><path class="cls-40" d="M62.17,63.46a6.49,6.49,0,0,0-4.41-.32,2.32,2.32,0,0,1,2.45-1.26A2.27,2.27,0,0,1,62.17,63.46Z"/><path class="cls-41" d="M60.51,61.54A7.06,7.06,0,0,1,66,66.14a8.22,8.22,0,0,0-5.61-4c-2.24-.39-4.77.7-6.48,1.55A7.94,7.94,0,0,1,60.51,61.54Z"/><path class="cls-52" d="M59.54,79.21c-.25.46-.21,1.34.39,1.54a12.3,12.3,0,0,1,3.45,1.65C62.41,81,59.76,78.8,59.54,79.21Z"/><path class="cls-53" d="M79.91,82.43A9.68,9.68,0,0,1,83,80.76c.83-.51.86-1.22.57-1.65S80.78,81,79.91,82.43Z"/><path class="cls-54" d="M65.73,85.46c1.14,2.41,7.4,5.75,12-.06C77.75,85.4,71.19,88.3,65.73,85.46Z"/><path class="cls-55" d="M71,81.35a48.94,48.94,0,0,1-10.73-1.23h0a.78.78,0,0,1,.1.15,12,12,0,0,1,2.68,1.3c.74.54,1.48,4.12,8.81,4a10.63,10.63,0,0,0,8.78-4.1,6.49,6.49,0,0,1,2-1.45c0-.06,0-.09.07-.16A35.61,35.61,0,0,1,71,81.35Z"/><path class="cls-56" d="M77.62,82a38.14,38.14,0,0,1-11.74.44c-1.18-.52-1.06,1-1.06,1,2.58,2.61,4.65,2.12,6.72,2.17a11.25,11.25,0,0,0,6.92-2.36C78.63,82.72,78.19,81.86,77.62,82Z"/><path class="cls-57" d="M67.58,81.47a17.81,17.81,0,0,1-3.76-.64,4.09,4.09,0,0,1,.5.81c.25.57,1.49,2.5,7.39,2.42,4.44-.06,6.78-1.62,7.1-2.57.19-.57.6-.82.63-1a15.36,15.36,0,0,1-4.49,1A39.44,39.44,0,0,1,67.58,81.47Z"/><path class="cls-58" d="M72.27,85.35c-9,0-5.88-3.65-11.88-5.07a11.12,11.12,0,0,1,3,2.52c1.75,2,3.25,5.12,8.3,5.08,4.56,0,7.07-3.33,8.52-5.13a14,14,0,0,1,2.54-2.68C77.81,81.39,79.44,85.12,72.27,85.35Z"/><path class="cls-59" d="M76.11,84.44a17.64,17.64,0,0,1-4.6.84,12.4,12.4,0,0,1-4.57-.75,13.63,13.63,0,0,1-2.89-2.38c.33.43,2.28,5.15,7.36,5,5.87-.13,6.93-4,8-5.18A9,9,0,0,1,76.11,84.44Z"/><path class="cls-60" d="M74,85.5c-.6.2-2.64.34-2.56.54a3.34,3.34,0,0,0,2.84.19c1.19-.33,1.75-1,1.68-1.21S74.57,85.29,74,85.5Z"/><path class="cls-55" d="M60.49,80.62a8.75,8.75,0,0,1,2,.4A20.45,20.45,0,0,0,60,79.85C59.86,79.9,60,80.38,60.49,80.62Z"/><path class="cls-55" d="M80.73,80.88a7.12,7.12,0,0,1,2-.46c.52-.25.61-.71.51-.78A12.57,12.57,0,0,0,80.73,80.88Z"/><path class="cls-61" d="M64.33,81.67S66.89,83,72.13,83a16.49,16.49,0,0,0,6.65-1.44l.3-.69L64,81Z"/><path class="cls-58" d="M75,80.46a20.59,20.59,0,0,0-3.2.16,31.92,31.92,0,0,0-3.73-.2,24.43,24.43,0,0,1-7.26-.26s1.06.64,6.35,1.65a21.33,21.33,0,0,0,4.58.56,27.36,27.36,0,0,0,5-.65A25.08,25.08,0,0,0,82.31,80,31.87,31.87,0,0,1,75,80.46Z"/><path class="cls-62" d="M74,80.62a20.42,20.42,0,0,1-2.53.2c-.52,0-2-.25-2.39-.25a13.18,13.18,0,0,0-3.11.41c-.14.53,5.87.91,6.41.86s5.18-.6,5.21-.82S74.4,80.53,74,80.62Z"/><path class="cls-63" d="M71.62,78.6c.9-.12,4.63-2.53,4.63-2.53H66.71S70.73,78.71,71.62,78.6Z"/><path class="cls-64" d="M71.49,72.13c-2.53.07-3.25.7-3.06,1.37.45,1.62,1.53,1.93,3.11,1.92s3-.37,3.22-2.11C74.84,72.79,74,72.06,71.49,72.13Z"/><path class="cls-65" d="M73.19,76.49s4.66.07,3.15-1.44C75.84,74.54,73.19,76.49,73.19,76.49Z"/><path class="cls-66" d="M66.72,75.25c-1.55,1.31,3.35,1.24,3.35,1.24S67.27,74.79,66.72,75.25Z"/><path class="cls-67" d="M71.53,75.88c-4.71-.06-5.25-2.34-5.89-.88-.26.6.24.78,1.07,1.07,0,0-.27-.67.78-.6.77,0,1.38,1.65,4.1,1.57,2.91-.08,3.31-1.52,4-1.56a.53.53,0,0,1,.61.59s1.38-.7.86-1.33C76.16,73.59,75.87,75.94,71.53,75.88Z"/><path class="cls-68" d="M71.72,97.45a10.21,10.21,0,0,1-5.67-1.68c-.62-.34-6.33-5.25-6.33-5.25s4.33,5.19,6.33,6.3c1.83,1,3.59,2.32,5.72,2.32a12,12,0,0,0,6.72-2.88C79.91,95.11,84,90.44,84,90.44c-.45.42-5.55,4.76-6.47,5.37A9.44,9.44,0,0,1,71.72,97.45Z"/><path class="cls-69" d="M79.27,54.94a1.76,1.76,0,0,0-.94,2,1.42,1.42,0,0,1,.11-1.54c-1.12.93-1,2.48.3,2.05a65.1,65.1,0,0,1,8.35-2.11,12.63,12.63,0,0,1,5.08,1.06s-2.89-2.65-4.9-2.85C85.42,53.35,80.7,54.43,79.27,54.94Z"/><path class="cls-70" d="M64.39,55.4a1.42,1.42,0,0,1,.11,1.54,1.76,1.76,0,0,0-.93-2c-1.44-.51-6.15-1.59-8-1.39-2,.2-4.89,2.85-4.89,2.85a12.49,12.49,0,0,1,5.07-1.06,65.39,65.39,0,0,1,8.34,2.11C65.38,57.88,65.52,56.33,64.39,55.4Z"/><path class="cls-71" d="M69.35,26.22C47.55,28.41,46.14,55.09,47.1,59.71c.27,1.31,2.22,1.73,2.22,1.73l1.24-6.31c1.09-5.71,2.22-6.77,4.23-10.15,1.08-1.83,4.72-7.3,8.06-8.38,5.21-1.7,10.68-2.31,15.88-.47,1.37.48,8.42,0,9.59,6.22C90.81,55.53,94.14,54.59,94.08,62c1.27-2.12,3-2.19,3.4-4S99.34,23.2,69.35,26.22Z"/><path class="cls-72" d="M70.07,23c-15,1-17,6.47-18.72,8.35a23.42,23.42,0,0,0-5,15.09c.07,4.39.19,11.08,1.16,14.83,0,0,1.94-6.39,1.94-10.41s1-6.45,2.75-10.87c2.21-5.52,7.93-8,17-8,2,0,11.07.58,13.15.83,9.17,1.07,9.83,10.59,10.54,12.88,1.34,4.37,3.84,15,3.84,15S98.06,55,98.14,53.5c.41-8.11-.89-13.14-3.77-20.56C91.82,26.4,83.63,22.14,70.07,23Z"/><path class="cls-73" d="M83.48,36.21c-10.61-3.43-23.28-1-25.55,1.09-3.92,3.53-7.37,13.49-8.6,19.38,6-3.37,6-15.72,12.42-18.72a27.79,27.79,0,0,1,18.16-1c9.36,3,7.78,15.43,12.82,17.63C89.7,46.11,88.85,37.94,83.48,36.21Z"/><path class="cls-74" d="M46.47,43.35A75.85,75.85,0,0,0,46,61.54c1.77.19,2.12,3.18,2.83,7.6,0,0,1.84-15.09,2.1-16.66A15.71,15.71,0,0,1,46.47,43.35Z"/><path class="cls-75" d="M92.18,52.25c1.32,5,1.92,11.79,2.37,17.07,0,0,.85-7,2.92-7.78,0,0,1.84-11.71-.21-19.65C97.26,41.89,96.6,51,92.18,52.25Z"/><path class="cls-76" d="M89.32,88.25C86.9,93,85,100.33,92.1,102.33,87.73,97.18,88.86,91.86,89.32,88.25Z"/><path class="cls-77" d="M74.4,22.41c-8.89-.08-15,1.25-20.39,5.41s-7.15,13.1-7.15,13.1,4-10,10.56-13.09,21.66-3.54,28.09-.69,11.4,13.33,11.4,13.33A28,28,0,0,0,91,27.82C88.66,25.11,83.29,22.48,74.4,22.41Z"/><path class="cls-78" d="M78.15,22.6c3.7,1.65-.26,7.78-1.92,10.8C83.07,30.53,84.49,21.07,78.15,22.6Z"/><path class="cls-79" d="M85.57,24.28c2.05,2.28.83,6.3-.84,8.53C89.17,31.25,90.17,23.74,85.57,24.28Z"/><path class="cls-80" d="M91.74,28.73c3.22,4.67,0,8.48-.47,11.81C94.86,38,96.91,30.15,91.74,28.73Z"/><path class="cls-81" d="M61.7,33.58c-.52-3.68.26-8.82,3.2-10.5C59.27,21.94,58,30.35,61.7,33.58Z"/><path class="cls-82" d="M56.61,36.89c-2.16-3-.75-9.54.81-11.28C51.35,26,52,35.49,56.61,36.89Z"/><path class="cls-83" d="M78.3,35c15.27,2.52,8.51,16.66,17.28,24.26C89.94,50.89,94.43,33.42,78.3,35Z"/><path class="cls-84" d="M47.69,58c8-7.87,3.58-20,17.57-23C49.89,33.82,52,48.72,47.69,58Z"/><path class="cls-85" d="M95,59.26c4-3.65,5.17-8.39,3.11-12.31C97.56,53.52,96.49,56.34,95,59.26Z"/><path class="cls-85" d="M48.55,59.28A44.05,44.05,0,0,1,46,46.86C43.69,50.36,44.41,56.17,48.55,59.28Z"/><path class="cls-86" d="M51.34,30.58c-6.48,3-3.48,11.65,1.06,13.74C49.64,39.05,49.33,34.51,51.34,30.58Z"/><path class="cls-87" d="M106.22,135.36c.68-.36,1.35-.74,2-1.13a13.34,13.34,0,0,0-.12-1.66C107.88,131.33,106.93,133.5,106.22,135.36Z"/><path class="cls-88" d="M94.94,109.34c1.32,15.88-2.43,20.41-3.08,21.28-1.87,2.48-9,4.93-18,5-6.15,0-14.4-1.6-18.66-5.33C49.17,125,50,109.6,50,109.34a5.09,5.09,0,0,0-1.33,0c-.17,13,2.21,18.52,5.3,22s12.89,5.9,19.08,5.8,15.54-1.4,19.55-5.21c4.91-4.68,3.94-21.71,3.76-22.58A12.84,12.84,0,0,0,94.94,109.34Z"/><path class="cls-89" d="M101.91,110.23a8.11,8.11,0,0,0-1.84-.41c.05.48.94,10.14,2.16,20.14a50.33,50.33,0,0,0,1.49,6.69L105,136a27.9,27.9,0,0,1-.68-2.89C103.11,126.39,101.91,110.23,101.91,110.23Z"/><path class="cls-90" d="M42.93,110.23s-.09.57-.18,1.43c-.48,4.37-2,18-3.49,23.79,0,.21-.11.41-.16.61L41,137c2.52-10.18,3.83-26.53,3.86-27.11A11.14,11.14,0,0,0,42.93,110.23Z"/><path class="cls-91" d="M36,132.57a14.41,14.41,0,0,0-.12,1.73c.68.39,1.36.77,2,1.14C37.21,133.56,36.23,131.31,36,132.57Z"/><path class="cls-92" d="M35.83,134.26l.09.06c0-.14,0-.24,0-.28S35.86,134.06,35.83,134.26Z"/><path class="cls-93" d="M108.11,132.57c0,.14-.11.82-.25,1.88l.41-.24A8.87,8.87,0,0,0,108.11,132.57Z"/><path class="cls-94" d="M30.67,113.38a11.68,11.68,0,0,0-5.79,7,32.53,32.53,0,0,0-.76,5.44,72.29,72.29,0,0,0,7.24,5.67c.8-2.5,1.41-4.47,1.62-5.25C33.93,122.7,35.35,112.52,30.67,113.38Z"/><path class="cls-95" d="M115.4,112c-4.68-.86-3.26,9.33-2.31,12.82.21.77.8,2.7,1.59,5.14a71.22,71.22,0,0,0,7.23-6.09,31.33,31.33,0,0,0-.72-4.92A11.68,11.68,0,0,0,115.4,112Z"/><path class="cls-96" d="M90.27,67.48c-1.24.3-2.09,1.09-1.93,1.75s1.31,1,2.53.64,2.09-1.08,1.92-1.75S91.49,67.17,90.27,67.48Z"/><path class="cls-96" d="M53.41,67.65c-1.23-.23-2.33.12-2.46.78s.76,1.39,2,1.63,2.34-.12,2.47-.78S54.64,67.89,53.41,67.65Z"/></svg>