<svg id="Layer_1" data-name="Layer 1" xmlns="http://www.w3.org/2000/svg" xmlns:xlink="http://www.w3.org/1999/xlink" viewBox="0 0 144 144"><defs><style>.cls-1{fill:#f6ece6;}.cls-2{fill:#0c866e;}.cls-3{fill:url(#_ÂÁ_Ï_ÌÌ_È_ËÂÌÚ_168);}.cls-4{fill:url(#linear-gradient);}.cls-5{fill:#f6d4ab;}.cls-6{fill:url(#_ÂÁ_Ï_ÌÌ_È_ËÂÌÚ_997);}.cls-7{fill:url(#_ÂÁ_Ï_ÌÌ_È_ËÂÌÚ_1204);}.cls-8{fill:url(#_ÂÁ_Ï_ÌÌ_È_ËÂÌÚ_168-2);}.cls-9{fill:url(#_ÂÁ_Ï_ÌÌ_È_ËÂÌÚ_168-3);}.cls-10{fill:url(#_ÂÁ_Ï_ÌÌ_È_ËÂÌÚ_165);}.cls-11{fill:#1f9784;}.cls-12{fill:url(#_ÂÁ_Ï_ÌÌ_È_ËÂÌÚ_165-2);}.cls-13{fill:url(#_ÂÁ_Ï_ÌÌ_È_ËÂÌÚ_165-3);}.cls-14{fill:url(#_ÂÁ_Ï_ÌÌ_È_ËÂÌÚ_168-4);}.cls-15{fill:url(#_ÂÁ_Ï_ÌÌ_È_ËÂÌÚ_168-5);}.cls-16{fill:url(#_ÂÁ_Ï_ÌÌ_È_ËÂÌÚ_165-4);}.cls-17{fill:url(#_ÂÁ_Ï_ÌÌ_È_ËÂÌÚ_165-5);}.cls-18{fill:url(#_ÂÁ_Ï_ÌÌ_È_ËÂÌÚ_168-6);}.cls-19{fill:url(#_ÂÁ_Ï_ÌÌ_È_ËÂÌÚ_168-7);}.cls-20{fill:url(#_ÂÁ_Ï_ÌÌ_È_ËÂÌÚ_165-6);}.cls-21{fill:url(#_ÂÁ_Ï_ÌÌ_È_ËÂÌÚ_166);}.cls-22{fill:url(#_ÂÁ_Ï_ÌÌ_È_ËÂÌÚ_168-8);}.cls-23{fill:url(#_ÂÁ_Ï_ÌÌ_È_ËÂÌÚ_167);}.cls-24{fill:url(#_ÂÁ_Ï_ÌÌ_È_ËÂÌÚ_167-2);}.cls-25{fill:url(#_ÂÁ_Ï_ÌÌ_È_ËÂÌÚ_167-3);}.cls-26{fill:url(#_ÂÁ_Ï_ÌÌ_È_ËÂÌÚ_165-7);}.cls-27{fill:url(#_ÂÁ_Ï_ÌÌ_È_ËÂÌÚ_166-2);}.cls-28{fill:url(#_ÂÁ_Ï_ÌÌ_È_ËÂÌÚ_165-8);}.cls-29{fill:url(#_ÂÁ_Ï_ÌÌ_È_ËÂÌÚ_165-9);}.cls-30{fill:url(#linear-gradient-2);}.cls-31{fill:url(#linear-gradient-3);}.cls-32{fill:url(#linear-gradient-4);}.cls-33{fill:url(#linear-gradient-5);}.cls-34{fill:url(#_ÂÁ_Ï_ÌÌ_È_ËÂÌÚ_875);}.cls-35{fill:#f0c499;}.cls-36{fill:url(#linear-gradient-6);}.cls-37{fill:url(#linear-gradient-7);}.cls-38{fill:url(#linear-gradient-8);}.cls-39{fill:url(#linear-gradient-9);}.cls-40{fill:url(#linear-gradient-10);}.cls-41{fill:url(#linear-gradient-11);}.cls-42{fill:url(#_ÂÁ_Ï_ÌÌ_È_ËÂÌÚ_1204-2);}.cls-43{fill:url(#_ÂÁ_Ï_ÌÌ_È_ËÂÌÚ_1204-3);}.cls-44{fill:url(#radial-gradient);}.cls-45{fill:url(#linear-gradient-12);}.cls-46{fill:url(#radial-gradient-2);}.cls-47{fill:#e1b28d;}.cls-48{fill:url(#_ÂÁ_Ï_ÌÌ_È_ËÂÌÚ_1204-4);}.cls-49{fill:#721e23;}.cls-50{fill:#fcd8b4;}.cls-51{fill:url(#linear-gradient-13);}.cls-52{fill:url(#_ÂÁ_Ï_ÌÌ_È_ËÂÌÚ_1204-5);}.cls-53{fill:url(#linear-gradient-14);}.cls-54{fill:#f2eceb;}.cls-55{fill:url(#_ÂÁ_Ï_ÌÌ_È_ËÂÌÚ_1204-6);}.cls-56{fill:url(#linear-gradient-15);}.cls-57{fill:url(#_ÂÁ_Ï_ÌÌ_È_ËÂÌÚ_997-2);}.cls-58{fill:url(#linear-gradient-16);}.cls-59{fill:#ddd;}.cls-60{fill:url(#linear-gradient-17);}.cls-61{fill:url(#linear-gradient-18);}.cls-62{fill:url(#radial-gradient-3);}.cls-63{fill:url(#_ÂÁ_Ï_ÌÌ_È_ËÂÌÚ_998);}.cls-64{fill:#fff;}.cls-65{fill:url(#_ÂÁ_Ï_ÌÌ_È_ËÂÌÚ_1204-7);}.cls-66{fill:url(#linear-gradient-19);}.cls-67{fill:url(#linear-gradient-20);}.cls-68{fill:url(#linear-gradient-21);}.cls-69{fill:url(#radial-gradient-4);}.cls-70{fill:url(#_ÂÁ_Ï_ÌÌ_È_ËÂÌÚ_331);}.cls-71{fill:url(#linear-gradient-22);}.cls-72{fill:url(#linear-gradient-23);}.cls-73{fill:url(#_ÂÁ_Ï_ÌÌ_È_ËÂÌÚ_1204-8);}.cls-74{fill:url(#_ÂÁ_Ï_ÌÌ_È_ËÂÌÚ_1204-9);}.cls-75{fill:url(#_ÂÁ_Ï_ÌÌ_È_ËÂÌÚ_1070);}.cls-76{fill:url(#linear-gradient-24);}.cls-77{fill:url(#linear-gradient-25);}.cls-78{fill:url(#_ÂÁ_Ï_ÌÌ_È_ËÂÌÚ_1070-2);}.cls-79{fill:url(#linear-gradient-26);}.cls-80{fill:url(#linear-gradient-27);}.cls-81{fill:#dca57c;}.cls-82{fill:url(#linear-gradient-28);}.cls-83{fill:url(#linear-gradient-29);}.cls-84{fill:url(#linear-gradient-30);}.cls-85{fill:url(#linear-gradient-31);}.cls-86{fill:url(#linear-gradient-32);}.cls-87{fill:url(#_ÂÁ_Ï_ÌÌ_È_ËÂÌÚ_874);}.cls-88{fill:url(#_ÂÁ_Ï_ÌÌ_È_ËÂÌÚ_60);}.cls-89{fill:url(#_ÂÁ_Ï_ÌÌ_È_ËÂÌÚ_60-2);}.cls-90{fill:url(#_ÂÁ_Ï_ÌÌ_È_ËÂÌÚ_60-3);}.cls-91{fill:url(#linear-gradient-33);}.cls-92{fill:url(#linear-gradient-34);}.cls-93{fill:url(#linear-gradient-35);}.cls-94{fill:url(#_ÂÁ_Ï_ÌÌ_È_ËÂÌÚ_999);}.cls-95{fill:url(#linear-gradient-36);}.cls-96{fill:url(#_ÂÁ_Ï_ÌÌ_È_ËÂÌÚ_298);}.cls-97{fill:url(#_ÂÁ_Ï_ÌÌ_È_ËÂÌÚ_298-2);}.cls-98{fill:url(#_ÂÁ_Ï_ÌÌ_È_ËÂÌÚ_298-3);}.cls-99{fill:url(#_ÂÁ_Ï_ÌÌ_È_ËÂÌÚ_298-4);}</style><linearGradient id="_ÂÁ_Ï_ÌÌ_È_ËÂÌÚ_168" x1="72.19" y1="144.85" x2="72.98" y2="126.74" gradientUnits="userSpaceOnUse"><stop offset="0" stop-color="#0c866e"/><stop offset="0.14" stop-color="#0f8971"/><stop offset="1" stop-color="#229784"/></linearGradient><linearGradient id="linear-gradient" x1="61.46" y1="106.81" x2="95.21" y2="113.57" gradientUnits="userSpaceOnUse"><stop offset="0" stop-color="#f0c499"/><stop offset="1" stop-color="#f6d4ab"/></linearGradient><linearGradient id="_ÂÁ_Ï_ÌÌ_È_ËÂÌÚ_997" x1="75.22" y1="120.51" x2="80.86" y2="136.17" gradientUnits="userSpaceOnUse"><stop offset="0" stop-color="#f0c499"/><stop offset="0.5" stop-color="#e5b287"/><stop offset="1" stop-color="#dca47a"/></linearGradient><linearGradient id="_ÂÁ_Ï_ÌÌ_È_ËÂÌÚ_1204" x1="59.34" y1="76.74" x2="78.23" y2="109.43" gradientUnits="userSpaceOnUse"><stop offset="0" stop-color="#dca47a"/><stop offset="0.5" stop-color="#e5b287"/><stop offset="1" stop-color="#f0c499"/></linearGradient><linearGradient id="_ÂÁ_Ï_ÌÌ_È_ËÂÌÚ_168-2" x1="64.02" y1="147.77" x2="131.7" y2="96.74" xlink:href="#_ÂÁ_Ï_ÌÌ_È_ËÂÌÚ_168"/><linearGradient id="_ÂÁ_Ï_ÌÌ_È_ËÂÌÚ_168-3" x1="-49.64" y1="174.49" x2="69.95" y2="84.32" xlink:href="#_ÂÁ_Ï_ÌÌ_È_ËÂÌÚ_168"/><linearGradient id="_ÂÁ_Ï_ÌÌ_È_ËÂÌÚ_165" x1="72.65" y1="132.11" x2="75.49" y2="135.82" gradientUnits="userSpaceOnUse"><stop offset="0" stop-color="#0c866e"/><stop offset="0.45" stop-color="#077461"/><stop offset="1" stop-color="#016153"/></linearGradient><linearGradient id="_ÂÁ_Ï_ÌÌ_È_ËÂÌÚ_165-2" x1="83.28" y1="130.6" x2="82.75" y2="115.36" xlink:href="#_ÂÁ_Ï_ÌÌ_È_ËÂÌÚ_165"/><linearGradient id="_ÂÁ_Ï_ÌÌ_È_ËÂÌÚ_165-3" x1="60.3" y1="131.34" x2="59.77" y2="116.15" xlink:href="#_ÂÁ_Ï_ÌÌ_È_ËÂÌÚ_165"/><linearGradient id="_ÂÁ_Ï_ÌÌ_È_ËÂÌÚ_168-4" x1="60.84" y1="90.51" x2="60.39" y2="137.37" xlink:href="#_ÂÁ_Ï_ÌÌ_È_ËÂÌÚ_168"/><linearGradient id="_ÂÁ_Ï_ÌÌ_È_ËÂÌÚ_168-5" x1="84.18" y1="90.73" x2="83.72" y2="137.59" xlink:href="#_ÂÁ_Ï_ÌÌ_È_ËÂÌÚ_168"/><linearGradient id="_ÂÁ_Ï_ÌÌ_È_ËÂÌÚ_165-4" x1="85.96" y1="123.18" x2="85.96" y2="90.43" xlink:href="#_ÂÁ_Ï_ÌÌ_È_ËÂÌÚ_165"/><linearGradient id="_ÂÁ_Ï_ÌÌ_È_ËÂÌÚ_165-5" x1="59.27" y1="123.18" x2="59.27" y2="90.43" xlink:href="#_ÂÁ_Ï_ÌÌ_È_ËÂÌÚ_165"/><linearGradient id="_ÂÁ_Ï_ÌÌ_È_ËÂÌÚ_168-6" x1="93.82" y1="100.31" x2="94.3" y2="126.17" xlink:href="#_ÂÁ_Ï_ÌÌ_È_ËÂÌÚ_168"/><linearGradient id="_ÂÁ_Ï_ÌÌ_È_ËÂÌÚ_168-7" x1="50.81" y1="101.1" x2="51.29" y2="126.97" xlink:href="#_ÂÁ_Ï_ÌÌ_È_ËÂÌÚ_168"/><linearGradient id="_ÂÁ_Ï_ÌÌ_È_ËÂÌÚ_165-6" x1="78.37" y1="125.54" x2="78.54" y2="161.45" xlink:href="#_ÂÁ_Ï_ÌÌ_È_ËÂÌÚ_165"/><linearGradient id="_ÂÁ_Ï_ÌÌ_È_ËÂÌÚ_166" x1="63.99" y1="116.07" x2="64.46" y2="138.29" gradientUnits="userSpaceOnUse"><stop offset="0" stop-color="#016153"/><stop offset="0.55" stop-color="#077461"/><stop offset="1" stop-color="#0c866e"/></linearGradient><linearGradient id="_ÂÁ_Ï_ÌÌ_È_ËÂÌÚ_168-8" x1="82.69" y1="106.31" x2="90.78" y2="106.31" xlink:href="#_ÂÁ_Ï_ÌÌ_È_ËÂÌÚ_168"/><linearGradient id="_ÂÁ_Ï_ÌÌ_È_ËÂÌÚ_167" x1="57.89" y1="100.09" x2="59.66" y2="124.02" gradientUnits="userSpaceOnUse"><stop offset="0" stop-color="#229784"/><stop offset="0.86" stop-color="#0f8971"/><stop offset="1" stop-color="#0c866e"/></linearGradient><linearGradient id="_ÂÁ_Ï_ÌÌ_È_ËÂÌÚ_167-2" x1="62.53" y1="117.23" x2="62.54" y2="117.38" xlink:href="#_ÂÁ_Ï_ÌÌ_È_ËÂÌÚ_167"/><linearGradient id="_ÂÁ_Ï_ÌÌ_È_ËÂÌÚ_167-3" x1="57.46" y1="94.32" x2="57.46" y2="94.35" xlink:href="#_ÂÁ_Ï_ÌÌ_È_ËÂÌÚ_167"/><linearGradient id="_ÂÁ_Ï_ÌÌ_È_ËÂÌÚ_165-7" x1="76.41" y1="158.4" x2="79.81" y2="119.56" xlink:href="#_ÂÁ_Ï_ÌÌ_È_ËÂÌÚ_165"/><linearGradient id="_ÂÁ_Ï_ÌÌ_È_ËÂÌÚ_166-2" x1="64.52" y1="121.03" x2="78.95" y2="150.72" xlink:href="#_ÂÁ_Ï_ÌÌ_È_ËÂÌÚ_166"/><linearGradient id="_ÂÁ_Ï_ÌÌ_È_ËÂÌÚ_165-8" x1="70.15" y1="131.01" x2="70.26" y2="154.88" xlink:href="#_ÂÁ_Ï_ÌÌ_È_ËÂÌÚ_165"/><linearGradient id="_ÂÁ_Ï_ÌÌ_È_ËÂÌÚ_165-9" x1="71.77" y1="141.91" x2="74.13" y2="144.99" xlink:href="#_ÂÁ_Ï_ÌÌ_È_ËÂÌÚ_165"/><linearGradient id="linear-gradient-2" x1="102.87" y1="7.69" x2="101.95" y2="41.31" gradientUnits="userSpaceOnUse"><stop offset="0" stop-color="#6c342a"/><stop offset="0.3" stop-color="#673228"/><stop offset="0.63" stop-color="#5a2c22"/><stop offset="0.97" stop-color="#442119"/><stop offset="1" stop-color="#422018"/></linearGradient><linearGradient id="linear-gradient-3" x1="41.55" y1="21.95" x2="40.56" y2="58.5" xlink:href="#linear-gradient-2"/><linearGradient id="linear-gradient-4" x1="97.32" y1="-3.59" x2="96.17" y2="38.74" xlink:href="#linear-gradient-2"/><linearGradient id="linear-gradient-5" x1="51.14" y1="7.66" x2="50.17" y2="43.28" xlink:href="#linear-gradient-2"/><linearGradient id="_ÂÁ_Ï_ÌÌ_È_ËÂÌÚ_875" x1="105.88" y1="38.18" x2="103.25" y2="68.4" gradientUnits="userSpaceOnUse"><stop offset="0" stop-color="#6c342a"/><stop offset="0.11" stop-color="#663128"/><stop offset="0.67" stop-color="#4c251c"/><stop offset="1" stop-color="#422018"/></linearGradient><linearGradient id="linear-gradient-6" x1="99.36" y1="64.32" x2="103.74" y2="74.95" xlink:href="#_ÂÁ_Ï_ÌÌ_È_ËÂÌÚ_1204"/><linearGradient id="linear-gradient-7" x1="39.93" y1="62.91" x2="45.76" y2="77.07" xlink:href="#_ÂÁ_Ï_ÌÌ_È_ËÂÌÚ_1204"/><linearGradient id="linear-gradient-8" x1="72.43" y1="37.25" x2="71.92" y2="64.55" gradientUnits="userSpaceOnUse"><stop offset="0" stop-color="#fed8b4"/><stop offset="0.33" stop-color="#fad6af"/><stop offset="1" stop-color="#f6d4ab"/></linearGradient><linearGradient id="linear-gradient-9" x1="72.1" y1="91.44" x2="72.61" y2="100.51" gradientUnits="userSpaceOnUse"><stop offset="0" stop-color="#fed8b4"/><stop offset="1" stop-color="#f6d4ab"/></linearGradient><linearGradient id="linear-gradient-10" x1="85.12" y1="69.1" x2="84.37" y2="60.26" gradientUnits="userSpaceOnUse"><stop offset="0" stop-color="#f6d4ab"/><stop offset="0.52" stop-color="#f5d2a8"/><stop offset="0.85" stop-color="#f2caa0"/><stop offset="1" stop-color="#f0c499"/></linearGradient><linearGradient id="linear-gradient-11" x1="58.7" y1="69.05" x2="57.96" y2="60.35" xlink:href="#linear-gradient-10"/><linearGradient id="_ÂÁ_Ï_ÌÌ_È_ËÂÌÚ_1204-2" x1="63.51" y1="159.1" x2="60.79" y2="81.03" xlink:href="#_ÂÁ_Ï_ÌÌ_È_ËÂÌÚ_1204"/><linearGradient id="_ÂÁ_Ï_ÌÌ_È_ËÂÌÚ_1204-3" x1="86.21" y1="156.77" x2="83.57" y2="81.09" xlink:href="#_ÂÁ_Ï_ÌÌ_È_ËÂÌÚ_1204"/><radialGradient id="radial-gradient" cx="3909.28" cy="-246.88" r="22.1" gradientTransform="matrix(-0.55, 0.02, 0.03, 0.39, 2248.08, 88.78)" gradientUnits="userSpaceOnUse"><stop offset="0" stop-color="#f8c49d"/><stop offset="1" stop-color="#f6d4ab"/></radialGradient><linearGradient id="linear-gradient-12" x1="94.7" y1="68.02" x2="86.86" y2="70.72" gradientUnits="userSpaceOnUse"><stop offset="0" stop-color="#fad6b0"/><stop offset="1" stop-color="#f6d4ab"/></linearGradient><radialGradient id="radial-gradient-2" cx="61.22" cy="-360.88" r="22.91" gradientTransform="matrix(0.55, -0.03, 0.05, 0.37, 39.26, 209.44)" xlink:href="#radial-gradient"/><linearGradient id="_ÂÁ_Ï_ÌÌ_È_ËÂÌÚ_1204-4" x1="73.22" y1="104.57" x2="72.67" y2="88.7" xlink:href="#_ÂÁ_Ï_ÌÌ_È_ËÂÌÚ_1204"/><linearGradient id="linear-gradient-13" x1="62.67" y1="85.42" x2="82.77" y2="85.76" gradientUnits="userSpaceOnUse"><stop offset="0" stop-color="#e8d9d7"/><stop offset="0.14" stop-color="#f0e6e4"/><stop offset="0.39" stop-color="#fbf8f8"/><stop offset="0.57" stop-color="#fff"/><stop offset="1" stop-color="#e8d3d1"/></linearGradient><linearGradient id="_ÂÁ_Ï_ÌÌ_È_ËÂÌÚ_1204-5" x1="73.23" y1="104.23" x2="72.69" y2="88.83" xlink:href="#_ÂÁ_Ï_ÌÌ_È_ËÂÌÚ_1204"/><linearGradient id="linear-gradient-14" x1="72" y1="77.9" x2="72.31" y2="85.34" gradientUnits="userSpaceOnUse"><stop offset="0" stop-color="#e8d9d7"/><stop offset="0.4" stop-color="#efe5e4"/><stop offset="1" stop-color="#fff"/></linearGradient><linearGradient id="_ÂÁ_Ï_ÌÌ_È_ËÂÌÚ_1204-6" x1="72.8" y1="107.2" x2="72.28" y2="75.28" xlink:href="#_ÂÁ_Ï_ÌÌ_È_ËÂÌÚ_1204"/><linearGradient id="linear-gradient-15" x1="58.09" y1="71.08" x2="46.45" y2="68.24" xlink:href="#linear-gradient-12"/><linearGradient id="_ÂÁ_Ï_ÌÌ_È_ËÂÌÚ_997-2" x1="51.77" y1="61.71" x2="66.82" y2="65.95" xlink:href="#_ÂÁ_Ï_ÌÌ_È_ËÂÌÚ_997"/><linearGradient id="linear-gradient-16" x1="64.89" y1="65.63" x2="55.24" y2="63.3" gradientUnits="userSpaceOnUse"><stop offset="0" stop-color="#ece7e6"/><stop offset="0.24" stop-color="#f6f4f4"/><stop offset="0.54" stop-color="#fdfcfc"/><stop offset="1" stop-color="#fff"/></linearGradient><linearGradient id="linear-gradient-17" x1="63" y1="64.46" x2="52.85" y2="64.86" gradientUnits="userSpaceOnUse"><stop offset="0" stop-color="#95958d"/><stop offset="1" stop-color="#c6c6c0"/></linearGradient><linearGradient id="linear-gradient-18" x1="56.83" y1="62.39" x2="67.35" y2="67.75" xlink:href="#linear-gradient-17"/><radialGradient id="radial-gradient-3" cx="46.15" cy="110.99" r="11.68" gradientTransform="translate(35.83 5.47) scale(0.55 0.54)" gradientUnits="userSpaceOnUse"><stop offset="0" stop-color="#2b3b3b"/><stop offset="1" stop-color="#1d2827"/></radialGradient><linearGradient id="_ÂÁ_Ï_ÌÌ_È_ËÂÌÚ_998" x1="53.18" y1="62.72" x2="64.53" y2="62.72" gradientUnits="userSpaceOnUse"><stop offset="0" stop-color="#391b13"/><stop offset="0.34" stop-color="#3d1d15"/><stop offset="0.69" stop-color="#4a2319"/><stop offset="1" stop-color="#5b2b20"/></linearGradient><linearGradient id="_ÂÁ_Ï_ÌÌ_È_ËÂÌÚ_1204-7" x1="77.2" y1="61.94" x2="91.89" y2="66.08" xlink:href="#_ÂÁ_Ï_ÌÌ_È_ËÂÌÚ_1204"/><linearGradient id="linear-gradient-19" x1="89.45" y1="65.69" x2="80.04" y2="63.41" xlink:href="#linear-gradient-16"/><linearGradient id="linear-gradient-20" x1="87.38" y1="64.44" x2="77.23" y2="64.85" xlink:href="#linear-gradient-17"/><linearGradient id="linear-gradient-21" x1="81.52" y1="61.84" x2="93.8" y2="68.1" xlink:href="#linear-gradient-17"/><radialGradient id="radial-gradient-4" cx="90.47" cy="110.99" r="11.68" xlink:href="#radial-gradient-3"/><linearGradient id="_ÂÁ_Ï_ÌÌ_È_ËÂÌÚ_331" x1="78.43" y1="62.72" x2="89.79" y2="62.72" gradientUnits="userSpaceOnUse"><stop offset="0" stop-color="#5b2b20"/><stop offset="0.31" stop-color="#4a2319"/><stop offset="0.66" stop-color="#3d1d15"/><stop offset="1" stop-color="#391b13"/></linearGradient><linearGradient id="linear-gradient-22" x1="77.41" y1="56.6" x2="91.69" y2="56.6" gradientUnits="userSpaceOnUse"><stop offset="0" stop-color="#683126"/><stop offset="0.34" stop-color="#53281e"/><stop offset="0.68" stop-color="#46221a"/><stop offset="1" stop-color="#422018"/></linearGradient><linearGradient id="linear-gradient-23" x1="72" y1="24.38" x2="72" y2="67.43" gradientUnits="userSpaceOnUse"><stop offset="0" stop-color="#f6d4ab"/><stop offset="0.45" stop-color="#f3cba1"/><stop offset="1" stop-color="#f0c499"/></linearGradient><linearGradient id="_ÂÁ_Ï_ÌÌ_È_ËÂÌÚ_1204-8" x1="94.11" y1="134.4" x2="92.03" y2="74.85" xlink:href="#_ÂÁ_Ï_ÌÌ_È_ËÂÌÚ_1204"/><linearGradient id="_ÂÁ_Ï_ÌÌ_È_ËÂÌÚ_1204-9" x1="54.33" y1="130.54" x2="52.42" y2="75.6" xlink:href="#_ÂÁ_Ï_ÌÌ_È_ËÂÌÚ_1204"/><linearGradient id="_ÂÁ_Ï_ÌÌ_È_ËÂÌÚ_1070" x1="71.73" y1="77.88" x2="70.52" y2="105.96" gradientUnits="userSpaceOnUse"><stop offset="0" stop-color="#d1b297"/><stop offset="0.08" stop-color="#cfb096"/><stop offset="1" stop-color="#bca088"/></linearGradient><linearGradient id="linear-gradient-24" x1="40.33" y1="48.2" x2="58.3" y2="101.95" xlink:href="#_ÂÁ_Ï_ÌÌ_È_ËÂÌÚ_1070"/><linearGradient id="linear-gradient-25" x1="89.12" y1="133.66" x2="89.56" y2="99.53" xlink:href="#_ÂÁ_Ï_ÌÌ_È_ËÂÌÚ_1070"/><linearGradient id="_ÂÁ_Ï_ÌÌ_È_ËÂÌÚ_1070-2" x1="71.58" y1="90.15" x2="73.12" y2="107" xlink:href="#_ÂÁ_Ï_ÌÌ_È_ËÂÌÚ_1070"/><linearGradient id="linear-gradient-26" x1="71.86" y1="80.01" x2="71.64" y2="74.5" xlink:href="#_ÂÁ_Ï_ÌÌ_È_ËÂÌÚ_1070"/><linearGradient id="linear-gradient-27" x1="71.64" y1="51.78" x2="72.19" y2="74.94" gradientUnits="userSpaceOnUse"><stop offset="0" stop-color="#fed8b4"/><stop offset="0.25" stop-color="#fbd6b1"/><stop offset="1" stop-color="#f6d4ab"/></linearGradient><linearGradient id="linear-gradient-28" x1="71.86" y1="67.35" x2="72.06" y2="74.54" xlink:href="#linear-gradient-10"/><linearGradient id="linear-gradient-29" x1="71.6" y1="76.11" x2="72.38" y2="70.33" xlink:href="#linear-gradient-8"/><linearGradient id="linear-gradient-30" x1="72.47" y1="91.66" x2="72.84" y2="96" gradientUnits="userSpaceOnUse"><stop offset="0" stop-color="#bca088"/><stop offset="0.92" stop-color="#cfb096"/><stop offset="1" stop-color="#d1b297"/></linearGradient><linearGradient id="linear-gradient-31" x1="73.36" y1="109.11" x2="74.69" y2="117.3" gradientUnits="userSpaceOnUse"><stop offset="0" stop-color="#b59a85"/><stop offset="0.96" stop-color="#c8ab91"/><stop offset="1" stop-color="#c9ac92"/></linearGradient><linearGradient id="linear-gradient-32" x1="70.98" y1="12.82" x2="69.98" y2="49.8" xlink:href="#linear-gradient-2"/><linearGradient id="_ÂÁ_Ï_ÌÌ_È_ËÂÌÚ_874" x1="47.76" y1="32.99" x2="34.85" y2="53.45" gradientUnits="userSpaceOnUse"><stop offset="0" stop-color="#6c342a"/><stop offset="1" stop-color="#422018"/></linearGradient><linearGradient id="_ÂÁ_Ï_ÌÌ_È_ËÂÌÚ_60" x1="69.93" y1="19.8" x2="41.46" y2="58.88" xlink:href="#linear-gradient-2"/><linearGradient id="_ÂÁ_Ï_ÌÌ_È_ËÂÌÚ_60-2" x1="84.55" y1="37.17" x2="95.95" y2="80.32" xlink:href="#linear-gradient-2"/><linearGradient id="_ÂÁ_Ï_ÌÌ_È_ËÂÌÚ_60-3" x1="94.78" y1="27.42" x2="102.18" y2="59.26" xlink:href="#linear-gradient-2"/><linearGradient id="linear-gradient-33" x1="88.26" y1="1.38" x2="87.26" y2="37.93" xlink:href="#linear-gradient-2"/><linearGradient id="linear-gradient-34" x1="68.75" y1="0.58" x2="67.75" y2="37.5" xlink:href="#linear-gradient-2"/><linearGradient id="linear-gradient-35" x1="87.4" y1="13.64" x2="43.75" y2="44.96" xlink:href="#linear-gradient-2"/><linearGradient id="_ÂÁ_Ï_ÌÌ_È_ËÂÌÚ_999" x1="51.11" y1="56.6" x2="65.39" y2="56.6" gradientUnits="userSpaceOnUse"><stop offset="0" stop-color="#422018"/><stop offset="0.32" stop-color="#46221a"/><stop offset="0.66" stop-color="#53281e"/><stop offset="1" stop-color="#683126"/></linearGradient><linearGradient id="linear-gradient-36" x1="83.06" y1="3.32" x2="82.07" y2="39.87" xlink:href="#linear-gradient-2"/><linearGradient id="_ÂÁ_Ï_ÌÌ_È_ËÂÌÚ_298" x1="61.18" y1="34.21" x2="57.56" y2="87.9" gradientUnits="userSpaceOnUse"><stop offset="0" stop-color="#70372c"/><stop offset="0.31" stop-color="#6b342a"/><stop offset="0.66" stop-color="#5e2d23"/><stop offset="1" stop-color="#4a2119"/></linearGradient><linearGradient id="_ÂÁ_Ï_ÌÌ_È_ËÂÌÚ_298-2" x1="83.4" y1="46.32" x2="83.35" y2="50.35" xlink:href="#_ÂÁ_Ï_ÌÌ_È_ËÂÌÚ_298"/><linearGradient id="_ÂÁ_Ï_ÌÌ_È_ËÂÌÚ_298-3" x1="99.34" y1="74.42" x2="99.26" y2="81.22" xlink:href="#_ÂÁ_Ï_ÌÌ_È_ËÂÌÚ_298"/><linearGradient id="_ÂÁ_Ï_ÌÌ_È_ËÂÌÚ_298-4" x1="38.4" y1="74.27" x2="38.32" y2="80.74" xlink:href="#_ÂÁ_Ï_ÌÌ_È_ËÂÌÚ_298"/></defs><circle class="cls-1" cx="72" cy="72" r="72" transform="translate(-22.07 33.03) rotate(-22.5)"/><path class="cls-2" d="M122.12,118c-8.63-3.89-26.52-11.59-26.52-11.59S90.44,123.27,72,124.28s-23.34-18-23.34-18c-4.09,1.62-25.39,10.79-30.88,13.16A72,72,0,0,0,122.1,123.7C122.13,120.28,122.12,118,122.12,118Z"/><path class="cls-3" d="M72.4,132.31c-17-.48-23.75-2.37-34.26,3.24a72.07,72.07,0,0,0,69-.67C100.58,129.62,89.41,132.78,72.4,132.31Z"/><path class="cls-2" d="M125.23,120.48a8.37,8.37,0,0,0-3.11-2.46l-2.21,7.72A71.35,71.35,0,0,0,125.23,120.48Z"/><path class="cls-4" d="M88.22,103.69C88,102.51,87,90.39,87,90.39L57,89.09l-.06,14.45a24.72,24.72,0,0,1-6.38,3.08c5.39,5.7,21.36,24.24,22.11,24,1.23-.44,23.92-23.06,23.92-23.06S88.47,104.87,88.22,103.69Z"/><path class="cls-5" d="M65.91,110.18c-1.75-1.11-4.71-3.59-4.71-3.59.82,4.37,4.41,13.55,12,12.84,6.48-.61,10.06-8.36,10.85-12.9C79.73,111.92,71.77,113.91,65.91,110.18Z"/><path class="cls-6" d="M64,118.42,72.8,131.2l11.64-14.27s-9.44,4.49-10.59,4.89S64,118.42,64,118.42Z"/><path class="cls-7" d="M88.2,95.39l0-.31-31-.53-.33-.24a31.47,31.47,0,0,0,2.25,13.81,59.14,59.14,0,0,1-.57-8.23c2.32,3.26,8.66,8.74,15.65,7.94,6.78-.78,9.94-5.27,12.13-8a46.42,46.42,0,0,1-.37,8.69s3.42-9.23,2.45-13.24Z"/><path class="cls-8" d="M123.78,117.49C120,115.71,94.1,105.92,94.1,105.92s23.21,11,29,14.56a5.07,5.07,0,0,1,1.15,1c.71-.75,1.41-1.51,2.09-2.3A9.12,9.12,0,0,0,123.78,117.49Z"/><path class="cls-2" d="M18.1,119.73c.86,1,1.74,1.91,2.65,2.83-.66-2.27-1.09-3.78-1.09-3.78A6.16,6.16,0,0,0,18.1,119.73Z"/><path class="cls-9" d="M18,118.24c-.27.13-.54.27-.82.43.65.77,1.32,1.52,2,2.26,6.53-3.85,28.27-14.2,28.27-14.2S21.79,116.47,18,118.24Z"/><path class="cls-10" d="M73.14,133.1a1.43,1.43,0,0,0,0,2.07,1.53,1.53,0,0,0,2.12,0,1.43,1.43,0,0,0,0-2.07A1.53,1.53,0,0,0,73.14,133.1Z"/><path class="cls-11" d="M74,132.73A1.23,1.23,0,1,0,75.23,134,1.25,1.25,0,0,0,74,132.73Z"/><path class="cls-12" d="M76.73,123.84,72,133.52l-1.77,6.81a35.81,35.81,0,0,1,4.13-7.55c2.38-3.1,4-5.39,4-5.39l6.93-1.93,11.24,2.45L94.72,113Z"/><polygon class="cls-13" points="59.12 116.7 48.67 127.94 60.33 125.32 67.69 126.41 71.87 132.93 69.94 124.22 59.12 116.7"/><path class="cls-14" d="M62.29,116.87a47.93,47.93,0,0,1-5.07-22.56,12.06,12.06,0,0,0-3.55,3.43c-2.25,3.55-5.66,8.52-5.66,8.52v22.19l11.52-8.93,10.19,5.86L72,133.52c.36-.55.72-1.15,1.11-1.72-.67-2.24-1.24-7.56-1.65-8.52S63.06,118.58,62.29,116.87Z"/><path class="cls-15" d="M87.59,94.31A50.52,50.52,0,0,1,83,116.87c-.77,1.71-7.49,5.64-7.95,6.71s-2.65,8.1-3.42,9.75-1.38,7-1.38,7l2.43-7.15L77.34,125l8.41-5.49,11.52,8.93V107s-4.39-6.71-5.88-8.75A23.44,23.44,0,0,0,87.59,94.31Z"/><path class="cls-16" d="M87.61,95.77a51.3,51.3,0,0,1-4.92,21.55c1.24-1.26,3.77-5.62,5.72-12.9s-.17-9.34-.17-9.34Z"/><path class="cls-17" d="M57.22,95.08,56.56,95a7,7,0,0,0-.62,3.4c.19,5.83,2.07,13.69,6.68,19C61.06,115.05,57,103,57.22,95.08Z"/><path class="cls-18" d="M95.75,124.84a31.83,31.83,0,0,1-4.62-1.15l6.14,4.76V117.76S96.52,124.8,95.75,124.84Z"/><path class="cls-19" d="M49.37,125.34C48.91,125.19,48,121,48,121l0,7.43,6.53-5.06S49.83,125.5,49.37,125.34Z"/><path class="cls-20" d="M80.24,124.74s-3,14-3.57,15a30.87,30.87,0,0,0-.09,4.1l.85,0c.14-2.16.25-3.92.28-4.05C77.92,139,80.24,124.74,80.24,124.74Z"/><path class="cls-21" d="M59.27,123.35s5.59,3.7,5.71,4l4.35,11s-3-11-3.43-11.21S59.27,123.35,59.27,123.35Z"/><path class="cls-22" d="M88.41,95.29a13.58,13.58,0,0,1,.51,6.85c-.46,2.7-3.32,11.63-6.23,15.18,0,0,4.09-2.59,7.66-15.18C92,96.37,88.41,95.29,88.41,95.29Z"/><path class="cls-23" d="M56.24,101.91c-.86-6.1.8-7.36,1.18-7.57a5.08,5.08,0,0,0-2.88,4.56c0,3.39,1.83,13.84,7.91,18.3C61.59,116.34,57.58,111.29,56.24,101.91Z"/><path class="cls-24" d="M62.62,117.32l-.17-.12C62.57,117.31,62.63,117.35,62.62,117.32Z"/><path class="cls-25" d="M57.42,94.34l.08,0Z"/><path class="cls-26" d="M76.32,124.06c-.34.32-3.65,9.12-3.65,9.12L77.34,125l8.41-5.49-1.31-.94S76.67,123.75,76.32,124.06Z"/><path class="cls-27" d="M60.89,118.58l-1.36.94,10.19,5.86,2,7.3s-1.26-8.3-1.53-8.62S60.89,118.58,60.89,118.58Z"/><path class="cls-28" d="M71,135.33l-1.7,4.83c0,.28,0,1.61,0,3.79l1,0-.09-3.65Z"/><path class="cls-29" d="M74.19,142.83a1.54,1.54,0,0,0-2.13,0,1.42,1.42,0,0,0-.42,1.17H72c.88,0,1.75,0,2.62-.05A1.45,1.45,0,0,0,74.19,142.83Z"/><path class="cls-11" d="M72.89,142.45a1.25,1.25,0,0,0-1.27,1.23,1.13,1.13,0,0,0,0,.32H72c.71,0,1.41,0,2.12,0a1.35,1.35,0,0,0,0-.29A1.25,1.25,0,0,0,72.89,142.45Z"/><path class="cls-30" d="M99,43.56c4.26,12.57-5.21,23.24,0,31.81.71-5.07,4-8.74,5.55-13.35C106.93,54.74,103.68,45.52,99,43.56Z"/><path class="cls-31" d="M43.14,46.57C38.43,49,34.7,57,35.9,63.62c1.34,5.72,5.78,8.28,9,11.79C44,63.66,42.93,54.73,43.14,46.57Z"/><path class="cls-32" d="M85.94,83.82c13.51,6.51,22.18-7.06,16.49-13.92C100.44,73.36,88.78,81.11,85.94,83.82Z"/><path class="cls-33" d="M41.77,71c-5.63,6.89,4,21.19,16.59,8.69C55.5,77,43.79,74.43,41.77,71Z"/><path class="cls-34" d="M101.81,42.49c.5,1.24-1.88,4.47-1.6,5.8,1,4.45,3.13,14.31,2.22,21.61C107.51,68.75,114.69,51.82,101.81,42.49Z"/><path class="cls-35" d="M102.3,61.49c-4.1.2-8,18.12-4.24,18.11,1.32,0,4.12-1.25,6.28-10.93C104.34,68.67,108,61.22,102.3,61.49Z"/><path class="cls-36" d="M100.66,70.1A7.1,7.1,0,0,1,99,75.41,12.42,12.42,0,0,0,102.13,71c1.34-4.29-.32-5,.62-5.93.76-.75,1.21,2,1.21,2C105.79,61.44,100.38,61.52,100.66,70.1Z"/><path class="cls-35" d="M41.6,61.49c-5.72-.27-2,7.18-2,7.18,2.16,9.68,5,11.11,6.28,10.93C50.77,78.9,45.7,61.69,41.6,61.49Z"/><path class="cls-37" d="M43.25,70.1c.27-8.58-5.14-8.66-3.31-3,0,0,.45-2.79,1.22-2,.93.92-.73,1.64.61,5.93a12.42,12.42,0,0,0,3.16,4.42A7.08,7.08,0,0,1,43.25,70.1Z"/><path class="cls-38" d="M89.79,33c-4.09-4.72-10.52-6.77-21.52-6.52,0,0-14.33.5-17.91,8.25-3.83,8.28-4.59,19.69-4.25,30.37.41,13,0,17.18,3.52,22.67S59.29,96.47,64.22,101c1.24,1.15,11.12,4.4,17.23-1.38,2.86-2.7,10.34-8,12.86-11.81s3.46-13.6,3.4-15c-.37-7.32,0-5.39.23-11.7C98.86,38.42,91.8,35.36,89.79,33Z"/><path class="cls-39" d="M72.58,94.66c-1.57,0-5.51,1-5.39,1.62.34,1.72,4,2,5.56,2s4.75-.4,4.82-1.87C77.6,95.83,74.15,94.65,72.58,94.66Z"/><path class="cls-40" d="M77.47,55.8c-.35,2.21-2.41,10.35-1.09,11.11,8.21,4.78,17.19-1.27,17.19-1.27C94.21,51.89,77.47,55.8,77.47,55.8Z"/><path class="cls-41" d="M49.65,65.84s8.72,5.75,17.11.42c1.29-.82-1.25-8-1.6-10.25C65.16,56,48.94,50.88,49.65,65.84Z"/><path class="cls-42" d="M58.46,80.85c-.31-1.46-1.11-.49-1.11-.49s-.77,7.58,0,9,7.93,6.26,7.93,6.26-5.82-6.17-6.42-8.41C58.56,86.07,58.75,82.25,58.46,80.85Z"/><path class="cls-43" d="M86.28,80.89c-.26,1.34,0,5.13-.34,6.27-.68,2.53-6.66,8.33-6.66,8.33s6.27-2.63,8.36-6.55-.3-8.77-.3-8.77S86.58,79.26,86.28,80.89Z"/><path class="cls-44" d="M87.35,79.92c4.53.3,9.42,2.44,10.36-6.83.54-5.28-.46-8-2.7-8.46-4.75-.87-11.56,1.18-14.4,2.64C74.62,70.36,79.34,79.38,87.35,79.92Z"/><path class="cls-45" d="M94.48,67.17c-.82-.45-1.43.2-3.12.76s-6.21,1.39-4.08,2.53c2.37,1.27,5.67-.47,6.07-.79S95.49,67.73,94.48,67.17Z"/><path class="cls-46" d="M61.71,66.83c-1.29-.47-11.14-2.69-14.08-1.84-1.67.48-1.4,4.21-1.12,7.74.13,1.7.11,4.41.5,5.48,1.89,5.23,9.34,2.24,13.51.79C67.64,76.51,68.27,69.2,61.71,66.83Z"/><path class="cls-47" d="M83.6,82a28.21,28.21,0,0,0,3.16-.87,2.7,2.7,0,0,0,.49-.94l-1.85.56Z"/><path class="cls-47" d="M57.26,80.36a2.6,2.6,0,0,0,.49.93,27.06,27.06,0,0,0,3.17.88l-1.81-1.26Z"/><path class="cls-48" d="M66.36,92.88a49.74,49.74,0,0,1,12.92.1C73.43,89.39,66.36,92.88,66.36,92.88Z"/><path class="cls-49" d="M58,80.71c.16.16.27.38.47.47,3.71,1.62,3.76,3.17,5.34,4a17.94,17.94,0,0,0,16.61-.14c2.54-1.38,2.87-3,5.91-4.16a.78.78,0,0,0,.48-.47C70.52,84.34,58,80.71,58,80.71Z"/><path class="cls-50" d="M72.5,88.35c-2.19,0-4.35-.42-4.35,0s1.9,1.36,4.1,1.36,4.35-.94,4.35-1.36S74.7,88.35,72.5,88.35Z"/><path class="cls-51" d="M78.83,84.05A36.73,36.73,0,0,1,72,84.9a42.55,42.55,0,0,1-7.28-.79c-.68-.12-1,1.06-1,1.06,2.07,1.49,4.55,2,8.52,2.08A14.07,14.07,0,0,0,80.45,85S79.7,83.88,78.83,84.05Z"/><path class="cls-52" d="M64.41,88.9C72.87,95.54,81,88.44,81,88.44A19.24,19.24,0,0,1,64.41,88.9Z"/><path class="cls-53" d="M61.62,81.48a2.4,2.4,0,0,0,1.47,2c.82.35,2.66,1.73,9.81,1.51s8.56-1.92,8.88-2.22a3.65,3.65,0,0,0,.88-1.49S71.9,83.34,61.62,81.48Z"/><path class="cls-54" d="M61.6,81.35a2.68,2.68,0,0,0,.28,1c.2.31,5.9,1.13,10.22,1.16S82,82.43,82.23,82.18a3.06,3.06,0,0,0,.48-1.06S77.86,82.73,61.6,81.35Z"/><path class="cls-55" d="M57.07,80.28s1,.59.88.43c0,0,12.57,3.63,28.81-.29l.88-.44C78.82,81.43,57.07,80.28,57.07,80.28Z"/><path class="cls-56" d="M53,68.63c-1.72-.47-2.36-1.09-3.15-.6-1,.61.84,2.13,1.25,2.44s3.81,1.87,6.1.49C59.26,69.7,54.68,69.09,53,68.63Z"/><path class="cls-57" d="M58.85,59.79c-1.38-.08-4.31.33-5.29,1.08-1.75,1.35-2.37,2.56-2.21,4.1,0,.45,1.91,2.19,5.89,2.49,3,.23,7.7,0,8.84-1.22.55-.6-.16-3-.38-3.79C65.28,60.87,63,60,58.85,59.79Z"/><path class="cls-58" d="M61.76,61.42c-6.38-.76-6,.18-8.58,3.1a2.47,2.47,0,0,0,.39,1A4.43,4.43,0,0,0,56.23,67a14,14,0,0,0,7.15-.15c.75-.14,1.57-.84,1.55-1.16a5.2,5.2,0,0,0-.4-2.45A3.2,3.2,0,0,0,61.76,61.42Z"/><path class="cls-59" d="M53.18,64.52a2.24,2.24,0,0,0,.37.94c4.58-2.8,9.53-2.15,11-2.2C62,61.63,58.15,62,56.28,61.79,53.9,61.54,53.18,64.52,53.18,64.52Z"/><path class="cls-60" d="M59.17,61.78a3.49,3.49,0,0,0-3.55,3.71A2.54,2.54,0,0,0,56.23,67a13.5,13.5,0,0,0,3,.38,11.44,11.44,0,0,0,3.18-.31A4.14,4.14,0,0,0,63,65.33C63.1,63.25,61.65,61.66,59.17,61.78Z"/><path class="cls-61" d="M59,61.51a3.69,3.69,0,0,0-3.34,2.89,17,17,0,0,1,6.78-1.17A4,4,0,0,0,59,61.51Z"/><path class="cls-62" d="M59.24,62.36a2.16,2.16,0,1,0,2.28,2.12A2.21,2.21,0,0,0,59.24,62.36Z"/><path class="cls-63" d="M63.23,61.78c-2.25-1.24-5.76-1-8-.11a3,3,0,0,0-2,2.85s1.15-1.29,4.93-1.8a13.87,13.87,0,0,1,6.42.54A3.43,3.43,0,0,0,63.23,61.78Z"/><path class="cls-64" d="M61.08,64.69a.93.93,0,0,0-.47,1.23,1,1,0,0,0,1.29.37.92.92,0,0,0,.46-1.23A1,1,0,0,0,61.08,64.69Z"/><path class="cls-64" d="M59.07,63.78a.71.71,0,0,0-.36,1,.77.77,0,0,0,1,.3.72.72,0,0,0,.36-1A.76.76,0,0,0,59.07,63.78Z"/><path class="cls-65" d="M89.41,60.87c-1-.75-3.91-1.16-5.29-1.08-4.18.22-6.43,1.08-6.85,2.66-.22.83-.93,3.19-.38,3.79,1.14,1.23,5.87,1.45,8.84,1.22,4-.3,5.85-2,5.89-2.49C91.77,63.43,91.16,62.22,89.41,60.87Z"/><path class="cls-66" d="M81.21,61.42a3.23,3.23,0,0,0-2.78,1.84A5.27,5.27,0,0,0,78,65.71c0,.32.8,1,1.55,1.16a14,14,0,0,0,7.15.15A4.43,4.43,0,0,0,89.4,65.5a2.47,2.47,0,0,0,.39-1C87.2,61.6,87.59,60.66,81.21,61.42Z"/><path class="cls-59" d="M86.69,61.79c-1.87.2-5.67-.16-8.26,1.47,1.46.05,6.41-.6,11,2.2a2.24,2.24,0,0,0,.37-.94S89.07,61.54,86.69,61.79Z"/><path class="cls-67" d="M83.8,61.78c-2.48-.12-3.93,1.47-3.81,3.55a4.14,4.14,0,0,0,.58,1.76,11.4,11.4,0,0,0,3.17.31,13.52,13.52,0,0,0,3-.38,2.54,2.54,0,0,0,.61-1.53A3.49,3.49,0,0,0,83.8,61.78Z"/><path class="cls-68" d="M84,61.51a4,4,0,0,0-3.44,1.72,17,17,0,0,1,6.78,1.17A3.69,3.69,0,0,0,84,61.51Z"/><path class="cls-69" d="M83.73,62.36a2.16,2.16,0,1,0,2.21,2.2A2.2,2.2,0,0,0,83.73,62.36Z"/><path class="cls-70" d="M87.75,61.67c-2.25-.9-5.76-1.13-8,.11a3.49,3.49,0,0,0-1.31,1.48,13.93,13.93,0,0,1,6.43-.54c3.78.51,4.93,1.8,4.93,1.8A3,3,0,0,0,87.75,61.67Z"/><path class="cls-64" d="M85.56,64.59a1,1,0,1,0,1.07.85A1,1,0,0,0,85.56,64.59Z"/><path class="cls-64" d="M83.46,63.7a.77.77,0,1,0,.84.67A.75.75,0,0,0,83.46,63.7Z"/><path class="cls-71" d="M89.08,55.87a26,26,0,0,0-10.84-1.41,2.24,2.24,0,0,0,0,1.88,2.33,2.33,0,0,1-.46-1.82c-.87.4,0,2.76,0,2.76,1.6.08,5.74-.19,8.8.36a40.73,40.73,0,0,1,5.07,1.15A4,4,0,0,0,89.08,55.87Z"/><path class="cls-72" d="M91.05,36.78c-13.3-12-37-2.25-39.73-2.19s-5.13,36.64-5.13,36.64,3.84-9.35,6.3-12.82c6.68-9.43,7.08-15.06,10-18.15C64.84,37.72,68,34.75,73.62,35c21.33.79,13,13.6,20.15,23.34,1.59,2.18,3.66,11.5,3.66,11.5S100.12,45,91.05,36.78Z"/><path class="cls-73" d="M88.52,80.44s1.8,5.17,3.13,5.58,4.11-2.24,4-12.13C95.7,73.89,94.05,90.19,88.52,80.44Z"/><path class="cls-74" d="M52.49,83c-1.79-1-3.6-8-3.6-8s.43,8.93,3.17,10.68,4-5.2,4-5.2S54.28,84,52.49,83Z"/><path class="cls-75" d="M96.22,58.19c-.69,15.71.16,26.34-4.41,26.42-1,0-2.71-4.22-4.8-5.7a14.19,14.19,0,0,0-4.11-1.08l-4.09-1.06-2.87-.47-2.1.72H72.38c-.68,0-1.35,0-2,0l-1.68-.57H65.57l-7.64,2.18-.3.09c-1.74.59-3,5.87-4.38,5.84-4.66-.13-4.76-13.28-5.28-26.42-.16-4.1-1.78,13-1.78,13,.5,14.37,1.5,12,4.29,17.08,2,3.54,5.27,6.26,10.66,11,2.26,2,4.42,4.44,11.85,4.61a15.82,15.82,0,0,0,8.66-2.35c6.85-8.46,11-9.35,13.14-14.89a54,54,0,0,0,3.1-19ZM87,86c-.51,3.25-5.06,7.78-7.69,9.51-2.15,1.41-3.07-3.76-6.9-3.76s-4.9,5.42-7.41,3.66c-1.73-1.22-6.38-5.31-7-8.82a35.9,35.9,0,0,1-.6-6.21s20.27.76,30-.19A32.59,32.59,0,0,1,87,86Z"/><path class="cls-76" d="M46.19,71.23s0,9.29,1.78,13.68,4.89,7.45,6.76,9.4a90.11,90.11,0,0,0,7.73,6.21s-5-6.93-6.28-8.35S47.75,86.92,46.19,71.23Z"/><path class="cls-77" d="M87.93,93.24c-1.25,1.42-6.28,8.35-6.28,8.35s6.24-5.28,8.11-7.23S94.28,90,96,85.64s1.79-13.83,1.79-13.83C96.25,87.5,89.18,91.81,87.93,93.24Z"/><path class="cls-78" d="M67.67,97.21c-3.06,2.93,1.71,3.79,4.46,4s8.13-.38,5.05-3.87S68.63,96.3,67.67,97.21Z"/><polygon class="cls-79" points="77.12 75.8 72.36 77.59 68.52 76.22 65.57 76.5 57.93 78.69 85.67 78.41 78.81 76.77 77.12 75.8"/><path class="cls-80" d="M74.21,67.15c.26-5.09-1.54-5.82-2.88-5.78s-2,1.81-1.75,5.69-.5,5.35-.33,7.16c.08.83.47,1.36,2.59,1.38,2.32,0,3.13-.53,3.23-1.29C75.34,72.2,74,70.81,74.21,67.15Z"/><path class="cls-81" d="M74.47,77c3.14-.77,4.37-.31,4.37-.31C77,75.14,74.47,77,74.47,77Z"/><path class="cls-81" d="M65.57,76.5a9.39,9.39,0,0,1,4.09.57S67.26,75.27,65.57,76.5Z"/><path class="cls-82" d="M76.9,71.88c0,1.27.27,2.12-.12,2.85-.87,1.61-3.13,2.25-4.65,2.13-1.14.14-3.83-.43-4.95-2.12-.45-.69-.17-1.31-.37-2.66,0,0-3.11,3.7-1.24,4.42a3.22,3.22,0,0,1,2.05-.27c1.5.14,1.19,1.77,4.64,1.8,3,0,2-1.4,4-1.67s2.16.22,2.59.41C79.77,76.77,79.08,73.63,76.9,71.88Z"/><path class="cls-83" d="M68.92,74.06c-.13.83,1,1.72,3.17,1.74,2.32,0,2.84-.89,2.65-1.66C73.59,69.63,69.41,71,68.92,74.06Z"/><path class="cls-84" d="M72.48,91.64a5.14,5.14,0,0,0-3.57,1.78,13.69,13.69,0,0,1,3.48-.54,7.74,7.74,0,0,1,4,1.18S74.61,91.56,72.48,91.64Z"/><path class="cls-85" d="M62.46,100.52a13.44,13.44,0,0,0,10.19,4.64c6.3-.21,9-3.57,9-3.57a25.2,25.2,0,0,1-9.29,1.94A18.68,18.68,0,0,1,62.46,100.52Z"/><path class="cls-86" d="M100.14,32.81c-1-1-2.87-1.46-8.49-2.88,1.94-3.32-.52-9.16-4.89-10l-13.2.38c-18.68-1.76-17.45,8.44-22.45,9.09-16.33,2.12-14,28.18-8.46,32.32,1.13.85,2.69,6.85,3.54,9.54.42-4.21,1.54-7.83,2-11.68.7-6,4.59-9,3.53-14.26C51,33.11,68.27,26.52,80.45,33.91c6.31-.52,7.94,1.5,10.3,5.33C93.38,43.49,93,51.78,94.27,55c1.89,4.75,2.68,10.88,3.56,16.35.43-2.11,2.55-9.53,2.53-9.76C99.17,43.67,104.34,37,100.14,32.81Z"/><path class="cls-87" d="M38.4,33.91C34,38.91,33.52,47.57,34.65,51s6.24,7.07,6.24,7.07-2.93-12.94,3-17.32S49.63,27,49.63,27A23.27,23.27,0,0,0,38.4,33.91Z"/><path class="cls-88" d="M43.56,33C42.2,43.41,50.47,53.9,38.4,60.23c13.23-1.13,16.69-11,17.68-17.46,1.48-9.62,12.79-18,23.84-9.86C79.72,11.76,46.33,11.85,43.56,33Z"/><path class="cls-89" d="M69.19,21.32c3.74-.17,13,1.25,14.7,3.74s-2.74,7-3.44,8.85c11.2-1.85,15.11-5.63,10.14-12.78C87.72,17,73.36,17.25,69.19,21.32Z"/><path class="cls-90" d="M86.72,29.67c16.38,0,4.41,18.89,12.36,28.15-.11-9,8.33-11.91,6.28-21.79C103.48,27,92.71,24.73,86.72,29.67Z"/><path class="cls-91" d="M90.75,34.59c-4-3.05-10.3-.68-10.3-.68,10.7.78,11.89,7.92,12.38,12.27s.76,5.7.76,5.7C94.4,43.27,94.23,37.26,90.75,34.59Z"/><path class="cls-92" d="M61.62,30.79c-5.41,4.15-4.67,7.15-6.74,17,0,0,6.34-21.92,25.57-13.83C77.81,27.82,67.17,26.53,61.62,30.79Z"/><path class="cls-93" d="M49.68,42.49c3.47-17.72,22.11-22.41,27.91-12.38C74.88,17.22,49.66,20.39,49.68,42.49Z"/><path class="cls-94" d="M65,54.52a2.38,2.38,0,0,1-.47,1.82,2.21,2.21,0,0,0,0-1.88,26,26,0,0,0-10.83,1.41,4,4,0,0,0-2.62,2.92,40.73,40.73,0,0,1,5.07-1.15c3.06-.55,7.21-.28,8.8-.36C65,57.28,65.88,54.92,65,54.52Z"/><path class="cls-95" d="M80.45,23.05s5.07,2.26,0,10.86C80.45,33.91,89.59,24.59,80.45,23.05Z"/><path class="cls-96" d="M72,19.12c-6-2.88-15.14-4-23.72,3.41-7.74,6.64-4.05,20.54-4.05,20.54-.88-8.24,2.78-16.21,4.41-17.94,3.73-3.94,8.84-6.35,16.72-5.66,10.79.93,13.94,9,13.94,9S78,22,72,19.12Z"/><path class="cls-97" d="M90.48,20.5c-6.83-4.23-16.82-1.45-16.82-1.45,4.77-.31,12.69,1.06,16.13,5.05s-1.31,7.6-1.31,7.6C91.72,30.88,97.31,24.74,90.48,20.5Z"/><path class="cls-98" d="M93.72,27.13c2.1.22,6.78.87,9.48,7.65s-1.73,14.95-1.73,14.95c1.92-3.21,6.56-8,3.47-16.08S93.72,27.13,93.72,27.13Z"/><path class="cls-99" d="M35.15,38.37c-2.44,5.4-1.58,8.34-.59,12.34A26.82,26.82,0,0,1,37,38.37a37.82,37.82,0,0,1,7.16-9.08A18.16,18.16,0,0,0,35.15,38.37Z"/></svg>