<svg id="Layer_1" data-name="Layer 1" xmlns="http://www.w3.org/2000/svg" xmlns:xlink="http://www.w3.org/1999/xlink" viewBox="0 0 144 144"><defs><style>.cls-1{fill:#f6ece6;}.cls-2{fill:url(#_ÂÁ_Ï_ÌÌ_È_ËÂÌÚ_99);}.cls-3{fill:#f6d4ab;}.cls-4{fill:url(#linear-gradient);}.cls-5{fill:url(#linear-gradient-2);}.cls-6{fill:#f8b7ba;}.cls-7{fill:url(#linear-gradient-3);}.cls-8{fill:url(#linear-gradient-4);}.cls-9{fill:url(#linear-gradient-5);}.cls-10{fill:url(#linear-gradient-6);}.cls-11{fill:url(#linear-gradient-7);}.cls-12{fill:url(#linear-gradient-8);}.cls-13{fill:url(#linear-gradient-9);}.cls-14{fill:url(#_ÂÁ_Ï_ÌÌ_È_ËÂÌÚ_360);}.cls-15{fill:url(#_ÂÁ_Ï_ÌÌ_È_ËÂÌÚ_536);}.cls-16{fill:url(#_ÂÁ_Ï_ÌÌ_È_ËÂÌÚ_104);}.cls-17{fill:url(#_ÂÁ_Ï_ÌÌ_È_ËÂÌÚ_491);}.cls-18{fill:#f0c499;}.cls-19{fill:url(#linear-gradient-10);}.cls-20{fill:url(#linear-gradient-11);}.cls-21{fill:url(#_ÂÁ_Ï_ÌÌ_È_ËÂÌÚ_34);}.cls-22{fill:url(#linear-gradient-12);}.cls-23{fill:url(#linear-gradient-13);}.cls-24{fill:url(#radial-gradient);}.cls-25{fill:url(#radial-gradient-2);}.cls-26{fill:url(#linear-gradient-14);}.cls-27{fill:url(#_ÂÁ_Ï_ÌÌ_È_ËÂÌÚ_33);}.cls-28{fill:url(#_ÂÁ_Ï_ÌÌ_È_ËÂÌÚ_100);}.cls-29{fill:url(#_ÂÁ_Ï_ÌÌ_È_ËÂÌÚ_100-2);}.cls-30{fill:url(#linear-gradient-15);}.cls-31{fill:url(#_ÂÁ_Ï_ÌÌ_È_ËÂÌÚ_1204);}.cls-32{fill:url(#linear-gradient-16);}.cls-33{fill:#ddd;}.cls-34{fill:url(#linear-gradient-17);}.cls-35{fill:url(#linear-gradient-18);}.cls-36{fill:url(#linear-gradient-19);}.cls-37{fill:url(#radial-gradient-3);}.cls-38{fill:#fff;}.cls-39{fill:url(#_ÂÁ_Ï_ÌÌ_È_ËÂÌÚ_331);}.cls-40{fill:url(#_ÂÁ_Ï_ÌÌ_È_ËÂÌÚ_1204-2);}.cls-41{fill:#391b13;}.cls-42{fill:url(#_ÂÁ_Ï_ÌÌ_È_ËÂÌÚ_1204-3);}.cls-43{fill:url(#linear-gradient-20);}.cls-44{fill:url(#linear-gradient-21);}.cls-45{fill:url(#_ÂÁ_Ï_ÌÌ_È_ËÂÌÚ_1056);}.cls-46{fill:url(#linear-gradient-22);}.cls-47{fill:url(#radial-gradient-4);}.cls-48{fill:url(#_ÂÁ_Ï_ÌÌ_È_ËÂÌÚ_331-2);}.cls-49{fill:url(#_ÂÁ_Ï_ÌÌ_È_ËÂÌÚ_1204-4);}.cls-50{fill:url(#linear-gradient-23);}.cls-51{fill:url(#linear-gradient-24);}.cls-52{fill:url(#_ÂÁ_Ï_ÌÌ_È_ËÂÌÚ_106);}.cls-53{fill:url(#_ÂÁ_Ï_ÌÌ_È_ËÂÌÚ_1061);}.cls-54{fill:url(#_ÂÁ_Ï_ÌÌ_È_ËÂÌÚ_1061-2);}.cls-55{fill:url(#linear-gradient-25);}.cls-56{fill:#971b27;}.cls-57{fill:url(#linear-gradient-26);}.cls-58{fill:#f26d79;}.cls-59{fill:url(#linear-gradient-27);}.cls-60{fill:url(#linear-gradient-28);}.cls-61{fill:#f598a2;}.cls-62{fill:url(#linear-gradient-29);}.cls-63{fill:url(#linear-gradient-30);}.cls-64{fill:url(#linear-gradient-31);}.cls-65{fill:url(#_ÂÁ_Ï_ÌÌ_È_ËÂÌÚ_1204-5);}.cls-66{fill:url(#linear-gradient-32);}.cls-67{fill:url(#linear-gradient-33);}.cls-68{fill:url(#linear-gradient-34);}.cls-69{fill:url(#_ÂÁ_Ï_ÌÌ_È_ËÂÌÚ_98);}.cls-70{fill:url(#linear-gradient-35);}.cls-71{fill:url(#linear-gradient-36);}.cls-72{fill:url(#_ÂÁ_Ï_ÌÌ_È_ËÂÌÚ_98-2);}.cls-73{fill:url(#linear-gradient-37);}.cls-74{fill:url(#linear-gradient-38);}.cls-75{fill:url(#linear-gradient-39);}.cls-76{fill:url(#linear-gradient-40);}.cls-77{fill:url(#linear-gradient-41);}.cls-78{fill:url(#_ÂÁ_Ï_ÌÌ_È_ËÂÌÚ_298);}.cls-79{fill:url(#_ÂÁ_Ï_ÌÌ_È_ËÂÌÚ_298-2);}.cls-80{fill:url(#_ÂÁ_Ï_ÌÌ_È_ËÂÌÚ_298-3);}.cls-81{fill:url(#_ÂÁ_Ï_ÌÌ_È_ËÂÌÚ_298-4);}.cls-82{fill:url(#_ÂÁ_Ï_ÌÌ_È_ËÂÌÚ_298-5);}.cls-83{fill:url(#_ÂÁ_Ï_ÌÌ_È_ËÂÌÚ_298-6);}.cls-84{fill:url(#_ÂÁ_Ï_ÌÌ_È_ËÂÌÚ_298-7);}.cls-85{fill:url(#_ÂÁ_Ï_ÌÌ_È_ËÂÌÚ_298-8);}.cls-86{fill:url(#_ÂÁ_Ï_ÌÌ_È_ËÂÌÚ_298-9);}.cls-87{fill:url(#_ÂÁ_Ï_ÌÌ_È_ËÂÌÚ_298-10);}.cls-88{fill:url(#linear-gradient-42);}.cls-89{fill:url(#_ÂÁ_Ï_ÌÌ_È_ËÂÌÚ_99-2);}.cls-90{fill:url(#_ÂÁ_Ï_ÌÌ_È_ËÂÌÚ_298-11);}.cls-91{fill:url(#_ÂÁ_Ï_ÌÌ_È_ËÂÌÚ_298-12);}.cls-92{fill:url(#_ÂÁ_Ï_ÌÌ_È_ËÂÌÚ_298-13);}.cls-93{fill:url(#_ÂÁ_Ï_ÌÌ_È_ËÂÌÚ_298-14);}.cls-94{fill:url(#_ÂÁ_Ï_ÌÌ_È_ËÂÌÚ_298-15);}.cls-95{fill:url(#_ÂÁ_Ï_ÌÌ_È_ËÂÌÚ_298-16);}.cls-96{fill:url(#_ÂÁ_Ï_ÌÌ_È_ËÂÌÚ_298-17);}.cls-97{fill:url(#_ÂÁ_Ï_ÌÌ_È_ËÂÌÚ_298-18);}.cls-98{fill:url(#_ÂÁ_Ï_ÌÌ_È_ËÂÌÚ_298-19);}.cls-99{fill:url(#_ÂÁ_Ï_ÌÌ_È_ËÂÌÚ_98-3);}.cls-100{fill:url(#_ÂÁ_Ï_ÌÌ_È_ËÂÌÚ_298-20);}.cls-101{fill:url(#_ÂÁ_Ï_ÌÌ_È_ËÂÌÚ_298-21);}.cls-102{fill:url(#_ÂÁ_Ï_ÌÌ_È_ËÂÌÚ_153);}.cls-103{fill:url(#_ÂÁ_Ï_ÌÌ_È_ËÂÌÚ_298-22);}.cls-104{fill:url(#_ÂÁ_Ï_ÌÌ_È_ËÂÌÚ_298-23);}.cls-105{fill:url(#_ÂÁ_Ï_ÌÌ_È_ËÂÌÚ_298-24);}.cls-106{fill:url(#_ÂÁ_Ï_ÌÌ_È_ËÂÌÚ_298-25);}.cls-107{fill:url(#_ÂÁ_Ï_ÌÌ_È_ËÂÌÚ_298-26);}.cls-108{fill:url(#_ÂÁ_Ï_ÌÌ_È_ËÂÌÚ_298-27);}.cls-109{fill:url(#_ÂÁ_Ï_ÌÌ_È_ËÂÌÚ_99-3);}.cls-110{fill:url(#_ÂÁ_Ï_ÌÌ_È_ËÂÌÚ_298-28);}.cls-111{fill:url(#_ÂÁ_Ï_ÌÌ_È_ËÂÌÚ_98-4);}.cls-112{fill:url(#_ÂÁ_Ï_ÌÌ_È_ËÂÌÚ_298-29);}.cls-113{fill:url(#_ÂÁ_Ï_ÌÌ_È_ËÂÌÚ_298-30);}.cls-114{fill:url(#_ÂÁ_Ï_ÌÌ_È_ËÂÌÚ_298-31);}.cls-115{fill:url(#_ÂÁ_Ï_ÌÌ_È_ËÂÌÚ_361);}.cls-116{fill:url(#_ÂÁ_Ï_ÌÌ_È_ËÂÌÚ_126);}</style><linearGradient id="_ÂÁ_Ï_ÌÌ_È_ËÂÌÚ_99" x1="71.02" y1="65.02" x2="72.75" y2="102.08" gradientUnits="userSpaceOnUse"><stop offset="0" stop-color="#663024"/><stop offset="0.77" stop-color="#492319"/></linearGradient><linearGradient id="linear-gradient" x1="29.31" y1="134.71" x2="28.87" y2="120.99" gradientUnits="userSpaceOnUse"><stop offset="0" stop-color="#dca47a"/><stop offset="0.5" stop-color="#e5b287"/><stop offset="1" stop-color="#f0c499"/></linearGradient><linearGradient id="linear-gradient-2" x1="118.33" y1="131.63" x2="117.9" y2="118.27" xlink:href="#linear-gradient"/><linearGradient id="linear-gradient-3" x1="63.81" y1="97.76" x2="85.39" y2="121.25" gradientUnits="userSpaceOnUse"><stop offset="0" stop-color="#f0c499"/><stop offset="0.52" stop-color="#f1c69c"/><stop offset="0.85" stop-color="#f4cea4"/><stop offset="1" stop-color="#f6d4ab"/></linearGradient><linearGradient id="linear-gradient-4" x1="88.68" y1="115.75" x2="71.52" y2="118.28" xlink:href="#linear-gradient-3"/><linearGradient id="linear-gradient-5" x1="75.52" y1="114.6" x2="102.07" y2="110.46" xlink:href="#linear-gradient-3"/><linearGradient id="linear-gradient-6" x1="73.89" y1="116.02" x2="49.98" y2="109.74" xlink:href="#linear-gradient-3"/><linearGradient id="linear-gradient-7" x1="72.77" y1="90.46" x2="75.87" y2="103.6" xlink:href="#linear-gradient"/><linearGradient id="linear-gradient-8" x1="78.69" y1="78.49" x2="87.01" y2="114.43" xlink:href="#linear-gradient"/><linearGradient id="linear-gradient-9" x1="57.99" y1="82.26" x2="66.63" y2="119.57" xlink:href="#linear-gradient"/><linearGradient id="_ÂÁ_Ï_ÌÌ_È_ËÂÌÚ_360" x1="71.4" y1="115.89" x2="68.88" y2="146.93" gradientUnits="userSpaceOnUse"><stop offset="0" stop-color="#f8b7ba"/><stop offset="0.71" stop-color="#f9bfc1"/><stop offset="1" stop-color="#fac4c6"/></linearGradient><linearGradient id="_ÂÁ_Ï_ÌÌ_È_ËÂÌÚ_536" x1="77.97" y1="73.41" x2="90.18" y2="137.8" gradientUnits="userSpaceOnUse"><stop offset="0" stop-color="#efa3a6"/><stop offset="0.45" stop-color="#f1a7aa"/><stop offset="0.92" stop-color="#f7b4b7"/><stop offset="1" stop-color="#f8b7ba"/></linearGradient><linearGradient id="_ÂÁ_Ï_ÌÌ_È_ËÂÌÚ_104" x1="66.84" y1="80.33" x2="61.59" y2="140.29" gradientUnits="userSpaceOnUse"><stop offset="0" stop-color="#efa3a6"/><stop offset="1" stop-color="#f8b7ba"/></linearGradient><linearGradient id="_ÂÁ_Ï_ÌÌ_È_ËÂÌÚ_491" x1="76.39" y1="132.88" x2="73.93" y2="96.3" gradientUnits="userSpaceOnUse"><stop offset="0" stop-color="#f8b7ba"/><stop offset="1" stop-color="#efa3a6"/></linearGradient><linearGradient id="linear-gradient-10" x1="47.43" y1="136.21" x2="48.07" y2="158.73" xlink:href="#linear-gradient"/><linearGradient id="linear-gradient-11" x1="101.28" y1="135.15" x2="101.91" y2="157.34" xlink:href="#linear-gradient"/><linearGradient id="_ÂÁ_Ï_ÌÌ_È_ËÂÌÚ_34" x1="72.5" y1="35.38" x2="72.41" y2="97.16" gradientUnits="userSpaceOnUse"><stop offset="0" stop-color="#fed8b4"/><stop offset="0.35" stop-color="#f9d5ae"/><stop offset="1" stop-color="#f6d4ab"/></linearGradient><linearGradient id="linear-gradient-12" x1="86.09" y1="71.08" x2="83.19" y2="55.01" gradientUnits="userSpaceOnUse"><stop offset="0" stop-color="#f6d4ab"/><stop offset="0.52" stop-color="#f5d2a8"/><stop offset="0.85" stop-color="#f2caa0"/><stop offset="1" stop-color="#f0c499"/></linearGradient><linearGradient id="linear-gradient-13" x1="60.96" y1="73.9" x2="57.86" y2="54.71" xlink:href="#linear-gradient-12"/><radialGradient id="radial-gradient" cx="38.54" cy="126.7" r="21.3" gradientTransform="translate(35.83 5.47) scale(0.55 0.54)" gradientUnits="userSpaceOnUse"><stop offset="0" stop-color="#f8b38e"/><stop offset="0.61" stop-color="#f7c69e"/><stop offset="1" stop-color="#f6d4ab"/></radialGradient><radialGradient id="radial-gradient-2" cx="92.77" cy="126.7" r="21.3" xlink:href="#radial-gradient"/><linearGradient id="linear-gradient-14" x1="66.62" y1="91.39" x2="77.02" y2="91.39" gradientUnits="userSpaceOnUse"><stop offset="0" stop-color="#fed8b4"/><stop offset="0.65" stop-color="#fbd7b1"/><stop offset="1" stop-color="#f6d4ab"/></linearGradient><linearGradient id="_ÂÁ_Ï_ÌÌ_È_ËÂÌÚ_33" x1="72.16" y1="30.46" x2="72.09" y2="55.66" gradientUnits="userSpaceOnUse"><stop offset="0" stop-color="#f6d4ab"/><stop offset="0.97" stop-color="#f0c59a"/><stop offset="1" stop-color="#f0c499"/></linearGradient><linearGradient id="_ÂÁ_Ï_ÌÌ_È_ËÂÌÚ_100" x1="97.4" y1="46.69" x2="88.04" y2="93.3" gradientUnits="userSpaceOnUse"><stop offset="0" stop-color="#f8b38e"/><stop offset="0.5" stop-color="#f7b690"/><stop offset="0.9" stop-color="#f2c096"/><stop offset="1" stop-color="#f0c499"/></linearGradient><linearGradient id="_ÂÁ_Ï_ÌÌ_È_ËÂÌÚ_100-2" x1="59.92" y1="48.31" x2="51.51" y2="90.16" xlink:href="#_ÂÁ_Ï_ÌÌ_È_ËÂÌÚ_100"/><linearGradient id="linear-gradient-15" x1="86.28" y1="57.88" x2="95.75" y2="57.88" xlink:href="#linear-gradient-14"/><linearGradient id="_ÂÁ_Ï_ÌÌ_È_ËÂÌÚ_1204" x1="91.21" y1="59.94" x2="77.69" y2="65.19" xlink:href="#linear-gradient"/><linearGradient id="linear-gradient-16" x1="77.99" y1="63.08" x2="82.14" y2="63.08" gradientUnits="userSpaceOnUse"><stop offset="0" stop-color="#fff"/><stop offset="0.46" stop-color="#fdfcfc"/><stop offset="0.76" stop-color="#f6f4f4"/><stop offset="1" stop-color="#ece7e6"/></linearGradient><linearGradient id="linear-gradient-17" x1="87.18" y1="62.96" x2="90.49" y2="62.96" xlink:href="#linear-gradient-16"/><linearGradient id="linear-gradient-18" x1="89.35" y1="66.62" x2="79.67" y2="60.58" gradientUnits="userSpaceOnUse"><stop offset="0" stop-color="#b89c8c"/><stop offset="1" stop-color="#725342"/></linearGradient><linearGradient id="linear-gradient-19" x1="97.4" y1="63.2" x2="84.8" y2="61.71" xlink:href="#linear-gradient-18"/><radialGradient id="radial-gradient-3" cx="86.91" cy="106" r="5.15" gradientTransform="translate(35.83 5.47) scale(0.55 0.54)" gradientUnits="userSpaceOnUse"><stop offset="0" stop-color="#2b3b3b"/><stop offset="1" stop-color="#1d2827"/></radialGradient><linearGradient id="_ÂÁ_Ï_ÌÌ_È_ËÂÌÚ_331" x1="78" y1="62.67" x2="93.26" y2="62.67" gradientUnits="userSpaceOnUse"><stop offset="0" stop-color="#5b2b20"/><stop offset="0.31" stop-color="#4a2319"/><stop offset="0.66" stop-color="#3d1d15"/><stop offset="1" stop-color="#391b13"/></linearGradient><linearGradient id="_ÂÁ_Ï_ÌÌ_È_ËÂÌÚ_1204-2" x1="84.62" y1="58.48" x2="74.55" y2="71.3" xlink:href="#linear-gradient"/><linearGradient id="_ÂÁ_Ï_ÌÌ_È_ËÂÌÚ_1204-3" x1="65.4" y1="60.08" x2="53.38" y2="64.75" xlink:href="#linear-gradient"/><linearGradient id="linear-gradient-20" x1="62.25" y1="63.08" x2="66.4" y2="63.08" xlink:href="#linear-gradient-16"/><linearGradient id="linear-gradient-21" x1="54.87" y1="62.96" x2="58.17" y2="62.96" xlink:href="#linear-gradient-16"/><linearGradient id="_ÂÁ_Ï_ÌÌ_È_ËÂÌÚ_1056" x1="64.83" y1="66.96" x2="54.82" y2="60.71" gradientUnits="userSpaceOnUse"><stop offset="0" stop-color="#725342"/><stop offset="1" stop-color="#b89c8c"/></linearGradient><linearGradient id="linear-gradient-22" x1="73.33" y1="63.02" x2="60.55" y2="61.51" xlink:href="#linear-gradient-18"/><radialGradient id="radial-gradient-4" cx="42.89" cy="106" r="5.15" xlink:href="#radial-gradient-3"/><linearGradient id="_ÂÁ_Ï_ÌÌ_È_ËÂÌÚ_331-2" x1="51.15" y1="62.67" x2="66.41" y2="62.67" xlink:href="#_ÂÁ_Ï_ÌÌ_È_ËÂÌÚ_331"/><linearGradient id="_ÂÁ_Ï_ÌÌ_È_ËÂÌÚ_1204-4" x1="61.08" y1="58.71" x2="55.04" y2="66.4" xlink:href="#linear-gradient"/><linearGradient id="linear-gradient-23" x1="72.79" y1="79.39" x2="71.93" y2="75.06" xlink:href="#linear-gradient-12"/><linearGradient id="linear-gradient-24" x1="72.11" y1="74.73" x2="72.09" y2="78.11" xlink:href="#linear-gradient"/><linearGradient id="_ÂÁ_Ï_ÌÌ_È_ËÂÌÚ_106" x1="71.9" y1="70.12" x2="71.95" y2="73.59" gradientUnits="userSpaceOnUse"><stop offset="0" stop-color="#f6d4ab"/><stop offset="1" stop-color="#fed8b4"/></linearGradient><linearGradient id="_ÂÁ_Ï_ÌÌ_È_ËÂÌÚ_1061" x1="63.33" y1="76.38" x2="75.11" y2="86.67" gradientUnits="userSpaceOnUse"><stop offset="0" stop-color="#f0c499"/><stop offset="0.5" stop-color="#e5b287"/><stop offset="1" stop-color="#dca47a"/></linearGradient><linearGradient id="_ÂÁ_Ï_ÌÌ_È_ËÂÌÚ_1061-2" x1="58.19" y1="77.49" x2="63.16" y2="81.82" xlink:href="#_ÂÁ_Ï_ÌÌ_È_ËÂÌÚ_1061"/><linearGradient id="linear-gradient-25" x1="84.14" y1="78.5" x2="81.38" y2="81.9" xlink:href="#linear-gradient"/><linearGradient id="linear-gradient-26" x1="65.67" y1="83.8" x2="78.75" y2="83.8" gradientUnits="userSpaceOnUse"><stop offset="0" stop-color="#e8d9d7"/><stop offset="0.04" stop-color="#ebdfdd"/><stop offset="0.21" stop-color="#f6f1f0"/><stop offset="0.38" stop-color="#fdfbfb"/><stop offset="0.57" stop-color="#fff"/><stop offset="0.69" stop-color="#fbf8f8"/><stop offset="0.87" stop-color="#f1e5e3"/><stop offset="1" stop-color="#e8d3d1"/></linearGradient><linearGradient id="linear-gradient-27" x1="62.75" y1="81.85" x2="81.32" y2="81.68" xlink:href="#linear-gradient-26"/><linearGradient id="linear-gradient-28" x1="68.04" y1="86.09" x2="76.64" y2="86" gradientUnits="userSpaceOnUse"><stop offset="0" stop-color="#f26e7f"/><stop offset="0.02" stop-color="#f26f80"/><stop offset="0.24" stop-color="#f37986"/><stop offset="0.53" stop-color="#f37c88"/><stop offset="0.77" stop-color="#f37885"/><stop offset="1" stop-color="#f26d7d"/></linearGradient><linearGradient id="linear-gradient-29" x1="71.98" y1="80.1" x2="71.93" y2="77.15" gradientUnits="userSpaceOnUse"><stop offset="0" stop-color="#fed8b4"/><stop offset="1" stop-color="#f6d4ab"/></linearGradient><linearGradient id="linear-gradient-30" x1="62.73" y1="81.07" x2="81.32" y2="80.9" gradientUnits="userSpaceOnUse"><stop offset="0" stop-color="#e8d9d7"/><stop offset="0.05" stop-color="#eadddb"/><stop offset="0.31" stop-color="#f6efef"/><stop offset="0.48" stop-color="#faf6f6"/><stop offset="1" stop-color="#e8d3d1"/></linearGradient><linearGradient id="linear-gradient-31" x1="64.97" y1="80.36" x2="81.14" y2="80.19" xlink:href="#linear-gradient-28"/><linearGradient id="_ÂÁ_Ï_ÌÌ_È_ËÂÌÚ_1204-5" x1="72.09" y1="94.65" x2="71.17" y2="108.03" xlink:href="#linear-gradient"/><linearGradient id="linear-gradient-32" x1="78.63" y1="53.89" x2="93.7" y2="53.89" gradientUnits="userSpaceOnUse"><stop offset="0" stop-color="#683126"/><stop offset="0.34" stop-color="#53281e"/><stop offset="0.68" stop-color="#46221a"/><stop offset="1" stop-color="#422018"/></linearGradient><linearGradient id="linear-gradient-33" x1="50.55" y1="53.89" x2="65.6" y2="53.89" xlink:href="#linear-gradient-32"/><linearGradient id="linear-gradient-34" x1="54.39" y1="24.11" x2="50.33" y2="147.56" gradientUnits="userSpaceOnUse"><stop offset="0.23" stop-color="#492319"/><stop offset="1" stop-color="#663024"/></linearGradient><linearGradient id="_ÂÁ_Ï_ÌÌ_È_ËÂÌÚ_98" x1="96.5" y1="30.07" x2="93.22" y2="134.89" xlink:href="#linear-gradient-34"/><linearGradient id="linear-gradient-35" x1="58.16" y1="96.22" x2="52.35" y2="151.28" xlink:href="#linear-gradient-34"/><linearGradient id="linear-gradient-36" x1="55.79" y1="117.2" x2="48.56" y2="5.57" xlink:href="#linear-gradient-34"/><linearGradient id="_ÂÁ_Ï_ÌÌ_È_ËÂÌÚ_98-2" x1="96.55" y1="108.67" x2="89.77" y2="3.93" xlink:href="#linear-gradient-34"/><linearGradient id="linear-gradient-37" x1="46.06" y1="141.31" x2="46.29" y2="53.63" xlink:href="#linear-gradient-34"/><linearGradient id="linear-gradient-38" x1="24.72" y1="101.34" x2="46.06" y2="101.34" xlink:href="#linear-gradient-34"/><linearGradient id="linear-gradient-39" x1="103.65" y1="93.28" x2="93.74" y2="140.54" xlink:href="#linear-gradient-34"/><linearGradient id="linear-gradient-40" x1="103.48" y1="80.78" x2="110.34" y2="143.76" xlink:href="#linear-gradient-34"/><linearGradient id="linear-gradient-41" x1="115.74" y1="165.88" x2="95.17" y2="70.19" xlink:href="#linear-gradient-34"/><linearGradient id="_ÂÁ_Ï_ÌÌ_È_ËÂÌÚ_298" x1="97.29" y1="84.67" x2="103.97" y2="200.62" gradientUnits="userSpaceOnUse"><stop offset="0" stop-color="#70372c"/><stop offset="0.31" stop-color="#6b342a"/><stop offset="0.66" stop-color="#5e2d23"/><stop offset="1" stop-color="#4a2119"/></linearGradient><linearGradient id="_ÂÁ_Ï_ÌÌ_È_ËÂÌÚ_298-2" x1="57.96" y1="111.32" x2="61.38" y2="170.6" xlink:href="#_ÂÁ_Ï_ÌÌ_È_ËÂÌÚ_298"/><linearGradient id="_ÂÁ_Ï_ÌÌ_È_ËÂÌÚ_298-3" x1="89.17" y1="84.72" x2="96.95" y2="219.87" xlink:href="#_ÂÁ_Ï_ÌÌ_È_ËÂÌÚ_298"/><linearGradient id="_ÂÁ_Ï_ÌÌ_È_ËÂÌÚ_298-4" x1="93.25" y1="109.52" x2="96.56" y2="166.86" xlink:href="#_ÂÁ_Ï_ÌÌ_È_ËÂÌÚ_298"/><linearGradient id="_ÂÁ_Ï_ÌÌ_È_ËÂÌÚ_298-5" x1="53.57" y1="22.9" x2="50.66" y2="82.7" xlink:href="#_ÂÁ_Ï_ÌÌ_È_ËÂÌÚ_298"/><linearGradient id="_ÂÁ_Ï_ÌÌ_È_ËÂÌÚ_298-6" x1="40.46" y1="22.39" x2="37.56" y2="82.02" xlink:href="#_ÂÁ_Ï_ÌÌ_È_ËÂÌÚ_298"/><linearGradient id="_ÂÁ_Ï_ÌÌ_È_ËÂÌÚ_298-7" x1="30.21" y1="88.71" x2="37.87" y2="221.76" xlink:href="#_ÂÁ_Ï_ÌÌ_È_ËÂÌÚ_298"/><linearGradient id="_ÂÁ_Ï_ÌÌ_È_ËÂÌÚ_298-8" x1="111.93" y1="88.81" x2="120.09" y2="230.41" xlink:href="#_ÂÁ_Ï_ÌÌ_È_ËÂÌÚ_298"/><linearGradient id="_ÂÁ_Ï_ÌÌ_È_ËÂÌÚ_298-9" x1="40.34" y1="60.84" x2="42.51" y2="128.7" xlink:href="#_ÂÁ_Ï_ÌÌ_È_ËÂÌÚ_298"/><linearGradient id="_ÂÁ_Ï_ÌÌ_È_ËÂÌÚ_298-10" x1="104.3" y1="56.9" x2="100.11" y2="160.63" xlink:href="#_ÂÁ_Ï_ÌÌ_È_ËÂÌÚ_298"/><linearGradient id="linear-gradient-42" x1="55.69" y1="38.24" x2="72.13" y2="38.24" xlink:href="#linear-gradient-34"/><linearGradient id="_ÂÁ_Ï_ÌÌ_È_ËÂÌÚ_99-2" x1="73.56" y1="36.2" x2="86.28" y2="36.2" xlink:href="#_ÂÁ_Ï_ÌÌ_È_ËÂÌÚ_99"/><linearGradient id="_ÂÁ_Ï_ÌÌ_È_ËÂÌÚ_298-11" x1="34.4" y1="98.27" x2="30.99" y2="112.05" xlink:href="#_ÂÁ_Ï_ÌÌ_È_ËÂÌÚ_298"/><linearGradient id="_ÂÁ_Ï_ÌÌ_È_ËÂÌÚ_298-12" x1="36.54" y1="134.64" x2="36.53" y2="134.67" xlink:href="#_ÂÁ_Ï_ÌÌ_È_ËÂÌÚ_298"/><linearGradient id="_ÂÁ_Ï_ÌÌ_È_ËÂÌÚ_298-13" x1="47.16" y1="33.57" x2="56.43" y2="159.39" xlink:href="#_ÂÁ_Ï_ÌÌ_È_ËÂÌÚ_298"/><linearGradient id="_ÂÁ_Ï_ÌÌ_È_ËÂÌÚ_298-14" x1="54.17" y1="23.09" x2="51.28" y2="82.68" xlink:href="#_ÂÁ_Ï_ÌÌ_È_ËÂÌÚ_298"/><linearGradient id="_ÂÁ_Ï_ÌÌ_È_ËÂÌÚ_298-15" x1="89.91" y1="24.79" x2="87.02" y2="84.37" xlink:href="#_ÂÁ_Ï_ÌÌ_È_ËÂÌÚ_298"/><linearGradient id="_ÂÁ_Ï_ÌÌ_È_ËÂÌÚ_298-16" x1="93.97" y1="25.66" x2="90.85" y2="89.9" xlink:href="#_ÂÁ_Ï_ÌÌ_È_ËÂÌÚ_298"/><linearGradient id="_ÂÁ_Ï_ÌÌ_È_ËÂÌÚ_298-17" x1="85.54" y1="95.22" x2="90.84" y2="187.19" xlink:href="#_ÂÁ_Ï_ÌÌ_È_ËÂÌÚ_298"/><linearGradient id="_ÂÁ_Ï_ÌÌ_È_ËÂÌÚ_298-18" x1="119.59" y1="36.94" x2="116.28" y2="142.81" xlink:href="#_ÂÁ_Ï_ÌÌ_È_ËÂÌÚ_298"/><linearGradient id="_ÂÁ_Ï_ÌÌ_È_ËÂÌÚ_298-19" x1="108.2" y1="114.84" x2="110.58" y2="156.08" xlink:href="#_ÂÁ_Ï_ÌÌ_È_ËÂÌÚ_298"/><linearGradient id="_ÂÁ_Ï_ÌÌ_È_ËÂÌÚ_98-3" x1="66.38" y1="97.21" x2="60.2" y2="155.9" xlink:href="#linear-gradient-34"/><linearGradient id="_ÂÁ_Ï_ÌÌ_È_ËÂÌÚ_298-20" x1="56.28" y1="87.48" x2="63.79" y2="217.97" xlink:href="#_ÂÁ_Ï_ÌÌ_È_ËÂÌÚ_298"/><linearGradient id="_ÂÁ_Ï_ÌÌ_È_ËÂÌÚ_298-21" x1="116.7" y1="111.01" x2="118.52" y2="142.66" xlink:href="#_ÂÁ_Ï_ÌÌ_È_ËÂÌÚ_298"/><linearGradient id="_ÂÁ_Ï_ÌÌ_È_ËÂÌÚ_153" x1="84.21" y1="102.39" x2="74.11" y2="47.91" gradientUnits="userSpaceOnUse"><stop offset="0" stop-color="#422018"/><stop offset="0.44" stop-color="#52281f"/><stop offset="1" stop-color="#6c342a"/></linearGradient><linearGradient id="_ÂÁ_Ï_ÌÌ_È_ËÂÌÚ_298-22" x1="40.43" y1="87.11" x2="46.35" y2="189.97" xlink:href="#_ÂÁ_Ï_ÌÌ_È_ËÂÌÚ_298"/><linearGradient id="_ÂÁ_Ï_ÌÌ_È_ËÂÌÚ_298-23" x1="108.5" y1="84.02" x2="116.14" y2="216.77" xlink:href="#_ÂÁ_Ï_ÌÌ_È_ËÂÌÚ_298"/><linearGradient id="_ÂÁ_Ï_ÌÌ_È_ËÂÌÚ_298-24" x1="31.89" y1="88.76" x2="39.72" y2="224.63" xlink:href="#_ÂÁ_Ï_ÌÌ_È_ËÂÌÚ_298"/><linearGradient id="_ÂÁ_Ï_ÌÌ_È_ËÂÌÚ_298-25" x1="60.75" y1="87.15" x2="68.38" y2="219.63" xlink:href="#_ÂÁ_Ï_ÌÌ_È_ËÂÌÚ_298"/><linearGradient id="_ÂÁ_Ï_ÌÌ_È_ËÂÌÚ_298-26" x1="46.73" y1="64.65" x2="48.08" y2="144.41" xlink:href="#_ÂÁ_Ï_ÌÌ_È_ËÂÌÚ_298"/><linearGradient id="_ÂÁ_Ï_ÌÌ_È_ËÂÌÚ_298-27" x1="43.4" y1="139.06" x2="63.36" y2="121.64" xlink:href="#_ÂÁ_Ï_ÌÌ_È_ËÂÌÚ_298"/><linearGradient id="_ÂÁ_Ï_ÌÌ_È_ËÂÌÚ_99-3" x1="47.55" y1="26.98" x2="89.93" y2="24.54" xlink:href="#_ÂÁ_Ï_ÌÌ_È_ËÂÌÚ_99"/><linearGradient id="_ÂÁ_Ï_ÌÌ_È_ËÂÌÚ_298-28" x1="95.86" y1="25" x2="92.97" y2="84.66" xlink:href="#_ÂÁ_Ï_ÌÌ_È_ËÂÌÚ_298"/><linearGradient id="_ÂÁ_Ï_ÌÌ_È_ËÂÌÚ_98-4" x1="56.39" y1="31.61" x2="108.7" y2="29.61" xlink:href="#linear-gradient-34"/><linearGradient id="_ÂÁ_Ï_ÌÌ_È_ËÂÌÚ_298-29" x1="63.9" y1="31.22" x2="66.22" y2="54.34" xlink:href="#_ÂÁ_Ï_ÌÌ_È_ËÂÌÚ_298"/><linearGradient id="_ÂÁ_Ï_ÌÌ_È_ËÂÌÚ_298-30" x1="51.91" y1="87.48" x2="59.58" y2="220.55" xlink:href="#_ÂÁ_Ï_ÌÌ_È_ËÂÌÚ_298"/><linearGradient id="_ÂÁ_Ï_ÌÌ_È_ËÂÌÚ_298-31" x1="94.75" y1="32.73" x2="103.63" y2="153.16" xlink:href="#_ÂÁ_Ï_ÌÌ_È_ËÂÌÚ_298"/><linearGradient id="_ÂÁ_Ï_ÌÌ_È_ËÂÌÚ_361" x1="87.04" y1="69.26" x2="91.15" y2="69.26" gradientUnits="userSpaceOnUse"><stop offset="0" stop-color="#f8c49d"/><stop offset="0.48" stop-color="#fbcfaa"/><stop offset="1" stop-color="#fed8b4"/></linearGradient><linearGradient id="_ÂÁ_Ï_ÌÌ_È_ËÂÌÚ_126" x1="52.75" y1="69.26" x2="56.84" y2="69.26" gradientUnits="userSpaceOnUse"><stop offset="0" stop-color="#fed8b4"/><stop offset="0.52" stop-color="#fbcfaa"/><stop offset="1" stop-color="#f8c49d"/></linearGradient></defs><circle class="cls-1" cx="72" cy="72" r="72" transform="translate(-29.82 72) rotate(-45)"/><polygon class="cls-2" points="41.34 52.07 43.76 111.5 102.69 113.32 97.18 50.04 41.34 52.07"/><path class="cls-3" d="M121.52,124.26a19.08,19.08,0,0,0-1.75-5c-2.22-3.81-10.8-8-11.94-8.11-4-.38-20.35,0-22-5.28a23.78,23.78,0,0,1-.61-9.49H63.79a46.21,46.21,0,0,1,.26,7.82c-.13,5.43-4.33,4.74-5.24,5-3.58,1.17-12.3,2.26-18,2.89-3.12.34-13.43,6.76-14.95,12.07-.21.73-.4,1.57-.57,2.51a72,72,0,0,0,96.25-2.51Z"/><path class="cls-4" d="M25.55,125.39a14,14,0,0,1,2.17,3.39c1.61,1.25,3.26,2.43,5,3.55a89.4,89.4,0,0,0-5.17-10.93A8.7,8.7,0,0,0,25.55,125.39Z"/><path class="cls-5" d="M119.68,118.57c-.22.36-2.16,4.81-4.36,10.94q2.39-1.8,4.61-3.79c.41-1.33.77-2.53,1-3.48C121,122.24,120.61,120.93,119.68,118.57Z"/><path class="cls-6" d="M107.1,111c-4.73,7.87-28.17,7.6-34.62,7.58-9.91,0-28.27-2.31-30.61-6.85C29.78,114.28,26.13,122,25.41,123.81a29,29,0,0,1,4.3,6.46,72,72,0,0,0,87.8-2.48c1.76-4.4,3.1-7.68,3.1-7.68S116.58,111,107.1,111Z"/><path class="cls-7" d="M86.14,100.65c-.12-1.22-.3-4.27-.34-5.86-.34.41-21.62-.35-22.44-1.55l-2.48,0s.73,7.74-.43,13.28c-.23,1.12-7.13,2.72-11.66,3.65.33.25,1.49,1,1.75,1.16,3.87.38,7.21.82,8.79.55a40.48,40.48,0,0,0,7.54-2.85c12.76-5.78,16.75-7.69,16.75-7.69.59,5.37,4.62,8.93,4.4,8.87a42.53,42.53,0,0,0,10.59.83,20.35,20.35,0,0,0,2.59-1.38c-9.7-1.24-12.63-2.88-13.33-3.35S86.4,103.44,86.14,100.65Z"/><path class="cls-8" d="M72.48,116.65s4.59.81,5.8,2.21C78.28,118.86,77,115.25,72.48,116.65Z"/><path class="cls-9" d="M78.44,115.77c4-3.06,8-2.19,13-2.77s13.23-2.15,13.23-2.15c-2.31.44-21.43.77-23.21,1.2S78.44,115.77,78.44,115.77Z"/><path class="cls-10" d="M68.69,112.5c-2.2-.73-19-1.76-22-1.47,0,0,21.2,2.1,25.45,4.71A7,7,0,0,0,68.69,112.5Z"/><path class="cls-11" d="M60.26,90c.81,3.39.69,13,.69,13,14.65,4.6,25-5.79,25-5.79s.21-7.93.67-10.7C85.47,86.38,60.26,90,60.26,90Z"/><path class="cls-12" d="M82,104.88c-1.34,7.64,2.23,12.41,2.23,12.41l7.45-2L86.07,93.24S83.3,97.24,82,104.88Z"/><path class="cls-13" d="M60.85,100.07,59.4,115.74,69.83,120a14.35,14.35,0,0,0,1.07-9.34C69.68,105.53,60.85,100.07,60.85,100.07Z"/><path class="cls-14" d="M37.73,124s.55,5.55,1.48,12.13a72.15,72.15,0,0,0,63.47,1c-.29-7.05-.76-13.16-.76-13.16Z"/><path class="cls-15" d="M85,118.29s-5.39,6.52-3,17.19a21.41,21.41,0,0,0,3.12,7.33,70.82,70.82,0,0,0,13.15-3.74c-3.24-10.83-6.07-23-6.07-23Z"/><path class="cls-16" d="M64.52,125.55c3-1.56,5.8-6.69,5.8-6.69l-11.89-3.2-4.87,26a71.88,71.88,0,0,0,14.84,2.3c.17-.42.33-.85.46-1.29C72.21,131.71,64.52,125.55,64.52,125.55Z"/><path class="cls-17" d="M74.09,117a46,46,0,0,1-23.87-7.49l-3.68,1.21s8.94,9.07,27.87,9.56c22.06.56,28.81-10.16,28.81-10.16l-3.58-.87C94.68,114.28,86.48,117.21,74.09,117Z"/><path class="cls-18" d="M45.66,60.15c-4.68.26-3.47,5.19-1.41,9.78,1.34,3,2.61,6.41,6,6.41,0,0-.89-6-1.95-14C48.35,62.34,46.57,60.1,45.66,60.15Z"/><path class="cls-19" d="M46.56,68.44c1.24-8.17-4.37-8.73-3.1-3.15,0,0,.77-2.63,1.48-1.85.88,1-.93,1.5,0,5.72.48,2.19,2.8,4.51,2.8,4.51A6.34,6.34,0,0,1,46.56,68.44Z"/><path class="cls-18" d="M99.22,60.15c-.91,0-2.69,2.19-2.69,2.19-1.06,8-2,14-2,14,3.44,0,4.71-3.41,6-6.41C102.69,65.34,103.9,60.41,99.22,60.15Z"/><path class="cls-20" d="M98.31,68.44a6.31,6.31,0,0,1-1.16,5.23s2.31-2.32,2.8-4.51c.92-4.22-.89-4.75,0-5.72.71-.78,1.49,1.85,1.49,1.85C102.69,59.71,97.08,60.27,98.31,68.44Z"/><path class="cls-21" d="M75.65,26.25s-23.8,3.07-26.8,9.84c-3.27,7.37-2.33,17.73-1.4,24.51S50.25,78.36,52,81.47,62.33,92.75,64.2,94.13s4,3.49,8.31,3.48c3.85,0,6.89-2.31,8.59-3.62S91.26,84.25,93,81.14s3.61-13.77,4.55-20.54,1.87-17.14-1.4-24.51C93.12,29.32,86.08,26.9,75.65,26.25Z"/><path class="cls-22" d="M93.52,54.44a10.53,10.53,0,0,0-7.68-2.12c-10.93,1.1-10.76,11.87-11.78,18C87.47,75.56,95.28,66,95.28,66S97.57,57.58,93.52,54.44Z"/><path class="cls-23" d="M58.14,52.79a10,10,0,0,0-7.41,2c-4,3.25-1.08,12.41-1.08,12.41s7.88,9.23,21.25,3.56C69.84,64.72,69.07,53.5,58.14,52.79Z"/><path class="cls-24" d="M62.6,63.57c-3.07-.91-15-3.38-14.4.52,1.26,8.63,2.4,14.55,3.92,17.24s6.26,7.24,8.28,7.57c3.13.53,6.44-10.83,6.51-14.72C67,68.73,65.67,64.47,62.6,63.57Z"/><path class="cls-25" d="M82.39,63.57c-3.07.9-4.42,5.16-4.31,10.61.07,3.89,3.38,15.25,6.51,14.72,2-.33,6.69-4.76,8.28-7.57s2.66-8.61,3.92-17.24C97.35,60.19,85.46,62.66,82.39,63.57Z"/><path class="cls-26" d="M73.05,89.83c-2.19.1-4,.88-3.94,1.74s1.79,1.47,4,1.37S77,92.06,77,91.2,75.23,89.73,73.05,89.83Z"/><path class="cls-18" d="M47.57,61.45s2.19,15.69,4.23,20.06c.66,1.42,6.44,7.4,10.17,10.82,0,0-7.39-7.39-9.36-12.39C50.92,75.64,47.57,61.45,47.57,61.45Z"/><path class="cls-18" d="M83,92.33c3.72-3.42,9.56-9.4,10.22-10.82,2-4.37,4.23-20.06,4.23-20.06s-3.35,14.19-5,18.49C90.4,84.94,83,92.33,83,92.33Z"/><path class="cls-27" d="M72.07,28.39c-35.17,0-15.93,29.05-15.93,29.05S60.58,33,72.94,33.35c0,0,6,.33,15.31,24.2C88.25,57.55,107.25,28.38,72.07,28.39Z"/><path class="cls-28" d="M92.21,62.5,90,65.31s1.65,4.46,1.66,6.78c0,5.47-7.22,18.88-7.22,18.88s10.17-10.06,10-10.61S96.8,70,96.8,70Z"/><path class="cls-29" d="M54.05,64.62l-2.24-2.81-4.59,7.51s2.46,9.81,2.34,10.36S60,90.42,60,90.42s-7.58-13.54-7.56-19C52.4,69.08,54.05,64.62,54.05,64.62Z"/><path class="cls-30" d="M94.41,54.81c-4.85-3-8.13-1-8.13-1,9.94-.69,8.77,8.77,8.77,8.77S97,56.43,94.41,54.81Z"/><path class="cls-31" d="M85.93,57.55c-7.35,0-8,4.43-8.18,7.63a22.84,22.84,0,0,1,2.23.56,16.9,16.9,0,0,0,5.69,1.15c2,0,6.19-.89,6.25-5.06C92,58.54,87.7,57.7,85.93,57.55Z"/><path class="cls-32" d="M78.08,64.93A25.28,25.28,0,0,1,81.87,66a3.18,3.18,0,0,1-1.3-2.81,5.09,5.09,0,0,1,1.67-3A12.54,12.54,0,0,0,78.08,64.93Z"/><path class="cls-33" d="M78.08,64.93a13,13,0,0,1,2.56-2.09A3.6,3.6,0,0,1,82,60.63C79.64,61.77,78.08,64.93,78.08,64.93Z"/><path class="cls-34" d="M87.92,63.56a3.48,3.48,0,0,1-1.8,2.86,6.67,6.67,0,0,0,5.51-3.91c-2.65-2.17-4.56-2.85-6.37-3A4,4,0,0,1,87.92,63.56Z"/><path class="cls-35" d="M80.63,62.74a3.25,3.25,0,0,0-.06.45A3.07,3.07,0,0,0,81.87,66a13.22,13.22,0,0,0,4.64.41,3.37,3.37,0,0,0,1.89-2.76A3.81,3.81,0,0,0,88,61.74,8.34,8.34,0,0,0,80.63,62.74Z"/><path class="cls-33" d="M86.5,60.3a3.64,3.64,0,0,1,1.73,2.05,11.07,11.07,0,0,1,2.49,1.42l.72-1.44C90.4,61,88.4,60.65,86.5,60.3Z"/><path class="cls-36" d="M86.5,60.3a9.58,9.58,0,0,0-3.46,0,4.7,4.7,0,0,0-1,.34,3.54,3.54,0,0,0-1.41,2.21,8.68,8.68,0,0,1,3.65-1.17,8.58,8.58,0,0,1,4,.69A3.56,3.56,0,0,0,86.5,60.3Z"/><path class="cls-37" d="M84.6,60.53a2.36,2.36,0,1,0,2.28,2.53A2.42,2.42,0,0,0,84.6,60.53Z"/><path class="cls-38" d="M85,61.92a.7.7,0,0,0-.94.26.65.65,0,0,0,.22.92.7.7,0,0,0,.94-.26A.65.65,0,0,0,85,61.92Z"/><path class="cls-38" d="M87.24,62.9a.92.92,0,0,0-1.26.31.92.92,0,1,0,1.26-.31Z"/><path class="cls-39" d="M93.27,59.29s-.72,1.48-4.3.21c-6.9-2.2-10.75,1.77-10.89,5.43,0,0,2.08-4,6-4.4,2.39-.23,4.45.74,6.51,1.84C90.6,64,88.4,66,86,66.47c2,0,6.55-2,6.89-3.75a1,1,0,0,1-1.11.16S93.75,62.11,93.27,59.29Z"/><path class="cls-40" d="M82.4,57.89A6.7,6.7,0,0,0,79,60.41a7.41,7.41,0,0,1,3.65-2.16,15.86,15.86,0,0,1,6.35,0A9.27,9.27,0,0,0,82.4,57.89Z"/><path class="cls-41" d="M83.78,60.17a7.33,7.33,0,0,0-5.7,4.76,8.5,8.5,0,0,1,5.8-4.16c2.32-.41,4.94.72,6.7,1.6A8.2,8.2,0,0,0,83.78,60.17Z"/><path class="cls-42" d="M58.65,57.55c-1.77.15-6,1-6,4.28.06,4.17,4.28,5,6.24,5.06a17,17,0,0,0,5.7-1.15,22.84,22.84,0,0,1,2.23-.56C66.67,62,66,57.55,58.65,57.55Z"/><path class="cls-43" d="M62.34,60.16a5.09,5.09,0,0,1,1.67,3A3.23,3.23,0,0,1,62.71,66a25.47,25.47,0,0,1,3.78-1.07A12.47,12.47,0,0,0,62.34,60.16Z"/><path class="cls-33" d="M62.56,60.63a3.6,3.6,0,0,1,1.38,2.21,12.53,12.53,0,0,1,2.55,2.09S64.93,61.77,62.56,60.63Z"/><path class="cls-44" d="M59.31,59.5c-1.81.16-3.71.84-6.36,3a6.67,6.67,0,0,0,5.51,3.91,3.48,3.48,0,0,1-1.8-2.86A4,4,0,0,1,59.31,59.5Z"/><path class="cls-45" d="M64,62.74a8.34,8.34,0,0,0-7.38-1,3.71,3.71,0,0,0-.39,1.91,3.37,3.37,0,0,0,1.89,2.76A13.25,13.25,0,0,0,62.71,66,3.07,3.07,0,0,0,64,63.19C64,63,64,62.9,64,62.74Z"/><path class="cls-33" d="M53.13,62.33l.73,1.44a11.07,11.07,0,0,1,2.49-1.42,3.64,3.64,0,0,1,1.73-2.05C56.18,60.65,54.18,61,53.13,62.33Z"/><path class="cls-46" d="M62.56,60.63a4.61,4.61,0,0,0-1-.34,9.53,9.53,0,0,0-3.45,0,3.56,3.56,0,0,0-1.75,2.06,8.56,8.56,0,0,1,4-.69A8.73,8.73,0,0,1,64,62.84,3.54,3.54,0,0,0,62.56,60.63Z"/><path class="cls-47" d="M60,60.53a2.36,2.36,0,1,0,2.64,2.17A2.41,2.41,0,0,0,60,60.53Z"/><path class="cls-38" d="M60.52,61.92a.7.7,0,0,0-.94.26.65.65,0,0,0,.22.92.7.7,0,0,0,.94-.26A.65.65,0,0,0,60.52,61.92Z"/><path class="cls-38" d="M62.74,62.9a.92.92,0,0,0-1.26.31.92.92,0,1,0,1.26-.31Z"/><path class="cls-48" d="M55.61,59.5c-3.58,1.27-4.3-.21-4.3-.21-.48,2.82,1.46,3.59,1.46,3.59a1,1,0,0,1-1.11-.16c.33,1.7,4.86,3.77,6.89,3.75C56.18,66,54,64,54,62.37c2.06-1.1,4.12-2.07,6.5-1.84,3.92.38,6,4.4,6,4.4C66.35,61.27,62.5,57.3,55.61,59.5Z"/><path class="cls-49" d="M62.17,57.89a9.25,9.25,0,0,0-6.56.34,15.86,15.86,0,0,1,6.35,0,7.41,7.41,0,0,1,3.64,2.16A6.64,6.64,0,0,0,62.17,57.89Z"/><path class="cls-41" d="M60.79,60.17A8.17,8.17,0,0,0,54,62.37c1.76-.88,4.38-2,6.69-1.6a8.47,8.47,0,0,1,5.8,4.16A7.31,7.31,0,0,0,60.79,60.17Z"/><polygon class="cls-50" points="71.98 75.28 67.98 75.28 67.54 75.83 72.22 79.01 76.61 75.74 75.98 75.22 71.98 75.28"/><path class="cls-51" d="M72,75.38l-2.92-.79-1.52.17.14,1a5.52,5.52,0,0,1,3.32.11h1.91a6.19,6.19,0,0,1,3.7-.12l.08-.85-1.52-.3Z"/><path class="cls-18" d="M76.55,72.09s.7,1.16.41,1.89-2.3.1-3.11.61c-1.5.93-2.42.7-3.91,0-1-.46-2.36.12-2.91-.68a2.44,2.44,0,0,1,0-1.82,2.17,2.17,0,0,0-.95,1.69,1.91,1.91,0,0,0,1.57,2c.23-.15-.19-1.22,1.18-1s1.3.87,1.52,1.1a6.34,6.34,0,0,0,3,0c.41-.25.3-1.18,1.59-1.14s1.33.91,1.52,1,.95-.57,1.18-1.87A1.85,1.85,0,0,0,76.55,72.09Z"/><path class="cls-52" d="M68.89,71.45a2.67,2.67,0,0,0,.47,1.88c.6.9,4.78,1.63,5.49-.43A4.89,4.89,0,0,0,74.92,71C74.83,70.1,68.91,70.55,68.89,71.45Z"/><path class="cls-53" d="M68,87.5c2.19,1.32,7.55,1,8.61.14a16.91,16.91,0,0,0,3.11-4H64.84S67.2,87,68,87.5Z"/><path class="cls-54" d="M60.15,79.05c-.2.47-.09,1.32.51,1.47a12.39,12.39,0,0,1,3.53,1.34C63.12,80.58,60.34,78.63,60.15,79.05Z"/><path class="cls-55" d="M80.1,82a9.6,9.6,0,0,1,3.2-1.24c.87-.39,1-1.08.77-1.54S81.14,80.67,80.1,82Z"/><path class="cls-56" d="M61.6,79.86s3.34,3.42,4.07,3.94a38.06,38.06,0,0,0,5.93,2.46c.83.15,6-1.07,6.45-1.63s4.82-4.77,4.82-4.77-10.68.19-11.15.22S61.6,79.86,61.6,79.86Z"/><path class="cls-57" d="M66.23,81.72l-.56,1.68s4.25,2.48,6.56,2.48,6.52-2.08,6.52-2.08l-.86-2.08Z"/><path class="cls-58" d="M68.62,84.6c-1.29-.16-7-4.74-7-4.74a67.85,67.85,0,0,0,5.91,6.52c1.81,1.44,7.66,1.54,9.7,0,1.34-1,5.66-6.52,5.66-6.52s-5.17,4.43-6.54,4.77A38.92,38.92,0,0,1,68.62,84.6Z"/><path class="cls-59" d="M65.55,80.43a2.15,2.15,0,0,0,1.73,2.48c2.09.51,9,.22,10,.1,2.28-.28,2.11-2.75,2.11-2.75Z"/><path class="cls-60" d="M72.51,85c-1.43-.08-4.06.16-4.33.5-.66.86.89,1.62,4.33,1.65s4.59-1.18,4-1.65S74,85.07,72.51,85Z"/><path class="cls-61" d="M73.28,85.57c-.6.21,2.66.5,3.36.18a5.71,5.71,0,0,0,1.56-1.59s-.76.33-1.4.68A31.07,31.07,0,0,1,73.28,85.57Z"/><path class="cls-62" d="M72.51,78.58a93.46,93.46,0,0,0-10.12,1.23s7.56-.42,10.19-.37,9,.34,9,.34A50.94,50.94,0,0,0,72.51,78.58Z"/><path class="cls-63" d="M65.55,81.1s1.07.36,6.89.46,6.84-.42,6.84-.42.08-.61.08-.74l-13.81,0A2.21,2.21,0,0,0,65.55,81.1Z"/><path class="cls-58" d="M61.6,79.86S65.09,81,72.23,81.13c8,.15,10.64-1.27,10.64-1.27s-6.87-.42-10.29-.42C68,79.44,61.6,79.86,61.6,79.86Z"/><path class="cls-64" d="M65,80.11a58.33,58.33,0,0,0,7.82.79,42.62,42.62,0,0,0,8.35-.64s-4.84-.59-8.77-.62A55.6,55.6,0,0,0,65,80.11Z"/><path class="cls-56" d="M61.07,80A8.17,8.17,0,0,1,63,80.4a19.91,19.91,0,0,0-2.36-1.08C60.48,79.37,60.58,79.81,61.07,80Z"/><path class="cls-56" d="M81.38,80.59a6.71,6.71,0,0,1,1.83-.43c.48-.22.56-.65.47-.71A11,11,0,0,0,81.38,80.59Z"/><path class="cls-65" d="M72.43,97.51a10.62,10.62,0,0,1-5.9-1.75C65.89,95.4,60,90.42,60,90.42s4.5,5.27,6.58,6.43c1.9,1.06,3.73,2.41,6,2.41a12.5,12.5,0,0,0,7-3A77.71,77.71,0,0,0,84.8,90.6c-.46.44-5.31,4.46-6.27,5.09A9.83,9.83,0,0,1,72.43,97.51Z"/><path class="cls-66" d="M80.28,53.28a1.82,1.82,0,0,0-1,2.08,1.46,1.46,0,0,1,.11-1.6c-1.17,1-1,2.58.31,2.13a68,68,0,0,1,8.69-2.2A13,13,0,0,1,93.7,54.8s-3-2.75-5.09-3C86.69,51.63,81.77,52.75,80.28,53.28Z"/><path class="cls-67" d="M64.81,53.76a1.48,1.48,0,0,1,.11,1.6,1.83,1.83,0,0,0-1-2.08c-1.5-.53-6.4-1.65-8.32-1.45-2.08.22-5.08,3-5.08,3a12.93,12.93,0,0,1,5.27-1.11,67.83,67.83,0,0,1,8.68,2.2C65.83,56.34,66,54.73,64.81,53.76Z"/><path class="cls-68" d="M55.51,125.12s13.86-3.2,8.79-17.41S53.43,89.16,53.43,89.16,47.74,68.78,49.24,66c11.28-20.87-2.53-37.14,22.09-34.16l2.81-11.07s-3.56-1.13-9.84,0c-10.15,1.83-21.14,17.08-23.41,22s-5.7,20.56-5.5,23.5S34,88.06,33.2,93.48s-2.41,14.46,1,27.3a34.84,34.84,0,0,0-1.25,11.69A71.7,71.7,0,0,0,60,143C60.49,138.39,59.36,132.55,55.51,125.12Z"/><path class="cls-69" d="M115.43,111.61s2.29-7.72,1.09-13.5-8.23-20.3-8.23-20.3-1-24.2-3.18-29.64S95.86,25.39,86.84,22.3s-12.7-.95-12.7-.95v7.09C86.72,25.49,95.27,68,95.27,68c-.69,11.36-8.51,27.6-9.51,34s8,20.71,8,20.71c-2.62,9.3-.75,13.93,1.89,17.27a71.57,71.57,0,0,0,17.14-8.68c-.23-2.31-.55-4.41-.55-6.16C112.21,119,115.43,111.61,115.43,111.61Z"/><path class="cls-70" d="M54.74,114.86l-9.33,6.9s4.07,2.16,5.89,13.72a20.61,20.61,0,0,1,.16,5.54,72.68,72.68,0,0,0,10.19,2.24c.34-.49.68-1,1-1.54C67.76,133.46,54.74,114.86,54.74,114.86Z"/><path class="cls-71" d="M49.91,27.84c-7.53,7.05-9.45,13.38-11.38,18.08S36,62.63,35.4,67.22s-6.47,15.12-6.47,15.12c1.88-3.14,15.26-8.82,22.47-17.11s2.19-21.38,5.91-29.47,14.82-3.14,14.82-3.14l2-11.85C63.06,17.87,54.77,23.29,49.91,27.84Z"/><path class="cls-72" d="M91,23.28a23.39,23.39,0,0,0-16.88-2.51l-1.36,6.69.8,4.86c9.77-2.51,12.59,6.39,13.17,9.35s5.33,16.78,6.59,22,16,12.81,20,17.77c-5-10.93-4.72-20.62-7.75-34.09C103.88,40,99.38,28.25,91,23.28Z"/><path class="cls-73" d="M45,126.22c1.79-4.86,14.8-15.17,14.34-25.29S47.15,74.41,47.15,74.41L38.76,78.7s3.46,14.6,2.46,22.86-5.56,20.66-7.06,25.29a29.87,29.87,0,0,0-1.26,5.62,72.56,72.56,0,0,0,9.86,5.34A32.9,32.9,0,0,1,45,126.22Z"/><path class="cls-74" d="M42.41,75.2l-7.85,5a106.84,106.84,0,0,1-5.89,18.23c-3.83,8.58-8.21,18.89,4.53,29.07,0,0-3.58-5.63,0-17.54,1.85-6.16,14.22-11.45,12.73-19.7A152,152,0,0,0,42.41,75.2Z"/><path class="cls-75" d="M109.25,115.2l-10.73-11S85.44,117.41,85.85,133.6c.07,2.49,1.81,5.35,3.9,8.19a72,72,0,0,0,12.81-4.58c-.17-.62-.28-1-.28-1Z"/><path class="cls-76" d="M105.9,101.24s-3,14.42-3.3,15.59c-.29,1-3.52,11.11-3,21.7a72.22,72.22,0,0,0,19.12-11.72c-.68-2.16-1.51-4.42-2.17-6.72C114.66,113.53,105.9,101.24,105.9,101.24Z"/><path class="cls-77" d="M107.9,129.37c.34-6.83,8.81-13,8.68-18.38s-17.2-21.2-14.66-31.64L96.8,75.22S86.28,90.42,88,95.91c2.43,7.62,15.86,16,14.42,22.42s-2.85,9.5-.45,16a14.25,14.25,0,0,0,1.24,2.54c1.69-.82,3.33-1.7,5-2.63A20.43,20.43,0,0,1,107.9,129.37Z"/><path class="cls-78" d="M103.37,124.78c.29-2.52,1.09-5,1.26-7.53.47-6.92-6-11.43-8.48-17.27-2.42-5.61.37-11.67,2.51-16.9-4.42,5.64-8.1,12.46-5,19.59,2.11,4.9,7.65,9.65,6.81,15.35-.94,6.35-1.93,13.37,1.74,19.13,0,.07.08.12.12.18.82-.38,1.63-.77,2.42-1.17a10.22,10.22,0,0,1-.67-1.49A22.49,22.49,0,0,1,103.37,124.78Z"/><path class="cls-79" d="M58.12,142.66c1.24.24,2.5.45,3.77.63-.52-4.37-2.84-8.72-4.84-12.49C57,134.76,58.1,138.79,58.12,142.66Z"/><path class="cls-80" d="M87.83,102.52c.3-4.87,2.24-9.24,4-13.71A34.93,34.93,0,0,0,93.92,76.1c-.89,2.35-1.59,5.47-2.7,7.73s-2.61,4.47-3.86,6.74a26.45,26.45,0,0,0-3.59,14.56c.61,8.75,6.72,17,14.37,21.25C92.17,119.93,87.29,111.52,87.83,102.52Z"/><path class="cls-81" d="M93.14,128a16.85,16.85,0,0,0-.6,9.33,17.17,17.17,0,0,0,1.14,3.35c1.29-.41,2.56-.85,3.82-1.33a41.22,41.22,0,0,1-2.21-4.47C94.41,132.63,93.8,130.32,93.14,128Z"/><path class="cls-82" d="M46.9,33.68C43.1,38.35,40,44.46,36.7,49.44c-1.56,2.33-3.76,4.65-4.52,7.39-.86,3.08.11,6.32,1,9.26a23.57,23.57,0,0,1-.7-6.47c.22-2.77,1.66-4.6,3.39-6.68,3.69-4.45,6.94-9.24,10.51-13.78,6.3-8,15.43-19.06,27-14.85C64,17.14,52.52,26.78,46.9,33.68Z"/><path class="cls-83" d="M39.42,67.8C35.18,71.62,23.74,76.2,27,83.69c-1.56-7,7.94-9.67,12.21-12.79,5.69-4.17,10.1-10.57,11-17.61-1.45,2-2.46,4.31-3.81,6.36A42.49,42.49,0,0,1,39.42,67.8Z"/><path class="cls-84" d="M30.75,91.46c-2.63,3.79-6.31,7.56-6.45,12.42,1.43-4,4.66-6.68,7.33-9.85A20.46,20.46,0,0,0,35,88.62c.82-2,2-5.09,1.51-7.29C34.6,84.69,33,88.28,30.75,91.46Z"/><path class="cls-85" d="M106.18,81.68c-.53,2.19.69,5.28,1.51,7.28A20.21,20.21,0,0,0,111,94.37c2.67,3.18,5.9,5.86,7.33,9.86-.14-4.87-3.83-8.63-6.45-12.43C109.72,88.62,108.07,85,106.18,81.68Z"/><path class="cls-86" d="M43.61,90.91c-3.86,3.8-5.08,10.18-5,15.34a30,30,0,0,0,7,18.94,40.57,40.57,0,0,1-4.54-15C40.47,103.53,41.81,97.33,43.61,90.91Z"/><path class="cls-87" d="M99.82,94.73c-1.53-3.93.3-8,1.65-11.69a14.94,14.94,0,0,0-4.1,7.82c-.74,4.44,2,7.77,4.34,11.23a27,27,0,0,1,3.85,22,24.73,24.73,0,0,0-.29-20.33C103.76,100.55,101.08,98,99.82,94.73Z"/><path class="cls-88" d="M61.21,31.19c-5.6,2.11-5.52,15.32-5.52,15.32,5-15.78,16.44-13.89,16.44-13.89C69.4,28.77,64.69,29.88,61.21,31.19Z"/><path class="cls-89" d="M74.14,30.6c-.74,1.35-.56,1.72-.56,1.72s9.69-.19,12.7,10.35C85.75,29.78,75.39,28.35,74.14,30.6Z"/><path class="cls-90" d="M31.8,112.5c-3.21,1.93-5,6.77-5.46,10.23a14.6,14.6,0,0,0,.25,5.14c.71.58,1.44,1.16,2.18,1.71C27.6,124.06,30.09,117.91,31.8,112.5Z"/><path class="cls-91" d="M36.53,134.67h0v0Z"/><path class="cls-92" d="M53.34,43.51a96.91,96.91,0,0,1-.8,10.64,25,25,0,0,1-4,9.73,26.89,26.89,0,0,1-8.79,7.84c-3.34,2-6.87,3.7-9.62,6.48A14,14,0,0,0,28.3,95.43c-2.4-6.66-.27-13.1,5.75-16.82,4.83-3,10.29-4.6,14.49-8.58A26.16,26.16,0,0,0,56.3,55.57c.93-5.39-.38-10.79,1-16.14,2.92-11,8.86-12,14.45-11.69C60.61,23.71,54,33.15,53.34,43.51Z"/><path class="cls-93" d="M48.18,43c-.75,3.06-2.86,5.33-5,7.71s-4.46,4.13-6.31,6.54c-3,3.88-2.7,8.23-2.38,12.85.54-2.72.74-5.93,2.09-8.4,1.25-2.29,3.46-3.9,5.5-5.45,4.42-3.38,7.75-6.78,8.86-12.35,1.81-9.08,10.72-19.08,20.85-16.13C62.27,21.31,51.39,30,48.18,43Z"/><path class="cls-94" d="M95.25,58.59c-1.08-6.27-.54-12.5-2.83-18.57a25.22,25.22,0,0,0-6.63-9.72c-3.16-2.89-9.2-6.17-12.76-1.82,9-5.19,16.71,9.53,18.42,16.17,1.29,5,1.1,10.28,2.56,15.26,1.38,4.74,5,9.74,10.41,10.07C99,69,96.1,63.54,95.25,58.59Z"/><path class="cls-95" d="M105.76,42.85a42.07,42.07,0,0,0-4.65-6.54c-3.79-4-7.64-8.15-12.54-10.84-4.35-2.39-10.15-3.37-14.51.09,9.55-3.29,17.73,4.53,23.78,10.61a50.28,50.28,0,0,1,10,14.48c2.22,5.27.36,10.46,4.15,15.09-2.69-4.63-1.17-8.3-2.08-13.48A27.77,27.77,0,0,0,105.76,42.85Z"/><path class="cls-96" d="M90.31,115.93c-4.37,4.45-6.29,11.57-6.12,17.71A16.73,16.73,0,0,0,87,142.42l1.71-.38a18.06,18.06,0,0,1-2-5.27C85.42,129.4,88.1,122.75,90.31,115.93Z"/><path class="cls-97" d="M121.41,115.53a28.35,28.35,0,0,0-3.16-8.34c-1.33-2.46-2.85-5.08-5.29-6.5a104.48,104.48,0,0,1,5.79,13.18,27,27,0,0,1,.7,12.28c.42-.37.84-.74,1.25-1.12A21.52,21.52,0,0,0,121.41,115.53Z"/><path class="cls-98" d="M110,128.47a7.94,7.94,0,0,0-1.69,5.71c.65-.38,1.29-.77,1.93-1.17A27.24,27.24,0,0,1,110,128.47Z"/><path class="cls-99" d="M67.41,136.27a22.31,22.31,0,0,0-9-14.87c1.51,4,4.68,8.56,6.13,12.7a13.28,13.28,0,0,1-.28,9.49l1.49.14A12.38,12.38,0,0,0,67.41,136.27Z"/><path class="cls-100" d="M49.45,71.88c-.84,6.89.39,9.88,2.66,13.54a62.13,62.13,0,0,0,11.3,13.93c-2.86-4.06-5.36-8.31-7.85-12.6C52.85,82.07,51.53,82.34,49.45,71.88Z"/><path class="cls-101" d="M116.37,128.71c.87-.69,1.73-1.39,2.57-2.12-.56-1.8-1.36-3.93-2.42-6.5A24.39,24.39,0,0,1,116.37,128.71Z"/><path class="cls-102" d="M74.14,20.77C53.79,14.63,42.43,37.21,42.43,37.21c18.87-23.09,31.22-14.5,31.22-14.5,16.45-4.65,28,13.3,28,13.3C91.38,14.87,74.14,20.77,74.14,20.77Z"/><path class="cls-103" d="M44.21,116.26c4.87-4.48,7.94-10.32,7.81-17-.12-6-3.14-11.27-6.9-15.86,3.47,6.88,5.8,14,2.73,21.53a20.06,20.06,0,0,1-4,6.16c-2.28,2.42-6,3.53-8,6.17A19.49,19.49,0,0,0,32.23,132q2,1.36,4.17,2.58a8.31,8.31,0,0,1-.37-1.36C34.74,126.5,39.61,120.49,44.21,116.26Z"/><path class="cls-104" d="M107,93.4A27.81,27.81,0,0,1,102,84.21a18.27,18.27,0,0,0,3,11.65c1.1,1.68,2.45,3.18,3.53,4.87s3.06,4.37,3.77,6.3c1.36,3.72,1.87,6.8.8,10.81-.78,2.91-2.69,5.15-4.23,7.71,3.43-2.76,7.18-6.27,7.9-10.79a17,17,0,0,0-2.49-11.61A99.48,99.48,0,0,0,107,93.4Z"/><path class="cls-105" d="M31.69,104.68c3.54-7.27,8.73-14.82,7.87-23.27C36.69,90.18,30,97,26.84,105.64c-1.37,3.73-2.17,8-1.09,11.92,1,3.48,3.93,7.16,6.75,9.35-2.11-3.28-4.48-7.75-4.16-11.75A29.78,29.78,0,0,1,31.69,104.68Z"/><path class="cls-106" d="M59,98.24c1.26,4.7,5.46,8.2,7,12.79a10.72,10.72,0,0,1-2.17,10.37,16.12,16.12,0,0,1-7.4,5.51,13.56,13.56,0,0,0,7.4-3.64c2.31-2.09,4.4-4.87,4.9-8C69.78,108.66,63.29,102.48,59,98.24Z"/><path class="cls-107" d="M43.81,77.81c2,4,4.45,7.73,6.24,11.86a54.62,54.62,0,0,1,4.67,17.1c.42,5.36-1.94,9.79-5.53,13.69s-9.45,7.3-10.89,12.72c1.81-4.29,6.1-6.68,9.56-9.54,4.34-3.58,8.41-8.06,9.06-13.84s-1.32-12.36-3.6-17.73A45.56,45.56,0,0,0,43.81,77.81Z"/><path class="cls-108" d="M54.29,122.71c-2.36,5.82-4.19,11.53-7.24,16.85.86.31,1.73.61,2.6.9a35.27,35.27,0,0,0,2.09-5.36A50.66,50.66,0,0,0,54.29,122.71Z"/><path class="cls-109" d="M66,23.79a19.87,19.87,0,0,0-10,4.85s7.64-6.36,17-2.75A9.31,9.31,0,0,0,66,23.79Z"/><path class="cls-110" d="M114.29,71.87c-.72-3.24-3-5.78-5.18-8.17s-5-4.87-6.1-8-2.1-6.62-3.24-9.86c-3.51-10-10.8-24-24.86-20.49C88.72,23.71,95,39.93,98.28,51A36.21,36.21,0,0,0,102,60.48c1.67,2.64,4.07,4.56,6.36,6.64s4.35,4.37,4.61,7.46c.19,2.4-.87,5,.07,7.34C112.58,78.48,115.08,75.42,114.29,71.87Z"/><path class="cls-111" d="M79.75,28.3a7.54,7.54,0,0,0-6.19.8C80,26.64,86,33.34,86,33.34,84,31.11,83.1,29.43,79.75,28.3Z"/><path class="cls-112" d="M58.57,33.83l-.19,2.37c3.22-7.52,11.49-5.56,11.49-5.56C62.62,27,58.57,33.83,58.57,33.83Z"/><path class="cls-113" d="M55.47,94.77c1.62,3.46,3.48,7,3.86,10.9a15.54,15.54,0,0,1-2.71,9.82c-3.45,5.55-8.95,9.58-12.19,15.27C50.79,125.7,58.78,121.92,62,114,65,106.66,61.32,99.47,55.47,94.77Z"/><path class="cls-114" d="M99.21,69.81C95.33,65.48,93.1,60,91.54,54.48s-1.93-11.69-4.39-16.91c-1.55-3.28-7.21-10.07-11.57-7.89,3-.7,5.65,2.7,7.18,4.81a18,18,0,0,1,3,8.49c1.48,11,3,23.24,12.12,30.93,4.28,3.62,11.69,3.51,15.18,8,3.15,4,3,11.85,3.41,16.85.68-6.36,3-14.39-1.45-19.27C111.4,75.54,102.79,73.8,99.21,69.81Z"/><path class="cls-115" d="M88.83,68.05c-1.12.3-1.91,1.08-1.77,1.75s1.18,1,2.3.67,1.92-1.08,1.77-1.75S90,67.76,88.83,68.05Z"/><path class="cls-116" d="M55,68.05c-1.12-.24-2.13.1-2.25.76s.68,1.41,1.8,1.66,2.14-.09,2.26-.76S56.07,68.3,55,68.05Z"/></svg>