<svg id="Layer_1" data-name="Layer 1" xmlns="http://www.w3.org/2000/svg" xmlns:xlink="http://www.w3.org/1999/xlink" viewBox="0 0 144 144"><defs><style>.cls-1{fill:#f6ece6;}.cls-2{fill:url(#linear-gradient);}.cls-3{fill:url(#_ÂÁ_Ï_ÌÌ_È_ËÂÌÚ_44);}.cls-4{fill:#f6d4ab;}.cls-5{fill:url(#linear-gradient-2);}.cls-6{fill:url(#linear-gradient-3);}.cls-7{fill:url(#_ÂÁ_Ï_ÌÌ_È_ËÂÌÚ_1204);}.cls-8{fill:url(#_ÂÁ_Ï_ÌÌ_È_ËÂÌÚ_1204-2);}.cls-9{fill:url(#_ÂÁ_Ï_ÌÌ_È_ËÂÌÚ_146);}.cls-10{fill:url(#_ÂÁ_Ï_ÌÌ_È_ËÂÌÚ_1204-3);}.cls-11{fill:#f6a6b4;}.cls-12{fill:url(#_ÂÁ_Ï_ÌÌ_È_ËÂÌÚ_207);}.cls-13{fill:url(#_ÂÁ_Ï_ÌÌ_È_ËÂÌÚ_207-2);}.cls-14{fill:url(#_ÂÁ_Ï_ÌÌ_È_ËÂÌÚ_207-3);}.cls-15{fill:url(#_ÂÁ_Ï_ÌÌ_È_ËÂÌÚ_207-4);}.cls-16{fill:url(#_ÂÁ_Ï_ÌÌ_È_ËÂÌÚ_207-5);}.cls-17{fill:#f0c499;}.cls-18{fill:url(#linear-gradient-4);}.cls-19{fill:url(#linear-gradient-5);}.cls-20{fill:url(#_ÂÁ_Ï_ÌÌ_È_ËÂÌÚ_34);}.cls-21{fill:url(#linear-gradient-6);}.cls-22{fill:url(#_ÂÁ_Ï_ÌÌ_È_ËÂÌÚ_1017);}.cls-23{fill:url(#linear-gradient-7);}.cls-24{fill:url(#_ÂÁ_Ï_ÌÌ_È_ËÂÌÚ_33);}.cls-25{fill:url(#_ÂÁ_Ï_ÌÌ_È_ËÂÌÚ_100);}.cls-26{fill:url(#linear-gradient-8);}.cls-27{fill:url(#_ÂÁ_Ï_ÌÌ_È_ËÂÌÚ_1204-4);}.cls-28{fill:url(#linear-gradient-9);}.cls-29{fill:url(#radial-gradient);}.cls-30{fill:url(#_ÂÁ_Ï_ÌÌ_È_ËÂÌÚ_1204-5);}.cls-31{fill:url(#linear-gradient-10);}.cls-32{fill:#ddd;}.cls-33{fill:url(#linear-gradient-11);}.cls-34{fill:url(#linear-gradient-12);}.cls-35{fill:url(#linear-gradient-13);}.cls-36{fill:url(#radial-gradient-2);}.cls-37{fill:#fff;}.cls-38{fill:url(#_ÂÁ_Ï_ÌÌ_È_ËÂÌÚ_1655);}.cls-39{fill:url(#_ÂÁ_Ï_ÌÌ_È_ËÂÌÚ_1204-6);}.cls-40{fill:url(#_ÂÁ_Ï_ÌÌ_È_ËÂÌÚ_44-2);}.cls-41{fill:url(#_ÂÁ_Ï_ÌÌ_È_ËÂÌÚ_1020);}.cls-42{fill:url(#linear-gradient-14);}.cls-43{fill:url(#linear-gradient-15);}.cls-44{fill:url(#_ÂÁ_Ï_ÌÌ_È_ËÂÌÚ_1021);}.cls-45{fill:url(#linear-gradient-16);}.cls-46{fill:url(#radial-gradient-3);}.cls-47{fill:url(#_ÂÁ_Ï_ÌÌ_È_ËÂÌÚ_1019);}.cls-48{fill:url(#_ÂÁ_Ï_ÌÌ_È_ËÂÌÚ_1204-7);}.cls-49{fill:url(#_ÂÁ_Ï_ÌÌ_È_ËÂÌÚ_44-3);}.cls-50{fill:url(#linear-gradient-17);}.cls-51{fill:url(#linear-gradient-18);}.cls-52{fill:url(#_ÂÁ_Ï_ÌÌ_È_ËÂÌÚ_106);}.cls-53{fill:url(#linear-gradient-19);}.cls-54{fill:url(#_ÂÁ_Ï_ÌÌ_È_ËÂÌÚ_1204-8);}.cls-55{fill:url(#_ÂÁ_Ï_ÌÌ_È_ËÂÌÚ_1204-9);}.cls-56{fill:url(#_ÂÁ_Ï_ÌÌ_È_ËÂÌÚ_1204-10);}.cls-57{fill:#971b27;}.cls-58{fill:#f26d79;}.cls-59{fill:url(#linear-gradient-20);}.cls-60{fill:#f598a2;}.cls-61{fill:url(#_ÂÁ_Ï_ÌÌ_È_ËÂÌÚ_1204-11);}.cls-62{fill:url(#_ÂÁ_Ï_ÌÌ_È_ËÂÌÚ_1018);}.cls-63{fill:url(#_ÂÁ_Ï_ÌÌ_È_ËÂÌÚ_44-4);}.cls-64{fill:url(#linear-gradient-21);}.cls-65{fill:url(#linear-gradient-22);}.cls-66{fill:url(#linear-gradient-23);}.cls-67{fill:url(#linear-gradient-24);}.cls-68{fill:url(#linear-gradient-25);}.cls-69{fill:url(#linear-gradient-26);}.cls-70{fill:url(#linear-gradient-27);}.cls-71{fill:url(#linear-gradient-28);}.cls-72{fill:url(#linear-gradient-29);}.cls-73{fill:url(#linear-gradient-30);}.cls-74{fill:url(#_ÂÁ_Ï_ÌÌ_È_ËÂÌÚ_44-5);}.cls-75{fill:url(#_ÂÁ_Ï_ÌÌ_È_ËÂÌÚ_44-6);}.cls-76{fill:url(#_ÂÁ_Ï_ÌÌ_È_ËÂÌÚ_44-7);}.cls-77{fill:url(#_ÂÁ_Ï_ÌÌ_È_ËÂÌÚ_44-8);}.cls-78{fill:url(#linear-gradient-31);}.cls-79{fill:url(#linear-gradient-32);}.cls-80{fill:url(#_ÂÁ_Ï_ÌÌ_È_ËÂÌÚ_44-9);}.cls-81{fill:url(#_ÂÁ_Ï_ÌÌ_È_ËÂÌÚ_44-10);}.cls-82{fill:url(#_ÂÁ_Ï_ÌÌ_È_ËÂÌÚ_44-11);}.cls-83{fill:url(#_ÂÁ_Ï_ÌÌ_È_ËÂÌÚ_48);}.cls-84{fill:url(#_ÂÁ_Ï_ÌÌ_È_ËÂÌÚ_44-12);}.cls-85{fill:url(#_ÂÁ_Ï_ÌÌ_È_ËÂÌÚ_44-13);}</style><linearGradient id="linear-gradient" x1="92.39" y1="142.01" x2="93.14" y2="27.99" gradientUnits="userSpaceOnUse"><stop offset="0" stop-color="#3a241f"/><stop offset="0.45" stop-color="#3f2723"/><stop offset="0.94" stop-color="#4c312d"/><stop offset="1" stop-color="#4e332f"/></linearGradient><linearGradient id="_ÂÁ_Ï_ÌÌ_È_ËÂÌÚ_44" x1="72.22" y1="76.36" x2="74.11" y2="116.95" gradientUnits="userSpaceOnUse"><stop offset="0" stop-color="#39231e"/><stop offset="0.77" stop-color="#291915"/></linearGradient><linearGradient id="linear-gradient-2" x1="59.79" y1="96.74" x2="96.37" y2="107.11" gradientUnits="userSpaceOnUse"><stop offset="0" stop-color="#f0c499"/><stop offset="0.52" stop-color="#f1c69c"/><stop offset="0.85" stop-color="#f4cea4"/><stop offset="1" stop-color="#f6d4ab"/></linearGradient><linearGradient id="linear-gradient-3" x1="71.95" y1="142.21" x2="75.61" y2="107.95" gradientUnits="userSpaceOnUse"><stop offset="0" stop-color="#f6d4ab"/><stop offset="0.52" stop-color="#f5d2a8"/><stop offset="0.85" stop-color="#f2caa0"/><stop offset="1" stop-color="#f0c499"/></linearGradient><linearGradient id="_ÂÁ_Ï_ÌÌ_È_ËÂÌÚ_1204" x1="55.87" y1="140.47" x2="59.53" y2="106.24" gradientUnits="userSpaceOnUse"><stop offset="0" stop-color="#dca47a"/><stop offset="0.5" stop-color="#e5b287"/><stop offset="1" stop-color="#f0c499"/></linearGradient><linearGradient id="_ÂÁ_Ï_ÌÌ_È_ËÂÌÚ_1204-2" x1="17.1" y1="68.78" x2="86.02" y2="94.58" xlink:href="#_ÂÁ_Ï_ÌÌ_È_ËÂÌÚ_1204"/><linearGradient id="_ÂÁ_Ï_ÌÌ_È_ËÂÌÚ_146" x1="94.04" y1="145.87" x2="68.12" y2="110.32" gradientUnits="userSpaceOnUse"><stop offset="0" stop-color="#f6d4ab"/><stop offset="0.15" stop-color="#f4cea4"/><stop offset="0.48" stop-color="#f1c69c"/><stop offset="1" stop-color="#f0c499"/></linearGradient><linearGradient id="_ÂÁ_Ï_ÌÌ_È_ËÂÌÚ_1204-3" x1="107.08" y1="110.98" x2="84.06" y2="111.72" xlink:href="#_ÂÁ_Ï_ÌÌ_È_ËÂÌÚ_1204"/><linearGradient id="_ÂÁ_Ï_ÌÌ_È_ËÂÌÚ_207" x1="85.88" y1="154.91" x2="42.47" y2="114.37" gradientUnits="userSpaceOnUse"><stop offset="0" stop-color="#f6a6b4"/><stop offset="1" stop-color="#f094a3"/></linearGradient><linearGradient id="_ÂÁ_Ï_ÌÌ_È_ËÂÌÚ_207-2" x1="83.95" y1="159.09" x2="79.24" y2="153.63" xlink:href="#_ÂÁ_Ï_ÌÌ_È_ËÂÌÚ_207"/><linearGradient id="_ÂÁ_Ï_ÌÌ_È_ËÂÌÚ_207-3" x1="69.15" y1="157.39" x2="102.4" y2="104.71" xlink:href="#_ÂÁ_Ï_ÌÌ_È_ËÂÌÚ_207"/><linearGradient id="_ÂÁ_Ï_ÌÌ_È_ËÂÌÚ_207-4" x1="32.89" y1="129.22" x2="33.09" y2="132.97" xlink:href="#_ÂÁ_Ï_ÌÌ_È_ËÂÌÚ_207"/><linearGradient id="_ÂÁ_Ï_ÌÌ_È_ËÂÌÚ_207-5" x1="112.22" y1="129.84" x2="112.31" y2="131.61" xlink:href="#_ÂÁ_Ï_ÌÌ_È_ËÂÌÚ_207"/><linearGradient id="linear-gradient-4" x1="46.91" y1="135.49" x2="47.56" y2="158.34" xlink:href="#_ÂÁ_Ï_ÌÌ_È_ËÂÌÚ_1204"/><linearGradient id="linear-gradient-5" x1="101.52" y1="134.42" x2="102.16" y2="156.92" xlink:href="#_ÂÁ_Ï_ÌÌ_È_ËÂÌÚ_1204"/><linearGradient id="_ÂÁ_Ï_ÌÌ_È_ËÂÌÚ_34" x1="72.04" y1="33.03" x2="71.95" y2="94.27" gradientUnits="userSpaceOnUse"><stop offset="0" stop-color="#fed8b4"/><stop offset="0.35" stop-color="#f9d5ae"/><stop offset="1" stop-color="#f6d4ab"/></linearGradient><linearGradient id="linear-gradient-6" x1="60.63" y1="72.31" x2="57.49" y2="52.85" xlink:href="#linear-gradient-3"/><radialGradient id="_ÂÁ_Ï_ÌÌ_È_ËÂÌÚ_1017" cx="37.85" cy="123.79" r="21.6" gradientTransform="translate(35.83 5.47) scale(0.55 0.54)" gradientUnits="userSpaceOnUse"><stop offset="0" stop-color="#f8b38e"/><stop offset="0.51" stop-color="#f7c69e"/><stop offset="0.83" stop-color="#f6d4ab"/></radialGradient><linearGradient id="linear-gradient-7" x1="71.65" y1="85.71" x2="72.32" y2="92.62" gradientUnits="userSpaceOnUse"><stop offset="0" stop-color="#fed8b4"/><stop offset="0.65" stop-color="#fbd7b1"/><stop offset="1" stop-color="#f6d4ab"/></linearGradient><linearGradient id="_ÂÁ_Ï_ÌÌ_È_ËÂÌÚ_33" x1="89.73" y1="35.54" x2="60.35" y2="59.57" gradientUnits="userSpaceOnUse"><stop offset="0" stop-color="#f6d4ab"/><stop offset="0.97" stop-color="#f0c59a"/><stop offset="1" stop-color="#f0c499"/></linearGradient><linearGradient id="_ÂÁ_Ï_ÌÌ_È_ËÂÌÚ_100" x1="51.97" y1="85.6" x2="50.02" y2="52.78" gradientUnits="userSpaceOnUse"><stop offset="0" stop-color="#f8b38e"/><stop offset="0.5" stop-color="#f7b690"/><stop offset="0.9" stop-color="#f2c096"/><stop offset="1" stop-color="#f0c499"/></linearGradient><linearGradient id="linear-gradient-8" x1="85.97" y1="69.47" x2="83.03" y2="53.18" xlink:href="#linear-gradient-3"/><linearGradient id="_ÂÁ_Ï_ÌÌ_È_ËÂÌÚ_1204-4" x1="47.05" y1="73.61" x2="59.22" y2="73.61" xlink:href="#_ÂÁ_Ï_ÌÌ_È_ËÂÌÚ_1204"/><linearGradient id="linear-gradient-9" x1="85.36" y1="55.84" x2="94.96" y2="55.84" xlink:href="#linear-gradient-7"/><radialGradient id="radial-gradient" cx="92.84" cy="122.79" r="16.9" gradientTransform="translate(35.83 5.47) scale(0.55 0.54)" gradientUnits="userSpaceOnUse"><stop offset="0" stop-color="#f8b38e"/><stop offset="0.61" stop-color="#f7c69e"/><stop offset="1" stop-color="#f6d4ab"/></radialGradient><linearGradient id="_ÂÁ_Ï_ÌÌ_È_ËÂÌÚ_1204-5" x1="91.31" y1="58.15" x2="77.6" y2="63.47" xlink:href="#_ÂÁ_Ï_ÌÌ_È_ËÂÌÚ_1204"/><linearGradient id="linear-gradient-10" x1="77.91" y1="61.34" x2="82.12" y2="61.34" gradientUnits="userSpaceOnUse"><stop offset="0" stop-color="#fff"/><stop offset="0.46" stop-color="#fdfcfc"/><stop offset="0.76" stop-color="#f6f4f4"/><stop offset="1" stop-color="#ece7e6"/></linearGradient><linearGradient id="linear-gradient-11" x1="87.23" y1="61.21" x2="90.58" y2="61.21" xlink:href="#linear-gradient-10"/><linearGradient id="linear-gradient-12" x1="89.42" y1="64.93" x2="79.61" y2="58.8" gradientUnits="userSpaceOnUse"><stop offset="0" stop-color="#b89c8c"/><stop offset="1" stop-color="#725342"/></linearGradient><linearGradient id="linear-gradient-13" x1="97.59" y1="61.46" x2="84.81" y2="59.94" xlink:href="#linear-gradient-12"/><radialGradient id="radial-gradient-2" cx="86.9" cy="102.8" r="5.22" gradientTransform="translate(35.83 5.47) scale(0.55 0.54)" gradientUnits="userSpaceOnUse"><stop offset="0" stop-color="#2b3b3b"/><stop offset="1" stop-color="#1d2827"/></radialGradient><linearGradient id="_ÂÁ_Ï_ÌÌ_È_ËÂÌÚ_1655" x1="77.91" y1="60.92" x2="93.39" y2="60.92" gradientUnits="userSpaceOnUse"><stop offset="0" stop-color="#4e332f"/><stop offset="0.06" stop-color="#4c312d"/><stop offset="0.55" stop-color="#3f2723"/><stop offset="1" stop-color="#3a241f"/></linearGradient><linearGradient id="_ÂÁ_Ï_ÌÌ_È_ËÂÌÚ_1204-6" x1="84.63" y1="56.67" x2="74.42" y2="69.67" xlink:href="#_ÂÁ_Ï_ÌÌ_È_ËÂÌÚ_1204"/><linearGradient id="_ÂÁ_Ï_ÌÌ_È_ËÂÌÚ_44-2" x1="78" y1="60.75" x2="90.67" y2="60.75" xlink:href="#_ÂÁ_Ï_ÌÌ_È_ËÂÌÚ_44"/><linearGradient id="_ÂÁ_Ï_ÌÌ_È_ËÂÌÚ_1020" x1="65.13" y1="58.3" x2="52.94" y2="63.03" gradientUnits="userSpaceOnUse"><stop offset="0" stop-color="#f0c499"/><stop offset="0.5" stop-color="#e5b287"/><stop offset="1" stop-color="#dca47a"/></linearGradient><linearGradient id="linear-gradient-14" x1="61.94" y1="61.34" x2="66.15" y2="61.34" xlink:href="#linear-gradient-10"/><linearGradient id="linear-gradient-15" x1="54.46" y1="61.21" x2="57.81" y2="61.21" xlink:href="#linear-gradient-10"/><linearGradient id="_ÂÁ_Ï_ÌÌ_È_ËÂÌÚ_1021" x1="64.55" y1="65.27" x2="54.41" y2="58.93" xlink:href="#linear-gradient-12"/><linearGradient id="linear-gradient-16" x1="73.18" y1="61.28" x2="60.21" y2="59.74" xlink:href="#linear-gradient-12"/><radialGradient id="radial-gradient-3" cx="42.26" cy="102.8" r="5.22" xlink:href="#radial-gradient-2"/><linearGradient id="_ÂÁ_Ï_ÌÌ_È_ËÂÌÚ_1019" x1="50.68" y1="60.92" x2="66.16" y2="60.92" xlink:href="#linear-gradient"/><linearGradient id="_ÂÁ_Ï_ÌÌ_È_ËÂÌÚ_1204-7" x1="60.76" y1="56.91" x2="54.63" y2="64.71" xlink:href="#_ÂÁ_Ï_ÌÌ_È_ËÂÌÚ_1204"/><linearGradient id="_ÂÁ_Ï_ÌÌ_È_ËÂÌÚ_44-3" x1="53.57" y1="60.75" x2="66.24" y2="60.75" xlink:href="#_ÂÁ_Ï_ÌÌ_È_ËÂÌÚ_44"/><linearGradient id="linear-gradient-17" x1="72.63" y1="77.87" x2="71.75" y2="73.49" xlink:href="#linear-gradient-3"/><linearGradient id="linear-gradient-18" x1="71.94" y1="73.15" x2="71.92" y2="76.58" xlink:href="#_ÂÁ_Ï_ÌÌ_È_ËÂÌÚ_1204"/><linearGradient id="_ÂÁ_Ï_ÌÌ_È_ËÂÌÚ_106" x1="71.73" y1="68.47" x2="71.78" y2="72" gradientUnits="userSpaceOnUse"><stop offset="0" stop-color="#f6d4ab"/><stop offset="1" stop-color="#fed8b4"/></linearGradient><linearGradient id="linear-gradient-19" x1="72.06" y1="80.05" x2="72" y2="76.17" gradientUnits="userSpaceOnUse"><stop offset="0" stop-color="#fed8b4"/><stop offset="1" stop-color="#f6d4ab"/></linearGradient><linearGradient id="_ÂÁ_Ï_ÌÌ_È_ËÂÌÚ_1204-8" x1="71.07" y1="81.45" x2="60.77" y2="78.39" xlink:href="#_ÂÁ_Ï_ÌÌ_È_ËÂÌÚ_1204"/><linearGradient id="_ÂÁ_Ï_ÌÌ_È_ËÂÌÚ_1204-9" x1="63.59" y1="82.19" x2="80.92" y2="82.19" xlink:href="#_ÂÁ_Ï_ÌÌ_È_ËÂÌÚ_1204"/><linearGradient id="_ÂÁ_Ï_ÌÌ_È_ËÂÌÚ_1204-10" x1="87.88" y1="81" x2="79.89" y2="78.62" xlink:href="#_ÂÁ_Ï_ÌÌ_È_ËÂÌÚ_1204"/><linearGradient id="linear-gradient-20" x1="71.78" y1="84.36" x2="72.11" y2="81.49" gradientUnits="userSpaceOnUse"><stop offset="0" stop-color="#f26e7f"/><stop offset="0.02" stop-color="#f26f80"/><stop offset="0.24" stop-color="#f37986"/><stop offset="0.53" stop-color="#f37c88"/><stop offset="0.77" stop-color="#f37885"/><stop offset="1" stop-color="#f26d7d"/></linearGradient><linearGradient id="_ÂÁ_Ï_ÌÌ_È_ËÂÌÚ_1204-11" x1="71.95" y1="88.41" x2="71.04" y2="101.65" xlink:href="#_ÂÁ_Ï_ÌÌ_È_ËÂÌÚ_1204"/><linearGradient id="_ÂÁ_Ï_ÌÌ_È_ËÂÌÚ_1018" x1="78.55" y1="52.01" x2="93.83" y2="52.01" gradientUnits="userSpaceOnUse"><stop offset="0.23" stop-color="#291915"/><stop offset="1" stop-color="#39231e"/></linearGradient><linearGradient id="_ÂÁ_Ï_ÌÌ_È_ËÂÌÚ_44-4" x1="50.07" y1="52.01" x2="65.33" y2="52.01" xlink:href="#_ÂÁ_Ï_ÌÌ_È_ËÂÌÚ_44"/><linearGradient id="linear-gradient-21" x1="65.66" y1="50.54" x2="67.83" y2="26.7" xlink:href="#linear-gradient"/><linearGradient id="linear-gradient-22" x1="97.7" y1="63.3" x2="87.55" y2="24.17" xlink:href="#linear-gradient"/><linearGradient id="linear-gradient-23" x1="46.76" y1="136.58" x2="47.48" y2="27.41" xlink:href="#linear-gradient"/><linearGradient id="linear-gradient-24" x1="59.08" y1="129.18" x2="48.52" y2="70.29" xlink:href="#linear-gradient"/><linearGradient id="linear-gradient-25" x1="55.27" y1="129.86" x2="44.7" y2="70.97" xlink:href="#linear-gradient"/><linearGradient id="linear-gradient-26" x1="83.08" y1="124.27" x2="72.59" y2="65.8" xlink:href="#linear-gradient"/><linearGradient id="linear-gradient-27" x1="83.8" y1="124.14" x2="73.31" y2="65.64" xlink:href="#linear-gradient"/><linearGradient id="linear-gradient-28" x1="105.05" y1="100.48" x2="97.17" y2="64.03" xlink:href="#linear-gradient"/><linearGradient id="linear-gradient-29" x1="108.1" y1="96.92" x2="105.18" y2="76.91" xlink:href="#linear-gradient"/><linearGradient id="linear-gradient-30" x1="114.12" y1="117.44" x2="101.83" y2="73.07" xlink:href="#linear-gradient"/><linearGradient id="_ÂÁ_Ï_ÌÌ_È_ËÂÌÚ_44-5" x1="94.76" y1="83.04" x2="95.88" y2="123.72" xlink:href="#_ÂÁ_Ï_ÌÌ_È_ËÂÌÚ_44"/><linearGradient id="_ÂÁ_Ï_ÌÌ_È_ËÂÌÚ_44-6" x1="91.36" y1="83.13" x2="92.48" y2="123.81" xlink:href="#_ÂÁ_Ï_ÌÌ_È_ËÂÌÚ_44"/><linearGradient id="_ÂÁ_Ï_ÌÌ_È_ËÂÌÚ_44-7" x1="66.78" y1="39.91" x2="70" y2="52.79" xlink:href="#_ÂÁ_Ï_ÌÌ_È_ËÂÌÚ_44"/><linearGradient id="_ÂÁ_Ï_ÌÌ_È_ËÂÌÚ_44-8" x1="87.75" y1="33.14" x2="95.48" y2="59.63" xlink:href="#_ÂÁ_Ï_ÌÌ_È_ËÂÌÚ_44"/><linearGradient id="linear-gradient-31" x1="61.19" y1="76.88" x2="61.19" y2="30.35" gradientUnits="userSpaceOnUse"><stop offset="0" stop-color="#412922"/><stop offset="0.45" stop-color="#462c26"/><stop offset="0.94" stop-color="#533632"/><stop offset="1" stop-color="#553834"/></linearGradient><linearGradient id="linear-gradient-32" x1="94.68" y1="70.88" x2="94.68" y2="32.66" xlink:href="#linear-gradient-31"/><linearGradient id="_ÂÁ_Ï_ÌÌ_È_ËÂÌÚ_44-9" x1="42.69" y1="98.61" x2="51.03" y2="196.98" xlink:href="#_ÂÁ_Ï_ÌÌ_È_ËÂÌÚ_44"/><linearGradient id="_ÂÁ_Ï_ÌÌ_È_ËÂÌÚ_44-10" x1="56.91" y1="124.82" x2="60.56" y2="167.88" xlink:href="#_ÂÁ_Ï_ÌÌ_È_ËÂÌÚ_44"/><linearGradient id="_ÂÁ_Ï_ÌÌ_È_ËÂÌÚ_44-11" x1="34.67" y1="112.55" x2="39.46" y2="169.02" xlink:href="#_ÂÁ_Ï_ÌÌ_È_ËÂÌÚ_44"/><linearGradient id="_ÂÁ_Ï_ÌÌ_È_ËÂÌÚ_48" x1="42.42" y1="129.76" x2="32.33" y2="73.49" gradientUnits="userSpaceOnUse"><stop offset="0" stop-color="#3a241f"/><stop offset="0.36" stop-color="#432a26"/><stop offset="1" stop-color="#4e332f"/></linearGradient><linearGradient id="_ÂÁ_Ï_ÌÌ_È_ËÂÌÚ_44-12" x1="50.11" y1="137.37" x2="50.61" y2="144.16" xlink:href="#_ÂÁ_Ï_ÌÌ_È_ËÂÌÚ_44"/><linearGradient id="_ÂÁ_Ï_ÌÌ_È_ËÂÌÚ_44-13" x1="39.6" y1="135.89" x2="39.69" y2="137.07" xlink:href="#_ÂÁ_Ï_ÌÌ_È_ËÂÌÚ_44"/></defs><circle class="cls-1" cx="72" cy="72" r="72" transform="translate(-29.82 72) rotate(-45)"/><path class="cls-2" d="M84.58,23.11s2.92.67,8.13,11.47,6,24,6,24L82.19,86.1s-15.09,18.39-.78,27.79,19.23,9.91,26.82,10.64c5.3-23.86-2.35-75.79-6.38-86.58S92.52,22.21,84.58,23.11Z"/><polygon class="cls-3" points="44.95 53.29 47.13 118.94 100.13 120.94 98.39 57.06 44.95 53.29"/><path class="cls-4" d="M121.77,124a42,42,0,0,0-2.32-7.15c-3.21-7.25-10.78-8-11.91-8.09-4-.38-19.78.14-21.43-5.07-2-6.49-2-21.91-2-21.91L59.61,80.9c2.78,4.57,3,21.48-1.54,25.17-3.52,2.83-11.72,3.08-17.42,3.7-3.12.34-12.32,1.94-14.87,11.16a48.11,48.11,0,0,0-1.1,5.33A72,72,0,0,0,121.77,124Z"/><path class="cls-5" d="M87.92,103.2c-.56-.72-3.69-4.18-3.09-21.53-.34.4-25.7,1-25.7,1s2.88,15.15,0,20c-3.59,6-16,6.19-16,6.19,2.23,5.78,7.69,8.88,10.1,7a45.72,45.72,0,0,0,9.95-10.36c14.9-1.85,18.24-9.73,18.24-9.73-1.47,8.47,10.19,13.9,15.07,14.82,5.21,1,9.92-1.91,9.92-1.91C93.34,107.61,89.32,105,87.92,103.2Z"/><path class="cls-6" d="M71.88,115s4.54.79,5.73,2.18C77.61,117.14,76.3,113.57,71.88,115Z"/><path class="cls-7" d="M68.13,110.85c-2.17-.72-18.78-1.73-21.77-1.44,0,0,21,2.07,25.17,4.65A7,7,0,0,0,68.13,110.85Z"/><path class="cls-8" d="M58.45,76.93c1.27,7.33,1.89,20.69,1.89,20.69C75.91,109.32,84.81,89,84.81,89l-.08-8.47Z"/><path class="cls-9" d="M98,107.72a207.38,207.38,0,0,1-26.1,32c-10.54-9.19-21.37-31-21.37-31l-7.34.89s.67,19.43,9.19,31.67a72.55,72.55,0,0,0,36.31.77c11.82-12.46,16.52-33.48,16.52-33.48Z"/><path class="cls-10" d="M77.77,114.09c3.94-3,7.88-2.16,12.9-2.74s13.72-2.45,13.72-2.45c-2.29.44-21.82,1.08-23.59,1.52S77.77,114.09,77.77,114.09Z"/><path class="cls-11" d="M56.26,127.93c-7.17-4.54-16.52-18.57-16.52-18.57s-10.18,0-15.5,8.67a20.71,20.71,0,0,0-1.9,6.11A71.72,71.72,0,0,0,70.8,144C66.37,138,60.35,130.51,56.26,127.93Z"/><path class="cls-12" d="M47.83,108.84a67,67,0,0,0-7.54.52c.93,3.45,5.75,12.16,10.59,19.54a166.43,166.43,0,0,0,11.33,14.43A71.86,71.86,0,0,0,72,144h.48c-.81-.94-10-11.68-14.63-18.58C53,118.19,47.83,108.84,47.83,108.84Z"/><path class="cls-11" d="M124.5,121.27a16.28,16.28,0,0,0-1.54-4.39c-5.31-8.67-15.89-8.67-15.89-8.67s-9.34,14-16.52,18.57c-4.33,2.74-10.86,11-15.34,17.15A71.85,71.85,0,0,0,124.5,121.27Z"/><path class="cls-13" d="M71,142.26,69.34,144c.88,0,1.77.05,2.66.05h.24l.06-.07Z"/><path class="cls-14" d="M107.07,108.21l-7.29-.67s-10.68,15.93-14.11,20C82.79,131,75.45,138.66,70.28,144L72,144a73.68,73.68,0,0,0,7.9-.43c5.84-6,13.13-13.68,14.89-16A151.17,151.17,0,0,0,107.07,108.21Z"/><path class="cls-15" d="M32.89,132.46l.52.33-.79-2.47S32.73,131.15,32.89,132.46Z"/><path class="cls-16" d="M112.12,131.8l.26-.18c.05-.62.09-1,.09-1Z"/><path class="cls-17" d="M45.12,58.37c-4.75.26-3.52,5.26-1.43,9.91,1.36,3,2.64,6.5,6.13,6.5,0,0-.9-6.13-2-14.19C47.85,60.59,46,58.31,45.12,58.37Z"/><path class="cls-18" d="M46,66.77c1.25-8.28-4.44-8.85-3.14-3.19,0,0,.78-2.67,1.5-1.87.89,1-1,1.52,0,5.79.49,2.23,2.83,4.57,2.83,4.57S45.5,70.29,46,66.77Z"/><path class="cls-17" d="M99.43,58.37c-.92-.06-2.73,2.22-2.73,2.22-1.07,8.06-2,14.19-2,14.19,3.49,0,4.77-3.45,6.13-6.5C103,63.63,104.18,58.63,99.43,58.37Z"/><path class="cls-19" d="M98.51,66.77c.53,3.52-1.18,5.3-1.18,5.3s2.35-2.34,2.84-4.57c.93-4.27-.9-4.81,0-5.79.72-.8,1.51,1.87,1.51,1.87C103,57.92,97.26,58.49,98.51,66.77Z"/><path class="cls-20" d="M75.53,24S51.39,27.1,48.35,34C45,41.44,46,52,46.93,58.82s2.84,18,4.58,21.16S62,89.79,63.91,91.19s4,3.54,8.44,3.53a13.21,13.21,0,0,0,8.71-3.67c2.14-2.07,10.3-8.24,12-11.4s3.66-14,4.6-20.83-.55-15.57-3.87-23C90.79,28.9,86.1,24.65,75.53,24Z"/><path class="cls-21" d="M57.77,50.9c-3.46-.23-5.76.62-7.51,2-4.09,3.3-1.1,12.58-1.1,12.58s8,9.36,21.56,3.61C69.63,63,68.86,51.63,57.77,50.9Z"/><path class="cls-22" d="M62.29,61.83c-3.11-.92-15.17-3.42-14.59.53,1.27,8.75,2.43,14.76,4,17.48s6.35,7.34,8.4,7.68c3.17.54,6.53-11,6.6-14.93C66.78,67.07,65.41,62.75,62.29,61.83Z"/><path class="cls-23" d="M71.9,86.87c-2.23.11-4,.9-4,1.76s1.82,1.5,4,1.4,4-.89,4-1.77S74.11,86.77,71.9,86.87Z"/><path class="cls-24" d="M70.18,26.16C38.73,28.07,49.86,55.62,49.86,55.62S61,46.94,82.52,36.71c0,0,2.4,2.31,14.23,26.51,0,0,.3-1.06.58-2.47C99,52.57,100.75,24.3,70.18,26.16Z"/><polygon class="cls-25" points="47.83 51.34 51.34 80.02 53.92 83.08 51.09 48.06 47.83 51.34"/><path class="cls-26" d="M93.25,52.66a9.63,9.63,0,0,0-7.38-2.23c-11.09,1.11-10.92,12-12,18.24C87.52,74,95.44,64.29,95.44,64.29S97.36,55.84,93.25,52.66Z"/><path class="cls-27" d="M52.17,78.43c-1.72-4.35-5.12-18.74-5.12-18.74S49.28,75.6,51.34,80c.67,1.44,2,3.06,7.88,7.52C59.22,87.54,54.17,83.5,52.17,78.43Z"/><path class="cls-28" d="M93.6,52.73c-4.91-3.08-8.24-1-8.24-1,10.08-.69,8.89,8.89,8.89,8.89S96.22,54.37,93.6,52.73Z"/><path class="cls-29" d="M82.37,61.83c-3.12.92-4.49,5.24-4.38,10.76.08,4,2.91,14.28,6.08,13.75,2-.34,7.31-3.65,8.92-6.5s2.7-8.73,4-17.48C97.54,58.41,85.48,60.91,82.37,61.83Z"/><path class="cls-30" d="M86,55.73c-7.44,0-8.14,4.49-8.29,7.74a21.53,21.53,0,0,1,2.26.57A17.35,17.35,0,0,0,85.7,65.2c2,0,6.27-.91,6.33-5.13C92.08,56.73,87.75,55.88,86,55.73Z"/><path class="cls-31" d="M78,63.22a24.06,24.06,0,0,1,3.84,1.08,3.24,3.24,0,0,1-1.32-2.85,5.11,5.11,0,0,1,1.69-3.07A12.54,12.54,0,0,0,78,63.22Z"/><path class="cls-32" d="M78,63.22a12.63,12.63,0,0,1,2.59-2.13A3.66,3.66,0,0,1,82,58.85C79.58,60,78,63.22,78,63.22Z"/><path class="cls-33" d="M88,61.83a3.51,3.51,0,0,1-1.82,2.89,6.75,6.75,0,0,0,5.58-4c-2.68-2.2-4.62-2.89-6.45-3A4.08,4.08,0,0,1,88,61.83Z"/><path class="cls-34" d="M80.58,61a3.62,3.62,0,0,0-.06.46,3.1,3.1,0,0,0,1.32,2.85,13.51,13.51,0,0,0,4.7.42,3.41,3.41,0,0,0,1.91-2.81A3.76,3.76,0,0,0,88.06,60,8.47,8.47,0,0,0,80.58,61Z"/><path class="cls-32" d="M86.53,58.52a3.72,3.72,0,0,1,1.76,2.08A10.77,10.77,0,0,1,90.81,62l.73-1.46C90.49,59.25,88.46,58.87,86.53,58.52Z"/><path class="cls-35" d="M86.53,58.52a9.81,9.81,0,0,0-3.5,0,4.72,4.72,0,0,0-1,.35,3.59,3.59,0,0,0-1.43,2.24,8.92,8.92,0,0,1,3.7-1.18,8.56,8.56,0,0,1,4,.7A3.6,3.6,0,0,0,86.53,58.52Z"/><path class="cls-36" d="M84.6,58.75a2.39,2.39,0,1,0,2.32,2.57A2.45,2.45,0,0,0,84.6,58.75Z"/><path class="cls-37" d="M85,60.16a.72.72,0,0,0-1,.26.68.68,0,0,0,.23.94.73.73,0,0,0,1-.27A.66.66,0,0,0,85,60.16Z"/><path class="cls-37" d="M87.28,61.15a.92.92,0,1,0,.34,1.27A.92.92,0,0,0,87.28,61.15Z"/><path class="cls-38" d="M93.4,57.49S92.67,59,89,57.71c-7-2.24-10.9,1.79-11,5.51,0,0,2.1-4.09,6.07-4.47,2.42-.24,4.51.75,6.6,1.87,0,1.65-2.21,3.68-4.62,4.16,2.06,0,6.65-2.09,7-3.81-.13.22-.57.37-1.13.16C91.91,61.13,93.88,60.36,93.4,57.49Z"/><path class="cls-39" d="M82.38,56.08a6.77,6.77,0,0,0-3.48,2.55,7.47,7.47,0,0,1,3.7-2.19,15.91,15.91,0,0,1,6.44,0A9.41,9.41,0,0,0,82.38,56.08Z"/><path class="cls-40" d="M83.78,58.39A7.4,7.4,0,0,0,78,63.22,8.6,8.6,0,0,1,83.88,59c2.35-.41,5,.73,6.79,1.63A8.29,8.29,0,0,0,83.78,58.39Z"/><path class="cls-41" d="M58.29,55.73c-1.8.15-6.12,1-6.08,4.34.07,4.22,4.35,5.11,6.34,5.13A17.28,17.28,0,0,0,64.32,64a22.17,22.17,0,0,1,2.26-.57C66.43,60.22,65.74,55.73,58.29,55.73Z"/><path class="cls-42" d="M62,58.38a5.07,5.07,0,0,1,1.7,3.07A3.28,3.28,0,0,1,62.4,64.3a24.06,24.06,0,0,1,3.84-1.08A12.54,12.54,0,0,0,62,58.38Z"/><path class="cls-32" d="M62.25,58.85a3.67,3.67,0,0,1,1.41,2.24,12.5,12.5,0,0,1,2.58,2.13S64.66,60,62.25,58.85Z"/><path class="cls-43" d="M59,57.71c-1.83.16-3.76.85-6.45,3a6.75,6.75,0,0,0,5.58,4,3.53,3.53,0,0,1-1.82-2.89A4.1,4.1,0,0,1,59,57.71Z"/><path class="cls-44" d="M63.67,61a8.49,8.49,0,0,0-7.49-1,3.87,3.87,0,0,0-.39,1.94,3.45,3.45,0,0,0,1.91,2.81,13.48,13.48,0,0,0,4.7-.42,3.13,3.13,0,0,0,1.33-2.85C63.71,61.28,63.7,61.16,63.67,61Z"/><path class="cls-32" d="M52.7,60.58,53.43,62A10.71,10.71,0,0,1,56,60.6a3.66,3.66,0,0,1,1.75-2.08C55.78,58.87,53.76,59.25,52.7,60.58Z"/><path class="cls-45" d="M62.25,58.85a4.64,4.64,0,0,0-1-.35,9.86,9.86,0,0,0-3.51,0,3.63,3.63,0,0,0-1.78,2.09,8.6,8.6,0,0,1,4.06-.7,8.82,8.82,0,0,1,3.69,1.18A3.59,3.59,0,0,0,62.25,58.85Z"/><path class="cls-46" d="M59.64,58.75A2.39,2.39,0,1,0,62.31,61,2.44,2.44,0,0,0,59.64,58.75Z"/><path class="cls-37" d="M60.19,60.16a.72.72,0,0,0-1,.26.67.67,0,0,0,.23.94.72.72,0,0,0,.95-.27A.66.66,0,0,0,60.19,60.16Z"/><path class="cls-37" d="M62.43,61.15a.92.92,0,1,0-.93,1.59.92.92,0,1,0,.93-1.59Z"/><path class="cls-47" d="M55.21,57.71c-3.64,1.29-4.36-.22-4.36-.22-.49,2.87,1.48,3.64,1.48,3.64-.56.21-1,.06-1.12-.16.33,1.72,4.92,3.82,7,3.81-2.41-.48-4.64-2.51-4.62-4.16,2.09-1.12,4.19-2.11,6.6-1.87,4,.38,6.07,4.47,6.07,4.47C66.1,59.5,62.2,55.47,55.21,57.71Z"/><path class="cls-48" d="M61.86,56.08a9.39,9.39,0,0,0-6.65.34,15.86,15.86,0,0,1,6.43,0,7.47,7.47,0,0,1,3.7,2.19A6.77,6.77,0,0,0,61.86,56.08Z"/><path class="cls-49" d="M60.46,58.39a8.31,8.31,0,0,0-6.89,2.23c1.79-.9,4.45-2,6.79-1.63a8.57,8.57,0,0,1,5.88,4.23A7.4,7.4,0,0,0,60.46,58.39Z"/><polygon class="cls-50" points="71.81 73.7 67.76 73.7 67.3 74.27 72.05 77.49 76.5 74.18 75.87 73.65 71.81 73.7"/><path class="cls-51" d="M71.81,73.81l-3-.8-1.55.17.14,1a5.67,5.67,0,0,1,3.38.1h1.93a6.29,6.29,0,0,1,3.75-.11l.08-.87L75,73Z"/><path class="cls-17" d="M76.44,70.47s.71,1.18.41,1.92-2.32.11-3.15.62c-1.52.94-2.44.71-4,0-1-.47-2.4.12-2.95-.69a2.46,2.46,0,0,1,0-1.85,2.24,2.24,0,0,0-1,1.72c-.14,1.44,1.36,2.22,1.6,2.07s-.2-1.23,1.19-1,1.32.89,1.55,1.12a6.5,6.5,0,0,0,3.08,0c.41-.26.3-1.2,1.61-1.16s1.35.93,1.54,1,1-.57,1.19-1.89A1.86,1.86,0,0,0,76.44,70.47Z"/><path class="cls-52" d="M68.67,69.82a2.79,2.79,0,0,0,.48,1.91c.61.91,4.85,1.66,5.57-.44a5,5,0,0,0,.07-1.89C74.7,68.46,68.7,68.91,68.67,69.82Z"/><path class="cls-53" d="M71.8,78.07c-3.43.06-7.17.88-10,.24,1.06.64,3.44,1.85,10.1,1.48,9-.5,8.82-.17,10.36-1.37C79.24,79.07,75.23,78,71.8,78.07Z"/><path class="cls-54" d="M59.76,77.63c-.45,1.72,3.28,1.67,6.32,3C63.69,79.67,59.94,77,59.76,77.63Z"/><path class="cls-55" d="M63.59,79.82a10.88,10.88,0,0,0,9.12,4.78,11.91,11.91,0,0,0,8.21-4.82S71.16,81.68,63.59,79.82Z"/><path class="cls-56" d="M78.33,80.61c3-1.3,6.77-1.25,6.32-3C84.48,77,80.72,79.68,78.33,80.61Z"/><path class="cls-57" d="M83.08,78.07a16.37,16.37,0,0,1-5.86,1.74c-.68,0-9.27-.15-9.82-.13a19.82,19.82,0,0,1-5.34-1.24,11.36,11.36,0,0,0-1.81-.83c-.16.09.08,1.16,1.24,1.09,2.76.37,3.52,2.32,5.14,2.49.48.07,10,0,10.33,0,2.3,0,3.19-2.19,6-2.57,1.32,0,1.33-1,1.33-1S83.76,77.73,83.08,78.07Z"/><path class="cls-58" d="M72,78.68c-3.6,0-6.92,1-10.28-.42.12,0,2.83,2.22,10.54,2.35,5.83.1,9.06-1.57,9.93-2.14C79.36,79.77,76,78.7,72,78.68Z"/><path class="cls-58" d="M72.07,81c-7.55-.19-8.66-2-9.69-2.15,1.34,1.23,2.34,2.06,3.08,2.7a11.2,11.2,0,0,0,7,2.39,11.54,11.54,0,0,0,5.87-1.93,44.5,44.5,0,0,0,4.23-3.36C81.41,78.66,79.18,81.21,72.07,81Z"/><path class="cls-59" d="M71.75,81.59c-4.42-.14-6.63-1.08-6.5-.77.25.57,1.06,1,2.24,1.66a10.11,10.11,0,0,0,4.8,1.13,7.71,7.71,0,0,0,4.55-1A7.09,7.09,0,0,0,79.13,81C79.13,80.76,76.32,81.74,71.75,81.59Z"/><path class="cls-60" d="M71.33,83c-.49.34,1.5.5,2.38.45s2.41-.62,2.26-.86S71.33,83,71.33,83Z"/><path class="cls-17" d="M85,87.66c3.25-2.28,7.67-6.2,8.34-7.64,2.06-4.42,4.28-20.33,4.28-20.33s-3.39,14.39-5.11,18.74C90.49,83.5,85,87.66,85,87.66Z"/><path class="cls-61" d="M72.26,94.62a10.76,10.76,0,0,1-6-1.78c-.65-.36-7.06-5.3-7.06-5.3s5,5.23,7.06,6.41c1.93,1.08,3.78,2.44,6,2.44a12.71,12.71,0,0,0,7.09-3c1.49-1.21,5.37-5.51,5.37-5.51-.47.44-5.36,4.28-6.32,4.92A10,10,0,0,1,72.26,94.62Z"/><path class="cls-62" d="M80.23,51.4a1.83,1.83,0,0,0-1,2.1,1.48,1.48,0,0,1,.11-1.61c-1.18,1-1,2.61.31,2.16a68.71,68.71,0,0,1,8.82-2.23,13,13,0,0,1,5.35,1.12s-3-2.79-5.16-3C86.72,49.72,81.74,50.86,80.23,51.4Z"/><path class="cls-63" d="M64.53,51.89a1.46,1.46,0,0,1,.11,1.61,1.83,1.83,0,0,0-1-2.1c-1.51-.54-6.48-1.68-8.43-1.47-2.12.22-5.16,3-5.16,3a13,13,0,0,1,5.35-1.12,68,68,0,0,1,8.8,2.23C65.57,54.5,65.72,52.87,64.53,51.89Z"/><path class="cls-64" d="M63.68,20.42c-14.37,2.24-16,20.52-14.78,31.91a89.52,89.52,0,0,1,36-18.3l-.3-10.92S78.05,18.17,63.68,20.42Z"/><path class="cls-65" d="M84.58,23.11,84.88,34c6.93,9.44,12.45,26.72,12.45,26.72a5.79,5.79,0,0,1,1.39-2.13C97.46,19.41,84.58,23.11,84.58,23.11Z"/><path class="cls-66" d="M50.07,52.94c.35-17.56,8.83-31.67,8.83-31.67S43.18,28.65,38.67,47c-2.22,9-7.24,51.13-3.25,87A71.48,71.48,0,0,0,59.77,143C55.17,123,49.76,68.73,50.07,52.94Z"/><path class="cls-67" d="M48.37,41c-5.69,26.57-1.26,59.36,6.84,86.56C49.28,101.14,46.92,68.57,48.37,41Z"/><path class="cls-68" d="M45.66,39.24c-8.59,20.59-3.68,73.2,6,91.12C43.17,93.54,40.88,64.5,45.66,39.24Z"/><path class="cls-69" d="M52.21,43.94A161.78,161.78,0,0,1,82.77,30.85C72.54,30.85,57.06,37.75,52.21,43.94Z"/><path class="cls-70" d="M53.14,38.32A103.23,103.23,0,0,1,81.55,26.48C73,25.4,56.73,32.52,53.14,38.32Z"/><path class="cls-71" d="M87,29.58C89.09,35.82,95,47,97,50.86,95.88,46.52,92,32.74,87,29.58Z"/><path class="cls-72" d="M103.36,57.71A63.82,63.82,0,0,0,98.1,36.27C99.59,42.68,100.56,49,103.36,57.71Z"/><path class="cls-73" d="M106.49,105.93c-.09-9.55-.22-28.12-2.19-40C103.18,76.36,103.87,93.64,106.49,105.93Z"/><path class="cls-74" d="M95.5,103.47c.51-7.26,1-16.28-.93-23.68C93.44,86.55,94,95.79,95.5,103.47Z"/><path class="cls-75" d="M92,104.47c0-5.44,1.34-12.22-.61-19.62C90.28,91.61,91,101.11,92,104.47Z"/><path class="cls-76" d="M50.07,51.34S67.53,37.52,84.88,34c0,0-21.42,4.09-34.51,14Z"/><path class="cls-77" d="M97.33,60.75s.75-1.22,1.06-1.9c0,0-5-16.61-13.51-24.82A124.18,124.18,0,0,1,97.33,60.75Z"/><path class="cls-78" d="M63.74,18.83C40.11,21.88,37.81,51.34,37.81,51.34S45,25.51,63.68,22.06c15.61-2.87,20.9,1.05,20.9,1.05S80.51,16.67,63.74,18.83Z"/><path class="cls-79" d="M84.58,23.11c15.55,1.65,20.2,26.79,20.2,26.79C100.13,18.17,84.58,23.11,84.58,23.11Z"/><path class="cls-80" d="M45.25,138.86c1,.41,2,.79,3.06,1.15-3-13.75-6.86-47.92-8.77-63.27C40.86,106.06,42.83,128.78,45.25,138.86Z"/><path class="cls-81" d="M57.92,142.62c.74.15,1.48.28,2.23.4-3.37-15-6.36-39-7.25-48.36C52.9,94.66,54.71,127.43,57.92,142.62Z"/><path class="cls-82" d="M35.48,134.06c.56.33,1.12.65,1.69,1-1.48-12.79-2.92-37.33-3.07-41.48C33.48,104.28,34.27,121.87,35.48,134.06Z"/><path class="cls-83" d="M40.62,133.8,37,84.45S35.15,111.66,40.62,133.8Z"/><path class="cls-84" d="M49.79,140.5l1.19.38a31.14,31.14,0,0,1-1.46-4.35A27.4,27.4,0,0,0,49.79,140.5Z"/><path class="cls-85" d="M39.54,136.28l.19.09c-.13-.47-.19-.73-.19-.73Z"/></svg>