<svg id="Layer_1" data-name="Layer 1" xmlns="http://www.w3.org/2000/svg" xmlns:xlink="http://www.w3.org/1999/xlink" viewBox="0 0 144 144"><defs><style>.cls-1{fill:#f6ece6;}.cls-2{fill:url(#linear-gradient);}.cls-3{fill:#f7d9ab;}.cls-4{fill:url(#linear-gradient-2);}.cls-5{fill:url(#linear-gradient-3);}.cls-6{fill:url(#linear-gradient-4);}.cls-7{fill:#9ab33b;}.cls-8{fill:url(#linear-gradient-5);}.cls-9{fill:url(#linear-gradient-6);}.cls-10{fill:url(#linear-gradient-7);}.cls-11{fill:url(#linear-gradient-8);}.cls-12{fill:url(#linear-gradient-9);}.cls-13{fill:url(#linear-gradient-10);}.cls-14{fill:url(#linear-gradient-11);}.cls-15{fill:url(#linear-gradient-12);}.cls-16{fill:#f1c99a;}.cls-17{fill:url(#linear-gradient-13);}.cls-18{fill:url(#linear-gradient-14);}.cls-19{fill:url(#linear-gradient-15);}.cls-20{fill:url(#radial-gradient);}.cls-21{fill:url(#linear-gradient-16);}.cls-22{fill:url(#radial-gradient-2);}.cls-23{fill:url(#linear-gradient-17);}.cls-24{fill:url(#linear-gradient-18);}.cls-25{fill:url(#linear-gradient-19);}.cls-26{fill:url(#linear-gradient-20);}.cls-27{fill:url(#linear-gradient-21);}.cls-28{fill:url(#linear-gradient-22);}.cls-29{fill:url(#linear-gradient-23);}.cls-30{fill:url(#linear-gradient-24);}.cls-31{fill:#ddd;}.cls-32{fill:url(#linear-gradient-25);}.cls-33{fill:url(#linear-gradient-26);}.cls-34{fill:url(#linear-gradient-27);}.cls-35{fill:url(#radial-gradient-3);}.cls-36{fill:#fff;}.cls-37{fill:url(#linear-gradient-28);}.cls-38{fill:#dba879;}.cls-39{fill:#391b13;}.cls-40{fill:url(#linear-gradient-29);}.cls-41{fill:url(#linear-gradient-30);}.cls-42{fill:url(#linear-gradient-31);}.cls-43{fill:url(#linear-gradient-32);}.cls-44{fill:url(#linear-gradient-33);}.cls-45{fill:url(#radial-gradient-4);}.cls-46{fill:url(#linear-gradient-34);}.cls-47{fill:url(#linear-gradient-35);}.cls-48{fill:url(#linear-gradient-36);}.cls-49{fill:url(#linear-gradient-37);}.cls-50{fill:url(#linear-gradient-38);}.cls-51{fill:#fbcead;}.cls-52{fill:url(#linear-gradient-39);}.cls-53{fill:url(#linear-gradient-40);}.cls-54{fill:url(#linear-gradient-41);}.cls-55{fill:url(#linear-gradient-42);}.cls-56{fill:url(#linear-gradient-43);}.cls-57{fill:url(#linear-gradient-44);}.cls-58{fill:url(#linear-gradient-45);}.cls-59{fill:url(#linear-gradient-46);}.cls-60{fill:url(#linear-gradient-47);}.cls-61{fill:url(#linear-gradient-48);}.cls-62{fill:url(#linear-gradient-49);}.cls-63{fill:url(#linear-gradient-50);}.cls-64{fill:url(#linear-gradient-51);}.cls-65{fill:url(#linear-gradient-52);}.cls-66{fill:url(#linear-gradient-53);}.cls-67{fill:url(#linear-gradient-54);}.cls-68{fill:url(#linear-gradient-55);}.cls-69{fill:#971b27;}.cls-70{fill:#f26d79;}.cls-71{fill:url(#linear-gradient-56);}.cls-72{fill:url(#linear-gradient-57);}.cls-73{fill:url(#linear-gradient-58);}.cls-74{fill:#f598a2;}</style><linearGradient id="linear-gradient" x1="71.85" y1="47.45" x2="76.94" y2="103.57" gradientUnits="userSpaceOnUse"><stop offset="0" stop-color="#6c342a"/><stop offset="0.3" stop-color="#673228"/><stop offset="0.63" stop-color="#5a2c22"/><stop offset="0.97" stop-color="#442119"/><stop offset="1" stop-color="#422018"/></linearGradient><linearGradient id="linear-gradient-2" x1="34.98" y1="141.64" x2="34.06" y2="112.99" gradientUnits="userSpaceOnUse"><stop offset="0" stop-color="#f1c99a"/><stop offset="0.53" stop-color="#f2cc9d"/><stop offset="0.87" stop-color="#f5d4a5"/><stop offset="1" stop-color="#f7d9ab"/></linearGradient><linearGradient id="linear-gradient-3" x1="110.46" y1="141.18" x2="109.47" y2="110.69" xlink:href="#linear-gradient-2"/><linearGradient id="linear-gradient-4" x1="74.68" y1="142.84" x2="73.4" y2="103.27" xlink:href="#linear-gradient-2"/><linearGradient id="linear-gradient-5" x1="63.41" y1="92.84" x2="82.93" y2="114.08" xlink:href="#linear-gradient-2"/><linearGradient id="linear-gradient-6" x1="85.64" y1="109.46" x2="70.18" y2="111.74" xlink:href="#linear-gradient-2"/><linearGradient id="linear-gradient-7" x1="73.72" y1="108.4" x2="98.28" y2="104.56" gradientUnits="userSpaceOnUse"><stop offset="0" stop-color="#ffdeb3"/><stop offset="1" stop-color="#f7d9ab"/></linearGradient><linearGradient id="linear-gradient-8" x1="72.33" y1="109.64" x2="50.78" y2="103.98" xlink:href="#linear-gradient-7"/><linearGradient id="linear-gradient-9" x1="40.55" y1="125.95" x2="39.48" y2="136.89" gradientUnits="userSpaceOnUse"><stop offset="0" stop-color="#9ab33b"/><stop offset="0.65" stop-color="#829739"/><stop offset="1" stop-color="#748637"/></linearGradient><linearGradient id="linear-gradient-10" x1="105.76" y1="125.08" x2="104.61" y2="136.78" xlink:href="#linear-gradient-9"/><linearGradient id="linear-gradient-11" x1="70.28" y1="86.47" x2="73.04" y2="98.14" gradientUnits="userSpaceOnUse"><stop offset="0" stop-color="#dba879"/><stop offset="0.49" stop-color="#e4b687"/><stop offset="1" stop-color="#f1c99a"/></linearGradient><linearGradient id="linear-gradient-12" x1="70.25" y1="179.39" x2="71.45" y2="29.33" gradientUnits="userSpaceOnUse"><stop offset="0.23" stop-color="#492319"/><stop offset="1" stop-color="#663024"/></linearGradient><linearGradient id="linear-gradient-13" x1="99.44" y1="64.19" x2="96.53" y2="77.09" gradientUnits="userSpaceOnUse"><stop offset="0" stop-color="#dba879"/><stop offset="0.22" stop-color="#e2b384"/><stop offset="0.66" stop-color="#edc394"/><stop offset="1" stop-color="#f1c99a"/></linearGradient><linearGradient id="linear-gradient-14" x1="44.97" y1="63.51" x2="47.88" y2="78.63" xlink:href="#linear-gradient-13"/><linearGradient id="linear-gradient-15" x1="86.24" y1="71.29" x2="86.02" y2="55.91" gradientUnits="userSpaceOnUse"><stop offset="0" stop-color="#f7d9ab"/><stop offset="0.53" stop-color="#f6d6a8"/><stop offset="0.87" stop-color="#f3cea0"/><stop offset="1" stop-color="#f1c99a"/></linearGradient><radialGradient id="radial-gradient" cx="148.79" cy="83.34" fx="142.14667781519262" r="23.42" gradientTransform="translate(28.26 38.37) scale(0.41 0.41)" gradientUnits="userSpaceOnUse"><stop offset="0" stop-color="#f9ad8e"/><stop offset="0.48" stop-color="#f8c09a"/><stop offset="1" stop-color="#f7d9ab"/></radialGradient><linearGradient id="linear-gradient-16" x1="58.98" y1="72" x2="59.05" y2="56.26" xlink:href="#linear-gradient-15"/><radialGradient id="radial-gradient-2" cx="67.97" cy="84.02" fx="67.96512905281452" r="23.28" xlink:href="#radial-gradient"/><linearGradient id="linear-gradient-17" x1="75.13" y1="4.97" x2="71.51" y2="73.9" xlink:href="#linear-gradient-11"/><linearGradient id="linear-gradient-18" x1="66.68" y1="90.8" x2="75.43" y2="90.8" gradientUnits="userSpaceOnUse"><stop offset="0" stop-color="#ffdeb3"/><stop offset="0.68" stop-color="#fcdcb0"/><stop offset="1" stop-color="#f7d9ab"/></linearGradient><linearGradient id="linear-gradient-19" x1="81.64" y1="77.44" x2="97.22" y2="77.44" xlink:href="#linear-gradient-18"/><linearGradient id="linear-gradient-20" x1="72.49" y1="92.24" x2="73" y2="99" xlink:href="#linear-gradient-11"/><linearGradient id="linear-gradient-21" x1="78.73" y1="55.38" x2="93.33" y2="55.38" gradientUnits="userSpaceOnUse"><stop offset="0" stop-color="#683126"/><stop offset="0.34" stop-color="#53281e"/><stop offset="0.68" stop-color="#46221a"/><stop offset="1" stop-color="#422018"/></linearGradient><linearGradient id="linear-gradient-22" x1="50.82" y1="55.3" x2="65.52" y2="55.3" gradientUnits="userSpaceOnUse"><stop offset="0" stop-color="#422018"/><stop offset="0.32" stop-color="#46221a"/><stop offset="0.66" stop-color="#53281e"/><stop offset="1" stop-color="#683126"/></linearGradient><linearGradient id="linear-gradient-23" x1="65.02" y1="61.18" x2="53.18" y2="65.78" gradientUnits="userSpaceOnUse"><stop offset="0" stop-color="#f1c99a"/><stop offset="0.51" stop-color="#e4b687"/><stop offset="1" stop-color="#dba879"/></linearGradient><linearGradient id="linear-gradient-24" x1="62.09" y1="64.18" x2="66.19" y2="64.18" gradientUnits="userSpaceOnUse"><stop offset="0" stop-color="#fff"/><stop offset="0.46" stop-color="#fdfcfc"/><stop offset="0.76" stop-color="#f6f4f4"/><stop offset="1" stop-color="#ece7e6"/></linearGradient><linearGradient id="linear-gradient-25" x1="54.58" y1="64.06" x2="58" y2="64.06" xlink:href="#linear-gradient-24"/><linearGradient id="linear-gradient-26" x1="66.05" y1="69.37" x2="56.21" y2="62.39" gradientUnits="userSpaceOnUse"><stop offset="0" stop-color="#b89c8c"/><stop offset="1" stop-color="#725342"/></linearGradient><linearGradient id="linear-gradient-27" x1="73.43" y1="70.14" x2="63.21" y2="64.68" xlink:href="#linear-gradient-26"/><radialGradient id="radial-gradient-3" cx="76.2" cy="63.47" r="6.88" gradientTransform="translate(28.26 38.37) scale(0.41 0.41)" gradientUnits="userSpaceOnUse"><stop offset="0" stop-color="#2b3b3b"/><stop offset="1" stop-color="#1d2827"/></radialGradient><linearGradient id="linear-gradient-28" x1="50.86" y1="63.72" x2="66.2" y2="63.72" gradientUnits="userSpaceOnUse"><stop offset="0" stop-color="#5b2b20"/><stop offset="0.31" stop-color="#4a2319"/><stop offset="0.66" stop-color="#3d1d15"/><stop offset="1" stop-color="#391b13"/></linearGradient><linearGradient id="linear-gradient-29" x1="91.02" y1="60.85" x2="77.43" y2="66.13" xlink:href="#linear-gradient-11"/><linearGradient id="linear-gradient-30" x1="77.7" y1="63.93" x2="81.8" y2="63.93" xlink:href="#linear-gradient-24"/><linearGradient id="linear-gradient-31" x1="86.87" y1="63.81" x2="90.29" y2="63.81" xlink:href="#linear-gradient-24"/><linearGradient id="linear-gradient-32" x1="88.94" y1="67.45" x2="79.35" y2="61.45" xlink:href="#linear-gradient-26"/><linearGradient id="linear-gradient-33" x1="96.9" y1="64.03" x2="84.43" y2="62.55" xlink:href="#linear-gradient-26"/><radialGradient id="radial-gradient-4" cx="135.13" cy="62.85" r="6.88" xlink:href="#radial-gradient-3"/><linearGradient id="linear-gradient-34" x1="77.7" y1="63.46" x2="93.04" y2="63.46" gradientUnits="userSpaceOnUse"><stop offset="0" stop-color="#391b13"/><stop offset="0.34" stop-color="#3d1d15"/><stop offset="0.69" stop-color="#4a2319"/><stop offset="1" stop-color="#5b2b20"/></linearGradient><linearGradient id="linear-gradient-35" x1="72.34" y1="78.76" x2="72.3" y2="75.24" xlink:href="#linear-gradient-15"/><linearGradient id="linear-gradient-36" x1="73.37" y1="75.26" x2="70.39" y2="67.56" xlink:href="#linear-gradient-7"/><linearGradient id="linear-gradient-37" x1="76.93" y1="74.62" x2="73.98" y2="76.07" xlink:href="#linear-gradient-11"/><linearGradient id="linear-gradient-38" x1="67.81" y1="74.77" x2="70.96" y2="76.06" xlink:href="#linear-gradient-11"/><linearGradient id="linear-gradient-39" x1="96.21" y1="44.28" x2="97.21" y2="75.32" gradientUnits="userSpaceOnUse"><stop offset="0" stop-color="#6c342a"/><stop offset="0.29" stop-color="#5b2c23"/><stop offset="0.71" stop-color="#49231b"/><stop offset="1" stop-color="#422018"/></linearGradient><linearGradient id="linear-gradient-40" x1="46.93" y1="65.38" x2="48.47" y2="47.87" xlink:href="#linear-gradient-39"/><linearGradient id="linear-gradient-41" x1="51.39" y1="172.09" x2="52.59" y2="20.64" xlink:href="#linear-gradient-12"/><linearGradient id="linear-gradient-42" x1="90.31" y1="176.48" x2="91.5" y2="26.58" xlink:href="#linear-gradient-12"/><linearGradient id="linear-gradient-43" x1="71.03" y1="170.34" x2="72.23" y2="19.97" xlink:href="#linear-gradient-12"/><linearGradient id="linear-gradient-44" x1="98.67" y1="180.81" x2="94.27" y2="70.93" xlink:href="#linear-gradient-12"/><linearGradient id="linear-gradient-45" x1="53.03" y1="182.64" x2="48.63" y2="72.76" xlink:href="#linear-gradient-12"/><linearGradient id="linear-gradient-46" x1="74.12" y1="56.29" x2="74.01" y2="17.26" gradientUnits="userSpaceOnUse"><stop offset="0" stop-color="#683126"/><stop offset="0.38" stop-color="#6d3429"/><stop offset="0.8" stop-color="#7a3c32"/><stop offset="1" stop-color="#834238"/></linearGradient><linearGradient id="linear-gradient-47" x1="78.19" y1="50.33" x2="76.69" y2="14.98" xlink:href="#linear-gradient-46"/><linearGradient id="linear-gradient-48" x1="92.81" y1="27.03" x2="97.36" y2="123.39" xlink:href="#linear-gradient-12"/><linearGradient id="linear-gradient-49" x1="42.81" y1="22.21" x2="47.91" y2="130.15" xlink:href="#linear-gradient-12"/><linearGradient id="linear-gradient-50" x1="71.68" y1="56.54" x2="67.78" y2="16.93" gradientUnits="userSpaceOnUse"><stop offset="0" stop-color="#683126"/><stop offset="0.59" stop-color="#4e261d"/><stop offset="1" stop-color="#422018"/></linearGradient><linearGradient id="linear-gradient-51" x1="88.42" y1="51.04" x2="86.55" y2="7.28" xlink:href="#linear-gradient-46"/><linearGradient id="linear-gradient-52" x1="58.01" y1="43.91" x2="56.72" y2="13.62" xlink:href="#linear-gradient-46"/><linearGradient id="linear-gradient-53" x1="71.81" y1="74.02" x2="64.64" y2="1.39" xlink:href="#linear-gradient-50"/><linearGradient id="linear-gradient-54" x1="71" y1="82.59" x2="61.76" y2="79.84" xlink:href="#linear-gradient-15"/><linearGradient id="linear-gradient-55" x1="86.07" y1="82.17" x2="78.91" y2="80.04" xlink:href="#linear-gradient-15"/><linearGradient id="linear-gradient-56" x1="71.95" y1="80.34" x2="71.92" y2="81.84" gradientUnits="userSpaceOnUse"><stop offset="0" stop-color="#f26e7f"/><stop offset="0.02" stop-color="#f26f80"/><stop offset="0.24" stop-color="#f37986"/><stop offset="0.53" stop-color="#f37c88"/><stop offset="0.77" stop-color="#f37885"/><stop offset="1" stop-color="#f26d7d"/></linearGradient><linearGradient id="linear-gradient-57" x1="65.03" y1="83.77" x2="79.01" y2="83.77" xlink:href="#linear-gradient-11"/><linearGradient id="linear-gradient-58" x1="71.46" y1="85.3" x2="71.81" y2="82.26" xlink:href="#linear-gradient-56"/></defs><circle class="cls-1" cx="72" cy="72" r="72" transform="translate(-29.82 72) rotate(-45)"/><path class="cls-2" d="M79.89,25.69c-3.52-2.13-32.68,8.15-34.53,12.37-.74,1.69-9.54,39.38,13.25,59.59,0,0,.65-3.63,13.71-3.63,12.2,0,14.59,3.8,14.59,3.8S127.16,54.33,79.89,25.69Z" transform="translate(0 0)"/><path class="cls-3" d="M103.55,104.56c-3.61-.35-18.51,0-20-4.86-1.87-6,.37-13.66.37-13.66L61.4,84.91c2.53,4.22,2.44,8.71,2.33,13.26-.11,5-3.93,4.37-4.77,4.64-3.25,1.09-11.18,2.09-16.37,2.67-2.85.31-12.17,5.4-13.55,10.29a55.82,55.82,0,0,0-1.73,12.69A72,72,0,0,0,52,141.18H92a71.79,71.79,0,0,0,26-13.8c-.55-6-1.69-11.36-3.61-15.35C112.66,108.39,104.58,104.66,103.55,104.56Z" transform="translate(0 0)"/><path class="cls-4" d="M29.56,113.91c-.24.43-.95,3.59-.95,3.59a76,76,0,0,1,8.14,10.17c.51.9.83,4.42,1,7.7.86.46,1.74.91,2.62,1.35C39.35,121.44,29.56,113.91,29.56,113.91Z" transform="translate(0 0)"/><path class="cls-5" d="M107.56,128.52c1-4,5.66-11,8-13.77l-1.2-3.4s-8.74,13-9.93,25c.88-.45,1.76-.91,2.62-1.4A33,33,0,0,1,107.56,128.52Z" transform="translate(0 0)"/><path class="cls-6" d="M101.43,104.44c-2.52,7.23-23.67,26.53-31,26-6.36-.46-23.74-18.16-26-25.17a15.9,15.9,0,0,1-1.78.18s3.44,31.42,26.87,31,34.74-31.86,34.74-31.86A16.18,16.18,0,0,0,101.43,104.44Z" transform="translate(0 0)"/><path class="cls-7" d="M115.17,112.77s-1.77-8.21-12.29-8.4C97,117.59,74.79,131.6,71.24,132c-5.1.52-25.38-15.82-27.67-26.93-13.27-1.15-15,11.14-15,11.14,4,4.15,7.93,8.08,9.49,12.34a70.17,70.17,0,0,1,.84,7.45,72.11,72.11,0,0,0,67-.43c.1-2,.28-4.24.58-7.38C109.27,120.25,115.17,112.77,115.17,112.77Z" transform="translate(0 0)"/><path class="cls-8" d="M83.35,95.66c-.1-1.11-.26-3.89-.3-5.34-.31.37-19.48-.32-20.22-1.42l-2.23,0S61.26,96,60.21,101c-.32,1.54-14,4-14,4,5.43.18,10.9,1.23,13,.87a35.67,35.67,0,0,0,6.8-2.61c11.49-5.27,15.08-7,15.08-7,.54,4.9,4.16,8.14,4,8.1,6.93,1.68,17.51.08,17.51.08-13.31-1.12-16.89-3.13-17.64-3.64S83.59,98.21,83.35,95.66Z" transform="translate(0 0)"/><path class="cls-9" d="M71.05,110.26s4.14.73,5.23,2C76.28,112.28,75.08,109,71.05,110.26Z" transform="translate(0 0)"/><path class="cls-10" d="M76.42,109.46c3.59-2.8,7.18-2,11.76-2.53s12.5-2.27,12.5-2.27c-2.08.41-19.89,1-21.5,1.41S76.42,109.46,76.42,109.46Z" transform="translate(0 0)"/><path class="cls-11" d="M67.63,106.47c-2-.66-17.11-1.6-19.84-1.34,0,0,19.1,1.92,22.94,4.3A6.38,6.38,0,0,0,67.63,106.47Z" transform="translate(0 0)"/><path class="cls-12" d="M38.76,135.88c1,.5,1.92,1,2.89,1.43l-3.56-8.79C38.31,129.77,38.56,133,38.76,135.88Z" transform="translate(0 0)"/><path class="cls-13" d="M103.29,136.86c.93-.45,1.86-.92,2.78-1.42.12-2.92.28-6.11.4-7.28Z" transform="translate(0 0)"/><path class="cls-14" d="M60.18,85.79c.86,2.38.72,11.47.72,11.47,13,4.13,22.05-5,22.05-5v-2.7Z" transform="translate(0 0)"/><path class="cls-15" d="M70.41,24C40.73,27.17,43.78,51.8,46.31,66.37S91.77,101.08,97,65.7,77.53,23.19,70.41,24Z" transform="translate(0 0)"/><path class="cls-16" d="M98.64,62.78c-.76,0-1.63,2-1.63,2-1.15,6.65-1.61,11.73-1.61,11.73C99.7,75.12,103,62.75,98.64,62.78Z" transform="translate(0 0)"/><path class="cls-17" d="M98,69.24a5,5,0,0,1-.6,3.9,9.3,9.3,0,0,0,1.75-3.52c.47-3.15-.8-3.38-.23-4.16s1.1,1.21,1.1,1.21C100.7,62.5,96.83,63.4,98,69.24Z" transform="translate(0 0)"/><path class="cls-16" d="M46,62.5c-4.35-.19-1.5,12.29,2.74,13.79,0,0-.28-5.09-1.18-11.79C47.6,64.5,46.8,62.54,46,62.5Z" transform="translate(0 0)"/><path class="cls-18" d="M46.68,69.06c.9-6.19-3.3-6.6-2.33-2.38,0,0,.57-2,1.11-1.4s-.7,1.14,0,4.33A8.78,8.78,0,0,0,47.57,73,4.83,4.83,0,0,1,46.68,69.06Z" transform="translate(0 0)"/><path class="cls-3" d="M76.05,31.75C61.24,29.29,50.71,42.3,47.93,58.06,46.38,66.9,47,74.8,51.73,81.3c1.92,2.63,4.3,3.91,7.07,6,1.75,1.32,4.5,4.15,6.38,5.52A10.42,10.42,0,0,0,71,95.15c7,.25,11.54-4.94,13.54-6.81,7-6.57,13.49-9,12.07-27.31C95.54,46.67,85.75,32.06,76.05,31.75Z" transform="translate(0 0)"/><path class="cls-19" d="M84.23,54.42c-8.25,1.47-7.92,7.69-8.54,15,13.32,5.46,21-1,21-1s0-8-1.87-10.8C94.13,56.54,91.94,53,84.23,54.42Z" transform="translate(0 0)"/><path class="cls-20" d="M86.81,63.77c-4.22.68-8.08,4.23-7.8,9.09.38,5.87,3.33,8.9,7.25,10.46,5.12,2,10.3-5,10.59-12.77C97.14,62.57,91,63.08,86.81,63.77Z" transform="translate(0 0)"/><path class="cls-21" d="M59,54.77a11.81,11.81,0,0,0-7.91,2C47,59.85,49.42,67.92,49.42,67.92s6.39,7.47,19.86,2.17C68.34,64.33,69.93,55.53,59,54.77Z" transform="translate(0 0)"/><path class="cls-22" d="M58.51,65c-4-.84-10.14-3.26-10.42,5.57s4.76,13,10.08,13.63c4.12.49,7.35-6.17,7.51-11.29C65.52,68.13,62.54,65.84,58.51,65Z" transform="translate(0 0)"/><path class="cls-23" d="M78.37,32.08s-15.68-4.22-25.81,12c-5.18,8.3-7,22.57-4.24,30.64,0,0-.74-8.84,2.64-11,0,0,1.79-18.88,9.85-23.84,1.77,6.84,6.07,9.53,15.56,12.23C85.1,54.58,93.47,57,96.8,67.93a47.47,47.47,0,0,0-2.33-17.39C91.6,42.31,86.07,33.58,78.37,32.08Z" transform="translate(0 0)"/><path class="cls-24" d="M72.38,89.64c-1.84-.09-3.39.35-3.47,1s1.36,1.24,3.2,1.33,3.38-.34,3.46-1S74.21,89.73,72.38,89.64Z" transform="translate(0 0)"/><path class="cls-25" d="M93.63,63.81c5.33,7.6-.22,16-4.53,19.84-4.74,4.27-6.7,6.69-7.46,7.41.68-.6,7-6.12,8.82-7.39s8.12-7.54,6.5-15.51C97,68.16,95.94,64.86,93.63,63.81Z" transform="translate(0 0)"/><path class="cls-16" d="M55.89,84.56c-9.41-6.78-6.6-18.9-6.6-18.9-4.9,12.3,3.54,17.84,5.25,19,3.52,2.33,9.38,7.16,9.38,7.16A50,50,0,0,0,55.89,84.56Z" transform="translate(0 0)"/><path class="cls-26" d="M64.86,92.56s5.76,7.59,15.28-.35C80.14,92.21,72.49,98.18,64.86,92.56Z" transform="translate(0 0)"/><path class="cls-27" d="M80.91,54.77c-1.76.83-3,3.15-1.49,2.65s7.18-2.65,8.41-2.68a13.57,13.57,0,0,1,5.5,1.43s-3.43-2.66-5.54-2.88S81.86,54.33,80.91,54.77Z" transform="translate(0 0)"/><path class="cls-28" d="M63.45,54.76c-1-.4-5.14-1.66-7.24-1.35s-5.39,3.18-5.39,3.18a13.05,13.05,0,0,1,5.42-1.72c1.23,0,7,1.89,8.53,2.32S65.25,55.51,63.45,54.76Z" transform="translate(0 0)"/><path class="cls-29" d="M57.87,58.73c-1.75.15-5.48.79-5.43,4.09C52.5,67,56.84,68,58.78,68a16.57,16.57,0,0,0,5.63-1.15,20.71,20.71,0,0,1,2.2-.56C66.46,63.08,65.14,58.73,57.87,58.73Z" transform="translate(0 0)"/><path class="cls-30" d="M62.18,61.25a5.17,5.17,0,0,1,1.65,3,3.22,3.22,0,0,1-1.29,2.81A25.26,25.26,0,0,1,66.28,66,12.42,12.42,0,0,0,62.18,61.25Z" transform="translate(0 0)"/><path class="cls-31" d="M62.39,61.73a3.61,3.61,0,0,1,1.37,2.21A12.08,12.08,0,0,1,66.28,66S64.74,62.87,62.39,61.73Z" transform="translate(0 0)"/><path class="cls-32" d="M59.18,60.59c-1.79.16-4,1.08-6.58,3.25a7.43,7.43,0,0,0,5.73,3.69,3.51,3.51,0,0,1-1.77-2.87A4,4,0,0,1,59.18,60.59Z" transform="translate(0 0)"/><path class="cls-33" d="M63.77,63.84a8.18,8.18,0,0,0-7.3-1,3.76,3.76,0,0,0-.38,1.92A3.37,3.37,0,0,0,58,67.52a12.66,12.66,0,0,0,4.59-.42,3.09,3.09,0,0,0,1.29-2.81C63.81,64.12,63.8,64,63.77,63.84Z" transform="translate(0 0)"/><path class="cls-31" d="M53.28,64l.51.92a10.68,10.68,0,0,1,2.46-1.42A3.64,3.64,0,0,1,58,61.4,7.83,7.83,0,0,0,53.28,64Z" transform="translate(0 0)"/><path class="cls-34" d="M62.39,61.73a4,4,0,0,0-1-.35,9.37,9.37,0,0,0-3.42,0,3.52,3.52,0,0,0-1.73,2.06,8.39,8.39,0,0,1,4-.69,8.59,8.59,0,0,1,3.61,1.17A3.54,3.54,0,0,0,62.39,61.73Z" transform="translate(0 0)"/><path class="cls-35" d="M59.84,61.63a2.36,2.36,0,1,0,2.61,2.17A2.39,2.39,0,0,0,59.84,61.63Z" transform="translate(0 0)"/><path class="cls-36" d="M60.52,63.07a.67.67,0,0,0-.89.32.7.7,0,0,0,.29.93.66.66,0,0,0,.89-.32A.7.7,0,0,0,60.52,63.07Z" transform="translate(0 0)"/><path class="cls-36" d="M62.75,64a.93.93,0,0,0-1.23.4.91.91,0,0,0,.41,1.22.94.94,0,0,0,1.24-.4A.91.91,0,0,0,62.75,64Z" transform="translate(0 0)"/><path class="cls-37" d="M55.27,60.74a5.07,5.07,0,0,1-4.31.13c0,.09-.3,2.65,1.57,3.3a1.31,1.31,0,0,0,.06.26,1.32,1.32,0,0,0-1.24.61s.77-.4,2.45.81a8.84,8.84,0,0,0,4.63,1.73c-2.46-1-3.66-1.53-4.94-3.52a9.53,9.53,0,0,1,6.77-2.22c3.42.19,6,4.2,6,4.2C65.17,61.68,61.73,58.13,55.27,60.74Z" transform="translate(0 0)"/><path class="cls-38" d="M61.69,59.11a10,10,0,0,0-6.54.18s3.82-.71,6.4.27a10.48,10.48,0,0,1,3.61,2.06A7.07,7.07,0,0,0,61.69,59.11Z" transform="translate(0 0)"/><path class="cls-39" d="M60.73,61.48c-5.58-.57-7.24,2.58-7.24,2.58a10.06,10.06,0,0,1,7.06-2.2c3.16.3,5.73,4.18,5.73,4.18S64.88,61.9,60.73,61.48Z" transform="translate(0 0)"/><path class="cls-40" d="M86.2,58.48c-7.26,0-8.59,4.35-8.74,7.55.55.13,1.12.23,2.2.57a16.35,16.35,0,0,0,5.63,1.14c1.94,0,6.29-1,6.35-5.18C91.68,59.26,88,58.63,86.2,58.48Z" transform="translate(0 0)"/><path class="cls-41" d="M77.79,65.78a25.16,25.16,0,0,1,3.74,1.07A3.22,3.22,0,0,1,80.24,64a5.14,5.14,0,0,1,1.65-3A12.42,12.42,0,0,0,77.79,65.78Z" transform="translate(0 0)"/><path class="cls-31" d="M77.79,65.78a12.74,12.74,0,0,1,2.52-2.1,3.61,3.61,0,0,1,1.37-2.2C79.33,62.62,77.79,65.78,77.79,65.78Z" transform="translate(0 0)"/><path class="cls-42" d="M87.51,64.41a3.48,3.48,0,0,1-1.77,2.86,7.41,7.41,0,0,0,5.73-3.68c-2.62-2.17-4.79-3.09-6.58-3.25A4,4,0,0,1,87.51,64.41Z" transform="translate(0 0)"/><path class="cls-43" d="M80.3,63.59c0,.16,0,.28-.06.45a3.1,3.1,0,0,0,1.29,2.81,12.66,12.66,0,0,0,4.59.42A3.4,3.4,0,0,0,88,64.5a3.87,3.87,0,0,0-.38-1.92A8.2,8.2,0,0,0,80.3,63.59Z" transform="translate(0 0)"/><path class="cls-31" d="M86.11,61.15a3.64,3.64,0,0,1,1.71,2.05,10.68,10.68,0,0,1,2.46,1.42l.51-.92A7.83,7.83,0,0,0,86.11,61.15Z" transform="translate(0 0)"/><path class="cls-44" d="M86.11,61.15a9.37,9.37,0,0,0-3.42,0,4,4,0,0,0-1,.35,3.53,3.53,0,0,0-1.39,2.2,8.63,8.63,0,0,1,3.6-1.16,8.27,8.27,0,0,1,4,.69A3.52,3.52,0,0,0,86.11,61.15Z" transform="translate(0 0)"/><path class="cls-45" d="M84.23,61.38a2.36,2.36,0,1,0,2.26,2.53A2.4,2.4,0,0,0,84.23,61.38Z" transform="translate(0 0)"/><path class="cls-36" d="M84.65,62.77a.69.69,0,0,0-.94.26.67.67,0,0,0,.23.92.69.69,0,0,0,.93-.26A.65.65,0,0,0,84.65,62.77Z" transform="translate(0 0)"/><path class="cls-36" d="M86.84,63.74a.91.91,0,1,0-.91,1.57A.9.9,0,0,0,87.17,65,.93.93,0,0,0,86.84,63.74Z" transform="translate(0 0)"/><path class="cls-46" d="M93.11,60.62a5.07,5.07,0,0,1-4.31-.13c-6.46-2.61-9.9.94-11,5.29,0,0,2.6-4,6-4.19a9.51,9.51,0,0,1,6.77,2.22c-1.28,2-2.48,2.56-4.94,3.52a8.88,8.88,0,0,0,4.64-1.73c1.67-1.21,2.43-.79,2.44-.81a1.31,1.31,0,0,0-1.24-.61,1.22,1.22,0,0,0,.06-.27C93.41,63.27,93.09,60.71,93.11,60.62Z" transform="translate(0 0)"/><path class="cls-38" d="M82.38,58.85a7.19,7.19,0,0,0-3.47,2.52,10.47,10.47,0,0,1,3.62-2.06c2.57-1,6.39-.27,6.39-.27A10,10,0,0,0,82.38,58.85Z" transform="translate(0 0)"/><path class="cls-39" d="M83.34,61.23c-4.15.42-5.55,4.55-5.55,4.55s2.58-3.87,5.73-4.17a10.06,10.06,0,0,1,7.06,2.2S88.92,60.66,83.34,61.23Z" transform="translate(0 0)"/><path class="cls-47" d="M72.44,77.72c.83-.11,4.29-2.37,4.29-2.37H67.88S71.61,77.83,72.44,77.72Z" transform="translate(0 0)"/><path class="cls-48" d="M72.32,71.65c-2.35.06-3,.66-2.84,1.28.42,1.53,1.41,1.81,2.88,1.81s2.75-.35,3-2C75.42,72.27,74.67,71.58,72.32,71.65Z" transform="translate(0 0)"/><path class="cls-49" d="M73.89,75.74s4.32.07,2.92-1.35C76.34,73.91,73.89,75.74,73.89,75.74Z" transform="translate(0 0)"/><path class="cls-50" d="M67.9,74.58C66.46,75.8,71,75.74,71,75.74S68.41,74.14,67.9,74.58Z" transform="translate(0 0)"/><path class="cls-16" d="M72.35,75.17c-4.36-.06-4.86-2.2-5.46-.83-.24.56.23.73,1,1,0,0-.25-.63.73-.56.71,0,1.28,1.55,3.8,1.48,2.69-.08,3.06-1.43,3.75-1.47a.5.5,0,0,1,.57.56s1.27-.67.79-1.25C76.64,73,76.38,75.23,72.35,75.17Z" transform="translate(0 0)"/><path class="cls-51" d="M92.57,67c-1.34.37-2.27,1.26-2.07,2s1.45,1,2.79.66,2.26-1.26,2.06-2S93.9,66.63,92.57,67Z" transform="translate(0 0)"/><path class="cls-51" d="M52.21,68.05c-1.36-.23-2.56.18-2.68.92s.87,1.52,2.22,1.76,2.56-.19,2.68-.93S53.56,68.28,52.21,68.05Z" transform="translate(0 0)"/><path class="cls-52" d="M97,67.77l.58-4.29s-1.17-7.87-1.89-9.33C95.73,54.15,96.39,65,97,67.77Z" transform="translate(0 0)"/><path class="cls-53" d="M46.94,66.5c.84-3.33,1.69-12.92,1.69-12.92l-2.1,8.93Z" transform="translate(0 0)"/><path class="cls-54" d="M50.9,44.47c2.81-12.3,20.94-20.9,20.94-20.9S56,19.66,43.87,37.94C32.73,54.79,30.66,79.2,35,86.65c5.74,9.92,25.22,12.28,25.22,12.28C49.83,86.3,46,76.38,48.94,60,50.08,53.7,50,48.29,50.9,44.47Z" transform="translate(0 0)"/><path class="cls-55" d="M71.84,23.57a53.23,53.23,0,0,1,16.66,16c14.76,22.61,8,49.05-4.18,59.87,0,0,16.58-2.42,23.52-12.77,5.34-8,4.31-34.93-9.83-51.39C85.17,20.31,71.84,23.57,71.84,23.57Z" transform="translate(0 0)"/><path class="cls-56" d="M86.58,32.57C76.92,25.28,68,27.45,60.91,30.24,39.83,39,48.08,73,48.08,73c0,.35-.28-31.86,13.74-35.12,0,0,5.63,10.12,22.81,12.2,11.6,1.41,12,23.9,12,23.9C99.09,52.85,95.17,39.05,86.58,32.57Z" transform="translate(0 0)"/><path class="cls-57" d="M83.05,37.09s35.16,33.27,1.27,62.33C84.32,99.42,132.35,73.4,83.05,37.09Z" transform="translate(0 0)"/><path class="cls-58" d="M49.32,42.89c-30.61,41.66,10.87,56,10.87,56C32.21,77.44,49.32,42.89,49.32,42.89Z" transform="translate(0 0)"/><path class="cls-59" d="M92.11,29c-13-8.7-20.27-5.38-20.27-5.38a19.86,19.86,0,0,0-14.71,1C44,31.34,39,47,39,47c13.8-29.67,33.34-21.61,33.34-21.61,27.16-1.89,36.92,33.3,36.92,33.3S105,37.6,92.11,29Z" transform="translate(0 0)"/><path class="cls-60" d="M65.76,31.45s-.22,5.32,5.57,9.2S89.7,47.2,89.7,47.2s-12.12-5.62-15.92-8.63C72,37.17,68.91,35.61,65.76,31.45Z" transform="translate(0 0)"/><path class="cls-61" d="M86.91,100.43c13.78-1.64,18-14.79,18-14.79C99.26,94.69,86.91,100.43,86.91,100.43Z" transform="translate(0 0)"/><path class="cls-62" d="M37.18,84.94s4.1,13.12,17.88,14.76C55.06,99.7,42.87,94,37.18,84.94Z" transform="translate(0 0)"/><path class="cls-63" d="M61.29,36.23s-.51,5.19,5.23,9.83a21.19,21.19,0,0,0,13,4.3,26.31,26.31,0,0,1-10.63-5A24.69,24.69,0,0,1,61.29,36.23Z" transform="translate(0 0)"/><path class="cls-64" d="M91.09,33c-7.72-6.32-17.31-5.32-17.31-5.32C87.84,30.11,101.9,47.2,101.9,47.2A38.9,38.9,0,0,0,91.09,33Z" transform="translate(0 0)"/><path class="cls-65" d="M45.48,42.19s7.57-13.89,24.29-14.6C69.77,27.59,52.46,22.54,45.48,42.19Z" transform="translate(0 0)"/><path class="cls-66" d="M89.06,51.07c-2.92-2.43-7.07-2.31-16.46-5.9-1.21-.46-8.69-5-10.31-9.33a25.55,25.55,0,0,0-7.59,4.41c-2.78,2.47-4.58,8.15-5.13,13.28-.61,5.65-1.2,12.9-1.2,12.9S51.15,52.1,52,49.75c1-2.73,3.58-9.65,9.81-11.6a22.73,22.73,0,0,0,7.65,7.49c6.29,3.64,13.59,4.21,16.28,5.15s4.73,1.48,7.07,5.94A11.94,11.94,0,0,0,89.06,51.07Z" transform="translate(0 0)"/><path class="cls-67" d="M60.85,79.16c-.41,1.54,2.94,1.5,5.67,2.67C64.38,81,61,78.56,60.85,79.16Z" transform="translate(0 0)"/><path class="cls-68" d="M77.51,81.83c2.74-1.17,6.08-1.13,5.68-2.67C83,78.56,79.66,81,77.51,81.83Z" transform="translate(0 0)"/><path class="cls-69" d="M81.78,79.54a14.74,14.74,0,0,1-5.26,1.57c-.61,0-8.33-.13-8.82-.11a17.92,17.92,0,0,1-4.79-1.11,9.61,9.61,0,0,0-1.63-.75c-.14.08.07,1,1.12,1,2.48.33,3.16,2.08,4.61,2.23.43.06,8.93,0,9.27,0,2.06,0,2.86-2,5.36-2.31,1.18,0,1.19-.9,1.19-.9S82.38,79.24,81.78,79.54Z" transform="translate(0 0)"/><path class="cls-70" d="M74.74,80.29c-1,0-1.75.32-2.95.33-.54,0-1.79-.32-2.56-.33a28.22,28.22,0,0,1-6.66-.57c.11,0,2.54,2,9.46,2.11,5.23.09,8.13-1.41,8.91-1.93A22.5,22.5,0,0,1,74.74,80.29Z" transform="translate(0 0)"/><path class="cls-71" d="M74.23,80.45a14.62,14.62,0,0,1-2.44.38,16.9,16.9,0,0,1-2.16-.38,36.16,36.16,0,0,0-3.79.08c-.07.1,5.6,1.14,6.11,1.14.68,0,5.84-.91,6.09-1A20.78,20.78,0,0,0,74.23,80.45Z" transform="translate(0 0)"/><path class="cls-72" d="M65,81.67a8.45,8.45,0,0,0,7.22,4.2c1.67-.05,4.1-1.19,6.76-4A36.07,36.07,0,0,1,65,81.67Z" transform="translate(0 0)"/><path class="cls-70" d="M72,82.08c-6.78-.16-7.82-1.65-8.75-1.79a26.68,26.68,0,0,1,3.59,3.16,8.36,8.36,0,0,0,10.11.1c1-.65,3.27-2.91,4.41-3.45C80.27,80.08,78.33,82.23,72,82.08Z" transform="translate(0 0)"/><path class="cls-73" d="M71.51,82.14c-4-.12-6-1-5.83-.69a5.27,5.27,0,0,0,2,2.19,9.18,9.18,0,0,0,4.31.83c2.16,0,2.66-.08,3.91-.75a6.5,6.5,0,0,0,2.23-2.13C78.13,81.39,75.61,82.27,71.51,82.14Z" transform="translate(0 0)"/><path class="cls-74" d="M72.18,82.9c-.44.3,1.34.44,2.13.4s2.17-.57,2-.78S72.18,82.9,72.18,82.9Z" transform="translate(0 0)"/></svg>