<svg id="Layer_1" data-name="Layer 1" xmlns="http://www.w3.org/2000/svg" xmlns:xlink="http://www.w3.org/1999/xlink" viewBox="0 0 144 144"><defs><style>.cls-1{fill:#f6ece6;}.cls-2{fill:url(#linear-gradient);}.cls-3{fill:url(#linear-gradient-2);}.cls-4{fill:url(#linear-gradient-3);}.cls-5{fill:#f6d4ab;}.cls-6{fill:#fdb621;}.cls-7{fill:url(#linear-gradient-4);}.cls-8{fill:url(#linear-gradient-5);}.cls-9{fill:#f0c499;}.cls-10{fill:url(#linear-gradient-6);}.cls-11{fill:url(#linear-gradient-7);}.cls-12{fill:url(#linear-gradient-8);}.cls-13{fill:url(#linear-gradient-9);}.cls-14{fill:url(#radial-gradient);}.cls-15{fill:url(#linear-gradient-10);}.cls-16{fill:url(#linear-gradient-11);}.cls-17{fill:url(#radial-gradient-2);}.cls-18{fill:url(#linear-gradient-12);}.cls-19{fill:url(#linear-gradient-13);}.cls-20{fill:url(#_ÂÁ_Ï_ÌÌ_È_ËÂÌÚ_1005);}.cls-21{fill:url(#_ÂÁ_Ï_ÌÌ_È_ËÂÌÚ_359);}.cls-22{fill:url(#linear-gradient-14);}.cls-23{fill:url(#linear-gradient-15);}.cls-24{fill:#dca57c;}.cls-25{fill:url(#linear-gradient-16);}.cls-26{fill:url(#linear-gradient-17);}.cls-27{fill:url(#_ÂÁ_Ï_ÌÌ_È_ËÂÌÚ_1008);}.cls-28{fill:url(#_ÂÁ_Ï_ÌÌ_È_ËÂÌÚ_45);}.cls-29{fill:#ddd;}.cls-30{fill:url(#_ÂÁ_Ï_ÌÌ_È_ËÂÌÚ_1057);}.cls-31{fill:url(#_ÂÁ_Ï_ÌÌ_È_ËÂÌÚ_1057-2);}.cls-32{fill:url(#radial-gradient-3);}.cls-33{fill:url(#_ÂÁ_Ï_ÌÌ_È_ËÂÌÚ_1006);}.cls-34{fill:#fff;}.cls-35{fill:url(#_ÂÁ_Ï_ÌÌ_È_ËÂÌÚ_1008-2);}.cls-36{fill:url(#_ÂÁ_Ï_ÌÌ_È_ËÂÌÚ_1204);}.cls-37{fill:url(#_ÂÁ_Ï_ÌÌ_È_ËÂÌÚ_45-2);}.cls-38{fill:url(#_ÂÁ_Ï_ÌÌ_È_ËÂÌÚ_1057-3);}.cls-39{fill:url(#_ÂÁ_Ï_ÌÌ_È_ËÂÌÚ_1057-4);}.cls-40{fill:url(#radial-gradient-4);}.cls-41{fill:url(#_ÂÁ_Ï_ÌÌ_È_ËÂÌÚ_124);}.cls-42{fill:url(#_ÂÁ_Ï_ÌÌ_È_ËÂÌÚ_1204-2);}.cls-43{fill:url(#linear-gradient-18);}.cls-44{fill:url(#linear-gradient-19);}.cls-45{fill:url(#_ÂÁ_Ï_ÌÌ_È_ËÂÌÚ_1204-3);}.cls-46{fill:url(#linear-gradient-20);}.cls-47{fill:url(#linear-gradient-21);}.cls-48{fill:#e1b28d;}.cls-49{fill:url(#_ÂÁ_Ï_ÌÌ_È_ËÂÌÚ_1204-4);}.cls-50{fill:#721e23;}.cls-51{fill:#fcd8b4;}.cls-52{fill:url(#linear-gradient-22);}.cls-53{fill:url(#_ÂÁ_Ï_ÌÌ_È_ËÂÌÚ_1204-5);}.cls-54{fill:url(#linear-gradient-23);}.cls-55{fill:#f2eceb;}.cls-56{fill:url(#_ÂÁ_Ï_ÌÌ_È_ËÂÌÚ_1204-6);}.cls-57{fill:url(#_ÂÁ_Ï_ÌÌ_È_ËÂÌÚ_122);}.cls-58{fill:url(#_ÂÁ_Ï_ÌÌ_È_ËÂÌÚ_148);}.cls-59{fill:url(#_ÂÁ_Ï_ÌÌ_È_ËÂÌÚ_148-2);}.cls-60{fill:url(#_ÂÁ_Ï_ÌÌ_È_ËÂÌÚ_122-2);}.cls-61{fill:url(#_ÂÁ_Ï_ÌÌ_È_ËÂÌÚ_152);}.cls-62{fill:url(#_ÂÁ_Ï_ÌÌ_È_ËÂÌÚ_122-3);}.cls-63{fill:url(#_ÂÁ_Ï_ÌÌ_È_ËÂÌÚ_148-3);}.cls-64{fill:url(#_ÂÁ_Ï_ÌÌ_È_ËÂÌÚ_122-4);}.cls-65{fill:url(#_ÂÁ_Ï_ÌÌ_È_ËÂÌÚ_149);}.cls-66{fill:url(#_ÂÁ_Ï_ÌÌ_È_ËÂÌÚ_122-5);}.cls-67{fill:url(#_ÂÁ_Ï_ÌÌ_È_ËÂÌÚ_122-6);}.cls-68{fill:url(#linear-gradient-24);}.cls-69{fill:url(#linear-gradient-25);}.cls-70{fill:url(#linear-gradient-26);}.cls-71{fill:url(#linear-gradient-27);}.cls-72{fill:#f1f0f3;}</style><linearGradient id="linear-gradient" x1="58.14" y1="65.93" x2="50.59" y2="143.6" gradientUnits="userSpaceOnUse"><stop offset="0" stop-color="#ee9e2c"/><stop offset="0.41" stop-color="#f2a429"/><stop offset="0.96" stop-color="#fcb422"/><stop offset="1" stop-color="#fdb621"/></linearGradient><linearGradient id="linear-gradient-2" x1="88.31" y1="68.7" x2="80.86" y2="145.27" xlink:href="#linear-gradient"/><linearGradient id="linear-gradient-3" x1="59.74" y1="102.16" x2="96.31" y2="109.49" gradientUnits="userSpaceOnUse"><stop offset="0" stop-color="#f0c499"/><stop offset="1" stop-color="#f6d4ab"/></linearGradient><linearGradient id="linear-gradient-4" x1="73.41" y1="149.48" x2="70.81" y2="107.36" gradientUnits="userSpaceOnUse"><stop offset="0" stop-color="#fdb621"/><stop offset="0.6" stop-color="#fec244"/><stop offset="1" stop-color="#ffc857"/></linearGradient><linearGradient id="linear-gradient-5" x1="70.57" y1="98.56" x2="74.04" y2="128.25" xlink:href="#linear-gradient"/><linearGradient id="linear-gradient-6" x1="97.44" y1="63.11" x2="101.57" y2="73.13" gradientUnits="userSpaceOnUse"><stop offset="0" stop-color="#dca47a"/><stop offset="0.5" stop-color="#e5b287"/><stop offset="1" stop-color="#f0c499"/></linearGradient><linearGradient id="linear-gradient-7" x1="41.77" y1="61.78" x2="47.28" y2="75.14" xlink:href="#linear-gradient-6"/><linearGradient id="linear-gradient-8" x1="71.63" y1="33.99" x2="71.09" y2="62.84" gradientUnits="userSpaceOnUse"><stop offset="0" stop-color="#fed8b4"/><stop offset="0.33" stop-color="#fad6af"/><stop offset="1" stop-color="#f6d4ab"/></linearGradient><linearGradient id="linear-gradient-9" x1="85.27" y1="69.49" x2="84.44" y2="59.7" gradientUnits="userSpaceOnUse"><stop offset="0" stop-color="#f6d4ab"/><stop offset="0.52" stop-color="#f5d2a8"/><stop offset="0.85" stop-color="#f2caa0"/><stop offset="1" stop-color="#f0c499"/></linearGradient><radialGradient id="radial-gradient" cx="89.42" cy="125.71" r="20.2" gradientTransform="translate(35.83 5.47) scale(0.55 0.54)" gradientUnits="userSpaceOnUse"><stop offset="0" stop-color="#f8c49d"/><stop offset="1" stop-color="#f6d4ab"/></radialGradient><linearGradient id="linear-gradient-10" x1="58.25" y1="69.83" x2="57.43" y2="60.15" xlink:href="#linear-gradient-9"/><linearGradient id="linear-gradient-11" x1="71.79" y1="91.1" x2="72.41" y2="102.02" gradientUnits="userSpaceOnUse"><stop offset="0" stop-color="#fed8b4"/><stop offset="1" stop-color="#f6d4ab"/></linearGradient><radialGradient id="radial-gradient-2" cx="36.48" cy="125.71" r="20.23" xlink:href="#radial-gradient"/><linearGradient id="linear-gradient-12" x1="53.98" y1="23.34" x2="51.11" y2="89.1" gradientUnits="userSpaceOnUse"><stop offset="0" stop-color="#f6d4ab"/><stop offset="0.45" stop-color="#f3cba1"/><stop offset="1" stop-color="#f0c499"/></linearGradient><linearGradient id="linear-gradient-13" x1="92.75" y1="23.3" x2="89.75" y2="92.27" xlink:href="#linear-gradient-12"/><linearGradient id="_ÂÁ_Ï_ÌÌ_È_ËÂÌÚ_1005" x1="77.56" y1="54.73" x2="92.33" y2="54.73" gradientUnits="userSpaceOnUse"><stop offset="0" stop-color="#714c26"/><stop offset="0.32" stop-color="#754e28"/><stop offset="0.66" stop-color="#82562c"/><stop offset="1" stop-color="#966134"/></linearGradient><linearGradient id="_ÂÁ_Ï_ÌÌ_È_ËÂÌÚ_359" x1="50.44" y1="54.76" x2="65.75" y2="54.76" gradientUnits="userSpaceOnUse"><stop offset="0" stop-color="#966134"/><stop offset="0.34" stop-color="#82562c"/><stop offset="0.68" stop-color="#754e28"/><stop offset="1" stop-color="#714c26"/></linearGradient><linearGradient id="linear-gradient-14" x1="69.53" y1="29.52" x2="72.27" y2="62.5" xlink:href="#linear-gradient-12"/><linearGradient id="linear-gradient-15" x1="70.63" y1="54.32" x2="71.16" y2="76.4" gradientUnits="userSpaceOnUse"><stop offset="0" stop-color="#fed8b4"/><stop offset="0.25" stop-color="#fbd6b1"/><stop offset="1" stop-color="#f6d4ab"/></linearGradient><linearGradient id="linear-gradient-16" x1="70.85" y1="65.43" x2="71.11" y2="74.52" xlink:href="#linear-gradient-9"/><linearGradient id="linear-gradient-17" x1="70.64" y1="77.55" x2="71.51" y2="71.14" xlink:href="#linear-gradient-8"/><linearGradient id="_ÂÁ_Ï_ÌÌ_È_ËÂÌÚ_1008" x1="51.56" y1="61.29" x2="66.54" y2="65.51" gradientUnits="userSpaceOnUse"><stop offset="0" stop-color="#f0c499"/><stop offset="0.5" stop-color="#e5b287"/><stop offset="1" stop-color="#dca47a"/></linearGradient><linearGradient id="_ÂÁ_Ï_ÌÌ_È_ËÂÌÚ_45" x1="64.54" y1="65.47" x2="54.54" y2="63.06" gradientUnits="userSpaceOnUse"><stop offset="0" stop-color="#fff"/><stop offset="0.46" stop-color="#fdfcfc"/><stop offset="0.76" stop-color="#f6f4f4"/><stop offset="1" stop-color="#ece7e6"/></linearGradient><linearGradient id="_ÂÁ_Ï_ÌÌ_È_ËÂÌÚ_1057" x1="62.66" y1="64.27" x2="52.59" y2="64.67" gradientUnits="userSpaceOnUse"><stop offset="0" stop-color="#b89c8c"/><stop offset="1" stop-color="#725342"/></linearGradient><linearGradient id="_ÂÁ_Ï_ÌÌ_È_ËÂÌÚ_1057-2" x1="58.71" y1="76.03" x2="58.78" y2="64.27" xlink:href="#_ÂÁ_Ï_ÌÌ_È_ËÂÌÚ_1057"/><radialGradient id="radial-gradient-3" cx="45.56" cy="110.76" r="12.22" gradientTransform="translate(35.83 5.47) scale(0.55 0.54)" gradientUnits="userSpaceOnUse"><stop offset="0" stop-color="#2b3b3b"/><stop offset="1" stop-color="#1d2827"/></radialGradient><linearGradient id="_ÂÁ_Ï_ÌÌ_È_ËÂÌÚ_1006" x1="52.65" y1="62.14" x2="63.66" y2="61.62" gradientUnits="userSpaceOnUse"><stop offset="0" stop-color="#372615"/><stop offset="0.32" stop-color="#3b2916"/><stop offset="0.66" stop-color="#48301a"/><stop offset="1" stop-color="#5d3d20"/></linearGradient><linearGradient id="_ÂÁ_Ï_ÌÌ_È_ËÂÌÚ_1008-2" x1="52.03" y1="65.13" x2="62.19" y2="67.98" xlink:href="#_ÂÁ_Ï_ÌÌ_È_ËÂÌÚ_1008"/><linearGradient id="_ÂÁ_Ï_ÌÌ_È_ËÂÌÚ_1204" x1="77.55" y1="61.75" x2="92.17" y2="65.87" xlink:href="#linear-gradient-6"/><linearGradient id="_ÂÁ_Ï_ÌÌ_È_ËÂÌÚ_45-2" x1="90.25" y1="65.53" x2="80.5" y2="63.17" xlink:href="#_ÂÁ_Ï_ÌÌ_È_ËÂÌÚ_45"/><linearGradient id="_ÂÁ_Ï_ÌÌ_È_ËÂÌÚ_1057-3" x1="87.69" y1="64.25" x2="77.62" y2="64.65" xlink:href="#_ÂÁ_Ï_ÌÌ_È_ËÂÌÚ_1057"/><linearGradient id="_ÂÁ_Ï_ÌÌ_È_ËÂÌÚ_1057-4" x1="84.14" y1="75.79" x2="84.21" y2="64.22" xlink:href="#_ÂÁ_Ï_ÌÌ_È_ËÂÌÚ_1057"/><radialGradient id="radial-gradient-4" cx="91.06" cy="110.76" r="12.22" xlink:href="#radial-gradient-3"/><linearGradient id="_ÂÁ_Ï_ÌÌ_È_ËÂÌÚ_124" x1="78.71" y1="62.28" x2="89.69" y2="61.75" gradientUnits="userSpaceOnUse"><stop offset="0" stop-color="#5d3d20"/><stop offset="0.34" stop-color="#48301a"/><stop offset="0.68" stop-color="#3b2916"/><stop offset="1" stop-color="#372615"/></linearGradient><linearGradient id="_ÂÁ_Ï_ÌÌ_È_ËÂÌÚ_1204-2" x1="81.53" y1="64.48" x2="90.27" y2="66.95" xlink:href="#linear-gradient-6"/><linearGradient id="linear-gradient-18" x1="94" y1="68.05" x2="86.05" y2="70.79" gradientUnits="userSpaceOnUse"><stop offset="0" stop-color="#fad6b0"/><stop offset="1" stop-color="#f6d4ab"/></linearGradient><linearGradient id="linear-gradient-19" x1="58.12" y1="70.8" x2="46.32" y2="67.91" xlink:href="#linear-gradient-18"/><linearGradient id="_ÂÁ_Ï_ÌÌ_È_ËÂÌÚ_1204-3" x1="71.83" y1="95.58" x2="73.76" y2="109.83" xlink:href="#linear-gradient-6"/><linearGradient id="linear-gradient-20" x1="84.27" y1="100.31" x2="83.89" y2="77.22" gradientUnits="userSpaceOnUse"><stop offset="0" stop-color="#f6d4ab"/><stop offset="0.53" stop-color="#f5d2a8"/><stop offset="0.87" stop-color="#f3caa0"/><stop offset="1" stop-color="#f2c59a"/></linearGradient><linearGradient id="linear-gradient-21" x1="58.73" y1="97.35" x2="58.4" y2="77.28" xlink:href="#linear-gradient-20"/><linearGradient id="_ÂÁ_Ï_ÌÌ_È_ËÂÌÚ_1204-4" x1="72.37" y1="103.46" x2="71.87" y2="88.87" xlink:href="#linear-gradient-6"/><linearGradient id="linear-gradient-22" x1="62.66" y1="85.86" x2="81.15" y2="86.17" gradientUnits="userSpaceOnUse"><stop offset="0" stop-color="#e8d9d7"/><stop offset="0.14" stop-color="#f0e6e4"/><stop offset="0.39" stop-color="#fbf8f8"/><stop offset="0.57" stop-color="#fff"/><stop offset="1" stop-color="#e8d3d1"/></linearGradient><linearGradient id="_ÂÁ_Ï_ÌÌ_È_ËÂÌÚ_1204-5" x1="72.37" y1="103.15" x2="71.88" y2="88.99" xlink:href="#linear-gradient-6"/><linearGradient id="linear-gradient-23" x1="71.24" y1="78.94" x2="71.53" y2="85.78" gradientUnits="userSpaceOnUse"><stop offset="0" stop-color="#e8d9d7"/><stop offset="0.4" stop-color="#efe5e4"/><stop offset="1" stop-color="#fff"/></linearGradient><linearGradient id="_ÂÁ_Ï_ÌÌ_È_ËÂÌÚ_1204-6" x1="71.98" y1="105.88" x2="71.5" y2="76.53" xlink:href="#linear-gradient-6"/><linearGradient id="_ÂÁ_Ï_ÌÌ_È_ËÂÌÚ_122" x1="73.46" y1="20.19" x2="70.01" y2="73.66" gradientUnits="userSpaceOnUse"><stop offset="0" stop-color="#a3763e"/><stop offset="0.13" stop-color="#976c38"/><stop offset="0.43" stop-color="#825a2e"/><stop offset="0.72" stop-color="#755028"/><stop offset="1" stop-color="#714c26"/></linearGradient><linearGradient id="_ÂÁ_Ï_ÌÌ_È_ËÂÌÚ_148" x1="81.73" y1="39.25" x2="122.07" y2="23.29" gradientUnits="userSpaceOnUse"><stop offset="0" stop-color="#714c26"/><stop offset="0.28" stop-color="#755028"/><stop offset="0.57" stop-color="#825a2e"/><stop offset="0.87" stop-color="#976c38"/><stop offset="1" stop-color="#a3763e"/></linearGradient><linearGradient id="_ÂÁ_Ï_ÌÌ_È_ËÂÌÚ_148-2" x1="79.77" y1="35.51" x2="96.7" y2="17.59" xlink:href="#_ÂÁ_Ï_ÌÌ_È_ËÂÌÚ_148"/><linearGradient id="_ÂÁ_Ï_ÌÌ_È_ËÂÌÚ_122-2" x1="44.15" y1="32.53" x2="47.73" y2="64.8" xlink:href="#_ÂÁ_Ï_ÌÌ_È_ËÂÌÚ_122"/><linearGradient id="_ÂÁ_Ï_ÌÌ_È_ËÂÌÚ_152" x1="64.57" y1="34.2" x2="80.02" y2="12.42" gradientUnits="userSpaceOnUse"><stop offset="0" stop-color="#e0b163"/><stop offset="0.21" stop-color="#d3a45b"/><stop offset="1" stop-color="#a4753e"/></linearGradient><linearGradient id="_ÂÁ_Ï_ÌÌ_È_ËÂÌÚ_122-3" x1="99.86" y1="28.89" x2="102.87" y2="48.09" xlink:href="#_ÂÁ_Ï_ÌÌ_È_ËÂÌÚ_122"/><linearGradient id="_ÂÁ_Ï_ÌÌ_È_ËÂÌÚ_148-3" x1="71.17" y1="64.52" x2="77.35" y2="-55.75" xlink:href="#_ÂÁ_Ï_ÌÌ_È_ËÂÌÚ_148"/><linearGradient id="_ÂÁ_Ï_ÌÌ_È_ËÂÌÚ_122-4" x1="94.82" y1="20.22" x2="50.15" y2="32.43" xlink:href="#_ÂÁ_Ï_ÌÌ_È_ËÂÌÚ_122"/><linearGradient id="_ÂÁ_Ï_ÌÌ_È_ËÂÌÚ_149" x1="50.42" y1="32.23" x2="117.17" y2="31.97" gradientUnits="userSpaceOnUse"><stop offset="0" stop-color="#a4753e"/><stop offset="0.79" stop-color="#d3a45b"/><stop offset="1" stop-color="#e0b163"/></linearGradient><linearGradient id="_ÂÁ_Ï_ÌÌ_È_ËÂÌÚ_122-5" x1="103.34" y1="32.83" x2="100.96" y2="63.47" xlink:href="#_ÂÁ_Ï_ÌÌ_È_ËÂÌÚ_122"/><linearGradient id="_ÂÁ_Ï_ÌÌ_È_ËÂÌÚ_122-6" x1="98.88" y1="22.75" x2="97.04" y2="47.83" xlink:href="#_ÂÁ_Ï_ÌÌ_È_ËÂÌÚ_122"/><linearGradient id="linear-gradient-24" x1="52.09" y1="123.81" x2="46.74" y2="37.03" xlink:href="#linear-gradient-4"/><linearGradient id="linear-gradient-25" x1="94.52" y1="120.84" x2="89.54" y2="40.09" xlink:href="#linear-gradient-4"/><linearGradient id="linear-gradient-26" x1="81.17" y1="115.68" x2="81.25" y2="122" xlink:href="#linear-gradient"/><linearGradient id="linear-gradient-27" x1="62.43" y1="115.76" x2="62.52" y2="122.27" xlink:href="#linear-gradient"/></defs><circle class="cls-1" cx="72" cy="72" r="72" transform="translate(-29.82 72) rotate(-45)"/><path class="cls-2" d="M43.79,83.14c-6.62,13.76,2.85,24.66,8.23,29S67.09,119,67.09,119L71,66.09S48.38,73.59,43.79,83.14Z"/><path class="cls-3" d="M72.51,66.09,76.37,119s9.7-2.55,15.08-6.87,14.84-15.23,8.23-29C95.08,73.59,72.51,66.09,72.51,66.09Z"/><path class="cls-4" d="M88.5,102.48c-.26-1.19-1.22-13.41-1.22-13.41l-31-1.32-.06,14.59c-2.88,2-9.21,4-9.21,4-.43,4.75,10.68,16.68,24.27,16,17.56-.82,25.8-16,25.8-16S88.76,103.67,88.5,102.48Z"/><path class="cls-5" d="M55.29,105.84c9.57,9.6,15.87,13.78,17.41,13.16,5-2,15.74-14.13,15.74-14.13s-8.13,6.43-15.29,9.44C67.62,113.9,55.29,105.84,55.29,105.84Z"/><path class="cls-6" d="M72,144a71.8,71.8,0,0,0,51.14-21.32c0-3.4,0-5.66,0-5.66C115.58,111.63,96,104.3,96,104.3s-14.75,16.49-23.91,17.19c-10.72.82-24.79-17.19-24.79-17.19-18.9,6.56-27.65,12.34-27.65,12.34a25.6,25.6,0,0,1,.27,5.12A71.82,71.82,0,0,0,72,144Z"/><path class="cls-7" d="M72.58,129.62c-18.07-.5-24.77-2.59-36.36,4.14-.21.12-.4.25-.6.38a72.05,72.05,0,0,0,73.64-.52,4.78,4.78,0,0,0-.55-.63C102.23,126.59,90.64,130.13,72.58,129.62Z"/><path class="cls-6" d="M17.11,118.59a69,69,0,0,0,4.75,5.07c-1.21-4-2.17-7-2.17-7A18,18,0,0,0,17.11,118.59Z"/><path class="cls-6" d="M126.23,119.35a30.1,30.1,0,0,0-3.07-2.33s-1.15,3.65-2.52,8.07A72.11,72.11,0,0,0,126.23,119.35Z"/><path class="cls-8" d="M72.13,121.49c-4.88,0-27-16.84-27-16.84l-8.44,3.67A15.22,15.22,0,0,0,39.19,112c3.9,4.38,24.88,10.57,32.54,10.85,8,.3,29.66-8.57,32.1-10.32a7.18,7.18,0,0,0,3-3.85l-8.4-3.56C97.35,107.34,73.21,121.49,72.13,121.49Z"/><path class="cls-9" d="M100.21,60.44c-3.87.18-7.58,17.1-4,17.09,1.26,0,3.9-1.19,5.93-10.32C102.13,67.21,105.61,60.18,100.21,60.44Z"/><path class="cls-10" d="M98.66,68.56a6.67,6.67,0,0,1-1.59,5,11.76,11.76,0,0,0,3-4.17c1.26-4.05-.31-4.72.58-5.6.72-.7,1.15,1.93,1.15,1.93C103.5,60.38,98.4,60.46,98.66,68.56Z"/><path class="cls-9" d="M43.36,60.44c-5.41-.26-1.93,6.77-1.93,6.77,2,9.13,4.69,10.49,5.93,10.32C52,76.87,47.22,60.62,43.36,60.44Z"/><path class="cls-11" d="M44.9,68.56c.26-8.1-4.84-8.18-3.12-2.83,0,0,.43-2.63,1.15-1.93.89.88-.68,1.55.58,5.6a11.76,11.76,0,0,0,3,4.17A6.67,6.67,0,0,1,44.9,68.56Z"/><path class="cls-12" d="M66.85,22.72c-19.8.83-21.92,17.58-21.92,17.58s.14,21.69.42,23.93,2.32,18.16,3.37,20.54,14.46,16.86,18.13,17.92a21.57,21.57,0,0,0,11.32,0C80.9,101.79,93.56,86,94.1,84a183.88,183.88,0,0,0,3.47-19.68c.54-6-.56-26.17-1.1-27.7S94.32,21.56,66.85,22.72Z"/><path class="cls-13" d="M91.47,55.25c-5-3.77-14,1-14,1-.34,2-3.23,10.6-1.92,11.28,8.21,4.28,19.07-1.19,19.07-1.19C94.74,60.67,92.36,55.91,91.47,55.25Z"/><path class="cls-14" d="M85.88,82.92c4.6.3,9.74-.27,10.7-9.5.55-5.26,0-8-2.31-8.42-4.82-.88-11.74,1.17-14.63,2.63C73.56,70.7,77.73,82.38,85.88,82.92Z"/><path class="cls-15" d="M50.82,56.3c-.88.67-2.61,4.37-2.54,10,0,0,10.79,5.47,18.94,1.19,1.3-.68-1.31-9.67-1.65-11.65C65.57,55.83,55.82,52.53,50.82,56.3Z"/><path class="cls-16" d="M72.38,95c-1.93,0-6.77,1.27-6.63,2,.42,2.07,4.9,2.42,6.83,2.41s5.84-.49,5.92-2.26C78.54,96.39,74.31,95,72.38,95Z"/><path class="cls-17" d="M62.92,66.85c-1.31-.46-11.32-2.67-14.3-1.83-1.7.48-1,4.19-.7,7.71.13,1.69.11,4.39.5,5.45,1.93,5.21,9.27,5.44,13.51,4C69.17,79.69,69.59,69.21,62.92,66.85Z"/><path class="cls-18" d="M47.39,55.32,44.93,56l0,5.6s2.6,21.72,3.77,23.48a68.24,68.24,0,0,0,9.72,10.84s-7.62-10.54-8.1-12.24S47.39,55.32,47.39,55.32Z"/><path class="cls-19" d="M92.72,83.68c-.48,1.7-10.23,15.25-10.23,15.25,4.5-4,10.69-12.39,11.85-14.16S98,63.39,98,63.39L98.13,56l-2.46-.68S93.2,82,92.72,83.68Z"/><path class="cls-20" d="M90.1,53.56a18.67,18.67,0,0,0-9.92-.66,6.71,6.71,0,0,0-1.92,2.54c.18-.61-.2-1,.92-2.07a2.32,2.32,0,0,0-1.45,3.08A30,30,0,0,1,86,55.67a20,20,0,0,1,6.34,1.27S91.49,54.09,90.1,53.56Z"/><path class="cls-21" d="M64.08,53.37c1.16,1.11.77,1.46,1,2.07a6.78,6.78,0,0,0-2-2.54,20.21,20.21,0,0,0-10.28.7c-1.44.53-2.32,3.39-2.32,3.39A21.09,21.09,0,0,1,57,55.69a33,33,0,0,1,8.57.76A2.28,2.28,0,0,0,64.08,53.37Z"/><path class="cls-22" d="M93.53,36.67c-13.4-1-43.35-1.5-46.46-1.44s-.26,29-.26,29,1.77-10.85,2.5-14.16a64.84,64.84,0,0,1,5.07-9.44c1.07-1.22,7.69.65,17,.46C77.67,41,84.8,40,86.76,40.34c.66.13,6.22,8,6.53,9.22.92,3.57,4.45,15.35,4.45,15.35S97,36.92,93.53,36.67Z"/><path class="cls-23" d="M72.87,69c.22-4.85-1.31-5.55-2.44-5.5s-1.71,1.72-1.49,5.42-.42,5.1-.28,6.83c.07.78.4,1.3,2.19,1.31,2,0,2.66-.5,2.74-1.23C73.82,73.79,72.71,72.47,72.87,69Z"/><path class="cls-24" d="M72.7,78.41c2.66-.74,4.06-1,4.06-1C74.38,75.53,72.7,78.41,72.7,78.41Z"/><path class="cls-24" d="M65.54,77.14s2,.51,4.06,1.29C69.6,78.43,68,75.56,65.54,77.14Z"/><path class="cls-25" d="M75.36,75.56c-.74,1.54-3.79,2-4.28,2s-3.73-.36-4.68-2c-.38-.66,0-3,.24-4.22,0,0-2.87,5.64-1.1,5.75a2.5,2.5,0,0,1,1.74-.26C68.55,77,68,79,71.21,79,73.76,79,73,77.27,74.57,77s1.83.21,2.19.39c1.4-.18.14-3.64-1.76-6.29A8.6,8.6,0,0,1,75.36,75.56Z"/><path class="cls-26" d="M67.57,75.08c-.11.79,1.7,2.12,3.5,2.14,2,0,3.47-1.66,3.31-2.39C73.41,70.53,68,72.14,67.57,75.08Z"/><path class="cls-27" d="M60.51,59.34c-1.37-.08-6.24.36-7.22,1.15C51.56,61.9,51,63.18,51.1,64.8c0,.47,1.9,2.3,5.84,2.62,3,.24,7.64,0,8.78-1.29.54-.62-.16-3.1-.38-4C64.93,60.48,64.65,59.58,60.51,59.34Z"/><path class="cls-28" d="M61.29,61.06c-6.61-.79-6.21.19-8.89,3.27a2.57,2.57,0,0,0,.41,1A4.56,4.56,0,0,0,55.56,67,14.34,14.34,0,0,0,63,66.8c.77-.16,1.63-.89,1.61-1.22A5.55,5.55,0,0,0,64.16,63,3.34,3.34,0,0,0,61.29,61.06Z"/><path class="cls-29" d="M52.4,64.33a2.4,2.4,0,0,0,.38,1c4.75-2.95,9.88-2.27,11.38-2.31-2.68-1.72-6.61-1.34-8.55-1.55C53.14,61.19,52.4,64.33,52.4,64.33Z"/><path class="cls-30" d="M58.86,61.44a3.58,3.58,0,0,0-3.52,3.9,2.83,2.83,0,0,0,.6,1.62,13.13,13.13,0,0,0,3,.4A10.92,10.92,0,0,0,62.06,67a4.6,4.6,0,0,0,.58-1.85A3.37,3.37,0,0,0,58.86,61.44Z"/><path class="cls-31" d="M58.78,61.33A3.68,3.68,0,0,0,55.44,64a17.89,17.89,0,0,1,6.68-1A3.54,3.54,0,0,0,58.78,61.33Z"/><path class="cls-32" d="M58.93,62.06A2.27,2.27,0,0,0,59,66.6a2.28,2.28,0,0,0,2.19-2.32A2.23,2.23,0,0,0,58.93,62.06Z"/><path class="cls-33" d="M62.81,61.44a9.75,9.75,0,0,0-8.13-.18,4.4,4.4,0,0,0-1.88,2,28.57,28.57,0,0,1,4.7-.85,14.21,14.21,0,0,1,6.66.58A3.1,3.1,0,0,0,62.81,61.44Z"/><path class="cls-34" d="M61.37,64.4a1,1,0,0,0-1,.89,1,1,0,0,0,.84,1.14,1,1,0,0,0,1.06-.89A1,1,0,0,0,61.37,64.4Z"/><path class="cls-34" d="M59.2,63.46a.77.77,0,0,0-.84.71.79.79,0,0,0,.66.89.76.76,0,0,0,.84-.7A.8.8,0,0,0,59.2,63.46Z"/><path class="cls-35" d="M52.4,64.33c.05,3,6.56,3.61,9.66,2.7C53.67,67.8,52.4,64.33,52.4,64.33Z"/><path class="cls-36" d="M89.7,60.49c-1-.79-5.85-1.23-7.21-1.15-4.15.24-4.42,1.14-4.83,2.81-.22.88-.92,3.36-.38,4,1.13,1.3,5.82,1.53,8.78,1.29,3.94-.32,5.8-2.15,5.84-2.62C92.05,63.18,91.44,61.9,89.7,60.49Z"/><path class="cls-37" d="M81.7,61.06A3.36,3.36,0,0,0,78.83,63a5.62,5.62,0,0,0-.41,2.57c0,.33.84,1.06,1.61,1.22a14.34,14.34,0,0,0,7.41.16,4.56,4.56,0,0,0,2.75-1.6,2.57,2.57,0,0,0,.41-1C87.92,61.25,88.32,60.27,81.7,61.06Z"/><path class="cls-29" d="M87.39,61.46c-1.94.21-5.87-.17-8.56,1.55,1.51,0,6.64-.64,11.39,2.31a2.4,2.4,0,0,0,.38-1S89.86,61.19,87.39,61.46Z"/><path class="cls-38" d="M84.13,61.44a3.37,3.37,0,0,0-3.77,3.74A4.81,4.81,0,0,0,80.93,67a11,11,0,0,0,3.15.33,13,13,0,0,0,3-.4,2.78,2.78,0,0,0,.61-1.62A3.58,3.58,0,0,0,84.13,61.44Z"/><path class="cls-39" d="M84.21,61.33A3.54,3.54,0,0,0,80.87,63a17.89,17.89,0,0,1,6.68,1A3.66,3.66,0,0,0,84.21,61.33Z"/><path class="cls-40" d="M84.07,62.06a2.23,2.23,0,0,0-2.26,2.22,2.23,2.23,0,1,0,2.26-2.22Z"/><path class="cls-41" d="M88.32,61.26a9.78,9.78,0,0,0-8.14.18A3.16,3.16,0,0,0,78.83,63a14.21,14.21,0,0,1,6.66-.58,29,29,0,0,1,4.71.85A4.47,4.47,0,0,0,88.32,61.26Z"/><path class="cls-34" d="M85.89,64.4A1,1,0,0,0,85,65.54a1,1,0,0,0,1.06.89,1,1,0,0,0,.84-1.14A1,1,0,0,0,85.89,64.4Z"/><path class="cls-34" d="M83.8,63.46a.8.8,0,0,0-.66.9.76.76,0,0,0,.83.7.79.79,0,0,0,.67-.89A.78.78,0,0,0,83.8,63.46Z"/><path class="cls-42" d="M80.93,67c3.11.91,9.61.34,9.67-2.7C90.6,64.33,89.33,67.8,80.93,67Z"/><path class="cls-43" d="M93.79,67.23c-.83-.45-1.45.2-3.17.75s-6.31,1.39-4.14,2.53c2.4,1.26,5.75-.47,6.16-.79S94.81,67.79,93.79,67.23Z"/><path class="cls-44" d="M53,68.33c-1.75-.47-2.4-1.09-3.21-.6-1,.61.86,2.12,1.28,2.43s3.86,1.86,6.19.48C59.32,69.39,54.66,68.78,53,68.33Z"/><path class="cls-45" d="M76.37,103a46.49,46.49,0,0,1-8.81-.09c-1.45-.17-5.9-3.94-5.9-3.94s4.56,4.75,5.35,5.18,6.85.78,9.94.2c2-.38,5.91-5.83,5.91-5.83S78.86,102.48,76.37,103Z"/><path class="cls-46" d="M80.4,77.68c5.58,4.37,4.67,7.92,3.51,9,2.15-1.74,3.89-4.17,3.5-4.86C86.76,80.68,80.4,77.68,80.4,77.68Z"/><path class="cls-47" d="M55.47,81.76c-.16.85.75,2.06,2.38,3.7,0,0-2.49-3.65,3.58-7.75C61.43,77.71,55.68,80.6,55.47,81.76Z"/><path class="cls-48" d="M81.91,82.7a25.52,25.52,0,0,0,2.91-.81,2.43,2.43,0,0,0,.45-.86l-1.7.51Z"/><path class="cls-48" d="M57.69,81.2a2.62,2.62,0,0,0,.45.86,25.29,25.29,0,0,0,2.91.8l-1.66-1.15Z"/><path class="cls-49" d="M66.06,92.72a45.38,45.38,0,0,1,11.88.09C72.56,89.5,66.06,92.72,66.06,92.72Z"/><path class="cls-50" d="M58.33,81.53c.14.15.24.35.43.43,3.41,1.49,3.45,2.91,4.91,3.69a16.53,16.53,0,0,0,15.27-.13c2.34-1.27,2.64-2.76,5.43-3.83a.71.71,0,0,0,.45-.44A56.51,56.51,0,0,1,58.33,81.53Z"/><path class="cls-51" d="M71.71,88.55c-2,0-4-.39-4,0s1.75,1.26,3.76,1.25,4-.86,4-1.25S73.72,88.55,71.71,88.55Z"/><path class="cls-52" d="M77.52,84.6a34.24,34.24,0,0,1-6.31.78,38.62,38.62,0,0,1-6.69-.73c-.63-.11-.9,1-.9,1,1.89,1.37,4.18,1.89,7.83,1.92A12.89,12.89,0,0,0,79,85.49S78.32,84.44,77.52,84.6Z"/><path class="cls-53" d="M64.27,89.05c7.78,6.11,15.22-.41,15.22-.41A17.68,17.68,0,0,1,64.27,89.05Z"/><path class="cls-54" d="M61.7,82.23a2.2,2.2,0,0,0,1.35,1.82c.76.32,2.45,1.59,9,1.39s7.87-1.76,8.17-2A3.41,3.41,0,0,0,81.05,82,60.27,60.27,0,0,1,61.7,82.23Z"/><path class="cls-55" d="M61.68,82.11a2.55,2.55,0,0,0,.26.92c.18.28,5.43,1,9.39,1.06a36.64,36.64,0,0,0,9.32-1.21,3,3,0,0,0,.45-1S76.64,83.39,61.68,82.11Z"/><path class="cls-56" d="M57.51,81.13s1,.55.82.4a56.51,56.51,0,0,0,26.49-.28l.81-.4C77.52,82.19,57.51,81.13,57.51,81.13Z"/><path class="cls-57" d="M96.24,39.3c8.83-3.74,6.72-14.41,6.72-14.41-.61,5.61-4.83,4.37-4.83,4.37,2.73-4.82-1.48-12.71-1.48-12.71-1.4,13.31-26.49,3-40.85,5.69-5.2,1-7.87,8.1-7.8,9.31,0,0-5.7,1.92-6.57,3.68s-.9,6.32,0,10.42,1.93,14.79,1.93,14.79,1.86.39,3.13,3.69c-.24-2.77.42-12.28.66-14.6s5.64-12.63,8.3-12.15c2.12.38,13.19,1.53,33.48.09,2.55-.19,6.62,10.08,6.79,10.83.42,1.77,1.49,12.35,1.85,15.83,1.46-3.88,3.06-3.69,3.06-3.69s3.8-12.57,2.6-24.46C102.86,40.34,96.24,39.3,96.24,39.3Z"/><path class="cls-58" d="M88.51,35.32c3,4,5.94,4.58,8.56,3.79,7-2.1,7.4-9.48,5.89-14.22C104.14,32.61,96,38.33,88.51,35.32Z"/><path class="cls-59" d="M65.75,36.6c17.21,4.75,41-2.39,31.32-19.2C97.5,34.68,78.88,38.35,65.75,36.6Z"/><path class="cls-60" d="M41.43,34.78c-1.58,2.34-1.18,4.61-1.1,6.31s2.15,11.42,2.15,11.42c-.62-9.74-.62-12.72.69-15.64S49,33.59,49,33.59l-1-2A7.21,7.21,0,0,0,41.43,34.78Z"/><path class="cls-61" d="M51.13,23.17c-4.64,3.94-5.4,10.74.76,12.81C46,31.2,53.83,23.39,59.7,24c13.61-.91,34.4,10.58,37-7.41C90,33.63,65.34,11.09,51.13,23.17Z"/><path class="cls-62" d="M99,28.93,96.47,31c7.29-.36,6.49-6.13,6.49-6.13C102,28.8,99,28.93,99,28.93Z"/><path class="cls-63" d="M101.66,43.86a24.53,24.53,0,0,1-7.82-3.17c-1.06-1.68-2.18-3.36-3-4.46,4.87-2,9.87-6,8.27-13.58-.11,8-4,10.15-9.45,12.45-3.38.88-10.17,1.69-18.53,1.69-10.08,0-17.12-2-18.22-1.88-.22,0-.7.64-1.3,1.55a25.83,25.83,0,0,1-8.11,6,7.36,7.36,0,0,0,5.81-2.25c-1.88,3.24-3.84,6.89-4.27,7.51a16.94,16.94,0,0,1-2.56,2.51,7.33,7.33,0,0,0,2.46-1.1c.14,3.73,1.55,15,1.55,15s.38-13.49.66-14.6,4-8.44,7.46-11.62c0,0,4.84,1.5,15.59,1.5S87.07,38.22,87.47,38s6.94,7.37,7.78,10.58c.38,1.46,2.32,15.51,2.32,15.51s0-9.74-.21-14.55a5.88,5.88,0,0,0,3.32,1.76c-1.28-1-2.39-3.56-3.41-5,0-.07-.89-1.57-2-3.46A8.89,8.89,0,0,0,101.66,43.86Z"/><path class="cls-64" d="M57.51,23.19c-7,1.41-11,7.79-4.84,13.31-2.36-2.87-.68-7.84,3.72-9.23,8.43-2.66,26.06,1.68,30.85,2.29C73.62,25.43,66.72,21.35,57.51,23.19Z"/><path class="cls-65" d="M61.05,28.85c-7.74-2.09-10.74,2.67-9,7.23,1.86-13.14,21.62,8.15,33.39-5.45C80.64,34.57,73.27,32.15,61.05,28.85Z"/><path class="cls-66" d="M101.66,38.74c.47,3.28.76,13.75.76,13.75,2.45-10.58.81-16.51.81-16.51C103,38.63,101.66,38.74,101.66,38.74Z"/><path class="cls-67" d="M92.24,38.68c3.76,3.47,11.86,3.69,11-2.7C102.37,40.39,96.71,39.3,92.24,38.68Z"/><path class="cls-6" d="M43.79,83.14a94.2,94.2,0,0,0-5.41,10.54c-3.05,6.79-1.92,10,2.6,15.49s30.83,12.34,30.83,12.34l-13-9.3S43.68,96.73,43.79,83.14Z"/><path class="cls-6" d="M99.68,83.14c.11,13.59-15.06,29.07-15.06,29.07l-12.49,9.28S98,114.7,102.49,109.17s5.65-8.7,2.6-15.49A94.2,94.2,0,0,0,99.68,83.14Z"/><path class="cls-68" d="M46.77,79.16s-4,3.25-4.38,6.41,1,13.5,16.46,26.64C58.85,112.21,38.91,90.47,46.77,79.16Z"/><path class="cls-69" d="M96.4,78.87s1.92,2.11,2,6.72C98.49,91.09,85.76,111,85.76,111c8.49-6.2,14.34-20.8,14.72-25C100.77,82.77,96.4,78.87,96.4,78.87Z"/><path class="cls-70" d="M83.32,116c-1.81-.94-4.85,2.31-4.85,2.31C82.69,119.15,85.13,117,83.32,116Z"/><path class="cls-71" d="M60.36,115.82c-1.83.91.57,3.14,4.81,2.42C65.17,118.24,62.19,114.92,60.36,115.82Z"/><path class="cls-72" d="M80.93,117.63v25.82l1.5-.2V117.36A.87.87,0,0,0,80.93,117.63Z"/><path class="cls-72" d="M61.38,117.25v23.27l1.46.27V117.06A1,1,0,0,0,61.38,117.25Z"/></svg>