<svg id="Layer_1" data-name="Layer 1" xmlns="http://www.w3.org/2000/svg" xmlns:xlink="http://www.w3.org/1999/xlink" viewBox="0 0 144 144"><defs><style>.cls-1{fill:#f6ece6;}.cls-2{fill:url(#linear-gradient);}.cls-3{fill:url(#linear-gradient-2);}.cls-4{fill:url(#linear-gradient-3);}.cls-5{fill:url(#linear-gradient-4);}.cls-6{fill:url(#linear-gradient-5);}.cls-7{fill:url(#linear-gradient-6);}.cls-8{fill:url(#linear-gradient-7);}.cls-9{fill:url(#linear-gradient-8);}.cls-10{fill:#c32533;}.cls-11{fill:url(#linear-gradient-9);}.cls-12{fill:url(#linear-gradient-10);}.cls-13{fill:url(#linear-gradient-11);}.cls-14{fill:url(#linear-gradient-12);}.cls-15{fill:url(#linear-gradient-13);}.cls-16{fill:url(#linear-gradient-14);}.cls-17{fill:url(#linear-gradient-15);}.cls-18{fill:url(#linear-gradient-16);}.cls-19{fill:url(#linear-gradient-17);}.cls-20{fill:url(#linear-gradient-18);}.cls-21{fill:url(#linear-gradient-19);}.cls-22{fill:url(#linear-gradient-20);}.cls-23{fill:url(#linear-gradient-21);}.cls-24{fill:url(#linear-gradient-22);}.cls-25{fill:url(#linear-gradient-23);}.cls-26{fill:url(#linear-gradient-24);}.cls-27{fill:url(#linear-gradient-25);}.cls-28{fill:#f1c99a;}.cls-29{fill:#971b27;}.cls-30{fill:url(#linear-gradient-26);}.cls-31{fill:url(#linear-gradient-27);}.cls-32{fill:#f26d79;}.cls-33{fill:url(#linear-gradient-28);}.cls-34{fill:#f598a2;}.cls-35{fill:url(#linear-gradient-29);}.cls-36{fill:url(#linear-gradient-30);}.cls-37{fill:url(#linear-gradient-31);}.cls-38{fill:url(#linear-gradient-32);}.cls-39{fill:url(#linear-gradient-33);}.cls-40{fill:url(#linear-gradient-34);}.cls-41{fill:url(#linear-gradient-35);}.cls-42{fill:url(#linear-gradient-36);}.cls-43{fill:url(#linear-gradient-37);}.cls-44{fill:#dba879;}.cls-45{fill:#f7d9ab;}.cls-46{fill:url(#linear-gradient-38);}.cls-47{fill:url(#radial-gradient);}.cls-48{fill:url(#linear-gradient-39);}.cls-49{fill:url(#radial-gradient-2);}.cls-50{fill:url(#linear-gradient-40);}.cls-51{fill:url(#linear-gradient-41);}.cls-52{fill:url(#linear-gradient-42);}.cls-53{fill:url(#linear-gradient-43);}.cls-54{fill:url(#linear-gradient-44);}.cls-55{fill:url(#linear-gradient-45);}.cls-56{fill:url(#linear-gradient-46);}.cls-57{fill:url(#linear-gradient-47);}.cls-58{fill:url(#linear-gradient-48);}.cls-59{fill:url(#linear-gradient-49);}.cls-60{fill:url(#linear-gradient-50);}.cls-61{fill:url(#linear-gradient-51);}.cls-62{fill:url(#linear-gradient-52);}.cls-63{fill:url(#linear-gradient-53);}.cls-64{fill:url(#linear-gradient-54);}.cls-65{fill:url(#linear-gradient-55);}.cls-66{fill:url(#linear-gradient-56);}.cls-67{fill:url(#linear-gradient-57);}.cls-68{fill:url(#linear-gradient-58);}.cls-69{fill:url(#linear-gradient-59);}.cls-70{fill:url(#linear-gradient-60);}.cls-71{fill:url(#linear-gradient-61);}.cls-72{fill:url(#linear-gradient-62);}.cls-73{fill:url(#linear-gradient-63);}.cls-74{fill:url(#linear-gradient-64);}.cls-75{fill:url(#linear-gradient-65);}.cls-76{fill:url(#linear-gradient-66);}.cls-77{fill:url(#linear-gradient-67);}.cls-78{fill:#ddd;}.cls-79{fill:url(#linear-gradient-68);}.cls-80{fill:url(#linear-gradient-69);}.cls-81{fill:url(#linear-gradient-70);}.cls-82{fill:url(#radial-gradient-3);}.cls-83{fill:#fff;}.cls-84{fill:url(#linear-gradient-71);}.cls-85{fill:url(#linear-gradient-72);}.cls-86{fill:url(#linear-gradient-73);}.cls-87{fill:url(#linear-gradient-74);}.cls-88{fill:url(#linear-gradient-75);}.cls-89{fill:url(#linear-gradient-76);}.cls-90{fill:url(#linear-gradient-77);}.cls-91{fill:url(#radial-gradient-4);}.cls-92{fill:url(#linear-gradient-78);}.cls-93{fill:url(#linear-gradient-79);}.cls-94{fill:url(#linear-gradient-80);}.cls-95{fill:url(#linear-gradient-81);}.cls-96{fill:url(#linear-gradient-82);}.cls-97{fill:url(#linear-gradient-83);}.cls-98{fill:url(#linear-gradient-84);}</style><linearGradient id="linear-gradient" x1="71" y1="95.55" x2="72.59" y2="113.11" gradientUnits="userSpaceOnUse"><stop offset="0" stop-color="#c32533"/><stop offset="0.43" stop-color="#b6222b"/><stop offset="0.99" stop-color="#a81e22"/></linearGradient><linearGradient id="linear-gradient-2" x1="72.48" y1="123.77" x2="71.29" y2="92.66" gradientUnits="userSpaceOnUse"><stop offset="0" stop-color="#c32533"/><stop offset="0.4" stop-color="#c72a38"/><stop offset="0.89" stop-color="#d13a46"/><stop offset="1" stop-color="#d43e4a"/></linearGradient><linearGradient id="linear-gradient-3" x1="89.82" y1="73.11" x2="77.83" y2="107.45" gradientUnits="userSpaceOnUse"><stop offset="0" stop-color="#f1c99a"/><stop offset="0.53" stop-color="#f2cc9d"/><stop offset="0.87" stop-color="#f5d4a5"/><stop offset="1" stop-color="#f7d9ab"/></linearGradient><linearGradient id="linear-gradient-4" x1="90.4" y1="113.33" x2="84.16" y2="105.13" gradientUnits="userSpaceOnUse"><stop offset="0" stop-color="#ffdeb3"/><stop offset="0.68" stop-color="#fcdcb0"/><stop offset="1" stop-color="#f7d9ab"/></linearGradient><linearGradient id="linear-gradient-5" x1="49.26" y1="110.81" x2="66.69" y2="110.81" xlink:href="#linear-gradient-4"/><linearGradient id="linear-gradient-6" x1="74.33" y1="122.08" x2="72.84" y2="109.53" xlink:href="#linear-gradient-3"/><linearGradient id="linear-gradient-7" x1="80" y1="60.77" x2="67.82" y2="144.96" xlink:href="#linear-gradient-3"/><linearGradient id="linear-gradient-8" x1="89.68" y1="104.39" x2="91.17" y2="144.18" xlink:href="#linear-gradient-3"/><linearGradient id="linear-gradient-9" x1="53.38" y1="105.49" x2="54.68" y2="140.19" xlink:href="#linear-gradient-3"/><linearGradient id="linear-gradient-10" x1="74.87" y1="170.34" x2="72.41" y2="127.35" gradientUnits="userSpaceOnUse"><stop offset="0" stop-color="#fff"/><stop offset="0.36" stop-color="#f9f8fa"/><stop offset="1" stop-color="#f1f0f4"/></linearGradient><linearGradient id="linear-gradient-11" x1="98.23" y1="110.4" x2="122.46" y2="110.4" gradientUnits="userSpaceOnUse"><stop offset="0" stop-color="#d43e4a"/><stop offset="0.05" stop-color="#d33c48"/><stop offset="0.59" stop-color="#c72b39"/><stop offset="1" stop-color="#c32533"/></linearGradient><linearGradient id="linear-gradient-12" x1="41.81" y1="106.75" x2="25.81" y2="117.03" xlink:href="#linear-gradient-11"/><linearGradient id="linear-gradient-13" x1="23.94" y1="111.27" x2="25.08" y2="130.71" xlink:href="#linear-gradient-11"/><linearGradient id="linear-gradient-14" x1="36.63" y1="125.92" x2="37.13" y2="145.66" xlink:href="#linear-gradient"/><linearGradient id="linear-gradient-15" x1="54.67" y1="140.46" x2="55.83" y2="124.19" gradientUnits="userSpaceOnUse"><stop offset="0" stop-color="#e2e2e5"/><stop offset="1" stop-color="#f1f0f4"/></linearGradient><linearGradient id="linear-gradient-16" x1="89.04" y1="141.26" x2="90.15" y2="125.69" xlink:href="#linear-gradient-15"/><linearGradient id="linear-gradient-17" x1="101.25" y1="107.7" x2="101.25" y2="175.58" xlink:href="#linear-gradient"/><linearGradient id="linear-gradient-18" x1="43.46" y1="108.16" x2="43.46" y2="175.62" xlink:href="#linear-gradient"/><linearGradient id="linear-gradient-19" x1="95.2" y1="137.03" x2="98.05" y2="95.11" xlink:href="#linear-gradient-2"/><linearGradient id="linear-gradient-20" x1="47.26" y1="135.22" x2="50.12" y2="93.03" xlink:href="#linear-gradient-2"/><linearGradient id="linear-gradient-21" x1="106.68" y1="127.66" x2="107.06" y2="142.84" xlink:href="#linear-gradient"/><linearGradient id="linear-gradient-22" x1="121.58" y1="112.21" x2="122.34" y2="125.16" xlink:href="#linear-gradient-11"/><linearGradient id="linear-gradient-23" x1="85.75" y1="97.2" x2="-9.32" y2="64.21" gradientUnits="userSpaceOnUse"><stop offset="0" stop-color="#f1c99a"/><stop offset="0.51" stop-color="#e4b687"/><stop offset="1" stop-color="#dba879"/></linearGradient><linearGradient id="linear-gradient-24" x1="63.79" y1="84.71" x2="60.77" y2="82.21" gradientUnits="userSpaceOnUse"><stop offset="0" stop-color="#f7d9ab"/><stop offset="0.53" stop-color="#f6d6a8"/><stop offset="0.87" stop-color="#f3cea0"/><stop offset="1" stop-color="#f1c99a"/></linearGradient><linearGradient id="linear-gradient-25" x1="82.9" y1="82.8" x2="80.74" y2="81.71" xlink:href="#linear-gradient-24"/><linearGradient id="linear-gradient-26" x1="64.57" y1="85.07" x2="77.97" y2="85.07" gradientUnits="userSpaceOnUse"><stop offset="0" stop-color="#e8d9d7"/><stop offset="0.14" stop-color="#f0e6e4"/><stop offset="0.39" stop-color="#fbf8f8"/><stop offset="0.57" stop-color="#fff"/><stop offset="1" stop-color="#e8d3d1"/></linearGradient><linearGradient id="linear-gradient-27" x1="60.24" y1="83.53" x2="81.34" y2="83.53" gradientUnits="userSpaceOnUse"><stop offset="0" stop-color="#e8d9d7"/><stop offset="0.04" stop-color="#ebdfdd"/><stop offset="0.21" stop-color="#f6f1f0"/><stop offset="0.38" stop-color="#fdfbfb"/><stop offset="0.57" stop-color="#fff"/><stop offset="0.69" stop-color="#fbf8f8"/><stop offset="0.87" stop-color="#f1e5e3"/><stop offset="1" stop-color="#e8d3d1"/></linearGradient><linearGradient id="linear-gradient-28" x1="64.01" y1="85.9" x2="79.44" y2="85.9" gradientUnits="userSpaceOnUse"><stop offset="0" stop-color="#f26e7f"/><stop offset="0.02" stop-color="#f26f80"/><stop offset="0.24" stop-color="#f37986"/><stop offset="0.53" stop-color="#f37c88"/><stop offset="0.77" stop-color="#f37885"/><stop offset="1" stop-color="#f26d7d"/></linearGradient><linearGradient id="linear-gradient-29" x1="63.39" y1="83.16" x2="79.72" y2="83.2" gradientUnits="userSpaceOnUse"><stop offset="0" stop-color="#e8d9d7"/><stop offset="0.05" stop-color="#eadddb"/><stop offset="0.31" stop-color="#f6efef"/><stop offset="0.48" stop-color="#faf6f6"/><stop offset="1" stop-color="#e8d3d1"/></linearGradient><linearGradient id="linear-gradient-30" x1="65.68" y1="82.48" x2="77.37" y2="82.48" xlink:href="#linear-gradient-28"/><linearGradient id="linear-gradient-31" x1="95.32" y1="45.86" x2="96.33" y2="77.14" gradientUnits="userSpaceOnUse"><stop offset="0" stop-color="#6c342a"/><stop offset="0.29" stop-color="#5b2c23"/><stop offset="0.71" stop-color="#49231b"/><stop offset="1" stop-color="#422018"/></linearGradient><linearGradient id="linear-gradient-32" x1="45.61" y1="68.04" x2="47.17" y2="50.36" xlink:href="#linear-gradient-31"/><linearGradient id="linear-gradient-33" x1="70.15" y1="23.48" x2="71.04" y2="7.33" gradientUnits="userSpaceOnUse"><stop offset="0" stop-color="#a4753e"/><stop offset="1" stop-color="#e0b163"/></linearGradient><linearGradient id="linear-gradient-34" x1="72.29" y1="30.28" x2="68.84" y2="12.19" xlink:href="#linear-gradient-33"/><linearGradient id="linear-gradient-35" x1="57.57" y1="53.89" x2="72.51" y2="13.85" gradientUnits="userSpaceOnUse"><stop offset="0" stop-color="#e0b163"/><stop offset="1" stop-color="#f3c380"/></linearGradient><linearGradient id="linear-gradient-36" x1="57.92" y1="30.25" x2="76.26" y2="7.87" xlink:href="#linear-gradient-35"/><linearGradient id="linear-gradient-37" x1="59.92" y1="31.89" x2="78.27" y2="9.51" xlink:href="#linear-gradient-35"/><linearGradient id="linear-gradient-38" x1="84.28" y1="74.4" x2="81.39" y2="58.39" xlink:href="#linear-gradient-24"/><radialGradient id="radial-gradient" cx="143.09" cy="113.58" r="22.92" gradientTransform="translate(29.54 29.25) scale(0.41 0.41)" gradientUnits="userSpaceOnUse"><stop offset="0" stop-color="#f9b58e"/><stop offset="0.56" stop-color="#f8c89d"/><stop offset="1" stop-color="#f7d9ab"/></radialGradient><linearGradient id="linear-gradient-39" x1="59.53" y1="77.2" x2="56.45" y2="58.1" xlink:href="#linear-gradient-24"/><radialGradient id="radial-gradient-2" cx="60.42" cy="118.08" r="21.78" xlink:href="#radial-gradient"/><linearGradient id="linear-gradient-40" x1="88.31" y1="71.85" x2="93.05" y2="71.85" gradientUnits="userSpaceOnUse"><stop offset="0" stop-color="#ffdeb3"/><stop offset="1" stop-color="#f7d9ab"/></linearGradient><linearGradient id="linear-gradient-41" x1="48.43" y1="72.61" x2="53.18" y2="72.61" xlink:href="#linear-gradient-40"/><linearGradient id="linear-gradient-42" x1="71.13" y1="77.62" x2="70.17" y2="30.42" xlink:href="#linear-gradient-3"/><linearGradient id="linear-gradient-43" x1="65.43" y1="93.18" x2="74.87" y2="93.18" xlink:href="#linear-gradient-4"/><linearGradient id="linear-gradient-44" x1="71.15" y1="68.41" x2="72.39" y2="24.63" xlink:href="#linear-gradient-33"/><linearGradient id="linear-gradient-45" x1="71.15" y1="91.6" x2="71.15" y2="36.77" xlink:href="#linear-gradient-33"/><linearGradient id="linear-gradient-46" x1="70.87" y1="43.19" x2="67.96" y2="19.45" gradientUnits="userSpaceOnUse"><stop offset="0" stop-color="#f3c380"/><stop offset="1" stop-color="#e0b163"/></linearGradient><linearGradient id="linear-gradient-47" x1="44.53" y1="47.44" x2="45.85" y2="79.14" xlink:href="#linear-gradient-33"/><linearGradient id="linear-gradient-48" x1="80.61" y1="80.7" x2="95.26" y2="80.7" xlink:href="#linear-gradient-4"/><linearGradient id="linear-gradient-49" x1="96.59" y1="44.24" x2="97.91" y2="75.81" xlink:href="#linear-gradient-33"/><linearGradient id="linear-gradient-50" x1="70.91" y1="81.49" x2="70.88" y2="78.08" xlink:href="#linear-gradient-24"/><linearGradient id="linear-gradient-51" x1="71.9" y1="78.06" x2="68.99" y2="70.54" xlink:href="#linear-gradient-40"/><linearGradient id="linear-gradient-52" x1="75.41" y1="77.41" x2="72.52" y2="78.84" gradientUnits="userSpaceOnUse"><stop offset="0" stop-color="#dba879"/><stop offset="0.49" stop-color="#e4b687"/><stop offset="1" stop-color="#f1c99a"/></linearGradient><linearGradient id="linear-gradient-53" x1="66.47" y1="77.61" x2="69.56" y2="78.87" xlink:href="#linear-gradient-52"/><linearGradient id="linear-gradient-54" x1="76.79" y1="56.91" x2="91.46" y2="56.91" gradientUnits="userSpaceOnUse"><stop offset="0" stop-color="#966134"/><stop offset="0.34" stop-color="#82562c"/><stop offset="0.68" stop-color="#754e28"/><stop offset="1" stop-color="#714c26"/></linearGradient><linearGradient id="linear-gradient-55" x1="49.19" y1="57.05" x2="63.97" y2="57.05" gradientUnits="userSpaceOnUse"><stop offset="0" stop-color="#714c26"/><stop offset="0.32" stop-color="#754e28"/><stop offset="0.66" stop-color="#82562c"/><stop offset="1" stop-color="#966134"/></linearGradient><linearGradient id="linear-gradient-56" x1="70.9" y1="62.45" x2="71.88" y2="33.38" xlink:href="#linear-gradient-52"/><linearGradient id="linear-gradient-57" x1="76.93" y1="42.85" x2="78.67" y2="26.84" xlink:href="#linear-gradient-46"/><linearGradient id="linear-gradient-58" x1="80.11" y1="43.04" x2="81.86" y2="26.92" xlink:href="#linear-gradient-46"/><linearGradient id="linear-gradient-59" x1="83.12" y1="43.41" x2="84.93" y2="26.76" xlink:href="#linear-gradient-46"/><linearGradient id="linear-gradient-60" x1="57.1" y1="48.27" x2="51.79" y2="29.26" xlink:href="#linear-gradient-46"/><linearGradient id="linear-gradient-61" x1="54.14" y1="49.02" x2="48.98" y2="30.56" xlink:href="#linear-gradient-46"/><linearGradient id="linear-gradient-62" x1="97.91" y1="24.51" x2="97.35" y2="64.67" xlink:href="#linear-gradient-33"/><linearGradient id="linear-gradient-63" x1="98.17" y1="24.88" x2="97.6" y2="65" xlink:href="#linear-gradient-33"/><linearGradient id="linear-gradient-64" x1="97.69" y1="25.55" x2="97.13" y2="65.18" xlink:href="#linear-gradient-33"/><linearGradient id="linear-gradient-65" x1="44.96" y1="31.83" x2="44.46" y2="67.7" xlink:href="#linear-gradient-33"/><linearGradient id="linear-gradient-66" x1="63.21" y1="62.73" x2="51.32" y2="67.35" xlink:href="#linear-gradient-23"/><linearGradient id="linear-gradient-67" x1="60.28" y1="65.75" x2="64.38" y2="65.75" gradientUnits="userSpaceOnUse"><stop offset="0" stop-color="#fff"/><stop offset="0.46" stop-color="#fdfcfc"/><stop offset="0.76" stop-color="#f6f4f4"/><stop offset="1" stop-color="#ece7e6"/></linearGradient><linearGradient id="linear-gradient-68" x1="52.73" y1="65.61" x2="56.17" y2="65.61" xlink:href="#linear-gradient-67"/><linearGradient id="linear-gradient-69" x1="64.24" y1="70.96" x2="54.36" y2="63.94" gradientUnits="userSpaceOnUse"><stop offset="0" stop-color="#ddddda"/><stop offset="1" stop-color="#a4a59d"/></linearGradient><linearGradient id="linear-gradient-70" x1="71.69" y1="71.74" x2="61.41" y2="66.24" gradientUnits="userSpaceOnUse"><stop offset="0" stop-color="#c6c6c0"/><stop offset="1" stop-color="#95958d"/></linearGradient><radialGradient id="radial-gradient-3" cx="68.21" cy="90.01" r="7.26" gradientTransform="translate(29.54 29.25) scale(0.41 0.41)" gradientUnits="userSpaceOnUse"><stop offset="0" stop-color="#2b3b3b"/><stop offset="1" stop-color="#1d2827"/></radialGradient><linearGradient id="linear-gradient-71" x1="42.21" y1="61.95" x2="64.78" y2="66.94" gradientUnits="userSpaceOnUse"><stop offset="0" stop-color="#422b18"/><stop offset="0.32" stop-color="#462d19"/><stop offset="0.66" stop-color="#53351e"/><stop offset="1" stop-color="#684125"/></linearGradient><linearGradient id="linear-gradient-72" x1="51.63" y1="65.29" x2="64.47" y2="65.29" gradientUnits="userSpaceOnUse"><stop offset="0" stop-color="#684125"/><stop offset="0" stop-color="#53351e"/><stop offset="0" stop-color="#462d19"/><stop offset="0" stop-color="#422b18"/></linearGradient><linearGradient id="linear-gradient-73" x1="89.34" y1="62.52" x2="75.68" y2="67.82" xlink:href="#linear-gradient-52"/><linearGradient id="linear-gradient-74" x1="75.94" y1="65.59" x2="80.09" y2="65.59" xlink:href="#linear-gradient-67"/><linearGradient id="linear-gradient-75" x1="85.18" y1="65.49" x2="88.61" y2="65.49" xlink:href="#linear-gradient-67"/><linearGradient id="linear-gradient-76" x1="87.25" y1="69.15" x2="77.6" y2="63.12" xlink:href="#linear-gradient-69"/><linearGradient id="linear-gradient-77" x1="95.25" y1="65.7" x2="82.72" y2="64.21" xlink:href="#linear-gradient-70"/><radialGradient id="radial-gradient-4" cx="127.91" cy="89.65" r="7.26" xlink:href="#radial-gradient-3"/><linearGradient id="linear-gradient-78" x1="90.36" y1="64.09" x2="75.66" y2="66.29" xlink:href="#linear-gradient-71"/><linearGradient id="linear-gradient-79" x1="76.03" y1="65.13" x2="88.89" y2="65.13" xlink:href="#linear-gradient-72"/><linearGradient id="linear-gradient-80" x1="70.15" y1="73.43" x2="70.35" y2="60.49" gradientUnits="userSpaceOnUse"><stop offset="0" stop-color="#39383c"/><stop offset="0.1" stop-color="#38373b"/><stop offset="1" stop-color="#333336"/></linearGradient><linearGradient id="linear-gradient-81" x1="69.65" y1="86.94" x2="58.99" y2="83.77" gradientTransform="translate(0.35 -1.8) rotate(0.07)" xlink:href="#linear-gradient-24"/><linearGradient id="linear-gradient-82" x1="61.91" y1="87.69" x2="79.84" y2="87.69" gradientTransform="translate(0.35 -1.8) rotate(0.07)" xlink:href="#linear-gradient-52"/><linearGradient id="linear-gradient-83" x1="87.03" y1="86.44" x2="78.77" y2="83.98" gradientTransform="translate(0.35 -1.8) rotate(0.07)" xlink:href="#linear-gradient-24"/><linearGradient id="linear-gradient-84" x1="70.39" y1="89.95" x2="70.73" y2="86.96" gradientTransform="translate(0.35 -1.8) rotate(0.07)" xlink:href="#linear-gradient-28"/></defs><circle class="cls-1" cx="72" cy="72" r="72" transform="translate(-29.82 72) rotate(-45)"/><circle class="cls-1" cx="72" cy="72" r="72" transform="translate(-29.82 72) rotate(-45)"/><path class="cls-2" d="M57.68,98.8c-1.52.34-2.57.6-4.1,1.06-.93.28-2.53,3.7-2.42,4.24L53,112.63l40-1s-.32-9.51-2.59-11.56C88.33,98.22,73.66,95.26,57.68,98.8Z"/><path class="cls-3" d="M59.09,98.38a37.65,37.65,0,0,0-5.55,1.44c-1.16.54.28,3.13.28,3.13s.62-3.25,7.78-3.62S85,96.65,89.34,102.5l.74-2.6S87.16,98,81.15,97.68C76.91,97.45,60.94,98,59.09,98.38Z"/><path class="cls-4" d="M109.05,114.05c-2-.08-25.66-10.12-26.35-14.27a35.47,35.47,0,0,1,.17-12.86L63.49,80.4c.89,7.15-2.26,17.43-4.42,21.73-1.36,2.74-8.17,7-16.19,9.33,1.29,1.29,14.84,21.7,25.67,32.46,1.15.05,2.29.08,3.45.08,2.23,0,4.44-.11,6.62-.31C88.59,136.19,107.6,119.94,109.05,114.05Z"/><path class="cls-5" d="M96,108.9c-2.94-.48-17.68.63-17.68.63C82.43,113.87,98.93,109.39,96,108.9Z"/><path class="cls-6" d="M66.85,109.53s-13.72.7-16.65,1.28S62.88,114,66.85,109.53Z"/><path class="cls-7" d="M72.6,112.46c-.62-.28-3.37-3.78-3.27-2.95s3.15,6.9,4.36,5.56,2.67-5.44,2.67-5.44C75.44,110.1,73.22,112.75,72.6,112.46Z"/><path class="cls-8" d="M101,108.26a40.84,40.84,0,0,1-17.23-7.75c-.72-.59-1.25-3.5-1.25-6.41,0-1.26.1-3.07.21-4.72a70.77,70.77,0,0,1-10,2.83c-2,0-11.8-6.62-12.52-7.94l-.51,0s.57,13.5-2,18.71c-.29.59-7.74,5.46-13.5,7.11-2.64,1.51,9.62,21.92,11,28.48,1.84,8.54,36.88,1.15,36.88,1.15S104.86,109,101,108.26ZM72.51,129.17C52.59,128,51.76,117.64,50,111.55c.73-1.67,11.23,0,12.39-7.43a34.56,34.56,0,0,0,17.84-5.61c1.64,14.6,14.79,9,15.87,11.07C97.77,113.11,92.42,130.31,72.51,129.17Z"/><path class="cls-9" d="M88.62,103.75,89,123.61l-.41,4.51s3.31-2.14,3.81-2.48L91.12,105Z"/><path class="cls-10" d="M47.15,107.77c-19.7,4.8-22.22,5.92-22.22,5.92,2.11,1.21,8.24,14,10.65,17.3A11.66,11.66,0,0,1,37,134.93a71.8,71.8,0,0,0,14.71,6.17c-1.45-9.35-2.76-18.66-3.32-28.16C47.51,109.86,47.15,107.77,47.15,107.77Z"/><path class="cls-10" d="M108.27,109.86c-5-1.34-9.42-2.42-9.42-2.42-.48.6-1.2,5-3.22,10.21.23,6.22.83,12.66.42,18.76-.15,1.21-.28,2.41-.43,3.62a72.12,72.12,0,0,0,13.73-6.46c4.34-7.88,13.08-20.08,13.08-20.08C122.09,113,114.78,111.63,108.27,109.86Z"/><polygon class="cls-11" points="55.15 104.83 51.64 106.81 52.79 124.97 55.4 126.07 55.13 123.99 55.15 104.83"/><path class="cls-12" d="M103.21,122.09l-7.66-1.15a26.42,26.42,0,0,1-23.7,10c-15.47-1.71-20.42-8.4-20.42-8.4l-10.2,1.48a87.08,87.08,0,0,0,1.21,13.61,72.16,72.16,0,0,0,60.77-.77C103.2,132.79,102.05,129.45,103.21,122.09Z"/><path class="cls-13" d="M122.46,113.45c-9.09-3.21-24.23-6.1-24.23-6.1C104.16,110.52,122.46,113.45,122.46,113.45Z"/><path class="cls-14" d="M45.45,108.31c-15.11,2.33-20.51,5.38-20.51,5.38A167.26,167.26,0,0,0,45.45,108.31Z"/><path class="cls-10" d="M24.93,113.69c-1.78,1.57-2.8,5.2-3.37,9.68a72.19,72.19,0,0,0,16.11,11.94c-.09-1.24-.16-2.24-.19-2.88C37.26,128.11,28.89,111.49,24.93,113.69Z"/><path class="cls-15" d="M23.27,119.87a25.72,25.72,0,0,0-1,4.16c1.66,1.58,3.39,3.09,5.19,4.51C26.43,120.51,25,115.2,23.27,119.87Z"/><path class="cls-16" d="M35.93,134.32q.91.54,1.86,1.05c-.27-2.7-.52-4.81-.75-5.86C36.75,128.12,36.34,130.5,35.93,134.32Z"/><path class="cls-17" d="M52.6,123.86,55.25,142c.83.2,1.68.38,2.52.55l-2.41-16.74Z"/><path class="cls-18" d="M88.72,127.12l-1,15.16c.8-.17,1.59-.36,2.38-.56l1.45-16.5Z"/><path class="cls-19" d="M101.48,120l4.45-2.22c-1.73-7-5.35-9.55-5.35-9.55l-1.94-.64s-1.51,16-3,32.46a71.56,71.56,0,0,0,10.1-4.4c.86-7,1.22-13.55,1.22-13.55Z"/><path class="cls-20" d="M43.62,108.77s-3.2,1.45-5.5,10.2l4.56,2-5.32,2.38s.66,6,1.81,12.75a71,71,0,0,0,10.4,4.34c-2.38-16.25-4.71-32-4.71-32Z"/><path class="cls-21" d="M100.75,119.48l3.63-2.36s-1.6-7.45-4.46-9.16c-2.58-1.55-9-8.88-11-8.36-.21.06-.61.14-.42.69,0,0,.44,1.55.89,4s1,19.19,1,19.19S89.78,131.66,89,142a71.49,71.49,0,0,0,15.25-5.59c.43-4.14.86-9.12,1.29-15.18Z"/><path class="cls-22" d="M53.84,104.46c.33-2.42.65-3.82.65-3.82.09-.51-.09-.84-.31-.88-2-.41-8.14,7.29-10.64,9-2.76,1.86-4,9.39-4,9.39l3.74,2.16-4.68,2c.72,5.79,1.39,10.58,2,14.59a70.87,70.87,0,0,0,15.61,5.43c-1.35-10.33-2.41-18.59-2.41-18.59S53.52,106.89,53.84,104.46Z"/><path class="cls-10" d="M124.76,121c-1-5.86-2.29-7.54-2.29-7.54-4.88-1.13-9.1,12.93-12.56,16.17a13.59,13.59,0,0,0-2.87,5.29A72.65,72.65,0,0,0,124.76,121Z"/><path class="cls-23" d="M106.24,134.59s0,.31-.12.83l1.49-.83C107.31,130,106.87,128.41,106.24,134.59Z"/><path class="cls-24" d="M124.13,121.66c-.3-1.22-.59-2.12-.82-2.78-1.15-3.29-2.15.22-3,6.46Q122.31,123.57,124.13,121.66Z"/><path class="cls-25" d="M58.8,99.52a26.28,26.28,0,0,0,23.72-4.76L83,84.57l-23.74.7C59.93,91.06,58.8,99.52,58.8,99.52Z"/><path class="cls-26" d="M59.33,81c-.24.46.1,1,.7,1.14a11.3,11.3,0,0,1,3.08,1.63C62.12,82.36,59.55,80.58,59.33,81Z"/><path class="cls-27" d="M79.75,83.65a11.27,11.27,0,0,1,2.92-1.89c.59-.25.88-.76.59-1.2S80.61,82.16,79.75,83.65Z"/><path class="cls-28" d="M65.5,86.86c1.17,2.44,7.5,5.8,12.1-.16C77.6,86.7,71,89.71,65.5,86.86Z"/><path class="cls-29" d="M60,81.46h0l.11.15a12.41,12.41,0,0,1,2.7,1.31c.76.54,1.52,4.18,8.9,4a10.65,10.65,0,0,0,8.8-4.25,6.47,6.47,0,0,1,2-1.49,1.15,1.15,0,0,1,.06-.17,35.46,35.46,0,0,1-11.79,1.58A48,48,0,0,1,60,81.46Z"/><path class="cls-30" d="M77.44,83.22a37.68,37.68,0,0,1-11.81.55c-1.19-.52-1.06,1-1.06,1,2.62,2.64,4.69,2.12,6.78,2.15a11.14,11.14,0,0,0,6.94-2.46C78.46,84,78,83.08,77.44,83.22Z"/><path class="cls-31" d="M67.32,82.78a18,18,0,0,1-3.78-.62,4.3,4.3,0,0,1,.51.82c.26.58,1.52,2.53,7.46,2.4,4.47-.09,6.81-1.7,7.12-2.67.18-.58.6-.85.63-1a15,15,0,0,1-4.51,1A38.67,38.67,0,0,1,67.32,82.78Z"/><path class="cls-32" d="M72.08,86.69c-9.07.07-6-3.66-12-5.07a11.22,11.22,0,0,1,3,2.55c1.77,2,3.31,5.19,8.39,5.1,4.58-.08,7.08-3.45,8.53-5.29a14.57,14.57,0,0,1,2.53-2.76C77.62,82.61,79.29,86.4,72.08,86.69Z"/><path class="cls-33" d="M75.94,85.73a17.2,17.2,0,0,1-4.62.89,12.17,12.17,0,0,1-4.61-.72,14.1,14.1,0,0,1-2.93-2.4c.34.44,2.34,5.23,7.45,5.07,5.91-.18,6.94-4.15,8-5.34A9,9,0,0,1,75.94,85.73Z"/><path class="cls-34" d="M73.8,86.83c-.6.21-2.65.37-2.57.58a3.4,3.4,0,0,0,2.86.16c1.2-.35,1.76-1,1.68-1.25S74.39,86.61,73.8,86.83Z"/><path class="cls-29" d="M60.19,82a9.16,9.16,0,0,1,2.06.39,20.93,20.93,0,0,0-2.6-1.17C59.54,81.24,59.66,81.73,60.19,82Z"/><path class="cls-29" d="M80.56,82.06a6.71,6.71,0,0,1,2-.48c.52-.26.6-.73.5-.8A12.65,12.65,0,0,0,80.56,82.06Z"/><path class="cls-35" d="M64.06,83s2.58,1.36,7.86,1.29a16.58,16.58,0,0,0,6.68-1.52l.3-.71-15.23.23Z"/><path class="cls-32" d="M74.76,81.69a20.26,20.26,0,0,0-3.22.19,32.79,32.79,0,0,0-3.76-.18,24.17,24.17,0,0,1-7.31-.2s1.08.65,6.41,1.62a20.47,20.47,0,0,0,4.62.54,27.45,27.45,0,0,0,5.06-.7,26,26,0,0,0,5.57-1.81A31.85,31.85,0,0,1,74.76,81.69Z"/><path class="cls-36" d="M73.75,81.86a22.63,22.63,0,0,1-2.55.22c-.52,0-2-.24-2.4-.24a14.2,14.2,0,0,0-3.12.45c-.14.55,5.91.88,6.46.83s5.2-.66,5.23-.88S74.18,81.76,73.75,81.86Z"/><path class="cls-37" d="M96.32,69.53l.51-4.35s-1.33-7.91-2.08-9.37C94.75,55.81,95.61,66.71,96.32,69.53Z"/><path class="cls-38" d="M45.76,69.18c.78-3.38,1.46-13.06,1.46-13.06l-1.95,9Z"/><path class="cls-39" d="M69.48,8.9C43.17,10.9,51,27,57.71,27.4c6.52.44,15.81,1.72,26.55.74S88.35,7.46,69.48,8.9Z"/><path class="cls-40" d="M70.06,9C56,7.4,51.16,15.36,51.18,19.81c0,3,4.23,3.31,7.61,4.21S76.36,15.69,77.27,16s-5.46,6.51-5.46,6.51,11.45-4.82,14-2.74,2.69,6.06,2.69,6.06c1.82-2.09,1.58-7.35-1.78-12.17C81.43,5.93,71.88,9.16,70.06,9Z"/><path class="cls-41" d="M84.3,9.84c-7.16-4.56-12.37-1.3-14.19-1.17s-6-1.57-10.15,0c-9.82,3.74-8.78,11.14-8.78,11.14s1.16-6.07,5.79-8.67c6.51-3.64,10.8-1.43,13.14-1.56S75.69,8,80.65,10.1a14.83,14.83,0,0,1,9,11.3C89.66,16.07,88,12.22,84.3,9.84Z"/><path class="cls-42" d="M64.52,18.3c5.46-12.37,16.39-9,16.39-9C66.21,4,64.52,18.3,64.52,18.3Z"/><path class="cls-43" d="M70.76,11.79c-3.38,2.21-6.11,8.33-6.11,8.33s4.32-5.56,7.68-7.68a14,14,0,0,1,11.32-2C78.18,8,74.15,9.58,70.76,11.79Z"/><path class="cls-28" d="M45,65.48C40.72,65.35,43.7,77.6,47.9,79c0,0-.34-5-1.33-11.59C46.57,67.43,45.76,65.5,45,65.48Z"/><path class="cls-44" d="M45.73,71.93c.79-6.11-3.34-6.45-2.33-2.31,0,0,.54-2,1.07-1.39s-.67,1.13.07,4.26a8.66,8.66,0,0,0,2.12,3.32A4.75,4.75,0,0,1,45.73,71.93Z"/><path class="cls-45" d="M74.36,33.24c-14.61-2.21-25,13-27.51,28.53C45.45,70.5,46,77.61,50.8,83.94A32.12,32.12,0,0,0,58,90.4c1.74,1.27,4.49,4,6.36,5.34A10.27,10.27,0,0,0,70.13,98c6.87.15,11.3-5,13.24-6.9C90.21,84.5,96.76,81.91,94.87,64,93.38,49.9,83.93,33.41,74.36,33.24Z"/><path class="cls-46" d="M91.57,57.82A10.23,10.23,0,0,0,84,55.71c-10.76,1.09-10.6,11.82-11.6,17.93,13.2,5.23,20.88-4.3,20.88-4.3S95.56,61,91.57,57.82Z"/><path class="cls-47" d="M85.63,66.83c-3.67,1.32-8,5-7.09,9.12s2.46,9.3,6.11,10.68c4.77,1.8,9.76-6,10.47-13.51C95.51,69,91.45,64.76,85.63,66.83Z"/><path class="cls-48" d="M56.75,56.17a9.82,9.82,0,0,0-7.29,2c-4,3.24-1.06,12.36-1.06,12.36s7.75,9.21,20.91,3.55C68.26,68.07,67.51,56.89,56.75,56.17Z"/><path class="cls-49" d="M56,68.61c-3.51-.83-9.54,1.69-9.42,5.31.3,8.54,5.89,13.28,10.51,13.9,3.57.48,4.49-7.92,5.32-11.44S59.55,69.44,56,68.61Z"/><path class="cls-50" d="M90.17,70.57c-1.3.35-2.19,1.2-2,1.9s1.39,1,2.69.66,2.19-1.2,2-1.91S91.46,70.22,90.17,70.57Z"/><path class="cls-51" d="M51.22,71.32c-1.31-.23-2.47.16-2.59.87s.83,1.47,2.13,1.71,2.47-.16,2.6-.87S52.53,71.55,51.22,71.32Z"/><path class="cls-52" d="M77.73,31c-10.51-.9-24.46,5.21-28.49,17.56S45.31,70.75,47,75.21c0,0-2-7.26,6.2-9.09,0,0-1.93-10.74,3.65-19.06,3.4-5.07,10-6.56,13.74-6.81,4-.26,7.78.46,11.11,3.7,4.72,4.59,7,12.75,6.28,22.1,6.06,0,7.14,5.55,7,9.23A50.25,50.25,0,0,0,93.8,51.65C91.28,43.67,88.24,31.93,77.73,31Z"/><path class="cls-53" d="M71.27,91.75c-2,.1-3.59.81-3.58,1.6s1.63,1.36,3.61,1.26,3.58-.8,3.57-1.59S73.24,91.66,71.27,91.75Z"/><path class="cls-28" d="M54.3,86.18c-5.78-3.8-8.06-15.49-8.06-15.49a18.78,18.78,0,0,0,7.45,16.63,108,108,0,0,1,9.38,7.44C61.47,93.26,59.55,89.63,54.3,86.18Z"/><path class="cls-28" d="M96.84,64.53c-.75,0-1.58,1.94-1.58,1.94a36.47,36.47,0,0,1-1.19,11.38C98.28,76.46,101.13,64.44,96.84,64.53Z"/><path class="cls-44" d="M96.31,70.9a4.92,4.92,0,0,1-.53,3.85,9.2,9.2,0,0,0,1.68-3.5c.41-3.1-.84-3.31-.3-4.09.45-.63,1.11,1.18,1.11,1.18C98.86,64.22,95.07,65.16,96.31,70.9Z"/><path class="cls-54" d="M68.31,26.82c-23.12,2.3-24.62,32.23-23.6,37.07.29,1.37,2.35,1.82,2.35,1.82s.63-5.3,1.31-6.62c1.25-2.4,4.09-11.46,6.22-15a15.09,15.09,0,0,1,7.63-5.81,24.91,24.91,0,0,1,16.37.32c1.45.51,5,1.29,8.64,6.89,1.19,1.82,7.37,13,7.32,20.85,1.34-2.23,3.22-2.3,3.61-4.21S100.13,23.66,68.31,26.82Z"/><path class="cls-55" d="M87.33,27.82c-.9-.57-2.81-3.77-17.56-2.87-16.37,1-20.52,6.43-22.39,8.4S41,41.67,41.12,49.55c.07,4.61.38,13.09,3.3,16,0,0,.65-5.49.65-9.7s2.6-8.35,4.52-13C52,37.07,60.19,33,70,33c2.13,0,10.85-1.26,13.11-1,10,1.11,11.26,10.72,12,13.12,1.46,4.58,2.77,19.72,2.77,19.72s2.64-5.85,2.73-7.44c.45-8.49,1.68-10.5-2.43-18.94C95.79,33.41,92.92,31.37,87.33,27.82Z"/><path class="cls-56" d="M84.93,25.1c-7.61-3.62-23.36-2.12-29.66,1-1.71.86-8,7.06-9.11,8.55a23.28,23.28,0,0,0-4.73,10.94c6.3-14.45,13.79-16.17,17.3-17.73,5.6-2.5,17.32-2.4,21.94-1.51,3.29.63,8.12,4.34,11.82,7.15,4.32,3.29,8.56,13.24,8.56,13.24a28,28,0,0,0-3-9.09C94.82,31.09,92.68,28.78,84.93,25.1Z"/><path class="cls-57" d="M41.14,48.32c0,.79-1.36,4.61,2.11,18.4a1.59,1.59,0,0,1,2.12-1c.67.39,1.07,3.32.9,6.53,0,0,2.21-14.29,2.49-15.93C48.76,56.32,41.85,53.81,41.14,48.32Z"/><path class="cls-58" d="M92.62,67.69c2.46,4.73,2.21,12.36-4.26,18a54.89,54.89,0,0,0-7.75,8.07c2.28-2,6.35-5.66,8.32-7.25,3.36-2.71,7.22-7.42,6.15-14A8.81,8.81,0,0,0,92.62,67.69Z"/><path class="cls-59" d="M92.53,56.08a95.61,95.61,0,0,1,2.55,16.34s-.14-6.33,1.22-7.61c.54-.51,2.17-.31,2.55,1.77,0,0,3.7-9.78,2.25-19.4C101.1,47.18,97.22,54.74,92.53,56.08Z"/><path class="cls-44" d="M64,95.5s7.2,7.34,15-.49C79,95,71.58,100.39,64,95.5Z"/><path class="cls-60" d="M71,80.48c.81-.12,4.19-2.36,4.19-2.36l-8.68.06S70.21,80.59,71,80.48Z"/><path class="cls-61" d="M70.87,74.52c-2.3.08-3,.67-2.78,1.28.42,1.49,1.4,1.77,2.84,1.76s2.69-.36,2.91-2C73.91,75.11,73.17,74.45,70.87,74.52Z"/><path class="cls-62" d="M72.44,78.53s4.23,0,2.85-1.35C74.83,76.72,72.44,78.53,72.44,78.53Z"/><path class="cls-63" d="M66.55,77.42c-1.4,1.22,3,1.12,3,1.12S67.05,77,66.55,77.42Z"/><path class="cls-28" d="M70.92,78c-4.28,0-4.78-2.13-5.35-.78-.24.55.22.72,1,1,0,0-.25-.62.71-.56.7,0,1.26,1.51,3.74,1.43,2.64-.1,3-1.43,3.67-1.47a.48.48,0,0,1,.56.54s1.24-.65.77-1.23C75.12,75.84,74.87,78,70.92,78Z"/><path class="cls-45" d="M91.22,57.52c-4.42-2.79-8-1.81-8-1.81,10.21.82,8.19,10.43,8.19,10.43S93.79,59.15,91.22,57.52Z"/><path class="cls-64" d="M79,56.3c-1.77.83-3,3.17-1.5,2.66s7.22-2.65,8.46-2.68a13.8,13.8,0,0,1,5.52,1.43S88,55,85.89,54.82,79.93,55.86,79,56.3Z"/><path class="cls-65" d="M61.9,56.51c-1-.4-5.18-1.68-7.28-1.36s-5.43,3.19-5.43,3.19a13.1,13.1,0,0,1,5.46-1.73c1.24,0,7,1.9,8.57,2.34S63.7,57.26,61.9,56.51Z"/><path class="cls-66" d="M80.3,38.58c-11-4.19-20.51-.37-22.86,1.83-5.82,5.45-8,10.75-9.53,21.19,0,0,4.6-11.88,6-14s3.62-5.64,7.76-7.37c3.76-1.57,10.27-2.58,18.52.35,9,3.18,13.78,22,13.78,22S91.48,42.84,80.3,38.58Z"/><path class="cls-67" d="M76.79,25.13c3.61,5.31.26,10.8.26,10.8C84.74,28.19,76.79,25.13,76.79,25.13Z"/><path class="cls-68" d="M80.05,25.42c4.4,3.84-.58,11.08-.58,11.08C88,30,80.05,25.42,80.05,25.42Z"/><path class="cls-69" d="M81.17,37.21C90.55,36.09,85.74,27,85.74,27,87.57,34,81.17,37.21,81.17,37.21Z"/><path class="cls-70" d="M53.62,29.35s-5.49,7.31,2.25,11.09C55.87,40.44,51.76,35.46,53.62,29.35Z"/><path class="cls-71" d="M49.23,33s-3.78,8,5.31,8.82C54.54,41.82,48.22,38.89,49.23,33Z"/><path class="cls-72" d="M94.85,64.21c5,.69,5.08-5.07,5.08-5.07C99.43,63,94.85,64.21,94.85,64.21Z"/><path class="cls-73" d="M94.17,61.66s7,0,7.09-8.84C101.26,52.82,99.46,59.91,94.17,61.66Z"/><path class="cls-74" d="M93.49,58.92s7.81-.81,7.61-11.74C101.1,47.18,98.78,56.38,93.49,58.92Z"/><path class="cls-75" d="M41.36,50.42c-1.62,11.32,6.72,9.22,6.72,9.22C42.7,57.87,41.36,50.42,41.36,50.42Z"/><path class="cls-76" d="M56.06,60.25c-1.77.14-5.52.76-5.49,4.08,0,4.19,4.4,5.21,6.35,5.24a16.81,16.81,0,0,0,5.66-1.13,22.75,22.75,0,0,1,2.22-.55C64.67,64.67,63.35,60.29,56.06,60.25Z"/><path class="cls-77" d="M60.37,62.81A5.13,5.13,0,0,1,62,65.87a3.23,3.23,0,0,1-1.31,2.82,24.57,24.57,0,0,1,3.77-1.06A12.56,12.56,0,0,0,60.37,62.81Z"/><path class="cls-78" d="M60.58,63.29A3.63,3.63,0,0,1,62,65.51a12.66,12.66,0,0,1,2.52,2.12S62.94,64.45,60.58,63.29Z"/><path class="cls-79" d="M57.36,62.13c-1.8.15-4,1.06-6.63,3.23a7.46,7.46,0,0,0,5.75,3.73,3.48,3.48,0,0,1-1.77-2.88A4.06,4.06,0,0,1,57.36,62.13Z"/><path class="cls-80" d="M62,65.42a8.19,8.19,0,0,0-7.34-1,3.88,3.88,0,0,0-.39,1.92,3.39,3.39,0,0,0,1.86,2.79,12.94,12.94,0,0,0,4.61-.39A3.08,3.08,0,0,0,62,65.87,3.26,3.26,0,0,0,62,65.42Z"/><path class="cls-78" d="M51.42,65.47l.5.93A10.62,10.62,0,0,1,54.4,65a3.66,3.66,0,0,1,1.73-2.06A7.87,7.87,0,0,0,51.42,65.47Z"/><path class="cls-81" d="M60.58,63.29a4.06,4.06,0,0,0-1-.36,9.7,9.7,0,0,0-3.44,0A3.56,3.56,0,0,0,54.38,65a8.5,8.5,0,0,1,4-.67A8.68,8.68,0,0,1,62,65.51,3.5,3.5,0,0,0,60.58,63.29Z"/><path class="cls-82" d="M57.91,63.19a2.49,2.49,0,1,0,2.74,2.3A2.52,2.52,0,0,0,57.91,63.19Z"/><path class="cls-83" d="M58.7,64.63a.67.67,0,0,0-.9.31.69.69,0,0,0,.28.93.66.66,0,0,0,.9-.31A.7.7,0,0,0,58.7,64.63Z"/><path class="cls-83" d="M60.93,65.57a.93.93,0,0,0-1.24.4.91.91,0,0,0,.41,1.22.92.92,0,0,0,1.24-.4A.9.9,0,0,0,60.93,65.57Z"/><path class="cls-84" d="M53.43,62.26a5.12,5.12,0,0,1-4.33.11c0,.09-.31,2.66,1.56,3.32a1.35,1.35,0,0,0,.06.27,1.29,1.29,0,0,0-1.24.6s.77-.4,2.45.83a8.86,8.86,0,0,0,4.64,1.75c-2.46-1-3.66-1.55-4.94-3.56a9.51,9.51,0,0,1,6.81-2.19c3.44.2,6,4.24,6,4.24C63.38,63.25,59.93,59.67,53.43,62.26Z"/><path class="cls-44" d="M59.89,60.65a10,10,0,0,0-6.57.16s3.84-.71,6.42.29a10.56,10.56,0,0,1,3.62,2.09A7.09,7.09,0,0,0,59.89,60.65Z"/><path class="cls-85" d="M58.91,63c-5.6-.6-7.28,2.55-7.28,2.55a10.12,10.12,0,0,1,7.1-2.17c3.17.32,5.74,4.22,5.74,4.22S63.08,63.47,58.91,63Z"/><path class="cls-86" d="M84.52,60.14c-7.3,0-8.66,4.33-8.82,7.55a20.79,20.79,0,0,1,2.21.57,16.62,16.62,0,0,0,5.65,1.18c2,0,6.32-1,6.4-5.17C90,61,86.28,60.29,84.52,60.14Z"/><path class="cls-87" d="M76,67.44a24.14,24.14,0,0,1,3.76,1.09,3.24,3.24,0,0,1-1.28-2.83,5.11,5.11,0,0,1,1.67-3.05A12.56,12.56,0,0,0,76,67.44Z"/><path class="cls-78" d="M76,67.44a12.18,12.18,0,0,1,2.55-2.1A3.58,3.58,0,0,1,80,63.13C77.6,64.27,76,67.44,76,67.44Z"/><path class="cls-88" d="M85.81,66.11A3.51,3.51,0,0,1,84,69a7.44,7.44,0,0,0,5.78-3.67c-2.62-2.2-4.8-3.13-6.6-3.3A4.06,4.06,0,0,1,85.81,66.11Z"/><path class="cls-89" d="M78.57,65.25a3.25,3.25,0,0,0-.06.45,3.09,3.09,0,0,0,1.28,2.83,12.84,12.84,0,0,0,4.6.44,3.4,3.4,0,0,0,1.89-2.78,3.78,3.78,0,0,0-.37-1.92A8.15,8.15,0,0,0,78.57,65.25Z"/><path class="cls-78" d="M84.41,62.82a3.66,3.66,0,0,1,1.72,2.07,10.71,10.71,0,0,1,2.46,1.44l.51-.93A7.8,7.8,0,0,0,84.41,62.82Z"/><path class="cls-90" d="M84.41,62.82a9.21,9.21,0,0,0-3.43,0,3.83,3.83,0,0,0-1,.34,3.55,3.55,0,0,0-1.41,2.21,8.63,8.63,0,0,1,3.63-1.15,8.35,8.35,0,0,1,4,.71A3.58,3.58,0,0,0,84.41,62.82Z"/><path class="cls-91" d="M82.63,63A2.49,2.49,0,1,0,85,65.73,2.53,2.53,0,0,0,82.63,63Z"/><path class="cls-83" d="M82.94,64.44a.7.7,0,0,0-.94.25.66.66,0,0,0,.22.93.7.7,0,0,0,.94-.25A.66.66,0,0,0,82.94,64.44Z"/><path class="cls-83" d="M85.14,65.43a.92.92,0,0,0-1.26.31A.94.94,0,0,0,84.21,67a.92.92,0,0,0,1.26-.31A.94.94,0,0,0,85.14,65.43Z"/><path class="cls-92" d="M91.45,62.32a5.12,5.12,0,0,1-4.33-.15c-6.47-2.65-10,.9-11.09,5.27,0,0,2.63-4,6.07-4.19a9.54,9.54,0,0,1,6.79,2.26c-1.29,2-2.5,2.57-5,3.52a9.06,9.06,0,0,0,4.66-1.71c1.69-1.22,2.45-.79,2.46-.81a1.29,1.29,0,0,0-1.24-.61,1.39,1.39,0,0,0,.06-.28C91.74,65,91.43,62.42,91.45,62.32Z"/><path class="cls-44" d="M80.68,60.5A7.12,7.12,0,0,0,77.18,63,10.6,10.6,0,0,1,80.82,61c2.59-1,6.43-.23,6.43-.23A10,10,0,0,0,80.68,60.5Z"/><path class="cls-93" d="M81.64,62.89c-4.18.4-5.61,4.55-5.61,4.55s2.61-3.88,5.78-4.17a10.11,10.11,0,0,1,7.08,2.24S87.24,62.35,81.64,62.89Z"/><path class="cls-94" d="M95.4,60.28c-.82,0-14,.79-16.08,1a16,16,0,0,0-6.72,2.6c-.41.07-1.48,0-2.3.07s-1.89,0-2.31-.07a16.56,16.56,0,0,0-6.8-2.58c-2-.19-15.26-.95-16.08-.95s-.7,3-.78,3.26,1.07.6,1.48,1.12S47.55,70.09,49.2,71s12,2.58,15.13.49,2.59-4.69,3.91-5.36a4.47,4.47,0,0,1,4.12,0c1.32.67.7,3.26,3.84,5.34s13.57.38,15.21-.52,3-5.74,3.38-6.27,1.56-.9,1.48-1.12S96.23,60.28,95.4,60.28ZM63.34,71C60.05,72.37,50,71.21,49,69.94s-1.91-5.67-.18-6.79,9.49-.91,11.46-.76,4.82,1.19,5.37,2C66.43,65.52,66.64,69.67,63.34,71Zm28.23-1.13c-1,1.27-11.08,2.45-14.38,1.11s-3-5.49-2.28-6.61c.54-.82,3.38-1.87,5.36-2S90,62,91.73,63.1,92.56,68.62,91.57,69.89Z"/><path class="cls-95" d="M58.2,81.26C57.73,83,61.59,83,64.74,84.34,62.27,83.36,58.38,80.57,58.2,81.26Z"/><path class="cls-96" d="M62.16,83.52a11.27,11.27,0,0,0,9.43,5,12.32,12.32,0,0,0,8.5-5S70,85.44,62.16,83.52Z"/><path class="cls-97" d="M77.41,84.34c3.15-1.34,7-1.29,6.54-3.07C83.77,80.58,79.88,83.37,77.41,84.34Z"/><path class="cls-29" d="M82.33,81.71a17.15,17.15,0,0,1-6.07,1.81c-.7,0-9.59-.16-10.16-.14a21,21,0,0,1-5.53-1.28,11.2,11.2,0,0,0-1.87-.87c-.17.1.08,1.21,1.29,1.14,2.85.37,3.63,2.4,5.32,2.57C65.8,85,75.6,85,76,85c2.38,0,3.3-2.26,6.18-2.66,1.37,0,1.37-1,1.37-1S83,81.36,82.33,81.71Z"/><path class="cls-32" d="M70.82,82.34c-3.73,0-7.16,1-10.64-.43.13,0,2.93,2.3,10.91,2.43,6,.1,9.38-1.63,10.27-2.22C78.48,83.48,75,82.37,70.82,82.34Z"/><path class="cls-32" d="M70.94,84.78c-7.82-.19-9-2.06-10-2.22,1.39,1.28,2.42,2.14,3.18,2.8a11.63,11.63,0,0,0,7.25,2.47,11.82,11.82,0,0,0,6.07-2,47.6,47.6,0,0,0,4.38-3.47C80.6,82.32,78.29,85,70.94,84.78Z"/><path class="cls-98" d="M70.6,85.35c-4.57-.14-6.86-1.11-6.73-.8.26.59,1.1,1,2.32,1.72a10.38,10.38,0,0,0,5,1.17,8,8,0,0,0,4.71-1,7.06,7.06,0,0,0,2.36-1.73C78.24,84.49,75.33,85.51,70.6,85.35Z"/><path class="cls-34" d="M70.17,86.77c-.51.34,1.55.51,2.46.46s2.5-.65,2.33-.9S70.17,86.77,70.17,86.77Z"/></svg>