<svg id="Layer_1" data-name="Layer 1" xmlns="http://www.w3.org/2000/svg" xmlns:xlink="http://www.w3.org/1999/xlink" viewBox="0 0 144 144"><defs><style>.cls-1{fill:#f6ece6;}.cls-2{fill:#3e2446;}.cls-3{fill:#53335b;}.cls-4{fill:#f7d9ab;}.cls-5{fill:url(#linear-gradient);}.cls-6{fill:url(#linear-gradient-2);}.cls-7{fill:url(#linear-gradient-3);}.cls-8{fill:url(#linear-gradient-4);}.cls-9{fill:url(#linear-gradient-5);}.cls-10{fill:url(#linear-gradient-6);}.cls-11{fill:#fff;}.cls-12{fill:url(#linear-gradient-7);}.cls-13{fill:url(#linear-gradient-8);}.cls-14{fill:url(#linear-gradient-9);}.cls-15{fill:url(#linear-gradient-10);}.cls-16{fill:url(#linear-gradient-11);}.cls-17{fill:url(#linear-gradient-12);}.cls-18{fill:url(#linear-gradient-13);}.cls-19{fill:url(#linear-gradient-14);}.cls-20{fill:#f1f0f3;}.cls-21{fill:#f1c99a;}.cls-22{fill:url(#linear-gradient-15);}.cls-23{fill:url(#linear-gradient-16);}.cls-24{fill:url(#radial-gradient);}.cls-25{fill:url(#linear-gradient-17);}.cls-26{fill:url(#radial-gradient-2);}.cls-27{fill:url(#linear-gradient-18);}.cls-28{fill:url(#linear-gradient-19);}.cls-29{fill:url(#linear-gradient-20);}.cls-30{fill:url(#linear-gradient-21);}.cls-31{fill:url(#linear-gradient-22);}.cls-32{fill:url(#linear-gradient-23);}.cls-33{fill:url(#linear-gradient-24);}.cls-34{fill:url(#linear-gradient-25);}.cls-35{fill:url(#linear-gradient-26);}.cls-36{fill:url(#linear-gradient-27);}.cls-37{fill:#ddd;}.cls-38{fill:url(#linear-gradient-28);}.cls-39{fill:url(#linear-gradient-29);}.cls-40{fill:url(#radial-gradient-3);}.cls-41{fill:url(#linear-gradient-30);}.cls-42{fill:url(#linear-gradient-31);}.cls-43{fill:url(#linear-gradient-32);}.cls-44{fill:url(#linear-gradient-33);}.cls-45{fill:url(#linear-gradient-34);}.cls-46{fill:url(#radial-gradient-4);}.cls-47{fill:url(#linear-gradient-35);}.cls-48{fill:url(#linear-gradient-36);}.cls-49{fill:url(#linear-gradient-37);}.cls-50{fill:url(#linear-gradient-38);}.cls-51{fill:#3e1c16;}.cls-52{fill:url(#linear-gradient-39);}.cls-53{fill:url(#linear-gradient-40);}.cls-54{fill:url(#linear-gradient-41);}.cls-55{fill:#e1b58c;}.cls-56{fill:url(#linear-gradient-42);}.cls-57{fill:url(#linear-gradient-43);}.cls-58{fill:#972a2e;}.cls-59{fill:#fcddb3;}.cls-60{fill:url(#linear-gradient-44);}.cls-61{fill:url(#linear-gradient-45);}.cls-62{fill:url(#linear-gradient-46);}.cls-63{fill:#f2eceb;}.cls-64{fill:url(#linear-gradient-47);}.cls-65{fill:url(#linear-gradient-48);}.cls-66{fill:url(#linear-gradient-49);}.cls-67{fill:url(#linear-gradient-50);}.cls-68{fill:url(#linear-gradient-51);}.cls-69{fill:#dadde4;}.cls-70{fill:url(#linear-gradient-52);}.cls-71{fill:url(#linear-gradient-53);}.cls-72{fill:url(#linear-gradient-54);}.cls-73{fill:url(#linear-gradient-55);}.cls-74{fill:url(#linear-gradient-56);}.cls-75{fill:url(#linear-gradient-57);}.cls-76{fill:url(#linear-gradient-58);}</style><linearGradient id="linear-gradient" x1="79.23" y1="109.43" x2="71.24" y2="108.29" gradientUnits="userSpaceOnUse"><stop offset="0" stop-color="#f2ca9a"/><stop offset="0.53" stop-color="#f3cc9d"/><stop offset="0.87" stop-color="#f5d4a5"/><stop offset="1" stop-color="#f7d9ab"/></linearGradient><linearGradient id="linear-gradient-2" x1="75.04" y1="90.63" x2="72.98" y2="126.09" xlink:href="#linear-gradient"/><linearGradient id="linear-gradient-3" x1="72.63" y1="147.46" x2="75.63" y2="87.27" gradientUnits="userSpaceOnUse"><stop offset="0" stop-color="#53335b"/><stop offset="1" stop-color="#6f3f72"/></linearGradient><linearGradient id="linear-gradient-4" x1="52.3" y1="93.05" x2="87.64" y2="100.72" gradientUnits="userSpaceOnUse"><stop offset="0" stop-color="#f7d9ab"/><stop offset="0.13" stop-color="#f5d4a5"/><stop offset="0.47" stop-color="#f3cc9d"/><stop offset="1" stop-color="#f2ca9a"/></linearGradient><linearGradient id="linear-gradient-5" x1="-0.98" y1="86.2" x2="69.64" y2="101.53" xlink:href="#linear-gradient-4"/><linearGradient id="linear-gradient-6" x1="48.89" y1="107.67" x2="99.28" y2="107.67" gradientUnits="userSpaceOnUse"><stop offset="0" stop-color="#f1f0f3"/><stop offset="1" stop-color="#fff"/></linearGradient><linearGradient id="linear-gradient-7" x1="73.14" y1="110.87" x2="109.68" y2="110.87" gradientUnits="userSpaceOnUse"><stop offset="0" stop-color="#53335b"/><stop offset="0.51" stop-color="#4b2d53"/><stop offset="1" stop-color="#3e2446"/></linearGradient><linearGradient id="linear-gradient-8" x1="73.14" y1="106.28" x2="100.86" y2="106.28" xlink:href="#linear-gradient-7"/><linearGradient id="linear-gradient-9" x1="96.32" y1="109.91" x2="97.65" y2="69.86" xlink:href="#linear-gradient-3"/><linearGradient id="linear-gradient-10" x1="81.84" y1="85.47" x2="83.6" y2="113.56" gradientUnits="userSpaceOnUse"><stop offset="0" stop-color="#3e2446"/><stop offset="1" stop-color="#53335b"/></linearGradient><linearGradient id="linear-gradient-11" x1="54.89" y1="102.3" x2="54.45" y2="129.64" gradientUnits="userSpaceOnUse"><stop offset="0" stop-color="#3e2446"/><stop offset="0.49" stop-color="#4b2d53"/><stop offset="1" stop-color="#53335b"/></linearGradient><linearGradient id="linear-gradient-12" x1="59.52" y1="91.63" x2="58.88" y2="123.43" xlink:href="#linear-gradient-11"/><linearGradient id="linear-gradient-13" x1="48.59" y1="108.33" x2="49.92" y2="68.28" xlink:href="#linear-gradient-3"/><linearGradient id="linear-gradient-14" x1="61.71" y1="86.85" x2="63.47" y2="114.86" xlink:href="#linear-gradient-10"/><linearGradient id="linear-gradient-15" x1="106.14" y1="631.64" x2="110.67" y2="642.63" gradientTransform="matrix(0.98, 0.18, -0.14, 1.13, 32.08, -678.95)" gradientUnits="userSpaceOnUse"><stop offset="0" stop-color="#dba879"/><stop offset="0.49" stop-color="#e4b687"/><stop offset="1" stop-color="#f1c99a"/></linearGradient><linearGradient id="linear-gradient-16" x1="129.43" y1="629" x2="133.96" y2="639.99" gradientTransform="matrix(-0.97, 0.23, 0.21, 1.13, 92.8, -680.96)" xlink:href="#linear-gradient-15"/><radialGradient id="radial-gradient" cx="116.25" cy="186.01" r="25.24" gradientTransform="translate(38.22 -9.48) scale(0.41 0.41)" gradientUnits="userSpaceOnUse"><stop offset="0" stop-color="#f7c79c"/><stop offset="1" stop-color="#f7d9ab"/></radialGradient><linearGradient id="linear-gradient-17" x1="83.37" y1="89.95" x2="70.68" y2="89.62" gradientUnits="userSpaceOnUse"><stop offset="0" stop-color="#ffdeb3"/><stop offset="1" stop-color="#f7d9ab"/></linearGradient><radialGradient id="radial-gradient-2" cx="44.07" cy="186.72" r="25.86" xlink:href="#radial-gradient"/><linearGradient id="linear-gradient-18" x1="93.62" y1="61.19" x2="86.36" y2="63.7" gradientUnits="userSpaceOnUse"><stop offset="0" stop-color="#fadbaf"/><stop offset="1" stop-color="#f7d9ab"/></linearGradient><linearGradient id="linear-gradient-19" x1="58.27" y1="63.55" x2="47.5" y2="60.92" xlink:href="#linear-gradient-18"/><linearGradient id="linear-gradient-20" x1="73.93" y1="99.33" x2="73.44" y2="88.46" gradientTransform="matrix(1, 0, 0, 1, 0, 0)" xlink:href="#linear-gradient-15"/><linearGradient id="linear-gradient-21" x1="61.27" y1="93.97" x2="48.06" y2="68.68" gradientUnits="userSpaceOnUse"><stop offset="0" stop-color="#f7d9ab"/><stop offset="1" stop-color="#f1c99a"/></linearGradient><linearGradient id="linear-gradient-22" x1="84.86" y1="93.61" x2="96.95" y2="68.74" xlink:href="#linear-gradient-17"/><linearGradient id="linear-gradient-23" x1="84.9" y1="62.15" x2="84.26" y2="54.64" gradientUnits="userSpaceOnUse"><stop offset="0" stop-color="#f7d9ab"/><stop offset="0.53" stop-color="#f6d6a8"/><stop offset="0.87" stop-color="#f3cea0"/><stop offset="1" stop-color="#f1c99a"/></linearGradient><linearGradient id="linear-gradient-24" x1="60.38" y1="62.11" x2="59.74" y2="54.65" xlink:href="#linear-gradient-23"/><linearGradient id="linear-gradient-25" x1="72.49" y1="30.62" x2="72.35" y2="39.89" gradientUnits="userSpaceOnUse"><stop offset="0" stop-color="#f7d9ab"/><stop offset="0.49" stop-color="#f5d4a6"/><stop offset="1" stop-color="#f1c99a"/></linearGradient><linearGradient id="linear-gradient-26" x1="77.4" y1="55.61" x2="91.01" y2="59.44" gradientTransform="matrix(1, 0, 0, 1, 0, 0)" xlink:href="#linear-gradient-15"/><linearGradient id="linear-gradient-27" x1="89.97" y1="57.42" x2="76.64" y2="58.09" gradientUnits="userSpaceOnUse"><stop offset="0" stop-color="#fff"/><stop offset="0.46" stop-color="#fdfcfc"/><stop offset="0.76" stop-color="#f6f4f4"/><stop offset="1" stop-color="#ece7e6"/></linearGradient><linearGradient id="linear-gradient-28" x1="86.85" y1="58.36" x2="76.81" y2="57.99" gradientUnits="userSpaceOnUse"><stop offset="0" stop-color="#b89c8c"/><stop offset="1" stop-color="#725342"/></linearGradient><linearGradient id="linear-gradient-29" x1="88.28" y1="56.64" x2="79.59" y2="57.36" xlink:href="#linear-gradient-28"/><radialGradient id="radial-gradient-3" cx="114.84" cy="169.57" r="14.61" gradientTransform="translate(38.22 -9.48) scale(0.41 0.41)" gradientUnits="userSpaceOnUse"><stop offset="0" stop-color="#2b3b3b"/><stop offset="1" stop-color="#1d2827"/></radialGradient><linearGradient id="linear-gradient-30" x1="77.47" y1="57.23" x2="89.01" y2="56.68" gradientUnits="userSpaceOnUse"><stop offset="0" stop-color="#422018"/><stop offset="0.32" stop-color="#46221a"/><stop offset="0.66" stop-color="#53281e"/><stop offset="1" stop-color="#683126"/></linearGradient><linearGradient id="linear-gradient-31" x1="53.84" y1="55.35" x2="67.53" y2="59.21" gradientUnits="userSpaceOnUse"><stop offset="0" stop-color="#f1c99a"/><stop offset="0.51" stop-color="#e4b687"/><stop offset="1" stop-color="#dba879"/></linearGradient><linearGradient id="linear-gradient-32" x1="66.29" y1="58.97" x2="56.57" y2="56.62" xlink:href="#linear-gradient-27"/><linearGradient id="linear-gradient-33" x1="64.24" y1="57.96" x2="54.85" y2="58.34" xlink:href="#linear-gradient-28"/><linearGradient id="linear-gradient-34" x1="64.42" y1="57.72" x2="58.35" y2="56.6" xlink:href="#linear-gradient-28"/><radialGradient id="radial-gradient-4" cx="59.74" cy="169.33" r="14.6" xlink:href="#radial-gradient-3"/><linearGradient id="linear-gradient-35" x1="54.27" y1="57.43" x2="65.7" y2="56.89" gradientUnits="userSpaceOnUse"><stop offset="0" stop-color="#683126"/><stop offset="0.34" stop-color="#53281e"/><stop offset="0.68" stop-color="#46221a"/><stop offset="1" stop-color="#422018"/></linearGradient><linearGradient id="linear-gradient-36" x1="76.73" y1="50.8" x2="91.32" y2="50.8" xlink:href="#linear-gradient-35"/><linearGradient id="linear-gradient-37" x1="53.44" y1="51.04" x2="67.36" y2="51.04" xlink:href="#linear-gradient-35"/><linearGradient id="linear-gradient-38" x1="70.17" y1="19.39" x2="73.82" y2="75" xlink:href="#linear-gradient-35"/><linearGradient id="linear-gradient-39" x1="74.07" y1="19.74" x2="78.03" y2="42.96" gradientUnits="userSpaceOnUse"><stop offset="0" stop-color="#683126"/><stop offset="0.74" stop-color="#7b3d33"/><stop offset="1" stop-color="#834238"/></linearGradient><linearGradient id="linear-gradient-40" x1="83.44" y1="79.66" x2="83.43" y2="78.59" gradientUnits="userSpaceOnUse"><stop offset="0" stop-color="#f7d9ab"/><stop offset="0.53" stop-color="#f6d7a8"/><stop offset="0.87" stop-color="#f4cfa0"/><stop offset="1" stop-color="#f2ca9a"/></linearGradient><linearGradient id="linear-gradient-41" x1="85.28" y1="91.31" x2="84.92" y2="69.72" xlink:href="#linear-gradient-40"/><linearGradient id="linear-gradient-42" x1="60.22" y1="92.28" x2="59.86" y2="70.19" xlink:href="#linear-gradient-40"/><linearGradient id="linear-gradient-43" x1="73.43" y1="96.76" x2="72.91" y2="81.75" xlink:href="#linear-gradient-40"/><linearGradient id="linear-gradient-44" x1="63.55" y1="78.64" x2="82.36" y2="78.96" gradientUnits="userSpaceOnUse"><stop offset="0" stop-color="#e8d9d7"/><stop offset="0.14" stop-color="#f0e6e4"/><stop offset="0.39" stop-color="#fbf8f8"/><stop offset="0.57" stop-color="#fff"/><stop offset="1" stop-color="#e8d3d1"/></linearGradient><linearGradient id="linear-gradient-45" x1="73.44" y1="96.45" x2="72.93" y2="81.87" xlink:href="#linear-gradient-40"/><linearGradient id="linear-gradient-46" x1="72.28" y1="71.52" x2="72.58" y2="78.56" gradientUnits="userSpaceOnUse"><stop offset="0" stop-color="#e8d9d7"/><stop offset="0.4" stop-color="#efe5e4"/><stop offset="1" stop-color="#fff"/></linearGradient><linearGradient id="linear-gradient-47" x1="73.04" y1="99.24" x2="72.54" y2="69.04" xlink:href="#linear-gradient-40"/><linearGradient id="linear-gradient-48" x1="71.94" y1="46.77" x2="72.46" y2="68.71" gradientUnits="userSpaceOnUse"><stop offset="0" stop-color="#ffdeb3"/><stop offset="0.2" stop-color="#fdddb1"/><stop offset="1" stop-color="#f7d9ab"/></linearGradient><linearGradient id="linear-gradient-49" x1="72.44" y1="75.31" x2="72.39" y2="69.78" xlink:href="#linear-gradient-23"/><linearGradient id="linear-gradient-50" x1="72.07" y1="59.27" x2="72.44" y2="71.64" xlink:href="#linear-gradient-40"/><linearGradient id="linear-gradient-51" x1="71.9" y1="69.82" x2="72.65" y2="64.34" gradientUnits="userSpaceOnUse"><stop offset="0" stop-color="#ffdeb3"/><stop offset="0.28" stop-color="#fbdcaf"/><stop offset="1" stop-color="#f7d9ab"/></linearGradient><linearGradient id="linear-gradient-52" x1="127.14" y1="118.23" x2="127.13" y2="118.79" gradientUnits="userSpaceOnUse"><stop offset="0" stop-color="#dadde4"/><stop offset="1" stop-color="#eff1f9"/></linearGradient><linearGradient id="linear-gradient-53" x1="125.2" y1="120.52" x2="125.2" y2="120.52" xlink:href="#linear-gradient-52"/><linearGradient id="linear-gradient-54" x1="20.53" y1="121.28" x2="20.23" y2="130.54" xlink:href="#linear-gradient-52"/><linearGradient id="linear-gradient-55" x1="22.82" y1="123.56" x2="22.53" y2="132.39" xlink:href="#linear-gradient-52"/><linearGradient id="linear-gradient-56" x1="21.62" y1="123.42" x2="21.62" y2="123.56" xlink:href="#linear-gradient-52"/><linearGradient id="linear-gradient-57" x1="23.93" y1="125.6" x2="23.93" y2="125.6" xlink:href="#linear-gradient-52"/><linearGradient id="linear-gradient-58" x1="19.4" y1="121.16" x2="19.4" y2="121.16" xlink:href="#linear-gradient-52"/></defs><circle class="cls-1" cx="72" cy="72" r="72" transform="translate(-29.82 72) rotate(-45)"/><path class="cls-2" d="M46.85,87.79a8.65,8.65,0,0,0-4.38,3.29l4.38,7.84,11.93-7.84-.73-3.29S49.7,86.92,46.85,87.79Z"/><path class="cls-2" d="M99.28,87.81c-2.86-.87-11.21,0-11.21,0l-.72,3.28,11.93,7.84,4.37-7.84A8.61,8.61,0,0,0,99.28,87.81Z"/><path class="cls-3" d="M129.06,115.91a8.72,8.72,0,0,0-.73-1.43c-5.2-8.2-14.64-8.59-14.64-8.59l-2,26.18A72.38,72.38,0,0,0,129.06,115.91Z"/><path class="cls-3" d="M31.76,105.28c-5.25,2.51-11.59,6.27-13.14,13.09-.09.38-.2.92-.33,1.57a72.15,72.15,0,0,0,19.24,15.29l0-.15Z"/><path class="cls-4" d="M58.24,95.89c-1.63,2.24-10,4.68-10,4.68s13.23,14.05,27.08,14.25S97.12,98.94,97.12,98.94l-8.8-4.15C79.36,102.94,58.24,95.89,58.24,95.89Z"/><path class="cls-3" d="M120.22,125.46c.77-8.44,1.42-16.85,1.42-16.85C118.09,106,94.49,96.77,94.49,96.77S90.76,112.06,73.91,113,52.13,96.34,52.13,96.34a187.11,187.11,0,0,0-22.46,10c-1.34.72-2.65,1.74-4,2.52-.59.33,4.14,11.49,7.07,23.47a72,72,0,0,0,87.48-6.9Z"/><polygon class="cls-5" points="70.08 106.7 74.93 112.52 79.3 105.73 73.48 108.64 70.08 106.7"/><path class="cls-6" d="M88.35,88.86c-.23-3.76-.48-7.93-.55-8.59,0,0-10.83,7.81-29.8,1.22,0,0,0,6.25.09,11.46a22.87,22.87,0,0,1-.24,2.4c-.2,1.43-5.72,3.59-5.72,3.59s2.24,14.66,20.76,15.88S97,98.51,97,98.51s-6.6-2.83-7.42-3.44C89.13,94.72,88.66,91.72,88.35,88.86Zm-14.54,22.6c-13.69.46-17.2-10.69-17.2-10.69a25,25,0,0,1,2.44-1.63c.56-.27.9-1.29,1.1-2.37,4.66,4.29,10.06,6.86,13.15,6.58,3.42-.31,8.69-2.78,12.59-5.71l4.72,3.64C86.64,109.53,76.87,111.36,73.81,111.46Z"/><path class="cls-7" d="M106.72,125.07c-5.82-5.53-16.23-2.47-32.45-2.91S52,119.92,41.63,125.74c-3.13,1.75-4.59,5.37-4.05,9.51a72.06,72.06,0,0,0,71.59-1.58C109.47,129.93,108.46,126.72,106.72,125.07Z"/><path class="cls-8" d="M77.65,112.75l3-.7s6.67-10.27,7.39-11.22,0-14.22,0-14.22A60.85,60.85,0,0,1,77.65,112.75Z"/><path class="cls-9" d="M58,101.68c.73.95,6.61,10.24,6.61,10.24l3.67.83S59.34,98.92,58,87.46C58,87.46,57.22,100.73,58,101.68Z"/><path class="cls-10" d="M74,112.58C57.71,113.29,54.24,98,54.24,98l-5.35,1.82s3.24,17,23.19,18.27,27.2-18.92,27.2-18.92l-5.23-2A21.21,21.21,0,0,1,74,112.58Z"/><polygon class="cls-11" points="73.14 119.78 81.5 116.95 68.23 117.03 73.14 119.78"/><path class="cls-3" d="M87.92,85.82a39.94,39.94,0,0,1-14.78,34S95,108,99.45,100.26,87.92,85.82,87.92,85.82Z"/><path class="cls-12" d="M73.14,119.78c6,.15,12.66-.42,14.21-1C94,116.52,109.68,103,109.68,103l-2-1Z"/><path class="cls-13" d="M73.14,119.78c8.56-4.49,28.27-24,27.71-25a11.71,11.71,0,0,0-1.57-2C94.58,101.2,73.14,119.78,73.14,119.78Z"/><path class="cls-3" d="M73.14,119.78a46.35,46.35,0,0,0,13.16-2.13c3.33-1.1,19.82-12.84,22-15.48s-4.67-11.08-4.67-11.08C98.22,99.15,82.13,114,73.14,119.78Z"/><path class="cls-14" d="M99.28,87.81A43.09,43.09,0,0,0,90.35,87c.68.35,1.63.91,2.77,1.61,3.73.6,8.16,1.44,8.43,2.49.46,1.83-9.55,13-9.55,13s12.22-11.68,11.65-13A6.24,6.24,0,0,0,99.28,87.81Z"/><path class="cls-15" d="M85.65,101.94C83.06,108,77.5,115.7,77.5,115.7s8.45-8.55,10.72-13.76C89.31,99.44,88,85.7,88,85.7S88.24,95.87,85.65,101.94Z"/><path class="cls-3" d="M58.2,85.81s-16,6.73-11.53,14.44S73,119.76,73,119.76A39.92,39.92,0,0,1,58.2,85.81Z"/><path class="cls-16" d="M36.51,102.93s15.57,13.58,22.27,15.88c1.54.53,8.25,1.11,14.2,1L38.51,102Z"/><path class="cls-17" d="M46.85,92.78a11.71,11.71,0,0,0-1.57,2c-.56,1,19.31,20.51,27.86,25C73.14,119.78,51.54,101.19,46.85,92.78Z"/><path class="cls-3" d="M42.47,91.08s-6.87,8.45-4.67,11.09,18.7,14.37,22,15.47A46.26,46.26,0,0,0,73,119.76C64,114,47.9,99.13,42.47,91.08Z"/><path class="cls-18" d="M53.15,88.49c.57-.35,2.31-1.32,2.86-1.63a45,45,0,0,0-9.16.93,6.27,6.27,0,0,0-4.38,3.29c-.57,1.35,11.65,13,11.65,13s-10-11.21-9.55-13C44.84,90,49.42,89.09,53.15,88.49Z"/><path class="cls-19" d="M58.2,85.81s-1.71,13.79-.3,16.12A92.82,92.82,0,0,0,68.63,115.7s-5.57-7.7-8.16-13.77S58.2,85.81,58.2,85.81Z"/><path class="cls-2" d="M77.65,118.26c2.4,1.26,4-.26,3.08-1.31S77.65,118.26,77.65,118.26Z"/><path class="cls-2" d="M64.84,116.58c-1,1,.68,2.57,3.08,1.3C67.92,117.88,65.81,115.53,64.84,116.58Z"/><path class="cls-20" d="M78.83,117.68v26l1.72-.19V117.57A2.1,2.1,0,0,0,78.83,117.68Z"/><path class="cls-20" d="M65,117.28v26.36h1.72V117.16A2.08,2.08,0,0,0,65,117.28Z"/><path class="cls-21" d="M45.06,55.25c-2.86.53-2.23,2.47-1,5.88,1.21,9.05,3.54,10.86,4.53,10.31C50.42,70.43,48.51,54.61,45.06,55.25Z"/><path class="cls-22" d="M47.37,68.13a6.38,6.38,0,0,1-.8-4.87c1.25-7.51-3.35-8.25-2.46-3,0,0,.71-2.4,1.27-1.64.69.93-.81,1.35-.18,5.28A11.12,11.12,0,0,0,47.37,68.13Z"/><path class="cls-21" d="M98.85,55.18c2.88.39,2.37,2.37,1.32,5.83-.69,9.09-2.92,11-3.94,10.5C94.37,70.59,95.36,54.7,98.85,55.18Z"/><path class="cls-23" d="M97.28,68.16a6.41,6.41,0,0,0,.53-4.91c-1.69-7.44,2.86-8.4,2.28-3.15,0,0-.86-2.37-1.37-1.59-.64,1,.89,1.31.48,5.27A11,11,0,0,1,97.28,68.16Z"/><path class="cls-4" d="M96.61,54.74c.85-21.3-6.66-22.1-8.52-24.28-3.79-4.41-8.76-8.41-18.94-8.17,0,0-13.26.47-16.57,7.73C49,37.78,47.67,48.4,47.93,58.41c.32,12.14,1,15.36,2,17.91A11,11,0,0,0,53.61,81C57.39,84,61.94,90,65,93.36c1,1.19,15.47.79,17.17-.39,2.77-1.92,6.16-7.4,10.3-11.54a10.92,10.92,0,0,0,3-6.29c0-1.71.82-8.26.86-9.53C96.5,58.74,96.37,60.65,96.61,54.74Z"/><path class="cls-24" d="M86.26,74.87c4.19.28,9.07.72,9.94-8,.5-5-.23-8.51-2.3-8.89-4.4-.83-10.7,1.1-13.32,2.47C75,63.37,78.84,74.37,86.26,74.87Z"/><path class="cls-25" d="M73.71,88c-1.46,0-5.1,1-5,1.52.32,1.61,3.7,1.88,5.15,1.88s4.4-.38,4.46-1.76C78.35,89.1,75.16,88,73.71,88Z"/><path class="cls-26" d="M63.08,60.06c-1.19-.44-10.31-2.52-13-1.72-1.55.45-2.09,4.16-1.84,7.47a28.59,28.59,0,0,0,.59,5c1.76,4.9,9.52,5.08,13.38,3.71C68.77,72.14,69.16,62.28,63.08,60.06Z"/><path class="cls-27" d="M93.41,60.38c-.76-.42-1.32.19-2.89.71s-5.75,1.3-3.77,2.38c2.18,1.19,5.24-.44,5.61-.75S94.34,60.91,93.41,60.38Z"/><path class="cls-28" d="M53.55,61.27c-1.59-.44-2.18-1-2.92-.56-.9.57.78,2,1.17,2.28s3.52,1.76,5.64.46C59.36,62.27,55.12,61.7,53.55,61.27Z"/><path class="cls-29" d="M66.79,93.1c-1.83-.39-4.41-2.75-4.41-2.75s2.71,3.54,3.36,3.8,15,.39,16.39-.66a10.93,10.93,0,0,0,2.55-2.94S82.13,92.71,81,93,68.63,93.49,66.79,93.1Z"/><path class="cls-30" d="M53.94,77.89c-1.31-1.44-5.79-13.33-5.79-13.33,0,1.24.16,3.12.27,4.7.23,3.5.58,6.81,1.26,8.24.41.86,5,5.64,6,6.42s6.68,6.37,6.68,6.37C61.55,89.63,55.25,79.33,53.94,77.89Z"/><path class="cls-31" d="M84.68,90.55c.52-.92,10.11-11.23,10.63-13.07s1-12.92,1-12.92c-.46,4.23-3.86,10.84-4.25,12.15S84.68,90.55,84.68,90.55Z"/><path class="cls-32" d="M76.76,51.53c-.33,2-1.32,8-.1,8.7C84.25,64.48,93,59.1,93,59.1,94,45.68,76.76,51.53,76.76,51.53Z"/><path class="cls-33" d="M51.92,59.27s8.07,5.12,15.84.38c1.19-.73-.23-5.73-.55-7.7C67.21,52,51.15,45.16,51.92,59.27Z"/><path class="cls-34" d="M89.08,32.88c-.55-.15-1.17-.3-1.84-.45-4.88-1.06-12.57-4.65-19.57-4.65a45.91,45.91,0,0,0-11.28,1.63A11,11,0,0,0,53,30.8c-2.66,1.81-4.2,5.23-5.09,13.34-.28,2.64.24,20.19.24,20.38C53.72,51.65,53,40.05,56,38.28s13.2,0,19.09.26,13.43-1.09,13.87-.69c1.38,1.22,1.8,12.53,7.43,26.57,0,0-.08-19.67-.51-24.25C95.29,34.16,93.71,34.15,89.08,32.88Z"/><path class="cls-35" d="M83.84,53.59c-3.86.17-6,.95-6.37,2.43-.21.78-.89,3-.39,3.54,1,1.17,5.42,1.42,8.17,1.24,3.69-.24,5.49-1.85,5.48-2.27a9.33,9.33,0,0,0-2-3.86C87.87,53.89,85.12,53.54,83.84,53.59Z"/><path class="cls-36" d="M81.13,55.09c-2.85.21-3.46,4.33-3.46,4.33A3.27,3.27,0,0,0,79,60a16.3,16.3,0,0,0,7.91.1,7.35,7.35,0,0,0,2.68-1.68C87.18,55.64,88,54.59,81.13,55.09Z"/><path class="cls-37" d="M86.2,55.5c-2.21.22-6.17-.22-8.53,3.92,0,0,1.73-1.49,7.57-1.48A7.68,7.68,0,0,1,88.83,59a6.08,6.08,0,0,0,.72-.61S88.41,55.28,86.2,55.5Z"/><path class="cls-38" d="M83.28,55.87c-1.87-.11-3.64.8-3.54,2.76a3.8,3.8,0,0,0,.51,1.64,20.76,20.76,0,0,0,3,.32A12.52,12.52,0,0,0,86,60.28a2.4,2.4,0,0,0,.58-1.43C86.79,57,85.15,56,83.28,55.87Z"/><path class="cls-39" d="M83.94,55.75c-2.36,0-4.21.48-4.2,2.79a18,18,0,0,1,6.8-.45A2.84,2.84,0,0,0,83.94,55.75Z"/><path class="cls-40" d="M83.27,56.43a2,2,0,1,0,2,2.08A2,2,0,0,0,83.27,56.43Z"/><path class="cls-41" d="M87.62,55.54c-2.09-.81-6.2-1.28-8.11.15-1.51,1.12-1.84,3.73-1.84,3.73s1.29-1.94,2.61-2.33a10.7,10.7,0,0,1,3.45-.4,13.3,13.3,0,0,1,3.59.69,7.19,7.19,0,0,1,2.23,1S88.91,56,87.62,55.54Z"/><path class="cls-11" d="M85.27,58a.92.92,0,0,0-.79,1,.9.9,0,0,0,1,.8.92.92,0,0,0,.79-1A.9.9,0,0,0,85.27,58Z"/><path class="cls-11" d="M83.33,57.19a.7.7,0,0,0-.62.79.69.69,0,0,0,.78.63.72.72,0,0,0,.62-.79A.71.71,0,0,0,83.33,57.19Z"/><path class="cls-42" d="M60.16,53.46c-1.27-.07-4,.26-4.89,1a9.46,9.46,0,0,0-2.05,3.84c0,.42,1.77,2,5.45,2.33,2.75.22,7.13,0,8.19-1.14.5-.56-.15-2.77-.36-3.56C66.12,54.47,64,53.67,60.16,53.46Z"/><path class="cls-43" d="M62.86,55c-6.87-.58-6.06.48-8.46,3.22a7.46,7.46,0,0,0,2.66,1.72,16.43,16.43,0,0,0,7.91,0,3.48,3.48,0,0,0,1.3-.55S65.7,55.23,62.86,55Z"/><path class="cls-37" d="M57.78,55.34c-2.2-.24-3.38,2.87-3.38,2.87a5,5,0,0,0,.71.62,7.89,7.89,0,0,1,3.61-1c5.84.06,7.55,1.57,7.55,1.57C64,55.19,60,55.58,57.78,55.34Z"/><path class="cls-44" d="M60.7,55.74c-1.87.09-3.53,1-3.29,2.95A2.38,2.38,0,0,0,58,60.12a11.48,11.48,0,0,0,2.72.34,20.38,20.38,0,0,0,3-.28,3.73,3.73,0,0,0,.53-1.64C64.33,56.59,62.57,55.66,60.7,55.74Z"/><path class="cls-45" d="M60,55.62a2.82,2.82,0,0,0-2.62,2.3,18.09,18.09,0,0,1,6.79.53C64.2,56,62.4,55.62,60,55.62Z"/><path class="cls-46" d="M60.71,56.31a2,2,0,1,0,2.1,2A2.05,2.05,0,0,0,60.71,56.31Z"/><path class="cls-11" d="M62.45,58.09A.86.86,0,0,0,62,59.24a.88.88,0,0,0,1.18.35.87.87,0,0,0,.44-1.15A.88.88,0,0,0,62.45,58.09Z"/><path class="cls-11" d="M60.59,57.23a.69.69,0,0,0-.34.91.72.72,0,0,0,1,.27.67.67,0,0,0,.33-.9A.7.7,0,0,0,60.59,57.23Z"/><path class="cls-47" d="M64.47,55.6c-1.89-1.44-6-1-8.11-.23-1.3.48-2,2.84-2,2.84a8.1,8.1,0,0,1,2.32-1,14.92,14.92,0,0,1,3.9-.61,10.15,10.15,0,0,1,3.06.43c1.32.41,2.59,2.37,2.59,2.37S66,56.75,64.47,55.6Z"/><path class="cls-48" d="M87.17,49.59a16.33,16.33,0,0,0-9.71.35A1.2,1.2,0,0,0,78,52.25c2.59,0,5.88-.82,8.34-.79,3.59,0,5,1.13,5,1.13A9.11,9.11,0,0,0,87.17,49.59Z"/><path class="cls-49" d="M66.61,50.13a16.22,16.22,0,0,0-9.17-.44c-2.22.44-4,3.15-4,3.15s1.39-1.08,4.84-1.21c2.94-.12,5.48.65,8,.65A1.1,1.1,0,0,0,66.61,50.13Z"/><path class="cls-50" d="M95.58,31.79a5.57,5.57,0,0,0,2.3-2.71c-.69-.63-21.38-10.29-28.69-9.63-16.07,1.46-17.34,8.33-17.34,8.33s-1.48-.7-1.84-3.4l-.17.1a5.34,5.34,0,0,0-.9,5.53c-.51-1-1.12-1.07-1.59-2.86a15.13,15.13,0,0,0-2.45,6.48,161.8,161.8,0,0,0,.41,21.6,3.34,3.34,0,0,1,2.13,2.39c.52,1.52.5,5.47.71,6.94.48-4.4,1.66-9.6,2.05-11.92.8-4.85,1.64-15,3.81-16.85a41,41,0,0,1,9.07-1.3c4.5.4,11.65,1,13.15,1.25C78,36,86.45,35.4,90,35.14a1.14,1.14,0,0,1,.37.19s3.89,16,4.21,17.75c.83,4.44,1.27,7.41,1.82,11.48,0,0-.15-9.39,2.36-9.39.34-9-.47-22.19-.57-24.2A5.17,5.17,0,0,1,95.58,31.79Z"/><path class="cls-51" d="M92,33.43C90.69,32.63,79.66,35,78.42,35c-13,.09-21.43-5.18-25.34-4.6s-3.56,10.18-4,11.44-1.16,20.67-.92,22.69c3.14-13.77,3.71-26.76,6-28.17,2.54-1.59,4.45-.73,7.39-.59.56,0,13.71,1.45,16.13,1.36,7.39-.26,11.92-2.17,12.28-2s5.43,23.22,6.4,29.42c0,0-2-22.07-2.08-22.73C94,40.13,93.34,34.24,92,33.43Z"/><path class="cls-52" d="M53.22,27.78s6.09-3,9.59-1.24,10.59,5.89,13.8,6.18a46.52,46.52,0,0,0,15.74-1.64c-2.73-.24-5.43-3-7.87-4.19,7.87,4.19,11.92,2.62,13.4,2.19-7.15-3.28-9.75-8.27-18.79-9.66C56.69,16,53.22,27.78,53.22,27.78Z"/><path class="cls-53" d="M83.68,78.61l-.5.43A3.9,3.9,0,0,0,83.68,78.61Z"/><path class="cls-54" d="M81.62,70.15c5.31,4.3,3.16,7.38,2.06,8.46,2-1.71,4.79-3.62,4.61-4.37C87.64,71.5,81.62,70.15,81.62,70.15Z"/><path class="cls-55" d="M83.13,75.38a27,27,0,0,0,3-.82,2.58,2.58,0,0,0,.45-.89l-1.73.52Z"/><path class="cls-56" d="M57.07,74.65c.12.84,2.5,2.91,4,4.52,0,0-4.15-4.47,1.62-8.49C62.74,70.68,56.67,71.83,57.07,74.65Z"/><path class="cls-55" d="M58.49,73.84a2.57,2.57,0,0,0,.46.89,26.56,26.56,0,0,0,3,.83l-1.69-1.19Z"/><path class="cls-57" d="M67,85.71a45.82,45.82,0,0,1,12.08.09C73.62,82.4,67,85.71,67,85.71Z"/><path class="cls-58" d="M59.14,74.18c.14.15.25.36.44.45,3.46,1.53,3.51,3,5,3.8a16.63,16.63,0,0,0,15.53-.14c2.38-1.31,2.69-2.84,5.53-4a.72.72,0,0,0,.46-.44C70.9,77.61,59.14,74.18,59.14,74.18Z"/><path class="cls-59" d="M72.75,81.42c-2,0-4.07-.4-4.07,0s1.78,1.29,3.83,1.29,4.08-.89,4.08-1.29S74.8,81.42,72.75,81.42Z"/><path class="cls-60" d="M78.67,77.34a34.29,34.29,0,0,1-6.42.81,39.56,39.56,0,0,1-6.81-.75c-.65-.12-.92,1-.92,1,1.93,1.41,4.25,1.94,8,2a13,13,0,0,0,7.69-2.11S79.49,77.18,78.67,77.34Z"/><path class="cls-61" d="M65.18,81.93c7.92,6.3,15.49-.43,15.49-.43A17.79,17.79,0,0,1,65.18,81.93Z"/><path class="cls-62" d="M62.57,74.91A2.25,2.25,0,0,0,64,76.78c.76.33,2.48,1.64,9.17,1.43s8-1.82,8.31-2.1a3.53,3.53,0,0,0,.83-1.41A60.57,60.57,0,0,1,62.57,74.91Z"/><path class="cls-63" d="M62.55,74.78a2.66,2.66,0,0,0,.26.94c.19.3,5.53,1.08,9.56,1.1a37.28,37.28,0,0,0,9.49-1.25,3.14,3.14,0,0,0,.45-1S77.77,76.09,62.55,74.78Z"/><path class="cls-64" d="M58.31,73.77s1,.56.83.41,11.76,3.43,27-.28l.82-.42C78.67,74.86,58.31,73.77,58.31,73.77Z"/><path class="cls-65" d="M74.35,61.33c.24-4.82-1.44-5.52-2.69-5.47S69.77,57.57,70,61.25s-.47,5.06-.31,6.78c.08.78.44,1.29,2.42,1.31,2.17,0,2.93-.5,3-1.23C75.4,66.11,74.17,64.8,74.35,61.33Z"/><path class="cls-66" d="M66.28,69.92s5.46,4,6.65,3.74,5.57-3.74,5.57-3.74-5,.61-6.09.61S66.28,69.92,66.28,69.92Z"/><path class="cls-55" d="M74.59,70.7c2.94-.73,4.1-.3,4.1-.3C77,68.9,74.59,70.7,74.59,70.7Z"/><path class="cls-55" d="M66.26,70.19a8.68,8.68,0,0,1,3.84.54S67.84,69,66.26,70.19Z"/><path class="cls-67" d="M76.86,65.81c0,1.21.26,2-.1,2.7a4.72,4.72,0,0,1-4.35,2,5.55,5.55,0,0,1-4.63-2c-.43-.65-.16-1.24-.36-2.52,0,0-2.9,3.51-1.16,4.19a3,3,0,0,1,1.92-.26c1.4.13,1.11,1.68,4.34,1.71,2.82,0,1.92-1.32,3.71-1.58a2.79,2.79,0,0,1,2.43.38C79.55,70.44,78.91,67.47,76.86,65.81Z"/><path class="cls-68" d="M69.4,67.87c-.12.79,1,1.64,3,1.65,2.18,0,2.66-.84,2.48-1.56C73.77,63.68,69.86,65,69.4,67.87Z"/><path class="cls-69" d="M24.33,126l-.16-.14Z"/><polygon class="cls-69" points="25.95 127.34 25.95 127.34 25.94 127.34 25.95 127.34"/><path class="cls-70" d="M127.2,118.23l-.11.12Z"/><polygon class="cls-71" points="125.2 120.52 125.2 120.52 125.2 120.52 125.2 120.52"/><path class="cls-72" d="M21.6,123.41c-.75-.73-1.48-1.48-2.2-2.25C20.12,121.93,20.85,122.68,21.6,123.41Z"/><path class="cls-73" d="M23.93,125.6c-.78-.7-1.54-1.42-2.29-2.15C22.39,124.18,23.15,124.9,23.93,125.6Z"/><path class="cls-74" d="M21.64,123.45l0,0Z"/><polygon class="cls-75" points="23.93 125.6 23.93 125.6 23.93 125.6 23.93 125.6"/><polygon class="cls-76" points="19.4 121.16 19.4 121.16 19.4 121.16 19.4 121.16"/></svg>