<svg id="Layer_1" data-name="Layer 1" xmlns="http://www.w3.org/2000/svg" xmlns:xlink="http://www.w3.org/1999/xlink" viewBox="0 0 144 144"><defs><style>.cls-1{fill:#f6ece6;}.cls-2{fill:#f1f0f4;}.cls-3{fill:url(#_ÂÁ_Ï_ÌÌ_È_ËÂÌÚ_62);}.cls-4{fill:url(#_ÂÁ_Ï_ÌÌ_È_ËÂÌÚ_39);}.cls-5{fill:#fff;}.cls-6{fill:url(#_ÂÁ_Ï_ÌÌ_È_ËÂÌÚ_169);}.cls-7{fill:#548ac6;}.cls-8{fill:#f6d4ab;}.cls-9{fill:url(#linear-gradient);}.cls-10{fill:url(#linear-gradient-2);}.cls-11{fill:url(#linear-gradient-3);}.cls-12{fill:url(#linear-gradient-4);}.cls-13{fill:url(#linear-gradient-5);}.cls-14{fill:url(#linear-gradient-6);}.cls-15{fill:url(#_ÂÁ_Ï_ÌÌ_È_ËÂÌÚ_52);}.cls-16{fill:url(#linear-gradient-7);}.cls-17{fill:url(#_ÂÁ_Ï_ÌÌ_È_ËÂÌÚ_57);}.cls-18{fill:url(#_ÂÁ_Ï_ÌÌ_È_ËÂÌÚ_57-2);}.cls-19{fill:#6ea1d6;}.cls-20{fill:url(#linear-gradient-8);}.cls-21{fill:url(#linear-gradient-9);}.cls-22{fill:url(#linear-gradient-10);}.cls-23{fill:url(#_ÂÁ_Ï_ÌÌ_È_ËÂÌÚ_39-2);}.cls-24{fill:url(#linear-gradient-11);}.cls-25{fill:url(#linear-gradient-12);}.cls-26{fill:url(#radial-gradient);}.cls-27{fill:url(#linear-gradient-13);}.cls-28{fill:url(#radial-gradient-2);}.cls-29{fill:url(#linear-gradient-14);}.cls-30{fill:url(#linear-gradient-15);}.cls-31{fill:url(#linear-gradient-16);}.cls-32{fill:#f0c499;}.cls-33{fill:url(#_ÂÁ_Ï_ÌÌ_È_ËÂÌÚ_39-3);}.cls-34{fill:url(#_ÂÁ_Ï_ÌÌ_È_ËÂÌÚ_62-2);}.cls-35{fill:url(#_ÂÁ_Ï_ÌÌ_È_ËÂÌÚ_62-3);}.cls-36{fill:url(#linear-gradient-17);}.cls-37{fill:url(#_ÂÁ_Ï_ÌÌ_È_ËÂÌÚ_30);}.cls-38{fill:url(#linear-gradient-18);}.cls-39{fill:url(#_ÂÁ_Ï_ÌÌ_È_ËÂÌÚ_37);}.cls-40{fill:url(#_ÂÁ_Ï_ÌÌ_È_ËÂÌÚ_1062);}.cls-41{fill:url(#linear-gradient-19);}.cls-42{fill:url(#linear-gradient-20);}.cls-43{fill:url(#linear-gradient-21);}.cls-44{fill:url(#_ÂÁ_Ï_ÌÌ_È_ËÂÌÚ_30-2);}.cls-45{fill:url(#linear-gradient-22);}.cls-46{fill:url(#linear-gradient-23);}.cls-47{fill:url(#linear-gradient-24);}.cls-48{fill:url(#_ÂÁ_Ï_ÌÌ_È_ËÂÌÚ_1104);}.cls-49{fill:url(#_ÂÁ_Ï_ÌÌ_È_ËÂÌÚ_1104-2);}.cls-50{fill:url(#_ÂÁ_Ï_ÌÌ_È_ËÂÌÚ_1060);}.cls-51{fill:url(#linear-gradient-25);}.cls-52{fill:#ddd;}.cls-53{fill:url(#linear-gradient-26);}.cls-54{fill:url(#_ÂÁ_Ï_ÌÌ_È_ËÂÌÚ_1063);}.cls-55{fill:url(#linear-gradient-27);}.cls-56{fill:#393f45;}.cls-57{fill:url(#_ÂÁ_Ï_ÌÌ_È_ËÂÌÚ_1064);}.cls-58{fill:#dca47a;}.cls-59{fill:url(#_ÂÁ_Ï_ÌÌ_È_ËÂÌÚ_1061);}.cls-60{fill:url(#linear-gradient-28);}.cls-61{fill:url(#linear-gradient-29);}.cls-62{fill:url(#linear-gradient-30);}.cls-63{fill:url(#linear-gradient-31);}.cls-64{fill:url(#linear-gradient-32);}.cls-65{fill:url(#linear-gradient-33);}.cls-66{fill:url(#linear-gradient-34);}.cls-67{fill:url(#_ÂÁ_Ï_ÌÌ_È_ËÂÌÚ_106);}.cls-68{fill:url(#linear-gradient-35);}.cls-69{fill:url(#linear-gradient-36);}.cls-70{fill:url(#linear-gradient-37);}.cls-71{fill:url(#linear-gradient-38);}.cls-72{fill:#971b27;}.cls-73{fill:#f47e6d;}.cls-74{fill:url(#linear-gradient-39);}.cls-75{fill:#f8a69b;}.cls-76{fill:url(#linear-gradient-40);}.cls-77{fill:url(#_ÂÁ_Ï_ÌÌ_È_ËÂÌÚ_160);}.cls-78{fill:url(#_ÂÁ_Ï_ÌÌ_È_ËÂÌÚ_160-2);}.cls-79{fill:url(#_ÂÁ_Ï_ÌÌ_È_ËÂÌÚ_2134);}.cls-80{fill:url(#_ÂÁ_Ï_ÌÌ_È_ËÂÌÚ_169-2);}.cls-81{fill:url(#_ÂÁ_Ï_ÌÌ_È_ËÂÌÚ_160-3);}.cls-82{fill:url(#_ÂÁ_Ï_ÌÌ_È_ËÂÌÚ_169-3);}.cls-83{fill:url(#_ÂÁ_Ï_ÌÌ_È_ËÂÌÚ_158);}.cls-84{fill:url(#_ÂÁ_Ï_ÌÌ_È_ËÂÌÚ_158-2);}</style><linearGradient id="_ÂÁ_Ï_ÌÌ_È_ËÂÌÚ_62" x1="98.13" y1="94.56" x2="84.72" y2="68.24" gradientUnits="userSpaceOnUse"><stop offset="0" stop-color="#f7f9fb"/><stop offset="0.04" stop-color="#f4f6f8"/><stop offset="0.37" stop-color="#e0e2e3"/><stop offset="0.69" stop-color="#d3d5d6"/><stop offset="1" stop-color="#cfd1d2"/></linearGradient><linearGradient id="_ÂÁ_Ï_ÌÌ_È_ËÂÌÚ_39" x1="100.4" y1="88.06" x2="76.68" y2="64.12" gradientUnits="userSpaceOnUse"><stop offset="0" stop-color="#f7f9fb"/><stop offset="1" stop-color="#e6e7e7"/></linearGradient><linearGradient id="_ÂÁ_Ï_ÌÌ_È_ËÂÌÚ_169" x1="65.8" y1="201.03" x2="71.79" y2="77.7" gradientUnits="userSpaceOnUse"><stop offset="0" stop-color="#6ea1d6"/><stop offset="0.29" stop-color="#71a3d7"/><stop offset="0.54" stop-color="#7cabdb"/><stop offset="0.77" stop-color="#8db7e1"/><stop offset="0.99" stop-color="#a5c8e9"/><stop offset="1" stop-color="#a7c9ea"/></linearGradient><linearGradient id="linear-gradient" x1="48.08" y1="101.1" x2="50.2" y2="125.51" gradientUnits="userSpaceOnUse"><stop offset="0" stop-color="#f1c99a"/><stop offset="0.53" stop-color="#f2cc9d"/><stop offset="0.87" stop-color="#f5d4a5"/><stop offset="1" stop-color="#f7d9ab"/></linearGradient><linearGradient id="linear-gradient-2" x1="88.03" y1="106.98" x2="66.51" y2="110.15" gradientUnits="userSpaceOnUse"><stop offset="0" stop-color="#f0c499"/><stop offset="0.52" stop-color="#f1c69c"/><stop offset="0.85" stop-color="#f4cea4"/><stop offset="1" stop-color="#f6d4ab"/></linearGradient><linearGradient id="linear-gradient-3" x1="46.96" y1="88.73" x2="84.55" y2="100.16" xlink:href="#linear-gradient-2"/><linearGradient id="linear-gradient-4" x1="26.09" y1="87.87" x2="76.85" y2="118.71" xlink:href="#linear-gradient-2"/><linearGradient id="linear-gradient-5" x1="120.55" y1="95.48" x2="69.97" y2="109.69" xlink:href="#linear-gradient-2"/><linearGradient id="linear-gradient-6" x1="52.35" y1="114.56" x2="118.67" y2="96.49" xlink:href="#linear-gradient-2"/><linearGradient id="_ÂÁ_Ï_ÌÌ_È_ËÂÌÚ_52" x1="74.42" y1="153.07" x2="72.32" y2="126.14" gradientUnits="userSpaceOnUse"><stop offset="0" stop-color="#fff"/><stop offset="0.36" stop-color="#f9f8fa"/><stop offset="1" stop-color="#f1f0f4"/></linearGradient><linearGradient id="linear-gradient-7" x1="93.49" y1="101.14" x2="94.85" y2="116.8" xlink:href="#linear-gradient"/><linearGradient id="_ÂÁ_Ï_ÌÌ_È_ËÂÌÚ_57" x1="44.16" y1="85.54" x2="47.39" y2="160.56" gradientUnits="userSpaceOnUse"><stop offset="0" stop-color="#f1f0f4"/><stop offset="0.48" stop-color="#e7e6ea"/><stop offset="1" stop-color="#e2e2e5"/></linearGradient><linearGradient id="_ÂÁ_Ï_ÌÌ_È_ËÂÌÚ_57-2" x1="91.55" y1="83.27" x2="94.97" y2="162.46" xlink:href="#_ÂÁ_Ï_ÌÌ_È_ËÂÌÚ_57"/><linearGradient id="linear-gradient-8" x1="69.36" y1="87.63" x2="72.35" y2="100.33" gradientUnits="userSpaceOnUse"><stop offset="0" stop-color="#dca47a"/><stop offset="0.5" stop-color="#e5b287"/><stop offset="1" stop-color="#f0c499"/></linearGradient><linearGradient id="linear-gradient-9" x1="95.94" y1="100.24" x2="95.63" y2="127.35" gradientUnits="userSpaceOnUse"><stop offset="0" stop-color="#f1f0f4"/><stop offset="1" stop-color="#e2e2e5"/></linearGradient><linearGradient id="linear-gradient-10" x1="88.15" y1="90.58" x2="54.16" y2="114.77" xlink:href="#linear-gradient-9"/><linearGradient id="_ÂÁ_Ï_ÌÌ_È_ËÂÌÚ_39-2" x1="82.67" y1="26.39" x2="89.69" y2="129.18" xlink:href="#_ÂÁ_Ï_ÌÌ_È_ËÂÌÚ_39"/><linearGradient id="linear-gradient-11" x1="96.98" y1="68.9" x2="100.78" y2="68.9" gradientUnits="userSpaceOnUse"><stop offset="0" stop-color="#dca47a"/><stop offset="0.2" stop-color="#e2ae83"/><stop offset="0.65" stop-color="#ecbe93"/><stop offset="1" stop-color="#f0c499"/></linearGradient><linearGradient id="linear-gradient-12" x1="83.05" y1="71.56" x2="83.12" y2="54.18" gradientUnits="userSpaceOnUse"><stop offset="0" stop-color="#f6d4ab"/><stop offset="0.52" stop-color="#f5d2a8"/><stop offset="0.85" stop-color="#f2caa0"/><stop offset="1" stop-color="#f0c499"/></linearGradient><radialGradient id="radial-gradient" cx="90.86" cy="126.02" r="17.17" gradientTransform="translate(35.83 5.47) scale(0.55 0.54)" gradientUnits="userSpaceOnUse"><stop offset="0" stop-color="#f8c49d"/><stop offset="1" stop-color="#f6d4ab"/></radialGradient><linearGradient id="linear-gradient-13" x1="57.58" y1="70.1" x2="60.55" y2="55.33" xlink:href="#linear-gradient-12"/><radialGradient id="radial-gradient-2" cx="36.49" cy="127.22" r="17.59" xlink:href="#radial-gradient"/><linearGradient id="linear-gradient-14" x1="93.26" y1="69.04" x2="87.09" y2="70.63" gradientUnits="userSpaceOnUse"><stop offset="0" stop-color="#fed8b4"/><stop offset="1" stop-color="#f6d4ab"/></linearGradient><linearGradient id="linear-gradient-15" x1="49.35" y1="68.99" x2="55.73" y2="71.24" xlink:href="#linear-gradient-14"/><linearGradient id="linear-gradient-16" x1="60.65" y1="89.53" x2="76.37" y2="89.53" gradientUnits="userSpaceOnUse"><stop offset="0" stop-color="#fed8b4"/><stop offset="0.65" stop-color="#fbd7b1"/><stop offset="1" stop-color="#f6d4ab"/></linearGradient><linearGradient id="_ÂÁ_Ï_ÌÌ_È_ËÂÌÚ_39-3" x1="65.9" y1="19.93" x2="30.15" y2="129.44" xlink:href="#_ÂÁ_Ï_ÌÌ_È_ËÂÌÚ_39"/><linearGradient id="_ÂÁ_Ï_ÌÌ_È_ËÂÌÚ_62-2" x1="75.35" y1="22.06" x2="104.57" y2="77.55" xlink:href="#_ÂÁ_Ï_ÌÌ_È_ËÂÌÚ_62"/><linearGradient id="_ÂÁ_Ï_ÌÌ_È_ËÂÌÚ_62-3" x1="76.31" y1="33.84" x2="-17.37" y2="103.7" xlink:href="#_ÂÁ_Ï_ÌÌ_È_ËÂÌÚ_62"/><linearGradient id="linear-gradient-17" x1="44.87" y1="133.85" x2="45.47" y2="154.82" xlink:href="#linear-gradient-8"/><linearGradient id="_ÂÁ_Ï_ÌÌ_È_ËÂÌÚ_30" x1="45.8" y1="61.27" x2="43.49" y2="36.27" gradientUnits="userSpaceOnUse"><stop offset="0" stop-color="#cfd1d2"/><stop offset="0.31" stop-color="#d3d5d6"/><stop offset="0.63" stop-color="#e0e2e3"/><stop offset="0.96" stop-color="#f4f6f8"/><stop offset="1" stop-color="#f7f9fb"/></linearGradient><linearGradient id="linear-gradient-18" x1="100.78" y1="132.82" x2="101.37" y2="153.46" xlink:href="#linear-gradient-8"/><linearGradient id="_ÂÁ_Ï_ÌÌ_È_ËÂÌÚ_37" x1="76.95" y1="55.5" x2="92.51" y2="55.5" gradientUnits="userSpaceOnUse"><stop offset="0" stop-color="#f7f9fb"/><stop offset="0.57" stop-color="#eff1f2"/><stop offset="1" stop-color="#e6e7e7"/></linearGradient><linearGradient id="_ÂÁ_Ï_ÌÌ_È_ËÂÌÚ_1062" x1="49.64" y1="55.43" x2="64.82" y2="55.43" gradientUnits="userSpaceOnUse"><stop offset="0" stop-color="#e6e7e7"/><stop offset="0.43" stop-color="#eff1f2"/><stop offset="1" stop-color="#f7f9fb"/></linearGradient><linearGradient id="linear-gradient-19" x1="82.72" y1="88.18" x2="82.81" y2="75.79" xlink:href="#linear-gradient-2"/><linearGradient id="linear-gradient-20" x1="58.71" y1="86.49" x2="58.79" y2="75.7" xlink:href="#linear-gradient-2"/><linearGradient id="linear-gradient-21" x1="45.41" y1="70.09" x2="60.22" y2="94.23" xlink:href="#linear-gradient-2"/><linearGradient id="_ÂÁ_Ï_ÌÌ_È_ËÂÌÚ_30-2" x1="81.21" y1="-96.86" x2="78.41" y2="-127.05" xlink:href="#_ÂÁ_Ï_ÌÌ_È_ËÂÌÚ_30"/><linearGradient id="linear-gradient-22" x1="73.67" y1="59.2" x2="73.2" y2="50.58" xlink:href="#linear-gradient-2"/><linearGradient id="linear-gradient-23" x1="68.99" y1="60.97" x2="68.43" y2="50.49" xlink:href="#linear-gradient-2"/><linearGradient id="linear-gradient-24" x1="81.74" y1="78.95" x2="97.09" y2="78.95" xlink:href="#linear-gradient-16"/><linearGradient id="_ÂÁ_Ï_ÌÌ_È_ËÂÌÚ_1104" x1="76.11" y1="73.3" x2="79.6" y2="76.86" xlink:href="#linear-gradient-2"/><linearGradient id="_ÂÁ_Ï_ÌÌ_È_ËÂÌÚ_1104-2" x1="65.38" y1="73.64" x2="62.28" y2="77.62" xlink:href="#linear-gradient-2"/><linearGradient id="_ÂÁ_Ï_ÌÌ_È_ËÂÌÚ_1060" x1="50.39" y1="63.31" x2="66.05" y2="63.31" xlink:href="#linear-gradient-8"/><linearGradient id="linear-gradient-25" x1="60.81" y1="64.17" x2="64.84" y2="64.17" gradientUnits="userSpaceOnUse"><stop offset="0" stop-color="#fff"/><stop offset="0.46" stop-color="#fdfcfc"/><stop offset="0.76" stop-color="#f6f4f4"/><stop offset="1" stop-color="#ece7e6"/></linearGradient><linearGradient id="linear-gradient-26" x1="53.36" y1="64.08" x2="56.65" y2="64.08" xlink:href="#linear-gradient-25"/><linearGradient id="_ÂÁ_Ï_ÌÌ_È_ËÂÌÚ_1063" x1="63.51" y1="68.3" x2="53.13" y2="61.81" gradientUnits="userSpaceOnUse"><stop offset="0" stop-color="#ddddda"/><stop offset="1" stop-color="#a4a59d"/></linearGradient><linearGradient id="linear-gradient-27" x1="72.41" y1="64.39" x2="59.08" y2="62.81" gradientUnits="userSpaceOnUse"><stop offset="0" stop-color="#c6c6c0"/><stop offset="1" stop-color="#95958d"/></linearGradient><linearGradient id="_ÂÁ_Ï_ÌÌ_È_ËÂÌÚ_1064" x1="51.3" y1="63.68" x2="64.93" y2="63.68" gradientUnits="userSpaceOnUse"><stop offset="0" stop-color="#555554"/><stop offset="0.32" stop-color="#676766"/><stop offset="0.67" stop-color="#737373"/><stop offset="1" stop-color="#777"/></linearGradient><linearGradient id="_ÂÁ_Ï_ÌÌ_È_ËÂÌÚ_1061" x1="76.08" y1="63.33" x2="91.81" y2="63.33" gradientUnits="userSpaceOnUse"><stop offset="0" stop-color="#f0c499"/><stop offset="0.5" stop-color="#e5b287"/><stop offset="1" stop-color="#dca47a"/></linearGradient><linearGradient id="linear-gradient-28" x1="77.11" y1="64.17" x2="81.15" y2="64.17" xlink:href="#linear-gradient-25"/><linearGradient id="linear-gradient-29" x1="86.26" y1="64.08" x2="89.55" y2="64.08" xlink:href="#linear-gradient-25"/><linearGradient id="linear-gradient-30" x1="88.53" y1="67.91" x2="78.5" y2="61.65" xlink:href="#_ÂÁ_Ï_ÌÌ_È_ËÂÌÚ_1063"/><linearGradient id="linear-gradient-31" x1="97.16" y1="64.45" x2="83.92" y2="62.88" xlink:href="#linear-gradient-27"/><linearGradient id="linear-gradient-32" x1="77.2" y1="63.68" x2="90.84" y2="63.68" gradientUnits="userSpaceOnUse"><stop offset="0" stop-color="#777"/><stop offset="0.33" stop-color="#737373"/><stop offset="0.68" stop-color="#676766"/><stop offset="1" stop-color="#555554"/></linearGradient><linearGradient id="linear-gradient-33" x1="71.74" y1="80.81" x2="70.86" y2="76.42" xlink:href="#linear-gradient-12"/><linearGradient id="linear-gradient-34" x1="71.06" y1="76.14" x2="71.04" y2="79.53" xlink:href="#linear-gradient-8"/><linearGradient id="_ÂÁ_Ï_ÌÌ_È_ËÂÌÚ_106" x1="70.84" y1="71.53" x2="70.89" y2="75" gradientUnits="userSpaceOnUse"><stop offset="0" stop-color="#f6d4ab"/><stop offset="1" stop-color="#fed8b4"/></linearGradient><linearGradient id="linear-gradient-35" x1="70.89" y1="82.03" x2="70.82" y2="78.44" xlink:href="#linear-gradient-14"/><linearGradient id="linear-gradient-36" x1="69.35" y1="83.54" x2="58.85" y2="80.41" xlink:href="#linear-gradient-12"/><linearGradient id="linear-gradient-37" x1="61.8" y1="83.84" x2="79.99" y2="83.84" xlink:href="#linear-gradient-2"/><linearGradient id="linear-gradient-38" x1="87.53" y1="83" x2="78.85" y2="80.41" xlink:href="#linear-gradient-12"/><linearGradient id="linear-gradient-39" x1="70.43" y1="85.87" x2="70.76" y2="83.01" gradientUnits="userSpaceOnUse"><stop offset="0" stop-color="#f47c6e"/><stop offset="0.06" stop-color="#f48072"/><stop offset="0.26" stop-color="#f58a7b"/><stop offset="0.53" stop-color="#f58d7e"/><stop offset="0.76" stop-color="#f5897a"/><stop offset="0.98" stop-color="#f47d6e"/><stop offset="1" stop-color="#f47c6d"/></linearGradient><linearGradient id="linear-gradient-40" x1="71.48" y1="97.43" x2="71.81" y2="103.55" xlink:href="#linear-gradient-8"/><linearGradient id="_ÂÁ_Ï_ÌÌ_È_ËÂÌÚ_160" x1="30.32" y1="125.46" x2="30.69" y2="132.27" gradientUnits="userSpaceOnUse"><stop offset="0" stop-color="#6ea1d6"/><stop offset="0.03" stop-color="#6da0d5"/><stop offset="1" stop-color="#5186c2"/></linearGradient><linearGradient id="_ÂÁ_Ï_ÌÌ_È_ËÂÌÚ_160-2" x1="108.33" y1="124.93" x2="108.92" y2="135.66" xlink:href="#_ÂÁ_Ï_ÌÌ_È_ËÂÌÚ_160"/><linearGradient id="_ÂÁ_Ï_ÌÌ_È_ËÂÌÚ_2134" x1="103.38" y1="138.39" x2="105.34" y2="105.97" gradientUnits="userSpaceOnUse"><stop offset="0" stop-color="#5186c2"/><stop offset="0.97" stop-color="#6da0d5"/><stop offset="1" stop-color="#6ea1d6"/></linearGradient><linearGradient id="_ÂÁ_Ï_ÌÌ_È_ËÂÌÚ_169-2" x1="92.93" y1="139.36" x2="95.38" y2="88.98" xlink:href="#_ÂÁ_Ï_ÌÌ_È_ËÂÌÚ_169"/><linearGradient id="_ÂÁ_Ï_ÌÌ_È_ËÂÌÚ_160-3" x1="35.35" y1="107.46" x2="38.4" y2="142.29" xlink:href="#_ÂÁ_Ï_ÌÌ_È_ËÂÌÚ_160"/><linearGradient id="_ÂÁ_Ï_ÌÌ_È_ËÂÌÚ_169-3" x1="44.95" y1="138.85" x2="47.36" y2="89.16" xlink:href="#_ÂÁ_Ï_ÌÌ_È_ËÂÌÚ_169"/><linearGradient id="_ÂÁ_Ï_ÌÌ_È_ËÂÌÚ_158" x1="25.66" y1="98.66" x2="26.89" y2="119.46" gradientUnits="userSpaceOnUse"><stop offset="0" stop-color="#a7c9ea"/><stop offset="0.01" stop-color="#a5c8e9"/><stop offset="0.23" stop-color="#8db7e1"/><stop offset="0.46" stop-color="#7cabdb"/><stop offset="0.71" stop-color="#71a3d7"/><stop offset="1" stop-color="#6ea1d6"/></linearGradient><linearGradient id="_ÂÁ_Ï_ÌÌ_È_ËÂÌÚ_158-2" x1="113.88" y1="98.42" x2="115.31" y2="122.62" xlink:href="#_ÂÁ_Ï_ÌÌ_È_ËÂÌÚ_158"/></defs><circle class="cls-1" cx="72" cy="72" r="72" transform="translate(-24.4 39.2) rotate(-26.21)"/><path class="cls-2" d="M98.82,104.13l-25.27,29-30-29L18.74,116.82s.42,1.88,1.1,4.81a72,72,0,0,0,100.68,3.56c.94-3.41,1.55-5.67,1.55-5.67Z"/><path class="cls-3" d="M88.07,61c-2.88,6.9-9.39,13.77-13.36,25.49S94,101.27,101.35,80.85C111.64,52.39,91,54.09,88.07,61Z"/><path class="cls-4" d="M99.16,57.35C96.07,56,93.3,58.92,90.79,62S92.61,87.76,92,88.49s-5.72-12.13-5.72-12.13,2.88,14.75-.45,16.42-10.7-.54-10.7-.54c1.25,2.94,6.65,5.26,13.1,4.19,10.28-1.71,11.5-13.19,12.56-15C109.69,66.29,102.25,58.72,99.16,57.35Z"/><path class="cls-5" d="M98.42,57.1s5.81,3.33,6.27,9.47c.65,8.63-3.6,12-4.57,14.51s-1,6.62-5.45,10.73A15.9,15.9,0,0,1,79.1,95.59c5.41,2.69,10,2.87,14.12.16,8-5.18,7.23-12.17,8-14.13s4.1-5.62,4.62-10.68C107,59.32,98.42,57.1,98.42,57.1Z"/><path class="cls-5" d="M93.91,70.85c10,11.92,1.42,21.63,1.42,21.63C107.62,79.82,93.91,70.85,93.91,70.85Z"/><path class="cls-5" d="M92,70.07s3.61,7.31,4.18,11.87c1,8.15-3.32,12.8-3.32,12.8,5.06-4.46,5.37-9.46,4.71-14.1S92,70.07,92,70.07Z"/><path class="cls-6" d="M72.38,91.89C45,93.2,37.07,104.1,37.07,104.1l66.9-.66S90.61,91,72.38,91.89Z"/><polygon class="cls-7" points="57.7 95.51 39.9 102.53 101.16 102.26 84.16 95.22 57.7 95.51"/><path class="cls-8" d="M123.13,122.69c-2.32-3.1-5.36-4.94-8.25-8-2.06-2.2-27.44-13.48-30.7-15.78C81.6,97.05,81.6,76.47,81.6,76.47L59.73,80.1S63.64,97,57.19,99.18c-4.6,1.58-30.69,11.54-35.23,15.9a18,18,0,0,0-3.59,5,72.17,72.17,0,0,0,21.38,16.36c17.58,1.2,41.36,2.49,59.63,2.22A72.06,72.06,0,0,0,123.13,122.69Z"/><path class="cls-9" d="M46.33,110.36s1.22,1.93,2.12,3.1c0-8.63,2.11-13.14,2.11-13.14l-2.56.44Z"/><path class="cls-10" d="M68.07,110.52c1.39-1,6.64-1.53,6.64-1.53C69.59,108,68.07,110.52,68.07,110.52Z"/><path class="cls-11" d="M83.33,83.85S58,85.16,57.57,84.74c0,1.67.24,11.37.06,12.64-.2,1.46-.32,1.64-17.73,5.15,0,0,6.28,1.92,17.84,2,2,0,3.64,0,3.87-2.79a23.36,23.36,0,0,0,17.74-2.1c.48,2.69,1,4.31,2.39,5.18s14.39-.43,14.39-.43l1.76-2C94,101.89,87,99.78,85.3,98.22S83.33,83.85,83.33,83.85Z"/><path class="cls-12" d="M64.29,104.59c-1.79-.42-21.67-1-24-1.48,0,0,8.84,1.82,14,2.38s9.12-.28,13.13,2.66C67.38,108.15,66.09,105,64.29,104.59Z"/><path class="cls-13" d="M76.92,104.76a6.85,6.85,0,0,0-3.45,3.11c4.28-2.5,25.43-3.33,25.43-3.33C95.86,104.26,79.13,104.06,76.92,104.76Z"/><path class="cls-14" d="M71.39,109.64C51.28,110.74,52.13,100,52.13,100l-11.41,2.31s3.46,23.47,27.78,22.35,29.84-21.82,29.84-21.82l-9.43-2.76S91.72,108.53,71.39,109.64Z"/><path class="cls-2" d="M108.9,106.89c-4.18-.32-14.2-5-14.2-5s-2.32,11.61-25.17,11.61S48,100.76,48,100.76s-14.23,7.82-22.15,10.57a108,108,0,0,1,.41,16.27,71.78,71.78,0,0,0,24.23,13.13h43A71.72,71.72,0,0,0,112,131.88C111.54,123.39,110.47,107,108.9,106.89Z"/><path class="cls-15" d="M81.75,129.23c-25.61-.44-38.27,1.94-38.27,1.94a18.94,18.94,0,0,0-6.12,4A72.06,72.06,0,0,0,108.6,134C106,130.52,95.46,129.47,81.75,129.23Z"/><path class="cls-16" d="M91.55,101A21.15,21.15,0,0,1,93,109.13c1.89-2.15,2.86-3,2.86-3l-1.14-4.23Z"/><path class="cls-17" d="M50.88,107.57l-2.43-5.14s-6,15.11-6.91,20.27c-.19,1.18-.53,6.54-.94,14.11a71.13,71.13,0,0,0,9.53,3.8C49.72,127.62,49.58,113.1,50.88,107.57Z"/><path class="cls-18" d="M90,107.57s1,4.06.77,15.35c-.1,5.87-.53,12-.8,18.82a72.14,72.14,0,0,0,8.14-2.61L93.85,101.2Z"/><path class="cls-19" d="M93.08,99.12c1.8,1.33,2.53,18.2,2.87,40.79a71.6,71.6,0,0,0,18-9.35c-.58-10.34-.74-17.31-1.54-20.61C112.36,110,103.79,102,93.08,99.12Z"/><path class="cls-20" d="M57,87.21c.82,2.8.68,10,.68,10,14.89,7.79,26.4-3,26.4-3l-.49-5.37Z"/><path class="cls-19" d="M23.61,112.44s-.82,4.08-1.95,11a72.17,72.17,0,0,0,24,15.58c.26-21.09.67-36.9,1.33-39C38.86,102.66,23.61,112.44,23.61,112.44Z"/><path class="cls-21" d="M95.64,106.68a15.93,15.93,0,0,1-2.2,3.84s.48,9.31,0,23.15c-.07,2.11-.19,4.51-.34,7.06h.43c1.06-.33,2.1-.68,3.14-1.06l1.47-19.88Z"/><path class="cls-22" d="M90.57,100.48s1.68,9.29-19.43,10.61c-22.31,1.4-20.58-10.77-20.58-10.77l-3.77.75s-.57,14.16,24.31,12.78c23.15-1.28,22.75-12.65,22.75-12.65Z"/><path class="cls-23" d="M82.54,24.19c-10.57-3-26.15,67.28.56,60.73,4.44-1.09,13.54-6.85,16.54-20.58C101.24,58,106.89,31,82.54,24.19Z"/><path class="cls-24" d="M98,69.57a5.6,5.6,0,0,1-.63,4.21A10.21,10.21,0,0,0,99.2,70c.49-3.4-.83-3.65-.24-4.49.47-.68,1.14,1.31,1.14,1.31C100.79,62.3,96.78,63.26,98,69.57Z"/><path class="cls-8" d="M76.08,32c-15.35-2.68-27,8.53-29.88,25.55-1.63,9.55-1.94,20.14,3,27.16,2,2.85,5.06,4.6,8.62,6.32,2.08,1,2.89,1.31,2.89,1.31S63,96.84,70,97.5c7.16.69,11.75-5.29,11.75-5.29C92.25,86.81,98,80.46,96.6,60.71,95.46,45.2,86.14,32.33,76.08,32Z"/><path class="cls-25" d="M81.56,53.9c-7,.94-7.88,8-8.2,15.75,14.47,5.74,17.91-4.34,17.91-4.34s2.33-4.5,1.24-7.53C92.51,57.78,90,52.77,81.56,53.9Z"/><path class="cls-26" d="M80.79,66.83c-3.89-.64-5.8,4.64-4.8,5.8,1.8,2.07,14.08,11,16.41,9.91,1.14-.54,2-3.09,3-5.05s1.12-8.59-1.51-11.8C93.07,64.66,85.63,67.63,80.79,66.83Z"/><path class="cls-27" d="M57.87,53.77A10.13,10.13,0,0,0,50,57.1c-1.7,2.12.95,8.21.95,8.21s3,9.71,17.35,4C68.45,63.77,69,53.76,57.87,53.77Z"/><path class="cls-28" d="M61.44,66.89c-3.88-.71-12.21-2.12-13.31-.29-.67,1.14-3.21,7.55-2.19,9.51s1.13,7.36,3.7,7.59,17.3-9.77,16.51-12.8C65.77,69.42,65.32,67.61,61.44,66.89Z"/><path class="cls-29" d="M90.54,68.25c-1.37.35-2.33,1.27-2.15,2s1.45,1.12,2.82.76,2.32-1.27,2.14-2S91.9,67.89,90.54,68.25Z"/><path class="cls-30" d="M51.49,68.24c-1.37-.27-2.6.14-2.74.91s.85,1.64,2.22,1.91,2.6-.13,2.74-.9S52.86,68.52,51.49,68.24Z"/><path class="cls-31" d="M71.22,87.86c-3.3-.07-6.07.63-6.17,1.55s2.48,1.72,5.78,1.79,6.06-.63,6.17-1.56S74.52,87.92,71.22,87.86Z"/><path class="cls-8" d="M82.6,55.49C93.15,56.35,92,63.9,92,63.9S94.25,59.2,92,57C88.33,53.52,82.6,55.49,82.6,55.49Z"/><path class="cls-32" d="M76.89,32.16S59.8,27.64,52.16,40.4C44.81,52.68,45.84,64,45,73.2c0,0,2.21-.09,3.08-9.09.88-9.21,4.51-12.93,8.83-17A116.81,116.81,0,0,1,75.84,35c2.29-.2,7.86,2.15,11.82,8.62,6.67,10.9,4.85,15.45,8.43,26.21C96.09,69.79,97.39,36.46,76.89,32.16Z"/><path class="cls-33" d="M82.58,24.21C76.13,19.09,46.21,17,37.88,44.7c-2.09,9.6.07,17.4,1.8,22.65.56-2.44,5.93.56,5.75-3.23.24-13.43,6.92-16.58,6.92-16.58C59.16,39,67.53,34.77,74.1,32.17,82.59,30.83,85.47,26.5,82.58,24.21Z"/><path class="cls-34" d="M79.59,31.75a20.49,20.49,0,0,0-4.3.35c6.85.32,11.12,6,12.93,8.59,4.35,6.22,5,8.45,6,12.08,1.81,6.21,1.12,18.14,5.08,10.75-2.71-7.62-3.64-12.27-6.4-18.11C88.2,35.34,82.22,32,79.59,31.75Z"/><path class="cls-35" d="M55.12,42.11C49.47,47.17,41.81,54.93,41.3,64.73c0,1,3.58-.2,3.78.56.83-2.34.94-5.9,1.17-8.09A29.17,29.17,0,0,1,56.53,44.7C71.74,32.65,76.08,32,76.08,32,71.35,28.18,61.44,36.44,55.12,42.11Z"/><path class="cls-5" d="M68.55,28.21A25.58,25.58,0,0,0,50.2,33.92C43.83,39,40.5,44,39.26,48.86a27.48,27.48,0,0,0-1,7.87,48.05,48.05,0,0,1,3.51-7.42c2.43-4.22,6.51-7.5,11.75-11.53s9.28-6.33,13.77-7.1c5.72-1,8.25,1,8.29,1A11.59,11.59,0,0,0,68.55,28.21Z"/><path class="cls-5" d="M45.52,49.77a28.87,28.87,0,0,0-4.77,6.77c-1.45,2.88-3.31,7-2.87,10.81.32,4,2.59,7.55,4.41,9.92s3.45,4.11,4.12,6.12a22.74,22.74,0,0,1,1,6.86,16.92,16.92,0,0,0,.65-7.92,22.77,22.77,0,0,0-2.81-7.74,19.17,19.17,0,0,1-2.66-8.25C41.89,60.1,44.1,55,46.36,51.22S58.07,39.63,58.27,39.35C58.25,39.38,48.65,46.44,45.52,49.77Z"/><path class="cls-5" d="M94.68,38.12a19,19,0,0,0-5.46-6.56C87,30,84.55,30.19,82.61,30.22a11,11,0,0,0-5.87,1.65,11.08,11.08,0,0,1,5.91-.14c3.38.76,6.48,3.59,8.93,8.56s4.3,8.16,5.79,11.58A36.7,36.7,0,0,0,100,57.25s-.41-2.52-1-6.4A38.75,38.75,0,0,0,94.68,38.12Z"/><path class="cls-32" d="M43.58,63c-2.27-.4-3.49,1-3.57,2.5-.1,1.7,1.45,4.21,2.37,6.4,1.15,2.73.39,5.62,4.59,5.62,0,0-.43-5.76-1.33-13C45.64,64.5,44.35,63.1,43.58,63Z"/><path class="cls-36" d="M44.23,70.9c1.05-7.44-4.23-8.35-3.15-3.27,0,0,1.17-2,1.77-1.28.75.88-.79,1.36,0,5.2a10.6,10.6,0,0,0,2.38,4.1A6.05,6.05,0,0,1,44.23,70.9Z"/><path class="cls-37" d="M45.2,63.74,46,67.63c.75-3.56.23-10.44.23-10.44Z"/><path class="cls-5" d="M82.62,23c-8.38-3.3-21.13-4.15-31.83,3.47-4.39,3.12-11,9.17-12.91,18.21A30.4,30.4,0,0,1,56.23,27c8.62-3.16,18.14-2.61,21.56-2.09,14.63,2.18,22.65,18,22.65,18S98.68,29.34,82.62,23Z"/><path class="cls-32" d="M98.51,63c-.77.13-2.06,1.53-2.06,1.53-.9,7.23-1.33,13-1.33,13,4.21,0,3.45-2.89,4.59-5.62.92-2.19,2.47-4.7,2.37-6.4C102,63.93,100.78,62.57,98.51,63Z"/><path class="cls-38" d="M97.86,70.9a6.05,6.05,0,0,1-1,4.75,10.6,10.6,0,0,0,2.38-4.1c.78-3.84-.76-4.32,0-5.2.6-.72,1.77,1.28,1.77,1.28C102.09,62.55,96.81,63.46,97.86,70.9Z"/><path class="cls-39" d="M87.94,54a30.25,30.25,0,0,0-7.83-.74c-2.15.29-4.28,2.31-2.48,2.29s8-.29,9.87,0c3,.45,4.37,1.54,5,2.27A7.19,7.19,0,0,0,87.94,54Z"/><path class="cls-40" d="M61.59,53.08a29.45,29.45,0,0,0-7.79,1,6.2,6.2,0,0,0-4.16,3.71c.61-.75,1.67-1.63,4.65-2.18,1.84-.34,8.07-.28,9.87-.32S63.76,53.29,61.59,53.08Z"/><path class="cls-41" d="M80.9,76.64a25,25,0,0,1,1.92,4c.18,1,.72,6.77.72,6.77s1.14-7.7,1.14-8.22S80.9,76.64,80.9,76.64Z"/><path class="cls-42" d="M56.89,79.77c.13.36,1.7,7.59,1.7,7.59s.9-6.32.77-6.6a20.33,20.33,0,0,1,1.29-3.36S56.77,79.41,56.89,79.77Z"/><path class="cls-43" d="M49.45,66.3c-7.68,8-1.61,21.15,3,23.46a30,30,0,0,0,8.34,2.57c-2.55-1.13-2.86-1.06-7.52-4.4C43.06,80.58,49,66.91,49.45,66.3Z"/><path class="cls-44" d="M96,68.58l.86-4.28S95,54.3,94.26,52.77C94.26,52.77,95.81,65.33,96,68.58Z"/><path class="cls-45" d="M73.06,57.49l1.52-6.36a9.24,9.24,0,0,0-2.43,4.7C72.1,56.55,73.06,57.49,73.06,57.49Z"/><path class="cls-46" d="M69.56,58.9s.61-4.21-1.89-7C67.67,51.86,69.77,57.82,69.56,58.9Z"/><path class="cls-47" d="M89.22,86.32c-4.93,4.6-6.5,5.37-7.48,5.89.9-.47,6.23-2.09,9.22-5,3.22-3.14,10.2-13,3-21.52C97.72,74.47,93.69,82.16,89.22,86.32Z"/><polygon class="cls-48" points="76.66 75.34 79.99 75.77 75.43 72.45 76.66 75.34"/><polygon class="cls-49" points="65.15 75.51 65.89 72.37 62.24 76.1 65.15 75.51"/><path class="cls-50" d="M58.27,58.66a9.3,9.3,0,0,0-7.88,5.88,5,5,0,0,0,1.8,2,2.3,2.3,0,0,0-1.55,0c1.28.34,3,1,4,1.36,1.4.2,9.38-.12,10.34-.56a14,14,0,0,0-3,.16A12.56,12.56,0,0,0,66,66.12S67.12,58.66,58.27,58.66Z"/><path class="cls-51" d="M60.9,61a5.63,5.63,0,0,1,1.74,3.29,3.56,3.56,0,0,1-1.3,3.06,23.15,23.15,0,0,0,3.59-1.2S63.58,62.61,60.9,61Z"/><path class="cls-52" d="M61.12,61.5a5,5,0,0,1,1.52,2.78,10.12,10.12,0,0,1,2.29,1.86S63.57,62.72,61.12,61.5Z"/><path class="cls-53" d="M57.79,60.31c-1.86.19-3.66,1.22-6.35,3.61A5.74,5.74,0,0,0,57,67.85c-1.26,0-1.79-1.61-1.87-3.08A4.4,4.4,0,0,1,57.79,60.31Z"/><path class="cls-54" d="M62.57,63.79a8.08,8.08,0,0,0-7.57-1,4.39,4.39,0,0,0-.37,2.08c.09,1.43,1.31,2.88,1.9,3a11.07,11.07,0,0,0,4.81-.48,3.42,3.42,0,0,0,1.3-3.06A3.61,3.61,0,0,0,62.57,63.79Z"/><path class="cls-52" d="M51.94,64l.53,1s.64-.26,2.17-1a5.73,5.73,0,0,1,1.89-2.88A7.41,7.41,0,0,0,51.94,64Z"/><path class="cls-55" d="M61.12,61.5a4.2,4.2,0,0,0-1-.36,9,9,0,0,0-3.54.06,3.55,3.55,0,0,0-1.89,2.88,7.62,7.62,0,0,1,4.1-1,9.11,9.11,0,0,1,3.9,1.17A4.91,4.91,0,0,0,61.12,61.5Z"/><path class="cls-56" d="M58.37,61.86A2.69,2.69,0,0,0,56,64.78a2.64,2.64,0,0,0,2.86,2.44,2.69,2.69,0,0,0,2.42-2.92A2.64,2.64,0,0,0,58.37,61.86Z"/><path class="cls-5" d="M59,63.37a.7.7,0,0,0-1,.27.74.74,0,0,0,.22,1,.7.7,0,0,0,1-.27A.75.75,0,0,0,59,63.37Z"/><path class="cls-5" d="M61.29,64.46a.91.91,0,0,0-1.29.33,1,1,0,0,0,.33,1.36.92.92,0,0,0,1.3-.32A1,1,0,0,0,61.29,64.46Z"/><path class="cls-57" d="M54.76,60.54c-1.33.25-3.32,2.1-3.46,3.35a6.11,6.11,0,0,0,1.19,2.2,13.34,13.34,0,0,0,1.64,1,6.55,6.55,0,0,1-1.76-3,8.61,8.61,0,0,1,6.55-2.49c3.54.16,6,4.49,6,4.49C64,61.79,61.38,59.3,54.76,60.54Z"/><path class="cls-58" d="M52.48,60.22s4.36-1.58,7.14-.86,4.67,1.32,4.67,1.32a12.77,12.77,0,0,0-4.42-1.93A9.43,9.43,0,0,0,52.48,60.22Z"/><path class="cls-56" d="M59.4,61.47c-5.78-.55-7,2.67-7,2.67A8.87,8.87,0,0,1,59.19,62c3.27.28,5.74,4.17,5.74,4.17S63.71,61.88,59.4,61.47Z"/><path class="cls-59" d="M91.81,64.73a9.52,9.52,0,0,0-8-6.07c-8.85,0-7.73,7.46-7.73,7.46a12.43,12.43,0,0,0,4.1,1.38c-1.9-.16-3.18-.16-3.18-.16,1.57.65,9.09.76,10.49.56,1-.31,2.67-1,3.95-1.36a2.3,2.3,0,0,0-1.55,0A5.75,5.75,0,0,0,91.81,64.73Z"/><path class="cls-60" d="M81.23,61c-2.67,1.62-4,5.15-4,5.15a23.15,23.15,0,0,0,3.59,1.2,3.56,3.56,0,0,1-1.3-3.06A5.63,5.63,0,0,1,81.23,61Z"/><path class="cls-52" d="M77.2,66.14a10.12,10.12,0,0,1,2.29-1.86A5,5,0,0,1,81,61.5C78.56,62.72,77.2,66.14,77.2,66.14Z"/><path class="cls-61" d="M87,64.77c-.08,1.47-.61,3-1.87,3.08a5.74,5.74,0,0,0,5.55-3.93C88,61.53,86.2,60.5,84.34,60.31A4.4,4.4,0,0,1,87,64.77Z"/><path class="cls-62" d="M79.56,63.79a3.61,3.61,0,0,0-.07.49,3.42,3.42,0,0,0,1.3,3.06,11.07,11.07,0,0,0,4.81.48c.59-.08,1.81-1.53,1.9-3a4.27,4.27,0,0,0-.37-2.08A8.08,8.08,0,0,0,79.56,63.79Z"/><path class="cls-52" d="M85.6,61.2a5.73,5.73,0,0,1,1.89,2.88c1.53.69,2.17,1,2.17,1L90,64A7,7,0,0,0,85.6,61.2Z"/><path class="cls-63" d="M85.6,61.2a9,9,0,0,0-3.54-.06,4.35,4.35,0,0,0-1,.36,4.91,4.91,0,0,0-1.52,2.78,9.11,9.11,0,0,1,3.9-1.17,7.62,7.62,0,0,1,4.1,1A3.55,3.55,0,0,0,85.6,61.2Z"/><path class="cls-56" d="M83.76,61.86A2.64,2.64,0,0,0,80.9,64.3a2.69,2.69,0,0,0,2.42,2.92,2.64,2.64,0,0,0,2.86-2.44A2.69,2.69,0,0,0,83.76,61.86Z"/><path class="cls-5" d="M84.07,63.37a.7.7,0,0,0-1,.27.74.74,0,0,0,.22,1,.7.7,0,0,0,1-.27A.75.75,0,0,0,84.07,63.37Z"/><path class="cls-5" d="M86.32,64.46a.91.91,0,0,0-1.29.33,1,1,0,0,0,.33,1.36.92.92,0,0,0,1.3-.32A1,1,0,0,0,86.32,64.46Z"/><path class="cls-64" d="M87.37,60.54c-6.61-1.24-9.24,1.25-10.17,5.6,0,0,2.47-4.33,6-4.49a8.61,8.61,0,0,1,6.55,2.49,6.55,6.55,0,0,1-1.76,3,6.8,6.8,0,0,0,1.64-1,6.67,6.67,0,0,0,1.2-2.2A5.81,5.81,0,0,0,87.37,60.54Z"/><path class="cls-58" d="M82.26,58.66a11.93,11.93,0,0,0-4.32,1.92,13.66,13.66,0,0,1,4.66-1.46c2.84-.39,7.05,1.1,7.05,1.1A9.39,9.39,0,0,0,82.26,58.66Z"/><path class="cls-56" d="M82.73,61.47c-4.3.41-5.53,4.67-5.53,4.67s2.47-3.89,5.74-4.17a8.87,8.87,0,0,1,6.82,2.17S88.51,60.92,82.73,61.47Z"/><polygon class="cls-65" points="70.92 76.69 66.61 76.69 66.13 77.25 71.17 80.43 75.91 77.16 75.23 76.64 70.92 76.69"/><path class="cls-66" d="M70.91,76.8,67.77,76l-1.64.18.15,1a6.38,6.38,0,0,1,3.59.1h2a7.1,7.1,0,0,1,4-.11L76,76.3,74.36,76Z"/><path class="cls-32" d="M75.85,73.5s.75,1.16.43,1.9-2.47.1-3.35.6c-1.62.93-2.6.7-4.21,0-1.06-.46-2.55.12-3.14-.68a2.26,2.26,0,0,1,0-1.82,2.17,2.17,0,0,0-1,1.7,2,2,0,0,0,1.69,2c.25-.15-.2-1.22,1.27-1s1.4.87,1.64,1.11a7.52,7.52,0,0,0,3.28,0c.44-.25.32-1.18,1.72-1.14s1.43.92,1.63,1,1-.57,1.27-1.87S75.85,73.5,75.85,73.5Z"/><path class="cls-67" d="M67.59,72.86a2.53,2.53,0,0,0,.51,1.88c.64.9,5.14,1.63,5.92-.43a4.72,4.72,0,0,0,.06-1.87C74,71.52,67.61,72,67.59,72.86Z"/><path class="cls-68" d="M59.62,80.5s.43.74,6.75,1.13A51.27,51.27,0,0,0,76,81.57a22.91,22.91,0,0,0,6.11-1.3H70.76C63.06,80.28,59.62,80.5,59.62,80.5Z"/><path class="cls-69" d="M57.77,79.79c-.47,1.79,3.44,1,6.64,2.39C61.9,81.21,58,79.1,57.77,79.79Z"/><path class="cls-70" d="M61.8,81.37a11.47,11.47,0,0,0,9.57,4.95A11.15,11.15,0,0,0,80,82S69.74,83.29,61.8,81.37Z"/><path class="cls-71" d="M77.28,82.17c3.2-1.35,7.11-.61,6.64-2.4C83.73,79.09,79.79,81.2,77.28,82.17Z"/><path class="cls-72" d="M82.26,80.22a16.26,16.26,0,0,1-6.15,1.12c-.71,0-9.74-.15-10.31-.12-1.39-.12-4,.11-5.62-.59a12,12,0,0,0-1.9-.86c-.17.1.08,1.21,1.31,1.14,2.9.37,3.69,1.7,5.4,1.88.5.07,10.45,0,10.85,0,2.41,0,3.35-1.58,6.27-2,1.38,0,1.39-1,1.39-1S83,79.87,82.26,80.22Z"/><path class="cls-73" d="M59.79,80.44c.12,0,3,1.61,11.07,1.74,6.13.09,9.68-1.05,10.58-1.64-2.39.23-6.71.59-10.9.57A55.63,55.63,0,0,1,59.79,80.44Z"/><path class="cls-73" d="M70.71,82.62c-7.93-.18-9-1.58-10.19-1.52,1.41,1.27,2.47,1.44,3.24,2.1a11.65,11.65,0,0,0,7.36,2.26,12.57,12.57,0,0,0,6.16-1.8,39.72,39.72,0,0,0,4.44-2.79C80.51,80.84,78.17,82.79,70.71,82.62Z"/><path class="cls-74" d="M70.36,83.19c-4.63-.14-7-1.1-6.82-.79.26.59,1.11,1,2.35,1.72a10.86,10.86,0,0,0,5,.95,8.3,8.3,0,0,0,4.8-1,8.37,8.37,0,0,0,2.38-1.49C78.11,82.32,75.17,83.34,70.36,83.19Z"/><path class="cls-75" d="M69.93,83.91c-.51.35,1.58.52,2.5.46s2.53-.65,2.37-.9S69.93,83.91,69.93,83.91Z"/><path class="cls-76" d="M70.82,96.69c-5.2-.25-7.09-1.11-10.14-4.36,0,0,2.16,5.23,9.7,5.36,2.65,0,7.86-.27,11.36-5.48C81.74,92.21,77.28,97,70.82,96.69Z"/><path class="cls-77" d="M29.9,130.41c.47.34,1,.67,1.43,1-.13-1.61-.24-2.82-.35-3.49C30.49,124.73,30.14,127,29.9,130.41Z"/><path class="cls-78" d="M108.48,127.92c-.15,1-.36,3.32-.58,6.51.62-.36,1.23-.73,1.84-1.11C109.5,128.72,109.12,123.86,108.48,127.92Z"/><path class="cls-79" d="M106.83,113.46c-.17-6.57-3.23-9.33-3.23-9.33l-2.36,33.68q2.28-1,4.48-2.18C106.44,124.29,106.89,115.62,106.83,113.46Z"/><path class="cls-80" d="M104,103.44c-1.42-1.94-19.7-8.17-19.7-8.17,4.15,2.23,10.43,6.58,9.59,40.06,0,1.74-.08,3.52-.1,5.32a72.12,72.12,0,0,0,10-4C104.87,120,105.24,106.32,104,103.44Z"/><path class="cls-81" d="M34.13,118.44c0,2.29.32,7.94.82,15.3,1.84,1.11,3.74,2.14,5.68,3.08l-3-32.32S34.13,108.49,34.13,118.44Z"/><path class="cls-82" d="M57,95.77s-18.54,6.4-20,8.33c-1.21,2.76-.83,15.36.29,31a72,72,0,0,0,9.9,4.51c0-1.23,0-2.45-.07-3.64C46.34,102.52,52.89,98,57,95.77Z"/><path class="cls-19" d="M17.74,119.32a71.83,71.83,0,0,0,7.15,7.13l-1.28-14S20.86,114.31,17.74,119.32Z"/><path class="cls-83" d="M36,105.15s-11.6,5.34-15,8.62a44.69,44.69,0,0,0-4.17,4.54c.88,1,1.78,2.06,2.72,3a11,11,0,0,1,1.2-1.74A115.43,115.43,0,0,1,36,105.15Z"/><path class="cls-19" d="M123.36,122.45c-5.26-9.61-11-12.5-11-12.5l-.11,21.76A72.5,72.5,0,0,0,123.36,122.45Z"/><path class="cls-84" d="M124.46,121.31a29.29,29.29,0,0,0-7.31-8.87A102.08,102.08,0,0,0,105,104.51s9.91,9.39,14,16.24a37.46,37.46,0,0,1,2,4Q122.8,123.07,124.46,121.31Z"/></svg>