<svg id="Layer_1" data-name="Layer 1" xmlns="http://www.w3.org/2000/svg" xmlns:xlink="http://www.w3.org/1999/xlink" viewBox="0 0 144 144"><defs><style>.cls-1{fill:#f6ece6;}.cls-2{fill:#1f1514;}.cls-3{fill:#f6d4ab;}.cls-4{fill:url(#linear-gradient);}.cls-5{fill:url(#linear-gradient-2);}.cls-6{fill:url(#linear-gradient-3);}.cls-7{fill:url(#linear-gradient-4);}.cls-8{fill:url(#_ÂÁ_Ï_ÌÌ_È_ËÂÌÚ_1204);}.cls-9{fill:url(#_ÂÁ_Ï_ÌÌ_È_ËÂÌÚ_1204-2);}.cls-10{fill:url(#linear-gradient-5);}.cls-11{fill:url(#linear-gradient-6);}.cls-12{fill:url(#_ÂÁ_Ï_ÌÌ_È_ËÂÌÚ_146);}.cls-13{fill:url(#_ÂÁ_Ï_ÌÌ_È_ËÂÌÚ_1204-3);}.cls-14{fill:#0c866e;}.cls-15{fill:#f0c499;}.cls-16{fill:url(#linear-gradient-7);}.cls-17{fill:url(#linear-gradient-8);}.cls-18{fill:url(#_ÂÁ_Ï_ÌÌ_È_ËÂÌÚ_34);}.cls-19{fill:url(#linear-gradient-9);}.cls-20{fill:url(#_ÂÁ_Ï_ÌÌ_È_ËÂÌÚ_1048);}.cls-21{fill:url(#linear-gradient-10);}.cls-22{fill:url(#_ÂÁ_Ï_ÌÌ_È_ËÂÌÚ_33);}.cls-23{fill:url(#linear-gradient-11);}.cls-24{fill:url(#_ÂÁ_Ï_ÌÌ_È_ËÂÌÚ_1047);}.cls-25{fill:url(#_ÂÁ_Ï_ÌÌ_È_ËÂÌÚ_2143);}.cls-26{fill:url(#_ÂÁ_Ï_ÌÌ_È_ËÂÌÚ_2144);}.cls-27{fill:url(#_ÂÁ_Ï_ÌÌ_È_ËÂÌÚ_1204-4);}.cls-28{fill:url(#_ÂÁ_Ï_ÌÌ_È_ËÂÌÚ_44);}.cls-29{fill:url(#_ÂÁ_Ï_ÌÌ_È_ËÂÌÚ_44-2);}.cls-30{fill:url(#_ÂÁ_Ï_ÌÌ_È_ËÂÌÚ_1204-5);}.cls-31{fill:url(#_ÂÁ_Ï_ÌÌ_È_ËÂÌÚ_1204-6);}.cls-32{fill:url(#_ÂÁ_Ï_ÌÌ_È_ËÂÌÚ_106);}.cls-33{fill:url(#linear-gradient-12);}.cls-34{fill:url(#linear-gradient-13);}.cls-35{fill:url(#_ÂÁ_Ï_ÌÌ_È_ËÂÌÚ_106-2);}.cls-36{fill:url(#_ÂÁ_Ï_ÌÌ_È_ËÂÌÚ_1204-7);}.cls-37{fill:url(#linear-gradient-14);}.cls-38{fill:#ddd;}.cls-39{fill:url(#linear-gradient-15);}.cls-40{fill:url(#linear-gradient-16);}.cls-41{fill:url(#linear-gradient-17);}.cls-42{fill:url(#radial-gradient);}.cls-43{fill:#fff;}.cls-44{fill:url(#_ÂÁ_Ï_ÌÌ_È_ËÂÌÚ_1655);}.cls-45{fill:url(#_ÂÁ_Ï_ÌÌ_È_ËÂÌÚ_1204-8);}.cls-46{fill:url(#_ÂÁ_Ï_ÌÌ_È_ËÂÌÚ_44-3);}.cls-47{fill:url(#_ÂÁ_Ï_ÌÌ_È_ËÂÌÚ_1204-9);}.cls-48{fill:url(#_ÂÁ_Ï_ÌÌ_È_ËÂÌÚ_1061);}.cls-49{fill:url(#linear-gradient-18);}.cls-50{fill:url(#linear-gradient-19);}.cls-51{fill:url(#_ÂÁ_Ï_ÌÌ_È_ËÂÌÚ_1050);}.cls-52{fill:url(#_ÂÁ_Ï_ÌÌ_È_ËÂÌÚ_2146);}.cls-53{fill:url(#radial-gradient-2);}.cls-54{fill:url(#_ÂÁ_Ï_ÌÌ_È_ËÂÌÚ_1049);}.cls-55{fill:url(#_ÂÁ_Ï_ÌÌ_È_ËÂÌÚ_1204-10);}.cls-56{fill:url(#_ÂÁ_Ï_ÌÌ_È_ËÂÌÚ_44-4);}.cls-57{fill:url(#_ÂÁ_Ï_ÌÌ_È_ËÂÌÚ_1061-2);}.cls-58{fill:url(#_ÂÁ_Ï_ÌÌ_È_ËÂÌÚ_1061-3);}.cls-59{fill:url(#linear-gradient-20);}.cls-60{fill:#971b27;}.cls-61{fill:#f26d79;}.cls-62{fill:url(#linear-gradient-21);}.cls-63{fill:url(#linear-gradient-22);}.cls-64{fill:url(#linear-gradient-23);}.cls-65{fill:#f598a2;}.cls-66{fill:url(#linear-gradient-24);}.cls-67{fill:url(#linear-gradient-25);}.cls-68{fill:url(#linear-gradient-26);}.cls-69{fill:url(#linear-gradient-27);}.cls-70{fill:url(#linear-gradient-28);}.cls-71{fill:url(#linear-gradient-29);}.cls-72{fill:url(#_ÂÁ_Ï_ÌÌ_È_ËÂÌÚ_42);}.cls-73{fill:url(#_ÂÁ_Ï_ÌÌ_È_ËÂÌÚ_42-2);}.cls-74{fill:url(#_ÂÁ_Ï_ÌÌ_È_ËÂÌÚ_42-3);}.cls-75{fill:url(#_ÂÁ_Ï_ÌÌ_È_ËÂÌÚ_42-4);}.cls-76{fill:url(#_ÂÁ_Ï_ÌÌ_È_ËÂÌÚ_42-5);}.cls-77{fill:url(#_ÂÁ_Ï_ÌÌ_È_ËÂÌÚ_70);}.cls-78{fill:url(#_ÂÁ_Ï_ÌÌ_È_ËÂÌÚ_42-6);}.cls-79{fill:url(#_ÂÁ_Ï_ÌÌ_È_ËÂÌÚ_70-2);}.cls-80{fill:url(#linear-gradient-30);}.cls-81{fill:url(#_ÂÁ_Ï_ÌÌ_È_ËÂÌÚ_2141);}.cls-82{fill:url(#_ÂÁ_Ï_ÌÌ_È_ËÂÌÚ_2141-2);}</style><linearGradient id="linear-gradient" x1="75.41" y1="150.59" x2="74.11" y2="110.39" gradientUnits="userSpaceOnUse"><stop offset="0" stop-color="#f0c499"/><stop offset="0.52" stop-color="#f1c69c"/><stop offset="0.85" stop-color="#f4cea4"/><stop offset="1" stop-color="#f6d4ab"/></linearGradient><linearGradient id="linear-gradient-2" x1="46.23" y1="116.19" x2="46.25" y2="116.2" xlink:href="#linear-gradient"/><linearGradient id="linear-gradient-3" x1="61.9" y1="98.99" x2="97.44" y2="109.06" xlink:href="#linear-gradient"/><linearGradient id="linear-gradient-4" x1="71.54" y1="146.04" x2="75.29" y2="110.88" gradientUnits="userSpaceOnUse"><stop offset="0" stop-color="#f6d4ab"/><stop offset="0.52" stop-color="#f5d2a8"/><stop offset="0.85" stop-color="#f2caa0"/><stop offset="1" stop-color="#f0c499"/></linearGradient><linearGradient id="_ÂÁ_Ï_ÌÌ_È_ËÂÌÚ_1204" x1="55.04" y1="144.25" x2="58.79" y2="109.13" gradientUnits="userSpaceOnUse"><stop offset="0" stop-color="#dca47a"/><stop offset="0.5" stop-color="#e5b287"/><stop offset="1" stop-color="#f0c499"/></linearGradient><linearGradient id="_ÂÁ_Ï_ÌÌ_È_ËÂÌÚ_1204-2" x1="15.67" y1="71.56" x2="86.39" y2="98.04" xlink:href="#_ÂÁ_Ï_ÌÌ_È_ËÂÌÚ_1204"/><linearGradient id="linear-gradient-5" x1="30.07" y1="95.04" x2="32.49" y2="132.51" xlink:href="#linear-gradient-4"/><linearGradient id="linear-gradient-6" x1="112.28" y1="93.93" x2="114.49" y2="128.18" xlink:href="#linear-gradient-4"/><linearGradient id="_ÂÁ_Ï_ÌÌ_È_ËÂÌÚ_146" x1="90.64" y1="135.5" x2="69.53" y2="106.54" gradientUnits="userSpaceOnUse"><stop offset="0" stop-color="#f6d4ab"/><stop offset="0.15" stop-color="#f4cea4"/><stop offset="0.48" stop-color="#f1c69c"/><stop offset="1" stop-color="#f0c499"/></linearGradient><linearGradient id="_ÂÁ_Ï_ÌÌ_È_ËÂÌÚ_1204-3" x1="107.58" y1="113.99" x2="83.96" y2="114.75" xlink:href="#_ÂÁ_Ï_ÌÌ_È_ËÂÌÚ_1204"/><linearGradient id="linear-gradient-7" x1="45.84" y1="140.47" x2="46.51" y2="163.91" xlink:href="#_ÂÁ_Ï_ÌÌ_È_ËÂÌÚ_1204"/><linearGradient id="linear-gradient-8" x1="101.88" y1="139.37" x2="102.54" y2="162.46" xlink:href="#_ÂÁ_Ï_ÌÌ_È_ËÂÌÚ_1204"/><linearGradient id="_ÂÁ_Ï_ÌÌ_È_ËÂÌÚ_34" x1="71.62" y1="35.35" x2="71.53" y2="98.27" gradientUnits="userSpaceOnUse"><stop offset="0" stop-color="#fed8b4"/><stop offset="0.35" stop-color="#f9d5ae"/><stop offset="1" stop-color="#f6d4ab"/></linearGradient><linearGradient id="linear-gradient-9" x1="59.87" y1="75.59" x2="56.9" y2="57.21" xlink:href="#linear-gradient-4"/><radialGradient id="_ÂÁ_Ï_ÌÌ_È_ËÂÌÚ_1048" cx="36.37" cy="-1367.96" r="22.17" gradientTransform="translate(35.83 985.77) scale(0.55 0.66)" gradientUnits="userSpaceOnUse"><stop offset="0" stop-color="#f8b38e"/><stop offset="0.48" stop-color="#f7c69e"/><stop offset="0.8" stop-color="#f6d4ab"/></radialGradient><linearGradient id="linear-gradient-10" x1="65.41" y1="91.85" x2="76.23" y2="91.85" gradientUnits="userSpaceOnUse"><stop offset="0" stop-color="#fed8b4"/><stop offset="0.65" stop-color="#fbd7b1"/><stop offset="1" stop-color="#f6d4ab"/></linearGradient><linearGradient id="_ÂÁ_Ï_ÌÌ_È_ËÂÌÚ_33" x1="89.78" y1="37.91" x2="59.63" y2="62.57" gradientUnits="userSpaceOnUse"><stop offset="0" stop-color="#f6d4ab"/><stop offset="0.97" stop-color="#f0c59a"/><stop offset="1" stop-color="#f0c499"/></linearGradient><linearGradient id="linear-gradient-11" x1="85.8" y1="72.83" x2="83.09" y2="57.8" xlink:href="#linear-gradient-4"/><radialGradient id="_ÂÁ_Ï_ÌÌ_È_ËÂÌÚ_1047" cx="92.8" cy="-1492.94" r="22.17" gradientTransform="translate(35.83 1087.59) scale(0.55 0.68)" gradientUnits="userSpaceOnUse"><stop offset="0" stop-color="#f8b38e"/><stop offset="0.44" stop-color="#f7c69e"/><stop offset="0.72" stop-color="#f6d4ab"/></radialGradient><linearGradient id="_ÂÁ_Ï_ÌÌ_È_ËÂÌÚ_2143" x1="49.56" y1="92.16" x2="49.33" y2="51.31" gradientUnits="userSpaceOnUse"><stop offset="0" stop-color="#f8b38e"/><stop offset="1" stop-color="#f0c499"/></linearGradient><linearGradient id="_ÂÁ_Ï_ÌÌ_È_ËÂÌÚ_2144" x1="94.84" y1="91.91" x2="94.61" y2="51.06" xlink:href="#_ÂÁ_Ï_ÌÌ_È_ËÂÌÚ_2143"/><linearGradient id="_ÂÁ_Ï_ÌÌ_È_ËÂÌÚ_1204-4" x1="71.68" y1="92.11" x2="70.73" y2="105.95" xlink:href="#_ÂÁ_Ï_ÌÌ_È_ËÂÌÚ_1204"/><linearGradient id="_ÂÁ_Ï_ÌÌ_È_ËÂÌÚ_44" x1="78.56" y1="56.53" x2="94.58" y2="56.53" gradientUnits="userSpaceOnUse"><stop offset="0" stop-color="#39231e"/><stop offset="0.77" stop-color="#291915"/></linearGradient><linearGradient id="_ÂÁ_Ï_ÌÌ_È_ËÂÌÚ_44-2" x1="48.51" y1="56.53" x2="64.53" y2="56.53" xlink:href="#_ÂÁ_Ï_ÌÌ_È_ËÂÌÚ_44"/><linearGradient id="_ÂÁ_Ï_ÌÌ_È_ËÂÌÚ_1204-5" x1="45.99" y1="77.18" x2="58.92" y2="77.18" xlink:href="#_ÂÁ_Ï_ÌÌ_È_ËÂÌÚ_1204"/><linearGradient id="_ÂÁ_Ï_ÌÌ_È_ËÂÌÚ_1204-6" x1="84.73" y1="77.28" x2="97.86" y2="77.28" xlink:href="#_ÂÁ_Ï_ÌÌ_È_ËÂÌÚ_1204"/><linearGradient id="_ÂÁ_Ï_ÌÌ_È_ËÂÌÚ_106" x1="71.96" y1="91.39" x2="72.07" y2="83.81" gradientUnits="userSpaceOnUse"><stop offset="0" stop-color="#f6d4ab"/><stop offset="1" stop-color="#fed8b4"/></linearGradient><linearGradient id="linear-gradient-12" x1="72.32" y1="81.44" x2="71.42" y2="76.94" xlink:href="#linear-gradient-4"/><linearGradient id="linear-gradient-13" x1="71.62" y1="76.6" x2="71.59" y2="80.12" xlink:href="#_ÂÁ_Ï_ÌÌ_È_ËÂÌÚ_1204"/><linearGradient id="_ÂÁ_Ï_ÌÌ_È_ËÂÌÚ_106-2" x1="71.4" y1="71.8" x2="71.45" y2="75.42" xlink:href="#_ÂÁ_Ï_ÌÌ_È_ËÂÌÚ_106"/><linearGradient id="_ÂÁ_Ï_ÌÌ_È_ËÂÌÚ_1204-7" x1="91.63" y1="62.4" x2="77.61" y2="67.84" xlink:href="#_ÂÁ_Ï_ÌÌ_È_ËÂÌÚ_1204"/><linearGradient id="linear-gradient-14" x1="78.03" y1="65.58" x2="82.05" y2="65.58" gradientUnits="userSpaceOnUse"><stop offset="0" stop-color="#fff"/><stop offset="0.46" stop-color="#fdfcfc"/><stop offset="0.76" stop-color="#f6f4f4"/><stop offset="1" stop-color="#ece7e6"/></linearGradient><linearGradient id="linear-gradient-15" x1="87.13" y1="65.13" x2="90.7" y2="65.13" xlink:href="#linear-gradient-14"/><linearGradient id="linear-gradient-16" x1="89.63" y1="68.95" x2="79.8" y2="62.81" gradientUnits="userSpaceOnUse"><stop offset="0" stop-color="#b89c8c"/><stop offset="1" stop-color="#725342"/></linearGradient><linearGradient id="linear-gradient-17" x1="98.13" y1="65.62" x2="84.95" y2="64.05" xlink:href="#linear-gradient-16"/><radialGradient id="radial-gradient" cx="87" cy="110.94" r="5.36" gradientTransform="translate(35.83 5.47) scale(0.55 0.54)" gradientUnits="userSpaceOnUse"><stop offset="0" stop-color="#2b3b3b"/><stop offset="1" stop-color="#1d2827"/></radialGradient><linearGradient id="_ÂÁ_Ï_ÌÌ_È_ËÂÌÚ_1655" x1="78.02" y1="64.85" x2="93.2" y2="64.85" gradientUnits="userSpaceOnUse"><stop offset="0" stop-color="#4e332f"/><stop offset="0.06" stop-color="#4c312d"/><stop offset="0.55" stop-color="#3f2723"/><stop offset="1" stop-color="#3a241f"/></linearGradient><linearGradient id="_ÂÁ_Ï_ÌÌ_È_ËÂÌÚ_1204-8" x1="84.95" y1="61.79" x2="73.15" y2="76.8" xlink:href="#_ÂÁ_Ï_ÌÌ_È_ËÂÌÚ_1204"/><linearGradient id="_ÂÁ_Ï_ÌÌ_È_ËÂÌÚ_44-3" x1="78.12" y1="65.3" x2="90.83" y2="65.3" xlink:href="#_ÂÁ_Ï_ÌÌ_È_ËÂÌÚ_44"/><linearGradient id="_ÂÁ_Ï_ÌÌ_È_ËÂÌÚ_1204-9" x1="88.88" y1="65.9" x2="78.82" y2="69.8" xlink:href="#_ÂÁ_Ï_ÌÌ_È_ËÂÌÚ_1204"/><linearGradient id="_ÂÁ_Ï_ÌÌ_È_ËÂÌÚ_1061" x1="64.54" y1="62.98" x2="52.8" y2="67.54" gradientUnits="userSpaceOnUse"><stop offset="0" stop-color="#f0c499"/><stop offset="0.5" stop-color="#e5b287"/><stop offset="1" stop-color="#dca47a"/></linearGradient><linearGradient id="linear-gradient-18" x1="61.6" y1="65.58" x2="65.63" y2="65.58" xlink:href="#linear-gradient-14"/><linearGradient id="linear-gradient-19" x1="53.97" y1="65.13" x2="57.54" y2="65.13" xlink:href="#linear-gradient-14"/><linearGradient id="_ÂÁ_Ï_ÌÌ_È_ËÂÌÚ_1050" x1="64.28" y1="69.51" x2="53.79" y2="62.95" xlink:href="#linear-gradient-16"/><linearGradient id="_ÂÁ_Ï_ÌÌ_È_ËÂÌÚ_2146" x1="58.95" y1="63.96" x2="64.89" y2="71.84" gradientUnits="userSpaceOnUse"><stop offset="0" stop-color="#725342"/><stop offset="1" stop-color="#b89c8c"/></linearGradient><radialGradient id="radial-gradient-2" cx="41.35" cy="110.94" r="5.36" xlink:href="#radial-gradient"/><linearGradient id="_ÂÁ_Ï_ÌÌ_È_ËÂÌÚ_1049" x1="50.46" y1="64.85" x2="65.64" y2="64.85" gradientUnits="userSpaceOnUse"><stop offset="0" stop-color="#3a241f"/><stop offset="0.45" stop-color="#3f2723"/><stop offset="0.94" stop-color="#4c312d"/><stop offset="1" stop-color="#4e332f"/></linearGradient><linearGradient id="_ÂÁ_Ï_ÌÌ_È_ËÂÌÚ_1204-10" x1="60.2" y1="62.02" x2="53.47" y2="70.59" xlink:href="#_ÂÁ_Ï_ÌÌ_È_ËÂÌÚ_1204"/><linearGradient id="_ÂÁ_Ï_ÌÌ_È_ËÂÌÚ_44-4" x1="53" y1="65.3" x2="65.71" y2="65.3" xlink:href="#_ÂÁ_Ï_ÌÌ_È_ËÂÌÚ_44"/><linearGradient id="_ÂÁ_Ï_ÌÌ_È_ËÂÌÚ_1061-2" x1="64.76" y1="65.85" x2="54.87" y2="69.69" xlink:href="#_ÂÁ_Ï_ÌÌ_È_ËÂÌÚ_1061"/><linearGradient id="_ÂÁ_Ï_ÌÌ_È_ËÂÌÚ_1061-3" x1="58.04" y1="82.01" x2="64.37" y2="82.01" xlink:href="#_ÂÁ_Ï_ÌÌ_È_ËÂÌÚ_1061"/><linearGradient id="linear-gradient-20" x1="79.19" y1="82.01" x2="85.48" y2="82.01" xlink:href="#_ÂÁ_Ï_ÌÌ_È_ËÂÌÚ_1204"/><linearGradient id="linear-gradient-21" x1="71.83" y1="82.13" x2="71.79" y2="83.79" gradientUnits="userSpaceOnUse"><stop offset="0" stop-color="#f26e7f"/><stop offset="0.02" stop-color="#f26f80"/><stop offset="0.24" stop-color="#f37986"/><stop offset="0.53" stop-color="#f37c88"/><stop offset="0.77" stop-color="#f37885"/><stop offset="1" stop-color="#f26d7d"/></linearGradient><linearGradient id="linear-gradient-22" x1="64.19" y1="85.91" x2="79.61" y2="85.91" xlink:href="#_ÂÁ_Ï_ÌÌ_È_ËÂÌÚ_1204"/><linearGradient id="linear-gradient-23" x1="71.29" y1="87.59" x2="71.67" y2="84.24" xlink:href="#linear-gradient-21"/><linearGradient id="linear-gradient-24" x1="64.25" y1="46.19" x2="64.25" y2="48.07" gradientUnits="userSpaceOnUse"><stop offset="0" stop-color="#3d2b26"/><stop offset="0.16" stop-color="#362621"/><stop offset="0.54" stop-color="#2c1e1a"/><stop offset="1" stop-color="#291b18"/></linearGradient><linearGradient id="linear-gradient-25" x1="71.38" y1="44.97" x2="71.37" y2="45.87" xlink:href="#linear-gradient-24"/><linearGradient id="linear-gradient-26" x1="71.8" y1="21.21" x2="71.66" y2="98" xlink:href="#linear-gradient-24"/><linearGradient id="linear-gradient-27" x1="101.93" y1="90.87" x2="90.1" y2="43.39" xlink:href="#linear-gradient-24"/><linearGradient id="linear-gradient-28" x1="55.81" y1="44.35" x2="50.49" y2="62.38" xlink:href="#linear-gradient-24"/><linearGradient id="linear-gradient-29" x1="89.45" y1="95.35" x2="77.24" y2="46.37" xlink:href="#linear-gradient-24"/><linearGradient id="_ÂÁ_Ï_ÌÌ_È_ËÂÌÚ_42" x1="65.79" y1="59.4" x2="84.12" y2="26.42" gradientUnits="userSpaceOnUse"><stop offset="0" stop-color="#291b18"/><stop offset="0.46" stop-color="#2c1e1a"/><stop offset="0.84" stop-color="#362621"/><stop offset="1" stop-color="#3d2b26"/></linearGradient><linearGradient id="_ÂÁ_Ï_ÌÌ_È_ËÂÌÚ_42-2" x1="60.63" y1="58.03" x2="76.5" y2="29.48" xlink:href="#_ÂÁ_Ï_ÌÌ_È_ËÂÌÚ_42"/><linearGradient id="_ÂÁ_Ï_ÌÌ_È_ËÂÌÚ_42-3" x1="55.41" y1="56.12" x2="72.99" y2="24.49" xlink:href="#_ÂÁ_Ï_ÌÌ_È_ËÂÌÚ_42"/><linearGradient id="_ÂÁ_Ï_ÌÌ_È_ËÂÌÚ_42-4" x1="54.09" y1="51.91" x2="72.27" y2="19.22" xlink:href="#_ÂÁ_Ï_ÌÌ_È_ËÂÌÚ_42"/><linearGradient id="_ÂÁ_Ï_ÌÌ_È_ËÂÌÚ_42-5" x1="63.52" y1="85.28" x2="58.4" y2="34.28" xlink:href="#_ÂÁ_Ï_ÌÌ_È_ËÂÌÚ_42"/><linearGradient id="_ÂÁ_Ï_ÌÌ_È_ËÂÌÚ_70" x1="61.56" y1="22.99" x2="59.56" y2="40.83" gradientUnits="userSpaceOnUse"><stop offset="0" stop-color="#4d3733"/><stop offset="0.5" stop-color="#422e2a"/><stop offset="1" stop-color="#3d2b26"/></linearGradient><linearGradient id="_ÂÁ_Ï_ÌÌ_È_ËÂÌÚ_42-6" x1="97.94" y1="80.24" x2="94.51" y2="37.99" xlink:href="#_ÂÁ_Ï_ÌÌ_È_ËÂÌÚ_42"/><linearGradient id="_ÂÁ_Ï_ÌÌ_È_ËÂÌÚ_70-2" x1="96.25" y1="25.9" x2="94.53" y2="41.25" xlink:href="#_ÂÁ_Ï_ÌÌ_È_ËÂÌÚ_70"/><linearGradient id="linear-gradient-30" x1="98.78" y1="91.67" x2="86.95" y2="44.18" xlink:href="#linear-gradient-24"/><linearGradient id="_ÂÁ_Ï_ÌÌ_È_ËÂÌÚ_2141" x1="47.67" y1="96.83" x2="40.62" y2="64.15" gradientUnits="userSpaceOnUse"><stop offset="0" stop-color="#3d2b26"/><stop offset="0.81" stop-color="#2d1f1b"/><stop offset="1" stop-color="#291b18"/></linearGradient><linearGradient id="_ÂÁ_Ï_ÌÌ_È_ËÂÌÚ_2141-2" x1="96.99" y1="94.95" x2="91.17" y2="67.94" xlink:href="#_ÂÁ_Ï_ÌÌ_È_ËÂÌÚ_2141"/></defs><circle class="cls-1" cx="72" cy="72" r="72" transform="translate(-23.55 36.81) rotate(-24.78)"/><path class="cls-2" d="M43.83,56.13C37,80.44,56,94.81,56,94.81l33-.34s13.24-7,14.12-42.37C103.45,37.78,48,41.45,43.83,56.13Z"/><path class="cls-3" d="M121.75,124.05a37.35,37.35,0,0,0-1.48-4c-3.29-7.44-11.06-8.19-12.22-8.3-4.06-.39-20.29.15-22-5.2C84,99.88,84,84.06,84,84.06l-25.12-.93c2.85,4.69,3.11,22-1.58,25.82-3.61,2.9-12,3.17-17.88,3.81-3.2.34-12.63,2-15.25,11.44-.12.43-.23.86-.33,1.31a72,72,0,0,0,97.92-1.46Z"/><path class="cls-4" d="M108.86,111.76a19.21,19.21,0,0,0-3.19-.16c-2.85,8.05-26.49,14.57-34.79,14.57-11.18,0-26.88-5.85-29.4-13.65a14.79,14.79,0,0,1-2,.2s2.11,19.06,13.84,28.83a72.4,72.4,0,0,0,31.36,1.33C100.94,133.45,108.86,111.76,108.86,111.76Z"/><path class="cls-5" d="M46.26,116.11c-.09.19,0,.25,0,0Z"/><path class="cls-6" d="M87.92,106c-.58-.74-3.79-4.29-3.17-22.1C84.4,84.33,58.38,85,58.38,85s3,15.54,0,20.47c-3.68,6.15-13.1,6.94-13.1,6.94a10.59,10.59,0,0,1,1,3.73c.11-.23.47-.64,1.49-.84,11.68-2.35,15.3-8.36,15.3-8.36,14.68.67,18.24-4.54,18.24-4.54-1.5,8.69,10.46,10.31,15.47,11.26,5.34,1,10.18-2,10.18-2C93.49,110.53,89.36,107.86,87.92,106Z"/><path class="cls-7" d="M71.46,118.08s4.66.81,5.88,2.24C77.34,120.32,76,116.65,71.46,118.08Z"/><path class="cls-8" d="M67.61,113.86c-2.23-.74-19.27-1.78-22.33-1.48,0,0,21.5,2.13,25.82,4.77A7.11,7.11,0,0,0,67.61,113.86Z"/><path class="cls-9" d="M57.68,81c.45,2.41,2,18.65,2,18.65,16,12,25-6.29,25-6.29l-.08-8.68Z"/><path class="cls-10" d="M28,117.64c2,3,3.35,9.17,4.27,14.39,1.27.85,2.58,1.67,3.91,2.43A90.84,90.84,0,0,0,31,115.27C29.63,115.6,28,117.64,28,117.64Z"/><path class="cls-11" d="M115.9,114.4a158.86,158.86,0,0,0-5.14,18.28c1-.63,2-1.29,2.92-2,1-5.86,2.35-12.42,4.06-14.49Z"/><path class="cls-12" d="M73.83,120.91c-24.58.24-28.28-9-28.28-9l-5.81,1s6.69,19.56,33,19.09,36.14-20,36.14-20l-8.09-1S100.71,120.65,73.83,120.91Z"/><path class="cls-13" d="M77.5,117.18c4-3.11,8.09-2.22,13.25-2.81s14.08-2.52,14.08-2.52c-2.35.46-22.4,1.12-24.21,1.56S77.5,117.18,77.5,117.18Z"/><path class="cls-14" d="M101.47,110.86c.64,5.43-11.19,11.66-31.72,10.84-18.08-.73-22.36-4.19-24.64-9.82-11,0-16.19,4.09-16.19,4.09,2.29,4,3.86,11.33,4.84,17a72,72,0,0,0,78.38-1.23c2-13.52,4.46-17.15,4.46-17.15S112,110.45,101.47,110.86Z"/><path class="cls-15" d="M44,61.33c-4.87.28-3.61,5.4-1.47,10.18,1.4,3.12,2.71,6.67,6.3,6.67,0,0-.93-6.3-2-14.57C46.8,63.61,45,61.28,44,61.33Z"/><path class="cls-16" d="M44.94,70c1.28-8.51-4.55-9.09-3.23-3.28,0,0,.81-2.74,1.55-1.92.9,1-1,1.56,0,5.95.5,2.28,2.91,4.68,2.91,4.68S44.4,73.56,44.94,70Z"/><path class="cls-15" d="M99.73,61.33c-1,0-2.8,2.28-2.8,2.28-1.1,8.27-2,14.57-2,14.57,3.58,0,4.89-3.55,6.29-6.67C103.34,66.73,104.6,61.61,99.73,61.33Z"/><path class="cls-17" d="M98.79,70c.55,3.6-1.21,5.43-1.21,5.43s2.41-2.4,2.91-4.68c1-4.39-.92-4.95,0-5.95.73-.82,1.54,1.92,1.54,1.92C103.35,60.87,97.51,61.45,98.79,70Z"/><path class="cls-18" d="M75.21,26.05s-24.77,3.2-27.89,10.24c-3.4,7.67-2.43,18.45-1.46,25.5s2.92,18.49,4.7,21.72,10.79,10.16,12.73,11.6,4.14,3.62,8.65,3.62c4,0,7.17-2.4,8.94-3.77s10.57-8.55,12.35-11.79S97,68.84,98,61.79s-.57-16-4-23.65C90.87,31.1,86.06,26.73,75.21,26.05Z"/><path class="cls-19" d="M58,55.31c-3.55-.22-6.87.65-8.68,2-4.19,3.23-1.12,11.57-1.12,11.57s8.2,9.18,22.12,3.54C69.16,66.45,69.33,56,58,55.31Z"/><path class="cls-20" d="M61.63,64.89c-3.2-1-15.57-3.52-15,.54,1.3,9,2.49,15.14,4.07,17.94s6.52,7.53,8.62,7.88C62.59,91.8,66,80,66.12,75.93,66.23,70.26,64.82,65.83,61.63,64.89Z"/><path class="cls-21" d="M72.1,90.23c-2.28.11-4.11.92-4.1,1.81s1.87,1.54,4.14,1.43,4.11-.91,4.1-1.81S74.37,90.13,72.1,90.23Z"/><path class="cls-22" d="M69.71,28.28c-32.26,2-20.84,30.24-20.84,30.24s25.3,2.89,34.72-10c0,0,2,.43,13.39,17.79,0,0,.31-1.09.6-2.53C99.28,55.38,101.09,26.38,69.71,28.28Z"/><path class="cls-23" d="M93.39,57.45a10.2,10.2,0,0,0-7.57-2.19C74.44,56.35,74.61,65.92,73.55,72c14,5.22,22.08-4.29,22.08-4.29S97.61,60.57,93.39,57.45Z"/><path class="cls-24" d="M82.22,64.89c-3.19.94-4.6,5.37-4.49,11,.08,4,3.53,15.87,6.78,15.32,2.1-.35,7-5,8.62-7.88s2.77-9,4.07-17.94C97.79,61.37,85.42,63.94,82.22,64.89Z"/><path class="cls-25" d="M46,62.69a59,59,0,0,0,5.94,20.94C47.6,60.21,52.82,51,52.82,51S45,50.77,46,62.69Z"/><path class="cls-26" d="M91.18,51s5.22,9.26.89,32.68A59.07,59.07,0,0,0,98,62.69C99,50.77,91.18,51,91.18,51Z"/><path class="cls-27" d="M71.85,98.62a11,11,0,0,1-6.14-1.82c-.66-.37-7.31-5.53-7.31-5.53s5.15,5.46,7.31,6.66c2,1.11,3.89,2.51,6.2,2.51a13,13,0,0,0,7.28-3.11c1.53-1.24,5.87-5.81,5.87-5.81-.48.45-5.86,4.55-6.85,5.21A10.25,10.25,0,0,1,71.85,98.62Z"/><path class="cls-28" d="M80.65,55.05a2.48,2.48,0,0,0-1.4,2.33,2.28,2.28,0,0,1,.43-2c-1.39.77-1.55,2.84-.11,2.64,1.65-.24,8.05-.61,9.32-.59,1,0,5,.23,5.69.85,0,0-3-2.5-5.13-3.12C87.52,54.58,82.28,54.79,80.65,55.05Z"/><path class="cls-29" d="M63.41,55.37a2.28,2.28,0,0,1,.43,2,2.48,2.48,0,0,0-1.4-2.33c-1.63-.26-6.87-.47-8.8.1-2.09.62-5.13,3.12-5.13,3.12.66-.62,4.72-.83,5.69-.85,1.27,0,7.67.35,9.32.59C65,58.21,64.8,56.14,63.41,55.37Z"/><path class="cls-30" d="M51.23,81.92C49.47,77.45,46,62.69,46,62.69s2.44,16,4.29,20.61c.65,1.64,4.7,5.41,8.64,8.38C58.92,91.68,53.29,87.13,51.23,81.92Z"/><path class="cls-31" d="M84.73,91.86c4.57-3.63,8.8-7.52,9.38-9.32,1.69-5.26,3.75-19.85,3.75-19.85s-3.29,14.84-5.25,19.23C90.79,86,84.73,91.86,84.73,91.86Z"/><path class="cls-32" d="M71.72,81.67c-.5-.06-1.5-.19-1.91-.22s-7.36.22-7.36.22,6.08,1,9.55,1.24,9.74-1.26,9.74-1.26-7-.17-7.4-.2S72.22,81.74,71.72,81.67Z"/><polygon class="cls-33" points="71.48 77.17 67.32 77.17 66.86 77.75 71.72 81.06 76.3 77.66 75.64 77.11 71.48 77.17"/><path class="cls-34" d="M71.48,77.28l-3-.83-1.58.19.14,1a5.8,5.8,0,0,1,3.46.11h2a6.44,6.44,0,0,1,3.85-.11l.08-.89-1.58-.32Z"/><path class="cls-15" d="M76.24,73.85s.73,1.21.42,2-2.39.11-3.23.63c-1.57,1-2.52.73-4.07,0-1-.47-2.46.13-3-.71a2.52,2.52,0,0,1,0-1.89,2.28,2.28,0,0,0-1,1.77c-.15,1.47,1.4,2.27,1.63,2.12s-.19-1.26,1.23-1.07,1.36.91,1.59,1.15a6.71,6.71,0,0,0,3.16,0c.42-.26.31-1.23,1.66-1.19s1.38,1,1.58,1.07,1-.59,1.22-1.94A1.93,1.93,0,0,0,76.24,73.85Z"/><path class="cls-35" d="M68.26,73.19a2.79,2.79,0,0,0,.5,2c.61.94,5,1.7,5.71-.45a5.24,5.24,0,0,0,.07-1.94C74.45,71.79,68.29,72.25,68.26,73.19Z"/><path class="cls-36" d="M85.57,60.69c-7.61.65-7.62,5.17-7.78,7.45.59.08,1.21.14,2.37.38a17.9,17.9,0,0,0,5.89.31c2-.19,6.09-1.09,6.12-5.43C92.19,61.33,87.42,60.68,85.57,60.69Z"/><path class="cls-37" d="M80.53,65.83A5.35,5.35,0,0,1,82,62.53a13,13,0,0,0-3.86,5.32,26.2,26.2,0,0,1,4,.77A3.35,3.35,0,0,1,80.53,65.83Z"/><path class="cls-38" d="M78.12,67.85a5.74,5.74,0,0,1,2.45-2.4A3.72,3.72,0,0,1,81.8,63,5.42,5.42,0,0,0,78.12,67.85Z"/><path class="cls-39" d="M88.18,65.55a3.61,3.61,0,0,1-1.6,3.13,6.92,6.92,0,0,0,5.35-4.55c-2.94-2-5-2.55-6.87-2.55A4.2,4.2,0,0,1,88.18,65.55Z"/><path class="cls-38" d="M88.36,64.67a28.51,28.51,0,0,1,2.82.78L91.72,64c-1.2-1.26-3.3-1.47-5.31-1.66A4.62,4.62,0,0,1,88.36,64.67Z"/><path class="cls-40" d="M80.55,65.36a3.62,3.62,0,0,0,0,.47,3.21,3.21,0,0,0,1.61,2.79,13.8,13.8,0,0,0,4.84,0,3.52,3.52,0,0,0,1.71-3,3.94,3.94,0,0,0-.58-1.95A8.66,8.66,0,0,0,80.55,65.36Z"/><path class="cls-41" d="M86.41,62.3a10,10,0,0,0-3.58.3,4.26,4.26,0,0,0-1,.44,3.69,3.69,0,0,0-1.26,2.41c2.67-1.57,6.83-1.1,8-.73A3.17,3.17,0,0,0,86.41,62.3Z"/><path class="cls-42" d="M84.46,63.11a2.45,2.45,0,1,0,2.6,2.41A2.49,2.49,0,0,0,84.46,63.11Z"/><path class="cls-43" d="M85,64.51a.73.73,0,0,0-1,.35.68.68,0,0,0,.32.93.72.72,0,0,0,1-.35A.67.67,0,0,0,85,64.51Z"/><path class="cls-43" d="M87.42,65.32a.94.94,0,1,0,.46,1.27A1,1,0,0,0,87.42,65.32Z"/><path class="cls-44" d="M92.15,64.5a2.74,2.74,0,0,0,.95-2.92s-.37,1.06-4.2.06c-9-1.38-11,2.4-10.78,6.21,0,0,.41-4.25,5.8-4.7a14,14,0,0,1,6.91,1.32c.14,1.7-2.51,3.67-4.67,3.88a9.37,9.37,0,0,0,5.11-1.61c.74-.58,1.86-1.22,2-2.51C93.18,64.46,92.74,64.65,92.15,64.5Z"/><path class="cls-45" d="M81.93,61.26c-2.77,1.18-3.31,3-3.31,3a7.71,7.71,0,0,1,3.58-2.56c2.7-1.05,7.68-.35,7.68-.35C88.13,60.73,84.35,60.23,81.93,61.26Z"/><path class="cls-46" d="M83.59,62.8c-5.49.6-5.47,5-5.47,5s0-3.41,5.62-4.44a14,14,0,0,1,7.09,1.06A11.42,11.42,0,0,0,83.59,62.8Z"/><path class="cls-47" d="M78.12,67.85c8.41,2.51,11.6-.24,11.6-.24C85.57,69.08,78.12,67.85,78.12,67.85Z"/><path class="cls-48" d="M58.26,60.69c-1.85,0-6.62.64-6.6,2.71,0,4.34,4.09,5.24,6.12,5.43a17.9,17.9,0,0,0,5.89-.31c1.16-.24,1.78-.3,2.37-.38C65.88,65.86,65.87,61.34,58.26,60.69Z"/><path class="cls-49" d="M61.85,62.53a5.35,5.35,0,0,1,1.45,3.3,3.35,3.35,0,0,1-1.61,2.79,26.2,26.2,0,0,1,4-.77A13,13,0,0,0,61.85,62.53Z"/><path class="cls-38" d="M62,63a3.72,3.72,0,0,1,1.23,2.41,5.74,5.74,0,0,1,2.45,2.4A5.42,5.42,0,0,0,62,63Z"/><path class="cls-50" d="M58.77,61.58c-1.89,0-3.93.54-6.87,2.55a6.92,6.92,0,0,0,5.35,4.55,3.63,3.63,0,0,1-1.6-3.13A4.2,4.2,0,0,1,58.77,61.58Z"/><path class="cls-38" d="M52.65,65.45a28.29,28.29,0,0,1,2.83-.78,4.55,4.55,0,0,1,1.94-2.37c-2,.19-4.11.4-5.31,1.66Z"/><path class="cls-51" d="M55.85,63.65a4,4,0,0,0-.57,1.95,3.51,3.51,0,0,0,1.7,3,13.86,13.86,0,0,0,4.85,0,3.2,3.2,0,0,0,1.6-2.79,3.62,3.62,0,0,0,0-.47A8.65,8.65,0,0,0,55.85,63.65Z"/><path class="cls-52" d="M62.26,63A6.07,6.07,0,0,0,61,62.6a7.59,7.59,0,0,0-3.15-.41,3.6,3.6,0,0,0-2.43,2.49c1.19-.37,5.33-.7,8,.87A3.76,3.76,0,0,0,62.26,63Z"/><path class="cls-53" d="M59.37,63.11a2.45,2.45,0,1,0,2.53,2.48A2.51,2.51,0,0,0,59.37,63.11Z"/><path class="cls-43" d="M59.2,64.51a.67.67,0,0,0-.31.93.72.72,0,0,0,1,.35.68.68,0,0,0,.32-.93A.73.73,0,0,0,59.2,64.51Z"/><path class="cls-43" d="M61.22,65.32A.94.94,0,1,0,62,67a.94.94,0,0,0,.47-1.26A1,1,0,0,0,61.22,65.32Z"/><path class="cls-54" d="M54.93,61.64c-3.83,1-4.2-.06-4.2-.06a2.74,2.74,0,0,0,1,2.92c-.59.15-1,0-1.14-.27.16,1.29,1.28,1.93,2,2.51a9.37,9.37,0,0,0,5.11,1.61c-2.16-.21-4.81-2.18-4.67-3.88a14,14,0,0,1,6.91-1.32c5.39.45,5.8,4.7,5.8,4.7C65.91,64,63.9,60.26,54.93,61.64Z"/><path class="cls-55" d="M61.9,61.26c-2.42-1-6.2-.53-7.95.1,0,0,5-.7,7.68.35a7.71,7.71,0,0,1,3.58,2.56S64.67,62.44,61.9,61.26Z"/><path class="cls-56" d="M60.24,62.8A11.42,11.42,0,0,0,53,64.47a14,14,0,0,1,7.09-1.06c5.64,1,5.62,4.44,5.62,4.44S65.73,63.4,60.24,62.8Z"/><path class="cls-57" d="M54.11,67.61s3.19,2.75,11.6.24C65.71,67.85,58.26,69.08,54.11,67.61Z"/><path class="cls-58" d="M59.58,80.65c-.68,1.94,3.24,1.66,6.25,2.95C63.47,82.67,60,79.55,59.58,80.65Z"/><path class="cls-59" d="M78,83.6c3-1.29,6.68-1,6.26-2.95C84,79.57,80.33,82.67,78,83.6Z"/><path class="cls-60" d="M82.66,81.25A16.46,16.46,0,0,1,76.86,83c-.67,0-9.18-.15-9.72-.12a20.23,20.23,0,0,1-5.29-1.23,12.09,12.09,0,0,0-1.79-.83c-.16.1.07,1.16,1.23,1.09,2.73.36,3.48,2.29,5.09,2.46.47.07,9.85,0,10.22,0,2.28,0,3.16-2.16,5.91-2.55,1.31,0,1.32-1,1.32-1S83.33,80.91,82.66,81.25Z"/><path class="cls-61" d="M74.9,82.07c-1.06,0-1.93.36-3.25.37-.6,0-2-.35-2.83-.37a31.52,31.52,0,0,1-7.34-.62c.11,0,2.8,2.2,10.43,2.32,5.77.1,9-1.56,9.83-2.12A24.63,24.63,0,0,1,74.9,82.07Z"/><path class="cls-62" d="M74.34,82.25a16.59,16.59,0,0,1-2.69.42,19.37,19.37,0,0,1-2.39-.42,38.15,38.15,0,0,0-4.18.09c-.07.11,6.18,1.25,6.74,1.25.76,0,6.45-1,6.72-1.14S74.54,82.18,74.34,82.25Z"/><path class="cls-63" d="M64.19,83.59c1.57,2.4,4.25,4.75,8,4.64,1.84-.06,4.51-1.31,7.45-4.46A39.63,39.63,0,0,1,64.19,83.59Z"/><path class="cls-61" d="M71.82,84.05c-7.47-.18-8.63-1.82-9.65-2a29.93,29.93,0,0,1,4,3.49A9.36,9.36,0,0,0,72,87.49a9.27,9.27,0,0,0,5.32-1.82c1.14-.71,3.61-3.21,4.86-3.8C81,81.84,78.86,84.22,71.82,84.05Z"/><path class="cls-64" d="M71.33,84.12C67,84,64.77,83.06,64.9,83.36a5.91,5.91,0,0,0,2.22,2.41,10.21,10.21,0,0,0,4.75.92c2.38,0,2.93-.09,4.32-.83a7.31,7.31,0,0,0,2.45-2.35C78.64,83.29,75.86,84.26,71.33,84.12Z"/><path class="cls-65" d="M72.08,85c-.49.33,1.48.49,2.35.44s2.39-.62,2.23-.86S72.08,85,72.08,85Z"/><path class="cls-66" d="M63.83,48a17.61,17.61,0,0,0,.84-1.83C64.42,46.81,64.13,47.42,63.83,48Z"/><path class="cls-67" d="M71.15,45.85A9.81,9.81,0,0,0,71.6,45Z"/><path class="cls-68" d="M98.37,31.94c-5.81-8.51-15.55-7.6-15.55-7.6s-2.62-4.74-16.7-3S42.6,37.63,38.67,48,37,72.73,37,72.73a25.32,25.32,0,0,1,1.7-6.06C36.73,83.28,50.36,95.12,50.36,95.12c-3.74-5.26-3.29-8.81-3.29-8.81,1.71,5.49,10.61,9.93,10.61,9.93-6.53-7.72-9.43-14.58-11-28-.9-7.45,6.07-16.13,6.07-16.13a36.93,36.93,0,0,1-3.87,8.27A24.45,24.45,0,0,0,63.83,48c.3-.6.59-1.21.84-1.83A17.61,17.61,0,0,1,63.83,48,42.23,42.23,0,0,1,56,58.27,27.64,27.64,0,0,0,71.15,45.85L71.6,45a9.81,9.81,0,0,1-.45.88A28.18,28.18,0,0,1,62,56.37,23.53,23.53,0,0,0,78.53,44.12,25.23,25.23,0,0,1,69.69,55.2c15.92-4.8,15.13-17.77,15.13-17.77,1.82,8.66,4,7.17,7.26,13.51s6.22,7,6.81,20.68C99.47,85,87.11,96.15,87.11,96.15,97.86,92.27,99.9,85.31,99.9,85.31A32,32,0,0,1,97,94c9.29-8.07,8.2-27.26,8.2-27.26A28.9,28.9,0,0,1,106.94,72c.34-3.07.16-13.62-.62-21.06C105.82,46.07,104.17,40.45,98.37,31.94Z"/><path class="cls-69" d="M83.91,36.43a83.23,83.23,0,0,0,4,8.38c5.31,10,9.7,21.91,8.21,34.18,0,0,3.76-9.55,2.91-17.27S89.13,42,83.91,36.43Z"/><path class="cls-70" d="M45.28,63.55c-1.9,7.34,5.08,15.82,5.08,15.82-5.08-10.25,1.3-27.57,1.3-27.57S46.91,57.25,45.28,63.55Z"/><path class="cls-71" d="M83.56,39.78C81.71,47.25,76,51.7,69.69,55.2c0,0,13.72-1.77,15.65-15.48C85.34,39.72,84,38.16,83.56,39.78Z"/><path class="cls-72" d="M62,56.37s15.26-1.26,19.36-16.65A41.5,41.5,0,0,1,62,56.37Z"/><path class="cls-73" d="M56,58.27C71,53.75,72.76,43.05,72.76,43.05,67.37,51.65,56,58.27,56,58.27Z"/><path class="cls-74" d="M48.83,60.37a25.61,25.61,0,0,0,17-16.25S59.52,54.79,48.83,60.37Z"/><path class="cls-75" d="M48.11,59.78c3.37-7.37,12.56-14.87,12.56-14.87A20.3,20.3,0,0,0,48.11,59.78Z"/><path class="cls-76" d="M47.75,32.42C31.88,45.9,36.88,72.12,36.88,72.12c.63-22,14.36-31.76,14.36-31.76A21.16,21.16,0,0,0,47.75,51c9.93-11.23,17.52-15,22.52-17,.4-.16-3.51,3.71-10.54,8.38,12.78-5.19,19.75-12.78,19.75-12.78-1.77,3.54-8.28,10.18-8.28,10.18a22.69,22.69,0,0,0,8.64-5.16c4-3.88,3-10.22,3-10.22C76.49,19.49,63.62,18.94,47.75,32.42Z"/><path class="cls-77" d="M63.11,20.76c-25.58,5-26.74,36.49-26.74,36.49s7.46-29.63,26.68-33.17c16-2.95,19.77.26,19.77.26S80.13,17.45,63.11,20.76Z"/><path class="cls-78" d="M98.37,32.68c-10.88-9.31-15.55-8.34-15.55-8.34A7.16,7.16,0,0,0,83,31a66.11,66.11,0,0,0,17.61,19.1L99,42.32s6.47,10.2,7.94,29.68C106.94,72,111.73,44.12,98.37,32.68Z"/><path class="cls-79" d="M82.82,24.34c16,1.7,24.28,26.1,24.28,26.1C102.33,17.87,82.82,24.34,82.82,24.34Z"/><path class="cls-80" d="M91.84,54.56l-9.46-25S82.38,48.52,91.84,54.56Z"/><path class="cls-81" d="M50.36,95.12S42,82.48,40.64,68C40.64,68,37.38,85.72,50.36,95.12Z"/><path class="cls-82" d="M87.11,96.15c20.12-6.25,14.4-27.22,14.4-27.22C102.26,87.47,87.11,96.15,87.11,96.15Z"/></svg>