<svg id="Layer_1" data-name="Layer 1" xmlns="http://www.w3.org/2000/svg" xmlns:xlink="http://www.w3.org/1999/xlink" viewBox="0 0 144 144"><defs><style>.cls-1{fill:#f6ece6;}.cls-2{fill:#9ab33b;}.cls-3{fill:url(#linear-gradient);}.cls-4{fill:url(#linear-gradient-2);}.cls-5{fill:url(#linear-gradient-3);}.cls-6{fill:#f7d9ab;}.cls-7{fill:#f1c99a;}.cls-8{fill:url(#linear-gradient-4);}.cls-9{fill:url(#linear-gradient-5);}.cls-10{fill:url(#radial-gradient);}.cls-11{fill:url(#linear-gradient-6);}.cls-12{fill:url(#radial-gradient-2);}.cls-13{fill:url(#linear-gradient-7);}.cls-14{fill:url(#linear-gradient-8);}.cls-15{fill:url(#linear-gradient-9);}.cls-16{fill:#e1b58c;}.cls-17{fill:url(#linear-gradient-10);}.cls-18{fill:url(#linear-gradient-11);}.cls-19{fill:#972a2e;}.cls-20{fill:#fcddb3;}.cls-21{fill:url(#linear-gradient-12);}.cls-22{fill:url(#linear-gradient-13);}.cls-23{fill:url(#linear-gradient-14);}.cls-24{fill:#f2eceb;}.cls-25{fill:url(#linear-gradient-15);}.cls-26{fill:url(#linear-gradient-16);}.cls-27{fill:url(#linear-gradient-17);}.cls-28{fill:url(#linear-gradient-18);}.cls-29{fill:url(#linear-gradient-19);}.cls-30{fill:url(#linear-gradient-20);}.cls-31{fill:url(#linear-gradient-21);}.cls-32{fill:url(#linear-gradient-22);}.cls-33{fill:url(#linear-gradient-23);}.cls-34{fill:url(#linear-gradient-24);}.cls-35{fill:url(#linear-gradient-25);}.cls-36{fill:#ddd;}.cls-37{fill:url(#linear-gradient-26);}.cls-38{fill:url(#linear-gradient-27);}.cls-39{fill:url(#radial-gradient-3);}.cls-40{fill:url(#linear-gradient-28);}.cls-41{fill:#fff;}.cls-42{fill:url(#linear-gradient-29);}.cls-43{fill:url(#linear-gradient-30);}.cls-44{fill:url(#linear-gradient-31);}.cls-45{fill:url(#linear-gradient-32);}.cls-46{fill:url(#radial-gradient-4);}.cls-47{fill:url(#linear-gradient-33);}.cls-48{fill:url(#linear-gradient-34);}.cls-49{fill:url(#linear-gradient-35);}.cls-50{fill:url(#linear-gradient-36);}.cls-51{fill:url(#linear-gradient-37);}.cls-52{fill:url(#linear-gradient-38);}.cls-53{fill:url(#linear-gradient-39);}.cls-54{fill:url(#linear-gradient-40);}.cls-55{fill:#3e1c16;}.cls-56{fill:url(#linear-gradient-41);}.cls-57{fill:url(#linear-gradient-42);}.cls-58{fill:url(#linear-gradient-43);}.cls-59{fill:url(#linear-gradient-44);}</style><linearGradient id="linear-gradient" x1="60.79" y1="98.58" x2="93.07" y2="105.05" gradientUnits="userSpaceOnUse"><stop offset="0" stop-color="#f1c99a"/><stop offset="1" stop-color="#f7d9ab"/></linearGradient><linearGradient id="linear-gradient-2" x1="71.2" y1="94.04" x2="74.41" y2="121.57" gradientUnits="userSpaceOnUse"><stop offset="0" stop-color="#748637"/><stop offset="0.35" stop-color="#829739"/><stop offset="1" stop-color="#9ab33b"/></linearGradient><linearGradient id="linear-gradient-3" x1="72.52" y1="121.62" x2="71.15" y2="146.74" gradientUnits="userSpaceOnUse"><stop offset="0" stop-color="#a7ba5e"/><stop offset="0.18" stop-color="#a4b957"/><stop offset="1" stop-color="#9ab33b"/></linearGradient><linearGradient id="linear-gradient-4" x1="105.15" y1="635.75" x2="109.84" y2="647.13" gradientTransform="matrix(0.98, 0.18, -0.14, 1.13, 32.08, -678.95)" gradientUnits="userSpaceOnUse"><stop offset="0" stop-color="#dba879"/><stop offset="0.49" stop-color="#e4b687"/><stop offset="1" stop-color="#f1c99a"/></linearGradient><linearGradient id="linear-gradient-5" x1="129.87" y1="632.89" x2="134.57" y2="644.27" gradientTransform="matrix(-0.97, 0.23, 0.21, 1.13, 92.8, -680.96)" xlink:href="#linear-gradient-4"/><radialGradient id="radial-gradient" cx="105.36" cy="70.03" r="26.27" gradientTransform="translate(42.63 42.63) scale(0.41 0.41)" gradientUnits="userSpaceOnUse"><stop offset="0" stop-color="#f7c79c"/><stop offset="1" stop-color="#f7d9ab"/></radialGradient><linearGradient id="linear-gradient-6" x1="72.13" y1="88.55" x2="72.63" y2="97.35" gradientUnits="userSpaceOnUse"><stop offset="0" stop-color="#ffdeb3"/><stop offset="1" stop-color="#f7d9ab"/></linearGradient><radialGradient id="radial-gradient-2" cx="30.47" cy="70.82" r="26.74" xlink:href="#radial-gradient"/><linearGradient id="linear-gradient-7" x1="93.81" y1="65.84" x2="86.28" y2="68.43" gradientUnits="userSpaceOnUse"><stop offset="0" stop-color="#fadbaf"/><stop offset="1" stop-color="#f7d9ab"/></linearGradient><linearGradient id="linear-gradient-8" x1="83.47" y1="83.75" x2="83.45" y2="82.66" gradientUnits="userSpaceOnUse"><stop offset="0" stop-color="#f7d9ab"/><stop offset="0.53" stop-color="#f6d7a8"/><stop offset="0.87" stop-color="#f4cfa0"/><stop offset="1" stop-color="#f2ca9a"/></linearGradient><linearGradient id="linear-gradient-9" x1="85.35" y1="95.7" x2="84.99" y2="73.57" xlink:href="#linear-gradient-8"/><linearGradient id="linear-gradient-10" x1="59.68" y1="96.69" x2="59.31" y2="74.05" xlink:href="#linear-gradient-8"/><linearGradient id="linear-gradient-11" x1="73.21" y1="101.28" x2="72.68" y2="85.9" xlink:href="#linear-gradient-8"/><linearGradient id="linear-gradient-12" x1="63.09" y1="82.71" x2="82.36" y2="83.04" gradientUnits="userSpaceOnUse"><stop offset="0" stop-color="#e8d9d7"/><stop offset="0.14" stop-color="#f0e6e4"/><stop offset="0.39" stop-color="#fbf8f8"/><stop offset="0.57" stop-color="#fff"/><stop offset="1" stop-color="#e8d3d1"/></linearGradient><linearGradient id="linear-gradient-13" x1="73.22" y1="100.95" x2="72.7" y2="86.02" xlink:href="#linear-gradient-8"/><linearGradient id="linear-gradient-14" x1="72.03" y1="75.42" x2="72.34" y2="82.63" gradientUnits="userSpaceOnUse"><stop offset="0" stop-color="#e8d9d7"/><stop offset="0.4" stop-color="#efe5e4"/><stop offset="1" stop-color="#fff"/></linearGradient><linearGradient id="linear-gradient-15" x1="72.81" y1="103.82" x2="72.3" y2="72.87" xlink:href="#linear-gradient-8"/><linearGradient id="linear-gradient-16" x1="71.69" y1="50.06" x2="72.22" y2="72.54" gradientUnits="userSpaceOnUse"><stop offset="0" stop-color="#ffdeb3"/><stop offset="0.2" stop-color="#fdddb1"/><stop offset="1" stop-color="#f7d9ab"/></linearGradient><linearGradient id="linear-gradient-17" x1="72.19" y1="79.3" x2="72.14" y2="73.63" gradientUnits="userSpaceOnUse"><stop offset="0" stop-color="#f7d9ab"/><stop offset="0.53" stop-color="#f6d6a8"/><stop offset="0.87" stop-color="#f3cea0"/><stop offset="1" stop-color="#f1c99a"/></linearGradient><linearGradient id="linear-gradient-18" x1="71.82" y1="62.86" x2="72.2" y2="75.54" xlink:href="#linear-gradient-8"/><linearGradient id="linear-gradient-19" x1="71.65" y1="73.67" x2="72.41" y2="68.06" gradientUnits="userSpaceOnUse"><stop offset="0" stop-color="#ffdeb3"/><stop offset="0.28" stop-color="#fbdcaf"/><stop offset="1" stop-color="#f7d9ab"/></linearGradient><linearGradient id="linear-gradient-20" x1="57.19" y1="68.28" x2="46.03" y2="65.55" xlink:href="#linear-gradient-7"/><linearGradient id="linear-gradient-21" x1="84.75" y1="66.86" x2="84.03" y2="58.33" xlink:href="#linear-gradient-17"/><linearGradient id="linear-gradient-22" x1="59.29" y1="66.82" x2="58.57" y2="58.38" xlink:href="#linear-gradient-17"/><linearGradient id="linear-gradient-23" x1="72.06" y1="34.09" x2="71.91" y2="43.43" gradientUnits="userSpaceOnUse"><stop offset="0" stop-color="#f7d9ab"/><stop offset="0.49" stop-color="#f5d4a6"/><stop offset="1" stop-color="#f1c99a"/></linearGradient><linearGradient id="linear-gradient-24" x1="52.64" y1="59.72" x2="67.08" y2="63.78" gradientUnits="userSpaceOnUse"><stop offset="0" stop-color="#f1c99a"/><stop offset="0.51" stop-color="#e4b687"/><stop offset="1" stop-color="#dba879"/></linearGradient><linearGradient id="linear-gradient-25" x1="65.23" y1="63.48" x2="55.97" y2="61.25" gradientUnits="userSpaceOnUse"><stop offset="0" stop-color="#ece7e6"/><stop offset="0.24" stop-color="#f6f4f4"/><stop offset="0.54" stop-color="#fdfcfc"/><stop offset="1" stop-color="#fff"/></linearGradient><linearGradient id="linear-gradient-26" x1="63.41" y1="62.36" x2="53.68" y2="62.75" gradientUnits="userSpaceOnUse"><stop offset="0" stop-color="#95958d"/><stop offset="1" stop-color="#c6c6c0"/></linearGradient><linearGradient id="linear-gradient-27" x1="57.49" y1="60.37" x2="67.58" y2="65.5" xlink:href="#linear-gradient-26"/><radialGradient id="radial-gradient-3" cx="46.87" cy="51.73" r="15.12" gradientTransform="translate(42.63 42.63) scale(0.41 0.41)" gradientUnits="userSpaceOnUse"><stop offset="0" stop-color="#2b3b3b"/><stop offset="1" stop-color="#1d2827"/></radialGradient><linearGradient id="linear-gradient-28" x1="53.83" y1="60.82" x2="64.42" y2="60.32" gradientUnits="userSpaceOnUse"><stop offset="0" stop-color="#683126"/><stop offset="0.34" stop-color="#53281e"/><stop offset="0.68" stop-color="#46221a"/><stop offset="1" stop-color="#422018"/></linearGradient><linearGradient id="linear-gradient-29" x1="77.02" y1="59.94" x2="91.1" y2="63.91" xlink:href="#linear-gradient-24"/><linearGradient id="linear-gradient-30" x1="88.76" y1="63.54" x2="79.74" y2="61.36" xlink:href="#linear-gradient-25"/><linearGradient id="linear-gradient-31" x1="86.78" y1="62.35" x2="77.05" y2="62.74" xlink:href="#linear-gradient-26"/><linearGradient id="linear-gradient-32" x1="81.16" y1="59.84" x2="92.94" y2="65.84" xlink:href="#linear-gradient-26"/><radialGradient id="radial-gradient-4" cx="104.27" cy="51.73" r="15.12" xlink:href="#radial-gradient-3"/><linearGradient id="linear-gradient-33" x1="78.11" y1="61.05" x2="88.59" y2="60.56" xlink:href="#linear-gradient-28"/><linearGradient id="linear-gradient-34" x1="77.15" y1="54.77" x2="91.49" y2="54.77" xlink:href="#linear-gradient-28"/><linearGradient id="linear-gradient-35" x1="52.06" y1="54.73" x2="65.59" y2="54.73" xlink:href="#linear-gradient-28"/><linearGradient id="linear-gradient-36" x1="53.85" y1="-218.07" x2="100.97" y2="510.52" xlink:href="#linear-gradient-28"/><linearGradient id="linear-gradient-37" x1="62.94" y1="-107.33" x2="87.29" y2="269.21" xlink:href="#linear-gradient-28"/><linearGradient id="linear-gradient-38" x1="59.26" y1="97.29" x2="46.43" y2="72.73" gradientUnits="userSpaceOnUse"><stop offset="0" stop-color="#f6d7aa"/><stop offset="1" stop-color="#f1c999"/></linearGradient><linearGradient id="linear-gradient-39" x1="84.92" y1="98.11" x2="97.1" y2="73.05" gradientUnits="userSpaceOnUse"><stop offset="0" stop-color="#f6d7aa"/><stop offset="1" stop-color="#ffddb2"/></linearGradient><linearGradient id="linear-gradient-40" x1="73.07" y1="89.59" x2="72.42" y2="102.59" gradientTransform="matrix(1, 0, 0, 1, 0, 0)" xlink:href="#linear-gradient-4"/><linearGradient id="linear-gradient-41" x1="79.61" y1="20.88" x2="85.22" y2="12.56" gradientUnits="userSpaceOnUse"><stop offset="0" stop-color="#683126"/><stop offset="0.74" stop-color="#7b3d33"/><stop offset="1" stop-color="#834238"/></linearGradient><linearGradient id="linear-gradient-42" x1="64.28" y1="20.89" x2="69.64" y2="12.94" xlink:href="#linear-gradient-41"/><linearGradient id="linear-gradient-43" x1="95.93" y1="27.26" x2="96.56" y2="26.33" xlink:href="#linear-gradient-41"/><linearGradient id="linear-gradient-44" x1="46.17" y1="29.54" x2="48.29" y2="26.41" xlink:href="#linear-gradient-41"/></defs><circle class="cls-1" cx="72" cy="72" r="72" transform="translate(-29.82 72) rotate(-45)"/><path class="cls-2" d="M94.35,99.38c-2.69,6.92-22.27,27.86-44.19,0L24.57,107.8s2.87,10.75,5.63,22.83a72,72,0,0,0,86.33-2l3.25-20.78A244.41,244.41,0,0,0,94.35,99.38Z"/><path class="cls-2" d="M15.44,116.56A72.51,72.51,0,0,0,32.21,132c-2.33-7.68-7.64-24.21-7.64-24.21C21.23,108.87,18.17,112.19,15.44,116.56Z"/><path class="cls-2" d="M128.61,116.49c-2.71-4.34-5.76-7.63-9.09-8.69,0,0-5.26,16.42-7.61,24.13A72.35,72.35,0,0,0,128.61,116.49Z"/><path class="cls-3" d="M86.75,95.92a43,43,0,0,1,.1-5.71H58.07l.22,5.58c-2.54,1.81-8.13,3.59-8.13,3.59-.38,4.25,9.43,14.91,21.42,14.35,15.5-.74,22.77-14.35,22.77-14.35S87,97,86.75,95.92Z"/><path class="cls-4" d="M71.58,111A25.82,25.82,0,0,1,50.16,99.38l-5.58,1.84s8.1,15.38,26,15.39c20.69,0,28.86-15.79,28.86-15.79l-5.1-1.44C93.4,101.45,84.69,111.19,71.58,111Z"/><path class="cls-5" d="M93.62,124.18c-11.86-2.42-25.92-2.34-41.6-.52-10.48,1.22-14.91,5.85-15.51,11a72.07,72.07,0,0,0,70.59.21A18.31,18.31,0,0,0,93.62,124.18Z"/><path class="cls-6" d="M78.15,104.05c-.16.15-9.79,1.3-13.27-.07-1.75-.68-6.15-5.48-6.15-5.48-1.88,1.79-5.51,2.49-5.51,2.49,10.54,10.69,22.1,9,26.57,7.45s11.72-7.6,11.72-7.6a15.56,15.56,0,0,1-5.87-2.92A29,29,0,0,1,78.15,104.05Z"/><path class="cls-7" d="M43.5,59.68c-3,.55-2.3,2.56-1,6.09,1.26,9.38,3.67,11.25,4.69,10.68C49.06,75.4,47.08,59,43.5,59.68Z"/><path class="cls-8" d="M45.9,73a6.63,6.63,0,0,1-.83-5c1.3-7.78-3.47-8.55-2.55-3.16,0,0,.74-2.48,1.32-1.7.72,1-.84,1.4-.19,5.47A11.56,11.56,0,0,0,45.9,73Z"/><path class="cls-7" d="M99.23,59.61c3,.41,2.45,2.45,1.36,6-.72,9.43-3,11.41-4.08,10.88C94.58,75.57,95.61,59.12,99.23,59.61Z"/><path class="cls-9" d="M97.6,73.05A6.62,6.62,0,0,0,98.14,68c-1.75-7.71,3-8.7,2.36-3.27,0,0-.88-2.45-1.42-1.64-.65,1,.93,1.36.51,5.46A11.41,11.41,0,0,1,97.6,73.05Z"/><path class="cls-6" d="M96.9,59.15C97.78,37.09,90,36.26,88.07,34c-3.92-4.58-9.07-8.72-19.61-8.47,0,0-13.73.48-17.16,8-3.68,8-5.14,19.05-4.82,29.42.39,12.58,1.2,16,2.3,18.6a10.44,10.44,0,0,0,3.59,4.83c3.9,3.09,9,8.9,12.2,11.44,1.28,1,9.82,3.22,16.53-1.33a79,79,0,0,0,11.47-9.7,11.38,11.38,0,0,0,3.12-6.52c0-1.77,1-8.45,1-9.77C96.33,63.41,96.66,65.28,96.9,59.15Z"/><path class="cls-10" d="M86.18,80c4.34.3,9.6-.26,10.5-9.26.52-5.13-.44-7.8-2.59-8.2-4.55-.86-11.08,1.14-13.8,2.56C74.55,68.1,78.49,79.48,86.18,80Z"/><path class="cls-11" d="M72.6,91.67c-1.51,0-5.29,1-5.18,1.58.33,1.67,3.83,2,5.34,2s4.55-.39,4.62-1.82C77.4,92.82,74.1,91.67,72.6,91.67Z"/><path class="cls-12" d="M62.18,64.67c-1.24-.46-10.69-2.61-13.5-1.79-1.61.47-2.13,4.1-1.86,7.53a28.46,28.46,0,0,0,.86,5.3c1.82,5.08,9.56,5.3,13.56,3.88C68.06,77.18,68.46,67,62.18,64.67Z"/><path class="cls-13" d="M93.58,65c-.78-.44-1.36.19-3,.73s-6,1.35-3.9,2.46c2.26,1.24,5.42-.45,5.81-.77S94.55,65.54,93.58,65Z"/><path class="cls-14" d="M83.71,82.68l-.51.44A5.36,5.36,0,0,0,83.71,82.68Z"/><path class="cls-15" d="M81.61,74c5.43,4.4,3.23,7.55,2.1,8.66,2.1-1.75,4.92-3.71,4.73-4.48C87.77,75.4,81.61,74,81.61,74Z"/><path class="cls-16" d="M83.15,79.37a26.17,26.17,0,0,0,3-.84,2.78,2.78,0,0,0,.47-.91l-1.77.54Z"/><path class="cls-17" d="M56.46,78.63c.12.86,2.55,3,4.14,4.62,0,0-4.25-4.57,1.67-8.7C62.27,74.55,56,75.74,56.46,78.63Z"/><path class="cls-16" d="M57.91,77.8a2.59,2.59,0,0,0,.47.91,27.6,27.6,0,0,0,3,.84l-1.73-1.21Z"/><path class="cls-18" d="M66.63,90a47.34,47.34,0,0,1,12.39.1C73.41,86.56,66.63,90,66.63,90Z"/><path class="cls-19" d="M58.57,78.14c.15.16.26.37.45.46,3.55,1.57,3.6,3.07,5.12,3.89a17,17,0,0,0,15.92-.13c2.44-1.35,2.75-2.91,5.66-4a.75.75,0,0,0,.47-.46C70.62,81.66,58.57,78.14,58.57,78.14Z"/><path class="cls-20" d="M72.52,85.56c-2.1,0-4.17-.41-4.17,0s1.82,1.32,3.92,1.32,4.18-.91,4.18-1.32S74.62,85.56,72.52,85.56Z"/><path class="cls-21" d="M78.58,81.38a34.83,34.83,0,0,1-6.58.83,40.42,40.42,0,0,1-7-.77c-.65-.12-.94,1-.94,1,2,1.44,4.36,2,8.17,2a13.25,13.25,0,0,0,7.88-2.16S79.42,81.21,78.58,81.38Z"/><path class="cls-22" d="M64.76,86.09c8.11,6.45,15.87-.44,15.87-.44A18.25,18.25,0,0,1,64.76,86.09Z"/><path class="cls-23" d="M62.09,78.89A2.29,2.29,0,0,0,63.5,80.8c.78.34,2.55,1.68,9.4,1.47s8.2-1.86,8.51-2.15a3.58,3.58,0,0,0,.85-1.45S71.94,80.69,62.09,78.89Z"/><path class="cls-24" d="M62.07,78.76a2.41,2.41,0,0,0,.27,1c.18.3,5.66,1.1,9.79,1.13a38,38,0,0,0,9.72-1.28,3.15,3.15,0,0,0,.46-1S77.66,80.1,62.07,78.76Z"/><path class="cls-25" d="M57.72,77.72s1,.58.85.42c0,0,12.05,3.52,27.62-.29l.84-.42C78.58,78.84,57.72,77.72,57.72,77.72Z"/><path class="cls-26" d="M74.16,65c.25-4.93-1.48-5.64-2.76-5.6s-1.93,1.76-1.68,5.52-.48,5.19-.32,7c.08.8.45,1.32,2.48,1.34,2.23,0,3-.51,3.1-1.26C75.24,69.88,74,68.53,74.16,65Z"/><path class="cls-27" d="M65.88,73.78s5.6,4.07,6.82,3.83,5.7-3.83,5.7-3.83-5.07.62-6.24.62S65.88,73.78,65.88,73.78Z"/><path class="cls-16" d="M74.4,74.58c3-.75,4.2-.31,4.2-.31C76.84,72.74,74.4,74.58,74.4,74.58Z"/><path class="cls-16" d="M65.87,74.06a8.89,8.89,0,0,1,3.93.54S67.49,72.86,65.87,74.06Z"/><path class="cls-28" d="M76.73,69.57c0,1.23.27,2.06-.11,2.76-.84,1.57-3,2.19-4.46,2.07a5.66,5.66,0,0,1-4.74-2.06c-.44-.67-.16-1.27-.36-2.58,0,0-3,3.6-1.19,4.3a3,3,0,0,1,2-.27c1.44.13,1.15,1.72,4.45,1.75,2.89,0,2-1.36,3.8-1.62a2.9,2.9,0,0,1,2.49.39C79.48,74.31,78.82,71.27,76.73,69.57Z"/><path class="cls-29" d="M69.09,71.68c-.13.81,1,1.67,3,1.69,2.23,0,2.72-.86,2.54-1.6C73.56,67.38,69.55,68.69,69.09,71.68Z"/><path class="cls-30" d="M52.3,65.91c-1.65-.45-2.26-1-3-.57-.94.59.81,2.06,1.21,2.36s3.64,1.82,5.84.47C58.32,67,53.92,66.36,52.3,65.91Z"/><path class="cls-31" d="M77.28,54C77,56.1,75,64,76.23,64.75c7.87,4.63,16.48-1.24,16.48-1.24C94.9,50.6,77.28,54,77.28,54Z"/><path class="cls-32" d="M50.61,63.7S59,69.29,67,64.11c1.23-.79-1.2-7.8-1.54-10C65.48,54.16,49.94,49.18,50.61,63.7Z"/><path class="cls-33" d="M89.11,36.51c-.58-.16-1.22-.31-1.91-.46-5.06-1.1-13-4.82-20.28-4.82a47.36,47.36,0,0,0-11.68,1.69,11.35,11.35,0,0,0-3.5,1.44c-2.75,1.87-4.35,5.41-5.27,13.81-.29,2.73.12,19.84.12,20,5.51-16,5.16-24.27,8.22-26.1s11.91-1.71,18-2.2c5.07-.4,14.67.51,15.85,2.08,2.93,3.92,1.54,10.64,8.3,25,0,0-.4-18.19-.84-22.94C95.54,37.84,93.9,37.83,89.11,36.51Z"/><path class="cls-34" d="M59.43,57.83c-1.32-.07-4.13.32-5.07,1.06-1.67,1.3-2.27,2.48-2.12,4,0,.44,1.83,2.13,5.65,2.42,2.85.22,7.38,0,8.47-1.19.53-.57-.15-2.87-.36-3.68C65.6,58.88,63.43,58.05,59.43,57.83Z"/><path class="cls-35" d="M62.23,59.41c-6.12-.73-5.75.18-8.23,3a2.32,2.32,0,0,0,.37,1,4.24,4.24,0,0,0,2.55,1.47,13.24,13.24,0,0,0,6.86-.14c.71-.15,1.5-.82,1.48-1.13a5.16,5.16,0,0,0-.38-2.37A3.08,3.08,0,0,0,62.23,59.41Z"/><path class="cls-36" d="M54,62.43a2.25,2.25,0,0,0,.35.91c4.39-2.72,9.14-2.09,10.53-2.13C62.4,59.62,58.76,60,57,59.78,54.68,59.53,54,62.43,54,62.43Z"/><path class="cls-37" d="M59.74,59.76a3.36,3.36,0,0,0-3.4,3.6,2.42,2.42,0,0,0,.58,1.49,12.51,12.51,0,0,0,2.87.37,11,11,0,0,0,3-.3,4.08,4.08,0,0,0,.56-1.71A3.18,3.18,0,0,0,59.74,59.76Z"/><path class="cls-38" d="M59.59,59.5a3.59,3.59,0,0,0-3.2,2.8,16.17,16.17,0,0,1,6.5-1.13A3.79,3.79,0,0,0,59.59,59.5Z"/><path class="cls-39" d="M59.81,60.33A2.1,2.1,0,1,0,62,62.39,2.12,2.12,0,0,0,59.81,60.33Z"/><path class="cls-40" d="M63.63,59.76c-2.15-1.2-5.52-1-7.67-.1a2.88,2.88,0,0,0-2,2.77s1.1-1.26,4.72-1.75a13.19,13.19,0,0,1,6.16.53A3.32,3.32,0,0,0,63.63,59.76Z"/><path class="cls-41" d="M61.57,62.59a.87.87,0,1,0,.78,1.55A.89.89,0,0,0,62.8,63,.91.91,0,0,0,61.57,62.59Z"/><path class="cls-41" d="M59.65,61.7a.69.69,0,0,0-.35.94.72.72,0,0,0,1,.29.69.69,0,0,0,.35-.94A.72.72,0,0,0,59.65,61.7Z"/><path class="cls-42" d="M88.72,58.89c-.94-.74-3.75-1.13-5.06-1.06-4,.22-6.17,1.05-6.57,2.58-.22.81-.89,3.11-.37,3.68,1.1,1.2,5.63,1.41,8.48,1.19,3.81-.29,5.6-2,5.65-2.42C91,61.37,90.4,60.19,88.72,58.89Z"/><path class="cls-43" d="M80.86,59.41a3.08,3.08,0,0,0-2.65,1.8,5.09,5.09,0,0,0-.39,2.37c0,.31.78,1,1.49,1.13a13.2,13.2,0,0,0,6.85.14,4.18,4.18,0,0,0,2.55-1.47,2.45,2.45,0,0,0,.38-1C86.61,59.59,87,58.68,80.86,59.41Z"/><path class="cls-36" d="M86.12,59.78c-1.79.19-5.43-.16-7.91,1.43,1.39,0,6.13-.59,10.53,2.13a2.25,2.25,0,0,0,.35-.91S88.4,59.53,86.12,59.78Z"/><path class="cls-44" d="M83.34,59.76a3.18,3.18,0,0,0-3.64,3.45,4.11,4.11,0,0,0,.55,1.71,11,11,0,0,0,3,.3,12.34,12.34,0,0,0,2.87-.37,2.5,2.5,0,0,0,.59-1.49A3.36,3.36,0,0,0,83.34,59.76Z"/><path class="cls-45" d="M83.49,59.5a3.79,3.79,0,0,0-3.3,1.67,16.11,16.11,0,0,1,6.5,1.13A3.56,3.56,0,0,0,83.49,59.5Z"/><path class="cls-46" d="M83.28,60.33a2.1,2.1,0,1,0,2.12,2.13A2.12,2.12,0,0,0,83.28,60.33Z"/><path class="cls-47" d="M87.13,59.66c-2.15-.87-5.52-1.1-7.68.1a3.34,3.34,0,0,0-1.24,1.45,13.19,13.19,0,0,1,6.16-.53c3.61.49,4.72,1.75,4.72,1.75A2.9,2.9,0,0,0,87.13,59.66Z"/><path class="cls-41" d="M85,62.49a1,1,0,0,0-.82,1,.91.91,0,0,0,1,.82,1,1,0,0,0,.82-1A.92.92,0,0,0,85,62.49Z"/><path class="cls-41" d="M83,61.63a.74.74,0,1,0,.81.65A.73.73,0,0,0,83,61.63Z"/><path class="cls-48" d="M88.73,54.29a19.7,19.7,0,0,0-10.64-1.42c-1.24.11-1.28,2.61,0,2.85,2.52.46,5.81-.35,8.2.11,3.49.66,5.15,1,5.15,1A4.67,4.67,0,0,0,88.73,54.29Z"/><path class="cls-49" d="M65,52.69A23.88,23.88,0,0,0,54.54,54a3.82,3.82,0,0,0-2.48,2.81,36.21,36.21,0,0,1,4.8-1.11c2.9-.53,6.83-.26,8.34-.34C65.2,55.4,66.21,52.74,65,52.69Z"/><path class="cls-50" d="M81.78,22.82a38.46,38.46,0,0,0-12,.09,33.12,33.12,0,0,0-19.28,8.32C44.89,33.15,43.06,34,43,42c-.06,5.1.51,7.74.54,17.69,0,0,1.89.12,2.4,3.49.24,1.65.63,4.63.85,6.16.49-4.57,1.68-9.95,2.08-12.35.83-5,1.7-15.54,4-17.45,1.77-.63,17.16-5.16,37.23-.68,2.17,1.54,4.41,16.81,4.74,18.58.86,4.6,1.49,7.35,2.06,11.57,0,0-.1-9.54,2.42-9.39-.89-9-.3-26.39-1-27S89.81,24.55,81.78,22.82Z"/><path class="cls-51" d="M95.55,19a58.09,58.09,0,0,0-22.94,3.4,24.71,24.71,0,0,1,3.49-5.61C56.68,20.17,47.9,31.6,47.9,31.6a21.41,21.41,0,0,1,.5-5.32c-3,1.51-6.2,8.82-6.14,9.67.26,3.49.71,7.81.71,7.81s10-6.89,13.71-8.71S95,36.33,95,36.33a58.66,58.66,0,0,1,6.78-6.56c-3.66-2.6-12.17-4.24-12.17-4.24A19,19,0,0,1,95.55,19Z"/><path class="cls-52" d="M46.52,68.74a58.86,58.86,0,0,0,1.61,12A11.47,11.47,0,0,0,51.26,86c3.81,3.56,9,7.73,9,7.73-.75-1.09-7.08-8.38-8.21-10.07C47.69,77.26,46.52,68.74,46.52,68.74Z"/><path class="cls-53" d="M83.79,94.56c1.61-1.26,5.55-4.5,8.89-7.68a13.48,13.48,0,0,0,3.06-5.95C96.19,79.17,96.81,69,96.81,69c-.48,4.41-1.79,10.69-4.12,14.91S84.71,93.34,83.79,94.56Z"/><path class="cls-54" d="M62.6,96.09s3.14,4.17,10.08,3.92A13.62,13.62,0,0,0,82.94,95.2a16.75,16.75,0,0,1-10.7,3.6C65.88,98.59,62.6,96.09,62.6,96.09Z"/><path class="cls-55" d="M91.18,33.73c-1.88-1.87-32.54.75-39.12,4-2,1-3.16,6.24-3.83,12.57-.95,8.89-1.48,19-1.48,19s2.4-14.71,2.84-17.74,1.86-11,3.19-12.06S72.89,34.48,90,38.85c0,0,1.59,1.61,3.87,13.84S96.81,69,96.81,69s-1.39-16.24-1.59-17.59S93.06,35.59,91.18,33.73Z"/><path class="cls-56" d="M59,29.71c9.66-5.07,31-7.31,31-7.31l-.43,3.13c3.56-5.12,6-6.53,6-6.53C75.6,16.75,59,29.71,59,29.71Z"/><path class="cls-57" d="M47.9,31.6S54.38,24,70.14,20.11L73,21.65a56.12,56.12,0,0,1,3.14-4.86S55.18,19.13,47.9,31.6Z"/><path class="cls-58" d="M99.61,31.6l2.14-1.83c-6.85-4.13-12.17-4.24-12.17-4.24C97.39,28.24,99.61,31.6,99.61,31.6Z"/><path class="cls-59" d="M42.33,35.54A27.62,27.62,0,0,1,48,28.23c0-.31.39-1.95.39-1.95C44.39,28.79,42.33,35.54,42.33,35.54Z"/></svg>