<svg id="Layer_1" data-name="Layer 1" xmlns="http://www.w3.org/2000/svg" xmlns:xlink="http://www.w3.org/1999/xlink" viewBox="0 0 144 144"><defs><style>.cls-1{fill:#f6ece6;}.cls-2{fill:#f7d9ab;}.cls-3{fill:url(#linear-gradient);}.cls-4{fill:url(#linear-gradient-2);}.cls-5{fill:url(#linear-gradient-3);}.cls-6{fill:#1fb78f;}.cls-7{fill:url(#linear-gradient-4);}.cls-8{fill:url(#linear-gradient-5);}.cls-9{fill:url(#linear-gradient-6);}.cls-10{fill:url(#linear-gradient-7);}.cls-11{fill:url(#linear-gradient-8);}.cls-12{fill:url(#linear-gradient-9);}.cls-13{fill:url(#linear-gradient-10);}.cls-14{fill:url(#linear-gradient-11);}.cls-15{fill:url(#linear-gradient-12);}.cls-16{fill:url(#linear-gradient-13);}.cls-17{fill:url(#linear-gradient-14);}.cls-18{fill:url(#linear-gradient-15);}.cls-19{fill:url(#linear-gradient-16);}.cls-20{fill:#f1c99a;}.cls-21{fill:url(#linear-gradient-17);}.cls-22{fill:url(#linear-gradient-18);}.cls-23{fill:url(#linear-gradient-19);}.cls-24{fill:url(#radial-gradient);}.cls-25{fill:url(#linear-gradient-20);}.cls-26{fill:url(#radial-gradient-2);}.cls-27{fill:url(#linear-gradient-21);}.cls-28{fill:url(#linear-gradient-22);}.cls-29{fill:url(#linear-gradient-23);}.cls-30{fill:url(#linear-gradient-24);}.cls-31{fill:url(#linear-gradient-25);}.cls-32{fill:url(#linear-gradient-26);}.cls-33{fill:url(#linear-gradient-27);}.cls-34{fill:url(#linear-gradient-28);}.cls-35{fill:#971b27;}.cls-36{fill:url(#linear-gradient-29);}.cls-37{fill:url(#linear-gradient-30);}.cls-38{fill:#f26d79;}.cls-39{fill:url(#linear-gradient-31);}.cls-40{fill:#f598a2;}.cls-41{fill:url(#linear-gradient-32);}.cls-42{fill:url(#linear-gradient-33);}.cls-43{fill:url(#linear-gradient-34);}.cls-44{fill:url(#linear-gradient-35);}.cls-45{fill:#ddd;}.cls-46{fill:url(#linear-gradient-36);}.cls-47{fill:url(#linear-gradient-37);}.cls-48{fill:url(#linear-gradient-38);}.cls-49{fill:url(#radial-gradient-3);}.cls-50{fill:#fff;}.cls-51{fill:url(#linear-gradient-39);}.cls-52{fill:#dba879;}.cls-53{fill:url(#linear-gradient-40);}.cls-54{fill:url(#linear-gradient-41);}.cls-55{fill:url(#linear-gradient-42);}.cls-56{fill:url(#linear-gradient-43);}.cls-57{fill:url(#linear-gradient-44);}.cls-58{fill:url(#linear-gradient-45);}.cls-59{fill:url(#radial-gradient-4);}.cls-60{fill:url(#linear-gradient-46);}.cls-61{fill:url(#linear-gradient-47);}.cls-62{fill:url(#linear-gradient-48);}.cls-63{fill:url(#linear-gradient-49);}.cls-64{fill:url(#linear-gradient-50);}.cls-65{fill:url(#linear-gradient-51);}.cls-66{fill:url(#linear-gradient-52);}.cls-67{fill:url(#linear-gradient-53);}.cls-68{fill:url(#linear-gradient-54);}.cls-69{fill:url(#linear-gradient-55);}.cls-70{fill:url(#linear-gradient-56);}.cls-71{fill:url(#linear-gradient-57);}.cls-72{fill:url(#linear-gradient-58);}.cls-73{fill:url(#linear-gradient-59);}.cls-74{fill:url(#linear-gradient-60);}.cls-75{fill:url(#linear-gradient-61);}.cls-76{fill:url(#linear-gradient-62);}.cls-77{fill:url(#linear-gradient-63);}.cls-78{fill:url(#linear-gradient-64);}.cls-79{fill:url(#linear-gradient-65);}.cls-80{fill:url(#linear-gradient-66);}.cls-81{fill:url(#linear-gradient-67);}.cls-82{fill:url(#linear-gradient-68);}.cls-83{fill:url(#linear-gradient-69);}</style><linearGradient id="linear-gradient" x1="87.56" y1="113.64" x2="67.07" y2="116.66" gradientUnits="userSpaceOnUse"><stop offset="0" stop-color="#f1c99a"/><stop offset="0.53" stop-color="#f2cc9d"/><stop offset="0.87" stop-color="#f5d4a5"/><stop offset="1" stop-color="#f7d9ab"/></linearGradient><linearGradient id="linear-gradient-2" x1="2.69" y1="113.24" x2="59.19" y2="117.41" gradientUnits="userSpaceOnUse"><stop offset="0" stop-color="#f7d9ab"/><stop offset="0.53" stop-color="#f6d6a8"/><stop offset="0.87" stop-color="#f3cea0"/><stop offset="1" stop-color="#f1c99a"/></linearGradient><linearGradient id="linear-gradient-3" x1="68.05" y1="142.09" x2="70.3" y2="123.82" gradientUnits="userSpaceOnUse"><stop offset="0" stop-color="#f1c99a"/><stop offset="0.32" stop-color="#f3cfa1"/><stop offset="1" stop-color="#f7d9ab"/></linearGradient><linearGradient id="linear-gradient-4" x1="72.67" y1="156.43" x2="66.54" y2="126.11" gradientUnits="userSpaceOnUse"><stop offset="0" stop-color="#1fb78f"/><stop offset="0.39" stop-color="#28b892"/><stop offset="1" stop-color="#3ebb99"/></linearGradient><linearGradient id="linear-gradient-5" x1="36.07" y1="133.07" x2="36.04" y2="135.16" gradientUnits="userSpaceOnUse"><stop offset="0" stop-color="#1fb78f"/><stop offset="0.46" stop-color="#1eae89"/><stop offset="1" stop-color="#1c9e7d"/></linearGradient><linearGradient id="linear-gradient-6" x1="98.58" y1="133.3" x2="98.46" y2="141.29" xlink:href="#linear-gradient-5"/><linearGradient id="linear-gradient-7" x1="25.59" y1="134.13" x2="25.49" y2="102.41" xlink:href="#linear-gradient-4"/><linearGradient id="linear-gradient-8" x1="35.99" y1="118.19" x2="36.64" y2="140.89" xlink:href="#linear-gradient-5"/><linearGradient id="linear-gradient-9" x1="98.74" y1="116.77" x2="99.53" y2="144.57" xlink:href="#linear-gradient-5"/><linearGradient id="linear-gradient-10" x1="113.88" y1="136.78" x2="113.78" y2="100.1" xlink:href="#linear-gradient-4"/><linearGradient id="linear-gradient-11" x1="58.67" y1="99.03" x2="78.64" y2="120.77" xlink:href="#linear-gradient"/><linearGradient id="linear-gradient-12" x1="72.15" y1="112.89" x2="94.19" y2="109.45" gradientUnits="userSpaceOnUse"><stop offset="0" stop-color="#ffdeb3"/><stop offset="1" stop-color="#f7d9ab"/></linearGradient><linearGradient id="linear-gradient-13" x1="70.31" y1="114.83" x2="46.49" y2="108.58" xlink:href="#linear-gradient-12"/><linearGradient id="linear-gradient-14" x1="68.49" y1="90.14" x2="71.33" y2="102.15" gradientUnits="userSpaceOnUse"><stop offset="0" stop-color="#dba879"/><stop offset="0.49" stop-color="#e4b687"/><stop offset="1" stop-color="#f1c99a"/></linearGradient><linearGradient id="linear-gradient-15" x1="44.62" y1="16.55" x2="42.43" y2="84.89" gradientUnits="userSpaceOnUse"><stop offset="0" stop-color="#4b312c"/><stop offset="0.29" stop-color="#3a2621"/><stop offset="0.61" stop-color="#301f1b"/><stop offset="1" stop-color="#2d1d19"/></linearGradient><linearGradient id="linear-gradient-16" x1="98.53" y1="15.83" x2="96.33" y2="84.58" xlink:href="#linear-gradient-15"/><linearGradient id="linear-gradient-17" x1="97.82" y1="67.73" x2="94.86" y2="80.83" gradientUnits="userSpaceOnUse"><stop offset="0" stop-color="#dba879"/><stop offset="0.22" stop-color="#e2b384"/><stop offset="0.66" stop-color="#edc394"/><stop offset="1" stop-color="#f1c99a"/></linearGradient><linearGradient id="linear-gradient-18" x1="42.51" y1="67.04" x2="45.47" y2="82.4" xlink:href="#linear-gradient-17"/><linearGradient id="linear-gradient-19" x1="84.57" y1="74.48" x2="83.74" y2="61.7" xlink:href="#linear-gradient-2"/><radialGradient id="radial-gradient" cx="126.46" cy="80.51" r="22.14" gradientTransform="translate(35.39 43.75) scale(0.41 0.41)" gradientUnits="userSpaceOnUse"><stop offset="0" stop-color="#f9b58e"/><stop offset="0.56" stop-color="#f8c89d"/><stop offset="1" stop-color="#f7d9ab"/></radialGradient><linearGradient id="linear-gradient-20" x1="55.53" y1="58.4" x2="57.39" y2="75.65" gradientUnits="userSpaceOnUse"><stop offset="0" stop-color="#f1c99a"/><stop offset="0.13" stop-color="#f3cea0"/><stop offset="0.47" stop-color="#f6d6a8"/><stop offset="1" stop-color="#f7d9ab"/></linearGradient><radialGradient id="radial-gradient-2" cx="44.82" cy="82.62" r="20.68" xlink:href="#radial-gradient"/><linearGradient id="linear-gradient-21" x1="87.87" y1="72.54" x2="92.76" y2="72.54" xlink:href="#linear-gradient-12"/><linearGradient id="linear-gradient-22" x1="47.37" y1="72.74" x2="52.26" y2="72.74" xlink:href="#linear-gradient-12"/><linearGradient id="linear-gradient-23" x1="72.95" y1="1.47" x2="68.96" y2="77.39" gradientUnits="userSpaceOnUse"><stop offset="0" stop-color="#f7d9ab"/><stop offset="0.46" stop-color="#f3cfa1"/><stop offset="1" stop-color="#f1c99a"/></linearGradient><linearGradient id="linear-gradient-24" x1="64.56" y1="93.71" x2="73.44" y2="93.71" gradientUnits="userSpaceOnUse"><stop offset="0" stop-color="#ffdeb3"/><stop offset="0.68" stop-color="#fcdcb0"/><stop offset="1" stop-color="#f7d9ab"/></linearGradient><linearGradient id="linear-gradient-25" x1="79.74" y1="81.18" x2="95.56" y2="81.18" xlink:href="#linear-gradient-24"/><linearGradient id="linear-gradient-26" x1="70.59" y1="99.33" x2="71.08" y2="110.91" xlink:href="#linear-gradient-14"/><linearGradient id="linear-gradient-27" x1="63.05" y1="86.36" x2="60.05" y2="83.88" xlink:href="#linear-gradient-2"/><linearGradient id="linear-gradient-28" x1="82.03" y1="84.59" x2="79.86" y2="83.5" xlink:href="#linear-gradient-2"/><linearGradient id="linear-gradient-29" x1="63.96" y1="86.79" x2="77.26" y2="86.79" gradientUnits="userSpaceOnUse"><stop offset="0" stop-color="#e8d9d7"/><stop offset="0.14" stop-color="#f0e6e4"/><stop offset="0.39" stop-color="#fbf8f8"/><stop offset="0.57" stop-color="#fff"/><stop offset="1" stop-color="#e8d3d1"/></linearGradient><linearGradient id="linear-gradient-30" x1="59.65" y1="85.27" x2="80.6" y2="85.27" gradientUnits="userSpaceOnUse"><stop offset="0" stop-color="#e8d9d7"/><stop offset="0.04" stop-color="#ebdfdd"/><stop offset="0.21" stop-color="#f6f1f0"/><stop offset="0.38" stop-color="#fdfbfb"/><stop offset="0.57" stop-color="#fff"/><stop offset="0.69" stop-color="#fbf8f8"/><stop offset="0.87" stop-color="#f1e5e3"/><stop offset="1" stop-color="#e8d3d1"/></linearGradient><linearGradient id="linear-gradient-31" x1="63.47" y1="87.62" x2="78.78" y2="87.62" gradientUnits="userSpaceOnUse"><stop offset="0" stop-color="#f26e7f"/><stop offset="0.02" stop-color="#f26f80"/><stop offset="0.24" stop-color="#f37986"/><stop offset="0.53" stop-color="#f37c88"/><stop offset="0.77" stop-color="#f37885"/><stop offset="1" stop-color="#f26d7d"/></linearGradient><linearGradient id="linear-gradient-32" x1="62.65" y1="84.9" x2="78.86" y2="84.94" gradientUnits="userSpaceOnUse"><stop offset="0" stop-color="#e8d9d7"/><stop offset="0.05" stop-color="#eadddb"/><stop offset="0.31" stop-color="#f6efef"/><stop offset="0.48" stop-color="#faf6f6"/><stop offset="1" stop-color="#e8d3d1"/></linearGradient><linearGradient id="linear-gradient-33" x1="64.91" y1="84.21" x2="76.52" y2="84.21" xlink:href="#linear-gradient-31"/><linearGradient id="linear-gradient-34" x1="62.97" y1="64.3" x2="50.75" y2="69.04" gradientUnits="userSpaceOnUse"><stop offset="0" stop-color="#f1c99a"/><stop offset="0.51" stop-color="#e4b687"/><stop offset="1" stop-color="#dba879"/></linearGradient><linearGradient id="linear-gradient-35" x1="59.95" y1="67.39" x2="64.19" y2="67.39" gradientUnits="userSpaceOnUse"><stop offset="0" stop-color="#fff"/><stop offset="0.46" stop-color="#fdfcfc"/><stop offset="0.76" stop-color="#f6f4f4"/><stop offset="1" stop-color="#ece7e6"/></linearGradient><linearGradient id="linear-gradient-36" x1="52.21" y1="67.26" x2="55.73" y2="67.26" xlink:href="#linear-gradient-35"/><linearGradient id="linear-gradient-37" x1="64.03" y1="72.75" x2="53.89" y2="65.54" gradientUnits="userSpaceOnUse"><stop offset="0" stop-color="#b89c8c"/><stop offset="1" stop-color="#725342"/></linearGradient><linearGradient id="linear-gradient-38" x1="71.65" y1="73.54" x2="61.11" y2="67.91" xlink:href="#linear-gradient-37"/><radialGradient id="radial-gradient-3" cx="52.92" cy="58.52" r="7.46" gradientTransform="translate(35.39 43.75) scale(0.41 0.41)" gradientUnits="userSpaceOnUse"><stop offset="0" stop-color="#2b3b3b"/><stop offset="1" stop-color="#1d2827"/></radialGradient><linearGradient id="linear-gradient-39" x1="48.37" y1="66.91" x2="64.19" y2="66.91" xlink:href="#linear-gradient-15"/><linearGradient id="linear-gradient-40" x1="56.37" y1="65.45" x2="62.51" y2="78.63" gradientUnits="userSpaceOnUse"><stop offset="0" stop-color="#2d1d19"/><stop offset="0.36" stop-color="#31201c"/><stop offset="0.74" stop-color="#3e2824"/><stop offset="1" stop-color="#4b312c"/></linearGradient><linearGradient id="linear-gradient-41" x1="89.81" y1="63.95" x2="75.78" y2="69.4" xlink:href="#linear-gradient-14"/><linearGradient id="linear-gradient-42" x1="76.05" y1="67.13" x2="80.29" y2="67.13" xlink:href="#linear-gradient-35"/><linearGradient id="linear-gradient-43" x1="85.53" y1="67.01" x2="89.05" y2="67.01" xlink:href="#linear-gradient-35"/><linearGradient id="linear-gradient-44" x1="87.66" y1="70.76" x2="77.76" y2="64.58" xlink:href="#linear-gradient-37"/><linearGradient id="linear-gradient-45" x1="95.87" y1="67.23" x2="83.01" y2="65.71" xlink:href="#linear-gradient-37"/><radialGradient id="radial-gradient-4" cx="114.23" cy="57.85" r="7.46" xlink:href="#radial-gradient-3"/><linearGradient id="linear-gradient-46" x1="76.06" y1="66.65" x2="91.88" y2="66.65" gradientUnits="userSpaceOnUse"><stop offset="0" stop-color="#2d1d19"/><stop offset="0.39" stop-color="#301f1b"/><stop offset="0.71" stop-color="#3a2621"/><stop offset="1" stop-color="#4b312c"/></linearGradient><linearGradient id="linear-gradient-47" x1="79.49" y1="77.86" x2="82.95" y2="67.43" gradientUnits="userSpaceOnUse"><stop offset="0" stop-color="#4b312c"/><stop offset="0.26" stop-color="#3e2824"/><stop offset="0.64" stop-color="#31201c"/><stop offset="1" stop-color="#2d1d19"/></linearGradient><linearGradient id="linear-gradient-48" x1="70.25" y1="82.57" x2="70.22" y2="78.94" xlink:href="#linear-gradient-2"/><linearGradient id="linear-gradient-49" x1="71.31" y1="78.95" x2="68.24" y2="71.01" xlink:href="#linear-gradient-12"/><linearGradient id="linear-gradient-50" x1="74.99" y1="78.29" x2="71.95" y2="79.8" xlink:href="#linear-gradient-14"/><linearGradient id="linear-gradient-51" x1="65.58" y1="78.45" x2="68.83" y2="79.78" xlink:href="#linear-gradient-14"/><linearGradient id="linear-gradient-52" x1="48.45" y1="58.19" x2="63.37" y2="58.19" xlink:href="#linear-gradient-47"/><linearGradient id="linear-gradient-53" x1="76.79" y1="58.26" x2="91.61" y2="58.26" xlink:href="#linear-gradient-40"/><linearGradient id="linear-gradient-54" x1="94.54" y1="47.52" x2="95.55" y2="79.04" gradientUnits="userSpaceOnUse"><stop offset="0" stop-color="#6c342a"/><stop offset="0.29" stop-color="#5b2c23"/><stop offset="0.71" stop-color="#49231b"/><stop offset="1" stop-color="#422018"/></linearGradient><linearGradient id="linear-gradient-55" x1="71.45" y1="18.91" x2="69.39" y2="83.32" xlink:href="#linear-gradient-15"/><linearGradient id="linear-gradient-56" x1="68.39" y1="39.92" x2="57.16" y2="20.87" gradientUnits="userSpaceOnUse"><stop offset="0" stop-color="#4b312c"/><stop offset="0.4" stop-color="#503530"/><stop offset="0.83" stop-color="#5d3f3a"/><stop offset="1" stop-color="#644540"/></linearGradient><linearGradient id="linear-gradient-57" x1="52.64" y1="18.28" x2="46.23" y2="64.45" xlink:href="#linear-gradient-47"/><linearGradient id="linear-gradient-58" x1="56.1" y1="33.98" x2="53.56" y2="52.27" xlink:href="#linear-gradient-47"/><linearGradient id="linear-gradient-59" x1="64.48" y1="41.8" x2="62.63" y2="55.07" xlink:href="#linear-gradient-47"/><linearGradient id="linear-gradient-60" x1="75.39" y1="37.65" x2="72.68" y2="57.15" xlink:href="#linear-gradient-47"/><linearGradient id="linear-gradient-61" x1="85.06" y1="35.37" x2="81.61" y2="60.22" xlink:href="#linear-gradient-47"/><linearGradient id="linear-gradient-62" x1="78.62" y1="32.49" x2="91.76" y2="61.1" xlink:href="#linear-gradient-47"/><linearGradient id="linear-gradient-63" x1="61.3" y1="25.55" x2="162.09" y2="71.85" gradientUnits="userSpaceOnUse"><stop offset="0" stop-color="#4b312c"/><stop offset="0.28" stop-color="#3c2723"/><stop offset="0.63" stop-color="#31201b"/><stop offset="1" stop-color="#2d1d19"/></linearGradient><linearGradient id="linear-gradient-64" x1="58.45" y1="26.98" x2="132.69" y2="69.9" xlink:href="#linear-gradient-63"/><linearGradient id="linear-gradient-65" x1="54.64" y1="34.53" x2="121.33" y2="73.07" xlink:href="#linear-gradient-63"/><linearGradient id="linear-gradient-66" x1="52.64" y1="37.04" x2="99.63" y2="64.21" xlink:href="#linear-gradient-63"/><linearGradient id="linear-gradient-67" x1="50.53" y1="38.92" x2="86.36" y2="59.62" xlink:href="#linear-gradient-63"/><linearGradient id="linear-gradient-68" x1="41.64" y1="40.86" x2="55.96" y2="49.14" xlink:href="#linear-gradient-63"/><linearGradient id="linear-gradient-69" x1="48.88" y1="38.4" x2="56.92" y2="43.05" xlink:href="#linear-gradient-63"/></defs><circle class="cls-1" cx="72" cy="72" r="72" transform="translate(-29.82 72) rotate(-45)"/><path class="cls-2" d="M79.79,88.26l-18.07.31c0,1.82-1.06,13.51-2.58,15.79-.91,1.37-21.37,7-21.37,7,.91,10.7,15.19,26,35.46,26s27.5-26.4,27.5-26.4-16.62-4-18-5.34S79.79,88.26,79.79,88.26Z"/><path class="cls-3" d="M68.63,117.51c1.32-1.52,6.2-2.28,6.2-2.28C70.15,113.54,68.63,117.51,68.63,117.51Z"/><path class="cls-4" d="M84.52,122.44c-8.22,2.18-20.12,1.6-25.15,1S48.69,120.93,45,117.9a23.89,23.89,0,0,1-5.7-7L35.64,112c1.78,9.7,14.35,13.54,24,15s25.11,1.31,33.07-2.83,10-12.83,10-12.83l-3.57-.83C96.72,117.69,90.73,120.8,84.52,122.44Z"/><path class="cls-5" d="M62.26,127.3c5.72,3.94,5,10.32,4.27,13.87l7.94-.32s-2.77-9.15,3.29-13.42C81.3,124.93,58.07,124.42,62.26,127.3Z"/><path class="cls-6" d="M104.18,136.42a32.36,32.36,0,0,0,.52-8.18l9.38-13.78s-.54-1.15-4.25-2.21c-1.84-.53-8.43-2.32-9.19-2.49-2.28,9.62-10.32,15.58-29.86,15.61-17.46,0-27.69-1.74-33-14.77,0,0-7.44,1.58-9.23,2.24-3.35,1.24-3.75,2.33-3.75,2.33l9.68,14.25c-.1,1.09-.16,2.43-.18,3.91a72.07,72.07,0,0,0,69.91,3.09Z"/><path class="cls-7" d="M89.48,131.57c-5.78-2.26-32-3.47-40.89.15-4.37,1.78-3.39,5.2-1,8a72.4,72.4,0,0,0,38.83,2.79C91.3,139.19,92.37,132.69,89.48,131.57Z"/><path class="cls-8" d="M36.2,134c-.31-.81-.48-.67-.53.21l.77.44Z"/><path class="cls-9" d="M99,134.67A32.9,32.9,0,0,1,98,139.18l1.09-.43C99,137.06,99,135.67,99,134.67Z"/><path class="cls-6" d="M24.69,116c-.59,3.1-1,6.15-1.32,9.07a71.75,71.75,0,0,0,14.22,10.17c-.28-3.36-.51-6.23-.58-7.51C36.82,123.84,25.47,111.91,24.69,116Z"/><path class="cls-10" d="M24.17,116.39a33.13,33.13,0,0,0-1.48,8.06,72.28,72.28,0,0,0,5.75,4.88C27.59,119.52,26.06,111.24,24.17,116.39Z"/><path class="cls-11" d="M35.18,133.88c.84.5,1.69,1,2.56,1.46-.39-4.69-.79-8.7-1.12-10.23C36.25,123.36,35.69,128.16,35.18,133.88Z"/><path class="cls-6" d="M102.52,125.21c-3.13,2.93-4.5,12.9-4.5,12.9s0,.39,0,1a72,72,0,0,0,18.75-10.76c-.67-8.8-2.31-13.36-2.31-13.36C110,114.21,105.65,122.27,102.52,125.21Z"/><path class="cls-12" d="M99.2,129.71s-.85,5.68-1.25,9.47c1-.37,1.89-.76,2.81-1.16C100.55,129.15,100.08,121.11,99.2,129.71Z"/><path class="cls-13" d="M110.92,132.58a72,72,0,0,0,5.9-4.23c-.46-7.4-1.57-11.09-2.19-12.86C113,110.84,111.72,121.24,110.92,132.58Z"/><path class="cls-14" d="M83.06,104.43c-.54-.65-1-2.07-1.29-4.71-.11-1.14-.28-5.41-.32-6.91-.32.39-20.16,1-20.92-.08l-1.86-.35A49,49,0,0,1,58.09,104c-.33,1.59-18.52,6.82-18.52,6.82,5.55-1.07,16.06-.85,18.22-1.22a24.58,24.58,0,0,0,6-1.95c11.89-5.45,15.6-7.25,15.6-7.25.56,5.07,4.31,8.42,4.11,8.37a78.46,78.46,0,0,0,15.65,1.78C88.69,108.1,84.27,105.89,83.06,104.43Z"/><path class="cls-15" d="M77.45,110.49c-1.67.41-2.86,3.51-2.86,3.51,3.71-2.9,7.43-2.07,12.17-2.62,3-.35,7.11-.58,9.77-.71C90.9,110.68,78.8,110.15,77.45,110.49Z"/><path class="cls-16" d="M65.5,110.91c-2-.69-19.62-.84-22.44-.56,0,0,21.67,1.16,25.64,3.62A6.55,6.55,0,0,0,65.5,110.91Z"/><path class="cls-17" d="M57.79,89.51c.89,2.46.71,11.83.71,11.83C72,105.61,81.57,96,81.57,96l-.12-4.5Z"/><polygon class="cls-18" points="41.02 53.81 42.32 67.19 45.45 65.8 44.93 53.13 41.02 53.81"/><polygon class="cls-19" points="94.48 71.14 97.78 69.42 99.5 56.93 94.98 57.7 94.48 71.14"/><path class="cls-20" d="M97,66.31c-.78,0-1.66,2-1.66,2C94.19,75,93.72,80.2,93.72,80.2,98.08,78.83,101.43,66.27,97,66.31Z"/><path class="cls-21" d="M96.37,72.86a5.09,5.09,0,0,1-.6,4,9.44,9.44,0,0,0,1.78-3.58c.47-3.2-.82-3.43-.24-4.22.46-.64,1.11,1.23,1.11,1.23C99.09,66,95.17,66.93,96.37,72.86Z"/><path class="cls-20" d="M43.6,66c-4.42-.2-1.53,12.48,2.78,14,0,0-.28-5.17-1.2-12C45.18,68.05,44.37,66.06,43.6,66Z"/><path class="cls-22" d="M44.25,72.68c.91-6.28-3.35-6.7-2.37-2.42,0,0,.58-2,1.12-1.42s-.7,1.16,0,4.4a9,9,0,0,0,2.14,3.45A4.89,4.89,0,0,1,44.25,72.68Z"/><path class="cls-2" d="M74.07,34.8C59,32.3,48.34,45.5,45.52,61.51c-1.58,9-1,17,3.86,23.59,1.95,2.68,4.36,4,7.17,6.08,1.78,1.34,4.57,4.21,6.48,5.61a10.66,10.66,0,0,0,6,2.38c7.07.25,11.72-5,13.75-6.92C89.87,85.58,96.42,83.1,95,64.53,93.86,49.94,83.92,35.11,74.07,34.8Z"/><path class="cls-23" d="M82.38,57.29c-8.38,1.5-8,7.81-8.68,15.19,13.53,5.54,21.35-1,21.35-1s0-8.17-1.91-11C92.43,59.44,90.2,55.89,82.38,57.29Z"/><path class="cls-24" d="M85.42,67.3c-3.94.8-7.84,5.2-7,9.42A12.6,12.6,0,0,0,85.81,86C90.7,88,94.26,81.69,95.1,73.93,95.57,69.65,89.36,66.5,85.42,67.3Z"/><path class="cls-25" d="M56.78,57.65c-3.45-.25-6.3.31-8.08,1.64C44.54,62.4,47,71,47,71s6.49,7.58,20.17,2.2C66.24,67.35,67.85,58.42,56.78,57.65Z"/><path class="cls-26" d="M54.89,68.69c-3.61-.91-9.3,1.78-9.22,5.51.18,8.82,3.75,11.41,8.5,12.11,3.68.55,6.3-5.9,7.21-9.51S58.49,69.6,54.89,68.69Z"/><path class="cls-27" d="M90,71.22c-1.34.34-2.28,1.2-2.09,1.93s1.41,1,2.75.71,2.28-1.2,2.09-1.93S91.38,70.88,90,71.22Z"/><path class="cls-28" d="M49.88,71.41c-1.34-.25-2.54.13-2.68.86s.83,1.54,2.17,1.8,2.55-.13,2.69-.86S51.22,71.67,49.88,71.41Z"/><path class="cls-29" d="M76.42,35.13s-17.82-13-28.11,3.53c-5.25,8.42-5.24,31.57-2.39,39.76A20.46,20.46,0,0,1,48.6,67.24,49.69,49.69,0,0,1,50.07,51.5c.9,6.86,14.36,7.87,24.71,9.67C83.86,62.75,92.36,63,95.14,71.54a48.49,48.49,0,0,0-2.37-17.67C89.86,45.52,84.25,36.66,76.42,35.13Z"/><path class="cls-30" d="M70.34,92.53c-1.87-.1-3.44.35-3.52,1s1.38,1.26,3.25,1.36,3.43-.35,3.51-1S72.2,92.63,70.34,92.53Z"/><path class="cls-31" d="M91.92,67.35c5.41,7.72-.23,16.22-4.6,20.14-4.82,4.33-6.8,6.8-7.58,7.52.7-.6,7.12-6.2,9-7.5,1.69-1.2,8.24-7.65,6.6-15.75C95.3,71.76,94.26,68.42,91.92,67.35Z"/><path class="cls-20" d="M53.59,88.41c-9.54-6.88-6.69-19.18-6.69-19.18-5,12.49,3.59,18.11,5.33,19.26,3.57,2.37,9.52,7.27,9.52,7.27A50.84,50.84,0,0,0,53.59,88.41Z"/><path class="cls-32" d="M62.71,96.54s5.85,7.71,15.51-.35C78.22,96.19,70.46,102.25,62.71,96.54Z"/><path class="cls-33" d="M58.63,82.67c-.25.46.08.94.69,1.14a11,11,0,0,1,3,1.63C61.39,84,58.85,82.25,58.63,82.67Z"/><path class="cls-34" d="M78.87,85.42a11.25,11.25,0,0,1,2.91-1.86c.59-.25.89-.75.6-1.19S79.74,84,78.87,85.42Z"/><path class="cls-20" d="M64.72,88.52c1.14,2.43,7.4,5.8,12-.09C76.72,88.43,70.17,91.38,64.72,88.52Z"/><path class="cls-35" d="M59.27,83.13h0a1.3,1.3,0,0,1,.1.15,11.8,11.8,0,0,1,2.68,1.32c.74.53,1.48,4.15,8.81,4a10.6,10.6,0,0,0,8.76-4.18,6.32,6.32,0,0,1,2-1.46,1.15,1.15,0,0,1,.06-.17A35.15,35.15,0,0,1,70,84.35,47.77,47.77,0,0,1,59.27,83.13Z"/><path class="cls-36" d="M76.58,85a37.26,37.26,0,0,1-11.72.47c-1.18-.51-1.06,1-1.06,1,2.58,2.63,4.65,2.13,6.72,2.17a11.06,11.06,0,0,0,6.9-2.4C77.59,85.71,77.16,84.84,76.58,85Z"/><path class="cls-37" d="M66.55,84.48a18.42,18.42,0,0,1-3.75-.63,4.26,4.26,0,0,1,.5.81c.25.58,1.49,2.52,7.39,2.43,4.43-.07,6.76-1.66,7.08-2.61.18-.58.6-.84.63-1a15.22,15.22,0,0,1-4.48,1A38.68,38.68,0,0,1,66.55,84.48Z"/><path class="cls-38" d="M71.25,88.39c-9,0-5.89-3.67-11.88-5.1a11.18,11.18,0,0,1,3,2.55c1.75,2,3.26,5.17,8.3,5.11,4.56-.06,7.06-3.38,8.5-5.21A14.43,14.43,0,0,1,81.66,83C76.77,84.37,78.4,88.14,71.25,88.39Z"/><path class="cls-39" d="M75.09,87.46a17.27,17.27,0,0,1-4.6.86,12.38,12.38,0,0,1-4.57-.74A13.79,13.79,0,0,1,63,85.17c.33.44,2.29,5.21,7.36,5.08,5.87-.14,6.91-4.08,8-5.26A8.83,8.83,0,0,1,75.09,87.46Z"/><path class="cls-40" d="M73,88.53c-.59.21-2.63.36-2.55.57a3.38,3.38,0,0,0,2.83.18c1.2-.34,1.76-1,1.68-1.23S73.54,88.33,73,88.53Z"/><path class="cls-35" d="M59.47,83.64a8.62,8.62,0,0,1,2,.4A21,21,0,0,0,59,82.86C58.83,82.91,58.94,83.4,59.47,83.64Z"/><path class="cls-35" d="M79.69,83.85a6.89,6.89,0,0,1,2-.47c.53-.26.61-.72.51-.79A12.52,12.52,0,0,0,79.69,83.85Z"/><path class="cls-41" d="M63.31,84.69S65.86,86.05,71.1,86a16.43,16.43,0,0,0,6.64-1.48l.3-.7L62.92,84Z"/><path class="cls-38" d="M73.94,83.44a20.48,20.48,0,0,0-3.21.17,34.08,34.08,0,0,0-3.72-.2,24,24,0,0,1-7.26-.24s1.07.65,6.35,1.65a20.2,20.2,0,0,0,4.58.55,26.26,26.26,0,0,0,5-.66A26,26,0,0,0,81.26,83,32.22,32.22,0,0,1,73.94,83.44Z"/><path class="cls-42" d="M72.93,83.61a20.11,20.11,0,0,1-2.53.2c-.52,0-2-.25-2.38-.25a14.16,14.16,0,0,0-3.1.42c-.15.55,5.86.92,6.4.87s5.17-.62,5.2-.85S73.36,83.51,72.93,83.61Z"/><path class="cls-43" d="M55.6,61.77c-1.81.15-5.66.81-5.61,4.21.06,4.31,4.54,5.33,6.54,5.35a16.93,16.93,0,0,0,5.81-1.19c1.12-.34,1.71-.45,2.28-.58C64.46,66.25,63.09,61.77,55.6,61.77Z"/><path class="cls-44" d="M60,64.37a5.22,5.22,0,0,1,1.7,3.14,3.32,3.32,0,0,1-1.33,2.9,26.18,26.18,0,0,1,3.87-1.11A12.91,12.91,0,0,0,60,64.37Z"/><path class="cls-45" d="M60.26,64.86a3.66,3.66,0,0,1,1.41,2.28,12.83,12.83,0,0,1,2.61,2.16S62.69,66,60.26,64.86Z"/><path class="cls-46" d="M57,63.69c-1.85.16-4.09,1.11-6.79,3.35a7.66,7.66,0,0,0,5.91,3.8,3.61,3.61,0,0,1-1.83-3A4.16,4.16,0,0,1,57,63.69Z"/><path class="cls-47" d="M61.68,67a8.43,8.43,0,0,0-7.53-1,4,4,0,0,0-.4,2,3.53,3.53,0,0,0,1.93,2.86,13.37,13.37,0,0,0,4.73-.43,3.17,3.17,0,0,0,1.33-2.9A3.55,3.55,0,0,0,61.68,67Z"/><path class="cls-45" d="M50.86,67.15l.52.95a11.18,11.18,0,0,1,2.54-1.47,3.72,3.72,0,0,1,1.77-2.11A8.07,8.07,0,0,0,50.86,67.15Z"/><path class="cls-48" d="M60.26,64.86a4.27,4.27,0,0,0-1-.36,9.75,9.75,0,0,0-3.53,0,3.64,3.64,0,0,0-1.79,2.12,8.43,8.43,0,0,1,7.8.5A3.6,3.6,0,0,0,60.26,64.86Z"/><path class="cls-49" d="M57.52,64.77a2.56,2.56,0,1,0,2.83,2.35A2.61,2.61,0,0,0,57.52,64.77Z"/><path class="cls-50" d="M58.33,66.25a.67.67,0,0,0-.92.33.71.71,0,0,0,.3,1,.68.68,0,0,0,.92-.33A.71.71,0,0,0,58.33,66.25Z"/><path class="cls-50" d="M60.63,67.2a1,1,0,0,0-1.27.42.93.93,0,0,0,.43,1.25.93.93,0,1,0,.84-1.67Z"/><path class="cls-51" d="M52.91,63.84a5.23,5.23,0,0,1-4.44.13c0,.1-.31,2.73,1.61,3.4,0,0,0,.14.07.28a1.34,1.34,0,0,0-1.28.63s.79-.42,2.52.84a9.25,9.25,0,0,0,4.78,1.78c-2.53-1-3.77-1.58-5.09-3.64a9.84,9.84,0,0,1,7-2.29c3.53.2,6.22,4.33,6.22,4.33C63.13,64.81,59.58,61.15,52.91,63.84Z"/><path class="cls-52" d="M59.54,62.15a10.4,10.4,0,0,0-6.75.2s4-.74,6.6.27a10.84,10.84,0,0,1,3.73,2.13A7.34,7.34,0,0,0,59.54,62.15Z"/><path class="cls-53" d="M58.54,64.6c-5.75-.58-7.46,2.66-7.46,2.66A10.38,10.38,0,0,1,58.36,65c3.26.31,5.92,4.3,5.92,4.3S62.83,65,58.54,64.6Z"/><path class="cls-54" d="M84.83,61.51c-7.5,0-8.87,4.49-9,7.79.56.13,1.16.24,2.28.58a16.87,16.87,0,0,0,5.81,1.19c2,0,6.48-1,6.54-5.35C90.49,62.32,86.64,61.66,84.83,61.51Z"/><path class="cls-55" d="M76.15,69A25.66,25.66,0,0,1,80,70.15a3.37,3.37,0,0,1-1.33-2.9,5.23,5.23,0,0,1,1.71-3.14A12.81,12.81,0,0,0,76.15,69Z"/><path class="cls-45" d="M76.15,69a13,13,0,0,1,2.6-2.16,3.75,3.75,0,0,1,1.42-2.28C77.74,65.78,76.15,69,76.15,69Z"/><path class="cls-56" d="M86.19,67.63a3.62,3.62,0,0,1-1.84,3,7.66,7.66,0,0,0,5.92-3.8c-2.7-2.24-5-3.19-6.79-3.35A4.17,4.17,0,0,1,86.19,67.63Z"/><path class="cls-57" d="M78.74,66.78c0,.17,0,.29-.06.47A3.21,3.21,0,0,0,80,70.15a13.19,13.19,0,0,0,4.74.43,3.5,3.5,0,0,0,1.92-2.86,4,4,0,0,0-.39-2A8.45,8.45,0,0,0,78.74,66.78Z"/><path class="cls-45" d="M84.74,64.26a3.81,3.81,0,0,1,1.77,2.12,11.39,11.39,0,0,1,2.54,1.46l.52-1A8.07,8.07,0,0,0,84.74,64.26Z"/><path class="cls-58" d="M84.74,64.26a9.75,9.75,0,0,0-3.53,0,4.27,4.27,0,0,0-1,.36,3.62,3.62,0,0,0-1.44,2.28,8.82,8.82,0,0,1,3.72-1.2,8.69,8.69,0,0,1,4.08.7A3.67,3.67,0,0,0,84.74,64.26Z"/><path class="cls-59" d="M82.91,64.5a2.56,2.56,0,1,0,2.44,2.74A2.59,2.59,0,0,0,82.91,64.5Z"/><path class="cls-50" d="M83.23,65.93a.72.72,0,0,0-1,.27.69.69,0,0,0,.23,1,.72.72,0,0,0,1-.27A.68.68,0,0,0,83.23,65.93Z"/><path class="cls-50" d="M85.49,66.94a.92.92,0,0,0-1.28.33,1,1,0,0,0,.34,1.29.93.93,0,0,0,1.28-.33A1,1,0,0,0,85.49,66.94Z"/><path class="cls-60" d="M92,63.71a5.23,5.23,0,0,1-4.44-.13c-6.67-2.69-10.23,1-11.37,5.46,0,0,2.68-4.13,6.22-4.33a9.81,9.81,0,0,1,7,2.3c-1.32,2-2.56,2.64-5.1,3.63A9.29,9.29,0,0,0,89,68.86c1.72-1.26,2.51-.82,2.52-.84a1.34,1.34,0,0,0-1.28-.63c0-.14.06-.23.07-.28C92.27,66.45,91.94,63.81,92,63.71Z"/><path class="cls-52" d="M80.89,61.89a7.34,7.34,0,0,0-3.58,2.6A10.84,10.84,0,0,1,81,62.36c2.65-1,6.6-.27,6.6-.27A10.4,10.4,0,0,0,80.89,61.89Z"/><path class="cls-61" d="M81.88,64.34c-4.29.44-5.73,4.7-5.73,4.7s2.66-4,5.92-4.3A10.33,10.33,0,0,1,89.35,67S87.64,63.76,81.88,64.34Z"/><path class="cls-62" d="M70.36,81.49c.85-.11,4.42-2.45,4.42-2.45H65.65S69.5,81.6,70.36,81.49Z"/><path class="cls-63" d="M70.23,75.23c-2.42.06-3.11.68-2.93,1.33.43,1.57,1.46,1.86,3,1.86s2.84-.36,3.08-2C73.43,75.87,72.65,75.16,70.23,75.23Z"/><path class="cls-64" d="M71.86,79.45s4.45.07,3-1.4C74.38,77.56,71.86,79.45,71.86,79.45Z"/><path class="cls-65" d="M65.67,78.25c-1.49,1.26,3.2,1.2,3.2,1.2S66.19,77.8,65.67,78.25Z"/><path class="cls-20" d="M70.27,78.86c-4.51-.06-5-2.26-5.64-.85-.25.58.23.75,1,1,0,0-.25-.65.76-.58.73.05,1.31,1.6,3.92,1.53,2.78-.08,3.15-1.48,3.87-1.52a.5.5,0,0,1,.58.57s1.32-.68.82-1.29C74.69,76.65,74.42,78.92,70.27,78.86Z"/><path class="cls-66" d="M61.27,57.64c-1-.4-5.22-1.69-7.34-1.37s-5.48,3.23-5.48,3.23A13.24,13.24,0,0,1,54,57.75c1.26,0,7.09,1.91,8.66,2.35S63.1,58.4,61.27,57.64Z"/><path class="cls-67" d="M79,57.65c-1.79.84-3.07,3.2-1.52,2.69s7.29-2.69,8.54-2.72a13.88,13.88,0,0,1,5.58,1.45s-3.48-2.7-5.62-2.92S80,57.2,79,57.65Z"/><path class="cls-68" d="M95.38,71.37,96,67s-1.19-8-1.92-9.47C94.05,57.54,94.72,68.52,95.38,71.37Z"/><path class="cls-69" d="M98,34.5c-9.09-18.67-33.77-13.9-37.7-11.62-5.42,3.15-5.13,5.57-6.74,5.51C41.73,28,40.39,42.7,40.19,44.59s.34,12.95.34,12.95l.7-2.7s0,6.09,1.5,8.09,2.43,9.2,2.43,9.2,2-9.67,2.7-13.66.48-13.91.48-13.91c1.09,11.58,11.29,11.51,11.29,11.51-6.71-.7-7.93-8.51-7.93-8.51,3.48,10,22.64,11.19,22.64,11.19C64.23,54.26,63.65,46.61,63.65,46.61c4.27,8.71,18.87,15.22,18.87,15.22a48.81,48.81,0,0,1-10.09-14.7C78.66,59,91.83,65.85,91.83,65.85a35.64,35.64,0,0,1-2-14.81c1.34,4.93,3.28,19.1,3.28,19.1l.75-3.68c0,1.6,1.6,6.74,1.6,6.74A19.61,19.61,0,0,1,98.42,62l.73,2.34c.43-3.84.89-16.56.89-16.56l.82,1.7c1-7.2-5.82-17.95-5.82-17.95Z"/><path class="cls-70" d="M54.15,28.11s-13.53-1.84-14,17.15c0,0,1.7-16.41,13.32-15.23,0,0,11.32-12.76,38.57-3.23,0,0-6.81-6.43-18.79-6.58C62.56,20.09,58.06,23,54.15,28.11Z"/><path class="cls-71" d="M46.63,58.05c-.22,3.35-1.47,14.08-1.47,14.08S47,63.58,47.94,58.92s.34-16.16.34-16.16S46.84,54.7,46.63,58.05Z"/><path class="cls-72" d="M48.28,42.83c.13,14,11.34,13.24,11.34,13.24C49.59,55.14,48.28,42.83,48.28,42.83Z"/><path class="cls-73" d="M51.51,47.2c3.61,11.1,22.83,11.55,22.83,11.55C57.56,56.36,51.51,47.2,51.51,47.2Z"/><path class="cls-74" d="M63.66,46.61S66.6,55,82.51,61.82C82.51,61.82,68.31,53.1,63.66,46.61Z"/><path class="cls-75" d="M72.42,47.11s6.22,13.72,19.42,18.74C91.84,65.85,77.72,55.35,72.42,47.11Z"/><path class="cls-76" d="M93.17,70.14s.69-10.32-3.29-19.1C89.88,51,92.56,65.08,93.17,70.14Z"/><path class="cls-77" d="M56.69,30.42c28-4.8,40.77,13,40.77,13C82.15,14.93,56.69,30.42,56.69,30.42Z"/><path class="cls-78" d="M56.68,31.43c26.44,1.89,41,23.19,41,23.19C88.77,25.72,56.68,31.43,56.68,31.43Z"/><path class="cls-79" d="M56.46,32.64c16,7.17,32.35,28.53,32.35,28.53C81.57,33.46,56.46,32.64,56.46,32.64Z"/><path class="cls-80" d="M55.28,33.35c7.06,14,21.28,22.74,21.28,22.74A151.91,151.91,0,0,0,55.28,33.35Z"/><path class="cls-81" d="M54.59,32.57C47.08,50.22,67,56.58,67,56.58,55.37,46.71,54.59,32.57,54.59,32.57Z"/><path class="cls-82" d="M43.17,56.64c-.38-21.5,9.54-24.27,9.54-24.27C37.32,31.73,43.17,56.64,43.17,56.64Z"/><path class="cls-83" d="M50.15,46.54s.4-8.74,2.36-13.45C52.51,33.09,45.81,39.75,50.15,46.54Z"/></svg>