<svg id="Layer_1" data-name="Layer 1" xmlns="http://www.w3.org/2000/svg" xmlns:xlink="http://www.w3.org/1999/xlink" viewBox="0 0 144 144"><defs><style>.cls-1{fill:#f6ece6;}.cls-2{fill:#f7d9ab;}.cls-3{fill:url(#linear-gradient);}.cls-4{fill:#b52025;}.cls-5{fill:#e9e9ea;}.cls-6{fill:url(#linear-gradient-2);}.cls-7{fill:url(#linear-gradient-3);}.cls-8{fill:url(#linear-gradient-4);}.cls-9{fill:url(#linear-gradient-5);}.cls-10{fill:url(#linear-gradient-6);}.cls-11{fill:url(#linear-gradient-7);}.cls-12{fill:url(#linear-gradient-8);}.cls-13{fill:#f1c99a;}.cls-14{fill:url(#linear-gradient-9);}.cls-15{fill:url(#linear-gradient-10);}.cls-16{fill:url(#radial-gradient);}.cls-17{fill:url(#linear-gradient-11);}.cls-18{fill:url(#linear-gradient-12);}.cls-19{fill:#e1b58c;}.cls-20{fill:url(#linear-gradient-13);}.cls-21{fill:url(#linear-gradient-14);}.cls-22{fill:url(#radial-gradient-2);}.cls-23{fill:url(#linear-gradient-15);}.cls-24{fill:url(#linear-gradient-16);}.cls-25{fill:url(#linear-gradient-17);}.cls-26{fill:url(#linear-gradient-18);}.cls-27{fill:url(#linear-gradient-19);}.cls-28{fill:url(#linear-gradient-20);}.cls-29{fill:#ddd;}.cls-30{fill:url(#linear-gradient-21);}.cls-31{fill:url(#linear-gradient-22);}.cls-32{fill:url(#radial-gradient-3);}.cls-33{fill:url(#linear-gradient-23);}.cls-34{fill:#fff;}.cls-35{fill:url(#linear-gradient-24);}.cls-36{fill:url(#linear-gradient-25);}.cls-37{fill:url(#linear-gradient-26);}.cls-38{fill:url(#linear-gradient-27);}.cls-39{fill:url(#radial-gradient-4);}.cls-40{fill:url(#linear-gradient-28);}.cls-41{fill:url(#linear-gradient-29);}.cls-42{fill:url(#linear-gradient-30);}.cls-43{fill:url(#linear-gradient-31);}.cls-44{fill:#96292c;}.cls-45{fill:#fdddb3;}.cls-46{fill:url(#linear-gradient-32);}.cls-47{fill:url(#linear-gradient-33);}.cls-48{fill:url(#linear-gradient-34);}.cls-49{fill:#f3eceb;}.cls-50{fill:url(#linear-gradient-35);}.cls-51{fill:url(#linear-gradient-36);}.cls-52{fill:url(#linear-gradient-37);}.cls-53{fill:url(#linear-gradient-38);}.cls-54{fill:url(#linear-gradient-39);}.cls-55{fill:#3e1c16;}.cls-56{fill:url(#linear-gradient-40);}.cls-57{fill:url(#linear-gradient-41);}.cls-58{fill:url(#linear-gradient-42);}.cls-59{fill:url(#linear-gradient-43);}</style><linearGradient id="linear-gradient" x1="43.52" y1="94.35" x2="87.73" y2="107.9" gradientUnits="userSpaceOnUse"><stop offset="0" stop-color="#f7d9ab"/><stop offset="0.53" stop-color="#f6d6a8"/><stop offset="0.87" stop-color="#f3cea0"/><stop offset="1" stop-color="#f1c99a"/></linearGradient><linearGradient id="linear-gradient-2" x1="65.49" y1="107.66" x2="68.84" y2="130.22" gradientUnits="userSpaceOnUse"><stop offset="0" stop-color="#e1e1e3"/><stop offset="0.76" stop-color="#dedfe1"/><stop offset="1" stop-color="#dbdcde"/></linearGradient><linearGradient id="linear-gradient-3" x1="79.46" y1="112.25" x2="81.92" y2="128.78" xlink:href="#linear-gradient-2"/><linearGradient id="linear-gradient-4" x1="72.85" y1="99.14" x2="83.72" y2="250.73" gradientUnits="userSpaceOnUse"><stop offset="0" stop-color="#b52025"/><stop offset="0.24" stop-color="#ab1e23"/><stop offset="1" stop-color="#8f191c"/></linearGradient><linearGradient id="linear-gradient-5" x1="85.77" y1="123.54" x2="86.17" y2="88.53" gradientUnits="userSpaceOnUse"><stop offset="0" stop-color="#f4f5f6"/><stop offset="0.64" stop-color="#efeff0"/><stop offset="1" stop-color="#e9e9ea"/></linearGradient><linearGradient id="linear-gradient-6" x1="60.62" y1="118.2" x2="61.59" y2="86" xlink:href="#linear-gradient-5"/><linearGradient id="linear-gradient-7" x1="78.43" y1="109.68" x2="70.46" y2="108.54" gradientUnits="userSpaceOnUse"><stop offset="0" stop-color="#f1c99a"/><stop offset="0.53" stop-color="#f2cc9d"/><stop offset="0.87" stop-color="#f5d4a5"/><stop offset="1" stop-color="#f7d9ab"/></linearGradient><linearGradient id="linear-gradient-8" x1="92.52" y1="85.23" x2="57.68" y2="101.13" gradientTransform="matrix(1, 0, 0, 1, -1.58, -3.16)" xlink:href="#linear-gradient-7"/><linearGradient id="linear-gradient-9" x1="100.43" y1="533.39" x2="105.14" y2="544.82" gradientTransform="matrix(-0.98, 0.2, 0.2, 0.98, 88.56, -483.8)" gradientUnits="userSpaceOnUse"><stop offset="0" stop-color="#dba879"/><stop offset="0.49" stop-color="#e4b687"/><stop offset="1" stop-color="#f1c99a"/></linearGradient><linearGradient id="linear-gradient-10" x1="85.45" y1="69.22" x2="84.77" y2="61.16" gradientTransform="matrix(1, 0, 0, 1, -1.58, -3.16)" xlink:href="#linear-gradient"/><radialGradient id="radial-gradient" cx="137.36" cy="77.57" r="26.35" gradientTransform="translate(28.26 38.37) scale(0.41 0.41)" gradientUnits="userSpaceOnUse"><stop offset="0" stop-color="#f7c79c"/><stop offset="1" stop-color="#f7d9ab"/></radialGradient><linearGradient id="linear-gradient-11" x1="72.28" y1="92.93" x2="72.28" y2="97.34" gradientUnits="userSpaceOnUse"><stop offset="0" stop-color="#ffdeb3"/><stop offset="1" stop-color="#f7d9ab"/></linearGradient><linearGradient id="linear-gradient-12" x1="71.11" y1="50.52" x2="71.64" y2="72.9" gradientUnits="userSpaceOnUse"><stop offset="0" stop-color="#ffdeb3"/><stop offset="0.2" stop-color="#fdddb1"/><stop offset="1" stop-color="#f7d9ab"/></linearGradient><linearGradient id="linear-gradient-13" x1="5148.55" y1="63.97" x2="5147.89" y2="56.17" gradientTransform="matrix(-1, 0, 0, 1, 5206.38, -7.88)" xlink:href="#linear-gradient"/><linearGradient id="linear-gradient-14" x1="72.79" y1="66.45" x2="73.17" y2="79.07" gradientTransform="matrix(1, 0, 0, 1, -1.58, -3.16)" xlink:href="#linear-gradient"/><radialGradient id="radial-gradient-2" cx="63.43" cy="80.37" r="26.79" xlink:href="#radial-gradient"/><linearGradient id="linear-gradient-15" x1="72.86" y1="36.66" x2="72.72" y2="45.94" gradientTransform="matrix(1, 0, 0, 1, -1.58, -3.16)" gradientUnits="userSpaceOnUse"><stop offset="0" stop-color="#f7d9ab"/><stop offset="0.49" stop-color="#f5d4a6"/><stop offset="1" stop-color="#f1c99a"/></linearGradient><linearGradient id="linear-gradient-16" x1="71.38" y1="26.21" x2="72.44" y2="59.32" gradientTransform="matrix(1, 0, 0, 1, -1.58, -3.16)" gradientUnits="userSpaceOnUse"><stop offset="0" stop-color="#683126"/><stop offset="0.34" stop-color="#53281e"/><stop offset="0.68" stop-color="#46221a"/><stop offset="1" stop-color="#422018"/></linearGradient><linearGradient id="linear-gradient-17" x1="94.72" y1="68.36" x2="87.17" y2="70.96" gradientTransform="matrix(1, 0, 0, 1, -1.58, -3.16)" gradientUnits="userSpaceOnUse"><stop offset="0" stop-color="#fadbaf"/><stop offset="1" stop-color="#f7d9ab"/></linearGradient><linearGradient id="linear-gradient-18" x1="57.98" y1="70.81" x2="46.79" y2="68.08" xlink:href="#linear-gradient-17"/><linearGradient id="linear-gradient-19" x1="-747.17" y1="55.35" x2="-733.15" y2="59.3" gradientTransform="translate(823.27 2.37) rotate(-0.12)" xlink:href="#linear-gradient-9"/><linearGradient id="linear-gradient-20" x1="89.16" y1="61.14" x2="75.44" y2="61.84" gradientUnits="userSpaceOnUse"><stop offset="0" stop-color="#fff"/><stop offset="0.46" stop-color="#fdfcfc"/><stop offset="0.76" stop-color="#f6f4f4"/><stop offset="1" stop-color="#ece7e6"/></linearGradient><linearGradient id="linear-gradient-21" x1="85.96" y1="62.11" x2="75.61" y2="61.74" gradientUnits="userSpaceOnUse"><stop offset="0" stop-color="#c6c6c0"/><stop offset="1" stop-color="#95958d"/></linearGradient><linearGradient id="linear-gradient-22" x1="85.88" y1="60.47" x2="76.93" y2="61.22" xlink:href="#linear-gradient-21"/><radialGradient id="radial-gradient-3" cx="-665.98" cy="81.29" r="14.78" gradientTransform="matrix(0.41, 0.02, -0.02, 0.42, 357.1, 45.68)" gradientUnits="userSpaceOnUse"><stop offset="0" stop-color="#2b3b3b"/><stop offset="1" stop-color="#1d2827"/></radialGradient><linearGradient id="linear-gradient-23" x1="-747.1" y1="57.02" x2="-735.22" y2="56.45" gradientTransform="translate(823.27 2.37) rotate(-0.12)" xlink:href="#linear-gradient-16"/><linearGradient id="linear-gradient-24" x1="1079.11" y1="69.76" x2="1093.13" y2="73.71" gradientTransform="matrix(-1, -0.01, -0.01, 1, 1145.02, 3.83)" xlink:href="#linear-gradient-9"/><linearGradient id="linear-gradient-25" x1="66.34" y1="65.92" x2="56.33" y2="63.51" gradientTransform="matrix(1, 0, 0, 1, -1.58, -3.16)" xlink:href="#linear-gradient-20"/><linearGradient id="linear-gradient-26" x1="64.23" y1="64.89" x2="54.56" y2="65.27" gradientTransform="matrix(1, 0, 0, 1, -1.58, -3.16)" xlink:href="#linear-gradient-21"/><linearGradient id="linear-gradient-27" x1="64.42" y1="64.63" x2="58.16" y2="63.48" gradientTransform="matrix(1, 0, 0, 1, -1.58, -3.16)" xlink:href="#linear-gradient-21"/><radialGradient id="radial-gradient-4" cx="1091.33" cy="-9.65" r="14.77" gradientTransform="matrix(-0.41, 0.02, 0.02, 0.42, 502.09, 46.47)" xlink:href="#radial-gradient-3"/><linearGradient id="linear-gradient-28" x1="1079.18" y1="71.42" x2="1091.06" y2="70.86" gradientTransform="matrix(-1, -0.01, -0.01, 1, 1145.02, 3.83)" xlink:href="#linear-gradient-16"/><linearGradient id="linear-gradient-29" x1="86.28" y1="100.21" x2="85.9" y2="77.1" gradientTransform="matrix(1, 0, 0, 1, -1.58, -3.16)" xlink:href="#linear-gradient"/><linearGradient id="linear-gradient-30" x1="60.71" y1="100.12" x2="60.34" y2="77.59" gradientTransform="matrix(1, 0, 0, 1, -1.58, -3.16)" xlink:href="#linear-gradient"/><linearGradient id="linear-gradient-31" x1="77.45" y1="104.34" x2="76.94" y2="89.66" gradientTransform="translate(-3.71 -4.27) rotate(0.69)" xlink:href="#linear-gradient"/><linearGradient id="linear-gradient-32" x1="64.1" y1="86.21" x2="83.29" y2="86.54" gradientTransform="matrix(1, 0, 0, 1, -1.58, -3.16)" gradientUnits="userSpaceOnUse"><stop offset="0" stop-color="#e8d9d7"/><stop offset="0.14" stop-color="#f0e6e4"/><stop offset="0.39" stop-color="#fbf8f8"/><stop offset="0.57" stop-color="#fff"/><stop offset="1" stop-color="#e8d3d1"/></linearGradient><linearGradient id="linear-gradient-33" x1="74.18" y1="104.39" x2="73.67" y2="89.5" gradientTransform="matrix(1, 0, 0, 1, -1.58, -3.16)" xlink:href="#linear-gradient"/><linearGradient id="linear-gradient-34" x1="71.45" y1="75.77" x2="71.76" y2="82.94" gradientUnits="userSpaceOnUse"><stop offset="0" stop-color="#e8d9d7"/><stop offset="0.4" stop-color="#efe5e4"/><stop offset="1" stop-color="#fff"/></linearGradient><linearGradient id="linear-gradient-35" x1="73.78" y1="107.27" x2="73.27" y2="76.4" gradientTransform="matrix(1, 0, 0, 1, -1.58, -3.16)" xlink:href="#linear-gradient"/><linearGradient id="linear-gradient-36" x1="96.66" y1="533.34" x2="101.37" y2="544.76" gradientTransform="translate(28.1 -481.48) rotate(8.79)" xlink:href="#linear-gradient-9"/><linearGradient id="linear-gradient-37" x1="68.84" y1="107.05" x2="70.78" y2="98.11" gradientTransform="matrix(1, 0, 0, 1, 0, 0)" xlink:href="#linear-gradient-9"/><linearGradient id="linear-gradient-38" x1="89.88" y1="67.94" x2="90.68" y2="99.38" gradientUnits="userSpaceOnUse"><stop offset="0" stop-color="#ffdeb3"/><stop offset="0.68" stop-color="#fcdcb0"/><stop offset="1" stop-color="#f7d9ab"/></linearGradient><linearGradient id="linear-gradient-39" x1="-31.43" y1="102.63" x2="-19.96" y2="79.05" gradientTransform="matrix(-1, 0.08, 0.08, 1, 20.2, -3.85)" gradientUnits="userSpaceOnUse"><stop offset="0" stop-color="#f7d9ab"/><stop offset="1" stop-color="#f1c99a"/></linearGradient><linearGradient id="linear-gradient-40" x1="75.46" y1="23.51" x2="75.72" y2="39.49" gradientTransform="matrix(1, 0, 0, 1, -1.58, -3.16)" gradientUnits="userSpaceOnUse"><stop offset="0" stop-color="#683126"/><stop offset="0.74" stop-color="#7b3d33"/><stop offset="1" stop-color="#834238"/></linearGradient><linearGradient id="linear-gradient-41" x1="75.96" y1="54.49" x2="90.72" y2="54.49" gradientTransform="matrix(1, 0, 0, 1, 0, 0)" xlink:href="#linear-gradient-16"/><linearGradient id="linear-gradient-42" x1="51.19" y1="54.58" x2="65.47" y2="54.58" gradientTransform="matrix(1, 0, 0, 1, 0, 0)" xlink:href="#linear-gradient-16"/><linearGradient id="linear-gradient-43" x1="71.07" y1="74.03" x2="71.83" y2="68.44" gradientUnits="userSpaceOnUse"><stop offset="0" stop-color="#ffdeb3"/><stop offset="0.28" stop-color="#fbdcaf"/><stop offset="1" stop-color="#f7d9ab"/></linearGradient></defs><circle class="cls-1" cx="72" cy="72" r="72" transform="translate(-29.82 72) rotate(-45)"/><path class="cls-2" d="M58,89.78l-2,9.47s-2.15,22.16,20.33,30.34c0,0,16.14-17.75,16.78-19.47s-3.44-18.51-7.1-22Z" transform="translate(0 0)"/><path class="cls-3" d="M85.26,89.89s1.13,15,.33,17c-1.38,3.3-11.78,10.65-12.27,11S58.8,103.29,58.31,103s-.64-12.58-.64-12.58l-1.13,14.2S70.09,120.88,73,121.84l16.14-13.71s-1.4-18-2.21-18.94Z" transform="translate(0 0)"/><path class="cls-4" d="M93.23,97.49s-1.08,27-18.94,34.53c0,.19,0,.39.08.59C59.7,122.35,53.49,98.26,53.49,98.26c-29.54,11.86-29.63,12-29.63,12,.33.67,1.47,8.73,2.72,17.64A72,72,0,0,0,120,125.69c.53-9.07.79-16.83.79-16.83C117.21,106.27,93.23,97.49,93.23,97.49Z" transform="translate(0 0)"/><path class="cls-5" d="M58.19,109.34l12.66,21.6,10.54-2.15,13-22.28a235.78,235.78,0,0,1-21,14C65.13,113.94,58.19,109.34,58.19,109.34Z" transform="translate(0 0)"/><path class="cls-6" d="M61.6,110.93l-5.38-1.72L72,129.43a13.45,13.45,0,0,0,5.81-2.91C69.08,123.62,61.6,110.93,61.6,110.93Z" transform="translate(0 0)"/><path class="cls-7" d="M69.81,127.49c1.53,1.21,9.73,1.41,9.73,1.41l12-15.33L88,111.11S75.3,123.94,69.81,127.49Z" transform="translate(0 0)"/><path class="cls-4" d="M23.86,110.23a32.15,32.15,0,0,0-6.51,8.65A72.43,72.43,0,0,0,30.77,131c-.38-2.59-.74-4.78-1.09-6.21C28.24,118.85,25.75,113,23.86,110.23Z" transform="translate(0 0)"/><path class="cls-4" d="M127.37,118a32.71,32.71,0,0,0-6.61-9.17c-1.89,2.87-4.39,8.93-5.83,15.11-.36,1.53-.73,3.88-1.12,6.66A72.36,72.36,0,0,0,127.37,118Z" transform="translate(0 0)"/><path class="cls-8" d="M88.61,90.86a38,38,0,0,1,2.14,9.31,33.52,33.52,0,0,1-2.39,13c-3.48,8.71-14.18,14-14.18,14a72.66,72.66,0,0,1-6.67-4.62c-9.71-7.92-11.51-17.11-11.94-20S57.06,90.7,57.06,90.7a23.71,23.71,0,0,0-3.64,5.49c-.22.43-3.34,6.56-2.48,11.3s8.51,17.21,12,20.65,12.48,8.61,12.48,8.61S86.68,129,92.15,120.4c6.45-10.11,2.73-23.22,1.76-24.51A64.7,64.7,0,0,0,88.61,90.86Z" transform="translate(0 0)"/><path class="cls-9" d="M86.77,88.72c1.92,6.34,1.76,16.34.87,18.44C86,111,73.44,120.47,73.44,120.47l15.33-7.07,4.44-2,4.93,11.34S96.79,102.61,95.81,99C94.16,93,86.77,88.72,86.77,88.72Z" transform="translate(0 0)"/><path class="cls-10" d="M57.8,89.84a21.62,21.62,0,0,0-5.46,4.31c-1.38,1.57-4.19,6.49-4.19,10.43s-.3,16.71-.3,16.71l6.41-10.85s5.43,0,7.4,2,11.78,8.06,11.78,8.06L57.22,104S57.31,91.81,57.8,89.84Z" transform="translate(0 0)"/><polygon class="cls-11" points="69.3 106.96 74.14 112.77 78.5 105.99 72.69 108.89 69.3 106.96"/><path class="cls-12" d="M72.55,104.39c4.33-.4,11.81-4.37,15.52-8.24,0,0-.92-13.55-1.06-14.8,0,0-10.8,7.8-29.73,1.22,0,0,0,7.79.12,13.22C62.4,101.27,69,104.71,72.55,104.39Z" transform="translate(0 0)"/><path class="cls-13" d="M99,57.76c3,.34,2.47,2.13,1.34,5.27C99.6,71.27,97.06,75.2,96,74.75,94,73.93,95.38,57.35,99,57.76Z" transform="translate(0 0)"/><path class="cls-14" d="M97.31,69.52a5.17,5.17,0,0,0,.58-4.45c-1.73-6.72,3.06-7.62,2.42-2.87,0,0-.89-2.13-1.43-1.42-.68.87.92,1.18.47,4.77A9.53,9.53,0,0,1,97.31,69.52Z" transform="translate(0 0)"/><path class="cls-13" d="M42.52,59.27c-3,.5-2.35,2.26-1.06,5.33,1.22,8.18,4.3,11.46,5.35,11C48.71,74.63,46.16,58.67,42.52,59.27Z" transform="translate(0 0)"/><path class="cls-2" d="M96.27,58.46c.87-22.14-6.93-19.34-8.87-21.6-3.93-4.59-9.1-8.74-19.68-8.49,0,0-13.78.49-17.22,8-3.68,8.07-5,15.34-4.74,25.74.57,21.72,5.61,21.37,9,25.58,2.3,2.85,7.55,9.52,9.53,10.58,3.2,1.73,13,1.47,16-.45,2.67-1.69,5.1-6,9-11,3.17-4.09,7.07-4.76,6.72-16.47C95.76,63.22,96,64.61,96.27,58.46Z" transform="translate(0 0)"/><path class="cls-15" d="M91.84,62.72c1.89-14.31-15.47-8.2-15.47-8.2C76,56.65,74.2,63.21,75.46,64,83.28,68.56,91.84,62.72,91.84,62.72Z" transform="translate(0 0)"/><path class="cls-16" d="M82.53,77.77c4.35.42,11.7,2.5,12.92-4.87,1.15-7,.16-10.4-2-11-4.56-1.2-11.11,1.61-13.84,3.61C73.84,69.78,74.82,77,82.53,77.77Z" transform="translate(0 0)"/><path class="cls-17" d="M72.48,93c-1.51,0-5.3,1-5.19,1.59.33,1.67,3.84,1.95,5.35,1.94s4.57-.39,4.64-1.82C77.3,94.18,74,93,72.48,93Z" transform="translate(0 0)"/><path class="cls-18" d="M73.57,65.37c.24-4.92-1.48-5.63-2.75-5.58s-1.92,1.75-1.67,5.5-.48,5.16-.32,6.91c.08.8.45,1.32,2.47,1.34,2.22,0,3-.51,3.08-1.26C74.64,70.25,73.39,68.91,73.57,65.37Z" transform="translate(0 0)"/><path class="cls-19" d="M73.81,74.93c3-.75,4.18-.3,4.18-.3C76.24,73.1,73.81,74.93,73.81,74.93Z" transform="translate(0 0)"/><path class="cls-20" d="M50,62.91c-1.26-14.9,15.3-7.79,15.3-7.79.34,2.13,2.23,7.41,1,8.2C58.3,68.46,50,62.91,50,62.91Z" transform="translate(0 0)"/><path class="cls-19" d="M65.32,74.41a9,9,0,0,1,3.91.54S66.93,73.21,65.32,74.41Z" transform="translate(0 0)"/><path class="cls-21" d="M76.13,69.94c0,1.23.26,2-.11,2.75-.83,1.56-3,2.18-4.44,2.07a5.68,5.68,0,0,1-4.72-2.06c-.44-.66-.16-1.26-.36-2.57,0,0-3,3.58-1.18,4.28a3,3,0,0,1,2-.26c1.43.13,1.14,1.7,4.43,1.73,2.87,0,2-1.35,3.78-1.61a2.88,2.88,0,0,1,2.48.39C78.87,74.66,78.21,71.63,76.13,69.94Z" transform="translate(0 0)"/><path class="cls-22" d="M61.43,64.9c-1.25-.66-10.72-3.8-13.54-2.6-2.39,1-2.59,6.28-.45,13.23,2.44,8,9.34,3.83,12.16,2.3C66.4,74.12,67.74,68.25,61.43,64.9Z" transform="translate(0 0)"/><path class="cls-23" d="M88.25,35.88c-.57-.16-1.2-.31-1.89-.46-5-1.1-13-4.79-20.16-4.79a46.94,46.94,0,0,0-11.61,1.68,11.22,11.22,0,0,0-3.48,1.43c-2.73,1.86-4.32,5.38-5.24,13.73-.29,2.72.12,19.72.12,19.92,5.47-15.89,3.55-19.58,7-25.75,4.5,2.89,14-1.47,20-2,5-.41,12-.68,13.3.8,4.71,5.51,3,11.41,9.69,25.7,0,0-.39-18.08-.83-22.8C94.65,37.2,93,37.19,88.25,35.88Z" transform="translate(0 0)"/><path class="cls-24" d="M89,24.16c-4-2.42-13.92-2-16.74-2-6,0-13.9-.18-17.74,1.41-2.75,1.15-8.87,7.33-10.88,11.5s.27,16.55-.41,24.29c0,0,.81.33,1.55,2.49a72.1,72.1,0,0,1,1.39,8c.49-4.54.5-6.93.68-9.35.23-3,.8-5.71,2.24-11.72,1.2-5,3-10,3.62-12.3,2.62,4.63,15.25.67,21.57.39s13.38-.07,15.26,1.54a55.83,55.83,0,0,1,3.3,12.17c.36,2.36.71,4.34,1,6.11.86,4.57,1.53,7.62,2.09,11.82,0,0,0-8.91,2.24-10.52-.65-4.9.6-13.39-.34-21.73C97.58,34.1,91.79,25.84,89,24.16Z" transform="translate(0 0)"/><path class="cls-25" d="M92.94,64.33c-.79-.45-1.37.19-3,.73S84,66.42,86,67.53c2.27,1.24,5.45-.46,5.83-.77S93.91,64.87,92.94,64.33Z" transform="translate(0 0)"/><path class="cls-26" d="M51.52,65.26c-1.66-.45-2.27-1.06-3-.58-.94.59.81,2.07,1.21,2.37s3.66,1.82,5.86.47C57.56,66.3,53.15,65.7,51.52,65.26Z" transform="translate(0 0)"/><path class="cls-27" d="M75.9,63.36c-.52-.58.18-2.85.4-3.66.41-1.52,2.58-2.32,6.56-2.49,1.31-.06,4.15.31,5,1.1a9.78,9.78,0,0,1,2.07,4c0,.44-1.85,2.09-5.64,2.34C81.47,64.82,77,64.56,75.9,63.36Z" transform="translate(0 0)"/><path class="cls-28" d="M80.06,58.75c-2.93.21-3.56,4.46-3.56,4.46a3.54,3.54,0,0,0,1.33.58A16.86,16.86,0,0,0,86,63.9a7.55,7.55,0,0,0,2.75-1.74C86.3,59.32,87.14,58.24,80.06,58.75Z" transform="translate(0 0)"/><path class="cls-29" d="M76.5,63.21s1.78-1.53,7.79-1.53A8,8,0,0,1,88,62.79a5,5,0,0,0,.74-.63s-1.17-3.21-3.45-3S78.94,58.94,76.5,63.21Z" transform="translate(0 0)"/><path class="cls-30" d="M82.28,59.55c-1.93-.11-3.75.83-3.65,2.84a3.73,3.73,0,0,0,.53,1.69,21.52,21.52,0,0,0,3.08.33,12.47,12.47,0,0,0,2.8-.32,2.41,2.41,0,0,0,.59-1.47C85.9,60.67,84.2,59.66,82.28,59.55Z" transform="translate(0 0)"/><path class="cls-31" d="M78.63,62.3a18.63,18.63,0,0,1,7-.47s-.45-2.38-2.67-2.4C80.53,59.41,78.62,59.92,78.63,62.3Z" transform="translate(0 0)"/><path class="cls-32" d="M82.26,60.13a2.09,2.09,0,1,0,2.09,2.14A2.11,2.11,0,0,0,82.26,60.13Z" transform="translate(0 0)"/><path class="cls-33" d="M76.5,63.21s.34-2.69,1.9-3.85c2-1.46,6.2-1,8.35-.15,1.33.52,2,2.95,2,2.95a7.47,7.47,0,0,0-2.29-1,13.94,13.94,0,0,0-3.69-.72,11.26,11.26,0,0,0-3.56.41C77.83,61.21,76.5,63.21,76.5,63.21Z" transform="translate(0 0)"/><path class="cls-34" d="M84.33,61.77a.94.94,0,0,0-.81,1,.92.92,0,0,0,1,.82.94.94,0,0,0,.81-1.05A.9.9,0,0,0,84.33,61.77Z" transform="translate(0 0)"/><path class="cls-34" d="M82.33,60.91a.73.73,0,0,0-.64.82.72.72,0,0,0,.8.64.74.74,0,0,0,.64-.82A.73.73,0,0,0,82.33,60.91Z" transform="translate(0 0)"/><path class="cls-35" d="M65.37,63.3c.52-.58-.15-2.85-.37-3.66-.39-1.53-2.55-2.35-6.53-2.57-1.31-.07-4.15.26-5,1a9.76,9.76,0,0,0-2.11,4c0,.44,1.82,2.12,5.61,2.41C59.77,64.7,64.28,64.48,65.37,63.3Z" transform="translate(0 0)"/><path class="cls-36" d="M61.25,58.64c2.93.25,3.51,4.5,3.51,4.5a3.28,3.28,0,0,1-1.33.57,16.77,16.77,0,0,1-8.15,0A7.59,7.59,0,0,1,52.55,62C55,59.14,54.18,58.05,61.25,58.64Z" transform="translate(0 0)"/><path class="cls-29" d="M64.77,63.14S63,61.59,57,61.53a8,8,0,0,0-3.71,1.07,5.33,5.33,0,0,1-.73-.64s1.21-3.2,3.48-3S62.38,58.85,64.77,63.14Z" transform="translate(0 0)"/><path class="cls-37" d="M59,59.42c1.92-.09,3.73.87,3.62,2.88A4.14,4.14,0,0,1,62.1,64a23,23,0,0,1-3.08.29,12.51,12.51,0,0,1-2.8-.35,2.39,2.39,0,0,1-.58-1.48C55.4,60.5,57.1,59.51,59,59.42Z" transform="translate(0 0)"/><path class="cls-38" d="M62.64,62.21a18.39,18.39,0,0,0-7-.54s.47-2.38,2.7-2.38C60.78,59.3,62.63,59.71,62.64,62.21Z" transform="translate(0 0)"/><path class="cls-39" d="M59,60a2.09,2.09,0,1,1-2.1,2.12A2.11,2.11,0,0,1,59,60Z" transform="translate(0 0)"/><path class="cls-34" d="M60,63a.89.89,0,0,1,.44-1.19.93.93,0,0,1,1.23.36A.94.94,0,0,1,60,63Z" transform="translate(0 0)"/><path class="cls-34" d="M58.17,61.88a.7.7,0,0,1,.34-.93.72.72,0,0,1,1,.29.69.69,0,0,1-.34.93A.72.72,0,0,1,58.17,61.88Z" transform="translate(0 0)"/><path class="cls-40" d="M64.76,63.14s-.31-2.69-1.85-3.86C61,57.79,56.72,58.22,54.56,59c-1.33.5-2,2.93-2,2.93a8.2,8.2,0,0,1,2.38-1.07,15.13,15.13,0,0,1,4-.63,10.28,10.28,0,0,1,3.15.45C63.46,61.13,64.76,63.14,64.76,63.14Z" transform="translate(0 0)"/><path class="cls-41" d="M81,74.37c6.81,5.51,1.59,9.06,1.59,9.06,2.1-1.84,5.42-4.06,5.22-4.89C87.12,75.75,81,74.37,81,74.37Z" transform="translate(0 0)"/><path class="cls-42" d="M55.94,79c.13.85,2.54,3,4.13,4.6,0,0-4.24-4.55,1.66-8.66C61.73,74.9,55.53,76.08,55.94,79Z" transform="translate(0 0)"/><path class="cls-43" d="M66.07,90.24a46.64,46.64,0,0,1,12.33.09C72.82,86.86,66.07,90.24,66.07,90.24Z" transform="translate(0 0)"/><path class="cls-44" d="M58.05,78.48c.15.15.25.37.45.45C62,80.5,62.08,82,63.6,82.81a17,17,0,0,0,15.85-.14c2.42-1.34,2.73-2.89,5.63-4a.75.75,0,0,0,.47-.45C70,82,58.05,78.48,58.05,78.48Z" transform="translate(0 0)"/><path class="cls-45" d="M71.94,85.86c-2.09,0-4.16-.41-4.16,0s1.82,1.32,3.91,1.32,4.16-.91,4.16-1.32S74,85.86,71.94,85.86Z" transform="translate(0 0)"/><path class="cls-46" d="M64.47,81.76c-.65-.12-.93,1-.93,1,2,1.44,4.34,2,8.13,2a13.24,13.24,0,0,0,7.85-2.15s-.72-1.1-1.55-.94a35.31,35.31,0,0,1-6.55.83A40,40,0,0,1,64.47,81.76Z" transform="translate(0 0)"/><path class="cls-47" d="M64.21,86.39C72.29,92.81,80,86,80,86A18.17,18.17,0,0,1,64.21,86.39Z" transform="translate(0 0)"/><path class="cls-48" d="M61.55,79.22A2.3,2.3,0,0,0,63,81.13c.79.34,2.54,1.67,9.36,1.46s8.17-1.85,8.48-2.14A3.63,3.63,0,0,0,81.63,79S71.36,81,61.55,79.22Z" transform="translate(0 0)"/><path class="cls-49" d="M61.53,79.09a2.61,2.61,0,0,0,.27,1c.18.3,5.63,1.09,9.75,1.12a37.82,37.82,0,0,0,9.67-1.27,3.15,3.15,0,0,0,.46-1S77.05,80.43,61.53,79.09Z" transform="translate(0 0)"/><path class="cls-50" d="M57.2,78.06s1,.57.85.42c0,0,12,3.5,27.5-.29l.84-.42C78,79.17,57.2,78.06,57.2,78.06Z" transform="translate(0 0)"/><path class="cls-51" d="M44.87,70.92a5.17,5.17,0,0,1-.81-4.41c1.37-6.8-3.46-7.45-2.56-2.74,0,0,.76-2.17,1.35-1.49s-.87,1.22-.23,4.78A9.65,9.65,0,0,0,44.87,70.92Z" transform="translate(0 0)"/><path class="cls-52" d="M59.81,93.9a14,14,0,0,0,11.83,6.62c8.41.18,11.76-5.75,11.76-5.75s-3.5,4.55-11.73,4.37A16.75,16.75,0,0,1,59.81,93.9Z" transform="translate(0 0)"/><path class="cls-53" d="M96,68s.76,8.2-1.12,12.64c-1.14,2.68-3.48,4.57-5.23,6.52-2.22,2.47-4.06,4.92-5.23,6.38,0,0,1.06-4.7,3.34-7.52S94.62,80.19,96,68Z" transform="translate(0 0)"/><path class="cls-54" d="M46.12,69.67s.19,8.38,2.62,12.14c2.18,3.39,3.59,4.15,5.7,6.12,1.35,1.25,4,4.37,4.82,5.32a10.53,10.53,0,0,0-2.59-6.33C54.17,84.29,48.43,81.76,46.12,69.67Z" transform="translate(0 0)"/><path class="cls-55" d="M47.24,57.16l5.47-20.65s.88,2.61,5.16,3.12c6.85.8,19.48-5.39,31.51-1.16,0,0,1.83,8.17,4.47,18.11,0,0-.5-14.55-2.38-19.79,0,0-6-4-12.77-4s-13.71,6.06-21,4.85C54.26,37,52.49,34,52.08,31.29,52.08,31.29,49.65,38.2,47.24,57.16Z" transform="translate(0 0)"/><path class="cls-56" d="M56.25,23.36c2.77-1,26.63-3,32.71.69,2.62,1.62,5.14,5.48,6.94,8.24a38.07,38.07,0,0,0-15.05-4.9c-8.2-.67-16.4,6.86-22,6.72S48.59,26.05,56.25,23.36Z" transform="translate(0 0)"/><path class="cls-57" d="M87.76,53.36c-4.83-.8-8.12-.86-11.12.47a1.25,1.25,0,0,0,.55,2.37c2.54-.07,6.14-.82,8.55-.86a12.64,12.64,0,0,1,5,.61A3.9,3.9,0,0,0,87.76,53.36Z" transform="translate(0 0)"/><path class="cls-58" d="M54,53.47c4.71-.8,7.8-.76,10.72.52a1.14,1.14,0,0,1-.41,2.2c-2.48-.06-5.38-.71-8.31-.67a12.76,12.76,0,0,0-4.84.71A3.88,3.88,0,0,1,54,53.47Z" transform="translate(0 0)"/><path class="cls-59" d="M68.52,72.05c-.13.8,1,1.66,3,1.68,2.22,0,2.71-.87,2.53-1.6C73,67.76,69,69.06,68.52,72.05Z" transform="translate(0 0)"/></svg>