<svg id="Layer_1" data-name="Layer 1" xmlns="http://www.w3.org/2000/svg" xmlns:xlink="http://www.w3.org/1999/xlink" viewBox="0 0 144 144"><defs><style>.cls-1{fill:#f6ece6;}.cls-2{fill:url(#_ÂÁ_Ï_ÌÌ_È_ËÂÌÚ_123);}.cls-3{fill:url(#_ÂÁ_Ï_ÌÌ_È_ËÂÌÚ_123-2);}.cls-4{fill:url(#_ÂÁ_Ï_ÌÌ_È_ËÂÌÚ_122);}.cls-5{fill:url(#_ÂÁ_Ï_ÌÌ_È_ËÂÌÚ_122-2);}.cls-6{fill:#f6d4ab;}.cls-7{fill:url(#linear-gradient);}.cls-8{fill:url(#linear-gradient-2);}.cls-9{fill:url(#_ÂÁ_Ï_ÌÌ_È_ËÂÌÚ_1204);}.cls-10{fill:url(#_ÂÁ_Ï_ÌÌ_È_ËÂÌÚ_1204-2);}.cls-11{fill:url(#linear-gradient-3);}.cls-12{fill:url(#linear-gradient-4);}.cls-13{fill:url(#_ÂÁ_Ï_ÌÌ_È_ËÂÌÚ_1204-3);}.cls-14{fill:#6ea1d6;}.cls-15{fill:url(#_ÂÁ_Ï_ÌÌ_È_ËÂÌÚ_209);}.cls-16{fill:url(#_ÂÁ_Ï_ÌÌ_È_ËÂÌÚ_160);}.cls-17{fill:url(#_ÂÁ_Ï_ÌÌ_È_ËÂÌÚ_1204-4);}.cls-18{fill:url(#linear-gradient-5);}.cls-19{fill:#f0c499;}.cls-20{fill:url(#linear-gradient-6);}.cls-21{fill:url(#_ÂÁ_Ï_ÌÌ_È_ËÂÌÚ_34);}.cls-22{fill:url(#linear-gradient-7);}.cls-23{fill:url(#linear-gradient-8);}.cls-24{fill:url(#_ÂÁ_Ï_ÌÌ_È_ËÂÌÚ_1032);}.cls-25{fill:url(#_ÂÁ_Ï_ÌÌ_È_ËÂÌÚ_135);}.cls-26{fill:url(#_ÂÁ_Ï_ÌÌ_È_ËÂÌÚ_1033);}.cls-27{fill:url(#linear-gradient-9);}.cls-28{fill:url(#_ÂÁ_Ï_ÌÌ_È_ËÂÌÚ_137);}.cls-29{fill:url(#_ÂÁ_Ï_ÌÌ_È_ËÂÌÚ_1204-5);}.cls-30{fill:url(#linear-gradient-10);}.cls-31{fill:url(#_ÂÁ_Ï_ÌÌ_È_ËÂÌÚ_135-2);}.cls-32{fill:url(#linear-gradient-11);}.cls-33{fill:url(#_ÂÁ_Ï_ÌÌ_È_ËÂÌÚ_1204-6);}.cls-34{fill:url(#_ÂÁ_Ï_ÌÌ_È_ËÂÌÚ_131);}.cls-35{fill:url(#_ÂÁ_Ï_ÌÌ_È_ËÂÌÚ_133);}.cls-36{fill:#ddd;}.cls-37{fill:url(#_ÂÁ_Ï_ÌÌ_È_ËÂÌÚ_131-2);}.cls-38{fill:url(#_ÂÁ_Ï_ÌÌ_È_ËÂÌÚ_1036);}.cls-39{fill:url(#_ÂÁ_Ï_ÌÌ_È_ËÂÌÚ_130);}.cls-40{fill:url(#_ÂÁ_Ï_ÌÌ_È_ËÂÌÚ_129);}.cls-41{fill:url(#_ÂÁ_Ï_ÌÌ_È_ËÂÌÚ_128);}.cls-42{fill:#fff;}.cls-43{fill:url(#_ÂÁ_Ï_ÌÌ_È_ËÂÌÚ_124);}.cls-44{fill:url(#_ÂÁ_Ï_ÌÌ_È_ËÂÌÚ_1204-7);}.cls-45{fill:#111;}.cls-46{fill:url(#_ÂÁ_Ï_ÌÌ_È_ËÂÌÚ_124-2);}.cls-47{fill:url(#linear-gradient-12);}.cls-48{fill:url(#_ÂÁ_Ï_ÌÌ_È_ËÂÌÚ_1061);}.cls-49{fill:url(#_ÂÁ_Ï_ÌÌ_È_ËÂÌÚ_131-3);}.cls-50{fill:url(#_ÂÁ_Ï_ÌÌ_È_ËÂÌÚ_133-2);}.cls-51{fill:url(#_ÂÁ_Ï_ÌÌ_È_ËÂÌÚ_131-4);}.cls-52{fill:url(#_ÂÁ_Ï_ÌÌ_È_ËÂÌÚ_1036-2);}.cls-53{fill:url(#_ÂÁ_Ï_ÌÌ_È_ËÂÌÚ_130-2);}.cls-54{fill:url(#_ÂÁ_Ï_ÌÌ_È_ËÂÌÚ_129-2);}.cls-55{fill:url(#_ÂÁ_Ï_ÌÌ_È_ËÂÌÚ_128-2);}.cls-56{fill:url(#_ÂÁ_Ï_ÌÌ_È_ËÂÌÚ_1038);}.cls-57{fill:url(#_ÂÁ_Ï_ÌÌ_È_ËÂÌÚ_1204-8);}.cls-58{fill:url(#_ÂÁ_Ï_ÌÌ_È_ËÂÌÚ_124-3);}.cls-59{fill:url(#linear-gradient-13);}.cls-60{fill:url(#linear-gradient-14);}.cls-61{fill:url(#_ÂÁ_Ï_ÌÌ_È_ËÂÌÚ_106);}.cls-62{fill:url(#linear-gradient-15);}.cls-63{fill:url(#_ÂÁ_Ï_ÌÌ_È_ËÂÌÚ_1061-2);}.cls-64{fill:url(#linear-gradient-16);}.cls-65{fill:#971b27;}.cls-66{fill:url(#linear-gradient-17);}.cls-67{fill:url(#linear-gradient-18);}.cls-68{fill:#f26d79;}.cls-69{fill:url(#linear-gradient-19);}.cls-70{fill:#f598a2;}.cls-71{fill:url(#linear-gradient-20);}.cls-72{fill:url(#linear-gradient-21);}.cls-73{fill:url(#_ÂÁ_Ï_ÌÌ_È_ËÂÌÚ_1204-9);}.cls-74{fill:url(#_ÂÁ_Ï_ÌÌ_È_ËÂÌÚ_1040);}.cls-75{fill:url(#_ÂÁ_Ï_ÌÌ_È_ËÂÌÚ_359);}.cls-76{fill:url(#linear-gradient-22);}.cls-77{fill:url(#_ÂÁ_Ï_ÌÌ_È_ËÂÌÚ_123-3);}.cls-78{fill:url(#_ÂÁ_Ï_ÌÌ_È_ËÂÌÚ_123-4);}.cls-79{fill:url(#_ÂÁ_Ï_ÌÌ_È_ËÂÌÚ_69);}.cls-80{fill:url(#_ÂÁ_Ï_ÌÌ_È_ËÂÌÚ_122-3);}.cls-81{fill:url(#_ÂÁ_Ï_ÌÌ_È_ËÂÌÚ_119);}.cls-82{fill:url(#_ÂÁ_Ï_ÌÌ_È_ËÂÌÚ_123-5);}.cls-83{fill:url(#_ÂÁ_Ï_ÌÌ_È_ËÂÌÚ_69-2);}.cls-84{fill:url(#_ÂÁ_Ï_ÌÌ_È_ËÂÌÚ_123-6);}.cls-85{fill:url(#_ÂÁ_Ï_ÌÌ_È_ËÂÌÚ_69-3);}.cls-86{fill:url(#_ÂÁ_Ï_ÌÌ_È_ËÂÌÚ_69-4);}.cls-87{fill:url(#_ÂÁ_Ï_ÌÌ_È_ËÂÌÚ_123-7);}.cls-88{fill:url(#linear-gradient-23);}.cls-89{fill:url(#_ÂÁ_Ï_ÌÌ_È_ËÂÌÚ_1200);}.cls-90{fill:url(#_ÂÁ_Ï_ÌÌ_È_ËÂÌÚ_69-5);}.cls-91{fill:url(#linear-gradient-24);}.cls-92{fill:url(#linear-gradient-25);}.cls-93{fill:url(#linear-gradient-26);}.cls-94{fill:url(#linear-gradient-27);}.cls-95{fill:url(#linear-gradient-28);}.cls-96{fill:url(#linear-gradient-29);}.cls-97{fill:url(#linear-gradient-30);}.cls-98{fill:url(#_ÂÁ_Ï_ÌÌ_È_ËÂÌÚ_119-2);}.cls-99{fill:url(#_ÂÁ_Ï_ÌÌ_È_ËÂÌÚ_122-4);}.cls-100{fill:url(#linear-gradient-31);}.cls-101{fill:url(#linear-gradient-32);}.cls-102{fill:url(#linear-gradient-33);}.cls-103{fill:url(#_ÂÁ_Ï_ÌÌ_È_ËÂÌÚ_119-3);}.cls-104{fill:url(#_ÂÁ_Ï_ÌÌ_È_ËÂÌÚ_1200-2);}</style><linearGradient id="_ÂÁ_Ï_ÌÌ_È_ËÂÌÚ_123" x1="112.02" y1="104.23" x2="108.78" y2="82.68" gradientUnits="userSpaceOnUse"><stop offset="0" stop-color="#a4753e"/><stop offset="0.29" stop-color="#b78849"/><stop offset="1" stop-color="#e0b163"/></linearGradient><linearGradient id="_ÂÁ_Ï_ÌÌ_È_ËÂÌÚ_123-2" x1="39.9" y1="106.36" x2="35.73" y2="80.19" xlink:href="#_ÂÁ_Ï_ÌÌ_È_ËÂÌÚ_123"/><linearGradient id="_ÂÁ_Ï_ÌÌ_È_ËÂÌÚ_122" x1="69.76" y1="106.18" x2="67.35" y2="75.72" gradientUnits="userSpaceOnUse"><stop offset="0" stop-color="#a3763e"/><stop offset="0.13" stop-color="#976c38"/><stop offset="0.43" stop-color="#825a2e"/><stop offset="0.72" stop-color="#755028"/><stop offset="1" stop-color="#714c26"/></linearGradient><linearGradient id="_ÂÁ_Ï_ÌÌ_È_ËÂÌÚ_122-2" x1="101.08" y1="106.52" x2="89.85" y2="52.75" xlink:href="#_ÂÁ_Ï_ÌÌ_È_ËÂÌÚ_122"/><linearGradient id="linear-gradient" x1="39.6" y1="66.05" x2="87.17" y2="126.2" gradientUnits="userSpaceOnUse"><stop offset="0" stop-color="#f0c499"/><stop offset="0.52" stop-color="#f1c69c"/><stop offset="0.85" stop-color="#f4cea4"/><stop offset="1" stop-color="#f6d4ab"/></linearGradient><linearGradient id="linear-gradient-2" x1="49.78" y1="79.35" x2="84.54" y2="123.29" xlink:href="#linear-gradient"/><linearGradient id="_ÂÁ_Ï_ÌÌ_È_ËÂÌÚ_1204" x1="83.42" y1="88.53" x2="89.98" y2="111.57" gradientUnits="userSpaceOnUse"><stop offset="0" stop-color="#dca47a"/><stop offset="0.5" stop-color="#e5b287"/><stop offset="1" stop-color="#f0c499"/></linearGradient><linearGradient id="_ÂÁ_Ï_ÌÌ_È_ËÂÌÚ_1204-2" x1="54.61" y1="96.86" x2="61.12" y2="119.73" xlink:href="#_ÂÁ_Ï_ÌÌ_È_ËÂÌÚ_1204"/><linearGradient id="linear-gradient-3" x1="105.42" y1="130.56" x2="103.24" y2="95.4" xlink:href="#linear-gradient"/><linearGradient id="linear-gradient-4" x1="43.43" y1="135.53" x2="41.14" y2="98.57" xlink:href="#linear-gradient"/><linearGradient id="_ÂÁ_Ï_ÌÌ_È_ËÂÌÚ_1204-3" x1="49.35" y1="81.92" x2="82.09" y2="98.99" xlink:href="#_ÂÁ_Ï_ÌÌ_È_ËÂÌÚ_1204"/><linearGradient id="_ÂÁ_Ï_ÌÌ_È_ËÂÌÚ_209" x1="87.96" y1="116.12" x2="71.24" y2="118.58" gradientUnits="userSpaceOnUse"><stop offset="0" stop-color="#f6d4ab"/><stop offset="1" stop-color="#f0c499"/></linearGradient><linearGradient id="_ÂÁ_Ï_ÌÌ_È_ËÂÌÚ_160" x1="75.68" y1="133.41" x2="72.73" y2="104.09" gradientUnits="userSpaceOnUse"><stop offset="0" stop-color="#6ea1d6"/><stop offset="0.03" stop-color="#6da0d5"/><stop offset="1" stop-color="#5186c2"/></linearGradient><linearGradient id="_ÂÁ_Ï_ÌÌ_È_ËÂÌÚ_1204-4" x1="44.45" y1="56.8" x2="49.27" y2="77.5" xlink:href="#_ÂÁ_Ï_ÌÌ_È_ËÂÌÚ_1204"/><linearGradient id="linear-gradient-5" x1="48.4" y1="137.05" x2="49.04" y2="159.29" xlink:href="#_ÂÁ_Ï_ÌÌ_È_ËÂÌÚ_1204"/><linearGradient id="linear-gradient-6" x1="101.59" y1="136" x2="102.21" y2="157.92" xlink:href="#_ÂÁ_Ï_ÌÌ_È_ËÂÌÚ_1204"/><linearGradient id="_ÂÁ_Ï_ÌÌ_È_ËÂÌÚ_34" x1="73.17" y1="37.47" x2="73.08" y2="98.48" gradientUnits="userSpaceOnUse"><stop offset="0" stop-color="#fed8b4"/><stop offset="0.35" stop-color="#f9d5ae"/><stop offset="1" stop-color="#f6d4ab"/></linearGradient><linearGradient id="linear-gradient-7" x1="86.59" y1="72.72" x2="83.73" y2="56.85" gradientUnits="userSpaceOnUse"><stop offset="0" stop-color="#f6d4ab"/><stop offset="0.52" stop-color="#f5d2a8"/><stop offset="0.85" stop-color="#f2caa0"/><stop offset="1" stop-color="#f0c499"/></linearGradient><linearGradient id="linear-gradient-8" x1="61.76" y1="75.51" x2="58.7" y2="56.56" xlink:href="#linear-gradient-7"/><radialGradient id="_ÂÁ_Ï_ÌÌ_È_ËÂÌÚ_1032" cx="40.09" cy="-735.95" r="21.04" gradientTransform="translate(35.83 523.48) scale(0.55 0.61)" gradientUnits="userSpaceOnUse"><stop offset="0" stop-color="#f8b38e"/><stop offset="0.49" stop-color="#f7c69e"/><stop offset="0.81" stop-color="#f6d4ab"/></radialGradient><linearGradient id="_ÂÁ_Ï_ÌÌ_È_ËÂÌÚ_135" x1="67.01" y1="33.41" x2="67.46" y2="71.49" gradientUnits="userSpaceOnUse"><stop offset="0" stop-color="#f6d4ab"/><stop offset="0.14" stop-color="#f4cea5"/><stop offset="0.49" stop-color="#f1c69c"/><stop offset="1" stop-color="#f0c499"/></linearGradient><radialGradient id="_ÂÁ_Ï_ÌÌ_È_ËÂÌÚ_1033" cx="93.65" cy="-705.82" r="21.04" gradientTransform="translate(35.83 503.42) scale(0.55 0.61)" gradientUnits="userSpaceOnUse"><stop offset="0" stop-color="#f8b38e"/><stop offset="0.52" stop-color="#f7c69e"/><stop offset="0.85" stop-color="#f6d4ab"/></radialGradient><linearGradient id="linear-gradient-9" x1="83.07" y1="70.73" x2="92.93" y2="69.85" xlink:href="#linear-gradient-7"/><linearGradient id="_ÂÁ_Ï_ÌÌ_È_ËÂÌÚ_137" x1="83.21" y1="108.22" x2="94.6" y2="69.22" gradientUnits="userSpaceOnUse"><stop offset="0" stop-color="#f0c498"/><stop offset="0.85" stop-color="#f5b691"/><stop offset="1" stop-color="#f6b38f"/></linearGradient><linearGradient id="_ÂÁ_Ï_ÌÌ_È_ËÂÌÚ_1204-5" x1="99.07" y1="76.57" x2="80.3" y2="39.81" xlink:href="#_ÂÁ_Ï_ÌÌ_È_ËÂÌÚ_1204"/><linearGradient id="linear-gradient-10" x1="67.36" y1="92.78" x2="77.63" y2="92.78" gradientUnits="userSpaceOnUse"><stop offset="0" stop-color="#fed8b4"/><stop offset="0.65" stop-color="#fbd7b1"/><stop offset="1" stop-color="#f6d4ab"/></linearGradient><linearGradient id="_ÂÁ_Ï_ÌÌ_È_ËÂÌÚ_135-2" x1="75.19" y1="63.05" x2="52.98" y2="80.58" xlink:href="#_ÂÁ_Ï_ÌÌ_È_ËÂÌÚ_135"/><linearGradient id="linear-gradient-11" x1="86.78" y1="59.69" x2="96.12" y2="59.69" xlink:href="#linear-gradient-7"/><linearGradient id="_ÂÁ_Ï_ÌÌ_È_ËÂÌÚ_1204-6" x1="91.33" y1="62.13" x2="78.13" y2="67.25" xlink:href="#_ÂÁ_Ï_ÌÌ_È_ËÂÌÚ_1204"/><linearGradient id="_ÂÁ_Ï_ÌÌ_È_ËÂÌÚ_131" x1="78.42" y1="65.19" x2="82.48" y2="65.19" gradientUnits="userSpaceOnUse"><stop offset="0" stop-color="#fff"/><stop offset="0.41" stop-color="#fcfcfc"/><stop offset="0.69" stop-color="#f3f3f3"/><stop offset="0.92" stop-color="#e5e5e5"/><stop offset="1" stop-color="#ddd"/></linearGradient><linearGradient id="_ÂÁ_Ï_ÌÌ_È_ËÂÌÚ_133" x1="78.98" y1="66.26" x2="80.01" y2="67" gradientUnits="userSpaceOnUse"><stop offset="0" stop-color="#fff"/><stop offset="0.46" stop-color="#f2f2f2"/><stop offset="1" stop-color="#ddd"/></linearGradient><linearGradient id="_ÂÁ_Ï_ÌÌ_È_ËÂÌÚ_131-2" x1="87.4" y1="65.08" x2="90.63" y2="65.08" xlink:href="#_ÂÁ_Ï_ÌÌ_È_ËÂÌÚ_131"/><linearGradient id="_ÂÁ_Ï_ÌÌ_È_ËÂÌÚ_1036" x1="89.52" y1="68.65" x2="80.07" y2="62.75" gradientUnits="userSpaceOnUse"><stop offset="0" stop-color="#97aec6"/><stop offset="1" stop-color="#6e8295"/></linearGradient><linearGradient id="_ÂÁ_Ï_ÌÌ_È_ËÂÌÚ_130" x1="81.41" y1="65.18" x2="88.11" y2="65.18" gradientUnits="userSpaceOnUse"><stop offset="0" stop-color="#7a91a5"/><stop offset="1" stop-color="#a8c3dd"/></linearGradient><linearGradient id="_ÂÁ_Ï_ÌÌ_È_ËÂÌÚ_129" x1="84.94" y1="66.39" x2="85.66" y2="71.82" gradientUnits="userSpaceOnUse"><stop offset="0" stop-color="#6e8295"/><stop offset="1" stop-color="#97aec6"/></linearGradient><radialGradient id="_ÂÁ_Ï_ÌÌ_È_ËÂÌÚ_128" cx="88.56" cy="109.18" r="4.34" gradientTransform="translate(35.83 5.47) scale(0.55 0.54)" gradientUnits="userSpaceOnUse"><stop offset="0" stop-color="#676767"/><stop offset="1" stop-color="#1d1d1d"/></radialGradient><linearGradient id="_ÂÁ_Ï_ÌÌ_È_ËÂÌÚ_124" x1="78.43" y1="64.79" x2="93.33" y2="64.79" gradientUnits="userSpaceOnUse"><stop offset="0" stop-color="#5d3d20"/><stop offset="0.34" stop-color="#48301a"/><stop offset="0.68" stop-color="#3b2916"/><stop offset="1" stop-color="#372615"/></linearGradient><linearGradient id="_ÂÁ_Ï_ÌÌ_È_ËÂÌÚ_1204-7" x1="84.9" y1="60.7" x2="75.07" y2="73.22" xlink:href="#_ÂÁ_Ï_ÌÌ_È_ËÂÌÚ_1204"/><linearGradient id="_ÂÁ_Ï_ÌÌ_È_ËÂÌÚ_124-2" x1="85.2" y1="68.33" x2="84.62" y2="65.75" xlink:href="#_ÂÁ_Ï_ÌÌ_È_ËÂÌÚ_124"/><linearGradient id="linear-gradient-12" x1="73.37" y1="82.62" x2="74.31" y2="89.49" gradientUnits="userSpaceOnUse"><stop offset="0" stop-color="#fed8b4"/><stop offset="1" stop-color="#f6d4ab"/></linearGradient><linearGradient id="_ÂÁ_Ï_ÌÌ_È_ËÂÌÚ_1061" x1="66.27" y1="62.27" x2="54.53" y2="66.83" gradientUnits="userSpaceOnUse"><stop offset="0" stop-color="#f0c499"/><stop offset="0.5" stop-color="#e5b287"/><stop offset="1" stop-color="#dca47a"/></linearGradient><linearGradient id="_ÂÁ_Ï_ÌÌ_È_ËÂÌÚ_131-3" x1="63.19" y1="65.19" x2="67.25" y2="65.19" xlink:href="#_ÂÁ_Ï_ÌÌ_È_ËÂÌÚ_131"/><linearGradient id="_ÂÁ_Ï_ÌÌ_È_ËÂÌÚ_133-2" x1="65.89" y1="66.24" x2="67.13" y2="67.13" xlink:href="#_ÂÁ_Ï_ÌÌ_È_ËÂÌÚ_133"/><linearGradient id="_ÂÁ_Ï_ÌÌ_È_ËÂÌÚ_131-4" x1="55.99" y1="65.08" x2="59.21" y2="65.08" xlink:href="#_ÂÁ_Ï_ÌÌ_È_ËÂÌÚ_131"/><linearGradient id="_ÂÁ_Ï_ÌÌ_È_ËÂÌÚ_1036-2" x1="65.71" y1="68.99" x2="55.94" y2="62.88" xlink:href="#_ÂÁ_Ï_ÌÌ_È_ËÂÌÚ_1036"/><linearGradient id="_ÂÁ_Ï_ÌÌ_È_ËÂÌÚ_130-2" x1="57.74" y1="65.18" x2="64.44" y2="65.18" xlink:href="#_ÂÁ_Ï_ÌÌ_È_ËÂÌÚ_130"/><linearGradient id="_ÂÁ_Ï_ÌÌ_È_ËÂÌÚ_129-2" x1="61.46" y1="67.13" x2="62.33" y2="73.64" xlink:href="#_ÂÁ_Ï_ÌÌ_È_ËÂÌÚ_129"/><radialGradient id="_ÂÁ_Ï_ÌÌ_È_ËÂÌÚ_128-2" cx="45.83" cy="109.18" r="4.34" xlink:href="#_ÂÁ_Ï_ÌÌ_È_ËÂÌÚ_128"/><linearGradient id="_ÂÁ_Ï_ÌÌ_È_ËÂÌÚ_1038" x1="52.35" y1="64.79" x2="67.25" y2="64.79" gradientUnits="userSpaceOnUse"><stop offset="0" stop-color="#372615"/><stop offset="0.32" stop-color="#3b2916"/><stop offset="0.66" stop-color="#48301a"/><stop offset="1" stop-color="#5d3d20"/></linearGradient><linearGradient id="_ÂÁ_Ï_ÌÌ_È_ËÂÌÚ_1204-8" x1="62.06" y1="60.93" x2="56.15" y2="68.44" xlink:href="#_ÂÁ_Ï_ÌÌ_È_ËÂÌÚ_1204"/><linearGradient id="_ÂÁ_Ï_ÌÌ_È_ËÂÌÚ_124-3" x1="62.79" y1="72.6" x2="61.75" y2="68.04" xlink:href="#_ÂÁ_Ï_ÌÌ_È_ËÂÌÚ_124"/><linearGradient id="linear-gradient-13" x1="73.45" y1="80.93" x2="72.6" y2="76.66" xlink:href="#linear-gradient-7"/><linearGradient id="linear-gradient-14" x1="72.78" y1="76.33" x2="72.76" y2="79.67" xlink:href="#_ÂÁ_Ï_ÌÌ_È_ËÂÌÚ_1204"/><linearGradient id="_ÂÁ_Ï_ÌÌ_È_ËÂÌÚ_106" x1="72.58" y1="71.78" x2="72.62" y2="75.21" gradientUnits="userSpaceOnUse"><stop offset="0" stop-color="#f6d4ab"/><stop offset="1" stop-color="#fed8b4"/></linearGradient><linearGradient id="linear-gradient-15" x1="61.28" y1="81.6" x2="65.02" y2="81.6" xlink:href="#_ÂÁ_Ï_ÌÌ_È_ËÂÌÚ_1204"/><linearGradient id="_ÂÁ_Ï_ÌÌ_È_ËÂÌÚ_1061-2" x1="81.39" y1="81.77" x2="85.02" y2="81.77" xlink:href="#_ÂÁ_Ï_ÌÌ_È_ËÂÌÚ_1061"/><linearGradient id="linear-gradient-16" x1="67.3" y1="87.76" x2="79.21" y2="87.76" xlink:href="#_ÂÁ_Ï_ÌÌ_È_ËÂÌÚ_1204"/><linearGradient id="linear-gradient-17" x1="66.6" y1="84.56" x2="79.79" y2="84.56" gradientUnits="userSpaceOnUse"><stop offset="0" stop-color="#e8d9d7"/><stop offset="0.14" stop-color="#f0e6e4"/><stop offset="0.39" stop-color="#fbf8f8"/><stop offset="0.57" stop-color="#fff"/><stop offset="1" stop-color="#e8d3d1"/></linearGradient><linearGradient id="linear-gradient-18" x1="62.39" y1="83.06" x2="83.16" y2="83.06" gradientUnits="userSpaceOnUse"><stop offset="0" stop-color="#e8d9d7"/><stop offset="0.04" stop-color="#ebdfdd"/><stop offset="0.21" stop-color="#f6f1f0"/><stop offset="0.38" stop-color="#fdfbfb"/><stop offset="0.57" stop-color="#fff"/><stop offset="0.69" stop-color="#fbf8f8"/><stop offset="0.87" stop-color="#f1e5e3"/><stop offset="1" stop-color="#e8d3d1"/></linearGradient><linearGradient id="linear-gradient-19" x1="66.16" y1="85.36" x2="81.34" y2="85.36" gradientUnits="userSpaceOnUse"><stop offset="0" stop-color="#f26e7f"/><stop offset="0.02" stop-color="#f26f80"/><stop offset="0.24" stop-color="#f37986"/><stop offset="0.53" stop-color="#f37c88"/><stop offset="0.77" stop-color="#f37885"/><stop offset="1" stop-color="#f26d7d"/></linearGradient><linearGradient id="linear-gradient-20" x1="65.33" y1="82.67" x2="81.4" y2="82.71" gradientUnits="userSpaceOnUse"><stop offset="0" stop-color="#e8d9d7"/><stop offset="0.05" stop-color="#eadddb"/><stop offset="0.31" stop-color="#f6efef"/><stop offset="0.48" stop-color="#faf6f6"/><stop offset="1" stop-color="#e8d3d1"/></linearGradient><linearGradient id="linear-gradient-21" x1="67.58" y1="82.07" x2="79.08" y2="82.07" xlink:href="#linear-gradient-19"/><linearGradient id="_ÂÁ_Ï_ÌÌ_È_ËÂÌÚ_1204-9" x1="74.51" y1="102.56" x2="75.1" y2="106.74" xlink:href="#_ÂÁ_Ï_ÌÌ_È_ËÂÌÚ_1204"/><linearGradient id="_ÂÁ_Ï_ÌÌ_È_ËÂÌÚ_1040" x1="79.22" y1="55.46" x2="94.1" y2="55.46" gradientUnits="userSpaceOnUse"><stop offset="0" stop-color="#714c26"/><stop offset="0.32" stop-color="#754e28"/><stop offset="0.66" stop-color="#82562c"/><stop offset="1" stop-color="#966134"/></linearGradient><linearGradient id="_ÂÁ_Ï_ÌÌ_È_ËÂÌÚ_359" x1="51.48" y1="55.46" x2="66.35" y2="55.46" gradientUnits="userSpaceOnUse"><stop offset="0" stop-color="#966134"/><stop offset="0.34" stop-color="#82562c"/><stop offset="0.68" stop-color="#754e28"/><stop offset="1" stop-color="#714c26"/></linearGradient><linearGradient id="linear-gradient-22" x1="52.41" y1="70.09" x2="56.77" y2="70.09" gradientUnits="userSpaceOnUse"><stop offset="0" stop-color="#fed8b3"/><stop offset="1" stop-color="#f5d3aa"/></linearGradient><linearGradient id="_ÂÁ_Ï_ÌÌ_È_ËÂÌÚ_123-3" x1="116.44" y1="63.09" x2="114.95" y2="61.26" xlink:href="#_ÂÁ_Ï_ÌÌ_È_ËÂÌÚ_123"/><linearGradient id="_ÂÁ_Ï_ÌÌ_È_ËÂÌÚ_123-4" x1="109.06" y1="53.92" x2="75.98" y2="13.15" xlink:href="#_ÂÁ_Ï_ÌÌ_È_ËÂÌÚ_123"/><linearGradient id="_ÂÁ_Ï_ÌÌ_È_ËÂÌÚ_69" x1="85.57" y1="23.15" x2="26.71" y2="53.15" gradientUnits="userSpaceOnUse"><stop offset="0" stop-color="#a4753e"/><stop offset="1" stop-color="#e0b163"/></linearGradient><linearGradient id="_ÂÁ_Ï_ÌÌ_È_ËÂÌÚ_122-3" x1="59.18" y1="37.11" x2="44.2" y2="74.62" xlink:href="#_ÂÁ_Ï_ÌÌ_È_ËÂÌÚ_122"/><linearGradient id="_ÂÁ_Ï_ÌÌ_È_ËÂÌÚ_119" x1="47.86" y1="108.01" x2="47.4" y2="45.15" gradientUnits="userSpaceOnUse"><stop offset="0" stop-color="#a3763e"/><stop offset="0.35" stop-color="#956a37"/><stop offset="1" stop-color="#714c26"/></linearGradient><linearGradient id="_ÂÁ_Ï_ÌÌ_È_ËÂÌÚ_123-5" x1="102.36" y1="84.98" x2="93.24" y2="125.72" xlink:href="#_ÂÁ_Ï_ÌÌ_È_ËÂÌÚ_123"/><linearGradient id="_ÂÁ_Ï_ÌÌ_È_ËÂÌÚ_69-2" x1="53.69" y1="83.75" x2="56.18" y2="113.41" xlink:href="#_ÂÁ_Ï_ÌÌ_È_ËÂÌÚ_69"/><linearGradient id="_ÂÁ_Ï_ÌÌ_È_ËÂÌÚ_123-6" x1="100.65" y1="72.22" x2="89.95" y2="128.01" xlink:href="#_ÂÁ_Ï_ÌÌ_È_ËÂÌÚ_123"/><linearGradient id="_ÂÁ_Ï_ÌÌ_È_ËÂÌÚ_69-3" x1="50.76" y1="52.43" x2="34.96" y2="106.64" xlink:href="#_ÂÁ_Ï_ÌÌ_È_ËÂÌÚ_69"/><linearGradient id="_ÂÁ_Ï_ÌÌ_È_ËÂÌÚ_69-4" x1="39.76" y1="59.76" x2="37.79" y2="104.53" xlink:href="#_ÂÁ_Ï_ÌÌ_È_ËÂÌÚ_69"/><linearGradient id="_ÂÁ_Ï_ÌÌ_È_ËÂÌÚ_123-7" x1="107.87" y1="80.09" x2="115.8" y2="122.23" xlink:href="#_ÂÁ_Ï_ÌÌ_È_ËÂÌÚ_123"/><linearGradient id="linear-gradient-23" x1="108.57" y1="86.71" x2="96.17" y2="40.59" xlink:href="#_ÂÁ_Ï_ÌÌ_È_ËÂÌÚ_69"/><linearGradient id="_ÂÁ_Ï_ÌÌ_È_ËÂÌÚ_1200" x1="123.83" y1="117.62" x2="85.12" y2="45.81" gradientUnits="userSpaceOnUse"><stop offset="0" stop-color="#e0b163"/><stop offset="1" stop-color="#a4753e"/></linearGradient><linearGradient id="_ÂÁ_Ï_ÌÌ_È_ËÂÌÚ_69-5" x1="84.13" y1="133.02" x2="87.36" y2="26.84" xlink:href="#_ÂÁ_Ï_ÌÌ_È_ËÂÌÚ_69"/><linearGradient id="linear-gradient-24" x1="50.77" y1="44.61" x2="42.67" y2="80.48" xlink:href="#_ÂÁ_Ï_ÌÌ_È_ËÂÌÚ_69"/><linearGradient id="linear-gradient-25" x1="52.5" y1="110.38" x2="40.45" y2="89.04" xlink:href="#_ÂÁ_Ï_ÌÌ_È_ËÂÌÚ_69"/><linearGradient id="linear-gradient-26" x1="129.24" y1="79.68" x2="91.64" y2="28.34" xlink:href="#_ÂÁ_Ï_ÌÌ_È_ËÂÌÚ_69"/><linearGradient id="linear-gradient-27" x1="47.51" y1="33.66" x2="33.72" y2="60.66" xlink:href="#_ÂÁ_Ï_ÌÌ_È_ËÂÌÚ_69"/><linearGradient id="linear-gradient-28" x1="64.83" y1="35.55" x2="71.12" y2="20.34" xlink:href="#_ÂÁ_Ï_ÌÌ_È_ËÂÌÚ_69"/><linearGradient id="linear-gradient-29" x1="58.21" y1="31.99" x2="68.38" y2="14.28" xlink:href="#_ÂÁ_Ï_ÌÌ_È_ËÂÌÚ_69"/><linearGradient id="linear-gradient-30" x1="110.48" y1="85.69" x2="106.54" y2="64.64" xlink:href="#_ÂÁ_Ï_ÌÌ_È_ËÂÌÚ_69"/><linearGradient id="_ÂÁ_Ï_ÌÌ_È_ËÂÌÚ_119-2" x1="82.37" y1="122.45" x2="105.87" y2="26.32" xlink:href="#_ÂÁ_Ï_ÌÌ_È_ËÂÌÚ_119"/><linearGradient id="_ÂÁ_Ï_ÌÌ_È_ËÂÌÚ_122-4" x1="67.08" y1="33.69" x2="81.66" y2="33.69" xlink:href="#_ÂÁ_Ï_ÌÌ_È_ËÂÌÚ_122"/><linearGradient id="linear-gradient-31" x1="67.2" y1="58.69" x2="110.92" y2="58.69" xlink:href="#_ÂÁ_Ï_ÌÌ_È_ËÂÌÚ_69"/><linearGradient id="linear-gradient-32" x1="64.64" y1="37.02" x2="38" y2="61.01" xlink:href="#_ÂÁ_Ï_ÌÌ_È_ËÂÌÚ_69"/><linearGradient id="linear-gradient-33" x1="71.94" y1="111.12" x2="55.04" y2="98.05" xlink:href="#_ÂÁ_Ï_ÌÌ_È_ËÂÌÚ_69"/><linearGradient id="_ÂÁ_Ï_ÌÌ_È_ËÂÌÚ_119-3" x1="61.6" y1="112.94" x2="53.22" y2="74.84" xlink:href="#_ÂÁ_Ï_ÌÌ_È_ËÂÌÚ_119"/><linearGradient id="_ÂÁ_Ï_ÌÌ_È_ËÂÌÚ_1200-2" x1="88.42" y1="117.42" x2="105.47" y2="27.55" xlink:href="#_ÂÁ_Ï_ÌÌ_È_ËÂÌÚ_1200"/></defs><circle class="cls-1" cx="72" cy="72" r="72"/><path class="cls-2" d="M103.29,84.05s10,13.74,2.65,18.64c0,0,9.63-3.86,9.62-13.3,0-3-2.61-9.06-4.64-11C108.61,76.2,103.29,84.05,103.29,84.05Z"/><path class="cls-3" d="M34,78a16,16,0,0,0-4,9.81c.23,6.5,10.44,13.24,10.44,13.24-7.32-4.9,2.65-18.63,2.65-18.63S36.31,75.8,34,78Z"/><path class="cls-4" d="M55.65,105.89s3.26-5.91,22.15-6c9.38,0,14.26,3.78,14.26,3.78l.28-27.59L41.57,65.42Z"/><path class="cls-5" d="M106.39,82.25c2-10-17.33,3-17.33,3s-5,17.66.86,22.39c10.61,0,22.46-8.55,22.46-8.55S103.79,95.56,106.39,82.25Z"/><path class="cls-6" d="M123.42,122.39c0-.1,0-.2-.08-.3-2.47-8-14.32-9.15-17.55-9.8-4.1-.82-17.77-.83-19.51-6.33-2.16-6.83-3.5-21.12-3.5-21.12l-21.55-1.3c2.92,4.81,2.24,20.5-2.58,24.37-3.7,3-11.83,3.59-17.44,4.84C38,113.47,27.42,115.21,25.4,123c-.27,1-.5,2.11-.72,3.27a72,72,0,0,0,98.74-3.87Z"/><path class="cls-7" d="M86.53,104.05a37,37,0,0,1-1.38-8.34c-.33.4-24.5-2.47-24.5-2.47s.34,9.54-.9,11.54c-.59,1-6.23,4.44-10.64,5.35.32.24,1.45,1.57,1.7,1.7,3.78.37,5,.61,6.54.34a64.16,64.16,0,0,0,9.57-3.46c12.43-5.63,16.4-8.61,16.4-8.61.59,5.23,2.1,8.21,4,10.65s6.94.89,10.32.8a17,17,0,0,0,2.56-1c-2.8-.94-5.8-1.5-7.78-2.3C88.55,106.74,86.83,104.83,86.53,104.05Z"/><path class="cls-8" d="M73.22,116.41C62.57,116.16,56.73,107,56.73,107l-3.32,1.46S60,124.42,74.89,122.57s18.34-14.19,18.34-14.19l-3.39-1.06S87.06,116.73,73.22,116.41Z"/><path class="cls-9" d="M78,116.14c3.88-3,7.76-2.13,12.72-2.7s12.55-2,12.55-2c-2.25.43-20.54.62-22.28,1S78,116.14,78,116.14Z"/><path class="cls-10" d="M68.49,113c-2.14-.71-18.5-1.71-21.45-1.42,0,0,20.65,2,24.79,4.58A6.83,6.83,0,0,0,68.49,113Z"/><path class="cls-11" d="M101.25,111.08l4,24.77c1.12-.58,2.22-1.2,3.31-1.84-1.94-11.77-2.81-21.72-2.81-21.72Z"/><path class="cls-12" d="M40.56,112.9c1.12,3.5.35,14-.69,23.54,1.33.67,2.68,1.3,4.05,1.88l1.64-26.84C43,112.27,40.56,112.9,40.56,112.9Z"/><path class="cls-13" d="M59.75,87.35c1.4,4.1.85,13.64.85,13.64,14.27,4.48,24.55-5.28,24.55-5.28a65,65,0,0,1,.43-8.1C84.47,87.51,59.75,87.35,59.75,87.35Z"/><path class="cls-14" d="M95.63,108.7S92,117.39,75.19,120.36C61,122.87,53,108.23,53,108.23l-10.08,3.25c1.36,7.12.52,17.34-.73,26.07a72.1,72.1,0,0,0,64.47-2.43,164.91,164.91,0,0,1-2.85-23.58Z"/><path class="cls-15" d="M72.18,117s4.47.78,5.65,2.15C77.83,119.15,76.54,115.63,72.18,117Z"/><path class="cls-16" d="M75.16,117.81c-12.56,1-19.84-10.49-19.84-10.49L50.77,109a24.5,24.5,0,0,0,23,13.77c17-.34,21.88-14,21.88-14l-4.29-1.38C89,113.71,83.77,117.16,75.16,117.81Z"/><path class="cls-17" d="M46.66,61.93c-4.63.26-3.43,5.13-1.4,9.66,1.33,3,2.58,6.33,6,6.33,0,0-.88-6-1.93-13.82C49.31,64.1,47.56,61.88,46.66,61.93Z"/><path class="cls-18" d="M47.55,70.12c1.22-8.07-4.32-8.62-3.07-3.11,0,0,.77-2.6,1.47-1.82.86,1-.92,1.48,0,5.64.47,2.17,2.76,4.45,2.76,4.45A6.24,6.24,0,0,1,47.55,70.12Z"/><path class="cls-19" d="M99.55,61.93c-.9,0-2.66,2.17-2.66,2.17C95.85,72,95,77.92,95,77.92c3.4,0,4.65-3.36,6-6.33C103,67.06,104.17,62.19,99.55,61.93Z"/><path class="cls-20" d="M98.66,70.12a6.28,6.28,0,0,1-1.15,5.16,11.47,11.47,0,0,0,2.76-4.45c.91-4.16-.87-4.69,0-5.64.7-.78,1.46,1.82,1.46,1.82C103,61.5,97.44,62.05,98.66,70.12Z"/><path class="cls-21" d="M76.28,28.45s-23.51,3-26.47,9.72c-3.23,7.28-2.31,17.51-1.39,24.2S51.19,79.91,52.88,83,63.12,94.13,65,95.49s3.94,3.44,8.21,3.44c3.81,0,6.81-2.28,8.49-3.58s10-9.61,11.72-12.69S97,69.06,97.87,62.37s1.85-16.92-1.38-24.2C93.53,31.48,86.57,29.1,76.28,28.45Z"/><path class="cls-22" d="M93.92,56.3a10.33,10.33,0,0,0-7.58-2.1C75.55,55.28,75.71,65.92,74.7,72c13.25,5.19,21-4.26,21-4.26S97.93,59.39,93.92,56.3Z"/><path class="cls-23" d="M59,54.66a9.94,9.94,0,0,0-7.32,2c-4,3.21-1.06,12.25-1.06,12.25s7.78,9.12,21,3.52C70.53,66.45,69.78,55.37,59,54.66Z"/><path class="cls-24" d="M63.38,65.31c-3-.9-14.77-3.34-14.21.52,1.24,8.51,2.37,14.37,3.86,17s6.19,7.15,8.19,7.48c3.08.52,6.35-10.7,6.43-14.54C67.75,70.41,66.42,66.2,63.38,65.31Z"/><path class="cls-25" d="M82.5,36.77c-5.77-3.48-19.31-3.16-21-2.56S51,39.77,50.11,42.82,47.66,59.91,49.45,67c0,0,3.1-7.89,4.08-10.42S55.29,48,56.48,45.39s6.53-5.8,11.78-5.45,7.38-1.06,16.4,5.34C84.66,45.28,88.27,40.26,82.5,36.77Z"/><path class="cls-26" d="M82.93,65.31c-3,.89-4.36,5.1-4.26,10.48.07,3.84,3.35,15.06,6.43,14.54,2-.33,6.61-4.7,8.18-7.48s2.63-8.51,3.87-17C97.71,62,86,64.41,82.93,65.31Z"/><path class="cls-27" d="M90.47,68.79c-1.19.32-2,1.14-1.86,1.83s1.26,1,2.45.67,2-1.13,1.87-1.82S91.66,68.48,90.47,68.79Z"/><path class="cls-28" d="M92.34,74.29c-2.09,6.73-4.42,9.79-7.07,14.34a30.74,30.74,0,0,0-2.7,5.94l6.17-5.65,11.79-20.08-9.63-6.9A16,16,0,0,1,92.34,74.29Z"/><path class="cls-29" d="M78.45,37.52s.77,11.31,2,15.14,1.36,7.79,6.55,13a38.4,38.4,0,0,0,11.78,7.71l1-10.84L82.57,38Z"/><path class="cls-30" d="M73.71,91.24c-2.17.1-3.91.87-3.89,1.72s1.77,1.46,3.93,1.36,3.89-.87,3.88-1.72S75.86,91.14,73.71,91.24Z"/><path class="cls-31" d="M48.54,63.22s2.17,15.5,4.18,19.8c.65,1.41,6.37,7.32,10,10.69,0,0-7.29-7.29-9.24-12.23C51.85,77.23,48.54,63.22,48.54,63.22Z"/><path class="cls-32" d="M94.8,56.66c-4.79-3-8-1-8-1,9.81-.68,8.65,8.66,8.65,8.66S97.35,58.26,94.8,56.66Z"/><path class="cls-33" d="M86.17,59.79c-7.17,0-7.83,4.33-8,7.46.54.12,1.11.22,2.18.54a16.19,16.19,0,0,0,5.56,1.12C87.84,68.9,92,68,92,64,92.07,60.76,87.9,59.94,86.17,59.79Z"/><path class="cls-34" d="M78.51,67a24.81,24.81,0,0,1,3.7,1,3.11,3.11,0,0,1-1.27-2.73,5,5,0,0,1,1.63-3A12.18,12.18,0,0,0,78.51,67Z"/><path class="cls-35" d="M79.5,65.56a10.83,10.83,0,0,0-1,1.44,9.45,9.45,0,0,1,1.38.3C79,66.24,79.5,65.56,79.5,65.56Z"/><path class="cls-36" d="M78.51,67A12.3,12.3,0,0,1,81,65a3.48,3.48,0,0,1,1.35-2.16C80,63.92,78.51,67,78.51,67Z"/><path class="cls-37" d="M88.12,65.67a3.41,3.41,0,0,1-1.76,2.79,6.52,6.52,0,0,0,5.38-3.82c-2.59-2.12-4.45-2.79-6.21-2.94A4,4,0,0,1,88.12,65.67Z"/><path class="cls-38" d="M81,64.87a2.92,2.92,0,0,0-.06.44A3,3,0,0,0,82.21,68a12.64,12.64,0,0,0,4.53.41,3.27,3.27,0,0,0,1.84-2.7,3.67,3.67,0,0,0-.37-1.87A8.14,8.14,0,0,0,81,64.87Z"/><path class="cls-39" d="M84.76,62.19a3.22,3.22,0,0,0-3.35,3.1c0,1.73,1.49,2.87,3.35,2.87s3.35-1.1,3.35-2.83A3.25,3.25,0,0,0,84.76,62.19Z"/><path class="cls-36" d="M86.73,62.48a3.58,3.58,0,0,1,1.69,2,10.76,10.76,0,0,1,2.43,1.39l.71-1.41C90.54,63.18,88.59,62.82,86.73,62.48Z"/><path class="cls-40" d="M86.73,62.48a9.31,9.31,0,0,0-3.37,0,3.91,3.91,0,0,0-1,.33A3.45,3.45,0,0,0,81,65a8.64,8.64,0,0,1,3.56-1.14,8.46,8.46,0,0,1,3.9.67A3.46,3.46,0,0,0,86.73,62.48Z"/><path class="cls-41" d="M84.87,62.71a2.3,2.3,0,1,0,2.23,2.46A2.36,2.36,0,0,0,84.87,62.71Z"/><path class="cls-42" d="M84.35,64.06a.63.63,0,0,0-.22.9.69.69,0,0,0,.92.25.65.65,0,0,0,.22-.9A.7.7,0,0,0,84.35,64.06Z"/><path class="cls-42" d="M86.19,65a.9.9,0,0,0-.33,1.23.91.91,0,0,0,1.56-.92A.9.9,0,0,0,86.19,65Z"/><path class="cls-43" d="M93.34,61.49s-.7,1.45-4.2.21c-6.73-2.15-10.49,1.73-10.63,5.3,0,0,2-3.93,5.85-4.3,2.33-.23,4.35.72,6.36,1.8,0,1.59-2.13,3.54-4.45,4,2,0,6.4-2,6.73-3.67-.13.21-.55.35-1.09.16C91.91,65,93.81,64.25,93.34,61.49Z"/><path class="cls-44" d="M82.73,60.13a6.57,6.57,0,0,0-3.35,2.46,7.25,7.25,0,0,1,3.56-2.11,15.32,15.32,0,0,1,6.2,0A9,9,0,0,0,82.73,60.13Z"/><path class="cls-45" d="M84.36,62.7a2.22,2.22,0,0,0-2,1.59,6.58,6.58,0,0,1,4.44-.3A2.37,2.37,0,0,0,84.36,62.7Z"/><path class="cls-46" d="M84.08,62.35A7.15,7.15,0,0,0,78.51,67a8.29,8.29,0,0,1,5.67-4.06c2.26-.4,4.82.7,6.54,1.56A8,8,0,0,0,84.08,62.35Z"/><path class="cls-47" d="M73.34,80.75c-1.11.08-11.8,0-11.8,0a66,66,0,0,0,12.05,1c4.84-.26,11.14-.89,11.14-.89S74.46,80.68,73.34,80.75Z"/><path class="cls-48" d="M59.68,59.79c-1.73.15-5.9,1-5.85,4.19.06,4.06,4.18,4.92,6.1,4.93a16.13,16.13,0,0,0,5.55-1.12c1.07-.32,1.64-.42,2.18-.54C67.52,64.12,66.85,59.79,59.68,59.79Z"/><path class="cls-49" d="M63.28,62.34a5,5,0,0,1,1.63,3A3.09,3.09,0,0,1,63.64,68a24.81,24.81,0,0,1,3.7-1A12.18,12.18,0,0,0,63.28,62.34Z"/><path class="cls-50" d="M66,67.3a9.45,9.45,0,0,1,1.38-.3,10.83,10.83,0,0,0-1-1.44S66.89,66.24,66,67.3Z"/><path class="cls-36" d="M63.49,62.8A3.53,3.53,0,0,1,64.85,65a12.46,12.46,0,0,1,2.49,2S65.82,63.92,63.49,62.8Z"/><path class="cls-51" d="M60.33,61.7c-1.77.15-3.63.82-6.22,2.94a6.52,6.52,0,0,0,5.38,3.82,3.38,3.38,0,0,1-1.75-2.79A3.92,3.92,0,0,1,60.33,61.7Z"/><path class="cls-52" d="M64.85,64.87a8.14,8.14,0,0,0-7.21-1,3.78,3.78,0,0,0-.37,1.87,3.29,3.29,0,0,0,1.84,2.7A12.64,12.64,0,0,0,63.64,68a3,3,0,0,0,1.27-2.73A2.92,2.92,0,0,0,64.85,64.87Z"/><path class="cls-53" d="M61.09,62.19a3.25,3.25,0,0,0-3.35,3.14c0,1.73,1.5,2.83,3.35,2.83s3.35-1.14,3.35-2.87A3.22,3.22,0,0,0,61.09,62.19Z"/><path class="cls-36" d="M54.29,64.46,55,65.87a10.76,10.76,0,0,1,2.43-1.39,3.58,3.58,0,0,1,1.69-2C57.26,62.82,55.31,63.18,54.29,64.46Z"/><path class="cls-54" d="M63.49,62.8a3.84,3.84,0,0,0-1-.33,9.37,9.37,0,0,0-3.38,0,3.46,3.46,0,0,0-1.71,2,8.46,8.46,0,0,1,3.9-.67A8.64,8.64,0,0,1,64.87,65,3.45,3.45,0,0,0,63.49,62.8Z"/><path class="cls-55" d="M61,62.71a2.3,2.3,0,1,0,2.57,2.11A2.34,2.34,0,0,0,61,62.71Z"/><path class="cls-42" d="M61.5,64.06a.7.7,0,0,0-.92.25.65.65,0,0,0,.22.9.68.68,0,0,0,.92-.25A.63.63,0,0,0,61.5,64.06Z"/><path class="cls-42" d="M63.67,65a.9.9,0,0,0-1.23.31.91.91,0,0,0,1.56.92A.9.9,0,0,0,63.67,65Z"/><path class="cls-56" d="M56.71,61.7c-3.5,1.24-4.2-.21-4.2-.21C52,64.25,53.94,65,53.94,65c-.54.19-1,0-1.09-.16.33,1.66,4.75,3.68,6.73,3.67-2.32-.47-4.47-2.42-4.44-4,2-1.08,4-2,6.35-1.8,3.82.37,5.85,4.3,5.85,4.3C67.2,63.43,63.44,59.55,56.71,61.7Z"/><path class="cls-57" d="M63.12,60.13a9,9,0,0,0-6.41.33,15.32,15.32,0,0,1,6.2,0,7.18,7.18,0,0,1,3.56,2.11A6.51,6.51,0,0,0,63.12,60.13Z"/><path class="cls-45" d="M61.47,62.7A2.33,2.33,0,0,0,59,64a6.56,6.56,0,0,1,4.45.31A2.28,2.28,0,0,0,61.47,62.7Z"/><path class="cls-58" d="M61.77,62.35a8,8,0,0,0-6.63,2.15c1.71-.86,4.27-2,6.54-1.56A8.29,8.29,0,0,1,67.34,67,7.15,7.15,0,0,0,61.77,62.35Z"/><polygon class="cls-59" points="72.65 76.87 68.71 76.87 68.26 77.42 72.88 80.56 77.22 77.33 76.6 76.82 72.65 76.87"/><path class="cls-60" d="M72.65,77l-2.88-.79-1.51.18.14,1a5.42,5.42,0,0,1,3.29.11h1.88a6.11,6.11,0,0,1,3.65-.12l.08-.84-1.5-.3Z"/><path class="cls-19" d="M77.17,73.73s.69,1.14.4,1.86-2.27.1-3.07.6c-1.49.92-2.39.69-3.86,0-1-.45-2.34.12-2.88-.67a2.36,2.36,0,0,1,0-1.79,2.11,2.11,0,0,0-.94,1.67c-.14,1.4,1.33,2.16,1.55,2s-.18-1.2,1.17-1,1.28.86,1.5,1.09a6.43,6.43,0,0,0,3,0c.41-.25.3-1.17,1.58-1.13s1.31.9,1.49,1,.95-.56,1.17-1.84A1.82,1.82,0,0,0,77.17,73.73Z"/><path class="cls-61" d="M69.6,73.09A2.63,2.63,0,0,0,70.07,75c.58.88,4.71,1.61,5.42-.43a4.77,4.77,0,0,0,.06-1.84C75.47,71.76,69.62,72.2,69.6,73.09Z"/><path class="cls-62" d="M61.37,80.22A1.08,1.08,0,0,0,62,81.63,8.72,8.72,0,0,1,65,83C64.08,81.63,61.59,79.82,61.37,80.22Z"/><path class="cls-63" d="M81.39,83.28a8.66,8.66,0,0,1,2.92-1.53,1.09,1.09,0,0,0,.61-1.43C84.68,79.92,82.27,81.84,81.39,83.28Z"/><path class="cls-64" d="M67.3,86.13c1.1,2.43,7.25,5.87,11.91.11C79.21,86.24,72.67,89.05,67.3,86.13Z"/><path class="cls-65" d="M72.6,82.08A47,47,0,0,1,62,80.69v0a.49.49,0,0,1,.1.15,11.13,11.13,0,0,1,2.63,1.35c.73.54,1.41,4.14,8.67,4.16a10.54,10.54,0,0,0,8.76-4,6.37,6.37,0,0,1,2-1.42c0-.06,0-.09.07-.16A35.05,35.05,0,0,1,72.6,82.08Z"/><path class="cls-66" d="M79.13,82.81a37.15,37.15,0,0,1-11.63.28c-1.16-.53-1.07,1-1.07,1C69,86.69,71,86.23,73.06,86.31A11,11,0,0,0,79.94,84C80.12,83.56,79.7,82.69,79.13,82.81Z"/><path class="cls-67" d="M69.19,82.15a17.8,17.8,0,0,1-3.71-.69,3.89,3.89,0,0,1,.48.82c.24.57,1.44,2.52,7.29,2.53,4.39,0,6.73-1.53,7.06-2.48.19-.57.61-.81.64-1a14.7,14.7,0,0,1-4.46.92A38.34,38.34,0,0,1,69.19,82.15Z"/><path class="cls-68" d="M73.78,86.11C64.85,86,68,82.37,62.09,80.86A11,11,0,0,1,65,83.43c1.69,2,3.14,5.18,8.14,5.2,4.51,0,7.05-3.23,8.51-5A14.82,14.82,0,0,1,84.19,81C79.32,82.21,80.88,86,73.78,86.11Z"/><path class="cls-69" d="M77.6,85.25A16.73,16.73,0,0,1,73,86a12,12,0,0,1-4.52-.81,13.25,13.25,0,0,1-2.82-2.43c.32.45,2.18,5.2,7.21,5.16,5.82,0,6.92-3.94,8-5.08A9,9,0,0,1,77.6,85.25Z"/><path class="cls-70" d="M75.47,86.28c-.59.19-2.62.31-2.54.51a3.29,3.29,0,0,0,2.8.23c1.19-.32,1.76-1,1.69-1.19S76.06,86.08,75.47,86.28Z"/><path class="cls-65" d="M62.18,81.2a8.87,8.87,0,0,1,2,.43,19.68,19.68,0,0,0-2.52-1.2C61.57,80.47,61.66,81,62.18,81.2Z"/><path class="cls-65" d="M82.22,81.74a6.89,6.89,0,0,1,2-.43c.52-.25.61-.71.52-.78A12.53,12.53,0,0,0,82.22,81.74Z"/><path class="cls-71" d="M66,82.31s2.51,1.39,7.7,1.44a16.31,16.31,0,0,0,6.62-1.35l.3-.69-15-.1Z"/><path class="cls-68" d="M73.41,81.43c-1.45,0-8.1-.06-10.94-.69,0,0,1.05.66,6.27,1.75a20.94,20.94,0,0,0,4.53.62,26.55,26.55,0,0,0,5-.58,24.8,24.8,0,0,0,5.53-1.66A95.08,95.08,0,0,1,73.41,81.43Z"/><path class="cls-72" d="M75.52,81.74c-.44,0-4.44-.12-4.87-.12a16.32,16.32,0,0,0-3.07,0c-.15.54,5.79,1,6.33,1s5.14-.53,5.17-.75S76.14,81.74,75.52,81.74Z"/><path class="cls-73" d="M73.09,98.83a10.52,10.52,0,0,1-5.82-1.73c-.64-.36-6.5-5.27-6.5-5.27s4.44,5.2,6.5,6.35c1.88,1,3.68,2.38,5.88,2.38a12.32,12.32,0,0,0,6.9-3,75.12,75.12,0,0,0,5.22-5.5c-.46.43-5.2,4.31-6.15,4.93A9.71,9.71,0,0,1,73.09,98.83Z"/><path class="cls-74" d="M89.07,53.14c-1.9-.2-6.75,1.48-8.22,2a1.79,1.79,0,0,0-1,2.05A1.45,1.45,0,0,1,80,55.62c-1.16,1-1,2.55.3,2.11,1.5-.51,7.38-2.72,8.59-2.75a11.94,11.94,0,0,1,5.21,1.67S91.13,53.36,89.07,53.14Z"/><path class="cls-75" d="M65.57,55.62a1.45,1.45,0,0,1,.1,1.58,1.79,1.79,0,0,0-1-2.05c-1.48-.53-6.32-2.21-8.21-2-2.06.22-5,3.51-5,3.51A11.94,11.94,0,0,1,56.69,55c1.21,0,7.08,2.24,8.57,2.75C66.58,58.17,66.72,56.58,65.57,55.62Z"/><path class="cls-76" d="M54.65,68.84c-1.19-.24-2.27.12-2.39.81S53,71.1,54.2,71.34s2.27-.12,2.39-.81S55.85,69.08,54.65,68.84Z"/><path class="cls-77" d="M116.94,63.25l-2-1.6C116,63.18,116.94,63.25,116.94,63.25Z"/><path class="cls-78" d="M102.68,33.69C100.16,29.74,97,26.58,91,23.81s-17.16-.59-17.16-.59,13.22,9.66,14.69,14.32c1.22,3.88,20.1,19.13,26.38,24.11a14.86,14.86,0,0,1-2.09-5.9C111.53,48.44,105.2,37.63,102.68,33.69Z"/><path class="cls-79" d="M46.74,32.23c-5.82,4.12-8.35,10.59-9.41,14.85-.86,3.48-1.17,11.61-1.17,11.61s-2,2.24,4.56-2a37.51,37.51,0,0,0,12.22-13,11.59,11.59,0,0,1,11-6.11l-6.6-9S52.56,28.11,46.74,32.23Z"/><path class="cls-80" d="M48,53.23c-.83,3-2.36,6.31-3,9.07a2.48,2.48,0,0,1,2.52.2c.91.67,1.42,4.2,1.7,5.33,0-2.54,1.2-8.63,1.34-10.49C52.16,36.77,64,37.52,64,37.52S52.94,35.7,48,53.23Z"/><path class="cls-81" d="M39.06,78.69c3.31,14.83-3.14,20.38-3.14,20.38s6.4,6,22.62,8.55c3.77-4.53-2.89-17.41-2.89-17.41S36.84,68.75,39.06,78.69Z"/><path class="cls-82" d="M103.19,84.21c-2.31-2.2-9.09,4.42-9.09,4.42s10,15.49,3.41,19.85c0,0,9.84-3,8.86-10.29C106,95.17,105.22,86.15,103.19,84.21Z"/><path class="cls-83" d="M53.12,83.66s-5.27,1.73-3.9,9.75c.8,4.67,5.66,4.8,8,8.72a7.8,7.8,0,0,1,.54,7.28c5.16-3.5,2.34-14.61-1.25-18.77S53.12,83.66,53.12,83.66Z"/><path class="cls-84" d="M94.06,62.77s4,7,2.27,11.45S84.08,95,85.85,101.06c1.41,4.81,2.46,5.85,4.87,8.34,0,0-4.17-5.92,4.68-13.21,7.34-6,12.43-8.19,14.8-22,.72-4.16-2.37-12-2.37-12Z"/><path class="cls-85" d="M48,57.34a24.91,24.91,0,0,0,2.63-10.41S32.34,56.87,35.09,68.59c1.2,5.13,7.19,7.09,7,11.18s-6,15.47-1,22.92c1.29,1.92,3.68,3,5.34,3.88-5.88-7.92,4.61-13.27,6.52-19s-5.39-10.07-8.35-15.94C42.51,67.48,45.11,63.5,48,57.34Z"/><path class="cls-86" d="M34.21,77c3.49,7.09,7.1,7.18,5.38,14.06A13.71,13.71,0,0,1,30,101s7.94.4,12.83-4.85S46.89,85.89,45,80.56s-7.4-10.16,1.71-22.39C46.74,58.17,30.72,69.94,34.21,77Z"/><path class="cls-87" d="M110.91,84.08c5.48-18.13.51-17.76.51-17.76s-11.93,5.8-12.52,6.21,10.17,0,10.72,2.75c.24,1.17-4.55,7.54-6.07,17.5-1.27,8.29,12.29,8.2,12.29,8.2A16.57,16.57,0,0,1,110.91,84.08Z"/><path class="cls-88" d="M80.41,22.44C94.1,24.23,104,37.52,107.35,41.77,103.33,30.56,92.17,20.19,80.41,22.44Z"/><path class="cls-89" d="M112.23,78.26c-10.5,5.33-18.48,22.88,3.61,22.72C98.74,96.53,106.92,86.19,112.23,78.26Z"/><path class="cls-90" d="M105.69,51C96.58,46.12,93.85,44.1,90.6,33.69c-4-12.84-17.47-19.59-28.95-13.75C45.76,28,64,37.52,64,37.52a30.36,30.36,0,0,1,17,.59c1.84,5.94.57,5.59,2.81,15.83S103,68.42,105.5,75.42c.72,2,.25,8.42-5.64,14.73,8.11-4.45,14.21-9.33,17.51-17.39S114.81,55.85,105.69,51Z"/><path class="cls-91" d="M39.59,98.67c11.89-10,9.41-13.87,3.47-25.15-2.43-4.62,2.75-11.29,5.48-17.36C21.65,82.91,54.89,76.46,39.59,98.67Z"/><path class="cls-92" d="M35,90.15c0,4.18-.82,7.55-5,10.83,7.63-2,10.21-7.4,10.38-12.35.28-8.25-12.82-10.94,1.94-26.71C20.47,77,35,82.14,35,90.15Z"/><path class="cls-93" d="M88,28c.7,8.1,6.8,15.61,15.23,19.32,11.08,3.24,13.2,8.23,13,17.5C123,40.86,97.94,51.11,88,28Z"/><path class="cls-94" d="M42,42.11C37,46.39,32.41,51,36.67,56.87c-2.78-6.06,1.48-9.36,6.6-13.5a44.28,44.28,0,0,0,9.67-12.81C49.57,35,46.68,37.39,42,42.11Z"/><path class="cls-95" d="M68.48,36.77c-9.09-4-3.14-18.69,6.4-11.55C65.27,14.89,54.74,34.62,68.48,36.77Z"/><path class="cls-96" d="M64,37.52C52.67,31.39,51.2,17.64,68.85,19.26,50.19,14.73,48.59,33.73,64,37.52Z"/><path class="cls-97" d="M98.24,53.23c1.89,6.92,13.71,6.59,15,17.17C114.22,59.87,104.66,59,98.24,53.23Z"/><path class="cls-98" d="M95.9,66.8c.77,8.67-3.29,13.83-5.13,16.86-7.21,11.85-10.07,19.68-.85,24.82C82.63,92.72,102.74,83,95.9,66.8Z"/><path class="cls-99" d="M69.55,28.41c-4.85,2.22-1.07,8.36-1.07,8.36a37.68,37.68,0,0,1,6.4.11c4.79.37,6.37,3.06,6.37,3.06s1.28-2.25-.67-6.43S75.75,25.59,69.55,28.41Z"/><path class="cls-100" d="M90.29,55.43C84.73,47.71,85.62,38,79.93,30.5,75.6,24.83,66,26.87,67.33,34c.32-6,8.32-6.88,11-2.18,4.2,7.66,3.32,16.94,8.4,24.38,3.27,6.12,10.26,9,16.79,12,10.87,5.23.34,16.08-3.67,22C125.33,64.7,100.15,69.56,90.29,55.43Z"/><path class="cls-101" d="M38.78,54.62c-7.85,4.21-7.9,8.9-3.17,16-3.91-12.56,7.71-10.69,13-19.2C51.93,45.5,52.17,41.89,59.64,38,48.18,40,46.49,49.33,38.78,54.62Z"/><path class="cls-102" d="M50.11,79c1.89,4.86,1.58,7.69-3.2,13.29s-5.89,11.35.44,15C38.61,95.81,61.54,92.94,50.11,79Z"/><path class="cls-103" d="M54.05,86.74c-1.89,9.12,10.26,9.2,3.68,22.67,6.58-5.67,4.31-11.31,1-16.47C57.17,90.67,54.43,88.63,54.05,86.74Z"/><path class="cls-104" d="M93.75,86.11c-9.11,9.52-10.81,19.15-2.33,23.68C86.08,105,93,95,97.33,88.32c3.7-5.63,6.67-11.4,1.33-18.2C99,73.6,102.32,77.14,93.75,86.11Z"/></svg>