<svg id="Layer_1" data-name="Layer 1" xmlns="http://www.w3.org/2000/svg" xmlns:xlink="http://www.w3.org/1999/xlink" viewBox="0 0 144 144"><defs><style>.cls-1{fill:#f6ece6;}.cls-2{fill:url(#linear-gradient);}.cls-3{fill:#f6d4ab;}.cls-4{fill:#f37327;}.cls-5{fill:url(#linear-gradient-2);}.cls-6{fill:url(#linear-gradient-3);}.cls-7{fill:#f0c499;}.cls-8{fill:url(#linear-gradient-4);}.cls-9{fill:url(#linear-gradient-5);}.cls-10{fill:url(#linear-gradient-6);}.cls-11{fill:url(#linear-gradient-7);}.cls-12{fill:url(#radial-gradient);}.cls-13{fill:url(#linear-gradient-8);}.cls-14{fill:url(#linear-gradient-9);}.cls-15{fill:url(#radial-gradient-2);}.cls-16{fill:url(#linear-gradient-10);}.cls-17{fill:url(#linear-gradient-11);}.cls-18{fill:url(#_ÂÁ_Ï_ÌÌ_È_ËÂÌÚ_1055);}.cls-19{fill:url(#linear-gradient-12);}.cls-20{fill:url(#linear-gradient-13);}.cls-21{fill:url(#linear-gradient-14);}.cls-22{fill:#dca57c;}.cls-23{fill:url(#linear-gradient-15);}.cls-24{fill:url(#linear-gradient-16);}.cls-25{fill:url(#_ÂÁ_Ï_ÌÌ_È_ËÂÌÚ_1053);}.cls-26{fill:url(#_ÂÁ_Ï_ÌÌ_È_ËÂÌÚ_45);}.cls-27{fill:#ddd;}.cls-28{fill:url(#_ÂÁ_Ï_ÌÌ_È_ËÂÌÚ_1059);}.cls-29{fill:url(#_ÂÁ_Ï_ÌÌ_È_ËÂÌÚ_1059-2);}.cls-30{fill:url(#radial-gradient-3);}.cls-31{fill:url(#_ÂÁ_Ï_ÌÌ_È_ËÂÌÚ_1055-2);}.cls-32{fill:#fff;}.cls-33{fill:url(#_ÂÁ_Ï_ÌÌ_È_ËÂÌÚ_1204);}.cls-34{fill:url(#linear-gradient-17);}.cls-35{fill:url(#_ÂÁ_Ï_ÌÌ_È_ËÂÌÚ_1059-3);}.cls-36{fill:url(#linear-gradient-18);}.cls-37{fill:url(#radial-gradient-4);}.cls-38{fill:url(#linear-gradient-19);}.cls-39{fill:url(#linear-gradient-20);}.cls-40{fill:url(#linear-gradient-21);}.cls-41{fill:url(#_ÂÁ_Ï_ÌÌ_È_ËÂÌÚ_1204-2);}.cls-42{fill:url(#_ÂÁ_Ï_ÌÌ_È_ËÂÌÚ_85);}.cls-43{fill:url(#linear-gradient-22);}.cls-44{fill:url(#linear-gradient-23);}.cls-45{fill:#e1b28d;}.cls-46{fill:url(#_ÂÁ_Ï_ÌÌ_È_ËÂÌÚ_1204-3);}.cls-47{fill:#721e23;}.cls-48{fill:#fcd8b4;}.cls-49{fill:url(#linear-gradient-24);}.cls-50{fill:url(#_ÂÁ_Ï_ÌÌ_È_ËÂÌÚ_1204-4);}.cls-51{fill:url(#linear-gradient-25);}.cls-52{fill:#f2eceb;}.cls-53{fill:url(#_ÂÁ_Ï_ÌÌ_È_ËÂÌÚ_1204-5);}.cls-54{fill:url(#_ÂÁ_Ï_ÌÌ_È_ËÂÌÚ_150);}.cls-55{fill:url(#_ÂÁ_Ï_ÌÌ_È_ËÂÌÚ_85-2);}.cls-56{fill:url(#_ÂÁ_Ï_ÌÌ_È_ËÂÌÚ_85-3);}.cls-57{fill:url(#_ÂÁ_Ï_ÌÌ_È_ËÂÌÚ_85-4);}.cls-58{fill:url(#_ÂÁ_Ï_ÌÌ_È_ËÂÌÚ_85-5);}.cls-59{fill:url(#_ÂÁ_Ï_ÌÌ_È_ËÂÌÚ_85-6);}.cls-60{fill:url(#_ÂÁ_Ï_ÌÌ_È_ËÂÌÚ_85-7);}.cls-61{fill:url(#_ÂÁ_Ï_ÌÌ_È_ËÂÌÚ_85-8);}.cls-62{fill:url(#_ÂÁ_Ï_ÌÌ_È_ËÂÌÚ_85-9);}</style><linearGradient id="linear-gradient" x1="60.36" y1="97.28" x2="97.11" y2="104.64" gradientUnits="userSpaceOnUse"><stop offset="0" stop-color="#f0c499"/><stop offset="1" stop-color="#f6d4ab"/></linearGradient><linearGradient id="linear-gradient-2" x1="73.65" y1="151.02" x2="70.3" y2="96.81" gradientUnits="userSpaceOnUse"><stop offset="0" stop-color="#f37327"/><stop offset="0.56" stop-color="#f58645"/><stop offset="1" stop-color="#f79258"/></linearGradient><linearGradient id="linear-gradient-3" x1="71.11" y1="95.1" x2="74.63" y2="125.27" gradientUnits="userSpaceOnUse"><stop offset="0" stop-color="#ed5c2b"/><stop offset="0.42" stop-color="#ef622a"/><stop offset="0.98" stop-color="#f37227"/><stop offset="1" stop-color="#f37327"/></linearGradient><linearGradient id="linear-gradient-4" x1="98.32" y1="62.41" x2="102.4" y2="72.29" gradientUnits="userSpaceOnUse"><stop offset="0" stop-color="#dca47a"/><stop offset="0.5" stop-color="#e5b287"/><stop offset="1" stop-color="#f0c499"/></linearGradient><linearGradient id="linear-gradient-5" x1="43.03" y1="61.1" x2="48.46" y2="74.27" xlink:href="#linear-gradient-4"/><linearGradient id="linear-gradient-6" x1="72.03" y1="35.44" x2="71.52" y2="62.86" gradientUnits="userSpaceOnUse"><stop offset="0" stop-color="#fed8b4"/><stop offset="0.33" stop-color="#fad6af"/><stop offset="1" stop-color="#f6d4ab"/></linearGradient><linearGradient id="linear-gradient-7" x1="86.7" y1="68.68" x2="85.92" y2="59.44" gradientUnits="userSpaceOnUse"><stop offset="0" stop-color="#f6d4ab"/><stop offset="0.52" stop-color="#f5d2a8"/><stop offset="0.85" stop-color="#f2caa0"/><stop offset="1" stop-color="#f0c499"/></linearGradient><radialGradient id="radial-gradient" cx="90.59" cy="124.15" r="19.92" gradientTransform="translate(35.83 5.47) scale(0.55 0.54)" gradientUnits="userSpaceOnUse"><stop offset="0" stop-color="#f8c49d"/><stop offset="1" stop-color="#f6d4ab"/></radialGradient><linearGradient id="linear-gradient-8" x1="59.58" y1="69.04" x2="58.78" y2="59.69" xlink:href="#linear-gradient-7"/><linearGradient id="linear-gradient-9" x1="72.5" y1="89.41" x2="73.11" y2="100.18" gradientUnits="userSpaceOnUse"><stop offset="0" stop-color="#fed8b4"/><stop offset="1" stop-color="#f6d4ab"/></linearGradient><radialGradient id="radial-gradient-2" cx="38.39" cy="124.15" r="19.94" xlink:href="#radial-gradient"/><linearGradient id="linear-gradient-10" x1="56.96" y1="18.77" x2="53.86" y2="89.87" gradientUnits="userSpaceOnUse"><stop offset="0" stop-color="#f6d4ab"/><stop offset="0.45" stop-color="#f3cba1"/><stop offset="1" stop-color="#f0c499"/></linearGradient><linearGradient id="linear-gradient-11" x1="92.81" y1="22.59" x2="89.79" y2="91.75" xlink:href="#linear-gradient-10"/><linearGradient id="_ÂÁ_Ï_ÌÌ_È_ËÂÌÚ_1055" x1="78.54" y1="54.41" x2="93.79" y2="54.41" gradientUnits="userSpaceOnUse"><stop offset="0" stop-color="#422018"/><stop offset="0.32" stop-color="#46221a"/><stop offset="0.66" stop-color="#53281e"/><stop offset="1" stop-color="#683126"/></linearGradient><linearGradient id="linear-gradient-12" x1="51.92" y1="54.46" x2="67.13" y2="54.46" gradientUnits="userSpaceOnUse"><stop offset="0" stop-color="#683126"/><stop offset="0.34" stop-color="#53281e"/><stop offset="0.68" stop-color="#46221a"/><stop offset="1" stop-color="#422018"/></linearGradient><linearGradient id="linear-gradient-13" x1="70.3" y1="27.26" x2="73.15" y2="61.56" xlink:href="#linear-gradient-10"/><linearGradient id="linear-gradient-14" x1="71.48" y1="53.74" x2="72" y2="75.52" gradientUnits="userSpaceOnUse"><stop offset="0" stop-color="#fed8b4"/><stop offset="0.25" stop-color="#fbd6b1"/><stop offset="1" stop-color="#f6d4ab"/></linearGradient><linearGradient id="linear-gradient-15" x1="71.69" y1="64.7" x2="71.95" y2="73.66" xlink:href="#linear-gradient-7"/><linearGradient id="linear-gradient-16" x1="71.49" y1="76.65" x2="72.34" y2="70.32" xlink:href="#linear-gradient-6"/><linearGradient id="_ÂÁ_Ï_ÌÌ_È_ËÂÌÚ_1053" x1="53.09" y1="60.59" x2="67.93" y2="64.76" gradientUnits="userSpaceOnUse"><stop offset="0" stop-color="#f0c499"/><stop offset="0.5" stop-color="#e5b287"/><stop offset="1" stop-color="#dca47a"/></linearGradient><linearGradient id="_ÂÁ_Ï_ÌÌ_È_ËÂÌÚ_45" x1="65.95" y1="64.74" x2="56.44" y2="62.44" gradientUnits="userSpaceOnUse"><stop offset="0" stop-color="#fff"/><stop offset="0.46" stop-color="#fdfcfc"/><stop offset="0.76" stop-color="#f6f4f4"/><stop offset="1" stop-color="#ece7e6"/></linearGradient><linearGradient id="_ÂÁ_Ï_ÌÌ_È_ËÂÌÚ_1059" x1="63.69" y1="66.18" x2="51.94" y2="58.64" gradientUnits="userSpaceOnUse"><stop offset="0" stop-color="#c6c6c0"/><stop offset="1" stop-color="#95958d"/></linearGradient><linearGradient id="_ÂÁ_Ï_ÌÌ_È_ËÂÌÚ_1059-2" x1="68.91" y1="59.17" x2="53.75" y2="63.9" xlink:href="#_ÂÁ_Ï_ÌÌ_È_ËÂÌÚ_1059"/><radialGradient id="radial-gradient-3" cx="48.14" cy="109.51" r="12.11" gradientTransform="translate(35.83 5.47) scale(0.55 0.54)" gradientUnits="userSpaceOnUse"><stop offset="0" stop-color="#2b3b3b"/><stop offset="1" stop-color="#1d2827"/></radialGradient><linearGradient id="_ÂÁ_Ï_ÌÌ_È_ËÂÌÚ_1055-2" x1="54.24" y1="61.93" x2="65.1" y2="61.42" xlink:href="#_ÂÁ_Ï_ÌÌ_È_ËÂÌÚ_1055"/><linearGradient id="_ÂÁ_Ï_ÌÌ_È_ËÂÌÚ_1204" x1="78.92" y1="61.11" x2="93.41" y2="65.19" xlink:href="#linear-gradient-4"/><linearGradient id="linear-gradient-17" x1="91.01" y1="64.78" x2="81.75" y2="62.55" gradientUnits="userSpaceOnUse"><stop offset="0" stop-color="#ece7e6"/><stop offset="0.24" stop-color="#f6f4f4"/><stop offset="0.54" stop-color="#fdfcfc"/><stop offset="1" stop-color="#fff"/></linearGradient><linearGradient id="_ÂÁ_Ï_ÌÌ_È_ËÂÌÚ_1059-3" x1="88.97" y1="63.59" x2="78.99" y2="63.99" xlink:href="#_ÂÁ_Ï_ÌÌ_È_ËÂÌÚ_1059"/><linearGradient id="linear-gradient-18" x1="83.22" y1="60.92" x2="95.35" y2="67.1" gradientUnits="userSpaceOnUse"><stop offset="0" stop-color="#95958d"/><stop offset="1" stop-color="#c6c6c0"/></linearGradient><radialGradient id="radial-gradient-4" cx="93.41" cy="109.51" r="12.11" xlink:href="#radial-gradient-3"/><linearGradient id="linear-gradient-19" x1="80.08" y1="62.17" x2="90.82" y2="61.66" xlink:href="#linear-gradient-12"/><linearGradient id="linear-gradient-20" x1="94.52" y1="67.28" x2="86.68" y2="69.98" gradientUnits="userSpaceOnUse"><stop offset="0" stop-color="#fad6b0"/><stop offset="1" stop-color="#f6d4ab"/></linearGradient><linearGradient id="linear-gradient-21" x1="59.14" y1="69.99" x2="47.51" y2="67.15" xlink:href="#linear-gradient-20"/><linearGradient id="_ÂÁ_Ï_ÌÌ_È_ËÂÌÚ_1204-2" x1="74.62" y1="110.6" x2="74.04" y2="106.51" xlink:href="#linear-gradient-4"/><linearGradient id="_ÂÁ_Ï_ÌÌ_È_ËÂÌÚ_85" x1="76.73" y1="11.1" x2="72.07" y2="49.68" xlink:href="#linear-gradient-12"/><linearGradient id="linear-gradient-22" x1="84.85" y1="98.78" x2="84.48" y2="76.02" gradientUnits="userSpaceOnUse"><stop offset="0" stop-color="#f6d4ab"/><stop offset="0.53" stop-color="#f5d2a8"/><stop offset="0.87" stop-color="#f3caa0"/><stop offset="1" stop-color="#f2c59a"/></linearGradient><linearGradient id="linear-gradient-23" x1="59.68" y1="95.86" x2="59.35" y2="76.07" xlink:href="#linear-gradient-22"/><linearGradient id="_ÂÁ_Ï_ÌÌ_È_ËÂÌÚ_1204-3" x1="73.19" y1="102.17" x2="72.69" y2="87.79" xlink:href="#linear-gradient-4"/><linearGradient id="linear-gradient-24" x1="63.62" y1="84.81" x2="81.85" y2="85.12" gradientUnits="userSpaceOnUse"><stop offset="0" stop-color="#e8d9d7"/><stop offset="0.14" stop-color="#f0e6e4"/><stop offset="0.39" stop-color="#fbf8f8"/><stop offset="0.57" stop-color="#fff"/><stop offset="1" stop-color="#e8d3d1"/></linearGradient><linearGradient id="_ÂÁ_Ï_ÌÌ_È_ËÂÌÚ_1204-4" x1="73.19" y1="101.86" x2="72.71" y2="87.9" xlink:href="#linear-gradient-4"/><linearGradient id="linear-gradient-25" x1="72.08" y1="78" x2="72.37" y2="84.74" gradientUnits="userSpaceOnUse"><stop offset="0" stop-color="#e8d9d7"/><stop offset="0.4" stop-color="#efe5e4"/><stop offset="1" stop-color="#fff"/></linearGradient><linearGradient id="_ÂÁ_Ï_ÌÌ_È_ËÂÌÚ_1204-5" x1="72.81" y1="104.56" x2="72.33" y2="75.62" xlink:href="#linear-gradient-4"/><linearGradient id="_ÂÁ_Ï_ÌÌ_È_ËÂÌÚ_150" x1="77.5" y1="78.38" x2="72.8" y2="51.76" gradientUnits="userSpaceOnUse"><stop offset="0" stop-color="#683126"/><stop offset="0.13" stop-color="#5a2b21"/><stop offset="0.32" stop-color="#4c251c"/><stop offset="0.56" stop-color="#442119"/><stop offset="1" stop-color="#422018"/></linearGradient><linearGradient id="_ÂÁ_Ï_ÌÌ_È_ËÂÌÚ_85-2" x1="67.41" y1="29.77" x2="61.95" y2="57.27" xlink:href="#linear-gradient-12"/><linearGradient id="_ÂÁ_Ï_ÌÌ_È_ËÂÌÚ_85-3" x1="100.08" y1="25.92" x2="89.64" y2="52.49" xlink:href="#linear-gradient-12"/><linearGradient id="_ÂÁ_Ï_ÌÌ_È_ËÂÌÚ_85-4" x1="61.27" y1="29.41" x2="56.01" y2="55.85" xlink:href="#linear-gradient-12"/><linearGradient id="_ÂÁ_Ï_ÌÌ_È_ËÂÌÚ_85-5" x1="85.94" y1="8.08" x2="65.94" y2="109.98" xlink:href="#linear-gradient-12"/><linearGradient id="_ÂÁ_Ï_ÌÌ_È_ËÂÌÚ_85-6" x1="75.36" y1="31.65" x2="70.36" y2="56.85" xlink:href="#linear-gradient-12"/><linearGradient id="_ÂÁ_Ï_ÌÌ_È_ËÂÌÚ_85-7" x1="48.66" y1="25.5" x2="43.19" y2="53.05" xlink:href="#linear-gradient-12"/><linearGradient id="_ÂÁ_Ï_ÌÌ_È_ËÂÌÚ_85-8" x1="48.52" y1="27.57" x2="43.16" y2="54.56" xlink:href="#linear-gradient-12"/><linearGradient id="_ÂÁ_Ï_ÌÌ_È_ËÂÌÚ_85-9" x1="101.42" y1="30.26" x2="97.74" y2="48.79" xlink:href="#linear-gradient-12"/></defs><circle class="cls-1" cx="72" cy="72" r="72" transform="translate(-24.87 40.64) rotate(-27.06)"/><path class="cls-2" d="M89.26,97.6C89,96.41,88,84.12,88,84.12L56.91,82.8l-.06,14.65c-2.9,2-9.26,4-9.26,4-.43,4.77,10.73,16.76,24.4,16.12,17.65-.82,25.92-16.12,25.92-16.12S89.52,98.8,89.26,97.6Z"/><path class="cls-3" d="M79.78,105.9c-.18.16-11.15,1.46-15.11-.08-2-.77-7-6.16-7-6.16-2.14,2-6.28,2.8-6.28,2.8,12,12,25.16,10.16,30.25,8.37S95,102.28,95,102.28A17.71,17.71,0,0,1,88.3,99C85.11,103,80,105.74,79.78,105.9Z"/><path class="cls-4" d="M72,144a71.75,71.75,0,0,0,52-22.23c.09-6.45.08-11.49.08-11.49-8.83-4-27.26-9.3-27.26-9.3s-5.13,14.67-24,15.69S47.9,101,47.9,101c-22.72,6.94-27.79,9.3-27.79,9.3.3.6.27,5.57.3,11.93A71.77,71.77,0,0,0,72,144Z"/><path class="cls-3" d="M126.5,114.79l-1.92,6.39q1.85-2,3.54-4.08C127.56,116.23,127,115.46,126.5,114.79Z"/><path class="cls-5" d="M73.26,124.88c-18.16-.51-24.89-2.61-36.54,4.16a8.82,8.82,0,0,0-3.44,3.67,72,72,0,0,0,78.44-.65,9.22,9.22,0,0,0-2.14-3.8C103.07,121.83,91.41,125.38,73.26,124.88Z"/><path class="cls-4" d="M14.85,115.79a72.18,72.18,0,0,0,9.83,10.47c-2.06-7.26-4.57-16-4.57-16C18.27,110.92,16.51,112.93,14.85,115.79Z"/><path class="cls-4" d="M129.28,115.62c-1.63-2.69-3.36-4.61-5.18-5.34,0,0-2.46,8.52-4.5,15.74A72.23,72.23,0,0,0,129.28,115.62Z"/><path class="cls-6" d="M71.63,113.72A28.64,28.64,0,0,1,47.9,101l-6.37,2s9.16,16.86,29,16.86c22.91,0,32-17.14,32-17.14L96.84,101C95.79,103.24,86.14,113.89,71.63,113.72Z"/><path class="cls-7" d="M101.05,59.78c-3.8.18-7.46,16.86-3.94,16.84,1.23,0,3.84-1.16,5.84-10.17C103,66.45,106.38,59.52,101.05,59.78Z"/><path class="cls-8" d="M99.53,67.78A6.57,6.57,0,0,1,98,72.72a11.57,11.57,0,0,0,2.94-4.11c1.25-4-.3-4.66.57-5.51.71-.7,1.13,1.9,1.13,1.9C104.3,59.72,99.27,59.8,99.53,67.78Z"/><path class="cls-7" d="M44.59,59.78c-5.33-.26-1.9,6.67-1.9,6.67,2,9,4.62,10.34,5.84,10.17C53.12,76,48.39,60,44.59,59.78Z"/><path class="cls-9" d="M46.11,67.78c.26-8-4.77-8.06-3.07-2.78,0,0,.42-2.6,1.13-1.9.87.85-.68,1.52.57,5.51a11.57,11.57,0,0,0,2.94,4.11A6.62,6.62,0,0,1,46.11,67.78Z"/><path class="cls-10" d="M68.54,24.73c-19.52.82-23.36,16.1-23.36,16.1s1.66,20.38,1.93,22.59,1.73,18,2.76,20.34,14.26,15.92,17.88,17a21.34,21.34,0,0,0,11.15,0C81.6,99.83,94.08,85,94.62,83a164.57,164.57,0,0,0,3.51-18.81c.54-5.87-.11-21.55-.64-23.06S95.63,23.58,68.54,24.73Z"/><path class="cls-11" d="M93.16,55.49c-5-3.55-14.1.06-14.1.06-.34,1.87-3.35,10.59-2,11.24,8.23,4,19.11-1.12,19.11-1.12C96.21,60.36,94.05,56.12,93.16,55.49Z"/><path class="cls-12" d="M86.51,81.94c4.53.29,9.6-.27,10.55-9.37.54-5.18,0-7.89-2.28-8.3C90,63.41,83.2,65.43,80.36,66.86,74.36,69.9,78.48,81.41,86.51,81.94Z"/><path class="cls-13" d="M52.3,56c-.89.63-2.83,4.38-2.75,9.69,0,0,10.88,5.16,19.1,1.12,1.32-.65-1.46-9.66-1.81-11.53C66.84,55.26,57.34,52.42,52.3,56Z"/><path class="cls-14" d="M73.08,93.23c-1.91,0-6.68,1.25-6.54,1.93.42,2,4.84,2.38,6.74,2.37s5.75-.47,5.83-2.22C79.15,94.63,75,93.22,73.08,93.23Z"/><path class="cls-15" d="M63.88,66.1c-1.3-.46-11.16-2.64-14.1-1.81-1.68.48-1,4.13-.7,7.6.14,1.67.12,4.33.5,5.38,1.9,5.13,9.14,5.36,13.32,3.92C70,78.75,70.45,68.43,63.88,66.1Z"/><path class="cls-16" d="M49.59,53.33l-3.45,2.08.34,7.27S47.55,82.36,48.7,84.1s9.63,9.25,14.06,13.18c0,0-11.86-12.54-12.34-14.22S49.59,53.33,49.59,53.33Z"/><path class="cls-17" d="M94.62,83C94.14,84.68,81.87,98.4,81.87,98.4,86.3,94.47,95,85.84,96.16,84.1s2.51-21.42,2.51-21.42L99,55.41l-2.42-.68S95.09,81.31,94.62,83Z"/><path class="cls-18" d="M91,53.63c-4.9-1.71-7.75-1.18-10.93-1.13a3.59,3.59,0,0,0-.72,2.38,2.43,2.43,0,0,1-.32-2,3,3,0,0,0-.23,2.9c1.7.23,6.57-.81,9.91-.66,3.82.16,5.06,1.26,5.06,1.26S92.48,54.14,91,53.63Z"/><path class="cls-19" d="M66.31,54.73a3.65,3.65,0,0,0-.77-2.37c-3.18,0-6.05-.44-10.9,1.37-1.45.54-2.72,2.86-2.72,2.86s.78-1.05,4.6-1.29c3.33-.21,8.67.63,10.36.37a3,3,0,0,0-.29-2.9A2.44,2.44,0,0,1,66.31,54.73Z"/><path class="cls-20" d="M94.05,34.6c-13.21-1-42.73-1.58-45.8-1.51s-.08,31.09-.08,31.09,1.57-13,2.25-16.5a84,84,0,0,1,4-8.71c1-1.45,6.93,1.12,16.12.91,6.19-.14,16-2.61,18.1-1.58.59.29,6.16,8.5,6.46,9.73.9,3.74,3,16.15,3,16.15S97.45,34.86,94.05,34.6Z"/><path class="cls-21" d="M73.68,68.19c.22-4.79-1.29-5.47-2.4-5.43s-1.69,1.7-1.47,5.35-.42,5-.27,6.73c.07.78.39,1.28,2.16,1.3,1.94,0,2.61-.5,2.69-1.22C74.62,72.94,73.52,71.64,73.68,68.19Z"/><path class="cls-22" d="M73.51,77.49c2.63-.72,4-1,4-1C75.17,74.65,73.51,77.49,73.51,77.49Z"/><path class="cls-22" d="M66.46,76.24s1.94.5,4,1.28C70.46,77.52,68.9,74.69,66.46,76.24Z"/><path class="cls-23" d="M76.14,74.69c-.73,1.51-3.74,2-4.22,2s-3.68-.35-4.61-2c-.38-.65,0-3,.24-4.16,0,0-2.84,5.57-1.09,5.67A2.42,2.42,0,0,1,68.17,76c1.26.13.73,2,3.88,2,2.51,0,1.71-1.65,3.31-1.91a2.33,2.33,0,0,1,2.16.38c1.38-.17.14-3.59-1.73-6.2A8.5,8.5,0,0,1,76.14,74.69Z"/><path class="cls-24" d="M68.46,74.21c-.11.78,1.68,2.1,3.44,2.11,1.95,0,3.43-1.63,3.27-2.35C74.21,69.72,68.87,71.31,68.46,74.21Z"/><path class="cls-25" d="M62.58,58.72c-1.35-.08-6.83.36-7.79,1.14-1.72,1.4-2.33,2.67-2.18,4.27,0,.47,1.88,2.28,5.79,2.6,2.92.23,7.57,0,8.7-1.28.54-.62-.16-3.08-.38-4C66.31,59.85,66.69,59,62.58,58.72Z"/><path class="cls-26" d="M62.85,60.43c-6.27-.79-5.9.19-8.44,3.23a2.63,2.63,0,0,0,.39,1,4.3,4.3,0,0,0,2.61,1.59,12.93,12.93,0,0,0,7-.16C65.17,66,66,65.23,66,64.9a5.85,5.85,0,0,0-.39-2.55A3.19,3.19,0,0,0,62.85,60.43Z"/><path class="cls-27" d="M54.41,63.66a2.37,2.37,0,0,0,.36,1c4.51-2.92,9.37-2.24,10.81-2.29C63,60.65,59.3,61,57.46,60.82,55.12,60.55,54.41,63.66,54.41,63.66Z"/><path class="cls-28" d="M60.3,60.8a3.55,3.55,0,0,0-3.49,3.87,2.78,2.78,0,0,0,.6,1.6,12.81,12.81,0,0,0,2.94.4,10.85,10.85,0,0,0,3.13-.33A4.55,4.55,0,0,0,64,64.51,3.34,3.34,0,0,0,60.3,60.8Z"/><path class="cls-29" d="M60.15,60.53a3.71,3.71,0,0,0-3.28,3,15.75,15.75,0,0,1,6.67-1.21A3.85,3.85,0,0,0,60.15,60.53Z"/><path class="cls-30" d="M60.37,61.41a2.25,2.25,0,1,0,2.24,2.21A2.23,2.23,0,0,0,60.37,61.41Z"/><path class="cls-31" d="M64.29,60.8c-2.21-1.29-5.66-1-7.87-.11a3.12,3.12,0,0,0-2,3s1.13-1.34,4.85-1.87a13,13,0,0,1,6.32.56A3.57,3.57,0,0,0,64.29,60.8Z"/><path class="cls-32" d="M62.18,63.84a1,1,0,0,0-.46,1.28.91.91,0,0,0,1.26.39,1,1,0,0,0,.46-1.28A.91.91,0,0,0,62.18,63.84Z"/><path class="cls-32" d="M60.21,62.89a.75.75,0,0,0-.36,1,.72.72,0,0,0,1,.31.78.78,0,0,0,.36-1A.73.73,0,0,0,60.21,62.89Z"/><path class="cls-33" d="M91,59.86c-1-.78-5.79-1.22-7.14-1.14C79.71,59,79.44,59.85,79,61.5c-.22.87-.92,3.33-.38,4,1.13,1.28,5.77,1.51,8.7,1.28,3.91-.32,5.75-2.13,5.79-2.6C93.29,62.53,92.68,61.26,91,59.86Z"/><path class="cls-34" d="M82.9,60.43a3.17,3.17,0,0,0-2.73,1.92,5.85,5.85,0,0,0-.39,2.55c0,.33.79,1.06,1.53,1.21a12.93,12.93,0,0,0,7,.16A4.3,4.3,0,0,0,91,64.68a2.63,2.63,0,0,0,.39-1C88.79,60.62,89.17,59.64,82.9,60.43Z"/><path class="cls-27" d="M88.29,60.82c-1.84.21-5.57-.17-8.12,1.53,1.43,0,6.3-.63,10.81,2.29a2.52,2.52,0,0,0,.36-1S90.63,60.55,88.29,60.82Z"/><path class="cls-35" d="M85.44,60.8a3.34,3.34,0,0,0-3.74,3.71,4.68,4.68,0,0,0,.57,1.83,10.77,10.77,0,0,0,3.12.33,12.83,12.83,0,0,0,3-.4,2.69,2.69,0,0,0,.59-1.6A3.55,3.55,0,0,0,85.44,60.8Z"/><path class="cls-36" d="M85.6,60.53a3.85,3.85,0,0,0-3.39,1.79,15.81,15.81,0,0,1,6.67,1.21A3.72,3.72,0,0,0,85.6,60.53Z"/><path class="cls-37" d="M85.38,61.41a2.25,2.25,0,1,0,2.17,2.29A2.22,2.22,0,0,0,85.38,61.41Z"/><path class="cls-38" d="M89.33,60.69c-2.21-.93-5.66-1.18-7.88.11a3.6,3.6,0,0,0-1.28,1.55,13,13,0,0,1,6.32-.56c3.71.53,4.85,1.87,4.85,1.87A3.12,3.12,0,0,0,89.33,60.69Z"/><path class="cls-32" d="M87.18,63.73a1,1,0,0,0-.83,1.13.94.94,0,0,0,1,.88,1,1,0,0,0,.84-1.13A1,1,0,0,0,87.18,63.73Z"/><path class="cls-32" d="M85.11,62.81a.78.78,0,0,0-.65.88.76.76,0,0,0,.83.7.78.78,0,0,0,.65-.88A.75.75,0,0,0,85.11,62.81Z"/><path class="cls-39" d="M94.3,66.47c-.81-.44-1.42.2-3.12.74S85,68.58,87.1,69.7c2.37,1.25,5.67-.46,6.07-.78S95.31,67,94.3,66.47Z"/><path class="cls-40" d="M54,67.55c-1.72-.45-2.36-1.07-3.16-.58-1,.6.85,2.09,1.26,2.39s3.81,1.84,6.11.48C60.33,68.6,55.74,68,54,67.55Z"/><path class="cls-41" d="M68.45,100.54c-1.43-.16-5.69-3.26-5.69-3.26s4.2,3.51,5,3.94,6.92.83,10,.26c2-.37,5.06-3.88,5.06-3.88s-3.17,2.56-5.62,3A46,46,0,0,1,68.45,100.54Z"/><path class="cls-42" d="M99,33.08c.42-1.53,1.91-3-.38-6.13.15,2.62-2.6,4.51-3.34,5C97,28.67,100,20.39,92.58,13.29a13.66,13.66,0,0,1-5.18,6.3s.42-5.61-2.69-8c0,0,.41,6-4.15,8.92a37,37,0,0,0-3.11-8.92s-.58,5-17.82,8.19C48,21.91,49.71,27,50.12,31.79c0,0-3.78-.89-2.74-6,0,0-4.69,6-1.62,9.51,0,0-4.16,2.73-2.57,9.62.25,1.08,1.4,14.83,1.4,14.83s2.5,1,3.5,4.77c0-4.69.08-20.49.08-21.42s4.85-8.81,7.58-8.38c.76.13,2.08.48,3.65.92,4.9-.07,12.39.1,18.68.29,4.83-1.13,10.25-2.32,10.25-2.32s6.46,5.5,7.36,8c.34.91,2.36,18.24,2.51,22.33a1.77,1.77,0,0,0,0,.24c.8-3.58,2.84-4.4,2.84-4.4.33-9,1-14.53.72-18.64S99,36.42,99,36.42a7.34,7.34,0,0,1,5-1C102.55,32.67,99.84,32.43,99,33.08Z"/><path class="cls-43" d="M81,76.47c5.51,4.31,4.61,7.81,3.47,8.9,2.11-1.72,3.84-4.12,3.45-4.8C87.31,79.43,81,76.47,81,76.47Z"/><path class="cls-44" d="M56.46,80.5c-.15.83.74,2,2.35,3.65,0,0-2.46-3.61,3.53-7.64C62.34,76.51,56.67,79.35,56.46,80.5Z"/><path class="cls-45" d="M82.59,81.7a26.15,26.15,0,0,0,2.87-.79,2.41,2.41,0,0,0,.45-.85l-1.68.5Z"/><path class="cls-45" d="M58.72,80.22a2.43,2.43,0,0,0,.44.85,24.62,24.62,0,0,0,2.87.79L60.4,80.73Z"/><path class="cls-46" d="M67,91.58a44.62,44.62,0,0,1,11.71.09C73.38,88.41,67,91.58,67,91.58Z"/><path class="cls-47" d="M59.35,80.55c.14.14.24.34.42.42,3.36,1.47,3.41,2.87,4.85,3.64a16.26,16.26,0,0,0,15-.13c2.3-1.25,2.6-2.71,5.35-3.78a.68.68,0,0,0,.44-.42A55.79,55.79,0,0,1,59.35,80.55Z"/><path class="cls-48" d="M72.54,87.47c-2,0-4-.38-4,0s1.73,1.24,3.71,1.24,4-.86,4-1.24S74.53,87.47,72.54,87.47Z"/><path class="cls-49" d="M78.27,83.57a34.12,34.12,0,0,1-6.22.78,38.81,38.81,0,0,1-6.6-.72c-.62-.12-.89,1-.89,1,1.87,1.34,4.12,1.85,7.72,1.88a12.71,12.71,0,0,0,7.46-2S79.06,83.42,78.27,83.57Z"/><path class="cls-50" d="M65.2,88c7.67,6,15-.41,15-.41A17.46,17.46,0,0,1,65.2,88Z"/><path class="cls-51" d="M62.68,81.24A2.13,2.13,0,0,0,64,83c.74.32,2.41,1.57,8.89,1.38s7.75-1.74,8-2a3.45,3.45,0,0,0,.8-1.36A59.2,59.2,0,0,1,62.68,81.24Z"/><path class="cls-52" d="M62.65,81.12a2.52,2.52,0,0,0,.26.91c.18.27,5.35,1,9.26,1a36.07,36.07,0,0,0,9.19-1.19,3,3,0,0,0,.43-1S77.4,82.38,62.65,81.12Z"/><path class="cls-53" d="M58.55,80.15s.94.54.8.4a55.79,55.79,0,0,0,26.11-.27l.8-.4C78.27,81.2,58.55,80.15,58.55,80.15Z"/><path class="cls-54" d="M89.64,30.17C87.52,35.69,77,34.48,72.21,34.83S53.06,32.2,52.93,32.2c-.5,0-6,11.56-6.06,13.66S48.1,60.51,48.1,60.51s.82-12,.94-12.5,3-10.32,5-11.14S64,38.24,69.55,38.23s18.35-2.84,19.77-2,6.5,10.9,6.78,11.48C96.51,48.55,98,61,98,61s-.21-15.57-.26-16.69C97.6,41.65,89.64,30.17,89.64,30.17Z"/><path class="cls-55" d="M54.79,32.74c19.27,6.89,33.06-8.47,22.66-21.16C80.58,23.44,66.21,33.58,54.79,32.74Z"/><path class="cls-56" d="M94.58,33.94c4.43,2.48,7.82-3.24,4-7C99,31.79,97.25,33.08,94.58,33.94Z"/><path class="cls-57" d="M50.12,31.79c-.88-12.73,24.79-5.13,27.33-20.21C72.05,21.74,43.59,15.22,50.12,31.79Z"/><path class="cls-58" d="M69.48,33.94C89.66,40.83,99,24,92.58,13.29,94.08,22.76,84.85,33.24,69.48,33.94Z"/><path class="cls-59" d="M84.71,11.58c4.22,11.79-9.9,23.1-21.08,22.11C84.52,40.37,95.13,19.93,84.71,11.58Z"/><path class="cls-60" d="M43.19,45s1.44-8.53,6.4-9.41l-3.83-.21S41.53,36.8,43.19,45Z"/><path class="cls-61" d="M47.38,25.82c-5.17,4.1-3.31,13.77,3,9.19C47.26,35,44.65,30.17,47.38,25.82Z"/><path class="cls-62" d="M99,36.42H97c2.5,2.38,4.82,7.74,4.82,7.74a24.06,24.06,0,0,0-.33-4.57C100.71,36.49,99,36.42,99,36.42Z"/></svg>