<svg xmlns="http://www.w3.org/2000/svg" viewBox="0 0 129.95 130.11"><defs><style>.cls-1{fill:#f6ece6;}.cls-2{fill:#58595b;}</style></defs><g id="Layer_2" data-name="Layer 2"><g id="Layer_3" data-name="Layer 3"><path class="cls-1" d="M65,0a65,65,0,1,0,65,65A65,65,0,0,0,65,0Z"/><path class="cls-2" d="M22.51,114s7.17-15.9,8-16.57,18.71-8.6,23.2-9.6c-.26-5.22,0-6.12-.37-6.53s-5.8-4.11-7.3-6.28-2.49-3.23-2.44-3.79a7.27,7.27,0,0,1-3-3.15c-.3-1-1.72-3.5-1.66-5.61s.42-3.08,1.1-3.46c-.31-1.55-1.45-8.47-1.49-10s-.12-3.56-.12-3.56L38,46.82A45.71,45.71,0,0,1,38.45,41c.3-.59,1.14-4,1.28-4.28-.81.71-1,.83-1,.83s1.73-5.34,3.58-6.72,6.55-4.26,9.54-4.65a17.38,17.38,0,0,1,10.45-4.56,28.71,28.71,0,0,1,14.27,2.23c4.4,2.1,8.5,4.88,9.35,6.68l-1.1.05a15.5,15.5,0,0,1,1.24,1.27,19.59,19.59,0,0,1,3.28,10.85l-.61-1.06s0,16-.43,16.7a1.72,1.72,0,0,1,1.52.79c.4.51.6,2.78,0,4.44s-1.78,4.85-2.66,5.56l-1.29,1a23.09,23.09,0,0,1-4.13,6c-1.6,1.5-6.38,5.65-6.53,5.79,0,.66-.12,6.53-.12,6.53,1,.06,24.64,8.91,28.52,13.18s4.67,7.71,4.47,11.87c-3.8,3.13-12.43,9.78-20,12.14s-16.21,5.58-28.79,4S33.22,123.56,22.51,114Z"/></g></g></svg>