<svg xmlns="http://www.w3.org/2000/svg" viewBox="0 0 129.95 129.95"><defs><style>.cls-1{fill:#f6ece6;}.cls-2{fill:#58595b;}</style></defs><g id="Layer_2" data-name="Layer 2"><g id="Layer_11" data-name="Layer 11"><g id="Layer_12" data-name="Layer 12"><path class="cls-1" d="M65,0a65,65,0,1,0,65,65A65,65,0,0,0,65,0Z"/><path class="cls-2" d="M13.58,104.72c2.36-2.93,2.86-4,4.91-4.84S50.34,88.1,50.57,85.79a61.9,61.9,0,0,0,0-6.62c-1.25-1.24-6.79-5.74-7.32-8s-1.18-6.33-1.18-6.33c-1-.08-4.85-6.51-4.94-10.13-1.33-3.33-.92-4.41,0-4.66a2.4,2.4,0,0,1,2.58.66c.07-1.59.71-17.44,1.33-19.13s4.73-10.3,9.4-12.1S62.91,17.15,66,17s11.17.73,12.6,1.84,7.79,4.71,8.77,10.42S89.16,50,89.16,50c.51-.4.89-.58,1.17-.53s2.09.33,2.08,1.15-.77,3.06-.84,3.71c-.13,1.2-1.35,8.54-3,10.3-.75.9-1.07.5-1.07.5a46,46,0,0,1-1.14,5.35c-.43.83-6.45,8.22-6.45,8.22.16.76.49,5.94,1.11,6.66s29.94,12.16,31.86,13.74a33.35,33.35,0,0,1,4.26,4.7c-11.3,11.75-24.32,26.13-51.37,26.13S21.15,113,20.2,112.05,13.58,104.72,13.58,104.72Z"/></g></g></g></svg>