<svg xmlns="http://www.w3.org/2000/svg" viewBox="0 0 129.95 129.95"><defs><style>.cls-1{fill:#f6ece6;}.cls-2{fill:#58595b;}</style></defs><g id="Layer_2" data-name="Layer 2"><g id="Layer_5" data-name="Layer 5"><g id="Layer_6" data-name="Layer 6"><path class="cls-1" d="M65,0a65,65,0,1,0,65,65A65,65,0,0,0,65,0Z"/><path class="cls-2" d="M14.12,105.41c2.12-2.79,3.71-4.56,5-5.35s22.4-10.88,24.65-11.82c1.73-2.13,8.08-9.55,8.08-9.55-.85-1.24-7.35-7.57-7.63-8.39s-.79-3.88-.79-3.88l-.2-3.73c-.37.08-.79.35-1.41-.56S39,55.4,39.08,53.27c-.81-2.65-1.2-4-.83-4.5a3.78,3.78,0,0,1,1.93-1.06A71.24,71.24,0,0,1,40,38.29c-.64-3.16-1.16-6.4-.52-7.94s2.19-6.49,6-8.08c3-4.39,6.58-7.25,13.16-8.18s13,.22,16.62,1.91a33.63,33.63,0,0,1,6,3.63c1.51.57,3.6.94,5.3,3.69s2.85,4.69,3.06,7.05.34,4.74-.51,6.47c.2,2.54.44,4.59.52,6a37.91,37.91,0,0,1-.09,4.77,2.76,2.76,0,0,1,1.87.76,2.74,2.74,0,0,1,.24,1.34c0,.3-.62,2.86-.75,3.24-.08.85-.51,4.38-.77,5.38a19.57,19.57,0,0,1-1.11,3.24,12.42,12.42,0,0,1-1.14,1.15.59.59,0,0,1-.67,0c0,.41-.34,6.55-.54,7.45s-5.93,7.4-5.93,7.4c0,.36,7.2,10.1,8,10.58s19,6.74,23.79,11.31,4.11,4.85,4.11,4.85c-1.6,2-10.11,12.31-16.59,15.66s-18.9,10-32.29,10S38.26,127,28.29,118.61,14.12,105.41,14.12,105.41Z"/></g></g></g></svg>