<svg xmlns="http://www.w3.org/2000/svg" viewBox="0 0 129.95 129.95"><defs><style>.cls-1{fill:#f6ece6;}.cls-2{fill:#58595b;}</style></defs><g id="Layer_2" data-name="Layer 2"><g id="Layer_8" data-name="Layer 8"><path class="cls-1" d="M65,0a65,65,0,1,0,65,65A65,65,0,0,0,65,0Z"/><g id="Layer_9" data-name="Layer 9"><path class="cls-2" d="M19,110.85c1.19-4.64,3.45-11.37,4.39-12.54a5.85,5.85,0,0,1,2.56-1.66c-.59-2.08.18-4.51-.13-5.29-.8-2-5.08-8.45-3.76-11S32.4,66.86,32.8,65a93.56,93.56,0,0,0,1.32-19.64c1.94-8.58,7.85-25,18.4-27s14.31,0,14.31,0c2.45-.64,12.49,1.43,16.72,5.17s10,14.34,9.81,21.8S92.47,58,92.45,60s3.69,8.11,5.67,10.53,8.12,8.07,8.12,11.75-3,10.5-3.28,11.42a8.86,8.86,0,0,1,.64,2.7,16.56,16.56,0,0,1,3.08,1.93A99.42,99.42,0,0,1,110.83,111C107.88,113.76,91.67,130,65,130S19,110.85,19,110.85Z"/></g></g></g></svg>