<svg xmlns="http://www.w3.org/2000/svg" viewBox="0 0 129.95 129.95"><defs><style>.cls-1{fill:#f6ece6;}.cls-2{fill:#58595b;}</style></defs><g id="Layer_2" data-name="Layer 2"><g id="Layer_14" data-name="Layer 14"><g id="Layer_15" data-name="Layer 15"><path class="cls-1" d="M65,0a65,65,0,1,0,65,65A65,65,0,0,0,65,0Z"/><path class="cls-2" d="M15.62,107.24c1.4-2.34,4.08-7,5.91-7.77S44.3,90.26,44.3,90.26c.51-1.25,3.79-7.89,7-8.66a72.25,72.25,0,0,1-7.62-8.35,22.39,22.39,0,0,1-1.41-5.07c-1,.19-2-1.5-2-1.5s-2.61-4.85-2.78-8.39c-1.13-2.6-1.35-3.82-.07-4.51S39,53.56,39,53.56c.08-1.25-.56-17.32-.4-18.45a15.39,15.39,0,0,1,1-4c.48-.8,6.3-8.61,9.55-9.85s21.14-1.79,26.18-1S81.7,23,82.57,23.87s5.61,7.52,5.74,8.84-.34,19.93.3,19.61c.94-.47,2.49.28,2.49.28s1.19,1-.38,3.9a55.23,55.23,0,0,1-1.22,6.37c-.31,1-.63,4.09-2.87,4.59-.24,2.27-.2,5.91-2.76,8a24.58,24.58,0,0,0-4.64,5.4c1.67.6,6.61,6,7.06,8C89.56,90,107.44,97.33,109,98.23s5.75,7.09,6,8.27c-1.91,2.2-19,23-48.66,23.43S15.62,107.24,15.62,107.24Z"/></g></g></g></svg>